<svg xmlns="http://www.w3.org/2000/svg" viewBox="0 0 147.514 147.456">
  <defs>
    <style>
      .cls-1 {
        fill: #fff;
      }

      .cls-2 {
        fill: #e1e6e9;
      }

      .cls-3 {
        fill: #193651;
      }

      .cls-4 {
        fill: #fdbf5e;
      }

      .cls-5 {
        fill: #f16051;
      }
    </style>
  </defs>
  <g id="online-education" transform="translate(0 -0.097)">
    <path id="Path_711" data-name="Path 711" class="cls-1" d="M73.526,0A73.526,73.526,0,1,1,0,73.526,73.526,73.526,0,0,1,73.526,0Z" transform="translate(0.461 0.27)"/>
    <path id="Path_695" data-name="Path 695" class="cls-2" d="M79.21,7.661,7.758,39.7,79.21,71.737,150.662,39.7Z" transform="translate(-5.453 -5.317)"/>
    <path id="Path_696" data-name="Path 696" class="cls-3" d="M73.757,68.725a1.385,1.385,0,0,1-.922-.231L1.383,36.457A2.215,2.215,0,0,1,0,34.382a2.016,2.016,0,0,1,1.383-2.074L72.835.27a2.524,2.524,0,0,1,1.844,0l71.452,32.038a2.215,2.215,0,0,1,1.383,2.074,2.016,2.016,0,0,1-1.383,2.074L74.679,68.495A1.385,1.385,0,0,1,73.757,68.725ZM7.837,34.382l65.92,29.5,65.92-29.5L73.757,4.88Z"/>
    <path id="Path_697" data-name="Path 697" class="cls-1" d="M190.323,101.574a102.738,102.738,0,0,0-84.82,0v36.648h0a102.739,102.739,0,0,0,84.82,0V101.574Z" transform="translate(-74.156 -64.887)"/>
    <path id="Path_698" data-name="Path 698" class="cls-3" d="M142.46,145.248a106.728,106.728,0,0,1-43.332-9.22,2.215,2.215,0,0,1-1.383-2.074V97.306a2.215,2.215,0,0,1,1.383-2.074,106.441,106.441,0,0,1,86.664,0,2.215,2.215,0,0,1,1.383,2.074v36.648a2.215,2.215,0,0,1-1.383,2.074A106.726,106.726,0,0,1,142.46,145.248ZM102.355,132.34a101.071,101.071,0,0,0,80.211,0V98.689a101.071,101.071,0,0,0-80.211,0V132.34Z" transform="translate(-68.703 -60.388)"/>
    <path id="Path_699" data-name="Path 699" class="cls-2" d="M169.724,160.442a94.127,94.127,0,0,1-33.191-5.993V130.017a94.907,94.907,0,0,1,66.381,0v24.432a94.127,94.127,0,0,1-33.191,5.993Z" transform="translate(-95.967 -87.106)"/>
    <path id="Path_700" data-name="Path 700" class="cls-3" d="M42.644,153.234a2.178,2.178,0,0,1-2.305-2.305V127.88a2.305,2.305,0,1,1,4.61,0v23.049A2.31,2.31,0,0,1,42.644,153.234Z" transform="translate(-28.354 -88.196)"/>
    <ellipse id="Ellipse_223" data-name="Ellipse 223" class="cls-1" cx="5.993" cy="5.532" rx="5.993" ry="5.532" transform="translate(8.298 62.733)"/>
    <g id="Group_156" data-name="Group 156" transform="translate(5.993 52.822)">
      <path id="Path_701" data-name="Path 701" class="cls-3" d="M28.468,218.824a7.85,7.85,0,1,1,0-15.673,7.85,7.85,0,1,1,0,15.673Zm0-11.063a3.256,3.256,0,1,0,0,6.454,3.417,3.417,0,0,0,3.688-3.227A3.573,3.573,0,0,0,28.468,207.761Z" transform="translate(-20.17 -195.545)"/>
      <rect id="Rectangle_382" data-name="Rectangle 382" class="cls-3" width="4.61" height="4.61" transform="translate(51.63)"/>
      <rect id="Rectangle_383" data-name="Rectangle 383" class="cls-3" width="4.61" height="4.61" transform="translate(65.459)"/>
      <rect id="Rectangle_384" data-name="Rectangle 384" class="cls-3" width="4.61" height="4.61" transform="translate(79.288)"/>
    </g>
    <path id="Path_702" data-name="Path 702" class="cls-1" d="M366.042,387.743V370.226a10.329,10.329,0,0,0-10.372-10.372H333.313a19.084,19.084,0,0,0-19.131,19.131h0a19.084,19.084,0,0,0,19.131,19.131H355.67A10.329,10.329,0,0,0,366.042,387.743Z" transform="translate(-220.833 -252.867)"/>
    <path id="Path_703" data-name="Path 703" class="cls-3" d="M350.218,352.1H327.86a21.435,21.435,0,1,0,0,42.871h22.358A12.79,12.79,0,0,0,362.9,382.291V364.773A12.79,12.79,0,0,0,350.218,352.1Zm8.067,30.194a8.167,8.167,0,0,1-8.067,8.067H327.86a16.826,16.826,0,0,1,0-33.651h22.358a8.167,8.167,0,0,1,8.067,8.067v17.517Z" transform="translate(-215.381 -247.415)"/>
    <path id="Path_704" data-name="Path 704" class="cls-4" d="M333.313,443.373h8.3V424.242H314.182A19.084,19.084,0,0,0,333.313,443.373Z" transform="translate(-220.833 -298.125)"/>
    <path id="Path_705" data-name="Path 705" class="cls-3" d="M336.934,440.225h-8.3A21.543,21.543,0,0,1,307.2,418.79a2.178,2.178,0,0,1,2.305-2.3h27.428a2.178,2.178,0,0,1,2.305,2.3v19.131A2.31,2.31,0,0,1,336.934,440.225ZM311.81,421.095a16.881,16.881,0,0,0,16.6,14.521H334.4V421.095Z" transform="translate(-215.927 -292.672)"/>
    <path id="Path_706" data-name="Path 706" class="cls-5" d="M342.386,359.855h-8.3a19.084,19.084,0,0,0-19.131,19.131h27.428Z" transform="translate(-221.379 -252.868)"/>
    <path id="Path_707" data-name="Path 707" class="cls-3" d="M336.388,375.837H308.729a2.178,2.178,0,0,1-2.305-2.305A21.543,21.543,0,0,1,327.859,352.1h8.3a2.178,2.178,0,0,1,2.3,2.305v19.131A2.006,2.006,0,0,1,336.388,375.837Zm-25.124-4.61h22.819V356.707H328.09A16.939,16.939,0,0,0,311.264,371.228Z" transform="translate(-215.38 -247.415)"/>
    <path id="Path_708" data-name="Path 708" class="cls-1" d="M336.679,414.972a3.885,3.885,0,0,0,3.918,3.918h6.223a3.918,3.918,0,1,0,0-7.837H340.6A3.885,3.885,0,0,0,336.679,414.972Z" transform="translate(-236.646 -288.855)"/>
    <g id="Group_157" data-name="Group 157" transform="translate(0 80.711)">
      <path id="Path_709" data-name="Path 709" class="cls-3" d="M341.368,416.52h-6.223a6.223,6.223,0,0,1,0-12.446h6.223a6.2,6.2,0,0,1,6.223,6.223A6.051,6.051,0,0,1,341.368,416.52Zm-5.993-8.067a1.613,1.613,0,0,0,0,3.227H341.6a1.613,1.613,0,1,0,0-3.227Z" transform="translate(-231.194 -364.66)"/>
      <path id="Path_710" data-name="Path 710" class="cls-3" d="M93.349,319.13H11.755a11.755,11.755,0,1,1,0-23.51H64.076a7.181,7.181,0,0,0,7.145-7.145V273.723a2.305,2.305,0,0,1,4.61,0v14.751a11.8,11.8,0,0,1-11.755,11.755H11.755a7.145,7.145,0,0,0,0,14.29H93.349a2.305,2.305,0,1,1,0,4.61Z" transform="translate(0 -271.418)"/>
    </g>
  </g>
</svg>
