<svg xmlns="http://www.w3.org/2000/svg" viewBox="0 0 67 61.649">
  <defs>
    <style>
      .cls-1 {
        fill: #fff;
      }

      .cls-2 {
        fill: #a5dc69;
      }

      .cls-3 {
        fill: #78d2fa;
      }

      .cls-4 {
        fill: #231f20;
      }

      .cls-5 {
        fill: #ff5a5a;
      }
    </style>
  </defs>
  <g id="website" transform="translate(0 -20.445)">
    <path id="Path_787" data-name="Path 787" class="cls-1" d="M18.62,89.463h-4.46a4.18,4.18,0,0,1-4.18-4.18V30.426H69.018V85.283a4.18,4.18,0,0,1-4.18,4.18H18.62Z" transform="translate(-8.675 -8.675)"/>
    <path id="Path_788" data-name="Path 788" class="cls-2" d="M64.838,30.426H14.161a4.18,4.18,0,0,0-4.18,4.18V39.83H69.018V34.606A4.18,4.18,0,0,0,64.838,30.426Z" transform="translate(-8.675 -8.675)"/>
    <g id="Group_160" data-name="Group 160" transform="translate(8.359 40.298)">
      <rect id="Rectangle_386" data-name="Rectangle 386" class="cls-3" width="26.962" height="18.286"/>
      <path id="Path_789" data-name="Path 789" class="cls-3" d="M427.592,335.082l-11.206-11.206,5.075-5.076,6,6Z" transform="translate(-370.257 -299.611)"/>
    </g>
    <path id="Path_790" data-name="Path 790" class="cls-4" d="M20.071,102.29H77.134" transform="translate(-17.445 -71.135)"/>
    <circle id="Ellipse_224" data-name="Ellipse 224" class="cls-5" cx="13.99" cy="13.99" r="13.99" transform="translate(30.559 35.559)"/>
    <path id="Path_791" data-name="Path 791" d="M195.762,58.989h27.111a1.306,1.306,0,0,0,0-2.612H195.762a1.306,1.306,0,0,0,0,2.612Z" transform="translate(-169.01 -31.23)"/>
    <path id="Path_792" data-name="Path 792" d="M87.5,58.989a1.307,1.307,0,1,0-.923-.383A1.316,1.316,0,0,0,87.5,58.989Z" transform="translate(-74.916 -31.23)"/>
    <path id="Path_793" data-name="Path 793" d="M50.822,58.989a1.307,1.307,0,1,0-.923-.383A1.316,1.316,0,0,0,50.822,58.989Z" transform="translate(-43.036 -31.23)"/>
    <path id="Path_794" data-name="Path 794" d="M124.174,58.989a1.307,1.307,0,1,0-.923-.383A1.319,1.319,0,0,0,124.174,58.989Z" transform="translate(-106.79 -31.23)"/>
    <path id="Path_795" data-name="Path 795" d="M66.618,74.845,56.335,64.563l1.613-1.613h0l1.613-1.613,5.08,5.08a1.306,1.306,0,0,0,1.847-1.847l-6-6a1.306,1.306,0,0,0-1.847,0l-1.614,1.614-.782-.782a15.288,15.288,0,0,0-22.754-20.4l-.037,0H8.359A1.306,1.306,0,0,0,7.053,40.3V58.584A1.306,1.306,0,0,0,8.359,59.89H33.29A15.268,15.268,0,0,0,54.4,61.244l.782.782L53.564,63.64a1.306,1.306,0,0,0,0,1.847l5.472,5.472v5.649a2.877,2.877,0,0,1-2.873,2.873H5.486a2.877,2.877,0,0,1-2.873-2.873V32.461H59.037v5.887a1.306,1.306,0,0,0,2.612,0V25.931a5.492,5.492,0,0,0-5.486-5.486H5.486A5.492,5.492,0,0,0,0,25.931V76.608a5.492,5.492,0,0,0,5.486,5.486H56.163a5.492,5.492,0,0,0,5.486-5.486V73.571l3.121,3.121a1.306,1.306,0,1,0,1.847-1.847ZM9.665,57.278V41.6H31.484a15.2,15.2,0,0,0-2.23,7.945q0,.2.005.4l-1.646-3.179a1.306,1.306,0,0,0-2.32,1.2l3.067,5.925a1.3,1.3,0,0,0,1.708.583,15.222,15.222,0,0,0,1.287,2.8H9.665Zm22.2-7.729c0-.1,0-.2,0-.3l2.4,4.642a1.306,1.306,0,0,0,1.16.706h.02a1.306,1.306,0,0,0,1.158-.741l2.846-5.925A1.306,1.306,0,1,0,37.1,46.8l-1.712,3.564-1.863-3.6a1.305,1.305,0,0,0-1.172-.7,12.687,12.687,0,1,1-.487,3.486ZM5.486,23.057H56.163a2.877,2.877,0,0,1,2.873,2.873v3.918H2.612V25.931A2.877,2.877,0,0,1,5.486,23.057Z"/>
    <path id="Path_796" data-name="Path 796" d="M91.5,216.327a1.307,1.307,0,0,0-1.743.612L88.05,220.5l-1.863-3.6a1.306,1.306,0,0,0-2.337.035L82.138,220.5l-1.863-3.6a1.306,1.306,0,1,0-2.32,1.2l3.067,5.925a1.306,1.306,0,0,0,2.337-.035l1.712-3.564,1.863,3.6a1.306,1.306,0,0,0,1.16.706h.02a1.306,1.306,0,0,0,1.158-.741l2.846-5.925A1.306,1.306,0,0,0,91.5,216.327Z" transform="translate(-67.626 -170.137)"/>
    <path id="Path_797" data-name="Path 797" d="M320.226,216.328a1.307,1.307,0,0,0-1.743.612l-1.712,3.564-1.863-3.6a1.306,1.306,0,0,0-2.337.035l-1.712,3.564L309,216.9a1.306,1.306,0,0,0-2.32,1.2l3.067,5.925a1.306,1.306,0,0,0,1.16.706h.02A1.306,1.306,0,0,0,312.08,224l1.712-3.564,1.863,3.6a1.306,1.306,0,0,0,1.16.706h.02a1.306,1.306,0,0,0,1.158-.741l2.845-5.925A1.306,1.306,0,0,0,320.226,216.328Z" transform="translate(-266.417 -170.138)"/>
    <path id="Path_798" data-name="Path 798" d="M54.282,398.115a1.306,1.306,0,1,0,.923-.383A1.316,1.316,0,0,0,54.282,398.115Z" transform="translate(-46.846 -327.915)"/>
    <path id="Path_799" data-name="Path 799" d="M88.166,399.048a1.306,1.306,0,0,0,1.306,1.306h25.435a1.306,1.306,0,1,0,0-2.612H89.472A1.306,1.306,0,0,0,88.166,399.048Z" transform="translate(-76.629 -327.924)"/>
    <path id="Path_800" data-name="Path 800" d="M195.659,352.44a1.306,1.306,0,1,0,0-2.612h-7.706a1.306,1.306,0,1,0,0,2.612Z" transform="translate(-162.222 -286.28)"/>
    <path id="Path_801" data-name="Path 801" d="M66.71,349.827H55.2a1.306,1.306,0,0,0,0,2.612H66.71a1.306,1.306,0,1,0,0-2.612Z" transform="translate(-46.845 -286.279)"/>
  </g>
</svg>
