<svg xmlns="http://www.w3.org/2000/svg" xmlns:xlink="http://www.w3.org/1999/xlink" viewBox="0 0 56.68 73.62"><defs><style>.cls-1{fill:url(#linear-gradient);}.cls-2{fill:#fff;}.cls-3{fill:#b68a35;}.cls-4{fill:url(#linear-gradient-2);}.cls-5{fill:url(#linear-gradient-3);}.cls-6{fill:url(#linear-gradient-4);}.cls-7{fill:url(#linear-gradient-5);}.cls-8{fill:url(#linear-gradient-6);}.cls-9{fill:url(#linear-gradient-7);}.cls-10{fill:url(#linear-gradient-8);}.cls-11{fill:url(#linear-gradient-9);}.cls-12{fill:url(#linear-gradient-10);}.cls-13{fill:url(#linear-gradient-11);}.cls-14{fill:url(#linear-gradient-12);}.cls-15{fill:url(#linear-gradient-13);}.cls-16{fill:none;}.cls-17{fill:#d9d9d9;}.cls-18{fill:url(#linear-gradient-14);}.cls-19{fill:#00843d;}.cls-20{fill:url(#linear-gradient-15);}.cls-21{fill:#c8102e;}</style><linearGradient id="linear-gradient" x1="-292.09" y1="326.9" x2="-291.09" y2="326.9" gradientTransform="matrix(44.89, 0, 0, -15.53, 13117.41, 5140.05)" gradientUnits="userSpaceOnUse"><stop offset="0" stop-color="#c8102e"/><stop offset="0.14" stop-color="#c91331"/><stop offset="0.26" stop-color="#cb1d3a"/><stop offset="0.36" stop-color="#cf2e48"/><stop offset="0.46" stop-color="#d4465d"/><stop offset="0.52" stop-color="#d8586d"/><stop offset="0.57" stop-color="#d4455c"/><stop offset="0.66" stop-color="#cf2d48"/><stop offset="0.76" stop-color="#cb1d39"/><stop offset="0.86" stop-color="#c91331"/><stop offset="1" stop-color="#c8102e"/></linearGradient><linearGradient id="linear-gradient-2" x1="-275.55" y1="328.9" x2="-275.38" y2="329.19" gradientTransform="matrix(13.11, 0, 0, -17.9, 3660.7, 5928.2)" gradientUnits="userSpaceOnUse"><stop offset="0" stop-color="#fff"/><stop offset="1" stop-color="#b68a35"/></linearGradient><linearGradient id="linear-gradient-3" x1="-304.2" y1="279.1" x2="-304.03" y2="279.39" gradientTransform="matrix(13.13, 0, 0, -17.9, 3623.92, 5929.23)" xlink:href="#linear-gradient-2"/><linearGradient id="linear-gradient-4" x1="-282.76" y1="326.89" x2="-282.76" y2="327.82" gradientTransform="matrix(19.29, 0, 0, -15.91, 5484.04, 5258.51)" gradientUnits="userSpaceOnUse"><stop offset="0" stop-color="#fff"/><stop offset="0.16" stop-color="#f9f9f9"/><stop offset="0.36" stop-color="#eaeaea"/><stop offset="0.59" stop-color="#cfcfcf"/><stop offset="0.84" stop-color="#ababab"/><stop offset="1" stop-color="#8f8f8f"/></linearGradient><linearGradient id="linear-gradient-5" x1="-275.53" y1="327.67" x2="-275.34" y2="327.99" gradientTransform="matrix(13.08, 0, 0, -16.53, 3650.93, 5452.37)" xlink:href="#linear-gradient-4"/><linearGradient id="linear-gradient-6" x1="-275.49" y1="333.68" x2="-275.28" y2="333.8" gradientTransform="matrix(13.13, 0, 0, -26.7, 3666.64, 8958.35)" xlink:href="#linear-gradient-4"/><linearGradient id="linear-gradient-7" x1="-271.1" y1="334.87" x2="-270.91" y2="335.18" gradientTransform="matrix(13.09, 0, 0, -16.53, 3612.44, 5452.37)" xlink:href="#linear-gradient-4"/><linearGradient id="linear-gradient-8" x1="-263.48" y1="340.63" x2="-263.28" y2="340.75" gradientTransform="matrix(13.16, 0, 0, -26.7, 3634.92, 8958.35)" xlink:href="#linear-gradient-4"/><linearGradient id="linear-gradient-9" x1="-275.61" y1="330.02" x2="-274.95" y2="330.45" gradientTransform="matrix(12.81, 0, 0, -19.68, 3542.17, 6543.58)" gradientUnits="userSpaceOnUse"><stop offset="0" stop-color="#fff"/><stop offset="0.3" stop-color="#e6d7bb"/><stop offset="0.64" stop-color="#ccae73"/><stop offset="0.88" stop-color="#bc9446"/><stop offset="1" stop-color="#b68a35"/></linearGradient><linearGradient id="linear-gradient-10" x1="-274.28" y1="329.99" x2="-274.89" y2="330.44" gradientTransform="matrix(12.81, 0, 0, -19.68, 3557.33, 6543.58)" xlink:href="#linear-gradient-9"/><linearGradient id="linear-gradient-11" x1="-284.72" y1="330.26" x2="-284.2" y2="329.85" gradientTransform="matrix(21.09, 0, 0, -18.88, 6003.21, 6248.28)" gradientUnits="userSpaceOnUse"><stop offset="0" stop-color="#fff"/><stop offset="0.1" stop-color="#fbf9f4"/><stop offset="0.28" stop-color="#f1e8d7"/><stop offset="0.52" stop-color="#e0cda9"/><stop offset="0.8" stop-color="#c9a869"/><stop offset="1" stop-color="#b68a35"/></linearGradient><linearGradient id="linear-gradient-12" x1="-289.33" y1="335.13" x2="-289.48" y2="334.81" gradientTransform="matrix(33.93, 0, 0, -30.77, 9857.53, 10321.45)" gradientUnits="userSpaceOnUse"><stop offset="0" stop-color="#fff"/><stop offset="0.1" stop-color="#f2eadb"/><stop offset="0.27" stop-color="#e0cda9"/><stop offset="0.43" stop-color="#d1b57f"/><stop offset="0.59" stop-color="#c5a25f"/><stop offset="0.74" stop-color="#bd9548"/><stop offset="0.88" stop-color="#b88d3a"/><stop offset="1" stop-color="#b68a35"/></linearGradient><linearGradient id="linear-gradient-13" x1="-166.67" y1="217.4" x2="-166.91" y2="218.62" gradientTransform="matrix(2.27, 0, 0, -2.02, 403.96, 443.74)" gradientUnits="userSpaceOnUse"><stop offset="0" stop-color="#fff"/><stop offset="1"/></linearGradient><linearGradient id="linear-gradient-14" x1="-281.96" y1="328.94" x2="-280.96" y2="328.94" gradientTransform="matrix(17.8, 0, 0, -17.77, 5037.59, 5871.96)" gradientUnits="userSpaceOnUse"><stop offset="0.01" stop-color="#d9d9d9"/><stop offset="0.08" stop-color="#e6e6e6"/><stop offset="0.18" stop-color="#f4f4f4"/><stop offset="0.32" stop-color="#fdfdfd"/><stop offset="0.54" stop-color="#fff"/><stop offset="0.67" stop-color="#fbfbfb"/><stop offset="0.78" stop-color="#f0f0f0"/><stop offset="0.9" stop-color="#ddd"/><stop offset="0.97" stop-color="#ccc"/></linearGradient><linearGradient id="linear-gradient-15" x1="-272.22" y1="307.42" x2="-272.71" y2="306.92" gradientTransform="matrix(11.44, 0, 0, -7.06, 3145.22, 2196.69)" gradientUnits="userSpaceOnUse"><stop offset="0" stop-color="#fff"/><stop offset="0.63" stop-color="#ccc"/></linearGradient></defs><title>logo-mini</title><g id="Layer_2" data-name="Layer 2"><g id="Layer_1-2" data-name="Layer 1"><g id="Group_252" data-name="Group 252"><g id="Group_47" data-name="Group 47"><g id="Group_46" data-name="Group 46"><g id="Group_36" data-name="Group 36"><path id="Path_87" data-name="Path 87" d="M46.51,55.69s0,0-.06,0A35.28,35.28,0,0,1,29.4,61.15l-1,.75s-.71-.52-1-.75a34.8,34.8,0,0,1-17-5.42s0,0-.07,0L5,59v7.11a45.63,45.63,0,0,0,22.51,6.66c.26.26,1,.81,1,.81s.72-.55,1-.81a45.46,45.46,0,0,0,22.51-6.66V59C51.87,59,46.54,55.73,46.51,55.69Z"/></g><path id="Path_88" data-name="Path 88" class="cls-1" d="M46.71,56.9c-5.1,2.92-11.24,5.2-17.18,5.36l-1.14.87s-1-.74-1.14-.87c-5.94-.2-12.08-2.44-17.18-5.36L5.94,59.72v6a45.8,45.8,0,0,0,21.47,6h.13s.59.48.85.71h0c.29-.22.84-.71.84-.71h.13a45.39,45.39,0,0,0,21.47-6v-6Z"/><path id="Path_89" data-name="Path 89" class="cls-2" d="M20.79,3.21c-1.37.74-1.43,1.65-1.14,2.27A10.69,10.69,0,0,0,21,5.06a4.71,4.71,0,0,1,2.8,1A5,5,0,0,0,24,4.9a4,4,0,0,0-1.49-3.19,2.49,2.49,0,0,1-.33.16C21,2.52,21.14,3,20.79,3.21Z"/><path id="Path_90" data-name="Path 90" class="cls-3" d="M55.77,32c0-.33-.1-.65-.13-1a57.3,57.3,0,0,1-.16-8.18,13.13,13.13,0,0,0-1.63-7.18c-1.13-2-3.15-4.58-5.58-4.9C46,10.49,44.53,12.47,42.48,13a5.56,5.56,0,0,1-5.71-1c-.88-.84-4-7.27-4.81-8.6A6,6,0,0,0,28,.58C26,.12,22.54.94,21.79,1.88c-.52.65-.78.55-.78,1,0,.78,1.56,2.4,2.86,3.28-1,.06.52,2.34.29,2.89s-.2,3.44-3.51,4.09a14.28,14.28,0,0,1-6.5-.16c-2.08-.55-3.73-2.44-6-2.14-2.43.32-4.28,2.82-5.42,4.8a13.41,13.41,0,0,0-1.59,7.18A64,64,0,0,1,1,31c0,.32-.07.65-.13,1,0-.07,11.46-6,11.79-6.4.52-.52.74-.84,1.33-1.46l0,15.4s1.82-2.37,2.31-1.89c.29.3-.91,8.35-1.95,12.15.26,0,1.62-.81,1.82-.71s.13,2,.19,2.21c.13-.23.62-1.1,1-1s.42,1.14.42,1.43c.33-.72.62-1.69,1-2.4s1.07-2,1.55-2.73A8.81,8.81,0,0,1,23.28,44c1.23-.39,4.38-.07,4.93,1.59h.23c.88-2.24,4-2.3,5.56-1.1a23.81,23.81,0,0,1,3.15,4c.35.68,1.33,2.57,1.69,3.28,0-.29,0-1.36.35-1.46s.88.78,1,1c.1-.16,0-2.08.19-2.21s1.56.71,1.82.71a72.41,72.41,0,0,1-1.83-10.44,27.08,27.08,0,0,1,0-4.32c.1,2,.32,2.4,2.18,4.48,0-.52.16-14,.06-15.4.58.58.75,1,1.33,1.46C45.86,26.88,55.8,31.92,55.77,32Z"/><path id="Path_91" data-name="Path 91" class="cls-4" d="M42.71,36.53a.41.41,0,0,1,.1-.13,6.65,6.65,0,0,1,.65.65,22.35,22.35,0,0,1,2.3,3.18,22.17,22.17,0,0,0,2.9,3,81.34,81.34,0,0,0,6.91,5c.3-1.6-.1-4.78-.06-6.37,0-1.43,0-2.44-1.27-3.31a54.71,54.71,0,0,0-5.32-2.89c-1.53-.88-3-2-4.49-3a3.38,3.38,0,0,1-1.75-2.37A39.72,39.72,0,0,0,42.71,36.53Z"/><path id="Path_92" data-name="Path 92" class="cls-5" d="M14,36.53a.64.64,0,0,0-.1-.13,5.7,5.7,0,0,0-.65.65,24.79,24.79,0,0,0-2.31,3.18,22.09,22.09,0,0,1-2.89,3,77.19,77.19,0,0,1-6.91,5c-.3-1.59.09-4.78.06-6.37,0-1.43,0-2.43,1.3-3.31A55.88,55.88,0,0,1,7.8,35.69c1.52-.88,3-2,4.48-3A3.36,3.36,0,0,0,14,30.36,39.72,39.72,0,0,1,14,36.53Z"/><path id="Path_93" data-name="Path 93" class="cls-2" d="M34.27,44.36c-1.17-1.17-4-1.43-5.91.91-1.89-2.34-4.75-2.08-5.92-.91-.22,1.17-3.31,11.37-3.7,12.44a3,3,0,0,0,2.57-.1c.2,2.89,2,1.17,2.37.78,1.37,2.47,2.63.94,3.35-.16,0,.91.39,1.36,1.36,2.08,1-.72,1.37-1.17,1.37-2.08.71,1.1,2,2.63,3.34.16.39.39,2.15,2.11,2.37-.78a3.08,3.08,0,0,0,2.57.1C37.55,55.73,34.46,45.53,34.27,44.36Z"/><path id="Path_94" data-name="Path 94" class="cls-2" d="M42.71,31.07c1.07,3.12,11,7.44,13,8.68,0-2-.19-3.35-.16-5,0-1.43,0-2.44-1.27-3.35-1.65-1.14-3.57-1.92-5.32-2.89-1.53-.88-3-2.05-4.49-3a3.38,3.38,0,0,1-1.75-2.37C42.48,25.29,42.68,31.14,42.71,31.07Z"/><path id="Path_95" data-name="Path 95" class="cls-2" d="M42.71,42.05a4.91,4.91,0,0,0,2.11,3.51c0,.84.52,3,2.28,3.67A4.7,4.7,0,0,0,49.89,53c0,1.52,1.88,2.85,2.86,3.08-.68,4.84,2.21,6.3,2.92,6.76,0-2.05-.19-10.43-.16-12s0-2.4-1.27-3.35A77.88,77.88,0,0,1,42.61,36.11,38,38,0,0,0,42.71,42.05Z"/><path id="Path_96" data-name="Path 96" class="cls-2" d="M14,31.07c-1.08,3.12-11,7.44-13,8.68,0-2,.19-3.35.16-5,0-1.43,0-2.44,1.3-3.35C4.13,30.29,6,29.52,7.8,28.54c1.52-.88,3-2.05,4.48-3A3.38,3.38,0,0,0,14,23.21C14.19,25.29,14,31.14,14,31.07Z"/><path id="Path_97" data-name="Path 97" class="cls-2" d="M14,42.05a4.78,4.78,0,0,1-2.11,3.51c0,.84-.52,3-2.28,3.67A4.7,4.7,0,0,1,6.79,53c0,1.52-1.89,2.85-2.86,3.08.68,4.84-2.21,6.3-2.92,6.76,0-2.05.19-10.43.16-12s0-2.4,1.3-3.35A77.88,77.88,0,0,0,14.1,36.11,40.61,40.61,0,0,1,14,42.05Z"/><path id="Path_98" data-name="Path 98" class="cls-6" d="M34.27,44.36c-1.17-1.17-4-1.43-5.91.91-1.89-2.34-4.75-2.08-5.92-.91-.22,1.17-3.31,11.37-3.7,12.44a3,3,0,0,0,2.57-.1c.2,2.89,2,1.17,2.37.78,1.37,2.47,2.63.94,3.35-.16,0,.91.39,1.36,1.36,2.08,1-.72,1.37-1.17,1.37-2.08.71,1.1,2,2.63,3.34.16.39.39,2.15,2.11,2.37-.78a3.08,3.08,0,0,0,2.57.1C37.55,55.73,34.46,45.53,34.27,44.36Z"/><path id="Path_99" data-name="Path 99" class="cls-7" d="M42.71,31.07c1.07,3.12,11,7.44,13,8.68,0-2-.19-3.35-.16-5,0-1.43,0-2.44-1.27-3.35-1.65-1.14-3.57-1.92-5.32-2.89-1.53-.88-3-2.05-4.49-3a3.38,3.38,0,0,1-1.75-2.37C42.48,25.29,42.68,31.14,42.71,31.07Z"/><path id="Path_100" data-name="Path 100" class="cls-8" d="M42.71,42.05a4.91,4.91,0,0,0,2.11,3.51c0,.84.52,3,2.28,3.67A4.7,4.7,0,0,0,49.89,53c0,1.52,1.88,2.85,2.86,3.08-.68,4.84,2.21,6.3,2.92,6.76,0-2.05-.19-10.43-.16-12s0-2.4-1.27-3.35A77.88,77.88,0,0,1,42.61,36.11,38,38,0,0,0,42.71,42.05Z"/><path id="Path_101" data-name="Path 101" class="cls-9" d="M14,31.07c-1.08,3.12-11,7.44-13,8.68,0-2,.19-3.35.16-5,0-1.43,0-2.44,1.3-3.35C4.13,30.29,6,29.52,7.8,28.54c1.52-.88,3-2.05,4.48-3A3.38,3.38,0,0,0,14,23.21C14.19,25.29,14,31.14,14,31.07Z"/><path id="Path_102" data-name="Path 102" class="cls-10" d="M14,42.05a4.76,4.76,0,0,1-2.12,3.51c0,.84-.51,3-2.27,3.67A4.72,4.72,0,0,1,6.79,53c0,1.52-1.89,2.85-2.89,3.08.68,4.84-2.21,6.3-2.93,6.76,0-2.05.2-10.43.17-12s0-2.44,1.3-3.35A52.26,52.26,0,0,0,14.06,36.11,36.81,36.81,0,0,1,14,42.05Z"/><path id="Path_103" data-name="Path 103" class="cls-11" d="M16.5,51.41c0-.46.23-1.76-.29-2.15-.33-.26-1.17.46-1.85.88,1.2-3.77,4-15.07,3.57-18.42a56.35,56.35,0,0,1,7.41,4.48c2.11,1.53,2.34,6,1,5.46-3-1.17-6.95,2.86-8.28,9.49C17.7,50.33,17.41,49.69,16.5,51.41Z"/><path id="Path_104" data-name="Path 104" class="cls-12" d="M40.18,51.41c0-.46-.23-1.76.29-2.15.32-.26,1.17.46,1.85.88-1.2-3.77-4-15.07-3.57-18.42a56.35,56.35,0,0,0-7.41,4.48c-2.11,1.53-2.34,6-1,5.46,3-1.17,7,2.86,8.28,9.49C39,50.33,39.27,49.69,40.18,51.41Z"/><path id="Path_105" data-name="Path 105" class="cls-13" d="M22.48,12.82c-6.73,4.84-13-2.31-15.1-.29-1.3,1.23-5.1,5.45-5.1,7.31S2.5,30.42,1.88,31c1.82,0,11-5.78,11.57-6.3,1.82-1.82,2.4-.88,4.71-.88.81-.58,1.78-1,2.72-1.52C24.23,20.29,22.57,16.2,22.48,12.82Z"/><path id="Path_106" data-name="Path 106" class="cls-14" d="M54.31,19.48c-.62-1.76-4.58-7.15-6.3-7.15-2.15,0-5.65,3.51-9.81,1.89-5-2-4.32-9.46-9.94-12.09q1.59.53,3.12,1.2c-2.7-4.84-9-2.85-10.4-.74C20.79,3.43,22.32,5,23.65,6,24.85,7.85,25,8,24,11.23s6.5,2.17,8.58,4.67c2.24,2.73,4.81,4.84,8.25,5.65a1.14,1.14,0,0,1,.32.07c.69,1.85,6,7,13.74,9.48C53.82,29.71,54.93,21.27,54.31,19.48Z"/><g id="Group_37" data-name="Group 37"><path id="Path_107" data-name="Path 107" class="cls-2" d="M10.43,58.91a.86.86,0,0,0,.84.36,1.77,1.77,0,0,1,.46,0c.13,0,.29.52.48.55a6.91,6.91,0,0,0,.91,0c.33,0,.62.42,1,.42a.66.66,0,0,0,.58-.52c.1-.36-.06-1.49.29-1.78a8.43,8.43,0,0,0,.78.55c.2.06.68.29.85.32s-1-1.69-1-2c-.13-1.17.91-2.73,1.23-3.41.13-.33.49-1.5.62-1.82s.26-1.14-.06-.91c-1.17.81-.88-1.17-1.24-1.07-.91.19-1.1,1.65-1.33,2.37a20.56,20.56,0,0,1-1.69,3.7c-.23-.13-.62,0-.94.52-.36-.42-.72-1-1.27-.94-.71.06-.42,1.1-.36,1.55s-.26,1.4-.22,1.66.06.33.1.46Z"/></g><g id="Group_38" data-name="Group 38"><path id="Path_108" data-name="Path 108" class="cls-2" d="M46.35,58.88a1.38,1.38,0,0,1-1.07.48,1.44,1.44,0,0,0-.62.3c-.13.13-.36.1-.55.13l-.52.1c-.33,0-.62.35-1,.39a.69.69,0,0,1-.62-.56c-.1-.35-.29-1.55-.49-1.46s-1,.42-1.46.59c-.1,0,.91-1.76,1-2.08a1.25,1.25,0,0,0,0-1.1c0-.1-.78-1.5-1.08-2.18-.13-.32-.58-1.65-.71-2s-.26-1.14.06-.91c1.17.81.88-1.17,1.27-1.07.88.2,1.1,1.66,1.33,2.37s.49,1.2.69,1.76a6.88,6.88,0,0,1,.74,2.27.77.77,0,0,1,.36-.23c.39,0,.62-.06.71.46.33-.52.75-1,1.27-.94.72.06.49,1.1.42,1.52a1.59,1.59,0,0,0,.1.75C46.64,58.52,46.35,58.88,46.35,58.88Z"/></g><path id="Path_109" data-name="Path 109" class="cls-15" d="M25.63,2.91a1.15,1.15,0,0,1-2.28,0,1.09,1.09,0,0,1,1.14-1A1.11,1.11,0,0,1,25.63,2.91Z"/><g id="Group_39" data-name="Group 39"><path id="Path_110" data-name="Path 110" d="M21.15,3.92h.09a.36.36,0,0,0-.43-.28.37.37,0,0,0-.28.28c0,.16.13.26.32.29-.06,0-.06,0-.06-.06S21,3.92,21.15,3.92Z"/></g><path id="Path_111" data-name="Path 111" d="M23.55,3.14c.32,1.1,2,.52,1.52-.71a7.54,7.54,0,0,1,1.76-.36,8.26,8.26,0,0,0-4.13.07c-.52.22-.35.55-.29.68.1-.26.55-.29.88-.2a1.18,1.18,0,0,0,2.28.63,1.2,1.2,0,0,0,0-.5C25.4,4.18,23.61,4.18,23.55,3.14Z"/><path id="Path_112" data-name="Path 112" class="cls-2" d="M24.94,2.65a.77.77,0,0,0-.87,0,.44.44,0,0,1,.45-.42h0A.45.45,0,0,1,24.94,2.65Z"/><path id="Path_113" data-name="Path 113" d="M56,40.4l.68.26A6.48,6.48,0,0,1,56,37.31V33c.26.1.49.2.68.26A6.44,6.44,0,0,1,56,29.91V19.8c0-2.79-4.26-9.51-7.86-9.61-2.57-.07-5.55,3.54-9.22,2.6-1.17-.29-2.11-1.56-2.89-3.12-1.37-2.79-2.7-6.53-6-8.7-3.67-2.37-7.93.29-8.42.72s-1.07,1.52-1.42,1.72a2.37,2.37,0,0,0-1.34,2,2.4,2.4,0,0,0,.78,1.85,1.51,1.51,0,0,1,0-.94,4.19,4.19,0,0,0,2.11,0,7.56,7.56,0,0,1,1.43,1.56c.45.88.45,1,.45,1.37a3.71,3.71,0,0,1-1.69,3c-1.33.94-4.51,1.49-8.44.13-2.15-.75-3-2.21-4.94-2.18C4.94,10.28.68,17,.68,19.8V29.87A6.48,6.48,0,0,1,0,33.22L.68,33v4.32A6.44,6.44,0,0,1,0,40.62c.19-.06.42-.16.68-.26v5.52A6.46,6.46,0,0,1,0,49.23c.19-.06.42-.16.68-.26V60.14a8.66,8.66,0,0,1-.26,2.44c-.1.33.13.75.49.59a4.91,4.91,0,0,0,3.54-4.84V56.57a4.2,4.2,0,0,0,2.66-3.21,4.65,4.65,0,0,0,2.76-3.64,4.61,4.61,0,0,0,2.4-4.26A4.37,4.37,0,0,0,14.06,43a19.91,19.91,0,0,0,.16-3,5.71,5.71,0,0,0,1.63-1.76A62.59,62.59,0,0,1,13.77,50.5a6.88,6.88,0,0,0,.91-.13A23.51,23.51,0,0,1,13,55.24H12.7a.69.69,0,0,0-.46.49c-.29-.43-.61-1.1-1.46-.85s-.65,1.27-.48,1.72c.29.88-.36,1.17-.23,1.92a1.3,1.3,0,0,0,.75,1,1.14,1.14,0,0,0,.52.52c.26.1.22-.13.22-.46a.31.31,0,0,0,.16-.06.89.89,0,0,0,.43.52,1.34,1.34,0,0,0,.58.55c.33.16.1-.2,0-.52a2,2,0,0,0,.36-.16.56.56,0,0,0,.2.26s.06,0,.1.06c.06.33.32.52.65.72s.13-.2.13-.46c.32,0,.61-.16.74-.71.2-.75-.22-.68.23-1.56.1,0,.75.29.88.32-.62-.26-1-1.75-1.1-1.33-.56,1-.07,2.79-.69,2.83-1.75.13-.45-2.08-.39-2.63.1-.72,0-1.72.69-1.53s1.4,2.18,1.78,2.79c.07.1.94.62,1,.39a6.08,6.08,0,0,1-1.4-2.5,1.88,1.88,0,0,1,.1-1.3c.16-.42,1.17-2.17,1.56-3,.1.36.22.65.29.91.13-1.82,2.17-5.29,4-7.34-.65,2.08-2.11,7.15-2.53,8.57A7.65,7.65,0,0,1,18,57a4.3,4.3,0,0,0,2.79.1,1.16,1.16,0,0,0,.26,1.26,1.59,1.59,0,0,0,2.26,0,1.33,1.33,0,0,0,.21-.26,1.79,1.79,0,0,0,2.1,1.42,1.83,1.83,0,0,0,1.25-.93c.35,1.07,1.07,1.23,1.46,1.62.42-.42,1.13-.55,1.46-1.62a1.8,1.8,0,0,0,2.42.76A1.83,1.83,0,0,0,33.14,58a1.57,1.57,0,0,0,2.17.52,1.09,1.09,0,0,0,.29-.23,1.14,1.14,0,0,0,.26-1.26,4.33,4.33,0,0,0,2.8-.1,8,8,0,0,1-1.3-2.54c-.39-1.4-1.85-6.5-2.54-8.57,1.79,2,3.84,5.52,4,7.34a7.4,7.4,0,0,1,.29-.91c.42.85,1.4,2.6,1.56,3a1.94,1.94,0,0,1,.1,1.3,5.52,5.52,0,0,1-1.27,2.5c0,.23.78-.19.81-.26.39-.61,1.2-2.7,1.82-2.89s.62.81.68,1.53c.07.55,1.37,2.76-.38,2.63-.62,0-.14-1.85-.69-2.83-.1-.45-.45,1.14-1.1,1.4.13,0,.75-.35.85-.39.42.88.06.82.26,1.56.13.52.42.72.74.72,0,.26-.1.52.13.45a1.07,1.07,0,0,0,.65-.71s.07,0,.1-.07a.41.41,0,0,0,.2-.26,1.46,1.46,0,0,0,.36.16c-.07.33-.3.65,0,.52a1.79,1.79,0,0,0,.58-.55.77.77,0,0,0,.43-.52,1.11,1.11,0,0,1,.16.07c0,.32,0,.55.22.45a.94.94,0,0,0,.52-.48,1.31,1.31,0,0,0,.75-1c.1-.75-.52-1-.23-1.92.13-.45.33-1.46-.52-1.72s-1.16.42-1.46.84a.68.68,0,0,0-.45-.48.3.3,0,0,0-.26,0A21.62,21.62,0,0,1,42,50.43a4.54,4.54,0,0,0,.91.13,61.63,61.63,0,0,1-2.08-12.21,5.69,5.69,0,0,0,1.59,1.76c0,1.33.1,2.5.16,3a4.41,4.41,0,0,0,1.77,2.44,4.59,4.59,0,0,0,2.4,4.25,4.64,4.64,0,0,0,2.76,3.64,4.19,4.19,0,0,0,2.7,3.22v1.75a4.9,4.9,0,0,0,3.48,4.81c.35.16.68-.13.58-.39a8.18,8.18,0,0,1-.32-2.6V49.07c.26.1.48.16.68.23A6.48,6.48,0,0,1,55.9,46V40.4ZM22,5.8h0a4.35,4.35,0,0,1-1.72.13,10.44,10.44,0,0,0,1-.58,3.4,3.4,0,0,1,1.4.65C22.35,5.84,22.28,5.71,22,5.8ZM3.51,50.69v3.15c0,.39,0,1.56,0,2.89h0v2.12a3.61,3.61,0,0,1-2.21,2.89,3.3,3.3,0,0,0,.39-1.82V48.65a5.12,5.12,0,0,0,1.69-1.27c.06,0,.13,0,.19-.06C3.51,49.07,3.51,50.43,3.51,50.69Zm0-9.64c0,.52,0,3.15,0,3.47a3.63,3.63,0,0,1-2.21,2.92,3.3,3.3,0,0,0,.39-1.85V40a6.22,6.22,0,0,0,1.46-1c.13-.07.29-.1.45-.17C3.51,39.52,3.51,40.49,3.51,41.05ZM1.23,38.8A3.2,3.2,0,0,0,1.62,37V32.54a7.38,7.38,0,0,0,1.47-1,3.9,3.9,0,0,1,.45-.16c0,.35,0,.74,0,1.2v2.7A3.65,3.65,0,0,1,1.23,38.8ZM4.42,31A5.34,5.34,0,0,0,6,29.84l.33-.13a11.26,11.26,0,0,0,0,1.23V33.7a3.75,3.75,0,0,1-2.11,3.48,5.06,5.06,0,0,0,.26-1.69v-2.7c0-.61-.06-1.23-.06-1.78ZM6.3,49.07v2.76a3.74,3.74,0,0,1-2,3.44c.2-.22.2-.78.2-1.75v-1h0V47a4.85,4.85,0,0,0,1.92-1.43C6.3,46.83,6.3,48.61,6.3,49.07Zm0-9.62v2.77a3.77,3.77,0,0,1-2.08,3.47,5.64,5.64,0,0,0,.2-1.53V44.1h0V42.9h0V41.31c0-.69,0-2,0-2.86A5.54,5.54,0,0,0,6,37.28l.32-.13C6.3,37.93,6.3,39,6.3,39.45Zm.72-4a5.85,5.85,0,0,0,.19-1.56V29.32a5.66,5.66,0,0,0,.94-.58A7,7,0,0,0,9,28.48v3.63A3.64,3.64,0,0,1,7,35.49ZM9,46.21v2.5A3.65,3.65,0,0,1,7.25,52V44.29A5.59,5.59,0,0,0,9,42.86C9,43.84,9,45.5,9,46.21Zm0-9v2.5A3.74,3.74,0,0,1,7.25,43c0-.19,0-.35,0-.55V36.76a8.84,8.84,0,0,0,1-.68c.22-.1.45-.17.71-.3C9,36.25,9,36.72,9,37.18Zm.94-1.88a5.48,5.48,0,0,0,1-.81l.36-.2v3.25a3.66,3.66,0,0,1-1.46,3.05c0-.24,0-.49,0-.74v-3.7a6.09,6.09,0,0,0,0-.85Zm1.4,7.5v2.5a3.7,3.7,0,0,1-1.4,3V45.24c0-.33,0-2.18,0-3.22a4.48,4.48,0,0,0,1.4-1.23c0,.65,0,1.52,0,2Zm0-14.45v2.5a3.63,3.63,0,0,1-1.69,3.21,5.69,5.69,0,0,0,.26-1.78V28a5.49,5.49,0,0,0,1.17-1c.1,0,.2-.1.29-.13,0,.36,0,.82,0,1.47Zm2.4,13.7a3.1,3.1,0,0,1-1.46,2.21V42.48c0-.43,0-2.83,0-4a5.23,5.23,0,0,0,1.49-1.65c0,1.94,0,4.64,0,5.19ZM12.28,33.7a5.37,5.37,0,0,0,1.49-1.62c0,1.37,0,2.6,0,3a3.15,3.15,0,0,1-1.46,2.21V33.71Zm1.46-3.47a3.41,3.41,0,0,1-1.65,2.34,5.42,5.42,0,0,0,.19-1.5v-3a16.45,16.45,0,0,1,0-1.72,4.72,4.72,0,0,0,1.46-1.62c0,1.91,0,4.94,0,5.52Zm-2,26.6c.06.26.36,2.14-.33,2.34s-1.36-.29-.84-1.66c.26-.68-.16-2.11.29-2.21s1,.68,1.24,1.27a1.34,1.34,0,0,1,0,.49c-.2-.23-.43-.65-.39-.23Zm1.91.62c0,.13,0,.26-.06.39-.13-.3-.39-1-.39-.52,0,.35,0,2.34-.62,2.37s-.78-.52-.45-1.2.1-2.63.52-2.67.81.43,1,.88a2.36,2.36,0,0,1,0,.75Zm3-4.13c-.2.43-.55.52-.72.82s-.13.94-.39,1.23-.29.36-.19.84a1.56,1.56,0,0,0-.59-.58.68.68,0,0,0-1,.11,1.09,1.09,0,0,0-.08.15,2.26,2.26,0,0,0-.23-.29l.19-.39c.13-.3.1-.69.2-.85s.32-.29.45-.52a8.85,8.85,0,0,0,.2-1,6.22,6.22,0,0,0,.36-.69,7.92,7.92,0,0,1,.19-1,3.47,3.47,0,0,1,1-1.27A9.91,9.91,0,0,0,16.24,52a10.22,10.22,0,0,0,1-1.07,2,2,0,0,1-.33,1.27C16.76,52.67,16.86,52.9,16.63,53.32Zm2.57,3.15A4.76,4.76,0,0,0,20,54.53c.16-.69,2-7.57,2.47-9.29a4.85,4.85,0,0,1,.81-.69,1.73,1.73,0,0,1,.65-.29c-.46,1.72-2.21,9.62-2.54,11.17C21.08,56.47,20.3,56.7,19.2,56.47Zm4.26-.13c-.2,1-.3,1.69-1.5,1.4-.78-.19-.1-1.4,0-2.24s2-9.87,2.28-11.27a3.4,3.4,0,0,1,1.1.1c-.23,1-1.92,12-1.92,12Zm3.34-1.4c-.06,1-.16,1.76-.19,2-.39,2-2.89,1.82-2.47-.72.13-.68,1.43-9.87,1.69-11.82a5.35,5.35,0,0,1,1.46.62c0,1-.3,6.46-.49,9.91Zm1.56,3.87c-.49-.29-.88-.81-.88-2.27s.2-9.85.26-11.21a1.82,1.82,0,0,1,.65,1,1.76,1.76,0,0,1,.65-1c0,1.36.26,9.87.26,11.21s-.46,2-.94,2.27ZM30.11,57c0-.26-.1-1-.19-2-.2-3.44-.49-8.9-.49-9.9a5.35,5.35,0,0,1,1.46-.62c.3,1.95,1.56,11.14,1.69,11.82.42,2.54-2.11,2.7-2.47.72Zm4.65.78c-1.2.29-1.3-.36-1.49-1.4,0,0-1.69-11-1.92-12a6.72,6.72,0,0,1,1.1-.1c.26,1.2,2.18,10.59,2.27,11.27.1.85.78,2.06,0,2.25Zm2-3.18a4.71,4.71,0,0,0,.75,1.94c-1.1.2-1.89,0-2.15-1-.32-1.59-2.08-9.45-2.53-11.18a1.34,1.34,0,0,1,.65.3,4.06,4.06,0,0,1,.81.68c.45,1.69,2.3,8.54,2.47,9.26Zm7.89,2c.2-.58.65-1.4,1.24-1.27s0,1.5.29,2.21c.52,1.34-.2,1.79-.84,1.66s-.39-2.05-.33-2.34c0-.45-.19,0-.36.23-.07-.13-.07-.19,0-.49Zm-.58-.78c.45,0,.19,2,.52,2.66s.19,1.27-.46,1.2-.61-2-.61-2.37c0-.48-.26.26-.39.52a1.59,1.59,0,0,1-.07-.39,3.05,3.05,0,0,1,0-.74c.19-.49.55-.91,1-.88Zm-1.66-2c.13.23.39.39.46.52s.06.55.19.85l.2.39a1.28,1.28,0,0,0-.23.29.7.7,0,0,0-.94-.32.27.27,0,0,0-.1.06,1.53,1.53,0,0,0-.55.58.82.82,0,0,0-.23-.84c-.29-.29-.16-.88-.39-1.23s-.52-.36-.71-.82-.1-.65-.33-1.07A2.25,2.25,0,0,1,39.44,51a12.79,12.79,0,0,0,1,1.08A9.39,9.39,0,0,0,40.6,50a3.64,3.64,0,0,1,1,1.26,8.1,8.1,0,0,1,.2,1c.1.32.26.42.35.68s.1.72.23,1Zm2-11.43v1.79A3.25,3.25,0,0,1,42.94,42c0-.55,0-3.25,0-5.2a5.26,5.26,0,0,0,1.49,1.66C44.43,39.65,44.4,42,44.4,42.44ZM42.91,32.08a5.26,5.26,0,0,0,1.49,1.66v3.51A3.25,3.25,0,0,1,42.94,35C42.94,34.68,42.94,33.45,42.91,32.08Zm0-1.85c0-.58,0-3.57-.07-5.55a6.13,6.13,0,0,0,1.47,1.62,16.45,16.45,0,0,1,0,1.72v3a5.42,5.42,0,0,0,.19,1.5,3.4,3.4,0,0,1-1.62-2.31Zm3.83,15v3.08a3.67,3.67,0,0,1-1.4-3V42.8c0-.45,0-1.33,0-2A4.85,4.85,0,0,0,46.74,42c0,1,0,2.89,0,3.22Zm-1.43-7.67V34.32c.13.06.24.13.36.2a5.81,5.81,0,0,0,1,.81,6.42,6.42,0,0,1,0,.88v3.7c0,.26,0,.52,0,.74a3.77,3.77,0,0,1-1.46-3.08Zm0-6.72v-2.5c0-.65,0-1.1,0-1.46.1,0,.2.1.29.13a5.17,5.17,0,0,0,1.17,1v4.32A6,6,0,0,0,47,34.1a3.73,3.73,0,0,1-1.69-3.25Zm4.1,16.86V52a3.64,3.64,0,0,1-1.76-3.25v-2.5c0-.71,0-2.37,0-3.34a5.2,5.2,0,0,0,1.79,1.43Zm-1.73-8v-2.5c0-.94,0-.94,0-1.4l.75.3a7.45,7.45,0,0,0,1,.68v5.65a2.54,2.54,0,0,0,0,.55A3.64,3.64,0,0,1,47.71,39.68Zm0-7.56V28.48a7.81,7.81,0,0,0,.82.26,5.66,5.66,0,0,0,.94.58V33.9a5.85,5.85,0,0,0,.19,1.56,3.63,3.63,0,0,1-1.95-3.35Zm2.67,19.71V49.07c0-.49,0-2.24,0-3.57a4.65,4.65,0,0,0,1.92,1.42v5.56h0v1a4.2,4.2,0,0,0,.16,1.76,3.64,3.64,0,0,1-2-3.41Zm0-9.65V39.42c0-.49,0-1.53,0-2.3l.33.13a6,6,0,0,0,1.62,1.16c0,.91,0,2.18,0,2.86v1.59h0v1.2h0v.07a5.69,5.69,0,0,0,.2,1.53,3.77,3.77,0,0,1-2.11-3.48Zm0-8.47V30.94a11.17,11.17,0,0,0,0-1.23l.33.13A6,6,0,0,0,52.29,31v4.48a6.44,6.44,0,0,0,.23,1.69,3.68,3.68,0,0,1-2.14-3.47Zm2.86,25.11V56.7h0c0-1.33,0-2.5,0-2.89V50.66c0-.26,0-1.62,0-3.41.07,0,.13,0,.16.07A5.92,5.92,0,0,0,55,48.58V59.85a3.28,3.28,0,0,0,.39,1.82,3.5,3.5,0,0,1-2.17-2.86Zm0-14.26c0-.33,0-3,0-3.48s0-1.53-.06-2.27a2.81,2.81,0,0,0,.49.16,5.79,5.79,0,0,0,1.46,1v5.62a3.41,3.41,0,0,0,.39,1.85,3.6,3.6,0,0,1-2.24-2.93Zm0-9.26V32.57c0-.46,0-.85,0-1.2l.45.16a5.14,5.14,0,0,0,1.47,1V37a3.39,3.39,0,0,0,.39,1.85A3.59,3.59,0,0,1,53.2,35.3Zm0-7.44v-1h0v-1.2a3.3,3.3,0,0,0-1-2.76,10.13,10.13,0,0,1,.1,3v2.2a6.44,6.44,0,0,0,.23,1.69,3.67,3.67,0,0,1-2.11-3.47c0-.62-.16-3.25-1-4.35v4.54a5,5,0,0,0,.23,1.59c-2.4-1.2-2.14-5.32-2.92-6.95,0,1.4,0,2.37,0,3.74A6,6,0,0,0,47,26.65c-2.08-1.33-2.34-4-2.5-5.91a8.4,8.4,0,0,0,0,4.45,6.47,6.47,0,0,1-2.08-5,7.12,7.12,0,0,0,0,3.61c-.06,1.53-.06,13.67-.06,15a4.26,4.26,0,0,1-1.53-3.67c0-.29.07-.58.1-.84.55-3.8.68-9.26-.87-13.61,1.26,6.82-.33,13.84-.52,15.27-.39,2.53.45,7.76,2.24,13.54-.36-.32-1.53-.84-2-1.3,0,.52.2,1.07.2,2.24-.62-1-.85-1.07-1.5-2.21a11.91,11.91,0,0,1,.13,2.6,32.91,32.91,0,0,0-2.43-5c-3.22-5-7.9-1.91-7.9-1,0-.88-4.64-4-7.89,1a40.91,40.91,0,0,0-2.44,5,10.32,10.32,0,0,1,.17-2.6c-.65,1.14-.88,1.17-1.5,2.21,0-1.14.2-1.72.2-2.24-.49.49-1.66,1-2,1.3,1.79-5.78,2.63-11,2.24-13.54-.22-1.4-1.78-8.45-.52-15.27-1.56,4.39-1.46,9.84-.87,13.61,0,.26.06.55.1.84a4.35,4.35,0,0,1-1.53,3.67c0-1.33,0-13.48-.06-15a6.48,6.48,0,0,0,0-3.6,6.47,6.47,0,0,1-2.08,5,8.4,8.4,0,0,0,0-4.45c-.16,1.95-.39,4.58-2.5,5.91a6,6,0,0,0,.26-1.79c0-1.4,0-2.37,0-3.73-.78,1.59-.55,5.72-2.92,7a5.68,5.68,0,0,0,.19-1.59V21.91c-.74,1.14-.91,3.74-.91,4.39a3.65,3.65,0,0,1-2.11,3.44,5.06,5.06,0,0,0,.26-1.69V25.84c0-1.75-.2-1.91.1-2.95a3.23,3.23,0,0,0-1,2.76v1.2h0v1a3.68,3.68,0,0,1-2.24,3.51,3.34,3.34,0,0,0,.36-1.78V20c0-2.66,3.11-5.75,4.28-7.11,3.22-3.77,4.62-.72,7.83.39,5.36,1.82,8.22-.2,8.22-.2,2.86-1.78,2.86-3.51,2.86-4.58A3.67,3.67,0,0,0,24,6.29a4.9,4.9,0,0,0-3-1.23,10.36,10.36,0,0,1-1.37.42c-.29-.59-.22-1.53,1.14-2.27.39-.2.23-.69,1.4-1.37,3.38-2,6.66-1.26,8.58.88a8.11,8.11,0,0,0-2.47-.59A8.91,8.91,0,0,1,33,6.23c.52.87,1.66,3.31,2,4,.84,1.56,2.4,4.84,7.89,3,3.22-1.07,4.61-4.12,7.83-.39,1.17,1.37,4.28,4.42,4.28,7.12v9.58a3.5,3.5,0,0,0,.39,1.85A3.69,3.69,0,0,1,53.2,27.86Z"/><path id="Path_114" data-name="Path 114" class="cls-16" d="M16.24,52.06A10,10,0,0,1,16.08,50a3.75,3.75,0,0,0-1,1.26,8.08,8.08,0,0,0-.19,1c-.1.32-.26.42-.36.68a9,9,0,0,0-.19,1c-.14.22-.39.39-.46.52s-.06.55-.2.84l-.19.39a2.09,2.09,0,0,1,.23.29.69.69,0,0,1,.93-.32l.11.06a1.92,1.92,0,0,1,.58.59.91.91,0,0,1,.2-.85c.29-.29.16-.87.39-1.23s.52-.36.71-.81.1-.65.33-1.08A2.51,2.51,0,0,0,17.28,51C17,51.31,16.69,51.63,16.24,52.06Z"/><path id="Path_115" data-name="Path 115" class="cls-16" d="M41.61,51.21a3.55,3.55,0,0,0-1-1.26,10,10,0,0,1-.16,2.11,10.33,10.33,0,0,1-1-1.08,2.18,2.18,0,0,0,.33,1.27c.22.42.1.65.32,1.07s.55.52.72.82.13.94.39,1.23a.8.8,0,0,1,.22.84,1.9,1.9,0,0,1,.55-.58.69.69,0,0,1,1,.11,1.09,1.09,0,0,1,.08.15,2.26,2.26,0,0,1,.23-.29L43,55.21c-.13-.3-.1-.69-.2-.85s-.32-.29-.45-.52a8.85,8.85,0,0,1-.2-1,4.52,4.52,0,0,1-.36-.69C41.77,52.06,41.71,51.44,41.61,51.21Z"/><path id="Path_117" data-name="Path 117" class="cls-2" d="M21.27,5.35a10.44,10.44,0,0,1-1,.58c.16.17,1.46-.06,1.72-.13h0c.32-.06.35.07.71.2A3.46,3.46,0,0,0,21.27,5.35Z"/><path id="Path_118" data-name="Path 118" class="cls-17" d="M38.81,27.66A10.46,10.46,0,1,1,28.36,17.2,10.45,10.45,0,0,1,38.81,27.66Z"/><path id="Path_119" data-name="Path 119" class="cls-18" d="M37.16,27.63a8.9,8.9,0,0,1-8.89,8.9h0A9.69,9.69,0,0,1,25.2,36a8.9,8.9,0,0,1,0-16.73,9.4,9.4,0,0,1,3-.52,8.87,8.87,0,0,1,8.9,8.83Z"/><path id="Path_120" data-name="Path 120" class="cls-19" d="M36.67,24.68h0c-7.76-2.08-16.76,0-16.76,0a8.92,8.92,0,0,1,5.39-5.43,9.18,9.18,0,0,1,3-.52A9,9,0,0,1,36.67,24.68Z"/><path id="Path_121" data-name="Path 121" d="M36.67,30.62h0c-7.76,2.08-16.76,0-16.76,0A8.88,8.88,0,0,0,25.3,36a9.18,9.18,0,0,0,3,.52A9,9,0,0,0,36.67,30.62Z"/><rect id="Rectangle_303" data-name="Rectangle 303" class="cls-16" x="25.14" y="30.99" width="10.76" height="4.83"/><rect id="Rectangle_304" data-name="Rectangle 304" class="cls-16" x="25.26" y="19.49" width="10.76" height="4.83"/><path id="Path_122" data-name="Path 122" class="cls-20" d="M29.66,24.12a48.1,48.1,0,0,1,6.33.72c.81.81.75,4.16,0,5.59a38.83,38.83,0,0,1-5.78.71,48.44,48.44,0,0,1-5-.13,29.3,29.3,0,0,1-.13-3.38c0-2.4.1-3.41.1-3.41A40.7,40.7,0,0,1,29.66,24.12Z"/><path id="Path_123" data-name="Path 123" class="cls-21" d="M24.65,27.47A56.75,56.75,0,0,0,25.24,36a8.9,8.9,0,0,1,0-16.73A45.9,45.9,0,0,0,24.65,27.47Z"/><rect id="Rectangle_305" data-name="Rectangle 305" class="cls-16" x="20.32" y="20.41" width="4.68" height="14.81"/><g id="Group_42" data-name="Group 42"><g id="Group_40" data-name="Group 40"><path id="Path_124" data-name="Path 124" d="M28.35,38.58A10.92,10.92,0,1,1,39.27,27.66,10.92,10.92,0,0,1,28.35,38.58Zm0-21.08A10.17,10.17,0,1,0,38.52,27.66,10.16,10.16,0,0,0,28.35,17.5Z"/></g><g id="Group_41" data-name="Group 41"><path id="Path_125" data-name="Path 125" d="M34.69,36.92l-1.14-.32-.29-1.14a0,0,0,0,0,0,0h0s-.52.74-.65.94c-.26,0-1.17-.07-1.17-.07h0v0l.72.94c-.1.22-.46,1.13-.46,1.13v0h0l1.1-.46.87.68h0V37.54l1-.59c.06,0,.06,0,.06,0h0"/><path id="Path_126" data-name="Path 126" class="cls-2" d="M33.75,37.05h0v0l-.13,0-.39-.13-.07-.23-.1-.33h0l0,0h0l-.36.46h-.55l.36.45-.1.29-.1.23h0v0h0l.2-.1.29-.13.45.36h0v-.62l.49-.19h0"/><path id="Path_127" data-name="Path 127" d="M25.24,36.3h0s-.94.07-1.17.07c-.16-.2-.65-.94-.65-.94h0s0,0,0,0l-.29,1.14c-.26.1-1.13.32-1.13.32s0,0,0,0v0l1,.59v1.14h0l.88-.69,1.1.46h0v0s-.36-.88-.45-1.14l.74-1h0"/><path id="Path_128" data-name="Path 128" class="cls-2" d="M24.26,37l.2-.26h-.59l-.16-.23-.17-.23h0a0,0,0,0,0,0,0l-.16.55-.26.1-.26.1a0,0,0,0,0,0,0v0l.45.26V38h0l.29-.23.17-.13.35.16.13.07h0v0l-.1-.29-.1-.23Z"/><path id="Path_129" data-name="Path 129" d="M21.8,21.13l-1.08-.55-.1-1.2v0h0s-.62.68-.78.88L18.74,20h0v0l.45,1c-.16.2-.65,1-.65,1v0h0s.91-.16,1.17-.19l.75.87h0a0,0,0,0,0,0,0h0s.17-.88.2-1.14l1.07-.42v0h0"/><path id="Path_130" data-name="Path 130" d="M30,16.52h0s-.94-.06-1.2-.1c-.1-.22-.49-1-.49-1h0s-.39.75-.49,1c-.26,0-1.17.06-1.17.06a0,0,0,0,0,0,0v0s.68.62.88.82l-.23,1.1v0h0s.78-.46,1-.55c.23.1,1,.55,1,.55h0s0,0,0,0L29,17.33c.33-.26.65-.53.94-.81h0"/><path id="Path_131" data-name="Path 131" class="cls-2" d="M29.1,16.81h0l-.55,0-.26-.55a0,0,0,0,0,0,0s0,0,0,0h0l-.26.55-.52,0a0,0,0,0,0,0,0v0l.39.39-.1.58v0h0l.49-.26.49.26h0V17.2l.39-.39h0"/><path id="Path_132" data-name="Path 132" d="M38,22s-.52-.75-.65-1c.12-.23.45-1,.45-1v0h0l-1.07.26L36,19.38h0v0l-.1,1.2-1.07.56v0s0,0,0,0l1.07.42c.06.26.19,1.14.19,1.14a0,0,0,0,0,0,0h0l.74-.91c.26,0,1.17.2,1.17.2V22h0"/><path id="Path_133" data-name="Path 133" class="cls-2" d="M37.29,21.52,37,21.1l.26-.52v0h0l-.58.13-.33-.39h0v0l0,.55-.52.26a0,0,0,0,0,0,0,0,0,0,0,0,0,0h0l.52.23.1.55,0,0h0l.39-.45.55.06c-.06-.06,0-.06,0-.1h0"/><path id="Path_134" data-name="Path 134" class="cls-2" d="M20.89,21.1l-.53-.26,0-.55a0,0,0,0,0,0,0h0l-.36.39-.58-.13h0v0l.26.52-.32.42v0h0l.55-.06.39.45h0a0,0,0,0,0,0,0l.1-.55.52-.23h0"/><path id="Path_135" data-name="Path 135" d="M19.65,30.75l-.75-.84c.07-.26.33-1.1.33-1.1v0h0l-1.1.46c-.23-.13-1-.68-1-.68h0v0l.16,1.14-.87.68v0a0,0,0,0,0,0,0l1.1.26c.06.26.32,1.1.32,1.1a0,0,0,0,0,0,0h0s.45-.81.58-1l1.17,0v-.06h0"/><path id="Path_136" data-name="Path 136" class="cls-2" d="M18.87,30.39,18.51,30l.13-.55v0h0l-.52.22-.45-.29h0v0l.1.52-.49.36v0s0,0,0,0l.58.13.13.52a0,0,0,0,0,0,0h0l.29-.48h.58c0-.07,0-.07,0-.1h0"/><path id="Path_137" data-name="Path 137" d="M40.18,30.39l-.88-.68c.07-.26.16-1.14.16-1.14v0h0l-1,.68-1.08-.48h0v0s.26.84.33,1.1l-.75.87v0h0l1.17,0,.59,1h0l0,0s.26-.87.32-1.1l1.1-.26s0,0,0,0h0"/><path id="Path_138" data-name="Path 138" class="cls-2" d="M39.37,30.23l-.49-.39.1-.52v0h0l-.46.29L38,29.35h0v0l.13.55-.36.42v0l0,0h.58l.29.49h0a0,0,0,0,0,0,0l.13-.52.58-.13s0,0,0,0h0"/></g></g><g id="Group_45" data-name="Group 45"><path id="Path_139" data-name="Path 139" class="cls-2" d="M43.26,66.83a.89.89,0,0,1-.67,1.07h0a1,1,0,0,1-1.1-.36.63.63,0,0,0,.68.19.57.57,0,0,0,.47-.67v0h0c-.13-.46-.26-.88-.42-1.33a.28.28,0,0,0-.35-.18.05.05,0,0,0,0,0c.22-.36.42-.72.65-1.08C42.74,65.28,43,66.06,43.26,66.83Z"/><path id="Path_140" data-name="Path 140" class="cls-2" d="M25.14,69.89a.3.3,0,0,0,.32-.26.28.28,0,0,0-.28-.29h0a.31.31,0,0,0-.35.26A.32.32,0,0,0,25.14,69.89Z"/><path id="Path_141" data-name="Path 141" class="cls-2" d="M16.57,63.91a.28.28,0,0,0-.36.18v0a.3.3,0,0,0,.23.35.28.28,0,0,0,.35-.18h0A.3.3,0,0,0,16.57,63.91Z"/><path id="Path_142" data-name="Path 142" class="cls-2" d="M37.71,65a.27.27,0,1,0,.36.2A.32.32,0,0,0,37.71,65Z"/><path id="Path_143" data-name="Path 143" class="cls-2" d="M26.44,70c.19,0,.32-.1.32-.26a.3.3,0,0,0-.3-.29h0a.31.31,0,0,0-.33.26A.35.35,0,0,0,26.44,70Z"/><path id="Path_144" data-name="Path 144" class="cls-2" d="M24.36,69.82a.35.35,0,0,0,.36-.26.29.29,0,0,0-.29-.29h0a.32.32,0,0,0-.36.26C24,69.69,24.2,69.82,24.36,69.82Z"/><path id="Path_145" data-name="Path 145" class="cls-2" d="M17.25,64.11a.28.28,0,0,0-.36.18h0a.32.32,0,0,0,.23.36.28.28,0,0,0,.35-.18v0A.28.28,0,0,0,17.25,64.11Z"/><path id="Path_146" data-name="Path 146" class="cls-2" d="M38.42,64.79a.26.26,0,0,0-.16.34.27.27,0,0,0,.35.16.26.26,0,0,0,.17-.31A.3.3,0,0,0,38.42,64.79Z"/><path id="Path_147" data-name="Path 147" class="cls-2" d="M49.82,63.85h0c-.1-.17-.16-.33-.25-.49h0c-.65-1.33-1.34-2.63-2-4l1.14.29a.37.37,0,0,0-.1.49c.59,1.13,1.17,2.24,1.75,3.37C50.21,63.65,50,63.75,49.82,63.85Z"/><path id="Path_148" data-name="Path 148" class="cls-2" d="M34.17,68.56h0c-.19-1.66-.39-3.28-.58-4.94.32.23.65.45,1,.65a.34.34,0,0,0-.23.42c.16,1.27.33,2.54.52,3.8A5.05,5.05,0,0,1,34.17,68.56Z"/><path id="Path_149" data-name="Path 149" class="cls-2" d="M21.08,68.3h0c.26-1.66.52-3.28.78-4.94.26.29.49.58.75.91a.4.4,0,0,0-.36.36c-.2,1.26-.36,2.53-.55,3.76A3.2,3.2,0,0,1,21.08,68.3Z"/><path id="Path_150" data-name="Path 150" class="cls-2" d="M41.35,67.13h0c-.07-.2-.1-.36-.17-.55h0c-.39-1.43-.81-2.83-1.2-4.26l1.08.49a.31.31,0,0,0-.18.42s0,0,0,0c.36,1.24.72,2.44,1.08,3.67A2.36,2.36,0,0,1,41.35,67.13Z"/><path id="Path_151" data-name="Path 151" class="cls-2" d="M40.73,67.32c-.23-.88-.49-1.78-.71-2.66l-.69,1a.34.34,0,0,1,.39.29h0c.1.36.17.69.26,1-.91.23-1.85.43-2.76.62-.13,0-.26,0-.39.07-.19-.13-.39-.23-.58-.36a2.22,2.22,0,0,0,.55-1.89,2.16,2.16,0,0,1-1.56,2c.46.29.94.62,1.43.88a4.26,4.26,0,0,0,.62-.13h0C38.42,67.87,39.59,67.61,40.73,67.32Z"/><path id="Path_152" data-name="Path 152" class="cls-2" d="M45.25,63.88h0c.39.13.78.29,1.2.42.13.29.25.62.39.91a7.82,7.82,0,0,1-.91.36c-.07-.16-.13-.36-.2-.52.1,0,.2-.1.29-.13l-.1-.2c-.13,0-.26-.1-.39-.13h0C45.44,64.37,45.34,64.14,45.25,63.88Zm-1.47,2.5h0a3.13,3.13,0,0,1-.16-.52h0c-.49-1.4-.94-2.79-1.43-4.19.36.16.72.29,1.07.45a.41.41,0,0,0-.16.46c.36,1,.72,2,1.1,3.09.2-.07.42-.17.62-.23-.07-.13-.1-.29-.16-.42.19-.36.39-.75.58-1.1.1.22.2.48.29.71a3.13,3.13,0,0,1-.19.36l.1.19a1.08,1.08,0,0,0,.29-.13c.07.17.13.36.2.52l-1.53.59-.16.06c-.13.06-.29.1-.46.16Z"/><path id="Path_153" data-name="Path 153" class="cls-2" d="M30.69,66.09h0a.87.87,0,0,1,.62.39,5.85,5.85,0,0,0,.72-.07c-.26.62-.56,1.23-.88,1.82.55,0,1.1-.06,1.66-.13-.1-1.07-.2-2.17-.3-3.25a.33.33,0,0,0-.32-.35c.26-.3.52-.59.78-.85.16,1.66.36,3.32.52,5h0c-.2,0-.36,0-.55.07h-.1l-2.08.16c0-.36,0-.75-.07-1.1h0c.12-.22.23-.45.33-.68h-.2a.53.53,0,0,0-.19-.33h0A1.43,1.43,0,0,0,30.69,66.09Zm-1.88,3.08a.92.92,0,0,1-1,.85,1,1,0,0,1-.95-.68.68.68,0,0,0,.62.39.63.63,0,0,0,.65-.56h0v-1.4a.29.29,0,0,0-.29-.29h0c.32-.26.62-.55.91-.81v1.66c.55,0,1.07,0,1.62,0-.36-.58-.71-1.17-1-1.75q.36,0,.72,0a.84.84,0,0,1,.58-.46c0,.23,0,.46,0,.65a.48.48,0,0,0-.16.36h-.19c.13.23.26.42.39.65s0,.75.06,1.1c-.68,0-1.36.06-2,.06A.54.54,0,0,1,28.81,69.17Z"/><path id="Path_154" data-name="Path 154" class="cls-2" d="M18.22,67.78c.52.13,1,.22,1.59.32h.07l.55.1h0c.29-1.62.55-3.28.84-4.9-.32.2-.65.42-1,.62a.33.33,0,0,1,.22.42l-.58,3.22c-.19,0-.42-.1-.62-.13,0-.13.07-.29.1-.42-.26-.33-.52-.69-.74-1-.07.26-.13.52-.17.75s.17.22.26.32,0,.13,0,.23-.19,0-.32-.07A3.5,3.5,0,0,0,18.22,67.78Zm-4-1.69h0a2,2,0,0,0,.07-.23,1,1,0,0,0-.68-1.17.86.86,0,0,0-.13,0h0A36.32,36.32,0,0,1,10,63.3c.07-.17.17-.33.23-.52a.28.28,0,0,1,.36-.15l0,0c-.16-.39-.32-.75-.49-1.14-.29.68-.61,1.33-.94,2,1.37.62,2.76,1.2,4.16,1.69a.36.36,0,0,1,.26.42h0a.48.48,0,0,0-.07.2h0l-.19.58c-.13.07-.26.1-.39.17a1.9,1.9,0,0,0-.23-.39c.07-.2.13-.39.2-.56l-.46-.16-.16-.06C11.17,65,10,64.53,8.93,64c-.06.16-.16.32-.22.52,1.13.52,2.27,1,3.41,1.4a2.77,2.77,0,0,0-.1.26c.22.39.42.74.65,1.1h0c.39-.16.78-.29,1.2-.46a1.39,1.39,0,0,1,.1-.26c.45.13.87.29,1.33.42a1.44,1.44,0,0,0,.32.33,1.64,1.64,0,0,1-.16-.29l1.1.29,1.56.39c0-.2.1-.36.13-.55-.1,0-.19,0-.29-.07a.79.79,0,0,1,.06-.22c.13-.06.24-.13.36-.2h0c.07-.26.1-.52.16-.75h0c-.35.2-.75.39-1.1.59,0,.13-.06.29-.1.42-.22-.06-.42-.1-.61-.16.16-.62.32-1.2.48-1.82-.35.16-.71.36-1.1.52a.37.37,0,0,1,.2.45c-.07.23-.13.46-.2.72a1.11,1.11,0,0,0-.26-.07h0a2.4,2.4,0,0,1-.52-.16,4.78,4.78,0,0,1,.07-.65,2.33,2.33,0,0,0-.52-2.37l-.75.36a1.46,1.46,0,0,1,.94,1.17c.1.55-.19.94-.06,1.4a5.39,5.39,0,0,1-.81-.23Z"/><path id="Path_155" data-name="Path 155" class="cls-2" d="M23.65,68.1l.32,0c0-.22,0-.45.07-.71l-.33.1c0-.2,0-.42.07-.62a.48.48,0,0,0,.35-.42c.07-.52.1-1.07.16-1.59a.38.38,0,0,0-.26-.42l.95-.69c-.13,1.5-.26,3-.36,4.42.32,0,.68.07,1,.07,0-.23,0-.49,0-.72a.4.4,0,0,0-.29-.42l1-.72c0,.62-.06,1.27-.1,1.89l.62,0c0-.23,0-.49,0-.71a.36.36,0,0,0-.29-.39l.94-.75c0,.81,0,1.62-.07,2.43-.94,0-1.88-.06-2.82-.16h0l-1.07-.1A4.86,4.86,0,0,0,23.65,68.1Zm0-.58h0a.28.28,0,0,0-.29.26c0,.1,0,.19,0,.29l.33,0c0,.2,0,.36-.07.55a.32.32,0,0,1-.19,0h0l-.75-.1c0-.29.07-.55.1-.84a.93.93,0,0,1,.84-.75s.1,0,.2-.07c0,.2,0,.43-.07.62,0,0,0,0-.06,0Z"/><path id="Path_156" data-name="Path 156" class="cls-2" d="M7.5,63.36c.1.06.2.1.29.16.1-.21.21-.42.33-.62a1.1,1.1,0,0,1-.36,0c.1-.19.2-.36.29-.55a.48.48,0,0,0,.49-.26c.23-.49.49-.94.72-1.43a.39.39,0,0,0-.1-.49,11.16,11.16,0,0,0,1.13-.32c-.71,1.49-1.43,3-2.14,4.51l-.88-.42A5.31,5.31,0,0,1,7.5,63.36Zm.23-.52h0a.34.34,0,0,0-.39.13c0,.1-.1.16-.13.26l.29.16c-.1.16-.16.33-.26.49-.29-.16-.58-.29-.88-.46.13-.26.26-.48.39-.74a.91.91,0,0,1,1.08-.39s.1,0,.19,0c-.1.19-.19.35-.29.55Z"/><g id="Group_43" data-name="Group 43"><path id="Path_157" data-name="Path 157" class="cls-2" d="M23.81,63.94a.27.27,0,0,0-.24-.29h0a.28.28,0,0,0-.33.22.28.28,0,0,0,.21.33h.05A.32.32,0,0,0,23.81,63.94Z"/><path id="Path_158" data-name="Path 158" class="cls-2" d="M23.74,64.59a.29.29,0,0,0-.58-.09.29.29,0,0,0,.25.32h0a.28.28,0,0,0,.32-.2Z"/></g><g id="Group_44" data-name="Group 44"><path id="Path_159" data-name="Path 159" class="cls-2" d="M8.28,59.82a.32.32,0,0,0,.13.39.28.28,0,0,0,.38-.1s0,0,0,0a.32.32,0,0,0-.13-.39A.37.37,0,0,0,8.28,59.82Z"/><path id="Path_160" data-name="Path 160" class="cls-2" d="M8.61,59.23a.32.32,0,0,0,.13.39.28.28,0,0,0,.39-.1A.34.34,0,0,0,9,59.13.3.3,0,0,0,8.61,59.23Z"/></g><path id="Path_161" data-name="Path 161" class="cls-2" d="M47.75,62.52c-.43-.88-.82-1.72-1.24-2.6l1.24.39a.44.44,0,0,0-.17.52c.26.55.56,1.1.82,1.65-.1.2-.17.43-.26.62l.65.2c.13.29.29.58.42.9-.29.13-.59.3-.88.43-.06-.17-.16-.33-.23-.52.1,0,.2-.1.3-.13l-.1-.2-.43-.1h0L47.55,63h0C47.65,62.77,47.68,62.64,47.75,62.52Zm.58,2-.88.39c-.13-.29-.26-.61-.39-.91.1-.19.2-.42.3-.61l-.65-.2s0-.06,0-.1L46,61.57a.42.42,0,0,0-.48-.22c.16-.39.35-.78.52-1.2l1.16,2.63c.13,0,.26.1.39.13.1.22.23.48.33.71a1.88,1.88,0,0,0-.16.39l.1.2c.1,0,.19-.1.29-.13Z"/><path id="Path_162" data-name="Path 162" class="cls-2" d="M49,65.21c.13,0,.26.1.39.13-.39.2-.78.36-1.2.55.07-.1.1-.22.16-.32s.1,0,.2,0c-.23-.2,0-.52.32-.42a.1.1,0,0,0-.1,0,.15.15,0,0,0-.1.17v0a.16.16,0,0,0,.2.07C49,65.34,49,65.28,49,65.21Z"/></g></g></g></g></g></g></svg>