<svg xmlns="http://www.w3.org/2000/svg" xmlns:xlink="http://www.w3.org/1999/xlink" viewBox="0 0 233.243 73.63">
  <defs>
    <style>
      .cls-1 {
        fill: url(#linear-gradient);
      }

      .cls-17, .cls-2 {
        fill: #fff;
      }

      .cls-3 {
        fill: #b68a35;
      }

      .cls-4 {
        fill: url(#linear-gradient-2);
      }

      .cls-5 {
        fill: url(#linear-gradient-3);
      }

      .cls-6 {
        fill: url(#linear-gradient-4);
      }

      .cls-7 {
        fill: url(#linear-gradient-5);
      }

      .cls-8 {
        fill: url(#linear-gradient-6);
      }

      .cls-9 {
        fill: url(#linear-gradient-7);
      }

      .cls-10 {
        fill: url(#linear-gradient-8);
      }

      .cls-11 {
        fill: url(#linear-gradient-9);
      }

      .cls-12 {
        fill: url(#linear-gradient-10);
      }

      .cls-13 {
        fill: url(#linear-gradient-11);
      }

      .cls-14 {
        fill: url(#linear-gradient-12);
      }

      .cls-15 {
        fill: url(#linear-gradient-13);
      }

      .cls-16, .cls-17 {
        fill-rule: evenodd;
      }

      .cls-18 {
        fill: none;
      }

      .cls-19 {
        fill: #d9d9d9;
      }

      .cls-20 {
        fill: url(#linear-gradient-14);
      }

      .cls-21 {
        fill: #00843d;
      }

      .cls-22 {
        fill: url(#linear-gradient-15);
      }

      .cls-23 {
        fill: #c8102e;
      }
    </style>
    <linearGradient id="linear-gradient" y1="0.498" x2="1" y2="0.498" gradientUnits="objectBoundingBox">
      <stop offset="0" stop-color="#c8102e"/>
      <stop offset="0.142" stop-color="#c91331"/>
      <stop offset="0.256" stop-color="#cb1d3a"/>
      <stop offset="0.361" stop-color="#cf2e48"/>
      <stop offset="0.458" stop-color="#d4465d"/>
      <stop offset="0.517" stop-color="#d8586d"/>
      <stop offset="0.574" stop-color="#d4455c"/>
      <stop offset="0.663" stop-color="#cf2d48"/>
      <stop offset="0.758" stop-color="#cb1d39"/>
      <stop offset="0.864" stop-color="#c91331"/>
      <stop offset="1" stop-color="#c8102e"/>
    </linearGradient>
    <linearGradient id="linear-gradient-2" x1="0.415" y1="0.648" x2="0.585" y2="0.352" gradientUnits="objectBoundingBox">
      <stop offset="0" stop-color="#fff"/>
      <stop offset="1" stop-color="#b68a35"/>
    </linearGradient>
    <linearGradient id="linear-gradient-3" x1="-114.928" y1="0.648" x2="-114.758" y2="0.352" xlink:href="#linear-gradient-2"/>
    <linearGradient id="linear-gradient-4" x1="0.498" y1="0.901" x2="0.498" y2="-0.03" gradientUnits="objectBoundingBox">
      <stop offset="0" stop-color="#fff"/>
      <stop offset="0.16" stop-color="#f9f9f9"/>
      <stop offset="0.364" stop-color="#eaeaea"/>
      <stop offset="0.593" stop-color="#cfcfcf"/>
      <stop offset="0.837" stop-color="#ababab"/>
      <stop offset="1" stop-color="#8f8f8f"/>
    </linearGradient>
    <linearGradient id="linear-gradient-5" x1="0.376" y1="0.711" x2="0.568" y2="0.399" xlink:href="#linear-gradient-4"/>
    <linearGradient id="linear-gradient-6" x1="0.51" y1="0.495" x2="0.717" y2="0.377" xlink:href="#linear-gradient-4"/>
    <linearGradient id="linear-gradient-7" x1="16.525" y1="0.711" x2="16.717" y2="0.399" xlink:href="#linear-gradient-4"/>
    <linearGradient id="linear-gradient-8" x1="16.549" y1="0.495" x2="16.755" y2="0.377" xlink:href="#linear-gradient-4"/>
    <linearGradient id="linear-gradient-9" x1="-0.188" y1="0.803" x2="0.471" y2="0.371" gradientUnits="objectBoundingBox">
      <stop offset="0" stop-color="#fff"/>
      <stop offset="0.298" stop-color="#e6d7bb"/>
      <stop offset="0.635" stop-color="#ccae73"/>
      <stop offset="0.878" stop-color="#bc9446"/>
      <stop offset="1" stop-color="#b68a35"/>
    </linearGradient>
    <linearGradient id="linear-gradient-10" x1="1.143" y1="0.834" x2="0.539" y2="0.376" xlink:href="#linear-gradient-9"/>
    <linearGradient id="linear-gradient-11" x1="-0.143" y1="0.016" x2="0.377" y2="0.43" gradientUnits="objectBoundingBox">
      <stop offset="0" stop-color="#fff"/>
      <stop offset="0.103" stop-color="#fbf9f4"/>
      <stop offset="0.282" stop-color="#f1e8d7"/>
      <stop offset="0.517" stop-color="#e0cda9"/>
      <stop offset="0.795" stop-color="#c9a869"/>
      <stop offset="1" stop-color="#b68a35"/>
    </linearGradient>
    <linearGradient id="linear-gradient-12" x1="0.615" y1="0.3" x2="0.462" y2="0.619" gradientUnits="objectBoundingBox">
      <stop offset="0" stop-color="#fff"/>
      <stop offset="0.105" stop-color="#f2eadb"/>
      <stop offset="0.268" stop-color="#e0cda9"/>
      <stop offset="0.43" stop-color="#d1b57f"/>
      <stop offset="0.586" stop-color="#c5a25f"/>
      <stop offset="0.737" stop-color="#bd9548"/>
      <stop offset="0.878" stop-color="#b88d3a"/>
      <stop offset="1" stop-color="#b68a35"/>
    </linearGradient>
    <linearGradient id="linear-gradient-13" x1="0.691" y1="1.519" x2="0.454" y2="0.295" gradientUnits="objectBoundingBox">
      <stop offset="0" stop-color="#fff"/>
      <stop offset="1"/>
    </linearGradient>
    <linearGradient id="linear-gradient-14" x1="0.002" y1="0.5" x2="1.001" y2="0.5" gradientUnits="objectBoundingBox">
      <stop offset="0.011" stop-color="#d9d9d9"/>
      <stop offset="0.079" stop-color="#e6e6e6"/>
      <stop offset="0.185" stop-color="#f4f4f4"/>
      <stop offset="0.316" stop-color="#fdfdfd"/>
      <stop offset="0.544" stop-color="#fff"/>
      <stop offset="0.667" stop-color="#fbfbfb"/>
      <stop offset="0.784" stop-color="#f0f0f0"/>
      <stop offset="0.898" stop-color="#ddd"/>
      <stop offset="0.973" stop-color="#ccc"/>
    </linearGradient>
    <linearGradient id="linear-gradient-15" x1="0.426" y1="0.512" x2="-0.071" y2="1.015" gradientUnits="objectBoundingBox">
      <stop offset="0" stop-color="#fff"/>
      <stop offset="0.629" stop-color="#ccc"/>
    </linearGradient>
  </defs>
  <g id="Group_252" data-name="Group 252" transform="translate(0 -0.01)">
    <g id="Group_47" data-name="Group 47" transform="translate(0 0.01)">
      <g id="Group_46" data-name="Group 46" transform="translate(0 0)">
        <g id="Group_36" data-name="Group 36" transform="translate(4.97 55.701)">
          <path id="Path_87" data-name="Path 87" d="M56.843,171.5c-.032.032-.032.032-.065.032a35.219,35.219,0,0,1-17.052,5.424c-.292.227-.974.747-.974.747s-.715-.52-.974-.747a34.774,34.774,0,0,1-17.052-5.424c-.032-.032-.032-.032-.065-.032-.065.032-5.359,3.345-5.359,3.345v7.113a45.6,45.6,0,0,0,22.509,6.659c.26.26.974.812.974.812s.715-.552.974-.812a45.5,45.5,0,0,0,22.509-6.659v-7.113C62.2,174.846,56.875,171.532,56.843,171.5Z" transform="translate(-15.3 -171.5)"/>
        </g>
        <path id="Path_88" data-name="Path 88" class="cls-1" d="M59.063,175.2c-5.1,2.923-11.238,5.2-17.182,5.359-.162.13-1.137.877-1.137.877s-1.007-.747-1.137-.877c-5.944-.195-12.083-2.436-17.182-5.359L18.3,178.026v5.944a45.739,45.739,0,0,0,21.47,6.041h.13s.585.487.844.715h0c.292-.227.844-.715.844-.715h.13a45.366,45.366,0,0,0,21.47-6.041v-5.944Z" transform="translate(-12.356 -118.297)"/>
        <path id="Path_89" data-name="Path 89" class="cls-2" d="M61.343,6.794c-1.364.747-1.429,1.657-1.137,2.274a11.386,11.386,0,0,0,1.364-.422,4.734,4.734,0,0,1,2.793,1.039,4.876,4.876,0,0,0,.162-1.2A4,4,0,0,0,63.032,5.3a3.018,3.018,0,0,1-.325.162C61.571,6.112,61.7,6.6,61.343,6.794Z" transform="translate(-40.556 -3.582)"/>
        <path id="Path_90" data-name="Path 90" class="cls-3" d="M57.592,32.971c-.032-.325-.1-.65-.13-.974a57.4,57.4,0,0,1-.162-8.185,13.139,13.139,0,0,0-1.624-7.178c-1.137-1.981-3.151-4.58-5.587-4.9-2.241-.292-3.735,1.689-5.782,2.241a5.576,5.576,0,0,1-5.717-1.007c-.877-.844-3.963-7.276-4.807-8.607a5.976,5.976,0,0,0-4-2.826c-1.949-.455-5.424.357-6.171,1.3-.52.65-.78.552-.78,1.007-.032.78,1.559,2.4,2.858,3.281-1.007.065.52,2.339.292,2.891s-.195,3.443-3.508,4.093a14.271,14.271,0,0,1-6.5-.162c-2.079-.552-3.735-2.436-5.976-2.144-2.436.325-4.287,2.826-5.424,4.807a13.406,13.406,0,0,0-1.592,7.178,62.5,62.5,0,0,1-.162,8.185c-.032.325-.065.65-.13.974-.032-.065,11.466-6.041,11.79-6.4.52-.52.747-.844,1.332-1.462l.032,15.4s1.819-2.371,2.306-1.884c.292.292-.909,8.348-1.949,12.148.26,0,1.624-.812,1.819-.715.227.13.13,2.014.195,2.209.13-.227.617-1.1,1.007-1.007s.422,1.137.422,1.429c.325-.715.617-1.689.974-2.4.357-.682,1.072-1.981,1.559-2.728a8.806,8.806,0,0,1,2.923-2.6c1.234-.39,4.385-.065,4.937,1.592h.227c.877-2.241,4-2.306,5.554-1.1a23.257,23.257,0,0,1,3.151,4c.357.682,1.332,2.566,1.689,3.281,0-.292-.032-1.364.357-1.462s.877.78,1.007,1.007c.1-.162,0-2.079.195-2.209.195-.1,1.559.715,1.819.715A72.715,72.715,0,0,1,42.2,40.312a27.612,27.612,0,0,1,.032-4.32c.1,1.981.325,2.4,2.176,4.482.032-.52.162-14,.065-15.4.585.585.747,1.039,1.332,1.462C47.686,27.839,57.625,32.874,57.592,32.971Z" transform="translate(-1.823 -0.949)"/>
        <path id="Path_91" data-name="Path 91" class="cls-4" d="M131.2,99.671a.449.449,0,0,1,.1-.13,6.132,6.132,0,0,1,.65.65,22.05,22.05,0,0,1,2.306,3.183,22.819,22.819,0,0,0,2.891,2.988,80.191,80.191,0,0,0,6.918,5.035c.292-1.592-.1-4.775-.065-6.366.032-1.429,0-2.436-1.267-3.313a56.269,56.269,0,0,0-5.327-2.891c-1.527-.877-2.956-2.046-4.482-2.956a3.389,3.389,0,0,1-1.754-2.371A39.183,39.183,0,0,0,131.2,99.671Z" transform="translate(-88.491 -63.134)"/>
        <path id="Path_92" data-name="Path 92" class="cls-5" d="M16.035,99.671a.449.449,0,0,0-.1-.13,6.134,6.134,0,0,0-.65.65,24.831,24.831,0,0,0-2.306,3.183,22.822,22.822,0,0,1-2.891,2.988A75.381,75.381,0,0,1,3.173,111.4c-.292-1.592.1-4.775.065-6.366-.032-1.429,0-2.436,1.3-3.313a56.266,56.266,0,0,1,5.327-2.891c1.527-.877,2.956-2.046,4.482-2.956A3.389,3.389,0,0,0,16.1,93.5,39.232,39.232,0,0,1,16.035,99.671Z" transform="translate(-2.068 -63.134)"/>
        <path id="Path_93" data-name="Path 93" class="cls-2" d="M73.226,134.787c-1.169-1.169-4.028-1.429-5.911.909-1.884-2.339-4.742-2.079-5.911-.909-.227,1.169-3.313,11.368-3.7,12.44a2.959,2.959,0,0,0,2.566-.1c.195,2.891,1.949,1.169,2.371.78,1.364,2.469,2.631.942,3.346-.162,0,.909.39,1.364,1.364,2.079.974-.715,1.364-1.169,1.364-2.079.715,1.1,1.981,2.631,3.346.162.39.39,2.144,2.111,2.371-.78a3.064,3.064,0,0,0,2.566.1C76.506,146.155,73.421,135.956,73.226,134.787Z" transform="translate(-38.959 -90.422)"/>
        <path id="Path_94" data-name="Path 94" class="cls-2" d="M131.255,79.36c1.072,3.118,10.978,7.438,12.96,8.672,0-2.046-.195-3.346-.162-4.97.032-1.429,0-2.436-1.267-3.345-1.657-1.137-3.573-1.916-5.327-2.891-1.527-.877-2.956-2.046-4.482-2.956a3.389,3.389,0,0,1-1.754-2.371C131.027,73.579,131.222,79.425,131.255,79.36Z" transform="translate(-88.543 -48.28)"/>
        <path id="Path_95" data-name="Path 95" class="cls-2" d="M131.119,117.144a4.869,4.869,0,0,0,2.111,3.508c.032.844.52,2.988,2.274,3.67a4.7,4.7,0,0,0,2.793,3.735c0,1.527,1.884,2.858,2.858,3.086-.682,4.84,2.209,6.3,2.923,6.756,0-2.046-.195-10.426-.162-12.018.032-1.462-.032-2.4-1.267-3.346A77.824,77.824,0,0,1,131.021,111.2,37.555,37.555,0,0,0,131.119,117.144Z" transform="translate(-88.407 -75.085)"/>
        <path id="Path_96" data-name="Path 96" class="cls-2" d="M16.06,79.36C14.988,82.478,5.081,86.8,3.1,88.033c0-2.046.195-3.346.162-4.97-.032-1.429,0-2.436,1.3-3.345,1.657-1.137,3.573-1.916,5.327-2.891,1.527-.877,2.956-2.046,4.482-2.956A3.389,3.389,0,0,0,16.125,71.5C16.287,73.579,16.092,79.425,16.06,79.36Z" transform="translate(-2.093 -48.28)"/>
        <path id="Path_97" data-name="Path 97" class="cls-2" d="M16.06,117.144a4.769,4.769,0,0,1-2.111,3.508c-.032.844-.52,2.988-2.274,3.67a4.7,4.7,0,0,1-2.793,3.735c0,1.527-1.884,2.858-2.858,3.086.682,4.84-2.209,6.3-2.923,6.756,0-2.046.195-10.426.162-12.018-.032-1.462.032-2.4,1.3-3.346A77.823,77.823,0,0,0,16.19,111.2,40.5,40.5,0,0,1,16.06,117.144Z" transform="translate(-2.093 -75.085)"/>
        <path id="Path_98" data-name="Path 98" class="cls-6" d="M73.226,134.787c-1.169-1.169-4.028-1.429-5.911.909-1.884-2.339-4.742-2.079-5.911-.909-.227,1.169-3.313,11.368-3.7,12.44a2.959,2.959,0,0,0,2.566-.1c.195,2.891,1.949,1.169,2.371.78,1.364,2.469,2.631.942,3.346-.162,0,.909.39,1.364,1.364,2.079.974-.715,1.364-1.169,1.364-2.079.715,1.1,1.981,2.631,3.346.162.39.39,2.144,2.111,2.371-.78a3.064,3.064,0,0,0,2.566.1C76.506,146.155,73.421,135.956,73.226,134.787Z" transform="translate(-38.959 -90.422)"/>
        <path id="Path_99" data-name="Path 99" class="cls-7" d="M131.255,79.36c1.072,3.118,10.978,7.438,12.96,8.672,0-2.046-.195-3.346-.162-4.97.032-1.429,0-2.436-1.267-3.345-1.657-1.137-3.573-1.916-5.327-2.891-1.527-.877-2.956-2.046-4.482-2.956a3.389,3.389,0,0,1-1.754-2.371C131.027,73.579,131.222,79.425,131.255,79.36Z" transform="translate(-88.543 -48.28)"/>
        <path id="Path_100" data-name="Path 100" class="cls-8" d="M131.119,117.144a4.869,4.869,0,0,0,2.111,3.508c.032.844.52,2.988,2.274,3.67a4.7,4.7,0,0,0,2.793,3.735c0,1.527,1.884,2.858,2.858,3.086-.682,4.84,2.209,6.3,2.923,6.756,0-2.046-.195-10.426-.162-12.018.032-1.462-.032-2.4-1.267-3.346A77.824,77.824,0,0,1,131.021,111.2,37.555,37.555,0,0,0,131.119,117.144Z" transform="translate(-88.407 -75.085)"/>
        <path id="Path_101" data-name="Path 101" class="cls-9" d="M16.06,79.36C14.988,82.478,5.081,86.8,3.1,88.033c0-2.046.195-3.346.162-4.97-.032-1.429,0-2.436,1.3-3.345,1.657-1.137,3.573-1.916,5.327-2.891,1.527-.877,2.956-2.046,4.482-2.956A3.389,3.389,0,0,0,16.125,71.5C16.287,73.579,16.092,79.425,16.06,79.36Z" transform="translate(-2.093 -48.28)"/>
        <path id="Path_102" data-name="Path 102" class="cls-10" d="M15.992,117.144a4.769,4.769,0,0,1-2.111,3.508c-.032.844-.52,2.988-2.274,3.67a4.7,4.7,0,0,1-2.793,3.735c0,1.527-1.884,2.858-2.891,3.086.682,4.84-2.209,6.3-2.923,6.756,0-2.046.195-10.426.162-12.018-.032-1.462.032-2.436,1.3-3.346A52.231,52.231,0,0,0,16.09,111.2,37.555,37.555,0,0,1,15.992,117.144Z" transform="translate(-2.026 -75.085)"/>
        <path id="Path_103" data-name="Path 103" class="cls-11" d="M46.344,117.383c0-.455.227-1.754-.292-2.144-.325-.26-1.169.455-1.851.877,1.2-3.768,4.028-15.071,3.573-18.417a56.21,56.21,0,0,1,7.406,4.482c2.111,1.527,2.339,5.976.974,5.457-3.021-1.169-6.951,2.858-8.283,9.484C47.546,116.311,47.253,115.662,46.344,117.383Z" transform="translate(-29.844 -65.97)"/>
        <path id="Path_104" data-name="Path 104" class="cls-12" d="M101.531,117.383c0-.455-.227-1.754.292-2.144.325-.26,1.169.455,1.851.877-1.2-3.768-4.028-15.071-3.573-18.417a56.21,56.21,0,0,0-7.406,4.482c-2.111,1.527-2.339,5.976-.974,5.457,3.021-1.169,6.951,2.858,8.283,9.484C100.362,116.311,100.622,115.662,101.531,117.383Z" transform="translate(-61.353 -65.97)"/>
        <path id="Path_105" data-name="Path 105" class="cls-13" d="M26.393,38.128c-6.723,4.84-12.96-2.306-15.1-.292-1.3,1.234-5.1,5.457-5.1,7.308S6.417,55.733,5.8,56.35c1.819,0,11.011-5.782,11.563-6.3,1.819-1.819,2.4-.877,4.71-.877.812-.585,1.786-.974,2.728-1.527C28.147,45.6,26.49,41.506,26.393,38.128Z" transform="translate(-3.916 -25.302)"/>
        <path id="Path_106" data-name="Path 106" class="cls-14" d="M97.89,20.206c-.617-1.754-4.58-7.146-6.3-7.146-2.144,0-5.652,3.508-9.809,1.884-5-1.981-4.32-9.452-9.939-12.083a32.838,32.838,0,0,1,3.118,1.2c-2.7-4.84-9.03-2.858-10.394-.747-.195.844,1.332,2.371,2.663,3.41,1.2,1.851,1.332,2.014.357,5.229-.942,3.151,6.5,2.176,8.575,4.677,2.241,2.728,4.807,4.84,8.25,5.652a.961.961,0,0,1,.325.065c.682,1.851,6.041,6.983,13.739,9.484C97.4,30.438,98.507,21.993,97.89,20.206Z" transform="translate(-43.582 -0.721)"/>
        <g id="Group_37" data-name="Group 37" transform="translate(10.326 49.559)">
          <path id="Path_107" data-name="Path 107" class="cls-2" d="M31.892,161.947a.875.875,0,0,0,.844.357,2.122,2.122,0,0,1,.455,0c.13.033.292.52.487.552a8.493,8.493,0,0,0,.909,0c.325.032.617.422.974.422a.655.655,0,0,0,.585-.52c.1-.357-.065-1.494.292-1.786a6.726,6.726,0,0,0,.78.552c.195.065.682.292.844.325.1.032-.974-1.689-1.007-2.046-.13-1.169.909-2.728,1.234-3.41.13-.325.487-1.494.617-1.819s.26-1.137-.065-.909c-1.169.812-.877-1.169-1.234-1.072-.909.195-1.1,1.656-1.332,2.371a20.009,20.009,0,0,1-1.689,3.7c-.227-.13-.617,0-.942.52-.357-.422-.715-.974-1.267-.942-.715.065-.422,1.1-.357,1.559.032.292-.26,1.4-.227,1.657.032.13.065.325.1.455Z" transform="translate(-31.792 -152.589)"/>
        </g>
        <g id="Group_38" data-name="Group 38" transform="translate(39.13 49.526)">
          <path id="Path_108" data-name="Path 108" class="cls-2" d="M127.692,161.847a1.4,1.4,0,0,1-1.072.487,1.341,1.341,0,0,0-.617.292c-.13.13-.357.1-.552.13s-.325.065-.52.1c-.325.032-.617.357-.974.39a.688.688,0,0,1-.617-.552c-.1-.357-.292-1.559-.487-1.462s-1.007.422-1.462.585c-.1.032.909-1.754,1.039-2.079a1.207,1.207,0,0,0-.032-1.1c-.032-.1-.78-1.494-1.072-2.176-.13-.325-.585-1.657-.715-1.981s-.26-1.137.065-.909c1.169.812.877-1.169,1.267-1.072.877.195,1.1,1.657,1.332,2.371.162.585.487,1.2.682,1.754a6.928,6.928,0,0,1,.747,2.274.712.712,0,0,1,.357-.227c.39-.032.617-.065.715.455.325-.52.747-1.007,1.267-.942.715.065.487,1.1.422,1.527a1.492,1.492,0,0,0,.1.747C127.984,161.49,127.692,161.847,127.692,161.847Z" transform="translate(-120.472 -152.489)"/>
        </g>
        <path id="Path_109" data-name="Path 109" class="cls-15" d="M74.174,6.907a1.145,1.145,0,0,1-2.274,0A1.087,1.087,0,0,1,73.037,5.9,1.11,1.11,0,0,1,74.174,6.907Z" transform="translate(-48.546 -3.987)"/>
        <g id="Group_39" data-name="Group 39" transform="translate(20.528 3.635)">
          <path id="Path_110" data-name="Path 110" d="M63.817,11.492h.1a.365.365,0,0,0-.715,0c0,.162.13.26.325.292-.065,0-.065-.032-.065-.065C63.46,11.59,63.622,11.492,63.817,11.492Z" transform="translate(-63.2 -11.2)"/>
        </g>
        <path id="Path_111" data-name="Path 111" class="cls-16" d="M69.979,7.005c.325,1.1,2.046.52,1.527-.715a8.007,8.007,0,0,1,1.754-.357A8.336,8.336,0,0,0,69.134,6c-.52.227-.357.552-.292.682.1-.26.552-.292.877-.195a1.181,1.181,0,1,0,2.306.13C71.83,8.044,70.044,8.044,69.979,7.005Z" transform="translate(-46.431 -3.858)"/>
        <path id="Path_112" data-name="Path 112" class="cls-17" d="M74.977,7.322a.78.78,0,0,0-.877,0,.438.438,0,0,1,.455-.422A.454.454,0,0,1,74.977,7.322Z" transform="translate(-50.032 -4.662)"/>
        <path id="Path_113" data-name="Path 113" d="M56,40.413c.26.1.487.195.682.26A6.483,6.483,0,0,1,56,37.327v-4.32c.26.1.487.195.682.26A6.483,6.483,0,0,1,56,29.922V19.82c0-2.793-4.255-9.517-7.86-9.614-2.566-.065-5.554,3.54-9.224,2.6-1.169-.292-2.111-1.559-2.891-3.118-1.364-2.793-2.7-6.529-6.009-8.7-3.67-2.371-7.925.292-8.412.715-.422.39-1.072,1.527-1.429,1.721A2.38,2.38,0,0,0,18.839,5.4a2.432,2.432,0,0,0,.78,1.851,1.567,1.567,0,0,1-.032-.942,4.206,4.206,0,0,0,2.111,0,7.542,7.542,0,0,1,1.429,1.559c.455.877.455,1.007.455,1.364a3.719,3.719,0,0,1-1.689,3.021c-1.332.942-4.515,1.494-8.445.13-2.144-.747-3.021-2.209-4.937-2.176C4.937,10.3.682,17.027.682,19.82V29.889A6.431,6.431,0,0,1,0,33.235c.195-.065.422-.162.682-.26v4.32A6.432,6.432,0,0,1,0,40.64c.195-.065.422-.162.682-.26V45.9A6.432,6.432,0,0,1,0,49.247c.195-.065.422-.162.682-.26V60.161A8.776,8.776,0,0,1,.422,62.6c-.1.325.13.747.487.585a4.908,4.908,0,0,0,3.54-4.84V56.588a4.21,4.21,0,0,0,2.663-3.216,4.649,4.649,0,0,0,2.761-3.638,4.6,4.6,0,0,0,2.4-4.255,4.419,4.419,0,0,0,1.786-2.436,19.967,19.967,0,0,0,.162-2.988A5.763,5.763,0,0,0,15.851,38.3a62.657,62.657,0,0,1-2.079,12.213,6.056,6.056,0,0,0,.909-.13,23.691,23.691,0,0,1-1.721,4.872H12.7a.689.689,0,0,0-.455.487c-.292-.422-.617-1.1-1.462-.844-.812.26-.65,1.267-.487,1.721.292.877-.357,1.169-.227,1.916a1.3,1.3,0,0,0,.747,1.039,1.15,1.15,0,0,0,.52.52c.26.1.227-.13.227-.455.065,0,.1-.032.162-.065a.852.852,0,0,0,.422.52,1.379,1.379,0,0,0,.585.552c.325.162.1-.195.032-.52a1.741,1.741,0,0,0,.357-.162.505.505,0,0,0,.195.26c.032.032.065.032.1.065.065.325.325.52.65.715.227.065.13-.195.13-.455.325,0,.617-.162.747-.715.195-.747-.227-.682.227-1.559.1,0,.747.292.877.325-.617-.26-.974-1.754-1.1-1.332-.552.974-.065,2.793-.682,2.826-1.754.13-.455-2.079-.39-2.631.1-.715,0-1.721.682-1.527.617.195,1.4,2.176,1.786,2.793.065.1.942.617.974.39a6.186,6.186,0,0,1-1.4-2.5,1.928,1.928,0,0,1,.1-1.3c.162-.422,1.169-2.176,1.559-3.021.1.357.227.65.292.909.13-1.819,2.176-5.294,3.963-7.341-.65,2.079-2.111,7.146-2.533,8.575a7.434,7.434,0,0,1-1.3,2.533,4.285,4.285,0,0,0,2.793.1,1.165,1.165,0,0,0,.26,1.267,1.6,1.6,0,0,0,2.469-.292,1.792,1.792,0,0,0,3.346.487c.357,1.072,1.072,1.234,1.462,1.624.422-.422,1.137-.552,1.462-1.624a1.792,1.792,0,0,0,3.346-.487,1.583,1.583,0,0,0,2.469.292,1.165,1.165,0,0,0,.26-1.267,4.285,4.285,0,0,0,2.793-.1,8.185,8.185,0,0,1-1.3-2.533c-.39-1.4-1.851-6.5-2.533-8.575,1.786,2.046,3.833,5.522,3.963,7.341a7.227,7.227,0,0,1,.292-.909c.422.844,1.4,2.6,1.559,3.021a1.909,1.909,0,0,1,.1,1.3,5.588,5.588,0,0,1-1.267,2.5c.032.227.78-.195.812-.26.39-.617,1.2-2.7,1.819-2.891.682-.227.617.812.682,1.527.065.552,1.364,2.761-.39,2.631-.617-.032-.13-1.851-.682-2.826-.1-.455-.455,1.137-1.1,1.4.13-.032.747-.357.844-.39.422.877.065.812.26,1.559.13.52.422.715.747.715-.032.26-.1.52.13.455a1.075,1.075,0,0,0,.65-.715c.032-.032.065-.032.1-.065a.4.4,0,0,0,.195-.26,1.741,1.741,0,0,0,.357.162c-.065.325-.292.65.032.52a1.926,1.926,0,0,0,.585-.552.772.772,0,0,0,.422-.52c.065.032.1.032.162.065,0,.325-.032.552.227.455a.96.96,0,0,0,.52-.487,1.3,1.3,0,0,0,.747-1.039c.1-.747-.52-1.007-.227-1.916.13-.455.325-1.462-.52-1.721-.812-.26-1.169.422-1.462.844a.689.689,0,0,0-.455-.487.356.356,0,0,0-.26,0,21.918,21.918,0,0,1-1.721-4.872,5.1,5.1,0,0,0,.909.13,62.657,62.657,0,0,1-2.079-12.213,5.615,5.615,0,0,0,1.592,1.754c.032,1.332.1,2.5.162,2.988A4.419,4.419,0,0,0,44.3,45.545a4.6,4.6,0,0,0,2.4,4.255,4.649,4.649,0,0,0,2.761,3.638,4.182,4.182,0,0,0,2.7,3.216v1.754a4.882,4.882,0,0,0,3.475,4.807c.357.162.682-.13.585-.39a8.251,8.251,0,0,1-.325-2.6V49.085c.26.1.487.162.682.227a6.483,6.483,0,0,1-.682-3.346V40.413ZM21.957,5.821h0a4.514,4.514,0,0,1-1.721.13,10.714,10.714,0,0,0,1.039-.585,3.408,3.408,0,0,1,1.4.65C22.347,5.853,22.282,5.723,21.957,5.821ZM3.508,50.709V53.86c0,.39-.032,1.559-.032,2.891h0v2.111a3.585,3.585,0,0,1-2.209,2.891,3.224,3.224,0,0,0,.39-1.819V48.663A5.131,5.131,0,0,0,3.346,47.4c.065-.032.13-.032.195-.065C3.508,49.085,3.508,50.449,3.508,50.709Zm0-9.647c0,.52-.032,3.151-.032,3.475a3.635,3.635,0,0,1-2.209,2.923,3.278,3.278,0,0,0,.39-1.851V39.991a6.061,6.061,0,0,0,1.462-1.039c.13-.065.292-.1.455-.162C3.508,39.536,3.508,40.51,3.508,41.062ZM1.234,38.821a3.278,3.278,0,0,0,.39-1.851V32.552a6.924,6.924,0,0,0,1.462-1.007c.13-.065.292-.1.455-.162-.032.357-.032.747-.032,1.2v2.7A3.663,3.663,0,0,1,1.234,38.821Zm3.183-7.8a5.4,5.4,0,0,0,1.624-1.169,2.239,2.239,0,0,0,.325-.13c-.032.357-.032.747-.032,1.234v2.761A3.766,3.766,0,0,1,4.222,37.2a5.272,5.272,0,0,0,.26-1.689v-2.7C4.45,32.2,4.417,31.578,4.417,31.026ZM6.3,49.085v2.761a3.741,3.741,0,0,1-2.046,3.443c.195-.227.195-.78.195-1.754V52.528h0V46.974a4.862,4.862,0,0,0,1.916-1.429C6.3,46.844,6.3,48.63,6.3,49.085Zm0-9.614v2.761a3.777,3.777,0,0,1-2.079,3.475,5.443,5.443,0,0,0,.195-1.527v-.065h0v-1.2h0V41.322c0-.682-.032-1.949-.032-2.858a5.4,5.4,0,0,0,1.624-1.169,2.239,2.239,0,0,0,.325-.13C6.3,37.944,6.3,38.984,6.3,39.471Zm.715-3.963a5.685,5.685,0,0,0,.195-1.559V29.337a5.678,5.678,0,0,0,.942-.585,5.939,5.939,0,0,0,.812-.26V32.13A3.65,3.65,0,0,1,7.016,35.508ZM9,46.227v2.5a3.641,3.641,0,0,1-1.754,3.248V44.31A5.6,5.6,0,0,0,9.03,42.881C9,43.856,9,45.512,9,46.227ZM9,37.2v2.5a3.725,3.725,0,0,1-1.754,3.281c0-.195.032-.357.032-.552V36.775a7.156,7.156,0,0,0,1.039-.682c.227-.1.455-.162.715-.292A13.851,13.851,0,0,0,9,37.2Zm.942-1.884a6.008,6.008,0,0,0,1.039-.812,3.544,3.544,0,0,0,.357-.195v3.248a3.655,3.655,0,0,1-1.462,3.053,5.505,5.505,0,0,0,.032-.747v-3.7A6.8,6.8,0,0,0,9.939,35.313Zm1.4,7.5v2.5a3.688,3.688,0,0,1-1.4,3.021V45.252c0-.325,0-2.176.032-3.216a4.509,4.509,0,0,0,1.4-1.234C11.336,41.452,11.336,42.329,11.336,42.816Zm0-14.454v2.5a3.651,3.651,0,0,1-1.689,3.216,5.916,5.916,0,0,0,.26-1.786V28.005a5.823,5.823,0,0,0,1.169-.974c.1-.032.195-.1.292-.13C11.336,27.258,11.336,27.713,11.336,28.362Zm2.4,13.707a3.131,3.131,0,0,1-1.462,2.209V42.492c0-.422-.032-2.826,0-3.963a5.356,5.356,0,0,0,1.494-1.657C13.772,38.821,13.739,41.517,13.739,42.069Zm-1.462-8.348A5.668,5.668,0,0,0,13.772,32.1c0,1.364-.032,2.6-.032,2.956a3.131,3.131,0,0,1-1.462,2.209v-3.54Zm1.462-3.475a3.4,3.4,0,0,1-1.657,2.339,5.369,5.369,0,0,0,.195-1.494V28.07a15.507,15.507,0,0,1,.032-1.721,4.858,4.858,0,0,0,1.462-1.624C13.772,26.641,13.739,29.662,13.739,30.246Zm-2.014,26.6c.065.26.357,2.144-.325,2.339-.617.162-1.364-.292-.844-1.657.26-.682-.162-2.111.292-2.209.552-.13,1.039.682,1.234,1.267a1.341,1.341,0,0,1,.032.487C11.92,56.848,11.693,56.426,11.726,56.848Zm1.916.617c-.032.13-.032.26-.065.39-.13-.292-.39-1.039-.39-.52,0,.357.032,2.339-.617,2.371-.65.065-.78-.52-.455-1.2s.1-2.631.52-2.663c.455-.032.812.422.974.877A2.538,2.538,0,0,1,13.642,57.465ZM16.63,53.34c-.195.422-.552.52-.715.812-.227.357-.13.942-.39,1.234-.195.195-.292.357-.195.844a1.668,1.668,0,0,0-.585-.585.677.677,0,0,0-1.039.26,1.785,1.785,0,0,0-.227-.292l.195-.39c.13-.292.1-.682.195-.844.065-.13.325-.292.455-.52a9.216,9.216,0,0,0,.195-1.007c.1-.26.26-.357.357-.682a8.523,8.523,0,0,1,.195-.974,3.533,3.533,0,0,1,1.007-1.267,9.839,9.839,0,0,0,.162,2.111,9.707,9.707,0,0,0,1.007-1.072,1.947,1.947,0,0,1-.325,1.267C16.76,52.69,16.857,52.918,16.63,53.34ZM19.2,56.491a4.827,4.827,0,0,0,.78-1.949c.162-.682,2.014-7.568,2.469-9.289a4.757,4.757,0,0,1,.812-.682,1.716,1.716,0,0,1,.65-.292C23.451,46,21.7,53.892,21.372,55.451,21.08,56.491,20.3,56.718,19.2,56.491Zm4.255-.13c-.195,1.039-.292,1.689-1.494,1.4-.78-.195-.1-1.4.032-2.241.13-.747,2.014-9.874,2.274-11.271a3.326,3.326,0,0,1,1.1.1C25.14,45.317,23.451,56.328,23.451,56.361Zm3.346-1.4c-.065,1.007-.162,1.754-.195,2.014-.39,1.981-2.891,1.819-2.469-.715.13-.682,1.429-9.874,1.689-11.823a5.352,5.352,0,0,1,1.462.617C27.251,46.064,26.991,51.521,26.8,54.964Zm1.559,3.865c-.487-.292-.877-.812-.877-2.274,0-1.332.195-9.842.26-11.206a1.89,1.89,0,0,1,.65,1.039,1.725,1.725,0,0,1,.65-1.039c.032,1.364.26,9.874.26,11.206C29.233,58.017,28.843,58.537,28.356,58.829Zm1.754-1.851c-.032-.26-.1-1.007-.195-2.014-.195-3.443-.487-8.9-.487-9.907a5.352,5.352,0,0,1,1.462-.617c.292,1.949,1.559,11.141,1.689,11.823C33,58.8,30.467,58.959,30.11,56.978Zm4.645.78c-1.2.292-1.3-.357-1.494-1.4,0-.032-1.689-11.043-1.916-12.018a6.63,6.63,0,0,1,1.1-.1c.26,1.2,2.176,10.589,2.274,11.271C34.819,56.361,35.5,57.563,34.754,57.757Zm1.981-3.183a4.862,4.862,0,0,0,.747,1.949c-1.1.195-1.884,0-2.144-1.007-.325-1.592-2.079-9.452-2.533-11.173a1.334,1.334,0,0,1,.65.292,4.757,4.757,0,0,1,.812.682C34.722,47.006,36.573,53.86,36.736,54.574Zm7.893,2.046c.195-.585.65-1.4,1.234-1.267.455.1.032,1.494.292,2.209.52,1.332-.195,1.786-.844,1.657-.715-.162-.39-2.046-.325-2.339.032-.455-.195,0-.357.227C44.563,56.978,44.563,56.913,44.628,56.621Zm-.585-.78c.455.032.195,1.981.52,2.663s.195,1.267-.455,1.2-.617-2.046-.617-2.371c0-.487-.26.26-.39.52a1.63,1.63,0,0,1-.065-.39,2.828,2.828,0,0,1,0-.747C43.232,56.231,43.589,55.809,44.044,55.841Zm-1.657-1.949c.13.227.39.39.455.52.1.162.065.552.195.844l.195.39a1.785,1.785,0,0,0-.227.292.7.7,0,0,0-1.039-.26,1.608,1.608,0,0,0-.552.585.819.819,0,0,0-.227-.844c-.292-.292-.162-.877-.39-1.234-.162-.292-.52-.357-.715-.812-.195-.422-.1-.65-.325-1.072a2.23,2.23,0,0,1-.325-1.267,14.3,14.3,0,0,0,1.007,1.072,9.839,9.839,0,0,0,.162-2.111,3.831,3.831,0,0,1,1.007,1.267,7.341,7.341,0,0,1,.195.974c.1.325.26.422.357.682C42.29,53.145,42.257,53.632,42.387,53.892Zm.13-18.709v0ZM44.4,42.459v1.786a3.236,3.236,0,0,1-1.462-2.209c0-.552-.032-3.248-.032-5.2A5.356,5.356,0,0,0,44.4,38.5C44.433,39.666,44.4,42.037,44.4,42.459ZM42.907,32.1A5.356,5.356,0,0,0,44.4,33.754v3.508a3.236,3.236,0,0,1-1.462-2.209C42.939,34.7,42.939,33.462,42.907,32.1Zm.032-1.851c0-.585-.032-3.573-.065-5.554a6.07,6.07,0,0,0,1.462,1.624,15.507,15.507,0,0,1,.032,1.721v3.021a5.208,5.208,0,0,0,.195,1.494A3.4,3.4,0,0,1,42.939,30.246Zm3.833,15.006v3.086a3.688,3.688,0,0,1-1.4-3.021v-2.5c0-.455,0-1.332-.032-2.014a4.969,4.969,0,0,0,1.4,1.234C46.772,43.076,46.772,44.928,46.772,45.252Zm-1.429-7.665V34.339a3.543,3.543,0,0,1,.357.195,6.008,6.008,0,0,0,1.039.812,8.211,8.211,0,0,1,.032.877v3.7c0,.26.032.52.032.747A3.768,3.768,0,0,1,45.343,37.587Zm0-6.723v-2.5c0-.65,0-1.1-.032-1.462.1.032.195.1.292.13a5.039,5.039,0,0,0,1.169.974v4.32a5.916,5.916,0,0,0,.26,1.786A3.711,3.711,0,0,1,45.343,30.863Zm4.093,16.857v4.255a3.641,3.641,0,0,1-1.754-3.248v-2.5c0-.715-.032-2.371-.032-3.346a5.268,5.268,0,0,0,1.786,1.429ZM47.714,39.7V37.2c0-.942-.032-.942-.032-1.4.26.1.52.195.747.292a7.157,7.157,0,0,0,1.039.682v5.652a2.972,2.972,0,0,0,.032.552A3.615,3.615,0,0,1,47.714,39.7Zm0-7.568V28.492a5.939,5.939,0,0,0,.812.26,5.678,5.678,0,0,0,.942.585v4.58a5.685,5.685,0,0,0,.195,1.559A3.615,3.615,0,0,1,47.714,32.13Zm2.663,19.716V49.085c0-.487,0-2.241-.032-3.573a4.569,4.569,0,0,0,1.916,1.429V52.5h0V53.5a4.106,4.106,0,0,0,.162,1.754A3.644,3.644,0,0,1,50.377,51.846Zm0-9.647V39.438c0-.487,0-1.527-.032-2.306.1.032.227.1.325.13a6.037,6.037,0,0,0,1.624,1.169c.032.909,0,2.176,0,2.858v1.592h0v1.2h0v.065a5.443,5.443,0,0,0,.195,1.527A3.759,3.759,0,0,1,50.377,42.2Zm0-8.477V30.961c0-.487,0-.909-.032-1.234.1.032.227.1.325.13a6.037,6.037,0,0,0,1.624,1.169v4.482a6.438,6.438,0,0,0,.227,1.689A3.7,3.7,0,0,1,50.377,33.722Zm2.858,25.108V56.718h0c0-1.332-.032-2.5-.032-2.891V50.677c0-.26,0-1.624-.032-3.41.065.032.13.032.162.065A5.9,5.9,0,0,0,55.022,48.6V59.869a3.225,3.225,0,0,0,.39,1.819A3.514,3.514,0,0,1,53.236,58.829Zm0-14.259c0-.325-.032-2.956-.032-3.475,0-.552-.032-1.527-.065-2.274a2.858,2.858,0,0,0,.487.162,6.061,6.061,0,0,0,1.462,1.039v5.619a3.45,3.45,0,0,0,.39,1.851A3.609,3.609,0,0,1,53.236,44.57ZM53.2,35.313V32.585c0-.455,0-.844-.032-1.2.162.065.292.1.455.162a5.135,5.135,0,0,0,1.462,1.007V36.97a3.45,3.45,0,0,0,.39,1.851A3.6,3.6,0,0,1,53.2,35.313Zm0-7.438V26.9h0V25.7a3.313,3.313,0,0,0-1.039-2.761,10.086,10.086,0,0,1,.1,2.956V28.1a6.438,6.438,0,0,0,.227,1.689,3.692,3.692,0,0,1-2.111-3.475c0-.617-.162-3.248-.942-4.352v4.547a4.832,4.832,0,0,0,.227,1.592c-2.4-1.2-2.144-5.327-2.923-6.951,0,1.4.032,2.371.032,3.735a5.916,5.916,0,0,0,.26,1.786c-2.079-1.332-2.339-3.963-2.5-5.911a8.412,8.412,0,0,0,.032,4.45,6.443,6.443,0,0,1-2.079-5,7.076,7.076,0,0,0,0,3.605c-.065,1.527-.065,13.674-.065,15.006a4.26,4.26,0,0,1-1.527-3.67c.032-.292.065-.585.1-.844.552-3.8.682-9.257-.877-13.609,1.267,6.821-.325,13.837-.52,15.266-.39,2.533.455,7.763,2.241,13.544-.357-.325-1.527-.844-2.014-1.3,0,.52.195,1.072.195,2.241-.617-1.039-.844-1.072-1.494-2.209a12.2,12.2,0,0,1,.13,2.6A32.937,32.937,0,0,0,36.216,45.8C33,40.77,28.323,43.888,28.323,44.765c0-.877-4.645-4-7.893,1.039a40.405,40.405,0,0,0-2.436,5.035,10.436,10.436,0,0,1,.162-2.6c-.65,1.137-.877,1.169-1.494,2.209,0-1.137.195-1.721.195-2.241-.487.487-1.657.974-2.014,1.3,1.786-5.782,2.631-11.011,2.241-13.544-.227-1.4-1.786-8.445-.52-15.266-1.559,4.385-1.462,9.842-.877,13.609.032.26.065.552.1.844a4.347,4.347,0,0,1-1.527,3.67c0-1.332.032-13.479-.065-15.039a6.426,6.426,0,0,0,0-3.605,6.443,6.443,0,0,1-2.079,5,8.426,8.426,0,0,0,.032-4.45c-.162,1.949-.39,4.58-2.5,5.911a5.916,5.916,0,0,0,.26-1.786c0-1.4.032-2.371.032-3.735-.78,1.592-.552,5.717-2.923,6.951a5.765,5.765,0,0,0,.195-1.592V21.931c-.747,1.137-.909,3.735-.909,4.385A3.677,3.677,0,0,1,4.19,29.759a5.272,5.272,0,0,0,.26-1.689V25.861c0-1.754-.195-1.916.1-2.956a3.242,3.242,0,0,0-1.039,2.761v1.2h0v.974a3.672,3.672,0,0,1-2.241,3.508,3.292,3.292,0,0,0,.357-1.786V20.047c0-2.663,3.118-5.749,4.287-7.113,3.216-3.768,4.612-.715,7.828.39,5.359,1.819,8.218-.195,8.218-.195,2.858-1.786,2.858-3.508,2.858-4.58A3.653,3.653,0,0,0,24,6.308a4.908,4.908,0,0,0-3.021-1.234,9.776,9.776,0,0,1-1.364.422c-.292-.585-.227-1.527,1.137-2.274.39-.195.227-.682,1.4-1.364C25.53-.123,28.81.592,30.727,2.735a8.1,8.1,0,0,0-2.469-.585A8.88,8.88,0,0,1,33,6.243c.52.877,1.657,3.313,2.046,4.028.844,1.559,2.4,4.84,7.893,2.988,3.216-1.072,4.612-4.125,7.828-.39,1.169,1.364,4.287,4.417,4.287,7.113v9.582a3.45,3.45,0,0,0,.39,1.851A3.675,3.675,0,0,1,53.2,27.875Z" transform="translate(0 -0.01)"/>
        <path id="Path_114" data-name="Path 114" class="cls-18" d="M44.261,155.911A9.839,9.839,0,0,1,44.1,153.8a3.831,3.831,0,0,0-1.007,1.267,7.341,7.341,0,0,0-.195.974c-.1.325-.26.422-.357.682-.13.26-.1.747-.195,1.007-.13.227-.39.39-.455.52-.1.162-.065.552-.195.844l-.195.39a1.786,1.786,0,0,1,.227.292.7.7,0,0,1,1.039-.26,1.985,1.985,0,0,1,.585.585.894.894,0,0,1,.195-.844c.292-.292.162-.877.39-1.234.162-.292.52-.357.715-.812.227-.422.1-.65.325-1.072a2.522,2.522,0,0,0,.325-1.267C45.008,155.164,44.716,155.489,44.261,155.911Z" transform="translate(-28.021 -103.848)"/>
        <path id="Path_115" data-name="Path 115" class="cls-18" d="M123.576,155.067a3.533,3.533,0,0,0-1.007-1.267,9.839,9.839,0,0,1-.162,2.111,9.7,9.7,0,0,1-1.007-1.072,2.16,2.16,0,0,0,.325,1.267c.227.422.1.65.325,1.072s.552.52.715.812c.227.357.13.942.39,1.234a.819.819,0,0,1,.227.844,1.932,1.932,0,0,1,.552-.585.677.677,0,0,1,1.039.26,1.785,1.785,0,0,1,.227-.292l-.195-.39c-.13-.292-.1-.682-.195-.844-.065-.13-.325-.292-.455-.52a9.218,9.218,0,0,1-.195-1.007,3.36,3.36,0,0,1-.357-.682C123.739,155.911,123.674,155.294,123.576,155.067Z" transform="translate(-81.969 -103.848)"/>
        <path id="Path_116" data-name="Path 116" class="cls-18" d="M130.9,108.462v0Z" transform="translate(-88.383 -73.127)"/>
        <path id="Path_117" data-name="Path 117" class="cls-2" d="M63.339,16.5a10.714,10.714,0,0,1-1.039.585c.162.162,1.462-.065,1.721-.13h0c.325-.065.357.065.715.195A3.408,3.408,0,0,0,63.339,16.5Z" transform="translate(-42.065 -11.144)"/>
        <path id="Path_118" data-name="Path 118" class="cls-19" d="M76.018,63.459A10.459,10.459,0,1,1,65.559,53,10.452,10.452,0,0,1,76.018,63.459Z" transform="translate(-37.203 -35.789)"/>
        <path id="Path_119" data-name="Path 119" class="cls-20" d="M77.4,66.667a8.892,8.892,0,0,1-8.9,8.9,9.563,9.563,0,0,1-3.053-.52,8.9,8.9,0,0,1,.032-16.728A9.214,9.214,0,0,1,68.5,57.8,8.865,8.865,0,0,1,77.4,66.667Z" transform="translate(-40.242 -39.03)"/>
        <path id="Path_120" data-name="Path 120" class="cls-21" d="M78.06,63.644h0c-7.763-2.079-16.76,0-16.76,0a8.92,8.92,0,0,1,5.392-5.424,9.214,9.214,0,0,1,3.021-.52A8.971,8.971,0,0,1,78.06,63.644Z" transform="translate(-41.389 -38.962)"/>
        <path id="Path_121" data-name="Path 121" d="M78.06,94.3h0c-7.763,2.079-16.76,0-16.76,0a8.92,8.92,0,0,0,5.392,5.424,9.214,9.214,0,0,0,3.021.52A8.971,8.971,0,0,0,78.06,94.3Z" transform="translate(-41.389 -63.674)"/>
        <rect id="Rectangle_303" data-name="Rectangle 303" class="cls-18" width="10.758" height="4.833" transform="translate(25.139 30.996)"/>
        <rect id="Rectangle_304" data-name="Rectangle 304" class="cls-18" width="10.758" height="4.833" transform="translate(25.263 19.492)"/>
        <path id="Path_122" data-name="Path 122" class="cls-22" d="M81.915,74.243a46.7,46.7,0,0,1,6.334.715c.812.812.747,4.158.032,5.587a39.043,39.043,0,0,1-5.782.715,47.258,47.258,0,0,1-4.97-.13,29.559,29.559,0,0,1-.13-3.378c0-2.4.1-3.41.1-3.41A39.816,39.816,0,0,1,81.915,74.243Z" transform="translate(-52.26 -50.113)"/>
        <path id="Path_123" data-name="Path 123" class="cls-23" d="M64.962,67.585a56.882,56.882,0,0,0,.585,8.542A8.9,8.9,0,0,1,65.579,59.4,45.15,45.15,0,0,0,64.962,67.585Z" transform="translate(-40.309 -40.11)"/>
        <rect id="Rectangle_305" data-name="Rectangle 305" class="cls-18" width="4.677" height="14.811" transform="translate(20.315 20.417)"/>
        <g id="Group_42" data-name="Group 42" transform="translate(16.37 15.457)">
          <g id="Group_40" data-name="Group 40" transform="translate(1.072 1.299)">
            <path id="Path_124" data-name="Path 124" d="M64.613,73.427A10.913,10.913,0,1,1,75.527,62.514,10.937,10.937,0,0,1,64.613,73.427Zm0-21.08A10.166,10.166,0,1,0,74.78,62.513,10.2,10.2,0,0,0,64.613,52.347Z" transform="translate(-53.7 -51.6)"/>
          </g>
          <g id="Group_41" data-name="Group 41">
            <path id="Path_125" data-name="Path 125" d="M99.846,110.594l-1.137-.325-.292-1.137a.032.032,0,0,0-.032-.032h-.032s-.52.747-.65.942c-.26,0-1.169-.065-1.169-.065H96.5v.032l.715.942c-.1.227-.455,1.137-.455,1.137v.032h.032l1.1-.455.877.682h0v-1.137c.227-.13,1.007-.585,1.007-.585.065,0,.065,0,.065-.032h0" transform="translate(-81.526 -89.124)"/>
            <path id="Path_126" data-name="Path 126" class="cls-2" d="M100.457,112.48h0v-.032l-.13-.032-.39-.13-.065-.227-.1-.325h0l-.032-.032h-.032l-.357.455H98.8l.357.455-.1.292-.1.227h0v.032h.032l.195-.1.292-.13.455.357h.032v-.617l.487-.195h0" transform="translate(-83.079 -90.88)"/>
            <path id="Path_127" data-name="Path 127" d="M70.745,109.977h0c-.032,0-.942.065-1.169.065-.162-.195-.65-.942-.65-.942h-.032a.032.032,0,0,0-.032.032l-.292,1.137c-.26.1-1.137.325-1.137.325a.032.032,0,0,0-.032.032v.032s.78.455,1.007.585v1.137h.032l.877-.682,1.1.455h.032v-.032s-.357-.877-.455-1.137l.747-1.007h0" transform="translate(-61.878 -89.124)"/>
            <path id="Path_128" data-name="Path 128" class="cls-2" d="M71.594,112.515l.195-.26H71.2l-.162-.227-.162-.227h-.032a.032.032,0,0,0-.032.032l-.162.552-.26.1-.26.1a.032.032,0,0,0-.032.032v.032l.455.26v.617h0l.292-.227.162-.13.357.162.13.065h.032v-.032l-.1-.292-.1-.227Z" transform="translate(-63.701 -90.947)"/>
            <path id="Path_129" data-name="Path 129" d="M60.281,61.386l-1.072-.552-.1-1.2V59.6h-.032s-.617.682-.78.877l-1.072-.26h-.032v.032s.357.78.455,1.007c-.162.195-.65.974-.65.974v.032h.032s.909-.162,1.169-.195l.747.877h.032a.032.032,0,0,0,.032-.032s.162-.877.195-1.137c.26-.1,1.072-.422,1.072-.422v.032h0" transform="translate(-54.856 -55.702)"/>
            <path id="Path_130" data-name="Path 130" d="M85.21,48.672h0c-.032,0-.942-.065-1.2-.1-.1-.227-.487-.974-.487-.974h-.032s-.39.747-.487,1.007c-.26,0-1.169.065-1.169.065a.032.032,0,0,0-.032.032v.032s.682.617.877.812l-.227,1.1v.032h0s.78-.455,1.007-.552c.227.1,1.007.552,1.007.552H84.5s.032,0,0-.032l-.227-1.169a10.691,10.691,0,0,0,.942-.812h0" transform="translate(-71.601 -47.6)"/>
            <path id="Path_131" data-name="Path 131" class="cls-2" d="M86.089,50.517h0l-.552-.032-.26-.552a.032.032,0,0,0-.065,0l-.26.552-.52.032a.032.032,0,0,0-.032.032v.032l.39.39-.1.585v.032h.032l.487-.26.487.26h0v-.682l.39-.39h0" transform="translate(-73.357 -49.153)"/>
            <path id="Path_132" data-name="Path 132" d="M110.281,62.331s-.52-.747-.65-.974c.13-.227.455-1.007.455-1.007v-.032h-.032l-1.072.26c-.162-.195-.78-.877-.78-.877h-.032v.032l-.1,1.2L107,61.486v.032a.032.032,0,0,0,.032.032s.844.325,1.072.422c.065.26.195,1.137.195,1.137a.032.032,0,0,0,.032.032h.032l.747-.909c.26.032,1.169.195,1.169.195v-.1h0" transform="translate(-88.616 -55.77)"/>
            <path id="Path_133" data-name="Path 133" class="cls-2" d="M111.424,63.734l-.325-.422.26-.52V62.76h-.032l-.585.13-.325-.39h-.032v.032l-.032.552-.52.26a.032.032,0,1,0,0,.065l.52.227.1.552.032.032h.032l.39-.455.552.065c-.065-.065-.032-.065-.032-.1h0" transform="translate(-90.507 -57.66)"/>
            <path id="Path_134" data-name="Path 134" class="cls-2" d="M60.857,63.245l-.52-.26-.032-.552a.032.032,0,0,0-.032-.032h-.032l-.357.39-.585-.13h-.032v.032l.26.52-.325.422v.032h.032l.552-.065.39.455h.032a.032.032,0,0,0,.032-.032l.1-.552.52-.227q.049.049,0,0h0" transform="translate(-56.342 -57.593)"/>
            <path id="Path_135" data-name="Path 135" d="M53.681,90.109s-.585-.65-.747-.844c.065-.26.325-1.1.325-1.1v-.032h-.032l-1.1.455c-.227-.13-.974-.682-.974-.682h-.032v.032l.162,1.137-.877.682v.032a.032.032,0,0,0,.032.032s.844.195,1.1.26c.065.26.325,1.1.325,1.1a.032.032,0,0,0,.032.032h.032s.455-.812.585-1.007l1.169-.032v-.065h0" transform="translate(-50.4 -74.81)"/>
            <path id="Path_136" data-name="Path 136" class="cls-2" d="M54.657,91.372,54.3,90.95l.13-.552v-.032H54.4l-.52.227-.455-.292H53.39v.032l.1.52L53,91.209v.032a.032.032,0,0,0,.032.032l.585.13.13.52a.032.032,0,0,0,.032.032h.032l.292-.487h.585c-.032-.065-.032-.065-.032-.1h0" transform="translate(-52.156 -76.431)"/>
            <path id="Path_137" data-name="Path 137" d="M116.948,89.751l-.877-.682c.065-.26.162-1.137.162-1.137V87.9H116.2s-.747.52-.974.682l-1.072-.487h-.032v.032s.26.844.325,1.1c-.162.195-.747.877-.747.877v.032h.032l1.169.032c.13.227.585,1.007.585,1.007h.032l.032-.032s.26-.877.325-1.1c.26-.065,1.1-.26,1.1-.26-.032.032-.032.032-.032-.032h0" transform="translate(-93.14 -74.81)"/>
            <path id="Path_138" data-name="Path 138" class="cls-2" d="M117.757,91.142l-.487-.39.1-.52V90.2h-.032l-.455.292-.52-.227h-.033V90.3l.13.552-.357.422V91.3l.032.032h.585l.292.487h.032a.032.032,0,0,0,.032-.032l.13-.52.585-.13c-.033.032-.033.032-.033,0h0" transform="translate(-94.76 -76.363)"/>
          </g>
        </g>
        <g id="Group_45" data-name="Group 45" transform="translate(6.366 59.111)">
          <path id="Path_139" data-name="Path 139" class="cls-2" d="M129.486,200.871a.893.893,0,0,1-.682,1.072.969.969,0,0,1-1.1-.357.639.639,0,0,0,.682.195.58.58,0,0,0,.455-.715h0c-.13-.455-.26-.877-.422-1.332a.277.277,0,0,0-.39-.162c.227-.357.422-.715.65-1.072C128.967,199.312,129.227,200.092,129.486,200.871Z" transform="translate(-92.588 -193.141)"/>
          <path id="Path_140" data-name="Path 140" class="cls-2" d="M76.725,214.052a.3.3,0,0,0,.325-.26.291.291,0,0,0-.292-.292.329.329,0,0,0-.357.26A.32.32,0,0,0,76.725,214.052Z" transform="translate(-57.951 -203.269)"/>
          <path id="Path_141" data-name="Path 141" class="cls-2" d="M50.244,196.783a.28.28,0,0,0-.357.195.316.316,0,0,0,.227.357.28.28,0,0,0,.357-.195A.3.3,0,0,0,50.244,196.783Z" transform="translate(-40.045 -191.976)"/>
          <path id="Path_142" data-name="Path 142" class="cls-2" d="M115.614,199.987a.27.27,0,1,0,.357.195A.307.307,0,0,0,115.614,199.987Z" transform="translate(-84.271 -194.14)"/>
          <path id="Path_143" data-name="Path 143" class="cls-2" d="M80.725,214.252c.195,0,.325-.1.325-.26a.3.3,0,0,0-.325-.292.3.3,0,0,0-.325.26A.345.345,0,0,0,80.725,214.252Z" transform="translate(-60.652 -203.404)"/>
          <path id="Path_144" data-name="Path 144" class="cls-2" d="M74.384,213.852a.352.352,0,0,0,.357-.26.291.291,0,0,0-.292-.292.329.329,0,0,0-.357.26C74.059,213.722,74.221,213.852,74.384,213.852Z" transform="translate(-56.389 -203.134)"/>
          <path id="Path_145" data-name="Path 145" class="cls-2" d="M52.344,197.383a.28.28,0,0,0-.357.195.316.316,0,0,0,.227.357.28.28,0,0,0,.357-.195A.3.3,0,0,0,52.344,197.383Z" transform="translate(-41.463 -192.381)"/>
          <path id="Path_146" data-name="Path 146" class="cls-2" d="M117.814,199.487a.27.27,0,1,0,.357.195A.307.307,0,0,0,117.814,199.487Z" transform="translate(-85.756 -193.803)"/>
          <path id="Path_147" data-name="Path 147" class="cls-2" d="M148.741,187.35h0c-.1-.162-.162-.325-.26-.487h0c-.65-1.332-1.332-2.631-1.981-3.963.39.1.747.195,1.137.292a.369.369,0,0,0-.1.487c.585,1.137,1.169,2.241,1.754,3.378C149.131,187.155,148.936,187.252,148.741,187.35Z" transform="translate(-105.282 -182.608)"/>
          <path id="Path_148" data-name="Path 148" class="cls-2" d="M103.985,200.837h0c-.195-1.657-.39-3.281-.585-4.937.325.227.65.455.974.65a.342.342,0,0,0-.227.422c.162,1.267.325,2.534.52,3.8A5.343,5.343,0,0,1,103.985,200.837Z" transform="translate(-76.181 -191.385)"/>
          <path id="Path_149" data-name="Path 149" class="cls-2" d="M64.9,200.037h0c.26-1.657.52-3.281.78-4.937.26.292.487.585.747.909a.412.412,0,0,0-.357.357c-.195,1.267-.357,2.533-.552,3.768A3.505,3.505,0,0,1,64.9,200.037Z" transform="translate(-50.186 -190.845)"/>
          <path id="Path_150" data-name="Path 150" class="cls-2" d="M124.464,196.707h0c-.065-.195-.1-.357-.162-.552h0c-.39-1.429-.812-2.826-1.2-4.255l1.072.487a.323.323,0,0,0-.162.455c.357,1.234.715,2.436,1.072,3.67A2.264,2.264,0,0,1,124.464,196.707Z" transform="translate(-89.483 -188.684)"/>
          <path id="Path_151" data-name="Path 151" class="cls-2" d="M113.989,201.763c-.227-.877-.487-1.786-.715-2.663l-.682.974a.343.343,0,0,1,.39.292c.1.357.162.682.26,1.039-.909.227-1.851.422-2.761.617-.13.033-.26.033-.39.065-.195-.13-.39-.227-.585-.357a2.2,2.2,0,0,0,.552-1.884A2.152,2.152,0,0,1,108.5,201.8c.455.292.942.617,1.429.877a3.451,3.451,0,0,0,.617-.13h0C111.683,202.316,112.852,202.056,113.989,201.763Z" transform="translate(-79.625 -193.546)"/>
          <path id="Path_152" data-name="Path 152" class="cls-2" d="M132.953,192.109h0c.39.13.78.292,1.2.422.13.292.26.617.39.909a7.563,7.563,0,0,1-.909.357c-.065-.162-.13-.357-.195-.52.1-.032.195-.1.292-.13l-.1-.195c-.13-.032-.26-.1-.39-.13h0C133.148,192.6,133.051,192.369,132.953,192.109Zm-1.462,2.5h0a3.2,3.2,0,0,1-.162-.52h0c-.487-1.4-.942-2.793-1.429-4.19.357.162.715.292,1.072.455a.4.4,0,0,0-.162.455c.357,1.039.715,2.046,1.1,3.086.195-.065.422-.162.617-.227-.065-.13-.1-.292-.162-.422.195-.357.39-.747.585-1.1.1.227.195.487.292.715a3.545,3.545,0,0,1-.195.357l.1.195a1.154,1.154,0,0,0,.292-.13c.065.162.13.357.195.52-.52.195-1.007.39-1.527.585-.065.032-.1.032-.162.065C131.816,194.512,131.654,194.545,131.492,194.61Z" transform="translate(-94.074 -187.334)"/>
          <path id="Path_153" data-name="Path 153" class="cls-2" d="M86.6,198.436h0a.9.9,0,0,1,.617.39,5.308,5.308,0,0,0,.715-.065,18.73,18.73,0,0,1-.877,1.819c.552-.033,1.1-.065,1.657-.13-.1-1.072-.195-2.176-.292-3.248a.35.35,0,0,0-.325-.357c.26-.292.52-.585.78-.844.162,1.656.357,3.313.52,4.97h0c-.195.032-.357.032-.552.065h-.1c-.682.065-1.4.1-2.079.162-.032-.357-.032-.747-.065-1.1h0a6.5,6.5,0,0,0,.325-.682H86.73a.552.552,0,0,0-.195-.325h0A1.436,1.436,0,0,0,86.6,198.436Zm-1.884,3.086a.915.915,0,0,1-.974.844.956.956,0,0,1-.942-.682.654.654,0,0,0,.617.39.617.617,0,0,0,.65-.552h0v-1.4a.291.291,0,0,0-.292-.292c.325-.26.617-.552.909-.812v1.656c.552,0,1.072,0,1.624-.032-.357-.585-.715-1.169-1.039-1.754a5.264,5.264,0,0,0,.715-.032.845.845,0,0,1,.585-.455c0,.227.032.455.032.65a.465.465,0,0,0-.162.357h-.195c.13.227.26.422.39.65.032.357.032.747.065,1.1-.682.032-1.364.065-2.046.065A.534.534,0,0,1,84.716,201.522Z" transform="translate(-62.272 -191.453)"/>
          <path id="Path_154" data-name="Path 154" class="cls-2" d="M36.317,195.669c.52.13,1.039.227,1.592.325h.065c.195.032.39.065.552.1h0c.292-1.624.552-3.281.844-4.9-.325.195-.65.422-1.007.617a.342.342,0,0,1,.227.422l-.585,3.216c-.195-.032-.422-.1-.617-.13.032-.13.065-.292.1-.422-.26-.325-.52-.682-.747-1.007-.065.26-.13.52-.162.747.1.1.162.227.26.325,0,.065-.032.13-.032.227-.1-.032-.195-.032-.325-.065A3.55,3.55,0,0,0,36.317,195.669Zm-4.028-1.689h0a2.071,2.071,0,0,0,.065-.227,1.01,1.01,0,0,0-.682-1.169c-.032,0-.065-.032-.13-.032h0a34.464,34.464,0,0,1-3.443-1.364c.065-.162.162-.325.227-.52a.274.274,0,0,1,.39-.13c-.162-.39-.325-.747-.487-1.137-.292.682-.617,1.332-.942,2.014,1.364.617,2.761,1.2,4.158,1.689a.351.351,0,0,1,.26.422h0a.461.461,0,0,0-.065.195h0l-.195.585c-.13.065-.26.1-.39.162a2.423,2.423,0,0,0-.227-.39c.065-.195.13-.39.195-.552-.162-.065-.292-.1-.455-.162-.065-.032-.1-.032-.162-.065-1.137-.422-2.274-.877-3.378-1.4-.065.162-.162.325-.227.52,1.137.52,2.274.974,3.41,1.4-.032.1-.065.162-.1.26.227.39.422.747.65,1.1h0c.39-.162.78-.292,1.2-.455a2.238,2.238,0,0,1,.1-.26c.455.13.877.292,1.332.422a1.54,1.54,0,0,0,.325.325,1.316,1.316,0,0,1-.162-.292c.357.1.747.195,1.1.292l1.559.39c.032-.195.1-.357.13-.552-.1-.032-.195-.032-.292-.065a.826.826,0,0,1,.065-.227,3.543,3.543,0,0,0,.357-.195h0c.065-.26.1-.52.162-.747h0c-.357.195-.747.39-1.1.585-.032.13-.065.292-.1.422-.227-.065-.422-.1-.617-.162.162-.617.325-1.2.487-1.819-.357.162-.715.357-1.1.52a.369.369,0,0,1,.195.455c-.065.227-.13.455-.195.715a1,1,0,0,0-.26-.065h0a3.19,3.19,0,0,1-.52-.162,4,4,0,0,1,.065-.65,2.311,2.311,0,0,0-.52-2.371c-.26.13-.487.227-.747.357a1.469,1.469,0,0,1,.942,1.169c.1.552-.195.942-.065,1.4a5.245,5.245,0,0,1-.812-.227Z" transform="translate(-24.461 -186.996)"/>
          <path id="Path_155" data-name="Path 155" class="cls-2" d="M70.774,200.72c.1,0,.227.033.325.033.032-.227.032-.455.065-.715-.1.032-.195.065-.325.1.032-.195.032-.422.065-.617a.492.492,0,0,0,.357-.422c.065-.52.1-1.072.162-1.592a.4.4,0,0,0-.26-.422c.325-.227.617-.455.942-.682-.13,1.494-.26,2.956-.357,4.417.325.032.682.065,1.007.065,0-.227.032-.487.032-.715a.393.393,0,0,0-.292-.422c.325-.227.65-.487.974-.715-.032.617-.065,1.267-.1,1.884.195,0,.422.032.617.032,0-.227.032-.487.032-.715a.372.372,0,0,0-.292-.39c.325-.26.617-.487.942-.747-.032.812-.032,1.624-.065,2.436-.942-.033-1.884-.065-2.826-.162h0l-1.072-.1A3.2,3.2,0,0,0,70.774,200.72Zm.032-.585h0a.286.286,0,0,0-.292.26c0,.1-.032.195-.032.292.1,0,.227.032.325.032-.032.195-.032.357-.065.552a.412.412,0,0,1-.195-.032h0c-.26-.033-.52-.065-.747-.1.032-.292.065-.552.1-.845a.934.934,0,0,1,.844-.747c0-.032.1-.032.195-.065-.032.195-.032.422-.065.617A.1.1,0,0,1,70.807,200.135Z" transform="translate(-53.495 -191.723)"/>
          <path id="Path_156" data-name="Path 156" class="cls-2" d="M20.737,187.74c.1.065.195.1.292.162a5.639,5.639,0,0,1,.325-.617,1.456,1.456,0,0,1-.357-.033c.1-.195.195-.357.292-.552a.481.481,0,0,0,.487-.26c.227-.487.487-.942.715-1.429a.369.369,0,0,0-.1-.487,11.6,11.6,0,0,0,1.137-.325c-.715,1.494-1.429,2.988-2.144,4.515-.292-.13-.585-.292-.877-.422A4.782,4.782,0,0,1,20.737,187.74Zm.227-.52h0a.338.338,0,0,0-.39.13c-.032.1-.1.162-.13.26.1.065.195.1.292.162-.1.162-.162.325-.26.487-.292-.162-.585-.292-.877-.455.13-.26.26-.487.39-.747a.909.909,0,0,1,1.072-.39c0-.032.1,0,.195,0-.1.195-.195.357-.292.552Z" transform="translate(-19.6 -183.485)"/>
          <g id="Group_43" data-name="Group 43" transform="translate(16.787 4.542)">
            <path id="Path_157" data-name="Path 157" class="cls-2" d="M72.074,196.282a.265.265,0,0,0-.26-.292.279.279,0,1,0-.065.552A.321.321,0,0,0,72.074,196.282Z" transform="translate(-71.42 -195.984)"/>
            <path id="Path_158" data-name="Path 158" class="cls-2" d="M71.874,198.225a.316.316,0,0,0-.26-.325.323.323,0,0,0-.325.227.291.291,0,0,0,.26.325A.268.268,0,0,0,71.874,198.225Z" transform="translate(-71.285 -197.278)"/>
          </g>
          <g id="Group_44" data-name="Group 44" transform="translate(1.891)">
            <path id="Path_159" data-name="Path 159" class="cls-2" d="M25.447,183.906a.312.312,0,0,0,.13.39.274.274,0,0,0,.39-.13.324.324,0,0,0-.13-.39A.355.355,0,0,0,25.447,183.906Z" transform="translate(-25.422 -183.191)"/>
            <path id="Path_160" data-name="Path 160" class="cls-2" d="M26.447,182.13a.324.324,0,0,0,.13.39.291.291,0,0,0,.39-.1.324.324,0,0,0-.13-.39A.291.291,0,0,0,26.447,182.13Z" transform="translate(-26.097 -182)"/>
          </g>
          <path id="Path_161" data-name="Path 161" class="cls-2" d="M142.341,187.1c-.422-.877-.812-1.721-1.234-2.6.422.13.812.26,1.234.39a.441.441,0,0,0-.162.52c.26.552.552,1.1.812,1.657-.1.195-.162.422-.26.617.227.065.422.13.65.195.13.292.292.585.422.909-.292.13-.585.292-.877.422-.065-.162-.162-.325-.227-.52.1-.032.195-.1.292-.13l-.1-.195c-.13-.033-.26-.065-.422-.1h0c-.1-.227-.227-.487-.325-.715h0C142.244,187.358,142.276,187.228,142.341,187.1Zm.585,2.046-.877.39c-.13-.292-.26-.617-.39-.909.1-.195.195-.422.292-.617-.227-.065-.422-.13-.65-.195,0-.033-.032-.065-.032-.1l-.682-1.559a.436.436,0,0,0-.487-.227c.162-.39.357-.78.52-1.2l1.169,2.631c.13.032.26.1.39.13.1.227.227.487.325.715a1.986,1.986,0,0,0-.162.39l.1.195c.1-.032.195-.1.292-.13Z" transform="translate(-100.961 -183.688)"/>
          <path id="Path_162" data-name="Path 162" class="cls-2" d="M149.112,200.628c.13.032.26.1.39.13-.39.195-.78.357-1.2.552.065-.1.1-.227.162-.325q.049.049.195,0c-.227-.195.033-.52.325-.422a.119.119,0,0,0-.1.033.145.145,0,0,0-.1.195.156.156,0,0,0,.195.065C149.08,200.758,149.112,200.693,149.112,200.628Z" transform="translate(-106.497 -194.522)"/>
        </g>
      </g>
    </g>
    <path id="Path_163" data-name="Path 163" class="cls-3" d="M249.354,75.438a7.433,7.433,0,0,0,1.527-.13c0-.292-.032-.747-.032-1.754V67.123c0-.65-.032-.78-.292-.78a12.109,12.109,0,0,0-1.559.13c.032.26.032.844.032,1.819v6.853C249.029,75.406,249.126,75.438,249.354,75.438Zm-6.918-18.806c0,.227.1.292.292.292a7.433,7.433,0,0,0,1.527-.13c0-.292-.033-.747-.033-1.754V48.609c0-.65-.032-.78-.292-.78a12.109,12.109,0,0,0-1.559.13c.032.26.032.844.032,1.819v6.853Zm-9.907-2.306c0,1.2,0,2.014-.032,2.6a5.782,5.782,0,0,0,1.137-.065c.227-.032.325-.1.325-.39V52.735c0-.715,0-1.462-.065-2.923.585,1.1,1.007,1.916,1.754,3.086,1.137,1.754,1.851,2.858,2.6,3.9a.408.408,0,0,0,.357.195,5.579,5.579,0,0,0,1.364-.227V50.493c0-1.2,0-2.014.033-2.631a7.883,7.883,0,0,0-1.169.065c-.195.032-.292.1-.292.422v4c0,.715,0,1.267.065,2.371a29.024,29.024,0,0,0-1.527-2.533c-1.039-1.592-2.209-3.378-2.663-4.028a.556.556,0,0,0-.39-.26,15.927,15.927,0,0,0-1.754.13v.065l.26.357ZM245.976,49.1h2.566v7.568c0,.227.1.26.292.26a6.852,6.852,0,0,0,1.527-.13c0-.292-.032-.747-.032-1.754V49.1H252.6c.292-.065.682-.422.747-1.2h-5.1a10.969,10.969,0,0,1-2.046-.065,2.6,2.6,0,0,0-.487.844C245.651,49,245.748,49.1,245.976,49.1ZM235.16,75.438a7.433,7.433,0,0,0,1.527-.13c0-.292-.033-.747-.033-1.754V67.123c0-.65-.032-.78-.292-.78a12.109,12.109,0,0,0-1.559.13c.032.26.032.844.032,1.819v6.853C234.835,75.406,234.932,75.438,235.16,75.438Zm-2.728-3.378-.747-5.262c-.032-.357-.13-.455-.26-.455a6.979,6.979,0,0,0-1.527.195v.227c-.585,1.462-1.559,4.028-2.274,5.911l-1.916-5.327c-.26-.715-.357-.942-.585-.974a7.7,7.7,0,0,0-1.559.195l.032.26c-.552,3.248-1.137,6.951-1.4,8.477a3.706,3.706,0,0,0,1.267.13c.162,0,.227-.065.26-.227.227-1.657.65-4.937.845-6.691.65,1.949,1.916,5.717,2.241,6.853a7.236,7.236,0,0,0,.877-.1.587.587,0,0,0,.52-.487c.909-2.7,1.754-5.067,2.144-6.3l.422,3.573c.162,1.527.227,2.274.325,3.021a.36.36,0,0,0,.39.357,9.731,9.731,0,0,0,1.429-.13C232.821,74.626,232.659,73.555,232.431,72.06ZM222.59,52.735c0,3.086,1.3,4.32,3.7,4.32,1.754,0,3.865-.585,3.865-4.58V50.461c0-1.2,0-2.014.032-2.6a9.165,9.165,0,0,0-1.267.065c-.195.032-.325.1-.325.357v4.287c0,2.728-.974,3.216-2.144,3.216-.974,0-2.144-.422-2.144-3.086V48.674c0-.715-.032-.844-.292-.844a11.605,11.605,0,0,0-1.527.13c.032.292.032.877.032,1.851v2.923Zm124.433,4c.195-.455.585-1.527.942-2.339h3.216c.325.812.52,1.364.78,2.079.13.39.26.455.487.455a8.53,8.53,0,0,0,1.592-.162V56.7c-.292-.585-.617-1.494-1.2-2.956-.487-1.234-1.592-4.06-2.241-5.619a.374.374,0,0,0-.325-.26,12.505,12.505,0,0,0-1.494.162l.13.292c-.552,1.3-2.761,6.626-3.508,8.348v.065a5.7,5.7,0,0,0,1.267.195A.373.373,0,0,0,347.023,56.73Zm2.566-6.821c.162.455.585,1.527,1.234,3.313h-2.5Q349.053,51.322,349.589,49.909Zm4.45-.812H356.6v7.568c0,.227.1.26.292.26a6.852,6.852,0,0,0,1.527-.13c0-.292-.032-.747-.032-1.754V49.1h2.274c.292-.065.682-.422.747-1.2h-5.1a10.97,10.97,0,0,1-2.046-.065,2.6,2.6,0,0,0-.487.844C353.682,49,353.812,49.1,354.039,49.1Zm-32.156,7.828c.162,0,.227-.065.26-.227.227-1.657.65-4.937.845-6.691.65,1.949,1.916,5.717,2.241,6.853a7.236,7.236,0,0,0,.877-.1.587.587,0,0,0,.52-.487c.909-2.7,1.754-5.067,2.144-6.3l.422,3.573c.162,1.527.227,2.274.325,3.021a.36.36,0,0,0,.39.357,9.731,9.731,0,0,0,1.429-.13c-.13-.682-.292-1.754-.52-3.248l-.747-5.262c-.032-.357-.13-.455-.26-.455a6.978,6.978,0,0,0-1.527.195v.227c-.585,1.462-1.559,4.028-2.274,5.911l-1.916-5.327c-.26-.715-.357-.942-.585-.974a7.7,7.7,0,0,0-1.559.195l.032.26c-.552,3.248-1.137,6.951-1.4,8.477A4.005,4.005,0,0,0,321.883,56.924Zm15.591,0a11.761,11.761,0,0,0,1.462-.065c.227-.032.325-.1.325-.357V53.189h.26c.487,0,.747.13,1.2.942a14.933,14.933,0,0,0,1.234,2.176,1.424,1.424,0,0,0,1.267.65,4.058,4.058,0,0,0,1.169-.13v-.065a12.7,12.7,0,0,1-1.494-2.241,9.156,9.156,0,0,0-1.267-1.851,2.567,2.567,0,0,0,1.721-2.274c0-1.819-1.137-2.6-3.41-2.6a23.023,23.023,0,0,0-2.469.227c.032.39.032.747.032,1.462v4.775C337.506,55.528,337.506,56.372,337.474,56.924Zm1.819-7.99a3.73,3.73,0,0,1,.617-.032,1.7,1.7,0,0,1,.747,3.183,4.328,4.328,0,0,1-1.364.1ZM362.841,56.5l.227.26a18.262,18.262,0,0,0,2.533.13,17.747,17.747,0,0,0,1.949-.065,1.52,1.52,0,0,0,.747-1.137l-.032-.032c-.682.065-1.721.065-2.306.065a7.206,7.206,0,0,1-1.332-.1V52.832H366.8c.487,0,.812-.195.942-1.2h-3.118V49.1h1.494a4.3,4.3,0,0,0,1.332-.1,1.78,1.78,0,0,0,.422-1.1H364.4a7.668,7.668,0,0,0-1.624.195c.032.585.032,1.1.032,1.786V56.5Zm-1.916,11.79v6.853c0,.227.1.292.292.292a7.433,7.433,0,0,0,1.527-.13c0-.292-.032-.747-.032-1.754V67.123c0-.65-.032-.78-.292-.78a12.11,12.11,0,0,0-1.559.13C360.892,66.766,360.925,67.351,360.925,68.293Zm-73.7,2.663a4.377,4.377,0,0,0,4.612,4.612,4.454,4.454,0,0,0,4.612-4.775,4.379,4.379,0,0,0-4.547-4.612h0A4.49,4.49,0,0,0,287.226,70.956Zm4.482-3.638h0c1.786,0,2.826,1.592,2.826,3.605,0,2.241-.974,3.508-2.6,3.508-1.494,0-2.793-1.267-2.793-3.67C289.143,68.455,290.312,67.318,291.709,67.318ZM284.3,56.924a11.761,11.761,0,0,0,1.462-.065c.227-.032.325-.1.325-.357V53.189h.26c.487,0,.747.13,1.2.942a14.932,14.932,0,0,0,1.234,2.176,1.424,1.424,0,0,0,1.267.65,4.058,4.058,0,0,0,1.169-.13v-.065a12.7,12.7,0,0,1-1.494-2.241,9.155,9.155,0,0,0-1.267-1.851,2.567,2.567,0,0,0,1.721-2.274c0-1.819-1.137-2.6-3.41-2.6a23.023,23.023,0,0,0-2.469.227c.032.39.032.747.032,1.462v4.775C284.368,55.528,284.335,56.372,284.3,56.924Zm1.819-7.99a3.73,3.73,0,0,1,.617-.032,1.7,1.7,0,0,1,.747,3.183,4.328,4.328,0,0,1-1.364.1Zm-10.3,7.8c.195-.455.585-1.527.942-2.339h3.216c.325.812.52,1.364.78,2.079.13.39.26.455.487.455a8.528,8.528,0,0,0,1.592-.162V56.7c-.292-.585-.617-1.494-1.2-2.956-.487-1.234-1.592-4.06-2.241-5.619a.373.373,0,0,0-.325-.26,12.5,12.5,0,0,0-1.494.162l.13.292c-.552,1.3-2.761,6.626-3.508,8.348v.065a5.7,5.7,0,0,0,1.267.195A.344.344,0,0,0,275.826,56.73Zm2.566-6.821c.162.455.585,1.527,1.234,3.313h-2.5C277.644,51.955,278.034,50.851,278.391,49.909ZM313.86,56.5l.227.26a18.262,18.262,0,0,0,2.534.13,17.748,17.748,0,0,0,1.949-.065,1.52,1.52,0,0,0,.747-1.137l-.032-.032c-.682.065-1.721.065-2.306.065a7.206,7.206,0,0,1-1.332-.1V52.832h2.176c.487,0,.812-.195.942-1.2h-3.118V49.1h1.494a4.3,4.3,0,0,0,1.332-.1,1.78,1.78,0,0,0,.422-1.1h-3.475a7.668,7.668,0,0,0-1.624.195c.033.585.033,1.1.033,1.786V56.5Zm-52.034.227a13.06,13.06,0,0,0,2.826.26c2.923,0,5.132-1.657,5.132-4.742,0-1.819-.78-4.417-5.067-4.417a19.206,19.206,0,0,0-2.923.26c0,.357.032.65.032,1.624ZM263.613,49a5.847,5.847,0,0,1,.909-.065,3.015,3.015,0,0,1,3.346,3.346c0,2.988-1.884,3.605-3.151,3.605a3.964,3.964,0,0,1-1.1-.13Zm30.239,7.73c.195-.455.585-1.527.942-2.339h3.216c.325.812.52,1.364.78,2.079.13.39.26.455.487.455a8.528,8.528,0,0,0,1.592-.162V56.7c-.292-.585-.617-1.494-1.2-2.956-.487-1.234-1.592-4.06-2.241-5.619a.374.374,0,0,0-.325-.26,12.5,12.5,0,0,0-1.494.162l.13.292c-.552,1.3-2.761,6.626-3.508,8.348v.065a5.7,5.7,0,0,0,1.267.195A.373.373,0,0,0,293.852,56.73Zm2.566-6.821c.162.455.585,1.527,1.234,3.313h-2.5C295.671,51.955,296.061,50.851,296.418,49.909ZM254.778,56.5l.227.26a18.262,18.262,0,0,0,2.534.13,17.747,17.747,0,0,0,1.949-.065,1.52,1.52,0,0,0,.747-1.137l-.032-.032c-.682.065-1.721.065-2.306.065a7.206,7.206,0,0,1-1.332-.1V52.832h2.176c.487,0,.812-.195.942-1.2h-3.118V49.1h1.494a4.3,4.3,0,0,0,1.332-.1,1.78,1.78,0,0,0,.422-1.1h-3.475a7.668,7.668,0,0,0-1.624.195c.033.585.033,1.1.033,1.786V56.5Zm-9.647,10.329v4c0,.715,0,1.267.065,2.371a29.022,29.022,0,0,0-1.527-2.533c-1.039-1.592-2.209-3.378-2.663-4.028a.556.556,0,0,0-.39-.26,15.925,15.925,0,0,0-1.754.13v.065l.26.357v5.944c0,1.2,0,2.014-.032,2.6a5.782,5.782,0,0,0,1.137-.065c.227-.032.325-.1.325-.39V71.281c0-.715,0-1.462-.065-2.923.585,1.1,1.007,1.916,1.754,3.118,1.137,1.754,1.851,2.858,2.6,3.9a.408.408,0,0,0,.357.195,5.579,5.579,0,0,0,1.364-.227v-6.3c0-1.2,0-2.014.032-2.631a7.883,7.883,0,0,0-1.169.065C245.229,66.441,245.131,66.506,245.131,66.831Zm86.366-.065v4.287c0,2.728-.974,3.216-2.144,3.216-.974,0-2.144-.422-2.144-3.086v-4c0-.715-.032-.844-.292-.844a11.606,11.606,0,0,0-1.527.13c.032.292.032.877.032,1.851v2.923c0,3.086,1.3,4.32,3.7,4.32,1.754,0,3.865-.585,3.865-4.58V68.975c0-1.2,0-2.014.033-2.6a9.166,9.166,0,0,0-1.267.065C331.595,66.441,331.5,66.506,331.5,66.766Zm-12.96-.422a19.2,19.2,0,0,0-2.923.26c0,.357.032.65.032,1.624v6.983a13.06,13.06,0,0,0,2.826.26c2.923,0,5.132-1.657,5.132-4.742C323.6,68.91,322.857,66.344,318.538,66.344Zm0,8.055a3.964,3.964,0,0,1-1.1-.13V67.513a5.846,5.846,0,0,1,.909-.065,3.015,3.015,0,0,1,3.345,3.346C321.688,73.782,319.837,74.4,318.538,74.4ZM335.1,56.827c0-.292-.032-.747-.032-1.754V48.609c0-.65-.032-.78-.292-.78a12.11,12.11,0,0,0-1.559.13c.033.26.033.844.033,1.819v6.853c0,.227.1.292.292.292A11.127,11.127,0,0,0,335.1,56.827Zm38-5.132c-1.332-.747-1.786-1.1-1.786-1.786,0-.617.552-.974,1.3-.974a3.684,3.684,0,0,1,1.4.357c.487.032.715-.552.715-.909a3.417,3.417,0,0,0-2.046-.682h0c-2.371,0-3.053,1.559-3.053,2.533,0,.844.292,1.786,1.949,2.663,1.429.78,1.786,1.137,1.786,1.786,0,.715-.585,1.1-1.462,1.1a3.944,3.944,0,0,1-2.046-.682,1.676,1.676,0,0,0-.357.909c0,.195.1.325.325.487a3.719,3.719,0,0,0,2.079.552c1.689,0,3.216-.942,3.216-2.728C375.119,52.962,374.4,52.442,373.1,51.7Zm-3.8,14.519h0a4.449,4.449,0,0,0-4.645,4.775,4.377,4.377,0,0,0,4.612,4.612,4.454,4.454,0,0,0,4.612-4.775A4.406,4.406,0,0,0,369.3,66.214Zm.065,8.25c-1.494,0-2.793-1.267-2.793-3.67,0-2.339,1.169-3.475,2.566-3.475h0c1.786,0,2.826,1.592,2.826,3.605C371.968,73.165,370.961,74.464,369.37,74.464Zm-17.247.747c-.292-.585-.617-1.494-1.2-2.956-.487-1.234-1.592-4.06-2.241-5.619a.373.373,0,0,0-.325-.26,12.5,12.5,0,0,0-1.494.162l.13.292c-.552,1.3-2.761,6.626-3.508,8.348v.065a5.7,5.7,0,0,0,1.267.195q.341,0,.39-.195c.195-.455.585-1.527.942-2.339H349.3c.325.812.52,1.364.78,2.079.13.39.26.455.487.455a8.53,8.53,0,0,0,1.592-.162v-.065ZM346.438,71.7c.487-1.234.877-2.371,1.234-3.313.162.455.585,1.527,1.234,3.313ZM382.1,66.409c-.195.032-.292.1-.292.422v4c0,.715,0,1.267.065,2.371a29.024,29.024,0,0,0-1.527-2.533c-1.039-1.592-2.209-3.378-2.663-4.028a.556.556,0,0,0-.39-.26,15.925,15.925,0,0,0-1.754.13v.065l.26.357v5.944c0,1.2,0,2.014-.032,2.6a5.782,5.782,0,0,0,1.137-.065c.227-.032.325-.1.325-.39V71.281c0-.715,0-1.462-.065-2.923.585,1.1,1.007,1.916,1.754,3.118,1.137,1.754,1.851,2.858,2.6,3.9a.408.408,0,0,0,.357.195,5.579,5.579,0,0,0,1.364-.227v-6.3c0-1.2,0-2.014.032-2.631A6.978,6.978,0,0,0,382.1,66.409Zm-25.627,1.2h2.274c.292-.065.682-.422.747-1.2h-5.1a10.967,10.967,0,0,1-2.046-.065,2.6,2.6,0,0,0-.487.844c-.1.325,0,.422.227.422h2.566v7.568c0,.227.1.26.292.26a6.851,6.851,0,0,0,1.527-.13c0-.292-.032-.747-.032-1.754V67.611Zm-16.208,6.659a3.256,3.256,0,0,1-3.508-3.443,3.075,3.075,0,0,1,3.151-3.41,4.669,4.669,0,0,1,1.884.39c.455.065.78-.422.747-.909a4.274,4.274,0,0,0-2.631-.715c-2.826,0-5.067,1.819-5.067,4.775,0,2.728,1.754,4.58,5,4.58a4.212,4.212,0,0,0,2.079-.487,2.052,2.052,0,0,0,.487-1.137l-.032-.032A5.773,5.773,0,0,1,340.267,74.269Zm-65.254,1.007a12.7,12.7,0,0,1-1.494-2.241,9.155,9.155,0,0,0-1.267-1.851,2.567,2.567,0,0,0,1.721-2.274c0-1.819-1.137-2.6-3.41-2.6a23.025,23.025,0,0,0-2.469.227c.033.39.033.747.033,1.462v4.775c0,1.2,0,2.046-.033,2.631a11.762,11.762,0,0,0,1.462-.065c.227-.032.325-.1.325-.357V71.671h.26c.487,0,.747.13,1.2.942a14.933,14.933,0,0,0,1.234,2.176,1.424,1.424,0,0,0,1.267.65,4.059,4.059,0,0,0,1.169-.13ZM271.278,70.6a4.328,4.328,0,0,1-1.364.1V67.448a3.729,3.729,0,0,1,.617-.032,1.518,1.518,0,0,1,1.624,1.689A1.561,1.561,0,0,1,271.278,70.6Zm-7.535-2.988h2.274c.292-.065.682-.422.747-1.2h-5.1a10.967,10.967,0,0,1-2.046-.065,2.6,2.6,0,0,0-.487.844c-.1.325,0,.422.227.422h2.566v7.568c0,.227.1.26.292.26a6.851,6.851,0,0,0,1.527-.13c0-.292-.033-.747-.033-1.754V67.611Zm-5.489,5.229c0-1.364-.715-1.916-2.014-2.631-1.332-.747-1.786-1.1-1.786-1.786,0-.617.552-.974,1.3-.974a3.684,3.684,0,0,1,1.4.357c.487.032.715-.552.715-.909a3.417,3.417,0,0,0-2.046-.682h0c-2.371,0-3.053,1.559-3.053,2.533,0,.844.292,1.786,1.949,2.663,1.429.78,1.786,1.137,1.786,1.786,0,.715-.585,1.1-1.462,1.1a3.944,3.944,0,0,1-2.046-.682,1.675,1.675,0,0,0-.357.909c0,.195.1.325.325.487a3.719,3.719,0,0,0,2.079.552C256.727,75.568,258.254,74.626,258.254,72.84ZM306.78,51.955a2.235,2.235,0,0,0,1.267-1.916c0-.877-.422-2.241-3.086-2.241a15.073,15.073,0,0,0-2.631.26c.033.65.033,1.072.033,1.819V56.73a14.042,14.042,0,0,0,2.4.227c2.241,0,3.833-.974,3.833-2.891A2.224,2.224,0,0,0,306.78,51.955Zm-2.631-2.988a4.136,4.136,0,0,1,.715-.065,1.349,1.349,0,0,1,1.494,1.429,1.541,1.541,0,0,1-.682,1.4,10.1,10.1,0,0,0-1.527.065Zm.715,6.951a4.922,4.922,0,0,1-.747-.065V52.8a4.574,4.574,0,0,1,.65-.032c1.2,0,1.884.52,1.884,1.462A1.583,1.583,0,0,1,304.863,55.918Zm8.412,19.456a1.52,1.52,0,0,0,.747-1.137l-.032-.032c-.682.065-1.721.065-2.306.065a7.205,7.205,0,0,1-1.332-.1V71.378h2.176c.487,0,.812-.195.942-1.2h-3.118V67.611h1.494a4.3,4.3,0,0,0,1.332-.1,1.78,1.78,0,0,0,.422-1.1h-3.443a7.667,7.667,0,0,0-1.624.195c.032.585.032,1.1.032,1.786v6.594l.227.26a18.262,18.262,0,0,0,2.533.13A11.422,11.422,0,0,0,313.276,75.373Zm-10.913-3.735c.552,0,.909-.1,1.039-1.2h-3.216V67.611H302.1a2.75,2.75,0,0,0,1.1-.1,1.74,1.74,0,0,0,.487-1.1h-3.638a8.859,8.859,0,0,0-1.721.227c.032.487.032.877.032,1.527v7.016c0,.227.1.26.325.26a6.321,6.321,0,0,0,1.527-.13c-.032-1.072-.032-2.274-.032-3.7h2.176Zm-19.651-5.132a4.727,4.727,0,0,0-1.2-.13c-.26.487-1.656,2.793-2.274,3.735-.617-1.039-1.332-2.274-1.819-3.086-.357-.585-.455-.682-.715-.682a7.778,7.778,0,0,0-1.559.26v.032c.845,1.234,2.111,3.151,2.891,4.482a1.288,1.288,0,0,1,.13.65v3.378c0,.227.033.26.26.26a5.8,5.8,0,0,0,1.559-.13c0-.325-.032-.747-.032-1.721V71.606a1,1,0,0,1,.162-.585c.162-.227,2.274-3.378,2.631-3.963C282.939,66.766,282.971,66.6,282.711,66.506Z" transform="translate(-150.028 -32.2)"/>
  </g>
</svg>
