<svg xmlns="http://www.w3.org/2000/svg" viewBox="0 0 472.35 451.742">
  <defs>
    <style>
      .cls-1, .cls-11 {
        fill: #173d7a;
      }

      .cls-1, .cls-12 {
        opacity: 0.5;
      }

      .cls-2 {
        fill: #3f82c5;
      }

      .cls-3 {
        fill: #5793ce;
      }

      .cls-4 {
        fill: #80b6eb;
      }

      .cls-5 {
        fill: #fff;
      }

      .cls-6 {
        fill: #102b5d;
      }

      .cls-12, .cls-7 {
        fill: #d4ecff;
      }

      .cls-8 {
        fill: #1a3464;
      }

      .cls-9 {
        fill: #ff2c9c;
      }

      .cls-10 {
        fill: #396caa;
      }

      .cls-13 {
        fill: #983be9;
      }

      .cls-14 {
        fill: #3e71ce;
      }

      .cls-15 {
        fill: #ffc2b0;
      }

      .cls-16 {
        fill: #ea9c92;
      }

      .cls-17 {
        fill: #1046ab;
      }
    </style>
  </defs>
  <g id="Group_205" data-name="Group 205" transform="translate(0.075 -0.026)">
    <path id="Path_870" data-name="Path 870" class="cls-1" d="M251.345,370.285,91.317,277.956a5.347,5.347,0,0,1,0-9.282L243.424,180.8l170.3,98.27a5.347,5.347,0,0,1,0,9.282L271.767,370.285A20.112,20.112,0,0,1,251.345,370.285Z" transform="translate(21.08 42.961)"/>
    <g id="Group_169" data-name="Group 169" transform="translate(97.792 163.066)">
      <g id="Group_165" data-name="Group 165">
        <path id="Path_871" data-name="Path 871" class="cls-2" d="M249.03,143.2c0-10.149-7.178-14.357-15.966-9.282L83.432,220.178a9.47,9.47,0,0,0-4.332,7.55c0,2.847,1.98,3.961,4.332,2.475l149.632-86.264c3.96-2.228,7.178-.371,7.178,4.208v16.708c2.847-.124,5.817-.124,8.787-.124Z" transform="translate(-78.976 -131.759)"/>
        <path id="Path_872" data-name="Path 872" class="cls-2" d="M83.332,254.047l149.632-54.58c8.787-5.074,15.966-17.451,15.966-27.6V158.5c-2.97,0-5.817,0-8.787.124v18.317a16.1,16.1,0,0,1-7.178,12.5L83.332,244.022A9.47,9.47,0,0,0,79,251.571C79,254.294,80.98,255.532,83.332,254.047Z" transform="translate(-79 -125.404)"/>
      </g>
      <path id="Path_873" data-name="Path 873" class="cls-3" d="M79.9,238.847,261.959,344.171l54.762-32.655,15.382-9.172,84.067-50.13L428.3,234.02l-1.238,6.436L423.844,223.5,137.7,234.515l-50.5-3.342Z" transform="translate(-78.786 -109.957)"/>
      <path id="Path_874" data-name="Path 874" class="cls-4" d="M84.824,210.2,84.7,232.6,260.694,334.46l4.827-21.411Z" transform="translate(-77.645 -113.118)"/>
      <path id="Path_875" data-name="Path 875" class="cls-3" d="M426.048,237.877,244.236,132.8,80.371,228.1,80,230.327,262.059,335.651Z" transform="translate(-78.762 -131.512)"/>
      <g id="Group_166" data-name="Group 166" transform="translate(182.925 114.904)">
        <path id="Path_876" data-name="Path 876" class="cls-5" d="M333.238,270.146l42.7-25.372c3.589-2.475,6.436-7.673,6.436-11.881v-3.342c0-2.723-1.114-4.456-2.847-4.951l-84.16,46.783L226.8,308.389l.124,22.649Z" transform="translate(-226.8 -224.6)"/>
      </g>
      <path id="Path_877" data-name="Path 877" class="cls-2" d="M268.09,314.766,87.516,210.308l-3.837-2.228-3.465-1.98a8.463,8.463,0,0,0-1.114,4.084,3.281,3.281,0,0,0,1.238,2.847h0L262.4,318.355Z" transform="translate(-78.976 -114.092)"/>
      <path id="Path_878" data-name="Path 878" class="cls-5" d="M225.2,320.119l2.228,1.238.5-.743-1.485-1.114Z" transform="translate(-44.255 -87.142)"/>
      <path id="Path_879" data-name="Path 879" class="cls-5" d="M225.2,295.6l2.352,1.361-.619-1.238Z" transform="translate(-44.255 -92.822)"/>
      <g id="Group_167" data-name="Group 167" transform="translate(182.177 105.302)">
        <path id="Path_880" data-name="Path 880" class="cls-3" d="M230.533,305.282l149.632-86.264c8.787-5.074,15.966-.99,15.966,9.282v3.342c0,10.149-7.178,22.525-15.966,27.6L230.533,345.506c-2.475,1.361-4.332.248-4.332-2.475a9.608,9.608,0,0,1,4.332-7.55l149.632-86.264c3.961-2.228,7.178-7.921,7.178-12.5v-3.342c0-4.579-3.218-6.436-7.178-4.208L230.533,315.431c-2.475,1.361-4.332.248-4.332-2.475A9.375,9.375,0,0,1,230.533,305.282Z" transform="translate(-226.196 -216.841)"/>
      </g>
      <g id="Group_168" data-name="Group 168" transform="translate(179.707 103.997)">
        <path id="Path_881" data-name="Path 881" class="cls-5" d="M226.528,340.83a9.608,9.608,0,0,1,4.332-7.55l149.756-86.264c3.961-2.228,7.178-7.921,7.178-12.5v-3.342c0-2.97-1.361-4.827-3.465-5.074a6.3,6.3,0,0,1,1.114,3.713v3.342a16.1,16.1,0,0,1-7.178,12.5L228.632,331.919a9.47,9.47,0,0,0-4.332,7.55c0,2.1,1.114,3.218,2.723,3.094A2.841,2.841,0,0,1,226.528,340.83Z" transform="translate(-224.176 -213.336)"/>
        <path id="Path_882" data-name="Path 882" class="cls-5" d="M226.552,313.206a9.608,9.608,0,0,1,4.332-7.55l149.632-86.264c3.837-2.228,7.3-2.6,10.025-1.733-2.97-2.475-7.426-2.6-12.377.247L228.532,304.171a9.47,9.47,0,0,0-4.332,7.55c0,2.1,1.114,3.218,2.723,3.094A3.1,3.1,0,0,1,226.552,313.206Z" transform="translate(-224.2 -215.787)"/>
      </g>
    </g>
    <g id="Group_173" data-name="Group 173" transform="translate(119.689 20.787)">
      <path id="Path_883" data-name="Path 883" class="cls-6" d="M401.855,110.985l-161.39-93.2a6.21,6.21,0,0,0-5.446-.619h0l-.248.124h-.124l-5.817,2.228,5.2,2.6c0,.124,0,.248-.124.248L207.667,142.05c-1.361,5.941,1.361,13,5.941,15.594l157.553,90.967-.619,6.683,6.436-2.475c2.1-.99,3.837-3.218,4.579-6.436L407.92,126.7C409.157,120.639,406.434,113.584,401.855,110.985Z" transform="translate(-70.402 -16.801)"/>
      <path id="Path_884" data-name="Path 884" class="cls-6" d="M400.077,110.985l-161.39-93.2a6.21,6.21,0,0,0-5.446-.619h0l-.248.124h-.124l-5.817,2.228,5.2,2.6c0,.124,0,.248-.124.248L214.8,101.332l78.962,61.511,111.389-45.3A11.105,11.105,0,0,0,400.077,110.985Z" transform="translate(-68.623 -16.801)"/>
      <path id="Path_885" data-name="Path 885" class="cls-6" d="M361.929,111.151l12.253-5.2c.248-4.7-1.733-9.654-4.951-12.253L349.8,101.869Z" transform="translate(-36.54 1.475)"/>
      <path id="Path_886" data-name="Path 886" class="cls-7" d="M366.913,254.224,205.4,161.029c-4.579-2.6-7.178-9.654-5.941-15.594L225.821,25.754c1.361-5.941,6.064-8.664,10.644-6.064l161.514,93.2c4.579,2.6,7.178,9.654,5.941,15.594L377.557,248.16C376.2,254.1,371.493,256.823,366.913,254.224Z" transform="translate(-72.342 -16.348)"/>
      <path id="Path_887" data-name="Path 887" class="cls-5" d="M393.2,112.4,231.812,19.085a6.414,6.414,0,0,0-6.312-.248,6.312,6.312,0,0,1,4.827.866L391.84,112.9c4.579,2.6,7.178,9.654,5.941,15.594L371.419,248.174c-.619,3.094-2.228,5.322-4.332,6.312,2.723-.619,4.951-3.094,5.817-6.931l26.362-119.681C400.38,121.934,397.781,115,393.2,112.4Z" transform="translate(-66.08 -16.486)"/>
      <path id="Path_888" data-name="Path 888" class="cls-5" d="M362.059,243.655,210.2,156.029c-4.208-2.352-6.56-8.787-5.446-14.357L228.763,32.14c1.238-5.446,5.569-7.921,9.777-5.569L390.4,114.2c4.208,2.475,6.56,8.787,5.446,14.357l-24.01,109.532C370.6,243.531,366.267,246.006,362.059,243.655Z" transform="translate(-71.076 -14.69)"/>
      <path id="Path_889" data-name="Path 889" class="cls-8" d="M362.059,243.655,210.2,156.029c-4.208-2.352-6.56-8.787-5.446-14.357L228.763,32.14c1.238-5.446,5.569-7.921,9.777-5.569L390.4,114.2c4.208,2.475,6.56,8.787,5.446,14.357l-24.01,109.532C370.6,243.531,366.267,246.006,362.059,243.655Z" transform="translate(-71.076 -14.69)"/>
      <path id="Path_890" data-name="Path 890" class="cls-6" d="M363.428,243.132l-151.86-87.626c-4.208-2.352-6.56-8.787-5.446-14.357l24.01-109.532c.619-2.723,1.98-4.827,3.837-5.817-2.352.619-4.456,2.847-5.2,6.312l-24.01,109.532C203.524,147.09,206,153.526,210.207,156l151.86,87.626a5.73,5.73,0,0,0,5.941.248A6.262,6.262,0,0,1,363.428,243.132Z" transform="translate(-71.085 -14.662)"/>
      <path id="Path_891" data-name="Path 891" class="cls-6" d="M393.467,229.016l-22.03-2.97-142.454-82.3c-4.579-2.6-12.5-2.352-17.822.743L110.169,202.778,96.8,201.045v7.55h0c-.124,1.733.866,3.465,3.094,4.7l161.514,93.2c4.579,2.6,12.5,2.352,17.822-.743l109.9-63.492c2.97-1.733,4.456-3.96,4.332-5.941h0Z" transform="translate(-96.668 12.944)"/>
      <path id="Path_892" data-name="Path 892" class="cls-6" d="M286.41,171.417,276.262,165.6H165l-54.828,31.684L96.8,195.551v7.55h0c-.124,1.733.866,3.465,3.094,4.7L261.41,301a16.92,16.92,0,0,0,9.159,1.733Z" transform="translate(-96.668 18.562)"/>
      <path id="Path_893" data-name="Path 893" class="cls-6" d="M102.643,190.443,96.7,189.7v7.55h0c-.124,1.733.866,3.465,3.094,4.7l2.847,1.609Z" transform="translate(-96.692 24.289)"/>
      <path id="Path_894" data-name="Path 894" class="cls-6" d="M231,278.922a20.724,20.724,0,0,0,15.1-.99V261.1H231Z" transform="translate(-64.773 41.258)"/>
      <path id="Path_895" data-name="Path 895" class="cls-7" d="M261.305,301.344l-161.514-93.2c-4.579-2.6-3.96-7.3,1.238-10.273l109.9-63.492c5.322-3.094,13.243-3.342,17.822-.743l161.637,93.2c4.579,2.6,3.961,7.3-1.238,10.273L279.251,300.6C273.806,303.7,265.884,303.943,261.305,301.344Z" transform="translate(-96.687 10.544)"/>
      <path id="Path_896" data-name="Path 896" class="cls-5" d="M389.032,220.855l-109.9,63.492c-5.322,3.094-13.243,3.342-17.822.743l-161.514-93.2a6.1,6.1,0,0,1-2.847-3.094c-.743,2.1.248,4.332,2.847,5.817l161.514,93.2c4.579,2.6,12.5,2.352,17.822-.743l109.9-63.492c3.589-2.1,4.951-4.827,4.084-7.178C392.745,218.009,391.26,219.618,389.032,220.855Z" transform="translate(-96.688 24.075)"/>
      <g id="Group_170" data-name="Group 170" transform="translate(64.085 148.17)">
        <path id="Path_897" data-name="Path 897" class="cls-3" d="M156.18,170.587l-7.3-4.208c-.619-.371-.5-.99.124-1.361l8.664-4.951a2.391,2.391,0,0,1,2.228-.124l7.3,4.208c.619.371.5.99-.124,1.361l-8.664,4.951A2.08,2.08,0,0,1,156.18,170.587Z" transform="translate(-148.471 -131.005)"/>
        <path id="Path_898" data-name="Path 898" class="cls-3" d="M165.28,175.887l-7.3-4.208c-.619-.371-.5-.99.124-1.361l8.664-4.951a2.391,2.391,0,0,1,2.228-.124l7.3,4.208c.619.371.5.99-.124,1.361l-8.664,4.951A2.08,2.08,0,0,1,165.28,175.887Z" transform="translate(-146.309 -129.746)"/>
        <path id="Path_899" data-name="Path 899" class="cls-3" d="M174.48,181.187l-7.3-4.208c-.619-.371-.5-.99.124-1.361l8.664-4.951a2.391,2.391,0,0,1,2.228-.124l7.3,4.208c.619.371.5.99-.124,1.361l-8.664,4.951A2.823,2.823,0,0,1,174.48,181.187Z" transform="translate(-144.122 -128.486)"/>
        <path id="Path_900" data-name="Path 900" class="cls-3" d="M187.08,176.644l-7.3-4.208c-.619-.371-.5-.99.124-1.361l7.178-4.208a2.391,2.391,0,0,1,2.228-.124l7.3,4.208c.619.371.5.99-.124,1.361l-7.178,4.208A2.089,2.089,0,0,1,187.08,176.644Z" transform="translate(-141.128 -129.389)"/>
        <path id="Path_901" data-name="Path 901" class="cls-3" d="M196.18,181.944l-7.3-4.208c-.619-.371-.5-.99.124-1.361l7.178-4.208a2.391,2.391,0,0,1,2.228-.124l7.3,4.208c.619.371.5.99-.124,1.361l-7.178,4.208A2.377,2.377,0,0,1,196.18,181.944Z" transform="translate(-138.965 -128.13)"/>
        <path id="Path_902" data-name="Path 902" class="cls-3" d="M205.28,187.244l-7.3-4.208c-.619-.371-.5-.99.124-1.361l7.178-4.208a2.391,2.391,0,0,1,2.228-.124l7.3,4.208c.619.371.5.99-.124,1.361l-7.178,4.208A2.8,2.8,0,0,1,205.28,187.244Z" transform="translate(-136.803 -126.87)"/>
        <path id="Path_903" data-name="Path 903" class="cls-3" d="M214.38,192.444l-7.3-4.208c-.619-.371-.5-.99.124-1.361l7.178-4.208a2.391,2.391,0,0,1,2.228-.124l7.3,4.208c.619.371.5.99-.124,1.361l-7.178,4.208A2.08,2.08,0,0,1,214.38,192.444Z" transform="translate(-134.64 -125.634)"/>
        <path id="Path_904" data-name="Path 904" class="cls-3" d="M223.48,197.744l-7.3-4.208c-.619-.371-.5-.99.124-1.361l7.178-4.208a2.391,2.391,0,0,1,2.228-.124l7.3,4.208c.619.371.5.99-.124,1.361l-7.178,4.208A2.377,2.377,0,0,1,223.48,197.744Z" transform="translate(-132.477 -124.375)"/>
        <path id="Path_905" data-name="Path 905" class="cls-3" d="M232.68,202.944l-7.3-4.208c-.619-.371-.5-.99.124-1.361l7.178-4.208a2.391,2.391,0,0,1,2.228-.124l7.3,4.208c.619.371.5.99-.124,1.361l-7.178,4.332A2.363,2.363,0,0,1,232.68,202.944Z" transform="translate(-130.291 -123.139)"/>
        <path id="Path_906" data-name="Path 906" class="cls-3" d="M241.78,208.244l-7.3-4.208c-.619-.371-.5-.99.124-1.361l7.178-4.208a2.391,2.391,0,0,1,2.228-.124l7.3,4.208c.619.371.5.99-.124,1.361l-7.178,4.208A2.391,2.391,0,0,1,241.78,208.244Z" transform="translate(-128.128 -121.879)"/>
        <path id="Path_907" data-name="Path 907" class="cls-3" d="M250.88,213.544l-7.3-4.208c-.619-.371-.5-.99.124-1.361l7.178-4.208a2.391,2.391,0,0,1,2.228-.124l7.3,4.208c.619.371.5.99-.124,1.361l-7.178,4.208A2.8,2.8,0,0,1,250.88,213.544Z" transform="translate(-125.966 -120.62)"/>
        <path id="Path_908" data-name="Path 908" class="cls-3" d="M259.98,218.744l-7.3-4.208c-.619-.371-.5-.99.124-1.361l7.178-4.208a2.39,2.39,0,0,1,2.228-.124l7.3,4.208c.619.371.5.99-.124,1.361l-7.178,4.208A2.08,2.08,0,0,1,259.98,218.744Z" transform="translate(-123.803 -119.384)"/>
        <path id="Path_909" data-name="Path 909" class="cls-3" d="M269.08,224.044l-7.3-4.208c-.619-.371-.5-.99.124-1.361l7.178-4.208a2.391,2.391,0,0,1,2.228-.124l7.3,4.208c.619.371.5.99-.124,1.361l-7.178,4.208A2.377,2.377,0,0,1,269.08,224.044Z" transform="translate(-121.64 -118.125)"/>
        <path id="Path_910" data-name="Path 910" class="cls-3" d="M200.48,174.144l-7.3-4.208c-.619-.371-.5-.99.124-1.361l7.178-4.208a2.391,2.391,0,0,1,2.228-.124l7.3,4.208c.619.371.5.99-.124,1.361l-7.178,4.208A2.08,2.08,0,0,1,200.48,174.144Z" transform="translate(-137.943 -129.983)"/>
        <path id="Path_911" data-name="Path 911" class="cls-3" d="M191.18,168.844l-7.3-4.208c-.619-.371-.5-.99.124-1.361l7.178-4.208a2.391,2.391,0,0,1,2.228-.124l7.3,4.208c.619.371.5.99-.124,1.361l-7.178,4.208A2.356,2.356,0,0,1,191.18,168.844Z" transform="translate(-140.153 -131.243)"/>
        <path id="Path_912" data-name="Path 912" class="cls-3" d="M183.6,164.371l-15.718-9.035c-.619-.371-.5-.99.124-1.361l7.178-4.208a2.391,2.391,0,0,1,2.228-.124l15.718,9.035c.619.371.5.99-.124,1.361l-7.178,4.208A2.08,2.08,0,0,1,183.6,164.371Z" transform="translate(-143.956 -133.453)"/>
        <path id="Path_913" data-name="Path 913" class="cls-3" d="M189.526,157.562l-12.748-7.426c-.619-.371-.5-.99.124-1.361l7.178-4.208a2.391,2.391,0,0,1,2.228-.124l12.748,7.426c.619.371.5.99-.124,1.361l-7.178,4.208A2.089,2.089,0,0,1,189.526,157.562Z" transform="translate(-141.841 -134.689)"/>
        <path id="Path_914" data-name="Path 914" class="cls-3" d="M209.58,179.444l-7.3-4.208c-.619-.371-.5-.99.124-1.361l7.178-4.208a2.391,2.391,0,0,1,2.228-.124l7.3,4.208c.619.371.5.99-.124,1.361l-7.178,4.208A2.377,2.377,0,0,1,209.58,179.444Z" transform="translate(-135.781 -128.724)"/>
        <path id="Path_915" data-name="Path 915" class="cls-3" d="M218.68,184.744l-7.3-4.208c-.619-.371-.5-.99.124-1.361l7.178-4.208a2.391,2.391,0,0,1,2.228-.124l7.3,4.208c.619.371.5.99-.124,1.361l-7.178,4.208A2.8,2.8,0,0,1,218.68,184.744Z" transform="translate(-133.618 -127.464)"/>
        <path id="Path_916" data-name="Path 916" class="cls-3" d="M227.88,189.944l-7.3-4.208c-.619-.371-.5-.99.124-1.361l7.178-4.208a2.391,2.391,0,0,1,2.228-.124l7.3,4.208c.619.371.5.99-.124,1.361l-7.178,4.208A2.089,2.089,0,0,1,227.88,189.944Z" transform="translate(-131.432 -126.229)"/>
        <path id="Path_917" data-name="Path 917" class="cls-3" d="M236.98,195.244l-7.3-4.208c-.619-.371-.5-.99.124-1.361l7.178-4.208a2.391,2.391,0,0,1,2.228-.124l7.3,4.208c.619.371.5.99-.124,1.361l-7.178,4.208A2.391,2.391,0,0,1,236.98,195.244Z" transform="translate(-129.269 -124.969)"/>
        <path id="Path_918" data-name="Path 918" class="cls-3" d="M246.08,200.544l-7.3-4.208c-.619-.371-.5-.99.124-1.361l7.178-4.208a2.391,2.391,0,0,1,2.228-.124l7.3,4.208c.619.371.495.99-.124,1.361l-7.178,4.208A2.8,2.8,0,0,1,246.08,200.544Z" transform="translate(-127.106 -123.709)"/>
        <path id="Path_919" data-name="Path 919" class="cls-3" d="M255.18,205.744l-7.3-4.208c-.619-.371-.5-.99.124-1.361l7.178-4.208a2.391,2.391,0,0,1,2.228-.124l7.3,4.208c.619.371.495.99-.124,1.361l-7.178,4.208A2.08,2.08,0,0,1,255.18,205.744Z" transform="translate(-124.944 -122.474)"/>
        <path id="Path_920" data-name="Path 920" class="cls-3" d="M264.28,211.044l-7.3-4.208c-.619-.371-.5-.99.124-1.361l7.178-4.208a2.391,2.391,0,0,1,2.228-.124l7.3,4.208c.619.371.5.99-.124,1.361l-7.178,4.208A2.377,2.377,0,0,1,264.28,211.044Z" transform="translate(-122.781 -121.214)"/>
        <path id="Path_921" data-name="Path 921" class="cls-3" d="M273.38,216.244l-7.3-4.208c-.619-.371-.5-.99.124-1.361l7.178-4.208a2.391,2.391,0,0,1,2.228-.124l7.3,4.208c.619.371.5.99-.124,1.361l-7.178,4.208A2.08,2.08,0,0,1,273.38,216.244Z" transform="translate(-120.618 -119.978)"/>
        <path id="Path_922" data-name="Path 922" class="cls-3" d="M282.58,221.544l-7.3-4.208c-.619-.371-.5-.99.124-1.361l7.178-4.208a2.391,2.391,0,0,1,2.228-.124l7.3,4.208c.619.371.5.99-.124,1.361l-7.178,4.208A2.391,2.391,0,0,1,282.58,221.544Z" transform="translate(-118.432 -118.719)"/>
        <path id="Path_923" data-name="Path 923" class="cls-3" d="M300.444,231.895l-15.966-9.159c-.619-.371-.5-.99.124-1.361l7.178-4.208a2.391,2.391,0,0,1,2.228-.124l15.966,9.159c.619.371.5.99-.124,1.361l-7.178,4.208A2.823,2.823,0,0,1,300.444,231.895Z" transform="translate(-116.246 -117.435)"/>
        <path id="Path_924" data-name="Path 924" class="cls-3" d="M317.669,221.333l-13.49-7.8c-.619-.371-.5-.99.124-1.361l7.178-4.208a2.391,2.391,0,0,1,2.228-.124l13.49,7.8c.619.371.5.99-.124,1.361L319.9,221.21A2.08,2.08,0,0,1,317.669,221.333Z" transform="translate(-111.564 -119.622)"/>
        <path id="Path_925" data-name="Path 925" class="cls-3" d="M225.58,178.444l-7.3-4.208c-.619-.371-.5-.99.124-1.361l7.178-4.208a2.391,2.391,0,0,1,2.228-.124l7.3,4.208c.619.371.5.99-.124,1.361l-7.178,4.208A2.8,2.8,0,0,1,225.58,178.444Z" transform="translate(-131.978 -128.962)"/>
        <path id="Path_926" data-name="Path 926" class="cls-3" d="M216.18,173.044l-7.3-4.208c-.619-.371-.5-.99.124-1.361l7.178-4.208a2.391,2.391,0,0,1,2.228-.124l7.3,4.208c.619.371.5.99-.124,1.361l-7.178,4.208A2.377,2.377,0,0,1,216.18,173.044Z" transform="translate(-134.212 -130.245)"/>
        <path id="Path_927" data-name="Path 927" class="cls-3" d="M206.88,167.644l-7.3-4.208c-.619-.371-.5-.99.124-1.361l7.178-4.208a2.391,2.391,0,0,1,2.228-.124l7.3,4.208c.619.371.5.99-.124,1.361l-7.178,4.208A2.377,2.377,0,0,1,206.88,167.644Z" transform="translate(-136.422 -131.528)"/>
        <path id="Path_928" data-name="Path 928" class="cls-3" d="M197.58,162.244l-7.3-4.208c-.619-.371-.5-.99.124-1.361l7.178-4.208a2.391,2.391,0,0,1,2.228-.124l7.3,4.208c.619.371.5.99-.124,1.361l-7.178,4.208A2.391,2.391,0,0,1,197.58,162.244Z" transform="translate(-138.632 -132.811)"/>
        <path id="Path_929" data-name="Path 929" class="cls-3" d="M234.68,183.644l-7.3-4.208c-.619-.371-.5-.99.124-1.361l7.178-4.208a2.391,2.391,0,0,1,2.228-.124l7.3,4.208c.619.371.5.99-.124,1.361l-7.178,4.208A2.08,2.08,0,0,1,234.68,183.644Z" transform="translate(-129.816 -127.726)"/>
        <path id="Path_930" data-name="Path 930" class="cls-3" d="M243.78,188.944l-7.3-4.208c-.619-.371-.5-.99.124-1.361l7.178-4.208a2.391,2.391,0,0,1,2.228-.124l7.3,4.208c.619.371.5.99-.124,1.361l-7.178,4.208A2.377,2.377,0,0,1,243.78,188.944Z" transform="translate(-127.653 -126.466)"/>
        <path id="Path_931" data-name="Path 931" class="cls-3" d="M252.88,194.244l-7.3-4.208c-.619-.371-.5-.99.124-1.361l7.178-4.208a2.391,2.391,0,0,1,2.228-.124l7.3,4.208c.619.371.5.99-.124,1.361l-7.178,4.208A2.8,2.8,0,0,1,252.88,194.244Z" transform="translate(-125.49 -125.207)"/>
        <path id="Path_932" data-name="Path 932" class="cls-3" d="M261.98,199.444l-7.3-4.208c-.619-.371-.5-.99.124-1.361l7.178-4.208a2.39,2.39,0,0,1,2.228-.124l7.3,4.208c.619.371.5.99-.124,1.361l-7.178,4.208A2.066,2.066,0,0,1,261.98,199.444Z" transform="translate(-123.328 -123.971)"/>
        <path id="Path_933" data-name="Path 933" class="cls-3" d="M271.18,204.744l-7.3-4.208c-.619-.371-.5-.99.124-1.361l7.178-4.208a2.391,2.391,0,0,1,2.228-.124l7.3,4.208c.619.371.5.99-.124,1.361l-7.178,4.208A2.391,2.391,0,0,1,271.18,204.744Z" transform="translate(-121.141 -122.711)"/>
        <path id="Path_934" data-name="Path 934" class="cls-3" d="M280.28,210.044l-7.3-4.208c-.619-.371-.5-.99.124-1.361l7.178-4.208a2.391,2.391,0,0,1,2.228-.124l7.3,4.208c.619.371.5.99-.124,1.361l-7.178,4.208A2.8,2.8,0,0,1,280.28,210.044Z" transform="translate(-118.979 -121.452)"/>
        <path id="Path_935" data-name="Path 935" class="cls-3" d="M289.38,215.244l-7.3-4.208c-.619-.371-.5-.99.124-1.361l7.178-4.208a2.391,2.391,0,0,1,2.228-.124l7.3,4.208c.619.371.5.99-.124,1.361l-7.178,4.208A2.08,2.08,0,0,1,289.38,215.244Z" transform="translate(-116.816 -120.216)"/>
        <path id="Path_936" data-name="Path 936" class="cls-3" d="M298.48,220.544l-7.3-4.208c-.619-.371-.5-.99.124-1.361l7.178-4.208a2.39,2.39,0,0,1,2.228-.124l7.3,4.208c.619.371.5.99-.124,1.361l-7.178,4.208A2.377,2.377,0,0,1,298.48,220.544Z" transform="translate(-114.653 -118.956)"/>
        <path id="Path_937" data-name="Path 937" class="cls-3" d="M307.58,225.744l-7.3-4.208c-.619-.371-.5-.99.124-1.361l7.178-4.208a2.391,2.391,0,0,1,2.228-.124l7.3,4.208c.619.371.5.99-.124,1.361l-7.178,4.208A2.08,2.08,0,0,1,307.58,225.744Z" transform="translate(-112.491 -117.721)"/>
        <path id="Path_938" data-name="Path 938" class="cls-3" d="M220.78,165.444l-7.3-4.208c-.619-.371-.5-.99.124-1.361l7.178-4.208a2.391,2.391,0,0,1,2.228-.124l7.3,4.208c.619.371.5.99-.124,1.361l-7.178,4.208A2.8,2.8,0,0,1,220.78,165.444Z" transform="translate(-133.119 -132.051)"/>
        <path id="Path_939" data-name="Path 939" class="cls-3" d="M211.68,160.144l-7.3-4.208c-.619-.371-.5-.99.124-1.361l7.178-4.208a2.391,2.391,0,0,1,2.228-.124l7.3,4.208c.619.371.5.99-.124,1.361l-7.178,4.208A2.08,2.08,0,0,1,211.68,160.144Z" transform="translate(-135.282 -133.311)"/>
        <path id="Path_940" data-name="Path 940" class="cls-3" d="M202.58,154.944l-7.3-4.208c-.619-.371-.5-.99.124-1.361l7.178-4.208a2.391,2.391,0,0,1,2.228-.124l7.3,4.208c.619.371.5.99-.124,1.361l-7.178,4.208A2.377,2.377,0,0,1,202.58,154.944Z" transform="translate(-137.444 -134.546)"/>
        <path id="Path_941" data-name="Path 941" class="cls-3" d="M193.58,149.644l-7.3-4.208c-.619-.371-.5-.99.124-1.361l7.178-4.208a2.391,2.391,0,0,1,2.228-.124l7.3,4.208c.619.371.5.99-.124,1.361l-7.178,4.208A2.089,2.089,0,0,1,193.58,149.644Z" transform="translate(-139.583 -135.806)"/>
        <path id="Path_942" data-name="Path 942" class="cls-3" d="M202.88,143.8l-7.3-4.208c-.619-.371-.5-.99.124-1.361l2.352-1.361a2.391,2.391,0,0,1,2.228-.124l7.3,4.208c.619.371.5.99-.124,1.361l-2.352,1.361A2.8,2.8,0,0,1,202.88,143.8Z" transform="translate(-137.373 -136.519)"/>
        <path id="Path_943" data-name="Path 943" class="cls-3" d="M214.68,150.6l-7.3-4.208c-.619-.371-.5-.99.124-1.361l2.352-1.361a2.391,2.391,0,0,1,2.228-.124l7.3,4.208c.619.371.5.99-.124,1.361l-2.352,1.361A2.377,2.377,0,0,1,214.68,150.6Z" transform="translate(-134.569 -134.903)"/>
        <path id="Path_944" data-name="Path 944" class="cls-3" d="M223.78,155.8l-7.3-4.208c-.619-.371-.5-.99.124-1.361l2.352-1.361a2.391,2.391,0,0,1,2.228-.124l7.3,4.208c.619.371.5.99-.124,1.361l-2.352,1.361A2.391,2.391,0,0,1,223.78,155.8Z" transform="translate(-132.406 -133.667)"/>
        <path id="Path_945" data-name="Path 945" class="cls-3" d="M232.78,161l-7.3-4.208c-.619-.371-.5-.99.124-1.361l2.352-1.361a2.391,2.391,0,0,1,2.228-.124l7.3,4.208c.619.371.5.99-.124,1.361l-2.352,1.361A2.08,2.08,0,0,1,232.78,161Z" transform="translate(-130.267 -132.431)"/>
        <path id="Path_946" data-name="Path 946" class="cls-3" d="M241.78,166.2l-7.3-4.208c-.619-.371-.5-.99.124-1.361l2.352-1.361a2.391,2.391,0,0,1,2.228-.124l7.3,4.208c.619.371.5.99-.124,1.361l-2.352,1.361A2.08,2.08,0,0,1,241.78,166.2Z" transform="translate(-128.128 -131.195)"/>
        <path id="Path_947" data-name="Path 947" class="cls-3" d="M292.28,195.4l-7.3-4.208c-.619-.371-.5-.99.124-1.361l2.352-1.361a2.391,2.391,0,0,1,2.228-.124l7.3,4.208c.619.371.5.99-.124,1.361l-2.352,1.361A2.823,2.823,0,0,1,292.28,195.4Z" transform="translate(-116.127 -124.256)"/>
        <path id="Path_948" data-name="Path 948" class="cls-3" d="M301.28,200.6l-7.3-4.208c-.619-.371-.5-.99.124-1.361l2.352-1.361a2.391,2.391,0,0,1,2.228-.124l7.3,4.208c.619.371.5.99-.124,1.361l-2.352,1.361A2.8,2.8,0,0,1,301.28,200.6Z" transform="translate(-113.988 -123.02)"/>
        <path id="Path_949" data-name="Path 949" class="cls-3" d="M310.28,205.8l-7.3-4.208c-.619-.371-.5-.99.124-1.361l2.352-1.361a2.391,2.391,0,0,1,2.228-.124l7.3,4.208c.619.371.5.99-.124,1.361l-2.352,1.361A2.377,2.377,0,0,1,310.28,205.8Z" transform="translate(-111.849 -121.784)"/>
        <path id="Path_950" data-name="Path 950" class="cls-3" d="M319.38,211l-7.3-4.208c-.619-.371-.495-.99.124-1.361l2.352-1.361a2.391,2.391,0,0,1,2.228-.124l7.3,4.208c.619.371.5.99-.124,1.361l-2.352,1.361A2.391,2.391,0,0,1,319.38,211Z" transform="translate(-109.686 -120.549)"/>
        <path id="Path_951" data-name="Path 951" class="cls-3" d="M229.88,170.644l-7.3-4.208c-.619-.371-.5-.99.124-1.361l7.178-4.208a2.391,2.391,0,0,1,2.228-.124l7.3,4.208c.619.371.5.99-.124,1.361l-7.178,4.208A2.08,2.08,0,0,1,229.88,170.644Z" transform="translate(-130.956 -130.815)"/>
        <path id="Path_952" data-name="Path 952" class="cls-3" d="M238.98,175.944l-7.3-4.208c-.619-.371-.5-.99.124-1.361l7.178-4.208a2.391,2.391,0,0,1,2.228-.124l7.3,4.208c.619.371.5.99-.124,1.361l-7.178,4.208A2.377,2.377,0,0,1,238.98,175.944Z" transform="translate(-128.794 -129.556)"/>
        <path id="Path_953" data-name="Path 953" class="cls-3" d="M248.08,181.144l-7.3-4.208c-.619-.371-.5-.99.124-1.361l7.178-4.208a2.391,2.391,0,0,1,2.228-.124l7.3,4.208c.619.371.5.99-.124,1.361l-7.178,4.208A2.08,2.08,0,0,1,248.08,181.144Z" transform="translate(-126.631 -128.32)"/>
        <path id="Path_954" data-name="Path 954" class="cls-3" d="M257.18,186.444l-7.3-4.208c-.619-.371-.5-.99.124-1.361l7.178-4.208a2.391,2.391,0,0,1,2.228-.124l7.3,4.208c.619.371.5.99-.124,1.361l-7.178,4.208A2.356,2.356,0,0,1,257.18,186.444Z" transform="translate(-124.468 -127.06)"/>
        <path id="Path_955" data-name="Path 955" class="cls-3" d="M266.38,191.744l-7.3-4.208c-.619-.371-.5-.99.124-1.361l7.178-4.208a2.391,2.391,0,0,1,2.228-.124l7.3,4.208c.619.371.5.99-.124,1.361l-7.178,4.208A2.823,2.823,0,0,1,266.38,191.744Z" transform="translate(-122.282 -125.801)"/>
        <path id="Path_956" data-name="Path 956" class="cls-3" d="M275.48,196.944l-7.3-4.208c-.619-.371-.5-.99.124-1.361l7.178-4.208a2.391,2.391,0,0,1,2.228-.124l7.3,4.208c.619.371.5.99-.124,1.361l-7.178,4.208A2.08,2.08,0,0,1,275.48,196.944Z" transform="translate(-120.119 -124.565)"/>
        <path id="Path_957" data-name="Path 957" class="cls-3" d="M284.58,202.244l-7.3-4.208c-.619-.371-.5-.99.124-1.361l7.178-4.208a2.391,2.391,0,0,1,2.228-.124l7.3,4.208c.619.371.5.99-.124,1.361l-7.178,4.208A2.377,2.377,0,0,1,284.58,202.244Z" transform="translate(-117.957 -123.305)"/>
        <path id="Path_958" data-name="Path 958" class="cls-3" d="M293.68,207.544l-7.3-4.208c-.619-.371-.5-.99.124-1.361l7.178-4.208a2.391,2.391,0,0,1,2.228-.124l7.3,4.208c.619.371.5.99-.124,1.361l-7.178,4.208A2.8,2.8,0,0,1,293.68,207.544Z" transform="translate(-115.794 -122.046)"/>
        <path id="Path_959" data-name="Path 959" class="cls-3" d="M302.78,212.744l-7.3-4.208c-.619-.371-.5-.99.124-1.361l7.178-4.208a2.391,2.391,0,0,1,2.228-.124l7.3,4.208c.619.371.5.99-.124,1.361l-7.178,4.208A2.08,2.08,0,0,1,302.78,212.744Z" transform="translate(-113.631 -120.81)"/>
        <path id="Path_960" data-name="Path 960" class="cls-3" d="M180.513,172.913l-21.535-12.377c-.619-.371-.5-.99.124-1.361l7.178-4.208a2.391,2.391,0,0,1,2.228-.124l21.535,12.377c.619.371.5.99-.124,1.361l-7.178,4.208A2.8,2.8,0,0,1,180.513,172.913Z" transform="translate(-146.071 -132.217)"/>
        <path id="Path_961" data-name="Path 961" class="cls-3" d="M292.513,237.513l-21.535-12.377c-.619-.371-.5-.99.124-1.361l7.178-4.208a2.39,2.39,0,0,1,2.228-.124l21.535,12.377c.619.371.5.99-.124,1.361l-7.178,4.208A2.08,2.08,0,0,1,292.513,237.513Z" transform="translate(-119.454 -116.865)"/>
        <path id="Path_962" data-name="Path 962" class="cls-3" d="M253.28,226.687l-7.3-4.208c-.619-.371-.5-.99.124-1.361l8.664-4.951a2.391,2.391,0,0,1,2.228-.124l7.3,4.208c.619.371.5.99-.124,1.361l-8.664,4.951A2.377,2.377,0,0,1,253.28,226.687Z" transform="translate(-125.395 -117.673)"/>
        <path id="Path_963" data-name="Path 963" class="cls-3" d="M187.912,188.986l-11.634-6.807c-.619-.371-.5-.99.124-1.361l8.664-4.951a2.391,2.391,0,0,1,2.228-.124l11.634,6.807c.619.371.5.99-.124,1.361l-8.664,4.951A2.377,2.377,0,0,1,187.912,188.986Z" transform="translate(-141.96 -127.25)"/>
        <path id="Path_964" data-name="Path 964" class="cls-3" d="M245.312,222.086l-11.634-6.807c-.619-.371-.5-.99.124-1.361l8.664-4.951a2.391,2.391,0,0,1,2.228-.124l11.634,6.807c.619.371.5.99-.124,1.361l-8.664,4.951A2.08,2.08,0,0,1,245.312,222.086Z" transform="translate(-128.318 -119.384)"/>
        <path id="Path_965" data-name="Path 965" class="cls-3" d="M201.112,196.586l-11.634-6.807c-.619-.371-.5-.99.124-1.361l8.664-4.951a2.391,2.391,0,0,1,2.228-.124l11.634,6.807c.619.371.5.99-.124,1.361l-8.664,4.951A2.824,2.824,0,0,1,201.112,196.586Z" transform="translate(-138.823 -125.444)"/>
        <path id="Path_966" data-name="Path 966" class="cls-3" d="M200.415,183.4l50.744,29.332a.731.731,0,0,1,0,1.361l-8.787,5.074a2.367,2.367,0,0,1-2.228,0L189.4,189.836Z" transform="translate(-138.744 -125.377)"/>
        <path id="Path_967" data-name="Path 967" class="cls-3" d="M278.43,234.126l8.168,4.7c.5.248.371.743-.124,1.114l-3.589,1.98a1.984,1.984,0,0,1-1.856.124l-8.169-4.7c-.5-.248-.371-.743.124-1.114l3.589-1.98A2.428,2.428,0,0,1,278.43,234.126Z" transform="translate(-118.985 -113.354)"/>
        <path id="Path_968" data-name="Path 968" class="cls-3" d="M269.23,228.833l8.169,4.7c.5.248.371.743-.124,1.114l-3.589,1.98a1.984,1.984,0,0,1-1.856.124l-8.169-4.7c-.5-.248-.371-.743.124-1.114l3.589-1.98A1.984,1.984,0,0,1,269.23,228.833Z" transform="translate(-121.171 -114.621)"/>
        <path id="Path_969" data-name="Path 969" class="cls-3" d="M260.13,223.633l8.169,4.7c.5.248.371.743-.124,1.114l-3.589,1.98a1.984,1.984,0,0,1-1.856.124l-8.169-4.7c-.5-.248-.371-.743.124-1.114l3.589-1.98A1.984,1.984,0,0,1,260.13,223.633Z" transform="translate(-123.334 -115.857)"/>
        <path id="Path_970" data-name="Path 970" class="cls-3" d="M274.23,225.933l8.169,4.7c.5.248.371.743-.124,1.114l-3.589,1.98a1.984,1.984,0,0,1-1.857.124l-8.168-4.7c-.5-.248-.371-.743.124-1.114l3.589-1.98A2.01,2.01,0,0,1,274.23,225.933Z" transform="translate(-119.983 -115.31)"/>
      </g>
      <g id="Group_171" data-name="Group 171" transform="translate(171.425 47.649)">
        <path id="Path_971" data-name="Path 971" class="cls-7" d="M320.893,130.686,260,95.66l.866-3.96,60.769,35.026Z" transform="translate(-229.306 -46.649)"/>
        <path id="Path_972" data-name="Path 972" class="cls-7" d="M299.751,134.066,257.3,109.56l.743-3.96,42.451,24.506Z" transform="translate(-229.948 -43.346)"/>
        <path id="Path_973" data-name="Path 973" class="cls-5" d="M295.335,123.824,258.7,102.66l.743-3.961L296.2,119.864Z" transform="translate(-229.615 -44.986)"/>
        <path id="Path_974" data-name="Path 974" class="cls-9" d="M311.341,132.981,292.9,122.337l.866-3.837,18.317,10.52Z" transform="translate(-221.487 -40.28)"/>
        <path id="Path_975" data-name="Path 975" class="cls-7" d="M258.317,69.781,240,59.26l.743-3.96L259.06,65.82Z" transform="translate(-234.059 -55.3)"/>
        <path id="Path_976" data-name="Path 976" class="cls-5" d="M256.717,77.181,238.4,66.66l.743-3.96L257.46,73.344Z" transform="translate(-234.44 -53.541)"/>
        <path id="Path_977" data-name="Path 977" class="cls-7" d="M329.517,180.2,311.2,169.56l.743-3.96,18.317,10.644Z" transform="translate(-217.138 -29.087)"/>
        <path id="Path_978" data-name="Path 978" class="cls-7" d="M253.517,92.1,235.2,81.46l.743-3.96L254.26,88.144Z" transform="translate(-235.2 -50.024)"/>
      </g>
      <g id="Group_172" data-name="Group 172" transform="translate(224.578 88.638)">
        <path id="Path_979" data-name="Path 979" class="cls-9" d="M282.916,92.356a2.341,2.341,0,0,1-3.342.99,3.007,3.007,0,0,1-1.238-3.589,2.314,2.314,0,0,1,3.342-.99A2.705,2.705,0,0,1,282.916,92.356Z" transform="translate(-278.147 -88.418)"/>
        <path id="Path_980" data-name="Path 980" class="cls-5" d="M289.316,96.056a2.341,2.341,0,0,1-3.342.99,3.007,3.007,0,0,1-1.238-3.589,2.341,2.341,0,0,1,3.342-.99A2.669,2.669,0,0,1,289.316,96.056Z" transform="translate(-276.626 -87.539)"/>
        <path id="Path_981" data-name="Path 981" class="cls-7" d="M295.716,99.756a2.341,2.341,0,0,1-3.342.99,3.007,3.007,0,0,1-1.238-3.589,2.314,2.314,0,0,1,3.342-.99A2.78,2.78,0,0,1,295.716,99.756Z" transform="translate(-275.105 -86.659)"/>
        <path id="Path_982" data-name="Path 982" class="cls-9" d="M302.116,103.356a2.341,2.341,0,0,1-3.342.99,3.007,3.007,0,0,1-1.238-3.589,2.314,2.314,0,0,1,3.342-.99A2.865,2.865,0,0,1,302.116,103.356Z" transform="translate(-273.584 -85.804)"/>
      </g>
    </g>
    <g id="Group_182" data-name="Group 182" transform="translate(305.703 343.071)">
      <path id="Path_983" data-name="Path 983" class="cls-1" d="M389.822,306.6a10.232,10.232,0,0,0-8.911,0L266.057,372.934c-2.475,1.361-2.475,3.713,0,5.2a10.232,10.232,0,0,0,8.911,0L389.7,311.794C392.173,310.309,392.173,308.081,389.822,306.6Z" transform="translate(-242.898 -270.457)"/>
      <g id="Group_181" data-name="Group 181">
        <g id="Group_180" data-name="Group 180">
          <path id="Path_984" data-name="Path 984" class="cls-7" d="M382.926,277.448h0a.494.494,0,0,0-.5-.248l-6.931,1.485,2.723,4.7,4.7-5.322A.552.552,0,0,0,382.926,277.448Z" transform="translate(-216.447 -277.2)"/>
          <g id="Group_174" data-name="Group 174" transform="translate(83.061 0.785)">
            <path id="Path_985" data-name="Path 985" class="cls-6" d="M384.267,280.762a3.529,3.529,0,0,0-1.609-2.723.993.993,0,0,0-.99-.124A44.2,44.2,0,0,0,358.9,283.98l-.5.248,8.664,14.728,2.6-1.733a45.633,45.633,0,0,0,13.367-13.738l1.114-1.733C384.143,281.5,384.267,281.134,384.267,280.762Z" transform="translate(-303.572 -277.834)"/>
            <path id="Path_986" data-name="Path 986" class="cls-8" d="M369.006,293.849a13.16,13.16,0,0,0-6.064-10.4c-3.342-1.856-6.065-.371-5.941,3.465s2.723,8.54,6.065,10.4C366.283,299.295,369.006,297.686,369.006,293.849Z" transform="translate(-303.905 -276.688)"/>
            <path id="Path_987" data-name="Path 987" class="cls-8" d="M325.849,329.636,377.088,297.7l-8.664-14.6L315.7,312.309Z" transform="translate(-313.72 -276.583)"/>
            <path id="Path_988" data-name="Path 988" class="cls-7" d="M328.333,319.433a15.458,15.458,0,0,0-7.178-12.253c-3.96-2.228-7.055-.371-7.055,4.208a15.458,15.458,0,0,0,7.178,12.253C325.239,325.869,328.333,324.013,328.333,319.433Z" transform="translate(-314.1 -271.084)"/>
          </g>
          <g id="Group_175" data-name="Group 175" transform="translate(12.391 37.674)">
            <path id="Path_989" data-name="Path 989" class="cls-7" d="M325.933,320.833a15.458,15.458,0,0,0-7.178-12.253c-3.961-2.228-7.055-.371-7.055,4.208a15.458,15.458,0,0,0,7.178,12.253C322.839,327.269,326.057,325.413,325.933,320.833Z" transform="translate(-244 -307.64)"/>
            <rect id="Rectangle_464" data-name="Rectangle 464" class="cls-8" width="78.591" height="20.05" transform="translate(79.911 17.854) rotate(149.555)"/>
            <path id="Path_990" data-name="Path 990" class="cls-7" d="M271.233,353.033a15.458,15.458,0,0,0-7.178-12.253c-3.961-2.228-7.055-.371-7.055,4.208a15.458,15.458,0,0,0,7.178,12.253C268.139,359.346,271.233,357.489,271.233,353.033Z" transform="translate(-257 -299.987)"/>
            <path id="Path_991" data-name="Path 991" class="cls-10" d="M268.26,350.854a10.143,10.143,0,0,0-4.827-7.426c-2.475-1.485-4.456-.371-4.332,2.228a10.143,10.143,0,0,0,4.827,7.426C266.4,354.567,268.383,353.577,268.26,350.854Z" transform="translate(-256.502 -299.293)"/>
          </g>
          <g id="Group_176" data-name="Group 176" transform="translate(79.719 34.807)">
            <path id="Path_992" data-name="Path 992" class="cls-5" d="M328.186,319.4a15.458,15.458,0,0,0-7.178-12.253,5.51,5.51,0,0,0-4.208-.743c1.238-1.361,3.342-1.485,5.817-.124a15.458,15.458,0,0,1,7.178,12.253c0,2.723-1.114,4.456-2.847,4.951A6.683,6.683,0,0,0,328.186,319.4Z" transform="translate(-310.117 -305.323)"/>
            <path id="Path_993" data-name="Path 993" class="cls-6" d="M329.09,319.238a15.458,15.458,0,0,0-7.178-12.253c-1.98-1.114-3.713-1.238-5.074-.5L313,308.718l1.856,3.094a16.375,16.375,0,0,0,6.56,11.139l1.856,3.094,3.837-2.228h0C328.347,323.074,329.09,321.465,329.09,319.238Z" transform="translate(-311.02 -305.157)"/>
            <path id="Path_994" data-name="Path 994" class="cls-6" d="M325.633,321.033a15.458,15.458,0,0,0-7.178-12.253c-3.961-2.228-7.055-.371-7.055,4.208a15.458,15.458,0,0,0,7.178,12.253C322.539,327.469,325.633,325.613,325.633,321.033Z" transform="translate(-311.4 -304.725)"/>
          </g>
          <g id="Group_177" data-name="Group 177" transform="translate(0 83.501)">
            <path id="Path_995" data-name="Path 995" class="cls-11" d="M267.919,352.326l-4.456-7.426-14.357,8.416a4.268,4.268,0,0,0-1.485,5.941h0a4.268,4.268,0,0,0,5.941,1.485Z" transform="translate(-246.988 -344.612)"/>
            <path id="Path_996" data-name="Path 996" class="cls-11" d="M265.788,350.4a6.7,6.7,0,0,0-3.094-5.322c-1.733-.99-3.094-.124-3.094,1.856a6.7,6.7,0,0,0,3.094,5.322C264.427,353.248,265.788,352.381,265.788,350.4Z" transform="translate(-243.991 -344.668)"/>
          </g>
          <g id="Group_179" data-name="Group 179" transform="translate(18.332 41.38)">
            <path id="Path_997" data-name="Path 997" class="cls-6" d="M281.231,332.127l-2.1-1.238c-1.238-.743-2.847-.5-4.579.495l-7.426,4.332a5.875,5.875,0,0,0-2.475,4.456v3.713a2.729,2.729,0,0,1-.743,1.857l.248,1.733L262.3,346.36h0a1.042,1.042,0,0,1-.5-.866v-3.713a11.722,11.722,0,0,1,5.2-9.159l7.426-4.332c2.475-1.485,4.827-1.733,6.56-.743l2.1,1.238c1.238.743,2.847.5,4.579-.5l29.7-17.451a.993.993,0,0,1,.99-.124h0l1.856.99-1.609.619a2.734,2.734,0,0,1-1.238,1.609l-29.7,17.451C285.315,332.87,282.964,333.117,281.231,332.127Z" transform="translate(-261.8 -310.634)"/>
            <path id="Path_998" data-name="Path 998" class="cls-6" d="M280.5,331.793c-1.238-.743-2.847-.5-4.579.5l-7.426,4.332a5.875,5.875,0,0,0-2.475,4.456v3.713a2.929,2.929,0,0,1-1.361,2.352c-.743.5-1.361.124-1.361-.743v-3.713a11.722,11.722,0,0,1,5.2-9.159l7.426-4.332c2.475-1.485,4.827-1.733,6.56-.743l2.1,1.238c1.238.743,2.847.5,4.579-.5l29.7-17.451c.743-.5,1.361-.124,1.361.743a2.929,2.929,0,0,1-1.361,2.352l-29.7,17.451c-2.475,1.485-4.827,1.733-6.56.743Z" transform="translate(-261.444 -310.424)"/>
            <g id="Group_178" data-name="Group 178" transform="translate(4.579 30.156)">
              <path id="Path_999" data-name="Path 999" class="cls-5" d="M265.5,335.99v3.837a1.57,1.57,0,0,0,.124-.743V335A3.075,3.075,0,0,0,265.5,335.99Z" transform="translate(-265.5 -335)"/>
            </g>
          </g>
        </g>
      </g>
    </g>
    <g id="Group_189" data-name="Group 189" transform="translate(43.707 330.818)">
      <path id="Path_1000" data-name="Path 1000" class="cls-1" d="M47.52,297.4a17.509,17.509,0,0,0,1.733,3.837c-9.406,7.921-8.045,18.812,4.208,25.867,13.738,7.921,36.139,7.921,49.877,0,10.149-5.817,12.872-14.481,8.045-21.659a31.686,31.686,0,0,0,3.465-3.713c8.787,8.54,7.8,19.431-2.97,27.476l11.386,6.683c4.332-1.485,9.654-1.485,12.872.5l41.585,24.01c3.96,2.228,3.465,6.188-1.114,8.911-4.579,2.6-11.386,2.847-15.347.619l-41.585-24.01c-2.97-1.733-3.465-4.456-1.485-6.807L106.68,332.3c-16.708,8.787-42.328,8.54-58.417-.743C32.173,322.153,31.8,306.93,47.52,297.4Z" transform="translate(-35.143 -260.147)"/>
      <g id="Group_188" data-name="Group 188">
        <g id="Group_187" data-name="Group 187">
          <path id="Path_1001" data-name="Path 1001" class="cls-12" d="M51.091,281.148c14.976-8.664,39.357-8.664,54.457,0,6.188,3.589,9.9,8.169,10.891,12.748-.99,4.084-3.837,8.169-8.787,11.51a27.724,27.724,0,0,0-4.208-2.847c-14.976-8.664-39.357-8.664-54.457,0a12.26,12.26,0,0,0-2.1,1.361c-3.713-2.97-5.941-6.436-6.683-9.9C41.314,289.192,44.9,284.737,51.091,281.148Z" transform="translate(-34.136 -265.553)"/>
          <path id="Path_1002" data-name="Path 1002" class="cls-6" d="M117.762,302.193l-5.817-7.673-17.822-8.292-15.471-1.361-17.946,2.228-12.5,6.436L40.285,298.6,38.8,290.311l2.723-9.53s6.807-4.456,7.178-4.951c.371-.371,15.966-5.941,15.966-5.941l15.471-.99,12.5,1.609,12.748,3.713,8.416,5.817,6.312,7.921.743,9.9Z" transform="translate(-34.468 -266.92)"/>
          <path id="Path_1003" data-name="Path 1003" class="cls-3" d="M35.3,287.9v16.089l4.332-6.931Z" transform="translate(-35.3 -262.404)"/>
          <path id="Path_1004" data-name="Path 1004" class="cls-8" d="M106.047,290.478c-14.976-8.664-39.357-8.664-54.457,0-4.7,2.723-7.921,5.941-9.777,9.406-1.361-1.238-2.97-2.1-3.713-3.713a29.26,29.26,0,0,1,9.406-8.045c17.2-9.9,45.174-9.9,62.5,0a31.34,31.34,0,0,1,8.787,7.3,13.756,13.756,0,0,1-3.094,4.456C113.968,296.418,110.75,293.2,106.047,290.478Z" transform="translate(-34.635 -264.115)"/>
          <path id="Path_1006" data-name="Path 1006" class="cls-6" d="M38.872,294.46a4.454,4.454,0,0,0,1.361,1.733v-.124l3.96,2.352L49.145,303l6.807,2.97,9.406,3.342,8.292,1.98,11.51.5,7.426-.743,14.728-3.837,9.53-8.416c-.124-.124-.124-.371-.248-.5a12.087,12.087,0,0,0,3.094-4.456c.248.371.5.619.743.99l3.342-6.931v16.708h0c0,6.56-4.332,13.119-12.872,18.07-17.2,9.9-45.174,9.9-62.5,0C35.159,314.881,32.065,303.742,38.872,294.46Z" transform="translate(-35.283 -262.404)"/>
          <path id="Path_1007" data-name="Path 1007" class="cls-6" d="M98.324,301.786l3.465-3.094c-.124-.124-.124-.371-.248-.5a12.087,12.087,0,0,0,3.094-4.456c.248.371.5.619.743.99l3.342-6.931v16.708h0c0,5.817-3.465,11.758-10.52,16.461V301.786Z" transform="translate(-20.352 -262.428)"/>
          <path id="Path_1008" data-name="Path 1008" class="cls-8" d="M48.3,310.742c17.2,9.9,45.174,9.9,62.5,0,17.2-9.9,17.2-26.114,0-36.016s-45.174-9.9-62.5,0S30.968,300.84,48.3,310.742Zm3.96-33.664c14.976-8.664,39.357-8.664,54.457,0,14.976,8.664,14.976,22.773,0,31.436s-39.357,8.664-54.457,0C37.28,299.85,37.28,285.741,52.256,277.077Z" transform="translate(-35.3 -267.3)"/>
          <g id="Group_185" data-name="Group 185" transform="translate(76.116 47.332)">
            <g id="Group_183" data-name="Group 183" transform="translate(0)">
              <path id="Path_1009" data-name="Path 1009" class="cls-7" d="M124.923,319.933,100.418,305.7,97.2,311.022l24.629,14.233Z" transform="translate(-96.705 -305.506)"/>
              <path id="Path_1010" data-name="Path 1010" class="cls-13" d="M116.6,321.2c0,1.361.99,1.98,2.228,1.238a4.817,4.817,0,0,0,2.228-3.837c0-1.361-.99-1.98-2.228-1.238A5.009,5.009,0,0,0,116.6,321.2Z" transform="translate(-92.094 -302.81)"/>
              <path id="Path_1011" data-name="Path 1011" class="cls-13" d="M116.6,321.2c0,1.361.99,1.98,2.228,1.238a4.817,4.817,0,0,0,2.228-3.837c0-1.361-.99-1.98-2.228-1.238A5.009,5.009,0,0,0,116.6,321.2Z" transform="translate(-92.094 -302.81)"/>
              <path id="Path_1012" data-name="Path 1012" class="cls-7" d="M96.8,309.7c0,1.361.99,1.98,2.228,1.238a4.817,4.817,0,0,0,2.228-3.837c0-1.361-.99-1.98-2.228-1.238A5.009,5.009,0,0,0,96.8,309.7Z" transform="translate(-96.8 -305.543)"/>
            </g>
            <path id="Path_1013" data-name="Path 1013" class="cls-8" d="M106.8,324.579c0-6.064,4.208-13.367,9.406-16.337,2.723-1.485,5.074-1.609,6.807-.619h0L174.747,337.7l-13.49,23.02-51.239-29.827a2.7,2.7,0,0,1-.99-.619h0C107.666,329.282,106.8,327.3,106.8,324.579Z" transform="translate(-94.423 -305.201)"/>
            <path id="Path_1014" data-name="Path 1014" class="cls-6" d="M169.822,344.134,111.9,310.717a19.391,19.391,0,0,1,3.094-2.475c2.723-1.485,5.074-1.609,6.807-.619h0L173.535,337.7Z" transform="translate(-93.211 -305.201)"/>
            <g id="Group_184" data-name="Group 184" transform="translate(64.234 31.958)">
              <path id="Path_1015" data-name="Path 1015" class="cls-7" d="M148.7,348.983c0,6.065,4.208,8.416,9.406,5.446s9.406-10.272,9.406-16.337-4.208-8.416-9.406-5.446S148.7,342.918,148.7,348.983Z" transform="translate(-148.7 -331.365)"/>
              <circle id="Ellipse_248" data-name="Ellipse 248" class="cls-8" cx="6.188" cy="6.188" r="6.188" transform="translate(7.55 8.583)"/>
              <circle id="Ellipse_249" data-name="Ellipse 249" class="cls-5" cx="1.856" cy="1.856" r="1.856" transform="translate(14.852 10.687)"/>
            </g>
            <path id="Path_1016" data-name="Path 1016" class="cls-5" d="M157.483,332.242c2.847-1.609,5.322-1.609,7.055-.371-1.733-.743-3.837-.619-6.312.866-5.2,2.97-9.406,10.272-9.406,16.337,0,2.847.866,4.827,2.475,5.817-1.856-.866-3.094-3.094-3.094-6.312C148.077,342.638,152.285,335.336,157.483,332.242Z" transform="translate(-84.585 -299.497)"/>
          </g>
          <g id="Group_186" data-name="Group 186" transform="translate(0.102 3.28)">
            <path id="Path_1017" data-name="Path 1017" class="cls-5" d="M51.165,276.448c14.976-8.664,39.357-8.664,54.457,0,7.8,4.456,11.51,10.52,11.263,16.461-.248-5.446-4.084-10.891-11.263-14.976-14.976-8.664-39.357-8.664-54.457,0-7.178,4.208-10.891,9.53-11.263,14.976C39.655,286.968,43.368,280.9,51.165,276.448Z" transform="translate(-34.311 -269.95)"/>
            <path id="Path_1018" data-name="Path 1018" class="cls-5" d="M48.276,305.727c17.2,9.9,45.174,9.9,62.5,0,8.292-4.827,12.624-11.015,12.872-17.327.371,6.807-3.96,13.614-12.872,18.689-17.2,9.9-45.174,9.9-62.5,0-8.911-5.2-13.243-12.005-12.872-18.689C35.652,294.712,39.984,301.024,48.276,305.727Z" transform="translate(-35.382 -265.565)"/>
          </g>
        </g>
      </g>
    </g>
    <g id="Group_195" data-name="Group 195" transform="translate(168.091 147.455)">
      <g id="Group_194" data-name="Group 194">
        <g id="Group_191" data-name="Group 191" transform="translate(3.442)">
          <path id="Path_1019" data-name="Path 1019" class="cls-11" d="M167.3,275.45s-4.579-2.352-7.55,1.114c-2.847,3.465-6.931,11.758-7.055,17.327s4.456,5.2,7.055,3.837c2.723-1.361,10.52-12.748,11.015-14.976s-.619-5.2-1.361-5.817A17.863,17.863,0,0,0,167.3,275.45Z" transform="translate(-135.226 -82.185)"/>
          <path id="Path_1020" data-name="Path 1020" class="cls-7" d="M167.088,274.606l.248,4.827a2.853,2.853,0,0,1-1.361,2.475,4.671,4.671,0,0,1-3.589.5c-3.465-.619-3.837-1.609-4.084-6.312S167.088,274.606,167.088,274.606Z" transform="translate(-133.895 -82.456)"/>
          <g id="Group_190" data-name="Group 190" transform="translate(0 85.465)">
            <path id="Path_1021" data-name="Path 1021" class="cls-11" d="M153.6,268.05s-4.579-2.352-7.55,1.114c-2.847,3.465-6.931,11.758-7.055,17.327s4.456,5.2,7.055,3.837c2.723-1.361,10.52-12.748,11.015-14.976s-.619-5.2-1.361-5.817A13.964,13.964,0,0,0,153.6,268.05Z" transform="translate(-138.482 -169.409)"/>
            <path id="Path_1022" data-name="Path 1022" class="cls-7" d="M153.288,267.216l.248,4.827a2.853,2.853,0,0,1-1.361,2.475,4.671,4.671,0,0,1-3.589.5c-3.465-.619-3.837-1.609-4.084-6.312C144.253,263.875,153.288,267.216,153.288,267.216Z" transform="translate(-137.175 -169.69)"/>
            <path id="Path_1023" data-name="Path 1023" class="cls-11" d="M196.155,197.359c-1.361-22.4-24.258,3.342-24.258,3.342L156.3,216.047l-14.109,15.471a13.541,13.541,0,0,0-3.465,11.139l5.693,43.318a4.3,4.3,0,0,0,4.332,3.713,12.726,12.726,0,0,0,2.1-.124,5.238,5.238,0,0,0,4.7-5.569l-.99-40.595,29.58-17.822C184.026,225.453,197.517,219.76,196.155,197.359Z" transform="translate(-138.581 -188.2)"/>
          </g>
          <path id="Path_1024" data-name="Path 1024" class="cls-11" d="M209.832,204.259c-1.361-22.4-24.258,3.342-24.258,3.342l-15.594,15.347-13.985,15.347a13.541,13.541,0,0,0-3.465,11.139l5.693,43.318a4.3,4.3,0,0,0,4.332,3.713,12.727,12.727,0,0,0,2.1-.124,5.238,5.238,0,0,0,4.7-5.569l-.99-39.357,29.456-18.936C197.7,232.353,211.193,226.66,209.832,204.259Z" transform="translate(-135.301 -101.095)"/>
          <path id="Path_1025" data-name="Path 1025" class="cls-14" d="M194.315,145.088c17.327,7.178,16.956,17.451,16.956,17.451s-3.342,37.5-2.228,62.5c.5,10.52-55.694,11.263-47.278-16.708,9.9-32.922,6.188-59.655,10.768-63.615C177.236,140.632,189.86,143.231,194.315,145.088Z" transform="translate(-133.275 -113.585)"/>
          <ellipse id="Ellipse_250" data-name="Ellipse 250" class="cls-15" cx="8.911" cy="6.56" rx="8.911" ry="6.56" transform="translate(50.962 29.72) rotate(14.442)"/>
          <path id="Path_1026" data-name="Path 1026" class="cls-5" d="M189.408,155.68l-3.218,3.465a2.077,2.077,0,0,0-.5,1.609l2.228,18.936a2.94,2.94,0,0,1-.371,1.485l-6.807,8.911a.661.661,0,0,1-1.114-.248l-3.713-11.758a2.542,2.542,0,0,1,0-1.361l6.56-17.2a3.815,3.815,0,0,0,.124-1.238l-.99-4.579Z" transform="translate(-129.73 -110.934)"/>
          <path id="Path_1027" data-name="Path 1027" class="cls-5" d="M188.6,159.108a15.119,15.119,0,0,1-3.218-.371,11.756,11.756,0,0,1-6.064-3.713,6.761,6.761,0,0,1-1.485-5.941c.99-3.96,6.064-6.064,11.263-4.7s8.664,5.693,7.55,9.654a6.8,6.8,0,0,1-4.208,4.456A12.461,12.461,0,0,1,188.6,159.108Zm-2.6-13.49c-3.218,0-5.941,1.485-6.56,3.837a4.869,4.869,0,0,0,1.238,4.456,10.658,10.658,0,0,0,5.2,3.218,10.03,10.03,0,0,0,6.064-.248,4.822,4.822,0,0,0,3.218-3.342h0c.743-3.094-2.1-6.436-6.436-7.55A11.035,11.035,0,0,0,186,145.617Z" transform="translate(-129.296 -113.248)"/>
          <path id="Path_1028" data-name="Path 1028" class="cls-15" d="M182.324,144.56a52.025,52.025,0,0,1-.124,6.188c-.124,1.733,5.941,3.342,7.55,1.733s.99-3.218,1.361-9.035C191.359,137.63,182.324,144.56,182.324,144.56Z" transform="translate(-128.215 -113.923)"/>
          <path id="Path_1029" data-name="Path 1029" class="cls-16" d="M190.987,143s-1.485,5.446-8.787,7.55l.124-4.951Z" transform="translate(-128.215 -113.477)"/>
          <circle id="Ellipse_251" data-name="Ellipse 251" class="cls-15" cx="13.367" cy="13.367" r="13.367" transform="translate(41.114 5.76)"/>
          <path id="Path_1030" data-name="Path 1030" class="cls-16" d="M188.257,135.618s-7.3,3.094-12.377,3.218c-5.074,0-3.96-4.208-3.96-4.208l15.1-2.228Z" transform="translate(-130.682 -115.996)"/>
          <path id="Path_1031" data-name="Path 1031" class="cls-7" d="M175.521,139.51s6.436-2.723,12.005-1.609a5.445,5.445,0,0,1,3.342,1.98,1.925,1.925,0,0,0,.99.743c.99.248,2.6-3.96,4.579-3.96,1.98-.124,3.218,1.238,1.609,3.837-1.609,2.475-.99,5.322-.371,5.817.743.371,9.777-5.941,2.97-19.431s-25.5-5.817-28.095-3.094c0,0-2.847,2.475-5.2.248C167.353,124.04,164.754,143.471,175.521,139.51Z" transform="translate(-131.809 -119.146)"/>
          <path id="Path_1032" data-name="Path 1032" class="cls-15" d="M198.054,181.917v10.149a4.431,4.431,0,0,1-1.361,3.094L175.9,214.1l2.352,3.589,28.714-18.812a5.64,5.64,0,0,0,2.228-3.96l1.98-18.812Z" transform="translate(-129.712 -105.611)"/>
          <path id="Path_1033" data-name="Path 1033" class="cls-14" d="M202.279,154.5s6.312,9.53,8.664,34.531c0,0-10.768,3.465-16.956,1.485C187.922,188.535,202.279,154.5,202.279,154.5Z" transform="translate(-125.769 -110.744)"/>
          <path id="Path_1034" data-name="Path 1034" class="cls-17" d="M193.3,164.2s-2.475,13.243-2.6,19.431a4.025,4.025,0,0,0,2.6,3.837h0Z" transform="translate(-126.195 -108.439)"/>
        </g>
        <g id="Group_192" data-name="Group 192" transform="translate(3.289 100.9)">
          <path id="Path_1035" data-name="Path 1035" class="cls-3" d="M200.359,220.891l-4.579-.619-29.7-17.2a4.352,4.352,0,0,0-3.713.124l-21.04,12.129-2.723-.371v2.723h0a1.262,1.262,0,0,0,.619.99l33.664,19.431a4.352,4.352,0,0,0,3.713-.124l22.9-13.243a1.555,1.555,0,0,0,.866-1.238h0Z" transform="translate(-138.424 -200.186)"/>
          <path id="Path_1036" data-name="Path 1036" class="cls-10" d="M177.957,208.938l-2.1-1.238H152.709l-11.386,6.56-2.723-.371v2.723h0a1.262,1.262,0,0,0,.619.99l33.664,19.431a4.522,4.522,0,0,0,1.856.371Z" transform="translate(-138.424 -199.001)"/>
          <path id="Path_1037" data-name="Path 1037" class="cls-3" d="M139.738,212.824,138.5,212.7v2.723h0a1.262,1.262,0,0,0,.619.99l.619.371Z" transform="translate(-138.447 -197.813)"/>
          <path id="Path_1038" data-name="Path 1038" class="cls-3" d="M166.5,232.551a4.217,4.217,0,0,0,3.218-.248v-4.7H166.5Z" transform="translate(-131.793 -194.272)"/>
          <path id="Path_1039" data-name="Path 1039" class="cls-5" d="M172.793,235.98l-33.664-19.431c-.99-.5-.866-1.485.248-2.1l22.9-13.243a3.959,3.959,0,0,1,3.713-.124l33.664,19.431c.99.5.866,1.485-.248,2.1l-22.9,13.243A4.352,4.352,0,0,1,172.793,235.98Z" transform="translate(-138.458 -200.671)"/>
          <path id="Path_1040" data-name="Path 1040" class="cls-7" d="M171.273,231.661,143.3,215.448c-.743-.5-.743-1.238.248-1.733l12.253-6.931a3.427,3.427,0,0,1,3.094-.124l27.971,16.213c.743.5.743,1.238-.248,1.733l-12.253,6.931A3.433,3.433,0,0,1,171.273,231.661Z" transform="translate(-137.432 -199.323)"/>
        </g>
        <path id="Path_1041" data-name="Path 1041" class="cls-15" d="M158.9,200.826l-.371,2.352a19.138,19.138,0,0,0,.124,5.941l.371,2.1a2.761,2.761,0,0,0,2.352,2.228h0a1.66,1.66,0,0,0,1.856-1.361l.5-4.951s1.238,1.609,1.856,1.609-.743-4.951-2.1-7.8C162.246,198.1,158.9,200.826,158.9,200.826Z" transform="translate(-130.438 -100.014)"/>
        <path id="Path_1042" data-name="Path 1042" class="cls-15" d="M170.6,172.055l-3.589,7.178a14.318,14.318,0,0,0-1.485,5.446l-1.609,24.506-4.7-.124-2.1-27.476a9.173,9.173,0,0,1,.124-2.6L159.709,165Z" transform="translate(-130.748 -108.249)"/>
        <g id="Group_193" data-name="Group 193" transform="translate(0 86.159)">
          <path id="Path_1043" data-name="Path 1043" class="cls-6" d="M172.216,240.667l-2.847-3.713-29.7-17.2a3.923,3.923,0,0,1-1.733-3.342V192.151l-1.733-2.228,1.609-.99h0a.8.8,0,0,1,1.114.124l33.664,19.431a3.923,3.923,0,0,1,1.733,3.342v26.486c0,.743-.248,1.238-.619,1.361h0Z" transform="translate(-135.705 -188.761)"/>
          <path id="Path_1044" data-name="Path 1044" class="cls-6" d="M151.671,226.682l-2.1-1.238-11.634-20.05V192.151l-1.733-2.228,1.609-.99h0a.8.8,0,0,1,1.114.124l33.664,19.431a2.985,2.985,0,0,1,1.238,1.485Z" transform="translate(-135.705 -188.761)"/>
          <path id="Path_1045" data-name="Path 1045" class="cls-6" d="M137.043,190.913l-.743-.99,1.609-.99h0a.8.8,0,0,1,1.114.124l.619.371Z" transform="translate(-135.681 -188.761)"/>
          <path id="Path_1046" data-name="Path 1046" class="cls-6" d="M166.589,205a3.919,3.919,0,0,1,1.361,2.847l-3.342,1.856L163,206.98Z" transform="translate(-129.336 -184.901)"/>
          <path id="Path_1047" data-name="Path 1047" class="cls-8" d="M171.2,209.267l-33.664-19.431c-.99-.5-1.733,0-1.733,1.361v26.486a4.275,4.275,0,0,0,1.733,3.342L171.2,240.456c.99.5,1.733,0,1.733-1.361V212.609A4.275,4.275,0,0,0,171.2,209.267Z" transform="translate(-135.8 -188.55)"/>
        </g>
        <path id="Path_1048" data-name="Path 1048" class="cls-15" d="M179.939,210.413l-.5,1.114a7.6,7.6,0,0,1-2.847,3.094l-3.342,2.1a3.461,3.461,0,0,1-3.465.124.121.121,0,0,1-.124-.124,1.984,1.984,0,0,1-.248-3.094l3.465-3.589s-1.98,1.485-2.475.866c-.371-.5,1.856-2.6,3.713-2.723a7.574,7.574,0,0,0,3.465-1.485Z" transform="translate(-127.958 -98.339)"/>
        <path id="Path_1049" data-name="Path 1049" class="cls-14" d="M174.046,144.3S161.3,158.285,156.1,171.033a25.9,25.9,0,0,0,15.1,11.015C181.967,185.019,174.046,144.3,174.046,144.3Z" transform="translate(-130.976 -113.168)"/>
        <path id="Path_1050" data-name="Path 1050" class="cls-17" d="M166.847,177.85l2.1-20.05L164,176.612A28.319,28.319,0,0,0,166.847,177.85Z" transform="translate(-129.098 -109.96)"/>
        <path id="Path_1051" data-name="Path 1051" class="cls-5" d="M179.065,142.19l-3.465-.99a7.891,7.891,0,0,0,4.084,3.218c2.352.619,2.723-1.361,2.723-1.361Z" transform="translate(-126.341 -113.905)"/>
      </g>
      <circle id="Ellipse_252" data-name="Ellipse 252" class="cls-5" cx="1.856" cy="1.856" r="1.856" transform="translate(67.328 20.859)"/>
    </g>
    <g id="Group_198" data-name="Group 198" transform="translate(-0.075 246.349)">
      <g id="Group_196" data-name="Group 196">
        <path id="Path_1052" data-name="Path 1052" class="cls-1" d="M50.991,247.006c-10.891,6.312-28.714,6.312-39.6,0-11.015-6.312-11.015-16.585,0-22.9,10.891-6.312,28.714-6.312,39.6,0C62.006,230.421,62.006,240.57,50.991,247.006Z" transform="translate(0.835 -194.22)"/>
        <path id="Path_1053" data-name="Path 1053" class="cls-6" d="M63.863,225.323v-8.911H62.13a20.652,20.652,0,0,0-7.673-7.178c-12.5-7.178-32.674-7.178-45.174,0a20.652,20.652,0,0,0-7.673,7.178H0v8.911H0c0,4.7,3.094,9.406,9.282,13.119,12.5,7.178,32.674,7.178,45.174,0C60.645,234.729,63.863,230.026,63.863,225.323Z" transform="translate(0.093 -197.909)"/>
        <path id="Path_1054" data-name="Path 1054" class="cls-8" d="M54.475,230.548c-12.5,7.178-32.674,7.178-45.174,0s-12.5-18.812,0-26.114c12.5-7.178,32.674-7.178,45.174,0C66.975,211.736,66.975,223.37,54.475,230.548Z" transform="translate(0.075 -199.05)"/>
        <path id="Path_1055" data-name="Path 1055" class="cls-5" d="M54.459,226.9c-12.5,7.178-32.674,7.178-45.174,0C3.344,223.435.25,218.979,0,214.4c-.248,4.951,2.847,9.9,9.282,13.614,12.5,7.178,32.674,7.178,45.174,0,6.436-3.713,9.53-8.664,9.282-13.614C63.494,218.979,60.4,223.435,54.459,226.9Z" transform="translate(0.09 -195.402)"/>
      </g>
      <g id="Group_197" data-name="Group 197" transform="translate(15.811 9.839)">
        <path id="Path_1056" data-name="Path 1056" class="cls-5" d="M13.566,221.728c-.5-.371-.866-.743-.866-1.114V208.609c0-.866,1.238-1.609,2.847-1.609s2.847.743,2.847,1.609v9.9l28.837-3.589c1.609-.248,3.094.371,3.465,1.238s-.619,1.733-2.228,1.98l-32.3,3.96a3.67,3.67,0,0,1-2.352-.371A.171.171,0,0,1,13.566,221.728Z" transform="translate(-12.7 -207)"/>
      </g>
    </g>
    <g id="Group_201" data-name="Group 201" transform="translate(174.789 58.443)">
      <g id="Group_199" data-name="Group 199">
        <path id="Path_1057" data-name="Path 1057" class="cls-6" d="M205.484,75.165l-47.65-27.476a3.078,3.078,0,0,0-2.723-.248h0l-5.693,2.723s2.1.743,3.342,1.238l-6.931,34.654a7.132,7.132,0,0,0,2.847,7.3L194.221,119.6l-.866,4.084,5.693-2.723h0a4.265,4.265,0,0,0,2.1-3.094l7.055-35.4A6.862,6.862,0,0,0,205.484,75.165Z" transform="translate(-140.151 -47.226)"/>
        <path id="Path_1058" data-name="Path 1058" class="cls-8" d="M191.817,122.913l-47.65-27.476c-2.1-1.238-3.342-4.456-2.847-7.3l7.055-35.4c.619-2.847,2.723-4.084,4.827-2.847l47.65,27.476c2.1,1.238,3.342,4.456,2.847,7.3l-7.055,35.4C196.025,122.913,193.921,124.151,191.817,122.913Z" transform="translate(-141.212 -46.706)"/>
        <path id="Path_1059" data-name="Path 1059" class="cls-5" d="M199.944,76.965l-47.65-27.476a2.8,2.8,0,0,0-3.094,0,3.336,3.336,0,0,1,2.1.371l47.65,27.6c2.1,1.238,3.342,4.456,2.847,7.3l-7.055,35.4a3.934,3.934,0,0,1-1.733,2.847c1.361-.248,2.475-1.361,2.847-3.342l7.055-35.4C203.409,81.544,202.172,78.2,199.944,76.965Z" transform="translate(-139.314 -46.798)"/>
      </g>
      <g id="Group_200" data-name="Group 200" transform="translate(16.746 30.6)">
        <path id="Path_1060" data-name="Path 1060" class="cls-5" d="M161.25,77.953a2.521,2.521,0,0,1-3.96,1.856,5.657,5.657,0,0,1-2.475-5.569,2.521,2.521,0,0,1,3.96-1.856A5.657,5.657,0,0,1,161.25,77.953Z" transform="translate(-154.742 -71.95)"/>
        <path id="Path_1061" data-name="Path 1061" class="cls-5" d="M169.05,82.453a2.521,2.521,0,0,1-3.96,1.856,5.657,5.657,0,0,1-2.475-5.569,2.521,2.521,0,0,1,3.96-1.856A5.442,5.442,0,0,1,169.05,82.453Z" transform="translate(-152.889 -70.88)"/>
        <path id="Path_1062" data-name="Path 1062" class="cls-5" d="M176.95,86.953a2.521,2.521,0,0,1-3.96,1.856,5.657,5.657,0,0,1-2.475-5.569,2.521,2.521,0,0,1,3.96-1.856A5.87,5.87,0,0,1,176.95,86.953Z" transform="translate(-151.011 -69.811)"/>
      </g>
    </g>
    <g id="Group_204" data-name="Group 204" transform="translate(360.437 0.026)">
      <g id="Group_202" data-name="Group 202">
        <path id="Path_1063" data-name="Path 1063" class="cls-6" d="M355.584,27.965,307.934.489a3.078,3.078,0,0,0-2.723-.248h0l-5.693,2.723s2.1.743,3.342,1.238l-6.931,34.654a7.132,7.132,0,0,0,2.847,7.3L344.321,72.4l-.866,4.084,5.693-2.723h0a4.265,4.265,0,0,0,2.1-3.094l7.055-35.4C358.925,32.42,357.688,29.2,355.584,27.965Z" transform="translate(-290.127 -0.026)"/>
        <path id="Path_1064" data-name="Path 1064" class="cls-8" d="M341.817,75.713l-47.65-27.476c-2.1-1.238-3.342-4.456-2.847-7.3l7.055-35.4c.619-2.847,2.723-4.084,4.827-2.847l47.65,27.476c2.1,1.238,3.342,4.456,2.847,7.3l-7.055,35.4C346.149,75.713,343.921,76.951,341.817,75.713Z" transform="translate(-291.212 0.494)"/>
        <path id="Path_1065" data-name="Path 1065" class="cls-5" d="M350.044,29.765,302.394,2.289a2.8,2.8,0,0,0-3.094,0,3.336,3.336,0,0,1,2.1.371l47.65,27.476c2.1,1.238,3.342,4.456,2.847,7.3l-7.055,35.4a3.934,3.934,0,0,1-1.733,2.847c1.361-.248,2.475-1.361,2.847-3.342l7.055-35.4C353.385,34.344,352.148,31,350.044,29.765Z" transform="translate(-289.29 0.402)"/>
      </g>
      <g id="Group_203" data-name="Group 203" transform="translate(16.746 30.6)">
        <path id="Path_1066" data-name="Path 1066" class="cls-5" d="M311.25,30.753a2.521,2.521,0,0,1-3.96,1.856,5.657,5.657,0,0,1-2.475-5.569,2.521,2.521,0,0,1,3.961-1.856A5.247,5.247,0,0,1,311.25,30.753Z" transform="translate(-304.742 -24.75)"/>
        <path id="Path_1067" data-name="Path 1067" class="cls-5" d="M319.15,35.253a2.521,2.521,0,0,1-3.96,1.856,5.657,5.657,0,0,1-2.475-5.569,2.521,2.521,0,0,1,3.961-1.856A5.657,5.657,0,0,1,319.15,35.253Z" transform="translate(-302.865 -23.68)"/>
        <path id="Path_1068" data-name="Path 1068" class="cls-5" d="M327.05,39.753a2.521,2.521,0,0,1-3.961,1.856,5.657,5.657,0,0,1-2.475-5.569,2.521,2.521,0,0,1,3.961-1.856A5.87,5.87,0,0,1,327.05,39.753Z" transform="translate(-300.987 -22.611)"/>
      </g>
    </g>
  </g>
</svg>
