<svg xmlns="http://www.w3.org/2000/svg" viewBox="0 0 79.915 80.294">
  <defs>
    <style>
      .cls-1 {
        fill: #b78e3c;
      }

      .cls-2 {
        fill: #c8102e;
      }

      .cls-3 {
        fill: #fff;
      }
    </style>
  </defs>
  <g id="clapperboard" transform="translate(-1 -0.706)">
    <path id="Path_686" data-name="Path 686" class="cls-1" d="M28.663,11.57l-1.779,8.288H20.71l1.147-5.349Z" transform="translate(5.695 3.139)"/>
    <path id="Path_687" data-name="Path 687" class="cls-1" d="M32.63,9.952,39.435,7,37.27,17.105l-6.78,2.861Z" transform="translate(8.521 1.819)"/>
    <path id="Path_688" data-name="Path 688" class="cls-1" d="M49.994,2.44l-2.2,10.273-6.78,2.861,2.178-10.2Z" transform="translate(11.561 0.501)"/>
    <path id="Path_689" data-name="Path 689" class="cls-1" d="M29.467,25.734H21.734L14,18h7.734Z" transform="translate(3.756 4.997)"/>
    <path id="Path_690" data-name="Path 690" class="cls-1" d="M28.9,18h4.834l7.734,7.734H33.734L26,18Z" transform="translate(7.224 4.997)"/>
    <path id="Path_691" data-name="Path 691" class="cls-1" d="M53.467,25.734H45.734L38,18h7.734Z" transform="translate(10.691 4.997)"/>
    <g id="Group_154" data-name="Group 154" transform="translate(8.734 73.266)">
      <rect id="Rectangle_378" data-name="Rectangle 378" width="2.578" height="2.578"/>
      <rect id="Rectangle_379" data-name="Rectangle 379" width="2.578" height="2.578" transform="translate(5.156)"/>
      <rect id="Rectangle_380" data-name="Rectangle 380" width="2.578" height="2.578" transform="translate(10.312)"/>
    </g>
    <path id="Path_692" data-name="Path 692" d="M78.337,68.11V23a6.452,6.452,0,0,0-6.445-6.445H54.752L68.5,10.761,63.478.706,26.834,16.552H10.023A6.452,6.452,0,0,0,3.578,23V68.11H1v6.445A6.452,6.452,0,0,0,7.445,81H74.47a6.452,6.452,0,0,0,6.445-6.445V68.11ZM71.892,19.13A3.872,3.872,0,0,1,75.759,23V68.11H73.181V24.286A2.58,2.58,0,0,0,70.6,21.708h-28.1l6.123-2.578ZM11.312,68.11V24.286H13.89V57.8H28.068V55.221h-11.6V32.02h48.98v23.2h-11.6V57.8H68.025V24.286H70.6V68.11Zm41.246,2.578v1.289a1.291,1.291,0,0,1-1.289,1.289H30.646a1.291,1.291,0,0,1-1.289-1.289V70.688Zm12.89-46.4v5.156H16.467V24.286ZM64.968,9.454,35.862,21.708H21.407L62.263,4.041ZM6.156,23a3.872,3.872,0,0,1,3.867-3.867h10.85l-5.961,2.578h-3.6a2.58,2.58,0,0,0-2.578,2.578V68.11H6.156ZM78.337,74.555a3.872,3.872,0,0,1-3.867,3.867H7.445a3.872,3.872,0,0,1-3.867-3.867V70.688h23.2v1.289a3.872,3.872,0,0,0,3.867,3.867H51.269a3.872,3.872,0,0,0,3.867-3.867V70.688h23.2Z" transform="translate(0 0)"/>
    <path id="Path_693" data-name="Path 693" class="cls-2" d="M35.467,57.935A15.467,15.467,0,1,1,50.935,42.467,15.485,15.485,0,0,1,35.467,57.935Z" transform="translate(5.49 7.598)"/>
    <g id="Group_155" data-name="Group 155" transform="translate(35.802 42.824)">
      <path id="Path_694" data-name="Path 694" class="cls-3" d="M28,47.865V33.382l14.483,7.241Zm2.578-10.312v6.141l6.141-3.07Z" transform="translate(-28 -33.382)"/>
    </g>
  </g>
</svg>
