<svg id="online-learning" xmlns="http://www.w3.org/2000/svg" viewBox="0 0 46 46">
  <defs>
    <style>
      .cls-1 {
        fill: #fff;
      }

      .cls-2 {
        fill: #edf2fa;
      }

      .cls-3 {
        fill: #c8102e;
      }

      .cls-4 {
        fill: #d8fb93;
      }

      .cls-5 {
        fill: #b78e3c;
      }
    </style>
  </defs>
  <path id="Path_628" data-name="Path 628" class="cls-1" d="M41.415,43.609H12.875A2.875,2.875,0,0,1,10,40.734V12.875A2.875,2.875,0,0,1,12.875,10H51.328A2.875,2.875,0,0,1,54.2,12.875V40.734a2.875,2.875,0,0,1-2.875,2.875H48.154" transform="translate(-9.102 -9.102)"/>
  <path id="Path_629" data-name="Path 629" class="cls-1" d="M51.328,316.648H12.875A2.875,2.875,0,0,1,10,313.773V310H54.2v3.773A2.875,2.875,0,0,1,51.328,316.648Z" transform="translate(-9.102 -282.148)"/>
  <rect id="Rectangle_368" data-name="Rectangle 368" class="cls-2" width="8.625" height="6.012" transform="translate(18.598 34.597)"/>
  <path id="Path_630" data-name="Path 630" class="cls-1" d="M168.383,452h-9.224a4.492,4.492,0,0,0-4.492,4.492h18.208A4.492,4.492,0,0,0,168.383,452Z" transform="translate(-140.771 -411.391)"/>
  <path id="Path_631" data-name="Path 631" class="cls-2" d="M118.087,233.547h21.686A3.773,3.773,0,0,1,136,229.773h0A3.773,3.773,0,0,1,139.773,226H118.087a3.773,3.773,0,0,0-3.773,3.773h0A3.773,3.773,0,0,0,118.087,233.547Z" transform="translate(-104.044 -205.695)"/>
  <path id="Path_632" data-name="Path 632" class="cls-3" d="M123.27,229.773h0A3.773,3.773,0,0,1,127.044,226h-8.956a3.773,3.773,0,0,0-3.773,3.773h0a3.773,3.773,0,0,0,3.773,3.773h8.956A3.773,3.773,0,0,1,123.27,229.773Z" transform="translate(-104.044 -205.695)"/>
  <path id="Path_633" data-name="Path 633" class="cls-4" d="M225.094,50.854a4.3,4.3,0,0,0,.209-3.564,3.876,3.876,0,0,0-2.946-2.016,3.877,3.877,0,0,0-.209,3.564A4.4,4.4,0,0,0,225.094,50.854Z" transform="translate(-201.886 -41.195)"/>
  <path id="Path_634" data-name="Path 634" class="cls-5" d="M185,101.357a4.936,4.936,0,0,0-2.555.682,4.936,4.936,0,0,0-2.555-.682,4.533,4.533,0,0,0-4.706,4.728c0,2.917,2.107,6.47,4.706,6.47a3.67,3.67,0,0,0,2.555-1.2,3.67,3.67,0,0,0,2.555,1.2c2.6,0,4.706-3.554,4.706-6.47A4.533,4.533,0,0,0,185,101.357Z" transform="translate(-159.448 -92.251)"/>
  <path id="Path_635" data-name="Path 635" d="M390.9,374.08a.9.9,0,1,0,.635.263A.905.905,0,0,0,390.9,374.08Z" transform="translate(-354.961 -340.471)"/>
  <path id="Path_636" data-name="Path 636" d="M42.227,0h-30.1a.9.9,0,0,0,0,1.8h30.1A1.979,1.979,0,0,1,44.2,3.773v23.18H35.73a2.875,2.875,0,0,1,0-5.75.9.9,0,0,0,0-1.8H29.059a8.818,8.818,0,0,0,2.1-5.572,5.431,5.431,0,0,0-5.6-5.627,6.226,6.226,0,0,0-.985.078A4.492,4.492,0,0,0,24.224,5.7,4.723,4.723,0,0,0,22.17,3.674c-.522-.277-1.488-.7-2.094-.4s-.865,1.319-.965,1.9a4.724,4.724,0,0,0,.345,2.865c.038.078.08.153.123.227a5.4,5.4,0,0,0-4.738,5.568,8.818,8.818,0,0,0,2.1,5.572h-2.9a4.668,4.668,0,0,0-3.678,7.547H1.8V3.773A1.979,1.979,0,0,1,3.773,1.8h.988a.9.9,0,0,0,0-1.8H3.773A3.778,3.778,0,0,0,0,3.773V31.632a3.778,3.778,0,0,0,3.773,3.773H17.7v4.351A5.4,5.4,0,0,0,13,45.1a.9.9,0,0,0,.9.9H32.1a.9.9,0,0,0,.9-.9,5.4,5.4,0,0,0-4.881-5.366v-4.33h4.193a.9.9,0,0,0,0-1.8H3.773A1.979,1.979,0,0,1,1.8,31.632V28.75H44.2v2.882a1.979,1.979,0,0,1-1.977,1.977H39.052a.9.9,0,0,0,0,1.8h3.174A3.778,3.778,0,0,0,46,31.632V3.773A3.778,3.778,0,0,0,42.227,0ZM31.092,44.2H14.908a3.6,3.6,0,0,1,3.48-2.7h9.224A3.6,3.6,0,0,1,31.092,44.2Zm-4.768-4.492H19.5V35.406h6.828ZM20.97,5.1a3.183,3.183,0,0,1,1.641,1.395,3.1,3.1,0,0,1,.07,2.082,3.107,3.107,0,0,1-1.612-1.325A3.183,3.183,0,0,1,20.97,5.1Zm-4.332,8.737A3.654,3.654,0,0,1,20.445,10a4.052,4.052,0,0,1,2.092.553.9.9,0,0,0,.926,0A4.052,4.052,0,0,1,25.555,10a3.654,3.654,0,0,1,3.807,3.83c0,2.455-1.792,5.57-3.806,5.572h0a2.857,2.857,0,0,1-1.918-.938.9.9,0,0,0-1.269,0,2.857,2.857,0,0,1-1.918.938h0C18.429,19.4,16.638,16.29,16.638,13.834ZM11.169,24.078A2.878,2.878,0,0,1,14.044,21.2h5.289a4.657,4.657,0,0,0,0,5.75H14.044A2.878,2.878,0,0,1,11.169,24.078Zm11.843,2.875a2.875,2.875,0,0,1,0-5.75h9.038a4.653,4.653,0,0,0-.916,2.037H23.359a.9.9,0,0,0,0,1.8h7.8a4.654,4.654,0,0,0,.892,1.916Z"/>
  <path id="Path_637" data-name="Path 637" d="M245.263,342.343a.9.9,0,1,0,.635-.263A.905.905,0,0,0,245.263,342.343Z" transform="translate(-222.988 -311.346)"/>
  <path id="Path_638" data-name="Path 638" d="M82.9,1.8a.9.9,0,0,0,.9-.9.9.9,0,1,0-1.534.635A.9.9,0,0,0,82.9,1.8Z" transform="translate(-74.633)"/>
  <path id="Path_639" data-name="Path 639" d="M416.492,436A4.5,4.5,0,0,0,412,440.492v1.438a.9.9,0,0,0,.9.9h7.188a.9.9,0,0,0,.9-.9v-1.437A4.5,4.5,0,0,0,416.492,436Zm2.7,5.031H413.8v-.539a2.7,2.7,0,0,1,5.391,0Z" transform="translate(-374.984 -396.828)"/>
</svg>
