<svg id="group" xmlns="http://www.w3.org/2000/svg" viewBox="0 0 82 82">
  <defs>
    <style>
      .cls-1 {
        fill: #ff826e;
      }

      .cls-2 {
        fill: #b4dd7f;
      }

      .cls-3 {
        fill: #e6e9ed;
      }

      .cls-4 {
        fill: #ccd1d9;
      }

      .cls-5 {
        fill: #b27946;
      }

      .cls-6 {
        fill: #f0d0b4;
      }

      .cls-7 {
        fill: #fcd770;
      }
    </style>
  </defs>
  <path id="Path_712" data-name="Path 712" class="cls-1" d="M310.425,161.193V153.47a5.72,5.72,0,0,0-1.1-3.386,5.8,5.8,0,0,0-2.87-2.116l-1.1-1.1.212-.225L314.393,144s1.323,2.645,3.968,2.645S322.328,144,322.328,144l9.456,2.831a5.3,5.3,0,0,1,3.769,5.079v10.607H326.3v-1.323a7.935,7.935,0,0,0-15.871,0Zm0,0" transform="translate(-254.877 -120.193)"/>
  <path id="Path_713" data-name="Path 713" class="cls-1" d="M33.129,156.71v4.484a7.935,7.935,0,1,0-15.871,0v1.323H8V151.909a5.3,5.3,0,0,1,3.769-5.079L21.226,144s1.323,2.645,3.968,2.645S29.161,144,29.161,144l8.372,2.513A13.961,13.961,0,0,0,33.129,156.71Zm0,0" transform="translate(-6.677 -120.194)"/>
  <path id="Path_714" data-name="Path 714" class="cls-2" d="M320.273,354.516H313.66a2.653,2.653,0,0,0-2.645,2.645v-8.24a7.935,7.935,0,0,0-6.15-7.724l-8.253-1.9-.053-.014a5.519,5.519,0,0,1,1.032-.449L307.047,336s1.323,2.645,3.968,2.645S314.982,336,314.982,336l9.456,2.831a5.3,5.3,0,0,1,3.769,5.079v10.607Zm0,0" transform="translate(-247.531 -280.452)"/>
  <path id="Path_715" data-name="Path 715" class="cls-2" d="M39.609,339.294l-8.266,1.9a7.935,7.935,0,0,0-6.15,7.724v8.24a2.653,2.653,0,0,0-2.645-2.645H8V343.909a5.305,5.305,0,0,1,3.769-5.079L21.226,336s1.323,2.645,3.968,2.645S29.161,336,29.161,336l9.456,2.831a5.519,5.519,0,0,1,1.032.449Zm0,0" transform="translate(-6.677 -280.452)"/>
  <path id="Path_716" data-name="Path 716" class="cls-3" d="M121.258,374.484H112V362.277a7.935,7.935,0,0,1,6.15-7.724l8.266-1.9,2.778-.648h10.581l2.778.674.013-.026,8.253,1.9a7.935,7.935,0,0,1,6.15,7.724v12.207Zm0,0" transform="translate(-93.484 -293.806)"/>
  <path id="Path_717" data-name="Path 717" class="cls-1" d="M230.613,416l1.323,11.9H224l1.323-11.9Zm0,0" transform="translate(-186.968 -347.226)"/>
  <path id="Path_718" data-name="Path 718" class="cls-1" d="M231.455,378.447l-.119.2-1.323,3.968h-5.29l-1.323-3.968-.119-.2L227.368,376Zm0,0" transform="translate(-186.368 -313.839)"/>
  <path id="Path_719" data-name="Path 719" class="cls-4" d="M256.028,352.635l.053.014-.013.026-1.455,7.261-2.526-1.521L248,355.968l5.29-3.968Zm0,0" transform="translate(-207 -293.807)"/>
  <path id="Path_720" data-name="Path 720" class="cls-4" d="M199.239,352.635l2.738-.635,5.29,3.968-4.087,2.447-2.526,1.521-1.455-7.287Zm0,0" transform="translate(-166.267 -293.807)"/>
  <path id="Path_721" data-name="Path 721" class="cls-5" d="M351.871,15.935v1.323h-2.1a4.515,4.515,0,0,1-3.188-1.323,4.515,4.515,0,0,1-3.188,1.323H336V15.935a7.935,7.935,0,1,1,15.871,0Zm0,0" transform="translate(-280.451 -6.677)"/>
  <path id="Path_722" data-name="Path 722" class="cls-5" d="M79.871,17.258H72.478a4.515,4.515,0,0,1-3.188-1.323A4.515,4.515,0,0,1,66.1,17.258H64V15.935a7.935,7.935,0,0,1,15.871,0Zm0,0" transform="translate(-53.419 -6.677)"/>
  <path id="Path_723" data-name="Path 723" class="cls-6" d="M360,121.52a7.883,7.883,0,0,0,7.935,0v3.717s-1.323,2.645-3.968,2.645S360,125.237,360,125.237Zm0,0" transform="translate(-300.484 -101.43)"/>
  <path id="Path_724" data-name="Path 724" class="cls-6" d="M347.9,66.832a7.883,7.883,0,0,1-7.935,0A7.914,7.914,0,0,1,336,59.968V57.323h7.393A4.515,4.515,0,0,0,346.581,56a4.515,4.515,0,0,0,3.188,1.323h2.1v2.645a7.863,7.863,0,0,1-2.327,5.608,7.62,7.62,0,0,1-1.64,1.256Zm0,0" transform="translate(-280.452 -46.742)"/>
  <path id="Path_725" data-name="Path 725" class="cls-6" d="M88,121.52l3.968,1.071a7.746,7.746,0,0,0,3.968-1.071v3.717s-1.323,2.645-3.968,2.645S88,125.237,88,125.237Zm0,0" transform="translate(-73.452 -101.43)"/>
  <path id="Path_726" data-name="Path 726" class="cls-6" d="M75.9,66.832A7.745,7.745,0,0,1,71.935,67.9l-3.968-1.071a7.619,7.619,0,0,1-1.64-1.256A7.863,7.863,0,0,1,64,59.968V57.323h2.1A4.515,4.515,0,0,0,69.29,56a4.515,4.515,0,0,0,3.188,1.323h7.393v2.645A7.914,7.914,0,0,1,75.9,66.832Zm0,0" transform="translate(-53.419 -46.742)"/>
  <path id="Path_727" data-name="Path 727" class="cls-5" d="M341.29,207.935a4.515,4.515,0,0,1-3.188,1.323H336v-1.323a7.935,7.935,0,1,1,15.871,0v1.323h-7.393a4.515,4.515,0,0,1-3.188-1.323Zm0,0" transform="translate(-280.452 -166.935)"/>
  <path id="Path_728" data-name="Path 728" class="cls-5" d="M77.768,209.258a4.515,4.515,0,0,1-3.188-1.323,4.515,4.515,0,0,1-3.188,1.323H64v-1.323a7.935,7.935,0,0,1,15.871,0v1.323Zm0,0" transform="translate(-53.419 -166.935)"/>
  <path id="Path_729" data-name="Path 729" class="cls-7" d="M164.4,139.835a14,14,0,0,1,15-2.764,14.16,14.16,0,0,1,4.55,3.042l1.177,1.177a5.8,5.8,0,0,1,2.87,2.116,5.72,5.72,0,0,1,1.1,3.386v10.369c0-.172-.013-.344-.026-.516a5.412,5.412,0,0,0-5.264-4.761,1.311,1.311,0,0,0-.225-.013h-2.42l-1.323-2.645a15.8,15.8,0,0,1-8.742,2.645h-5.582a1.311,1.311,0,0,0-.225.013,5.412,5.412,0,0,0-5.264,4.761c-.014.172-.026.344-.026.516v-7.129a13.962,13.962,0,0,1,4.4-10.2Zm0,0" transform="translate(-133.549 -113.516)"/>
  <g id="Group_158" data-name="Group 158" transform="translate(10.581 35.71)">
    <path id="Path_730" data-name="Path 730" class="cls-6" d="M360,313.52a7.883,7.883,0,0,0,7.935,0v3.717s-1.323,2.645-3.968,2.645S360,317.237,360,317.237Zm0,0" transform="translate(-311.065 -297.398)"/>
    <path id="Path_731" data-name="Path 731" class="cls-6" d="M88,313.52l3.968,1.071a7.746,7.746,0,0,0,3.968-1.071v3.717s-1.323,2.645-3.968,2.645S88,317.237,88,317.237Zm0,0" transform="translate(-84.032 -297.398)"/>
    <path id="Path_732" data-name="Path 732" class="cls-6" d="M75.9,258.832a7.745,7.745,0,0,1-3.968,1.071l-3.968-1.071a7.619,7.619,0,0,1-1.64-1.256A7.863,7.863,0,0,1,64,251.968v-2.645h7.393A4.516,4.516,0,0,0,74.581,248a4.515,4.515,0,0,0,3.188,1.323h2.1v2.645a7.914,7.914,0,0,1-3.968,6.864Zm0,0" transform="translate(-64 -242.71)"/>
    <path id="Path_733" data-name="Path 733" class="cls-6" d="M339.968,258.832A7.914,7.914,0,0,1,336,251.968v-2.645h2.1A4.515,4.515,0,0,0,341.29,248a4.515,4.515,0,0,0,3.188,1.323h7.393v2.645a7.863,7.863,0,0,1-2.327,5.608,7.62,7.62,0,0,1-1.64,1.256,7.883,7.883,0,0,1-7.935,0Zm0,0" transform="translate(-291.032 -242.71)"/>
    <path id="Path_734" data-name="Path 734" class="cls-6" d="M216,330.7v-3.968l.119-.251c3.9,1.508,4.537,1.574,5.172,1.574a9.219,9.219,0,0,0,5.171-1.574l.119.251V330.7l-5.29,3.968Zm0,0" transform="translate(-190.871 -308.216)"/>
    <path id="Path_735" data-name="Path 735" class="cls-6" d="M307.487,237.356v.013a5.286,5.286,0,0,1-5.29,5.277l-.357-.092A9.014,9.014,0,0,0,302.2,240v-7.923a5.412,5.412,0,0,1,5.264,4.761C307.474,237.012,307.487,237.184,307.487,237.356Zm0,0" transform="translate(-262.52 -229.42)"/>
    <path id="Path_736" data-name="Path 736" class="cls-6" d="M165.29,240a9.015,9.015,0,0,0,.357,2.553l-.357.092a5.286,5.286,0,0,1-5.29-5.277v-.013c0-.172.013-.344.026-.516a5.412,5.412,0,0,1,5.264-4.761Zm0,0" transform="translate(-144.129 -229.42)"/>
    <path id="Path_737" data-name="Path 737" class="cls-6" d="M210.516,218.658v7.923a9.014,9.014,0,0,1-.357,2.553,9.245,9.245,0,0,1-8.9,6.705c-.635,0-1.27-.066-5.172-1.574a9.591,9.591,0,0,1-1.376-1.137,9.212,9.212,0,0,1-2.354-3.994,9.014,9.014,0,0,1-.357-2.553v-7.923a1.313,1.313,0,0,1,.225-.013h5.582A15.8,15.8,0,0,0,206.548,216l1.323,2.645h2.42a1.313,1.313,0,0,1,.225.013Zm0,0" transform="translate(-170.839 -216)"/>
  </g>
  <path id="Path_738" data-name="Path 738" d="M82,42.323V31.71a6.572,6.572,0,0,0-4.712-6.334l-8.513-2.554V20.813a9.248,9.248,0,0,0,3.968-7.586V9.258a9.258,9.258,0,0,0-18.516,0v3.968a9.244,9.244,0,0,0,3.968,7.586v2.009l-7.5,2.251a15.284,15.284,0,0,0-20.158-.231l-6.727-2.019V20.813a9.248,9.248,0,0,0,3.968-7.586V9.258a9.258,9.258,0,1,0-18.516,0v3.968a9.244,9.244,0,0,0,3.968,7.586v2.009L4.712,25.375A6.575,6.575,0,0,0,0,31.71V42.323H2.645V31.71a3.941,3.941,0,0,1,2.828-3.8l8.516-2.555a5.752,5.752,0,0,0,4.527,2.419,5.752,5.752,0,0,0,4.527-2.419l5.424,1.627a15.266,15.266,0,0,0-3.217,7.684A9.246,9.246,0,0,0,9.258,41v3.968a9.244,9.244,0,0,0,3.968,7.586v2.009L4.712,57.117A6.575,6.575,0,0,0,0,63.452V75.387H15.871a1.325,1.325,0,0,1,1.323,1.323V82H64.806V76.71a1.325,1.325,0,0,1,1.323-1.323H82V63.452a6.572,6.572,0,0,0-4.712-6.334l-8.513-2.554V52.555a9.248,9.248,0,0,0,3.968-7.586V41a9.25,9.25,0,0,0-15.871-6.468V33.28a7.112,7.112,0,0,0-3.635-6.207l5.72-1.717a5.446,5.446,0,0,0,9.054,0l8.517,2.555a3.942,3.942,0,0,1,2.827,3.8V42.323ZM18.516,2.645a6.621,6.621,0,0,1,6.613,6.613H19.064a3.215,3.215,0,0,1-2.258-.935l-.935-.935-.935.935a3.215,3.215,0,0,1-2.258.935H11.9a6.621,6.621,0,0,1,6.613-6.613ZM11.9,13.226V11.9h.775a5.792,5.792,0,0,0,3.193-.948,5.792,5.792,0,0,0,3.193.948h6.065v1.323a6.613,6.613,0,0,1-13.226,0Zm6.613,11.9a3.384,3.384,0,0,1-2.645-1.686V22.1a9.179,9.179,0,0,0,5.29,0v1.348a3.379,3.379,0,0,1-2.645,1.687ZM54.871,48.343a9.3,9.3,0,0,0,3.323,4.212v2.009l-8.512,2.554a6.5,6.5,0,0,0-.819.312l-1.25-.288V54.536A10.636,10.636,0,0,0,50.824,50.2a6.586,6.586,0,0,0,4.047-1.856ZM41,56.871a10.508,10.508,0,0,0,3.968-.779v1.44L41,60.508l-3.968-2.976v-1.44A10.508,10.508,0,0,0,41,56.871Zm-5.592,2.75,3.224,2.419-3.317,1.99-.839-4.194ZM39.539,70.1h2.923l1.029,9.258H38.51Zm3.153-2.645H39.307l-.759-2.278L41,63.7l2.451,1.47Zm.676-5.412,3.224-2.419.931.214-.839,4.194Zm9.827-15.726a3.966,3.966,0,0,1-1.671,1.069,10.726,10.726,0,0,0,.057-1.093V39.962a3.993,3.993,0,0,1,2.625,3.288,3.945,3.945,0,0,1-1.011,3.064Zm-4.259-.024a7.935,7.935,0,0,1-15.871,0V39.677h4.49a17.009,17.009,0,0,0,8.194-2.094L46.8,39.677h2.14ZM30.476,47.383a3.91,3.91,0,0,1-.057-7.42V46.29a10.726,10.726,0,0,0,.057,1.093Zm.7,2.816a10.613,10.613,0,0,0,3.212,4.338v2.606l-1.25.288a6.845,6.845,0,0,0-.818-.312l-8.513-2.554V52.555a9.307,9.307,0,0,0,3.323-4.212A6.586,6.586,0,0,0,31.176,50.2ZM18.516,34.387A6.621,6.621,0,0,1,25.129,41h-.775a3.215,3.215,0,0,1-2.258-.935l-.935-.935-.935.935A3.215,3.215,0,0,1,17.968,41H11.9a6.621,6.621,0,0,1,6.613-6.613ZM11.9,44.968V43.645h6.065a5.792,5.792,0,0,0,3.193-.948,5.792,5.792,0,0,0,3.193.948h.775v1.323a6.613,6.613,0,1,1-13.226,0Zm6.613,9.258a9.2,9.2,0,0,0,2.645-.39v1.348a3.379,3.379,0,0,1-2.645,1.687,3.384,3.384,0,0,1-2.645-1.686V53.837A9.247,9.247,0,0,0,18.516,54.226ZM15.871,72.742h-5.29V63.484H7.935v9.258H2.645v-9.29a3.941,3.941,0,0,1,2.828-3.8L13.989,57.1a5.752,5.752,0,0,0,4.527,2.419A5.752,5.752,0,0,0,23.043,57.1L28.058,58.6l-3.689.851a9.217,9.217,0,0,0-7.176,9.021V70.1h2.645V68.474a6.585,6.585,0,0,1,5.126-6.444l6.933-1.6,1.559,7.8,2.767-1.66.783,2.349L35.848,79.355H29.1V68.774H26.452V79.355H19.839V76.71a3.973,3.973,0,0,0-3.968-3.968Zm60.656-13.09a3.941,3.941,0,0,1,2.828,3.8v9.29h-5.29V63.484H71.419v9.258h-5.29a3.973,3.973,0,0,0-3.968,3.968v2.645H55.548V68.774H52.9V79.355H46.152l-1.16-10.438.783-2.349,2.767,1.66,1.559-7.8,6.935,1.6a6.585,6.585,0,0,1,5.126,6.444V70.1h2.645V68.474a9.217,9.217,0,0,0-7.176-9.021l-3.689-.85L58.957,57.1a5.445,5.445,0,0,0,9.054,0Zm-10.4-4.468a2.918,2.918,0,0,1-5.29,0V53.836a9.164,9.164,0,0,0,5.29,0Zm-2.645-3.6a6.621,6.621,0,0,1-6.613-6.613V43.645h.775a5.792,5.792,0,0,0,3.193-.948,5.792,5.792,0,0,0,3.193.948H70.1v1.323A6.621,6.621,0,0,1,63.484,51.581Zm0-17.194A6.621,6.621,0,0,1,70.1,41H64.032a3.215,3.215,0,0,1-2.258-.935l-.935-.935-.935.935A3.215,3.215,0,0,1,57.646,41h-.775a6.621,6.621,0,0,1,6.613-6.613Zm-9.258,4.08a6.948,6.948,0,0,0-4.2-1.435h-1.6L46.8,33.779l-1.246.83a14.379,14.379,0,0,1-8,2.423H31.969a6.948,6.948,0,0,0-4.2,1.435V36.511a12.706,12.706,0,0,1,21.689-8.984l1.4,1.4.3.1a4.475,4.475,0,0,1,3.063,4.249ZM63.484,2.645A6.621,6.621,0,0,1,70.1,9.258h-.775a3.215,3.215,0,0,1-2.258-.935l-.935-.935-.935.935a3.215,3.215,0,0,1-2.258.935H56.871a6.621,6.621,0,0,1,6.613-6.613ZM56.871,13.226V11.9h6.065a5.792,5.792,0,0,0,3.193-.948,5.792,5.792,0,0,0,3.193.948H70.1v1.323a6.613,6.613,0,1,1-13.226,0Zm6.613,11.9a3.382,3.382,0,0,1-2.645-1.686V22.094a9.164,9.164,0,0,0,5.29,0v1.348A3.379,3.379,0,0,1,63.484,25.129Zm0,0" transform="translate(0 0)"/>
  <path id="Path_739" data-name="Path 739" d="M184,0h2.645V2.645H184Zm0,0" transform="translate(-153.581)"/>
  <path id="Path_740" data-name="Path 740" d="M184,32h2.645V46.548H184Zm0,0" transform="translate(-153.581 -26.71)"/>
  <path id="Path_741" data-name="Path 741" d="M296,0h2.645V2.645H296Zm0,0" transform="translate(-247.065)"/>
  <path id="Path_742" data-name="Path 742" d="M296,32h2.645V46.548H296Zm0,0" transform="translate(-247.065 -26.71)"/>
  <path id="Path_743" data-name="Path 743" d="M216,32h2.645v9.258H216Zm0,0" transform="translate(-180.29 -26.71)"/>
  <path id="Path_744" data-name="Path 744" d="M216,104h2.645v2.645H216Zm0,0" transform="translate(-180.29 -86.806)"/>
  <path id="Path_745" data-name="Path 745" d="M264,32h2.645v9.258H264Zm0,0" transform="translate(-220.355 -26.71)"/>
  <path id="Path_746" data-name="Path 746" d="M264,104h2.645v2.645H264Zm0,0" transform="translate(-220.355 -86.806)"/>
</svg>
