<svg id="hired" xmlns="http://www.w3.org/2000/svg" viewBox="0 0 82 82">
  <defs>
    <style>
      .cls-1 {
        fill: #ff826e;
      }

      .cls-2 {
        fill: #ffbc53;
      }

      .cls-3 {
        fill: #fff;
      }

      .cls-4 {
        fill: #5cc1ff;
      }

      .cls-5 {
        fill: #ffcdac;
      }

      .cls-6 {
        fill: #7accff;
      }

      .cls-7 {
        fill: #a8cf77;
      }
    </style>
  </defs>
  <path id="Path_764" data-name="Path 764" class="cls-1" d="M14.491,0A14.491,14.491,0,1,1,0,14.491,14.491,14.491,0,0,1,14.491,0Z" transform="translate(26.509 1.602)"/>
  <path id="Path_747" data-name="Path 747" class="cls-2" d="M27.424,417.17H18.841A8.841,8.841,0,0,0,10,426.011v4.745H36.266v-4.745A8.841,8.841,0,0,0,27.424,417.17Z" transform="translate(-8.398 -350.358)"/>
  <path id="Path_748" data-name="Path 748" class="cls-3" d="M71.209,417.17l-4.9,4.9-4.9-4.9Z" transform="translate(-51.576 -350.358)"/>
  <path id="Path_749" data-name="Path 749" class="cls-4" d="M60.319,321h7.158v3.552a3.336,3.336,0,0,1-3.336,3.336H55.92V325.4A4.4,4.4,0,0,1,60.319,321Z" transform="translate(-46.964 -269.59)"/>
  <path id="Path_750" data-name="Path 750" class="cls-5" d="M67.477,364.008v2.736a5.779,5.779,0,0,1-5.778,5.778h0a5.779,5.779,0,0,1-5.778-5.778v-2.736Z" transform="translate(-46.964 -305.71)"/>
  <path id="Path_751" data-name="Path 751" class="cls-6" d="M355.424,417.17h-8.583A8.841,8.841,0,0,0,338,426.011v4.745h26.266v-4.745A8.841,8.841,0,0,0,355.424,417.17Z" transform="translate(-283.867 -350.358)"/>
  <path id="Path_752" data-name="Path 752" class="cls-3" d="M399.209,417.17l-4.9,4.9-4.9-4.9Z" transform="translate(-327.044 -350.358)"/>
  <path id="Path_753" data-name="Path 753" class="cls-4" d="M388.319,321h7.158v3.552a3.336,3.336,0,0,1-3.336,3.336H383.92V325.4A4.4,4.4,0,0,1,388.319,321Z" transform="translate(-322.433 -269.59)"/>
  <path id="Path_754" data-name="Path 754" class="cls-5" d="M395.477,364.008v2.736a5.779,5.779,0,0,1-5.778,5.778h0a5.779,5.779,0,0,1-5.778-5.778v-2.736Z" transform="translate(-322.433 -305.71)"/>
  <path id="Path_755" data-name="Path 755" class="cls-7" d="M168.234,386.706H156.569a12.017,12.017,0,0,0-12.017,12.017v6.449h35.7v-6.449A12.016,12.016,0,0,0,168.234,386.706Z" transform="translate(-121.401 -324.773)"/>
  <path id="Path_756" data-name="Path 756" class="cls-3" d="M227.743,386.706l-6.658,6.658-6.658-6.658Z" transform="translate(-180.084 -324.773)"/>
  <path id="Path_757" data-name="Path 757" class="cls-2" d="M212.943,256h9.728v4.828a4.534,4.534,0,0,1-4.534,4.534H206.964v-3.383A5.979,5.979,0,0,1,212.943,256Z" transform="translate(-173.817 -215)"/>
  <path id="Path_758" data-name="Path 758" class="cls-5" d="M222.67,314.453v3.718a7.854,7.854,0,0,1-7.854,7.854h0a7.854,7.854,0,0,1-7.854-7.854v-3.718Z" transform="translate(-173.817 -264.091)"/>
  <path id="Path_759" data-name="Path 759" d="M73.247,271.951a7.338,7.338,0,0,0,1.4-4.316v-9.624a1.6,1.6,0,0,0-1.6-1.6H65.886a6.008,6.008,0,0,0-6,6v5.225a7.338,7.338,0,0,0,1.4,4.313,10.313,10.313,0,0,0-3.131,1.042,13.627,13.627,0,0,0-10.06-6l-.049-.012a9.416,9.416,0,0,0,2.413-6.3V247.6a1.6,1.6,0,0,0-1.6-1.6H39.125a7.589,7.589,0,0,0-7.581,7.581v7.1a9.416,9.416,0,0,0,2.413,6.3l-.049.012a13.626,13.626,0,0,0-10.061,6,10.324,10.324,0,0,0-3.131-1.042,7.339,7.339,0,0,0,1.4-4.314v-9.624a1.6,1.6,0,0,0-1.6-1.6H13.355a6.008,6.008,0,0,0-6,6v5.225a7.337,7.337,0,0,0,1.4,4.316A10.459,10.459,0,0,0,0,282.255V287a1.6,1.6,0,0,0,1.6,1.6H80.4A1.6,1.6,0,0,0,82,287v-4.745A10.459,10.459,0,0,0,73.247,271.951Zm-1.8-4.316a4.177,4.177,0,1,1-8.354,0V266.5h6.619a4.908,4.908,0,0,0,1.734-.315v1.45Zm-3.144,7.38-1.033,1.033-1.033-1.033Zm-5.209-12.6a2.8,2.8,0,0,1,2.8-2.8h5.556v1.951a1.736,1.736,0,0,1-1.734,1.734H63.089Zm-28.341-3.846H44.32a6.1,6.1,0,0,0,2.932-.747v2.864a6.252,6.252,0,0,1-12.5,0v-2.117Zm9.044,11.572L41,272.928l-2.792-2.792Zm-9.044-16.556a4.382,4.382,0,0,1,4.377-4.377h8.127v3.226a2.936,2.936,0,0,1-2.932,2.932H34.748v-1.781ZM18.911,267.635a4.177,4.177,0,1,1-8.354,0V266.5h6.619a4.908,4.908,0,0,0,1.734-.315Zm-3.144,7.38-1.033,1.033L13.7,275.016Zm-5.209-12.6a2.8,2.8,0,0,1,2.8-2.8h5.556v1.951a1.736,1.736,0,0,1-1.734,1.734H10.557ZM3.2,282.255a7.25,7.25,0,0,1,6.066-7.143l4.333,4.333a1.6,1.6,0,0,0,2.265,0l4.334-4.335a7.163,7.163,0,0,1,2.188.732,13.553,13.553,0,0,0-.84,4.708V285.4H3.2Zm50.93,3.143H24.753v-3.2H35.181a1.6,1.6,0,1,0,0-3.2H24.87a10.437,10.437,0,0,1,8.9-8.76l6.093,6.093a1.6,1.6,0,0,0,2.265,0l6.093-6.093a10.429,10.429,0,0,1,9.022,10.319V285.4Zm24.664,0H60.45v-4.847a13.551,13.551,0,0,0-.84-4.709,7.143,7.143,0,0,1,2.188-.732l4.335,4.335a1.6,1.6,0,0,0,2.265,0l4.333-4.333a7.251,7.251,0,0,1,6.066,7.143V285.4Z" transform="translate(0 -206.602)"/>
  <path id="Path_760" data-name="Path 760" d="M204.256,67.34a1.6,1.6,0,0,0,0,2.265l4.53,4.53a1.6,1.6,0,0,0,2.265,0l8.992-8.991a1.6,1.6,0,0,0-2.265-2.265l-7.859,7.859-3.4-3.4A1.6,1.6,0,0,0,204.256,67.34Z" transform="translate(-171.149 -52.414)"/>
  <path id="Path_761" data-name="Path 761" d="M171.614,38.738a16.095,16.095,0,0,0,6.548-30.8,1.6,1.6,0,1,0-1.3,2.925,12.889,12.889,0,1,1-10.543.025A1.6,1.6,0,0,0,165,7.973a16.095,16.095,0,0,0,6.617,30.765Z" transform="translate(-130.614 -6.553)"/>
  <path id="Path_762" data-name="Path 762" d="M247.6,3.2h.05a1.6,1.6,0,0,0,.007-3.2H247.6a1.6,1.6,0,0,0,0,3.2Z" transform="translate(-206.602)"/>
  <path id="Path_763" data-name="Path 763" d="M247.6,452a1.6,1.6,0,1,0,1.132.469A1.614,1.614,0,0,0,247.6,452Z" transform="translate(-206.602 -379.609)"/>
</svg>
