<svg xmlns="http://www.w3.org/2000/svg" viewBox="0 0 82 82">
  <defs>
    <style>
      .cls-1 {
        fill: #b4dd7f;
      }

      .cls-2 {
        fill: #e6e9ed;
      }

      .cls-3 {
        fill: #fcd770;
      }

      .cls-4 {
        fill: #f0d0b4;
      }
    </style>
  </defs>
  <g id="instruction" transform="translate(0 0)">
    <path id="Path_765" data-name="Path 765" class="cls-1" d="M213.226,91.645a5.289,5.289,0,0,1-5.29,5.29,4.843,4.843,0,0,1-1.323-.172l-.251.053a15.922,15.922,0,0,0-4.431-8.531L200,86.355h31.742V48H241V91.645Zm0,0" transform="translate(-166.936 -40.064)"/>
    <path id="Path_766" data-name="Path 766" class="cls-1" d="M65.194,86.355v5.29H48V48h9.258V86.355Zm0,0" transform="translate(-40.065 -40.064)"/>
    <g id="Group_159" data-name="Group 159" transform="translate(17.194 1.323)">
      <path id="Path_767" data-name="Path 767" class="cls-2" d="M127.806,160v19.839h-7.935V171.9a6.593,6.593,0,0,0-6.613-6.613,1.327,1.327,0,0,0-1.323,1.323v13.226H104V160Zm0,0" transform="translate(-104 -134.871)"/>
      <path id="Path_768" data-name="Path 768" class="cls-2" d="M248,31.806V18.581A10.578,10.578,0,0,1,258.581,8h13.226V52.968H248Zm0,0" transform="translate(-224.194 -8)"/>
      <path id="Path_769" data-name="Path 769" class="cls-2" d="M117.226,8a10.578,10.578,0,0,1,10.581,10.581V33.129H104V8Zm0,0" transform="translate(-104 -8)"/>
    </g>
    <path id="Path_770" data-name="Path 770" class="cls-3" d="M192,424v10.581h19.839V424Zm0,0" transform="translate(-160.258 -353.903)"/>
    <path id="Path_771" data-name="Path 771" class="cls-4" d="M166.3,217.01l.251-.053a4.843,4.843,0,0,0,1.323.172,5.289,5.289,0,0,0,5.29-5.29h10.581V216a5.529,5.529,0,0,1-.449,2.156L178.9,228a5.529,5.529,0,0,0-.449,2.156v.2H158.612a5.449,5.449,0,0,0-.661-2.526l-5.29-9.5a5.346,5.346,0,0,1-.661-2.579V193.322A1.327,1.327,0,0,1,153.322,192a6.593,6.593,0,0,1,6.613,6.613v7.935l1.931,1.931a15.922,15.922,0,0,1,4.431,8.531Zm0,0" transform="translate(-126.871 -160.257)"/>
    <path id="Path_772" data-name="Path 772" d="M52.9,79.355V69.9a3.928,3.928,0,0,1,.342-1.611l4.378-9.85a6.593,6.593,0,0,0,.57-2.688V52.9H75.387V6.613H66.129V0H51.581A11.917,11.917,0,0,0,41,6.453,11.917,11.917,0,0,0,30.419,0H15.871V6.613H6.613V52.9H23.806v2.6a6.635,6.635,0,0,0,.832,3.212l5.283,9.507a3.976,3.976,0,0,1,.5,1.926v9.21H0V82H82V79.355Zm19.839-70.1v41H44.968v1.323A3.973,3.973,0,0,1,41,55.548a3.813,3.813,0,0,1-.49-.062,17.137,17.137,0,0,0-4.282-7.873h29.9V9.258ZM18.516,2.645h11.9A9.269,9.269,0,0,1,39.677,11.9V22.484h2.645V11.9a9.269,9.269,0,0,1,9.258-9.258h11.9V44.968H42.323V25.129H39.677V44.968h-5.29V38.355a7.943,7.943,0,0,0-7.935-7.935,2.648,2.648,0,0,0-2.645,2.645v11.9h-5.29ZM9.258,50.258v-41h6.613V47.613h7.935v2.645Zm17.692,7.17a3.985,3.985,0,0,1-.5-1.927V33.065a5.3,5.3,0,0,1,5.29,5.29v8.483l2.325,2.325a14.545,14.545,0,0,1,4.288,10.353H41c0-.446-.032-.886-.065-1.326.022,0,.043,0,.065,0a6.623,6.623,0,0,0,6.479-5.29h8.069v2.845a3.928,3.928,0,0,1-.342,1.611l-4.378,9.85a6.606,6.606,0,0,0-.454,1.565H32.908a6.63,6.63,0,0,0-.675-1.841ZM33.065,76.71h11.9V74.065h-11.9V71.419H50.258v2.645H47.613V76.71h2.645v2.645H33.065Zm0,0"/>
    <path id="Path_773" data-name="Path 773" d="M312,208h2.645v2.645H312Zm0,0" transform="translate(-260.419 -173.613)"/>
    <path id="Path_774" data-name="Path 774" d="M344,208h2.645v2.645H344Zm0,0" transform="translate(-287.129 -173.613)"/>
    <path id="Path_775" data-name="Path 775" d="M280,208h2.645v2.645H280Zm0,0" transform="translate(-233.71 -173.613)"/>
    <path id="Path_776" data-name="Path 776" d="M272,240h15.871v2.645H272Zm0,0" transform="translate(-227.032 -200.323)"/>
    <path id="Path_777" data-name="Path 777" d="M272,176h15.871v2.645H272Zm0,0" transform="translate(-227.032 -146.903)"/>
    <path id="Path_778" data-name="Path 778" d="M272,120h15.871v2.645H272Zm0,0" transform="translate(-227.032 -100.161)"/>
    <path id="Path_779" data-name="Path 779" d="M272,88h15.871v2.645H272Zm0,0" transform="translate(-227.032 -73.452)"/>
    <path id="Path_780" data-name="Path 780" d="M272,56h15.871v2.645H272Zm0,0" transform="translate(-227.032 -46.742)"/>
    <path id="Path_781" data-name="Path 781" d="M168,88h2.645v2.645H168Zm0,0" transform="translate(-140.226 -73.452)"/>
    <path id="Path_782" data-name="Path 782" d="M200,88h2.645v2.645H200Zm0,0" transform="translate(-166.936 -73.452)"/>
    <path id="Path_783" data-name="Path 783" d="M136,88h2.645v2.645H136Zm0,0" transform="translate(-113.516 -73.452)"/>
    <path id="Path_784" data-name="Path 784" d="M128,56h15.871v2.645H128Zm0,0" transform="translate(-106.839 -46.742)"/>
    <path id="Path_785" data-name="Path 785" d="M128,120h15.871v2.645H128Zm0,0" transform="translate(-106.839 -100.161)"/>
    <path id="Path_786" data-name="Path 786" d="M128,152h15.871v2.645H128Zm0,0" transform="translate(-106.839 -126.871)"/>
  </g>
</svg>
