<svg xmlns="http://www.w3.org/2000/svg" viewBox="0 0 42.936 50.001">
  <defs>
    <style>
      .cls-1 {
        fill: #e5eaed;
      }

      .cls-2 {
        fill: #93ca66;
      }

      .cls-3 {
        fill: #4cc1eb;
      }

      .cls-4 {
        fill: #b78e3c;
      }

      .cls-5 {
        fill: #abb0b7;
      }
    </style>
  </defs>
  <g id="login" transform="translate(-36.174)">
    <path id="Path_564" data-name="Path 564" class="cls-1" d="M78.566,307.744H50.838a4.664,4.664,0,0,0-4.664,4.664h0a4.664,4.664,0,0,0,4.664,4.664h6.057l1.97-1.6.65,1.6H78.566Z" transform="translate(-9.023 -277.69)"/>
    <path id="Path_565" data-name="Path 565" class="cls-2" d="M381.789,317.071a4.664,4.664,0,0,0,4.664-4.664h0a4.664,4.664,0,0,0-4.664-4.664h-3.927v9.327h3.927Z" transform="translate(-308.319 -277.69)"/>
    <g id="Group_148" data-name="Group 148" transform="translate(44.756 0.977)">
      <path id="Path_566" data-name="Path 566" class="cls-3" d="M231.6,270.776l-.128-.023Z" transform="translate(-220.986 -245.288)"/>
      <path id="Path_567" data-name="Path 567" class="cls-3" d="M225.618,269.533l-.129-.029Z" transform="translate(-215.582 -244.161)"/>
      <path id="Path_568" data-name="Path 568" class="cls-3" d="M228.585,270.187l-.132-.027Z" transform="translate(-218.257 -244.753)"/>
      <path id="Path_569" data-name="Path 569" class="cls-3" d="M221.721,268.558l-.214-.055Z" transform="translate(-211.989 -243.258)"/>
      <path id="Path_570" data-name="Path 570" class="cls-3" d="M234.736,271.312l-.113-.018Z" transform="translate(-223.824 -245.776)"/>
      <path id="Path_571" data-name="Path 571" class="cls-3" d="M238.6,271.872l-.051-.006Z" transform="translate(-227.366 -246.293)"/>
      <path id="Path_572" data-name="Path 572" class="cls-3" d="M186.338,253.287l-.2-.12Z" transform="translate(-180.077 -229.42)"/>
      <path id="Path_573" data-name="Path 573" class="cls-3" d="M189.237,255q-.439-.218-.859-.468Q188.8,254.779,189.237,255Z" transform="translate(-182.096 -230.649)"/>
      <path id="Path_574" data-name="Path 574" class="cls-3" d="M326.213,251.644l-.117.076Z" transform="translate(-306.364 -228.045)"/>
      <path id="Path_575" data-name="Path 575" class="cls-3" d="M197.9,259.674l-.184-.088Z" transform="translate(-190.517 -235.212)"/>
      <path id="Path_576" data-name="Path 576" class="cls-3" d="M200.488,260.905l-.181-.082Z" transform="translate(-192.86 -236.328)"/>
      <path id="Path_577" data-name="Path 577" class="cls-3" d="M175.988,246.121q-.425-.278-.827-.589Q175.562,245.842,175.988,246.121Z" transform="translate(-170.169 -222.53)"/>
      <path id="Path_578" data-name="Path 578" class="cls-4" d="M133.024,23.877a5.529,5.529,0,1,1,7.818,0,7.891,7.891,0,0,1,3.987,6.859v2.193A12.84,12.84,0,1,0,129.037,33V30.736A7.891,7.891,0,0,1,133.024,23.877Z" transform="translate(-124.047 -10)"/>
      <path id="Path_579" data-name="Path 579" class="cls-3" d="M203.061,262.059l-.189-.081Z" transform="translate(-195.174 -237.37)"/>
      <path id="Path_580" data-name="Path 580" class="cls-3" d="M183.988,251.8l-.2-.125Z" transform="translate(-177.957 -228.071)"/>
      <path id="Path_581" data-name="Path 581" class="cls-3" d="M218.523,267.667l-.148-.043Z" transform="translate(-209.163 -242.465)"/>
      <path id="Path_582" data-name="Path 582" class="cls-3" d="M333.468,246.57l-.116.086Z" transform="translate(-312.912 -223.467)"/>
      <path id="Path_583" data-name="Path 583" class="cls-3" d="M331.08,248.3l-.118.084Z" transform="translate(-310.755 -225.032)"/>
      <path id="Path_584" data-name="Path 584" class="cls-3" d="M335.849,244.789l-.108.084Z" transform="translate(-315.067 -221.86)"/>
      <path id="Path_585" data-name="Path 585" class="cls-3" d="M205.331,263.02q-.211-.08-.419-.166Q205.12,262.941,205.331,263.02Z" transform="translate(-197.015 -238.161)"/>
      <path id="Path_586" data-name="Path 586" class="cls-3" d="M328.666,249.992l-.119.081Z" transform="translate(-308.576 -226.555)"/>
      <path id="Path_587" data-name="Path 587" class="cls-3" d="M210.036,264.866l-.167-.06Z" transform="translate(-201.488 -239.922)"/>
      <path id="Path_588" data-name="Path 588" class="cls-3" d="M212.818,265.855l-.159-.053Z" transform="translate(-204.006 -240.821)"/>
      <path id="Path_589" data-name="Path 589" class="cls-3" d="M215.644,266.788l-.154-.048Z" transform="translate(-206.56 -241.667)"/>
      <path id="Path_590" data-name="Path 590" class="cls-3" d="M275.5,271.326l-.08.013Z" transform="translate(-260.635 -245.805)"/>
      <path id="Path_591" data-name="Path 591" class="cls-3" d="M291.328,267.846l-.065.019Z" transform="translate(-274.933 -242.665)"/>
      <path id="Path_592" data-name="Path 592" class="cls-3" d="M294.468,266.768l-.109.035Z" transform="translate(-277.727 -241.692)"/>
      <path id="Path_593" data-name="Path 593" class="cls-3" d="M297.333,265.784l-.12.041Z" transform="translate(-280.302 -240.805)"/>
      <path id="Path_594" data-name="Path 594" class="cls-3" d="M284.6,269.479l-.116.026Z" transform="translate(-268.815 -244.139)"/>
      <path id="Path_595" data-name="Path 595" class="cls-3" d="M300.176,264.763l-.121.044Z" transform="translate(-282.866 -239.883)"/>
      <path id="Path_596" data-name="Path 596" class="cls-3" d="M287.67,268.751l-.1.026Z" transform="translate(-271.598 -243.482)"/>
      <path id="Path_597" data-name="Path 597" class="cls-3" d="M323.02,253.333l-.176.107Z" transform="translate(-303.43 -229.569)"/>
      <path id="Path_598" data-name="Path 598" class="cls-3" d="M281.579,270.144l-.117.024Z" transform="translate(-266.089 -244.739)"/>
      <path id="Path_599" data-name="Path 599" class="cls-3" d="M312.253,259.57l-.121.059Z" transform="translate(-293.764 -235.197)"/>
      <path id="Path_600" data-name="Path 600" class="cls-3" d="M320.153,255.38l-.117.066Z" transform="translate(-300.896 -231.417)"/>
      <path id="Path_601" data-name="Path 601" class="cls-3" d="M305.934,262.558l-.1.041Z" transform="translate(-288.082 -237.894)"/>
      <path id="Path_602" data-name="Path 602" class="cls-3" d="M314.907,258.222l-.123.063Z" transform="translate(-296.157 -233.981)"/>
      <path id="Path_603" data-name="Path 603" class="cls-3" d="M317.536,256.827l-.121.065Z" transform="translate(-298.531 -232.722)"/>
      <path id="Path_604" data-name="Path 604" class="cls-3" d="M309.562,260.914l-.106.049Z" transform="translate(-291.349 -236.41)"/>
      <path id="Path_605" data-name="Path 605" class="cls-3" d="M248.19,272.746l-.114-.006Z" transform="translate(-235.964 -247.081)"/>
      <path id="Path_606" data-name="Path 606" class="cls-3" d="M251.479,272.887l-.1,0Z" transform="translate(-238.947 -247.211)"/>
      <path id="Path_607" data-name="Path 607" class="cls-3" d="M245.028,272.536l-.115-.009Z" transform="translate(-233.109 -246.89)"/>
      <path id="Path_608" data-name="Path 608" class="cls-3" d="M278.556,270.752l-.11.02Z" transform="translate(-263.368 -245.287)"/>
      <path id="Path_609" data-name="Path 609" class="cls-3" d="M241.915,272.255l-.1-.01Z" transform="translate(-230.311 -246.635)"/>
      <path id="Path_610" data-name="Path 610" class="cls-3" d="M258.784,272.883l-.1,0Z" transform="translate(-245.537 -247.21)"/>
      <path id="Path_611" data-name="Path 611" class="cls-3" d="M271.7,271.883l-.074.009Z" transform="translate(-257.213 -246.308)"/>
      <path id="Path_612" data-name="Path 612" class="cls-3" d="M303.015,263.689l-.117.045Z" transform="translate(-285.432 -238.914)"/>
      <path id="Path_613" data-name="Path 613" class="cls-3" d="M265.112,272.523l-.116.009Z" transform="translate(-251.231 -246.885)"/>
      <path id="Path_614" data-name="Path 614" class="cls-3" d="M261.952,272.738l-.114.006Z" transform="translate(-248.382 -247.079)"/>
      <path id="Path_615" data-name="Path 615" class="cls-3" d="M268.307,272.238l-.108.01Z" transform="translate(-254.121 -246.628)"/>
      <path id="Path_616" data-name="Path 616" class="cls-4" d="M129.922,388.468l-2.562,2.081a.69.69,0,0,0,.263,1.2l1.046.268a.126.126,0,0,1,.09.153l-1.305,5.085,3.321.852,1.305-5.085a.125.125,0,0,1,.153-.09l1.046.268a.69.69,0,0,0,.81-.928l-1.548-3.809-.65-1.6Z" transform="translate(-126.806 -350.064)"/>
    </g>
    <path id="Path_617" data-name="Path 617" class="cls-5" d="M175.148,161.219q.4.31.827.589l.016.011.2.126.033.021.2.121.021.012q.419.25.859.468l.052.026.184.088.069.032.181.082.069.03.189.081.011,0q.208.087.419.166l.065.025.167.06.105.037.158.053.118.038.154.048.128.038.148.043.158.043.214.055.174.043.129.029.16.035.132.027.163.031.128.023.179.03.113.018q.135.02.27.038l.051.006.268.031.1.01.2.018.115.008.194.012.114.006.209.008.1,0q.153,0,.307,0t.309,0l.1,0,.21-.008.114-.006.194-.012.116-.009.2-.017.108-.01.227-.026.074-.009q.149-.019.3-.042l.08-.013.216-.036.11-.02.184-.035.117-.024.178-.039.116-.026.186-.045.1-.026q.13-.034.258-.07l.065-.019.238-.071.109-.035.17-.055.12-.041.158-.056.121-.044.157-.06.117-.045.17-.07.1-.041q.128-.054.255-.111l.106-.049.155-.072.121-.059.138-.069.123-.063.134-.071.121-.065.135-.075.117-.066.158-.093.175-.107.142-.089.117-.076.122-.08.119-.081.117-.081.118-.084.115-.084.116-.086.118-.09.108-.084h0v-2.193a7.891,7.891,0,0,0-3.987-6.859,5.529,5.529,0,0,1-7.818,0,7.891,7.891,0,0,0-3.987,6.859v2.265h0Z" transform="translate(-125.401 -137.241)"/>
    <path id="Path_618" data-name="Path 618" class="cls-1" d="M210.443,60.973a5.529,5.529,0,1,0-1.62,3.91A5.529,5.529,0,0,0,210.443,60.973Z" transform="translate(-147.272 -50.029)"/>
    <path id="Path_619" data-name="Path 619" d="M73.469,309.023a5.64,5.64,0,0,0,0-11.28H41.814a5.64,5.64,0,0,0,0,11.28H45.12l-.427.347a1.666,1.666,0,0,0,.636,2.907l.222.057L44.458,316.6a.977.977,0,0,0,.7,1.189l3.321.852a.977.977,0,0,0,1.189-.7l1.094-4.261.222.057a1.666,1.666,0,0,0,1.958-2.242l-1-2.464H73.469Zm-2.95-9.327h2.95a3.687,3.687,0,0,1,0,7.374h-2.95ZM45.763,311.51h0v0Zm4.663.059a1.1,1.1,0,0,0-1.342.793L48.022,316.5l-1.43-.367L47.655,312a1.1,1.1,0,0,0-.793-1.342l-.495-.127,1.851-1.5,1.215-.987.4.987L50.92,311.7Zm.722-4.5-.4-.991a.977.977,0,0,0-1.521-.39l-1.7,1.382h-5.71a3.687,3.687,0,0,1,0-7.374H68.566v7.374Z" transform="translate(0 -268.666)"/>
    <path id="Path_620" data-name="Path 620" d="M407.766,333.248l1.137-1.438a.977.977,0,0,0,0-1.211l-1.137-1.438a.977.977,0,1,0-1.532,1.211l.658.832-.658.832a.977.977,0,1,0,1.532,1.211Z" transform="translate(-333.731 -296.681)"/>
    <path id="Path_621" data-name="Path 621" d="M98.1,346.1a.988.988,0,0,0-.09-.168.931.931,0,0,0-.121-.149,1.048,1.048,0,0,0-.148-.122,1,1,0,0,0-.169-.09.977.977,0,0,0-1.275.528,1.036,1.036,0,0,0-.056.183.976.976,0,0,0-.019.191.961.961,0,0,0,.019.19.984.984,0,0,0,.056.183.965.965,0,0,0,.09.169,1,1,0,0,0,.122.148.922.922,0,0,0,.148.121.993.993,0,0,0,.168.09,1.007,1.007,0,0,0,.183.056.941.941,0,0,0,.382,0,.984.984,0,0,0,.183-.056,1,1,0,0,0,.169-.09.966.966,0,0,0,.148-.121.934.934,0,0,0,.121-.148.965.965,0,0,0,.09-.169.986.986,0,0,0,.056-.183.964.964,0,0,0,.02-.19.979.979,0,0,0-.02-.191A1.035,1.035,0,0,0,98.1,346.1Z" transform="translate(-54.181 -311.76)"/>
    <path id="Path_622" data-name="Path 622" d="M151.278,346.1a.987.987,0,0,0-.09-.168.932.932,0,0,0-.121-.149.985.985,0,0,0-.882-.268,1.036,1.036,0,0,0-.183.056.979.979,0,0,0-.528.528,1.033,1.033,0,0,0-.056.183.978.978,0,0,0-.019.191.963.963,0,0,0,.019.19.984.984,0,0,0,.056.183.964.964,0,0,0,.09.169,1,1,0,0,0,.122.148.926.926,0,0,0,.148.121.993.993,0,0,0,.168.09,1.033,1.033,0,0,0,.183.056.979.979,0,0,0,.191.02.962.962,0,0,0,.19-.02.986.986,0,0,0,.183-.056.966.966,0,0,0,.169-.09.927.927,0,0,0,.148-.121.937.937,0,0,0,.121-.148.964.964,0,0,0,.09-.169.988.988,0,0,0,.056-.183.965.965,0,0,0,.02-.19.979.979,0,0,0-.02-.191A1.034,1.034,0,0,0,151.278,346.1Z" transform="translate(-102.169 -311.76)"/>
    <path id="Path_623" data-name="Path 623" d="M204.457,346.1a.99.99,0,0,0-.09-.168.93.93,0,0,0-.121-.149.985.985,0,0,0-.881-.268,1.022,1.022,0,0,0-.184.056.973.973,0,0,0-.316.212.931.931,0,0,0-.121.149.989.989,0,0,0-.09.168.958.958,0,0,0-.056.183.977.977,0,0,0-.02.191.962.962,0,0,0,.02.19.915.915,0,0,0,.056.183.965.965,0,0,0,.09.169.936.936,0,0,0,.121.148.926.926,0,0,0,.148.121.966.966,0,0,0,.169.09.986.986,0,0,0,.183.056.938.938,0,0,0,.381,0,.987.987,0,0,0,.183-.056.967.967,0,0,0,.169-.09.95.95,0,0,0,.27-.27.966.966,0,0,0,.09-.169.987.987,0,0,0,.056-.183.962.962,0,0,0,.02-.19.977.977,0,0,0-.02-.191A.958.958,0,0,0,204.457,346.1Z" transform="translate(-150.154 -311.76)"/>
    <path id="Path_624" data-name="Path 624" d="M257.637,346.1a.986.986,0,0,0-.09-.168.931.931,0,0,0-.121-.149.973.973,0,0,0-1.063-.212.963.963,0,0,0-.169.09,1,1,0,0,0-.148.122.929.929,0,0,0-.121.149.99.99,0,0,0-.09.168,1.032,1.032,0,0,0-.056.183.978.978,0,0,0-.02.191.963.963,0,0,0,.02.19.982.982,0,0,0,.056.183.966.966,0,0,0,.09.169.95.95,0,0,0,.27.27.967.967,0,0,0,.169.09.985.985,0,0,0,.183.056.938.938,0,0,0,.381,0,.985.985,0,0,0,.183-.056.966.966,0,0,0,.169-.09.925.925,0,0,0,.148-.121.936.936,0,0,0,.121-.148.963.963,0,0,0,.09-.169.918.918,0,0,0,.056-.183.963.963,0,0,0,.02-.19.978.978,0,0,0-.02-.191A.958.958,0,0,0,257.637,346.1Z" transform="translate(-198.141 -311.76)"/>
    <path id="Path_625" data-name="Path 625" d="M310.818,346.1a.978.978,0,0,0-.528-.528,1.034,1.034,0,0,0-.183-.056.967.967,0,0,0-.382,0,.986.986,0,0,0-.183.056.964.964,0,0,0-.169.09,1,1,0,0,0-.148.122.928.928,0,0,0-.121.149.986.986,0,0,0-.09.168,1.031,1.031,0,0,0-.056.183.978.978,0,0,0-.02.191.963.963,0,0,0,.02.19.978.978,0,0,0,.056.182.962.962,0,0,0,.09.169.933.933,0,0,0,.121.148.92.92,0,0,0,.148.121.963.963,0,0,0,.169.09.986.986,0,0,0,.183.056.962.962,0,0,0,.19.02.979.979,0,0,0,.191-.02,1.034,1.034,0,0,0,.183-.056.988.988,0,0,0,.168-.09.92.92,0,0,0,.148-.121,1,1,0,0,0,.122-.148.964.964,0,0,0,.09-.169.983.983,0,0,0,.056-.182.963.963,0,0,0,.019-.19.977.977,0,0,0-.019-.191A1.033,1.033,0,0,0,310.818,346.1Z" transform="translate(-246.127 -311.754)"/>
    <path id="Path_626" data-name="Path 626" d="M119.415,24.75a13.667,13.667,0,0,0,7.708,2.863l.06,0,.268.01.079,0c.11,0,.221,0,.332,0s.223,0,.334,0l.076,0,.275-.01.053,0a13.656,13.656,0,0,0,7.81-2.941.978.978,0,0,0,.088-.079,13.816,13.816,0,1,0-17.157.091C119.364,24.707,119.389,24.729,119.415,24.75Zm15.413-1.337a11.8,11.8,0,0,1-5.7,2.2l-.182.018-.2.017q-.176.013-.352.02l-.121,0c-.137,0-.274.008-.412.008s-.271,0-.406-.008l-.119,0q-.169-.007-.336-.019l-.195-.016-.21-.02-.234-.027-.041-.006a11.8,11.8,0,0,1-5.332-2.1V21.713a6.914,6.914,0,0,1,2.922-5.643,6.484,6.484,0,0,0,8,0,6.914,6.914,0,0,1,2.922,5.643v1.7ZM116,13.817a11.863,11.863,0,1,1,20.781,7.814,8.864,8.864,0,0,0-3.522-6.992,6.467,6.467,0,0,0,1.156-3.7,6.575,6.575,0,0,0-.071-.965.977.977,0,0,0-1.932.287,4.619,4.619,0,0,1,.05.677,4.527,4.527,0,0,1-.884,2.691,4.58,4.58,0,0,1-1.744,1.433,4.539,4.539,0,0,1-3.849,0,4.58,4.58,0,0,1-1.744-1.433,4.549,4.549,0,0,1,3.669-7.243,4.579,4.579,0,0,1,1.023.115.977.977,0,0,0,.437-1.9,6.51,6.51,0,0,0-7.965,6.341,6.467,6.467,0,0,0,1.156,3.7,8.864,8.864,0,0,0-3.523,7.074v.022A11.815,11.815,0,0,1,116,13.817Z" transform="translate(-70.267)"/>
    <path id="Path_627" data-name="Path 627" d="M287.564,64.9a.991.991,0,0,0,.09.168.969.969,0,0,0,.27.271.965.965,0,0,0,.169.09.985.985,0,0,0,.183.056.986.986,0,0,0,.381,0,1.019,1.019,0,0,0,.184-.056,1,1,0,0,0,.168-.09.97.97,0,0,0,.27-.271,1,1,0,0,0,.09-.168.937.937,0,0,0,.056-.183.972.972,0,0,0,.02-.191.961.961,0,0,0-.02-.19.915.915,0,0,0-.056-.183,1.007,1.007,0,0,0-.09-.169.949.949,0,0,0-.27-.27,1,1,0,0,0-.168-.09,1.019,1.019,0,0,0-.184-.056.958.958,0,0,0-.381,0,.986.986,0,0,0-.183.056.971.971,0,0,0-.169.09.948.948,0,0,0-.27.27,1,1,0,0,0-.09.169.984.984,0,0,0-.056.183.943.943,0,0,0,0,.382A1.009,1.009,0,0,0,287.564,64.9Z" transform="translate(-226.772 -57.34)"/>
  </g>
</svg>
