<svg id="Group_163" data-name="Group 163" xmlns="http://www.w3.org/2000/svg" xmlns:xlink="http://www.w3.org/1999/xlink" viewBox="0 0 436.377 356.5">
  <defs>
    <style>
      .cls-1 {
        fill: #d0d2d5;
      }

      .cls-17, .cls-2, .cls-4, .cls-8 {
        opacity: 0.1;
      }

      .cls-10, .cls-3 {
        fill: #444053;
      }

      .cls-4 {
        fill: #e5f0fb;
      }

      .cls-5 {
        fill: #fff;
      }

      .cls-6, .cls-7, .cls-8 {
        fill: #6c63ff;
      }

      .cls-7 {
        opacity: 0.3;
      }

      .cls-11, .cls-9 {
        fill: #3f3d56;
      }

      .cls-9 {
        opacity: 0.2;
      }

      .cls-10 {
        opacity: 0.6;
      }

      .cls-12 {
        fill: #0aae61;
      }

      .cls-13 {
        fill: url(#linear-gradient);
      }

      .cls-14 {
        fill: #a26565;
      }

      .cls-15 {
        fill: #454b69;
      }

      .cls-16 {
        fill: #efb7b9;
      }
    </style>
    <linearGradient id="linear-gradient" x1="0.897" y1="-1.067" x2="0.897" y2="-0.068" gradientUnits="objectBoundingBox">
      <stop offset="0" stop-color="gray" stop-opacity="0.251"/>
      <stop offset="0.54" stop-color="gray" stop-opacity="0.122"/>
      <stop offset="1" stop-color="gray" stop-opacity="0.102"/>
    </linearGradient>
  </defs>
  <path id="Path_802" data-name="Path 802" class="cls-1" d="M384.509,559.258,281.9,557.942l.316-2.631,4.946-43.411h90.085l6.63,43.411.526,3.262Z" transform="translate(-133.564 -242.539)"/>
  <path id="Path_803" data-name="Path 803" class="cls-2" d="M384.4,597.663H333.2l-51.3-.631.316-2.631H383.877Z" transform="translate(-133.564 -281.627)"/>
  <rect id="Rectangle_394" data-name="Rectangle 394" class="cls-1" width="136.18" height="3.315" transform="translate(131.234 313.404)"/>
  <path id="Path_804" data-name="Path 804" class="cls-3" d="M397.28,8.63A8.613,8.613,0,0,0,388.756,0H8.524A8.567,8.567,0,0,0,0,8.577H0V239.052H397.28Z"/>
  <path id="Path_805" data-name="Path 805" class="cls-1" d="M0,450v26.994a8.556,8.556,0,0,0,8.524,8.524H388.756a8.556,8.556,0,0,0,8.524-8.524V450Z" transform="translate(0 -213.21)"/>
  <rect id="Rectangle_395" data-name="Rectangle 395" class="cls-4" width="366.393" height="207.217" transform="translate(16.47 14.47)"/>
  <path id="Path_807" data-name="Path 807" class="cls-2" d="M398.1,517.5l40.938,41.1-6.262-41.1Z" transform="translate(-188.62 -245.192)"/>
  <path id="Path_808" data-name="Path 808" class="cls-5" d="M53.068,98.5H290.8a1.393,1.393,0,0,1,1.368,1.368V241.311a1.393,1.393,0,0,1-1.368,1.368H53.068a1.393,1.393,0,0,1-1.368-1.368V99.868A1.393,1.393,0,0,1,53.068,98.5Z" transform="translate(-24.496 -46.669)"/>
  <rect id="Rectangle_396" data-name="Rectangle 396" class="cls-5" width="366.235" height="12.103" transform="translate(16.681 14.47)"/>
  <path id="Path_809" data-name="Path 809" class="cls-6" d="M35.121,31.5H44.8a.415.415,0,0,1,.421.421v6.525a.415.415,0,0,1-.421.421H35.121a.415.415,0,0,1-.421-.421V31.921A.415.415,0,0,1,35.121,31.5Z" transform="translate(-16.441 -14.925)"/>
  <path id="Path_810" data-name="Path 810" class="cls-7" d="M273.016,31.5h109.87a.34.34,0,0,1,.316.316V38.6a.339.339,0,0,1-.316.316H273.016a.34.34,0,0,1-.316-.316V31.816A.34.34,0,0,1,273.016,31.5Z" transform="translate(-129.205 -14.925)"/>
  <path id="Path_811" data-name="Path 811" class="cls-3" d="M472.71,36.683h-.263l-.105-.105a2.363,2.363,0,0,0,.526-1.421,2.184,2.184,0,1,0-2.21,2.21,2.246,2.246,0,0,0,1.421-.526l.105.105v.263l1.684,1.684.526-.526Zm-2.052,0a1.526,1.526,0,1,1,1.526-1.526h0a1.527,1.527,0,0,1-1.526,1.526Z" transform="translate(-221.976 -15.635)"/>
  <circle id="Ellipse_229" data-name="Ellipse 229" class="cls-6" cx="3.683" cy="3.683" r="3.683" transform="translate(373.97 16.575)"/>
  <path id="Path_812" data-name="Path 812" class="cls-5" d="M542.963,75.5h31.625a1.28,1.28,0,0,1,1.263,1.263V97.337a1.28,1.28,0,0,1-1.263,1.263H542.963a1.281,1.281,0,0,1-1.263-1.263V76.815A1.292,1.292,0,0,1,542.963,75.5Z" transform="translate(-256.658 -35.772)"/>
  <path id="Path_813" data-name="Path 813" class="cls-5" d="M624.016,75.5h43.569a.339.339,0,0,1,.316.316v3.052a.34.34,0,0,1-.316.316H624.016a.34.34,0,0,1-.316-.316V75.816A.34.34,0,0,1,624.016,75.5Z" transform="translate(-295.51 -35.772)"/>
  <path id="Path_814" data-name="Path 814" class="cls-5" d="M624.016,90.5h43.569a.34.34,0,0,1,.316.316v3.052a.339.339,0,0,1-.316.316H624.016a.34.34,0,0,1-.316-.316V90.816A.34.34,0,0,1,624.016,90.5Z" transform="translate(-295.51 -42.879)"/>
  <path id="Path_815" data-name="Path 815" class="cls-5" d="M624.016,105.5h43.569a.34.34,0,0,1,.316.316v3.052a.339.339,0,0,1-.316.316H624.016a.34.34,0,0,1-.316-.316v-3.052A.34.34,0,0,1,624.016,105.5Z" transform="translate(-295.51 -49.986)"/>
  <path id="Path_816" data-name="Path 816" class="cls-5" d="M542.963,144.5h31.625a1.28,1.28,0,0,1,1.263,1.263v20.574a1.28,1.28,0,0,1-1.263,1.263H542.963a1.281,1.281,0,0,1-1.263-1.263V145.816A1.292,1.292,0,0,1,542.963,144.5Z" transform="translate(-256.658 -68.464)"/>
  <path id="Path_817" data-name="Path 817" class="cls-5" d="M624.016,144.5h43.569a.339.339,0,0,1,.316.316v3.052a.34.34,0,0,1-.316.316H624.016a.34.34,0,0,1-.316-.316v-3.052A.34.34,0,0,1,624.016,144.5Z" transform="translate(-295.51 -68.464)"/>
  <path id="Path_818" data-name="Path 818" class="cls-5" d="M624.016,159.5h43.569a.34.34,0,0,1,.316.316v3.052a.339.339,0,0,1-.316.316H624.016a.34.34,0,0,1-.316-.316v-3.052A.34.34,0,0,1,624.016,159.5Z" transform="translate(-295.51 -75.571)"/>
  <path id="Path_819" data-name="Path 819" class="cls-5" d="M624.021,174.5h43.464a.36.36,0,0,1,.368.368v3a.36.36,0,0,1-.368.368H623.968a.36.36,0,0,1-.368-.368v-3A.447.447,0,0,1,624.021,174.5Z" transform="translate(-295.462 -82.678)"/>
  <path id="Path_820" data-name="Path 820" class="cls-5" d="M542.963,213.5h31.625a1.28,1.28,0,0,1,1.263,1.263v20.574a1.28,1.28,0,0,1-1.263,1.263H542.963a1.281,1.281,0,0,1-1.263-1.263V214.815A1.292,1.292,0,0,1,542.963,213.5Z" transform="translate(-256.658 -101.156)"/>
  <path id="Path_821" data-name="Path 821" class="cls-5" d="M624.021,213.5h43.464a.36.36,0,0,1,.368.368v3a.36.36,0,0,1-.368.368H623.968a.36.36,0,0,1-.368-.368v-3A.447.447,0,0,1,624.021,213.5Z" transform="translate(-295.462 -101.156)"/>
  <path id="Path_822" data-name="Path 822" class="cls-5" d="M624.021,228.5h43.464a.36.36,0,0,1,.368.368v3a.36.36,0,0,1-.368.368H623.968a.36.36,0,0,1-.368-.368v-3A.447.447,0,0,1,624.021,228.5Z" transform="translate(-295.462 -108.263)"/>
  <path id="Path_823" data-name="Path 823" class="cls-5" d="M624.021,243.5h43.464a.36.36,0,0,1,.368.368v3a.36.36,0,0,1-.368.368H623.968a.36.36,0,0,1-.368-.368v-3A.447.447,0,0,1,624.021,243.5Z" transform="translate(-295.462 -115.37)"/>
  <path id="Path_824" data-name="Path 824" class="cls-5" d="M542.963,282.5h31.625a1.28,1.28,0,0,1,1.263,1.263v20.574a1.28,1.28,0,0,1-1.263,1.263H542.963a1.281,1.281,0,0,1-1.263-1.263V283.816A1.292,1.292,0,0,1,542.963,282.5Z" transform="translate(-256.658 -133.849)"/>
  <path id="Path_825" data-name="Path 825" class="cls-5" d="M624.021,282.5h43.464a.36.36,0,0,1,.368.368v3a.36.36,0,0,1-.368.368H623.968a.36.36,0,0,1-.368-.368v-3A.446.446,0,0,1,624.021,282.5Z" transform="translate(-295.462 -133.849)"/>
  <path id="Path_826" data-name="Path 826" class="cls-5" d="M624.021,297.5h43.464a.36.36,0,0,1,.368.368v3a.36.36,0,0,1-.368.368H623.968a.36.36,0,0,1-.368-.368v-3A.447.447,0,0,1,624.021,297.5Z" transform="translate(-295.462 -140.956)"/>
  <path id="Path_827" data-name="Path 827" class="cls-5" d="M624.021,312.5h43.464a.36.36,0,0,1,.368.368v3a.36.36,0,0,1-.368.368H623.968a.36.36,0,0,1-.368-.368v-3A.447.447,0,0,1,624.021,312.5Z" transform="translate(-295.462 -148.063)"/>
  <path id="Path_828" data-name="Path 828" class="cls-5" d="M542.963,351.5h31.625a1.28,1.28,0,0,1,1.263,1.263v20.574a1.28,1.28,0,0,1-1.263,1.263H542.963a1.281,1.281,0,0,1-1.263-1.263V352.816A1.292,1.292,0,0,1,542.963,351.5Z" transform="translate(-256.658 -166.541)"/>
  <path id="Path_829" data-name="Path 829" class="cls-5" d="M624.021,351.5h43.464a.36.36,0,0,1,.368.368v3a.36.36,0,0,1-.368.368H623.968a.36.36,0,0,1-.368-.368v-3A.447.447,0,0,1,624.021,351.5Z" transform="translate(-295.462 -166.541)"/>
  <path id="Path_830" data-name="Path 830" class="cls-5" d="M624.021,366.5h43.464a.36.36,0,0,1,.368.368v3a.36.36,0,0,1-.368.368H623.968a.36.36,0,0,1-.368-.368v-3A.447.447,0,0,1,624.021,366.5Z" transform="translate(-295.462 -173.648)"/>
  <path id="Path_831" data-name="Path 831" class="cls-5" d="M624.021,381.5h43.464a.36.36,0,0,1,.368.368v3a.36.36,0,0,1-.368.368H623.968a.36.36,0,0,1-.368-.368v-3A.447.447,0,0,1,624.021,381.5Z" transform="translate(-295.462 -180.755)"/>
  <rect id="Rectangle_397" data-name="Rectangle 397" class="cls-8" width="54.093" height="2.789" transform="translate(61.881 90.085)"/>
  <rect id="Rectangle_398" data-name="Rectangle 398" class="cls-8" width="5.209" height="14.839" transform="translate(66.722 75.246)"/>
  <rect id="Rectangle_399" data-name="Rectangle 399" class="cls-8" width="5.209" height="14.839" transform="translate(74.299 75.246)"/>
  <rect id="Rectangle_400" data-name="Rectangle 400" class="cls-8" width="5.209" height="14.839" transform="translate(81.929 75.246)"/>
  <rect id="Rectangle_401" data-name="Rectangle 401" class="cls-8" width="5.209" height="14.839" transform="translate(89.559 75.246)"/>
  <rect id="Rectangle_402" data-name="Rectangle 402" class="cls-8" width="5.209" height="14.839" transform="translate(97.136 75.246)"/>
  <rect id="Rectangle_403" data-name="Rectangle 403" class="cls-8" width="5.209" height="14.839" transform="translate(104.766 75.246)"/>
  <rect id="Rectangle_404" data-name="Rectangle 404" class="cls-8" width="5.209" height="1.579" transform="translate(66.722 78.035)"/>
  <rect id="Rectangle_405" data-name="Rectangle 405" class="cls-8" width="5.209" height="1.579" transform="translate(74.299 78.035)"/>
  <rect id="Rectangle_406" data-name="Rectangle 406" class="cls-8" width="5.209" height="1.579" transform="translate(81.929 78.035)"/>
  <rect id="Rectangle_407" data-name="Rectangle 407" class="cls-8" width="5.209" height="1.579" transform="translate(89.559 78.035)"/>
  <rect id="Rectangle_408" data-name="Rectangle 408" class="cls-8" width="5.209" height="1.579" transform="translate(97.136 78.035)"/>
  <rect id="Rectangle_409" data-name="Rectangle 409" class="cls-8" width="5.209" height="1.579" transform="translate(104.766 78.035)"/>
  <rect id="Rectangle_410" data-name="Rectangle 410" class="cls-8" width="5.209" height="1.579" transform="translate(66.722 85.244)"/>
  <rect id="Rectangle_411" data-name="Rectangle 411" class="cls-8" width="5.209" height="1.579" transform="translate(74.299 85.244)"/>
  <rect id="Rectangle_412" data-name="Rectangle 412" class="cls-8" width="5.209" height="1.579" transform="translate(81.929 85.244)"/>
  <rect id="Rectangle_413" data-name="Rectangle 413" class="cls-8" width="5.209" height="1.579" transform="translate(89.559 85.244)"/>
  <rect id="Rectangle_414" data-name="Rectangle 414" class="cls-8" width="5.209" height="1.579" transform="translate(97.136 85.244)"/>
  <rect id="Rectangle_415" data-name="Rectangle 415" class="cls-8" width="5.209" height="1.579" transform="translate(104.766 85.244)"/>
  <rect id="Rectangle_416" data-name="Rectangle 416" class="cls-8" width="54.093" height="2.789" transform="translate(180.539 97.294)"/>
  <rect id="Rectangle_417" data-name="Rectangle 417" class="cls-8" width="5.209" height="14.839" transform="translate(185.327 82.455)"/>
  <rect id="Rectangle_418" data-name="Rectangle 418" class="cls-8" width="5.209" height="14.839" transform="translate(192.957 82.455)"/>
  <rect id="Rectangle_419" data-name="Rectangle 419" class="cls-8" width="5.209" height="14.839" transform="translate(200.587 82.455)"/>
  <rect id="Rectangle_420" data-name="Rectangle 420" class="cls-8" width="5.209" height="14.839" transform="translate(208.164 82.455)"/>
  <rect id="Rectangle_421" data-name="Rectangle 421" class="cls-8" width="5.209" height="14.839" transform="translate(215.794 82.455)"/>
  <rect id="Rectangle_422" data-name="Rectangle 422" class="cls-8" width="5.209" height="14.839" transform="translate(223.424 82.455)"/>
  <rect id="Rectangle_423" data-name="Rectangle 423" class="cls-8" width="5.209" height="1.579" transform="translate(185.327 85.244)"/>
  <rect id="Rectangle_424" data-name="Rectangle 424" class="cls-8" width="5.209" height="1.579" transform="translate(192.957 85.244)"/>
  <rect id="Rectangle_425" data-name="Rectangle 425" class="cls-8" width="5.209" height="1.579" transform="translate(200.587 85.244)"/>
  <rect id="Rectangle_426" data-name="Rectangle 426" class="cls-8" width="5.209" height="1.579" transform="translate(208.164 85.244)"/>
  <rect id="Rectangle_427" data-name="Rectangle 427" class="cls-8" width="5.209" height="1.579" transform="translate(215.794 85.244)"/>
  <rect id="Rectangle_428" data-name="Rectangle 428" class="cls-8" width="5.209" height="1.579" transform="translate(223.424 85.244)"/>
  <rect id="Rectangle_429" data-name="Rectangle 429" class="cls-8" width="5.209" height="1.579" transform="translate(185.327 92.453)"/>
  <rect id="Rectangle_430" data-name="Rectangle 430" class="cls-8" width="5.209" height="1.579" transform="translate(192.957 92.453)"/>
  <rect id="Rectangle_431" data-name="Rectangle 431" class="cls-8" width="5.209" height="1.579" transform="translate(200.587 92.453)"/>
  <rect id="Rectangle_432" data-name="Rectangle 432" class="cls-8" width="5.209" height="1.579" transform="translate(208.164 92.453)"/>
  <rect id="Rectangle_433" data-name="Rectangle 433" class="cls-8" width="5.209" height="1.579" transform="translate(215.794 92.453)"/>
  <rect id="Rectangle_434" data-name="Rectangle 434" class="cls-8" width="5.209" height="1.579" transform="translate(223.424 92.453)"/>
  <rect id="Rectangle_435" data-name="Rectangle 435" class="cls-8" width="54.093" height="2.789" transform="translate(180.539 117.711)"/>
  <rect id="Rectangle_436" data-name="Rectangle 436" class="cls-8" width="5.209" height="14.839" transform="translate(185.327 102.872)"/>
  <rect id="Rectangle_437" data-name="Rectangle 437" class="cls-8" width="5.209" height="14.839" transform="translate(192.957 102.872)"/>
  <rect id="Rectangle_438" data-name="Rectangle 438" class="cls-8" width="5.209" height="14.839" transform="translate(200.587 102.872)"/>
  <rect id="Rectangle_439" data-name="Rectangle 439" class="cls-8" width="5.209" height="14.839" transform="translate(208.164 102.872)"/>
  <rect id="Rectangle_440" data-name="Rectangle 440" class="cls-8" width="5.209" height="14.839" transform="translate(215.794 102.872)"/>
  <rect id="Rectangle_441" data-name="Rectangle 441" class="cls-8" width="5.209" height="14.839" transform="translate(223.424 102.872)"/>
  <rect id="Rectangle_442" data-name="Rectangle 442" class="cls-8" width="5.209" height="1.579" transform="translate(185.327 105.713)"/>
  <rect id="Rectangle_443" data-name="Rectangle 443" class="cls-8" width="5.209" height="1.579" transform="translate(192.957 105.713)"/>
  <rect id="Rectangle_444" data-name="Rectangle 444" class="cls-8" width="5.209" height="1.579" transform="translate(200.587 105.713)"/>
  <rect id="Rectangle_445" data-name="Rectangle 445" class="cls-8" width="5.209" height="1.579" transform="translate(208.164 105.713)"/>
  <rect id="Rectangle_446" data-name="Rectangle 446" class="cls-8" width="5.209" height="1.579" transform="translate(215.794 105.713)"/>
  <rect id="Rectangle_447" data-name="Rectangle 447" class="cls-8" width="5.209" height="1.579" transform="translate(223.424 105.713)"/>
  <rect id="Rectangle_448" data-name="Rectangle 448" class="cls-8" width="5.209" height="1.579" transform="translate(185.327 112.922)"/>
  <rect id="Rectangle_449" data-name="Rectangle 449" class="cls-8" width="5.209" height="1.579" transform="translate(192.957 112.922)"/>
  <rect id="Rectangle_450" data-name="Rectangle 450" class="cls-8" width="5.209" height="1.579" transform="translate(200.587 112.922)"/>
  <rect id="Rectangle_451" data-name="Rectangle 451" class="cls-8" width="5.209" height="1.579" transform="translate(208.164 112.922)"/>
  <rect id="Rectangle_452" data-name="Rectangle 452" class="cls-8" width="5.209" height="1.579" transform="translate(215.794 112.922)"/>
  <rect id="Rectangle_453" data-name="Rectangle 453" class="cls-8" width="5.209" height="1.579" transform="translate(223.424 112.922)"/>
  <path id="Path_832" data-name="Path 832" class="cls-8" d="M177.966,210.571a11.118,11.118,0,0,1-1.105-1.631l7.788-1.263-8.419.053a14.2,14.2,0,0,1-.263-11.261l11.313,5.841-10.419-7.683a14.2,14.2,0,0,1,24.679,14.049c-.368.631-.789,1.263-1.21,1.842a16.4,16.4,0,0,1,1.631,2.578l-10.1,5.262,10.787-3.631a14.135,14.135,0,0,1-2.315,13.313,14.2,14.2,0,1,1-22.311,0,14,14,0,0,1-.053-17.47Z" transform="translate(-82.882 -88.809)"/>
  <path id="Path_833" data-name="Path 833" class="cls-8" d="M203.327,247.915a14.154,14.154,0,0,1-3.052,8.788,14.2,14.2,0,1,1-22.311,0C176.069,254.282,203.327,246.336,203.327,247.915Z" transform="translate(-82.88 -117.365)"/>
  <path id="Path_834" data-name="Path 834" class="cls-9" d="M201.367,311.952c0,.053.053.053.053.105h-4.841c0-.053.053-.053.053-.105a4.7,4.7,0,0,1-.631-2.368,5.931,5.931,0,0,1,.263-1.684h0c.263.053.579.105,1,.158a17.993,17.993,0,0,0,3.368,0c.316-.053.631-.053,1-.105h0a4.417,4.417,0,0,1,.263,1.631A3.682,3.682,0,0,1,201.367,311.952Z" transform="translate(-92.865 -145.883)"/>
  <path id="Path_835" data-name="Path 835" class="cls-8" d="M139.049,268.551H112.213l-.158-.474a13.978,13.978,0,0,1,.316-9.261,14.315,14.315,0,0,1-5.209-16.786,17.124,17.124,0,0,1-1.526-1.21l7.051-3.526-8.051,2.526a14.178,14.178,0,0,1-3.578-10.682l12.524,2.263-12.208-4.262a14.223,14.223,0,1,1,27.783,6.1,14.566,14.566,0,0,1-.631,2.157,12.215,12.215,0,0,1,2.315,2.052l-8.1,8,9.208-6.63a14.231,14.231,0,0,1,1.736,13.418A14.107,14.107,0,0,1,139.049,268.551Z" transform="translate(-47.858 -102.324)"/>
  <path id="Path_836" data-name="Path 836" class="cls-8" d="M148.418,292.732H121.582l-.158-.474A13.978,13.978,0,0,1,121.74,283c-2.526-1.736,21.153-17.417,21.627-15.891a13.978,13.978,0,0,1-.316,9.261A14.2,14.2,0,0,1,148.418,292.732Z" transform="translate(-57.228 -126.506)"/>
  <path id="Path_837" data-name="Path 837" class="cls-8" d="M364.443,260.03a14.409,14.409,0,0,1-7.1,6,14.8,14.8,0,0,1,.053,3.052l-11.366-.684,11.1,2.421a14.437,14.437,0,0,1-1.684,4.315,13.626,13.626,0,0,1-3.789,4.157h-15.47v.421H320.4c.053-.158.053-.263.105-.421a14.093,14.093,0,0,1,8.682-9.629,14.141,14.141,0,0,1,9-15.049,12.077,12.077,0,0,1-.105-1.947l7.367,2.894-7.262-4.262a14.281,14.281,0,0,1,5.578-9.787l6.683,10.84-5-11.945a14.206,14.206,0,0,1,19.311,5.578,14.372,14.372,0,0,1-.316,14.049Z" transform="translate(-151.806 -113.062)"/>
  <path id="Path_838" data-name="Path 838" class="cls-8" d="M355.345,302.391a13.627,13.627,0,0,1-3.789,4.157h-15.47v.421H320.3c.053-.158.053-.263.105-.421a14.093,14.093,0,0,1,8.682-9.629c-.158-1.052,2.947-.895,7-.21C344.084,298.024,355.924,301.444,355.345,302.391Z" transform="translate(-151.758 -140.322)"/>
  <path id="Path_849" data-name="Path 849" class="cls-3" d="M181.2,348.225v-9.472a.249.249,0,0,1,.263-.263h1.052a.249.249,0,0,1,.263.263h0V342.7l4.367-4.052a.689.689,0,0,1,1,.105.6.6,0,0,1,.158.421v8.577a.707.707,0,0,1-.737.684.6.6,0,0,1-.421-.158l-4.367-4.052v3.947a.249.249,0,0,1-.263.263h-1.052C181.358,348.436,181.2,348.33,181.2,348.225Z" transform="translate(-85.853 -160.372)"/>
  <path id="Path_850" data-name="Path 850" class="cls-3" d="M375.8,338.663v9.472a.249.249,0,0,1-.263.263h-1.052a.249.249,0,0,1-.263-.263h0v-3.947l-4.367,4.052a.689.689,0,0,1-1-.105.6.6,0,0,1-.158-.421v-8.63a.707.707,0,0,1,.737-.684.6.6,0,0,1,.421.158l4.367,4.052v-3.894a.249.249,0,0,1,.263-.263h1.052A.212.212,0,0,1,375.8,338.663Z" transform="translate(-174.69 -160.334)"/>
  <path id="Path_851" data-name="Path 851" class="cls-3" d="M275.41,348.845h-2.157a1.055,1.055,0,0,1-1.052-1.052v-7.84a1.055,1.055,0,0,1,1.052-1.052h2.157a1.055,1.055,0,0,1,1.052,1.052v7.84A1.055,1.055,0,0,1,275.41,348.845Zm6.788-1.052v-7.84a1.055,1.055,0,0,0-1.052-1.052h-2.157a1.055,1.055,0,0,0-1.052,1.052v7.84a1.055,1.055,0,0,0,1.052,1.052h2.157a1.055,1.055,0,0,0,1.052-1.052Z" transform="translate(-128.969 -160.571)"/>
  <rect id="Rectangle_454" data-name="Rectangle 454" class="cls-10" width="126.288" height="1.421" transform="translate(85.086 165.542)"/>
  <circle id="Ellipse_231" data-name="Ellipse 231" class="cls-3" cx="3.315" cy="3.315" r="3.315" transform="translate(120.763 162.911)"/>
  <rect id="Rectangle_455" data-name="Rectangle 455" class="cls-3" width="38.991" height="1.421" transform="translate(85.086 165.542)"/>
  <ellipse id="Ellipse_232" data-name="Ellipse 232" class="cls-11" cx="31.309" cy="5.999" rx="31.309" ry="5.999" transform="translate(373.759 312.089)"/>
  <ellipse id="Ellipse_233" data-name="Ellipse 233" class="cls-11" cx="3.631" cy="4.788" rx="3.631" ry="4.788" transform="translate(400.911 310.773)"/>
  <ellipse id="Ellipse_234" data-name="Ellipse 234" class="cls-11" cx="3.631" cy="4.788" rx="3.631" ry="4.788" transform="translate(400.911 304.932)"/>
  <ellipse id="Ellipse_235" data-name="Ellipse 235" class="cls-11" cx="3.631" cy="4.788" rx="3.631" ry="4.788" transform="translate(400.911 299.092)"/>
  <ellipse id="Ellipse_236" data-name="Ellipse 236" class="cls-11" cx="3.631" cy="4.788" rx="3.631" ry="4.788" transform="translate(400.911 293.251)"/>
  <ellipse id="Ellipse_237" data-name="Ellipse 237" class="cls-11" cx="3.631" cy="4.788" rx="3.631" ry="4.788" transform="translate(400.911 287.41)"/>
  <ellipse id="Ellipse_238" data-name="Ellipse 238" class="cls-11" cx="3.631" cy="4.788" rx="3.631" ry="4.788" transform="translate(400.911 281.622)"/>
  <ellipse id="Ellipse_239" data-name="Ellipse 239" class="cls-11" cx="3.631" cy="4.788" rx="3.631" ry="4.788" transform="translate(400.911 275.781)"/>
  <path id="Path_852" data-name="Path 852" class="cls-12" d="M766.568,431.964c.474-.631.947-1.316,1.368-2l-9.577-1.579,10.366.105a17.563,17.563,0,0,0,.316-13.839l-13.892,7.209,12.787-9.419a17.446,17.446,0,1,0-30.2,17.47,19.874,19.874,0,0,0,1.368,2.052,19.938,19.938,0,0,0-2,3.157l12.418,6.472-13.26-4.473a17.439,17.439,0,0,0,2.789,16.365,17.464,17.464,0,1,0,27.468,0,17.246,17.246,0,0,0,.053-21.522Z" transform="translate(-348.397 -191.28)"/>
  <path id="Path_853" data-name="Path 853" class="cls-2" d="M735.5,477.671a17.431,17.431,0,0,0,3.736,10.787,17.464,17.464,0,1,0,27.468,0C769.019,485.512,735.5,475.724,735.5,477.671Z" transform="translate(-348.481 -226.201)"/>
  <ellipse id="Ellipse_240" data-name="Ellipse 240" class="cls-8" cx="52.094" cy="11.05" rx="52.094" ry="11.05" transform="translate(1.947 334.4)"/>
  <path id="Path_854" data-name="Path 854" class="cls-13" d="M97.68,466.759a13.524,13.524,0,0,0-3.262-.421,10.306,10.306,0,0,1-6.051-2.947,11.484,11.484,0,0,1-2.421-3.683,8.769,8.769,0,0,1,1.052.421c-1.052-2.473.053-5.209,1-7.682,1.631-4.21,3.21-8.419,4.683-12.681,3.683-10.787,6.841-22,6.788-33.466,0-4.157-.789-8.051-.895-12.208-.105-3.052.368-6.157.316-9.208a11.443,11.443,0,0,0-.053-1.315,8.3,8.3,0,0,0,2.789-6.683c-.053-.631-.158-1.316-.263-1.947-.21-1.105-.421-2.21-.737-3.315-.368-1.158-.842-2.263-1.21-3.368-.789-2.157-1.315-4.42-2-6.63a1.951,1.951,0,0,1,.737.21,1.63,1.63,0,0,1-.316-.684,19.869,19.869,0,0,1-.631-4.315l.474-.21a11.649,11.649,0,0,0-.21-4.262c.263-2.263.631-4.525.895-6.788.105-.842.053-1.894-.737-2.1-.158-1.21-.21-2.421-.263-3.631-.21-4.262-.421-8.472-.684-12.734-.21-4.262-.421-8.524-.526-12.787a37.773,37.773,0,0,0-.737-8.1,9.676,9.676,0,0,0-.368-3.683c-1-3.1-4-5.578-7.1-5.367a13.856,13.856,0,0,0-3.368-3.42c.631-1.368,1.368-2.789,1.947-3.894a12.7,12.7,0,0,0,8.524-12.26,13.061,13.061,0,0,0-1.473-6.1,3.017,3.017,0,0,0,.21-.737,5.846,5.846,0,0,0-.263-3.42,8.4,8.4,0,0,0-.526-1.21c-.158-.263-.263-.526-.421-.789l-.263-.421a6.386,6.386,0,0,0-.526-.737,10.736,10.736,0,0,0-1.21-1.421,9.5,9.5,0,0,0-1.736-1.526A7.81,7.81,0,0,0,86,259.91a10.278,10.278,0,0,0-1.789-.158,7.768,7.768,0,0,0-1.105.053c-.737.053-1.473.105-2.21.105a3.474,3.474,0,0,1-.737-.053,23.063,23.063,0,0,1-3.789-.789l-.631-.158c-.21-.053-.421-.053-.631-.105-.579-.053-1.158-.105-1.736-.105h-.579l-1.736.158-.579.105a14.438,14.438,0,0,0-4.21,1.263,2.455,2.455,0,0,0-.526.263l-.105.053a1.844,1.844,0,0,0-.421.263l-.105.158-.474.263h-.053c-4.157,2.789-6.63,8.156-7.262,13.418-.684,5.946.526,11.892,1.736,17.733l1.105,5.262c.053.263.105.474.158.684a11.611,11.611,0,0,0-3.473,4.789c-1.052,2.631-1.052,5.472-1,8.314,0,.579.053,1.158.105,1.737q-.237,1.657-.316,3.315c-.316,5.1.263,10.261.105,15.365-.105,3.947-.737,7.893-.421,11.787a56.73,56.73,0,0,0,2.1,10.208l1.315,4.788a1.63,1.63,0,0,0,.316.684.913.913,0,0,0,.737.158,48.636,48.636,0,0,0-2.157,6.051,19.659,19.659,0,0,0-.789,3.894,23.7,23.7,0,0,0,.947,7.156l2.526,10.577c.579,2.473,1.158,4.946,1.789,7.419a79.017,79.017,0,0,1,2.526,14.786,32.748,32.748,0,0,1-.526,7.525,64.794,64.794,0,0,0-.631,22.521,112.428,112.428,0,0,0,4.262,18.627c.421-.21.842-.421,1.315-.631l-.21.368a31.724,31.724,0,0,0-1.684,3.262,19.446,19.446,0,0,0-.895,2.21,25.1,25.1,0,0,0-.895,6.578,3.432,3.432,0,0,0,.105,1.263,2.545,2.545,0,0,0,1.894,1.421,17.389,17.389,0,0,0,7,.105c0,.053.053.105.053.158a2.545,2.545,0,0,0,1.894,1.421c3.262.947,6.683.053,10.05-.263s6.63-.105,9.893-.842a4.341,4.341,0,0,0,1.368-.526,4.6,4.6,0,0,0,1.736-2.368,4.383,4.383,0,0,0,.21-.789A2.783,2.783,0,0,0,97.68,466.759ZM86.525,418.033a12.661,12.661,0,0,1-1.052,3.578,67.755,67.755,0,0,0-5.42,16.944,79.189,79.189,0,0,0-1.21,11.734c-.053,2.894.053,5.946-1.158,8.524l.421-.053c-.158.263-.263.526-.421.737l-.053.105a11.3,11.3,0,0,1-1.421-4.052c0-.053-.263-.105-.579-.105a109.375,109.375,0,0,1-1.526-25.2,12.187,12.187,0,0,1,.421-3.052c.263-.842.737-1.631,1.052-2.42a17.423,17.423,0,0,0,1.052-4.262,62.547,62.547,0,0,0,.684-11.313,46.532,46.532,0,0,1,1.421-10.682c.316-1.684.631-3.368.789-5.1l.053-.368a51.753,51.753,0,0,1,6.472,16.786A23.934,23.934,0,0,1,86.525,418.033ZM64,342l.158.158a12.452,12.452,0,0,1,1.421,1.473,1.656,1.656,0,0,1,.421.789c.158.789-.474,1.421-1,2l-.631.789c-.105-1.789-.21-3.473-.368-5.209Z" transform="translate(-26.17 -122.572)"/>
  <path id="Path_855" data-name="Path 855" class="cls-6" d="M56.807,354.3l-.579,4.473c-.21,1.526-.368,3.052-.474,4.525-.368,5.051.316,10.156.158,15.207-.158,3.894-.737,7.788-.474,11.682a51.743,51.743,0,0,0,2.21,10.1l1.368,4.736a.976.976,0,0,0,.368.631,1.311,1.311,0,0,0,.895.158l6.157-.579a48.72,48.72,0,0,1-1.052-5.525c-.158-1.473-.263-2.894-.368-4.367-.316-4.578-.684-9.1-1.052-13.681l-.684-8a61.578,61.578,0,0,0-1.421-10.313A20.875,20.875,0,0,0,56.807,354.3Z" transform="translate(-26.235 -167.868)"/>
  <path id="Path_856" data-name="Path 856" class="cls-2" d="M56.807,354.3l-.579,4.473c-.21,1.526-.368,3.052-.474,4.525-.368,5.051.316,10.156.158,15.207-.158,3.894-.737,7.788-.474,11.682a51.743,51.743,0,0,0,2.21,10.1l1.368,4.736a.976.976,0,0,0,.368.631,1.311,1.311,0,0,0,.895.158l6.157-.579a48.72,48.72,0,0,1-1.052-5.525c-.158-1.473-.263-2.894-.368-4.367-.316-4.578-.684-9.1-1.052-13.681l-.684-8a61.578,61.578,0,0,0-1.421-10.313A20.875,20.875,0,0,0,56.807,354.3Z" transform="translate(-26.235 -167.868)"/>
  <path id="Path_857" data-name="Path 857" class="cls-14" d="M77.223,638.348a16.429,16.429,0,0,0-.947,2.21,24.708,24.708,0,0,0-.895,6.525,3.433,3.433,0,0,0,.105,1.263,2.726,2.726,0,0,0,2,1.421c3.42.947,7,.053,10.524-.263s7-.105,10.366-.842a4.178,4.178,0,0,0,1.421-.526,4.862,4.862,0,0,0,1.842-2.368,4.388,4.388,0,0,0,.21-.789,2.672,2.672,0,0,0-2-2.526,15.21,15.21,0,0,0-3.42-.421,10.729,10.729,0,0,1-9.577-9.051c-.053-.263-5.683-.105-6.314.21-.684.368-1.105,1.316-1.526,2C78.381,636.19,77.8,637.243,77.223,638.348Z" transform="translate(-35.706 -299.844)"/>
  <path id="Path_858" data-name="Path 858" class="cls-2" d="M77.223,638.348a16.429,16.429,0,0,0-.947,2.21,24.708,24.708,0,0,0-.895,6.525,3.433,3.433,0,0,0,.105,1.263,2.726,2.726,0,0,0,2,1.421c3.42.947,7,.053,10.524-.263s7-.105,10.366-.842a4.178,4.178,0,0,0,1.421-.526,4.862,4.862,0,0,0,1.842-2.368,4.388,4.388,0,0,0,.21-.789,2.672,2.672,0,0,0-2-2.526,15.21,15.21,0,0,0-3.42-.421,10.729,10.729,0,0,1-9.577-9.051c-.053-.263-5.683-.105-6.314.21-.684.368-1.105,1.316-1.526,2C78.381,636.19,77.8,637.243,77.223,638.348Z" transform="translate(-35.706 -299.844)"/>
  <path id="Path_859" data-name="Path 859" class="cls-14" d="M95.123,641.548a13.968,13.968,0,0,0-.947,2.21,22.715,22.715,0,0,0-.895,6.525,3.432,3.432,0,0,0,.105,1.263,2.726,2.726,0,0,0,2,1.421c3.42.895,7,.053,10.524-.263s7-.105,10.366-.842a4.179,4.179,0,0,0,1.421-.526,4.578,4.578,0,0,0,1.842-2.368,4.385,4.385,0,0,0,.21-.789,2.672,2.672,0,0,0-2-2.526,15.21,15.21,0,0,0-3.42-.421,10.835,10.835,0,0,1-9.577-9.051c-.053-.263-5.683-.105-6.314.21-.684.368-1.105,1.315-1.526,2A23.214,23.214,0,0,0,95.123,641.548Z" transform="translate(-44.187 -301.36)"/>
  <path id="Path_860" data-name="Path 860" class="cls-15" d="M103.145,492.078c.053,11.366-3.21,22.469-7.1,33.151-1.526,4.21-3.157,8.419-4.894,12.576-1,2.473-2.157,5.209-1.052,7.63a18.626,18.626,0,0,0-9.682-1.368c1.263-2.578,1.158-5.578,1.21-8.419a70.844,70.844,0,0,1,1.263-11.576,63.225,63.225,0,0,1,5.683-16.786,13.736,13.736,0,0,0,1.105-3.526A22.477,22.477,0,0,0,89.2,495.6a48.888,48.888,0,0,0-6.788-16.628l-.053.316c-.21,1.684-.474,3.368-.842,5.051-.737,3.526-1.631,7.051-1.473,10.577a57.048,57.048,0,0,1-.684,11.208,19.524,19.524,0,0,1-1.105,4.262,20.091,20.091,0,0,0-1.105,2.421,11.784,11.784,0,0,0-.421,3,101.9,101.9,0,0,0,1.736,25.626,16.458,16.458,0,0,0-8.472,1.947,106.187,106.187,0,0,1-4.473-18.47,61.489,61.489,0,0,1,.684-22.363,29.638,29.638,0,0,0,.526-7.472c-.21-5-1.473-9.84-2.684-14.681l-1.842-7.367c-.895-3.526-1.736-7-2.631-10.471a23.19,23.19,0,0,1-1-7.1,16.186,16.186,0,0,1,.842-3.841,41.707,41.707,0,0,1,5.841-11.892c10.156.579,20.417-.368,30.52-1.158a1.942,1.942,0,0,1,1.421.263,2.019,2.019,0,0,1,.579,1.316l3.789,21.574a48.286,48.286,0,0,1,1.052,9.1c0,3.052-.474,6.1-.368,9.156C102.356,484.08,103.145,487.974,103.145,492.078Z" transform="translate(-27.741 -207.773)"/>
  <path id="Path_861" data-name="Path 861" class="cls-2" d="M92.76,500.783c-.21,1.684-.474,3.368-.842,5.051-2.21-3.841-4.578-7.525-6.63-11.471-.526-1-1-2-1.526-3.052l-1.526-3.052c-.263-.579-.579-1.158-.789-1.736a12.115,12.115,0,0,1-.947-2.631c.737-.158,2.578,1.842,3.1,2.368q1.658,1.657,3.157,3.473a37.563,37.563,0,0,1,3.315,4.315A22.561,22.561,0,0,1,92.76,500.783Z" transform="translate(-38.141 -229.264)"/>
  <path id="Path_862" data-name="Path 862" class="cls-16" d="M99.711,312.9s-5.63,8.945-4.578,10.84S77.4,322.059,77.4,322.059s10.208-8.945,9.156-12.734S99.711,312.9,99.711,312.9Z" transform="translate(-36.672 -146.045)"/>
  <circle id="Ellipse_241" data-name="Ellipse 241" class="cls-16" cx="12.734" cy="12.734" r="12.734" transform="translate(45.306 144.073)"/>
  <path id="Path_863" data-name="Path 863" class="cls-6" d="M90.033,329.154a13.055,13.055,0,0,0-5.367-4.315,23.473,23.473,0,0,0-3.789-.947L75.825,323a6.435,6.435,0,0,0-3.736.105,6.774,6.774,0,0,0-1.579,1.158c-1.789,1.631-3.473,3.42-5.683,4.367-.579.263-1.263.421-1.842.684a10.721,10.721,0,0,0-5.367,5.788,18.967,18.967,0,0,0-1.052,8.261,17.409,17.409,0,0,0,.263,2.894,27.222,27.222,0,0,0,.947,2.684,53.451,53.451,0,0,1,1.736,5.63c1.315,5.052,2.421,10.1,3.262,15.26a5.756,5.756,0,0,0,.631,2.1,8.78,8.78,0,0,0,1.736,1.684,12.981,12.981,0,0,1,1.473,1.473,1.981,1.981,0,0,1,.474.789c.158.737-.526,1.421-1.052,1.947a9.15,9.15,0,0,0-2.368,4.157,1.541,1.541,0,0,0-.368,1.158,1.689,1.689,0,0,1,.105.895,2.208,2.208,0,0,1-.474.737,2.886,2.886,0,0,0-.526,2.263,35.1,35.1,0,0,0,12.471,2.894c1.052.053,2.1.053,3.157.158.737.105,1.473.263,2.21.316,1.105.105,2.157.105,3.262.105,5.683-.105,11.524-.263,16.681-2.526.474-2.684-.579-5.367-1.21-8-1.052-4.21-1.315-8.525-2.1-12.787-.526-2.894-1.315-5.736-1.789-8.682a20.6,20.6,0,0,1,.263-8.788c.737-2.526.947-5.1,1.684-7.577s1.263-5.209.421-7.735A7.879,7.879,0,0,0,90.033,329.154Z" transform="translate(-26.784 -152.93)"/>
  <path id="Path_864" data-name="Path 864" class="cls-14" d="M97.406,274.462c.631-2.263-.579-4.631-2.052-6.472a10.94,10.94,0,0,0-6.051-4.262c-2-.421-4.1.105-6.1-.053-1.789-.158-3.526-.789-5.315-1.052a16.989,16.989,0,0,0-4.894.211,17.242,17.242,0,0,0-4.473,1.263c-5.42,2.421-8.577,8.314-9.314,14.207s.526,11.787,1.842,17.575l1.158,5.209a102.465,102.465,0,0,1,2.736,16.47,34.731,34.731,0,0,1-2.578,16.365,35.04,35.04,0,0,0,16.154-18.312c.842-2.157,1.421-4.367,2.368-6.525.789-1.842,1.789-3.526,2.473-5.42a17.474,17.474,0,0,0,1.105-6.577c-.053-1.684-.316-3.368-.263-5.052a7.157,7.157,0,0,1,1.631-4.683,14.779,14.779,0,0,1,3.841-2.263,15.2,15.2,0,0,0,5.367-4.473,4.918,4.918,0,0,0,1.105-2.841C96.354,276.514,97.09,275.672,97.406,274.462Z" transform="translate(-27.948 -124.39)"/>
  <path id="Path_865" data-name="Path 865" class="cls-16" d="M130.224,460.634c.158,1.315-.105,2.631.158,3.946.21.947.737,1.842,1,2.789a14.441,14.441,0,0,1,.474,3.368c.053.947-.053,2.1-.895,2.526a8.136,8.136,0,0,1-1.21.368c-.421.158-.737.631-.474,1s.579.316.947.368.737.421.526.737a1.1,1.1,0,0,1-.316.21,3.49,3.49,0,0,0-1,.474.969.969,0,0,0-.421.947.577.577,0,0,0,.737.421.184.184,0,0,0,.105-.053,2.4,2.4,0,0,0-.263,1.052c1.368.579,2.841-.158,4.1-.895.526-.316,1.052-.631,1.579-1a7.906,7.906,0,0,0,3.052-6.735,13.593,13.593,0,0,0-.316-1.947,32.763,32.763,0,0,0-.789-3.262c-.368-1.158-.842-2.21-1.263-3.315-.895-2.368-1.473-4.841-2.315-7.209a.863.863,0,0,0-1-.737,9.485,9.485,0,0,0-2.736.263A2.993,2.993,0,0,0,128.224,455c-.263.526.158.947.368,1.421A9.408,9.408,0,0,1,130.224,460.634Z" transform="translate(-60.713 -214.951)"/>
  <path id="Path_866" data-name="Path 866" class="cls-2" d="M119.634,345.4a4.376,4.376,0,0,1,.684.947c1.789,3.315,1.842,7.209,1.894,10.945.105,4.21.316,8.419.579,12.629l.684,12.629c.053,1.21.158,2.421.316,3.578.789.21.842,1.263.737,2.1-.579,5.157-2.052,10.419-.526,15.418a1.257,1.257,0,0,0,.368.684,4.039,4.039,0,0,0-2.368-.053c-.737.158-1.473.421-2.263.631a4.688,4.688,0,0,0-2.684,1.052,58.452,58.452,0,0,1-1.789-6.788c-.368-2.1-.474-4.262-1.316-6.209a18.674,18.674,0,0,0-1.21-2.263c-2.21-3.947-3.315-8.367-4.367-12.787a18.484,18.484,0,0,1-.316-6.367,17.935,17.935,0,0,0,.263-2.894,19.37,19.37,0,0,0-.421-3.052,20.324,20.324,0,0,1,.631-8.893c.789-2.684,1.473-5.525,3.157-7.735S116.845,345.453,119.634,345.4Z" transform="translate(-51.017 -163.651)"/>
  <path id="Path_867" data-name="Path 867" class="cls-6" d="M120.881,344.6a4.379,4.379,0,0,1,.684.947c1.789,3.262,1.842,7.209,1.894,10.945.105,4.21.316,8.419.579,12.629l.684,12.629c.053,1.21.158,2.421.316,3.578.789.21.842,1.263.737,2.1-.579,5.157-2.052,10.419-.526,15.418a1.257,1.257,0,0,0,.368.684,4.038,4.038,0,0,0-2.368-.053c-.737.158-1.473.421-2.263.631a4.687,4.687,0,0,0-2.684,1.052,50.085,50.085,0,0,1-1.736-6.841c-.368-2.1-.474-4.262-1.315-6.209-.368-.789-.789-1.526-1.21-2.263-2.21-3.946-3.315-8.367-4.367-12.787a18.484,18.484,0,0,1-.316-6.367,12.836,12.836,0,0,0-.158-6,20.324,20.324,0,0,1,.631-8.893c.789-2.684,1.473-5.525,3.157-7.735S118.092,344.653,120.881,344.6Z" transform="translate(-51.633 -163.272)"/>
  <g id="Group_162" data-name="Group 162" class="cls-17" transform="translate(34.413 138.199)">
    <path id="Path_868" data-name="Path 868" d="M101.946,268.09a10.94,10.94,0,0,0-6.051-4.262c-2-.421-4.1.105-6.1-.053-1.789-.158-3.526-.789-5.315-1.052a16.99,16.99,0,0,0-4.894.21A17.245,17.245,0,0,0,75.11,264.2a11.448,11.448,0,0,0-2.21,1.263,19.818,19.818,0,0,1,3.946-1.052,16.993,16.993,0,0,1,4.894-.21c1.789.21,3.526.895,5.315,1,2.052.158,4.1-.316,6.1.053,2.473.474,4.473,2.263,6.051,4.262,1.473,1.842,2.684,4.21,2.052,6.472-.316,1.21-1.105,2.21-1.315,3.473a4.918,4.918,0,0,1-1.105,2.841A15.483,15.483,0,0,1,95,285.875c.421-.21.842-.368,1.21-.579a15.2,15.2,0,0,0,5.367-4.473,4.918,4.918,0,0,0,1.105-2.841A27.683,27.683,0,0,1,104,274.509C104.63,272.247,103.42,269.879,101.946,268.09Z" transform="translate(-68.954 -262.636)"/>
    <path id="Path_869" data-name="Path 869" d="M88.868,309.431a9.174,9.174,0,0,1,.737-.631,10.925,10.925,0,0,0-3.42,2.1,6.964,6.964,0,0,0-1.631,4.683c-.053,1.736.263,3.368.263,5.052a17.474,17.474,0,0,1-1.105,6.577c-.684,1.842-1.684,3.578-2.473,5.42-.895,2.1-1.526,4.367-2.368,6.472a35.2,35.2,0,0,1-13.365,16.628c-.053.053-.053.158-.105.21a35.041,35.041,0,0,0,16.154-18.312c.842-2.157,1.421-4.367,2.368-6.525.789-1.842,1.789-3.526,2.473-5.42a17.474,17.474,0,0,0,1.105-6.577c-.053-1.684-.316-3.368-.263-5.052A6.922,6.922,0,0,1,88.868,309.431Z" transform="translate(-65.4 -284.509)"/>
  </g>
</svg>
