<?xml version="1.0" standalone="no"?>
<!DOCTYPE svg PUBLIC "-//W3C//DTD SVG 1.1//EN" "http://www.w3.org/Graphics/SVG/1.1/DTD/svg11.dtd" >
<svg>
<metadata>
Created by FontForge 20090914 at Wed Aug  9 11:12:39 2017
 By www-data
&#194;&#169; 1996, 2001 Adobe Systems Incorporated. All Rights Reserved.
</metadata>
<defs>
<font id="CronosPro-Regular" horiz-adv-x="296" >
  <font-face 
    font-family="Cronos Pro"
    font-weight="400"
    font-stretch="normal"
    units-per-em="1000"
    panose-1="2 12 5 2 3 4 3 2 3 4"
    ascent="780"
    descent="-220"
    x-height="444.002"
    cap-height="629"
    bbox="-179.001 -270 1131.57 885.346"
    underline-thickness="50"
    underline-position="-50"
    unicode-range="U+0020-U+FB06"
  />
<missing-glyph horiz-adv-x="500" 
d="M0 0h500v700h-500v-700zM250 395l-170 255h340zM280 350l170 255v-510zM80 50l170 255l170 -255h-340zM50 605l170 -255l-170 -255v510z" />
    <glyph glyph-name="uniE063" unicode="Th" horiz-adv-x="1004" 
d="M646 614c0 30 -1.16504 48.335 -3.49805 55.002s-5.83301 10 -10.5 10c-8 0 -19.167 -1.33301 -33.5 -4s-27.833 -6 -40.5 -10c0.666992 -10 1.66699 -23.333 3 -40h-357c-54 0 -91.167 0.333008 -111.5 1s-34.166 2 -41.499 4
c-9.33301 -8.66699 -19 -23.334 -29 -44.001c-6 -14.667 -0.666992 -22 16 -22h203v-552c0 -13.333 5.33301 -19.333 16 -18c12 0 24.667 0.833008 38 2.5s25.666 3.5 36.999 5.5c-0.666992 10 -1.33398 24.167 -2.00098 42.5s-1 44.833 -1 79.5v440h233v-69.5v-75.5v-99.5
v-141.5c0 -88 -1 -149.333 -3 -184c22 -0.666992 44.667 0.666016 68 3.99902c7.33301 1.33301 12.333 3.66602 15 6.99902s4 9.33301 4 18v305c8.66699 10 23.334 21.5 44.001 34.5s44 19.5 70 19.5c25.333 0 47.333 -9.16699 66 -27.5s28 -48.833 28 -91.5
c0 -43.333 -0.166992 -88.333 -0.5 -135s-0.5 -86 -0.5 -118c0 -10.667 4.66699 -16 14 -16c29.333 0.666992 53.666 3.33398 72.999 8.00098c-2 22.667 -2.66699 64.667 -2 126v140c0 46 -10.333 87.667 -31 125s-58.334 56 -113.001 56c-30 0 -58 -7.16699 -84 -21.5
s-47.333 -29.5 -64 -45.5v232z" />
    <glyph glyph-name="uniE064" unicode="T&#x127;" horiz-adv-x="1004" 
d="M645 625c0 13.333 -0.831055 25.668 -2.49805 37.001s-5.5 17 -11.5 17c-8 0 -19.167 -1.33301 -33.5 -4s-27.833 -6 -40.5 -10c1.33301 -10 2.33301 -23.333 3 -40h-356c-54 0 -91.167 0.333008 -111.5 1s-34.166 2 -41.499 4c-4 -4 -8.83301 -9.83301 -14.5 -17.5
s-10.5 -16.5 -14.5 -26.5c-6 -14.667 -0.666992 -22 16 -22h203v-552c0 -13.333 5.33301 -19.333 16 -18c12 0 24.667 0.833008 38 2.5s25.666 3.5 36.999 5.5c-0.666992 10 -1.33398 24.167 -2.00098 42.5s-1 44.833 -1 79.5v440h232v-69.5v-75.5v-99.5v-141.5
c0 -88 -1 -149.333 -3 -184c22 -0.666992 44.667 0.666016 68 3.99902c7.33301 1.33301 12.333 3.66602 15 6.99902s4 9.33301 4 18v302c10 12 25.333 25 46 39s44.667 21 72 21c24.667 0 46 -8.66699 64 -26s27 -48.333 27 -93c0 -22 -0.166992 -45.833 -0.5 -71.5
s-0.5 -50.5 -0.5 -74.5v-65.5v-44.5c0 -10.667 4.66699 -16 14 -16c29.333 0.666992 53.666 3.33398 72.999 8.00098c-2 22.667 -2.66699 64.667 -2 126v140c0 47.333 -9.83301 89.333 -29.5 126s-57.167 55 -112.5 55c-28 0 -55.5 -7 -82.5 -21s-49.833 -30 -68.5 -48v184
h114c17.333 0 30.333 5.66699 39 17s14 26 16 44h-169z" />
    <glyph glyph-name="uniE065" unicode="T&#x125;" horiz-adv-x="1004" 
d="M646 614c0 30 -1.16504 48.335 -3.49805 55.002s-5.83301 10 -10.5 10c-8 0 -19.167 -1.33301 -33.5 -4s-27.833 -6 -40.5 -10c0.666992 -10 1.66699 -23.333 3 -40h-357c-54 0 -91.167 0.333008 -111.5 1s-34.166 2 -41.499 4
c-9.33301 -8.66699 -19 -23.334 -29 -44.001c-6 -14.667 -0.666992 -22 16 -22h203v-552c0 -13.333 5.33301 -19.333 16 -18c12 0 24.667 0.833008 38 2.5s25.666 3.5 36.999 5.5c-0.666992 10 -1.33398 24.167 -2.00098 42.5s-1 44.833 -1 79.5v440h233v-69.5v-75.5v-99.5
v-141.5c0 -88 -1 -149.333 -3 -184c22 -0.666992 44.667 0.666016 68 3.99902c7.33301 1.33301 12.333 3.66602 15 6.99902s4 9.33301 4 18v305c8.66699 10 23.334 21.5 44.001 34.5s44 19.5 70 19.5c25.333 0 47.333 -9.16699 66 -27.5s28 -48.833 28 -91.5
c0 -43.333 -0.166992 -88.333 -0.5 -135s-0.5 -86 -0.5 -118c0 -10.667 4.66699 -16 14 -16c29.333 0.666992 53.666 3.33398 72.999 8.00098c-2 22.667 -2.66699 64.667 -2 126v140c0 46 -10.333 87.667 -31 125s-58.334 56 -113.001 56c-30 0 -58 -7.16699 -84 -21.5
s-47.333 -29.5 -64 -45.5v232zM515.002 683.002c8 0.666992 14.6699 3.00098 20.0029 7.00098c10 6.66699 20.833 15.167 32.5 25.5s23.167 21.166 34.5 32.499c14.667 -14 28.167 -26.333 40.5 -37s21.833 -18 28.5 -22c6 -4 13.667 -6 23 -6c6 0 13.167 2.66699 21.5 8
s14.166 11 17.499 17c-42.667 33.333 -81 70 -115 110c-8 0 -17 -1 -27 -3c-6.66699 -3.33301 -12 -7 -16 -11c-30.667 -37.333 -64.667 -70 -102 -98c3.33301 -5.33301 9.16602 -10.5 17.499 -15.5s16.166 -7.5 23.499 -7.5h1z" />
    <glyph glyph-name="uniE067" unicode="&#x166;h" horiz-adv-x="1003" 
d="M645 614c0 30 -1.16602 48.333 -3.49902 55s-5.83301 10 -10.5 10c-8 0 -19.167 -1.33301 -33.5 -4s-27.833 -6 -40.5 -10c1.33301 -10 2.33301 -23.333 3 -40h-356c-54 0 -91.167 0.333008 -111.5 1s-34.166 2 -41.499 4c-4 -4 -8.83301 -9.83301 -14.5 -17.5
s-10.5 -16.5 -14.5 -26.5c-6 -14.667 -0.666992 -22 16 -22h203v-216h-61c-10.667 0 -19.834 -4.83301 -27.501 -14.5s-12.5 -22.5 -14.5 -38.5h103v-283c0 -13.333 5.33301 -19.333 16 -18c12 0 24.667 0.833008 38 2.5s25.666 3.5 36.999 5.5
c-0.666992 10 -1.33398 24.167 -2.00098 42.5s-1 44.833 -1 79.5v171h53c35.333 0.666992 54.333 18.334 57 53.001h-110v216h232v-69.5v-75.5v-99.5v-141.5c0 -88 -1 -149.333 -3 -184c22 -0.666992 44.667 0.666016 68 3.99902c7.33301 1.33301 12.333 3.66602 15 6.99902
s4 9.33301 4 18v300c10.667 12 26.334 25.5 47.001 40.5s44.667 22.5 72 22.5c24.667 0 45.834 -8.66699 63.501 -26s26.5 -48.333 26.5 -93c0 -22 -0.166992 -45.833 -0.5 -71.5s-0.5 -50.5 -0.5 -74.5v-66v-45c0 -10.667 4.66699 -16 14 -16
c29.333 0.666992 53.666 3.33398 72.999 8.00098c-2 22.667 -2.66699 64.667 -2 126v143c0 46 -9.83301 87.167 -29.5 123.5s-57.167 54.5 -112.5 54.5c-28 0 -55.333 -7 -82 -21s-49.667 -30.333 -69 -49v235z" />
    <glyph glyph-name="uniE069" unicode="&#x164;h" horiz-adv-x="1004" 
d="M646 614c0 30 -1.16504 48.335 -3.49805 55.002s-5.83301 10 -10.5 10c-8 0 -19.167 -1.33301 -33.5 -4s-27.833 -6 -40.5 -10c0.666992 -10 1.66699 -23.333 3 -40h-357c-54 0 -91.167 0.333008 -111.5 1s-34.166 2 -41.499 4
c-9.33301 -8.66699 -19 -23.334 -29 -44.001c-6 -14.667 -0.666992 -22 16 -22h203v-552c0 -13.333 5.33301 -19.333 16 -18c12 0 24.667 0.833008 38 2.5s25.666 3.5 36.999 5.5c-0.666992 10 -1.33398 24.167 -2.00098 42.5s-1 44.833 -1 79.5v440h233v-69.5v-75.5v-99.5
v-141.5c0 -88 -1 -149.333 -3 -184c22 -0.666992 44.667 0.666016 68 3.99902c7.33301 1.33301 12.333 3.66602 15 6.99902s4 9.33301 4 18v305c8.66699 10 23.334 21.5 44.001 34.5s44 19.5 70 19.5c25.333 0 47.333 -9.16699 66 -27.5s28 -48.833 28 -91.5
c0 -43.333 -0.166992 -88.333 -0.5 -135s-0.5 -86 -0.5 -118c0 -10.667 4.66699 -16 14 -16c29.333 0.666992 53.666 3.33398 72.999 8.00098c-2 22.667 -2.66699 64.667 -2 126v140c0 46 -10.333 87.667 -31 125s-58.334 56 -113.001 56c-30 0 -58 -7.16699 -84 -21.5
s-47.333 -29.5 -64 -45.5v232zM376.002 795.002c-7.33301 -0.666992 -13.667 -3 -19 -7c-10 -6.66699 -20.833 -15 -32.5 -25s-22.834 -20.333 -33.501 -31c-30 28 -52 47 -66 57c-6.66699 4 -14 6 -22 6c-6 0 -13.333 -2.83301 -22 -8.5s-14 -11.167 -16 -16.5
c40.667 -32 77.334 -67.333 110.001 -106c8 0 17 1 27 3c6 3.33301 11 7 15 11c30 36 63.333 67.333 100 94c-4 5.33301 -10 10.5 -18 15.5s-15.333 7.5 -22 7.5h-1z" />
    <glyph glyph-name="uniE06B" unicode="&#x162;h" horiz-adv-x="1004" 
d="M646 614c0 30 -1.16504 48.335 -3.49805 55.002s-5.83301 10 -10.5 10c-8 0 -19.167 -1.33301 -33.5 -4s-27.833 -6 -40.5 -10c0.666992 -10 1.66699 -23.333 3 -40h-357c-54 0 -91.167 0.333008 -111.5 1s-34.166 2 -41.499 4
c-9.33301 -8.66699 -19 -23.334 -29 -44.001c-6 -14.667 -0.666992 -22 16 -22h203v-552c0 -13.333 5.33301 -19.333 16 -18c12 0 24.667 0.833008 38 2.5s25.666 3.5 36.999 5.5c-0.666992 10 -1.33398 24.167 -2.00098 42.5s-1 44.833 -1 79.5v440h233v-69.5v-75.5v-99.5
v-141.5c0 -88 -1 -149.333 -3 -184c22 -0.666992 44.667 0.666016 68 3.99902c7.33301 1.33301 12.333 3.66602 15 6.99902s4 9.33301 4 18v305c8.66699 10 23.334 21.5 44.001 34.5s44 19.5 70 19.5c25.333 0 47.333 -9.16699 66 -27.5s28 -48.833 28 -91.5
c0 -43.333 -0.166992 -88.333 -0.5 -135s-0.5 -86 -0.5 -118c0 -10.667 4.66699 -16 14 -16c29.333 0.666992 53.666 3.33398 72.999 8.00098c-2 22.667 -2.66699 64.667 -2 126v140c0 46 -10.333 87.667 -31 125s-58.334 56 -113.001 56c-30 0 -58 -7.16699 -84 -21.5
s-47.333 -29.5 -64 -45.5v232zM302.002 -41.998c-10 0 -20.501 -2.16699 -31.501 -6.5s-20.5 -9.5 -28.5 -15.5c8.66699 -13.333 13.334 -29.666 14.001 -48.999c0 -27.333 -5.33301 -52 -16 -74s-25 -44.333 -43 -67c12 0 24.333 1.16699 37 3.5s22.667 5.83301 30 10.5
c19.333 12.667 36.833 31.667 52.5 57s23.5 51.666 23.5 78.999c0 15.333 -3.33301 29.5 -10 42.5s-15.667 19.5 -27 19.5h-1z" />
    <glyph glyph-name="uniE0A1" unicode="ffj" horiz-adv-x="778" 
d="M625 85c0 -86 -7.99902 -147.83 -23.999 -185.497s-40.667 -63.834 -74 -78.501v-4c2.66699 -10 7.66699 -18.167 15 -24.5s15.666 -9.5 24.999 -9.5c10 0 25.167 6.16699 45.5 18.5s38.5 31.166 54.5 56.499c28.667 50 42.667 117.333 42 202v324
c0 26 -1.16699 43 -3.5 51s-5.83301 12 -10.5 12c-6 0 -15.833 -1.33301 -29.5 -4s-28.5 -4 -44.5 -4c-17.333 -1.33301 -35.833 -2 -55.5 -2h-56.5c-18 0 -33.833 0.166992 -47.5 0.5s-22.5 0.5 -26.5 0.5c0 72 11.5 121 34.5 147s49.5 39 79.5 39c14 0 26 -1.66699 36 -5
s20 -7 30 -11c9.33301 -4.66699 18.166 -1.5 26.499 9.5s12.166 22.167 11.499 33.5c-6 8 -18.333 15.667 -37 23s-39 11 -61 11c-54 0.666992 -101.667 -19.666 -143 -60.999c-10 8 -24.667 16.833 -44 26.5s-44.666 14.5 -75.999 14.5c-26 0 -51.333 -4 -76 -12
s-46.667 -20.667 -66 -38c-26.667 -24.667 -45.5 -51.834 -56.5 -81.501s-17.167 -61.5 -18.5 -95.5c-24.667 -9.33301 -42.667 -20.666 -54 -33.999c0 -8 4 -13.833 12 -17.5s22 -5.5 42 -5.5c0.666992 -142 0 -266.333 -2 -373c-0.666992 -10.667 4 -15.334 14 -14.001
c6 0 17.333 0.666992 34 2s30 3 40 5c0 14 -0.333008 36.667 -1 68s-1.16699 65.833 -1.5 103.5s-0.5 75.334 -0.5 113.001s0.333008 69.5 1 95.5h192v-197c0 -68.667 -0.666992 -127.334 -2 -176.001c-0.666992 -10.667 3.66602 -15.334 12.999 -14.001
c6.66699 0 18.334 0.666992 35.001 2s29.667 3 39 5c0 14 -0.333008 36.667 -1 68s-1 65.833 -1 103.5v113v95.5c52.667 0 93.834 0.166992 123.501 0.5s52.167 1.5 67.5 3.5v-300zM160.001 438.003c-0.666992 50 9.5 90.666 30.5 121.999s52.5 47 94.5 47
c16.667 0 33.667 -2.83301 51 -8.5s31 -14.167 41 -25.5c-8.66699 -15.333 -15.167 -36.166 -19.5 -62.499s-6.5 -50.5 -6.5 -72.5h-191z" />
    <glyph glyph-name="uniE0A2" unicode="fj" horiz-adv-x="499" 
d="M347 83c0 -88 -7.66699 -149.828 -23 -185.495s-40 -61.167 -74 -76.5l-1 -4c2.66699 -10 7.66699 -18.167 15 -24.5s15.666 -9.5 24.999 -9.5c10 0 25.167 6.16699 45.5 18.5s38.5 31.166 54.5 56.499c29.333 49.333 43.333 116.666 42 201.999v321
c0 26.667 -1.16699 44.334 -3.5 53.001s-5.83301 13 -10.5 13c-6 0 -15.667 -1.5 -29 -4.5s-28.333 -4.5 -45 -4.5c-40 -0.666992 -78.833 -0.833984 -116.5 -0.500977s-59.834 0.5 -66.501 0.5c-1.33301 69.333 9.66699 117.666 33 144.999s51 41 83 41
c26 -1.33301 50 -7.33301 72 -18c10 -3.33301 18.5 1.66699 25.5 15s8.5 24.333 4.5 33c-8 8 -20.667 15.167 -38 21.5s-36 9.5 -56 9.5c-50 0.666992 -92 -13 -126 -41c-26 -21.333 -46.333 -48.5 -61 -81.5s-22 -74.5 -22 -124.5c-13.333 -6 -24 -11.5 -32 -16.5
s-15.333 -11.5 -22 -19.5c0 -7.33301 4 -12.833 12 -16.5s22 -5.5 42 -5.5c0.666992 -141.333 0.333984 -265.333 -0.999023 -372c-0.666992 -10.667 3.66602 -15.334 12.999 -14.001c6.66699 0 18.334 0.666992 35.001 2s30 3 40 5c0 14 -0.333008 36.667 -1 68
s-1.16699 65.666 -1.5 102.999l-1 112.5c-0.333008 37.667 -0.166016 69.5 0.500977 95.5h105.5c33 0 60.5 1 82.5 3v-300z" />
    <glyph glyph-name="ff" unicode="ff" horiz-adv-x="539" 
d="M351 381c0 -62.667 0.169922 -128.332 0.50293 -196.999s-0.166992 -127 -1.5 -175c-0.666992 -11.333 3.66602 -16.333 12.999 -15c6.66699 0 18.334 0.666992 35.001 2s30 3 40 5c0 13.333 -0.333008 35.666 -1 66.999s-1.16699 65.833 -1.5 103.5l-1 113
c-0.333008 37.667 -0.166016 69.834 0.500977 96.501c56.667 -0.666992 91 2.66602 103 9.99902c13.333 7.33301 22.333 23.666 27 48.999c-5.33301 -1.33301 -13.666 -2.16602 -24.999 -2.49902s-23.5 -0.5 -36.5 -0.5s-25.667 0.166992 -38 0.5s-21.833 0.5 -28.5 0.5
c-2 68 6.5 115.833 25.5 143.5s39.833 41.5 62.5 41.5c16.667 0 29.667 -2 39 -6c10 -4 19.167 -0.333008 27.5 11s12.166 23 11.499 35c-4.66699 4.66699 -13.334 9.5 -26.001 14.5s-27.334 7.5 -44.001 7.5c-20.667 0 -42.334 -4.66699 -65.001 -14
s-42.334 -24.333 -59.001 -45c-10.667 8 -25.334 16.5 -44.001 25.5s-43 13.5 -73 13.5c-57.333 0.666992 -104.666 -16 -141.999 -50c-26 -24 -44.5 -51 -55.5 -81s-17.5 -62 -19.5 -96c-14 -6.66699 -24.833 -12.334 -32.5 -17.001s-14.834 -10.667 -21.501 -18
c0 -8 4 -13.667 12 -17s22 -5 42 -5c0.666992 -142 0.333984 -265.667 -0.999023 -371c-0.666992 -12 3.66602 -17.333 12.999 -16c6.66699 0 18.334 0.666992 35.001 2s29.667 3 39 5c0 14 -0.333008 36.667 -1 68s-1.16699 65.833 -1.5 103.5s-0.5 75.334 -0.5 113.001
s0.333008 69.5 1 95.5h192zM160.003 438.002c0.666992 52.667 11.5 94.334 32.5 125.001s51.833 46 92.5 46c16 0 32.833 -2.66699 50.5 -8s31.167 -14 40.5 -26c-8 -14.667 -14.167 -35.334 -18.5 -62.001s-6.5 -51.667 -6.5 -75h-191z" />
    <glyph glyph-name="fi" unicode="fi" horiz-adv-x="499" 
d="M431 381c0 26.667 -1.16699 44.333 -3.5 53s-5.83301 13 -10.5 13c-6 0 -15.667 -1.33301 -29 -4s-28.333 -4 -45 -4c-38.667 -2 -76.167 -2.83301 -112.5 -2.5s-59.833 0.5 -70.5 0.5c-2 68 8.66699 116 32 144s51 42 83 42c26 -0.666992 49.667 -6.33398 71 -17.001
c10 0 18.333 5.66699 25 17c5.33301 11.333 7 22 5 32c-8 8 -20.167 15 -36.5 21s-34.5 9 -54.5 9c-20.667 0 -42 -2.83301 -64 -8.5s-42.667 -16.5 -62 -32.5c-25.333 -20 -45.666 -46.5 -60.999 -79.5s-23 -75.5 -23 -127.5c-13.333 -6 -24 -11.667 -32 -17
s-15.333 -11.666 -22 -18.999c0 -7.33301 4 -12.833 12 -16.5s22 -5.5 42 -5.5c0 -72 0.166992 -138.333 0.5 -199s-0.166992 -118 -1.5 -172c-0.666992 -10.667 3.66602 -15.334 12.999 -14.001c6.66699 0 18.334 0.666992 35.001 2s29.667 3 39 5
c0 14 -0.333008 36.5 -1 67.5s-1.16699 65.167 -1.5 102.5s-0.5 74.833 -0.5 112.5s0.333008 69.5 1 95.5c52.667 0 93 0.333008 121 1s50.333 2 67 4v-234c0 -29.333 -0.5 -57.666 -1.5 -84.999s-1.5 -51 -1.5 -71c16.667 0.666992 28.667 1 36 1s17.333 1 30 3
c7.33301 1.33301 12.666 3.5 15.999 6.5s5 9.5 5 19.5v357z" />
    <glyph glyph-name="fl" unicode="fl" horiz-adv-x="499" 
d="M347 6c-0.666992 -9.33301 3.66992 -13.668 13.0029 -13.001c7.33301 0 19.666 0.833008 36.999 2.5s30 3.5 38 5.5c-1.33301 14 -2.33301 33.167 -3 57.5s-1 48.833 -1 73.5v501c0 23.333 -1.16699 37.833 -3.5 43.5s-5.83301 8.5 -10.5 8.5c-6 0 -15 -2.16699 -27 -6.5
s-23 -8.5 -33 -12.5c-8 4.66699 -19 9 -33 13s-29.333 6 -46 6c-22 0 -44.167 -3.83301 -66.5 -11.5s-42.5 -19.5 -60.5 -35.5c-22 -20 -39.833 -45.333 -53.5 -76s-21.167 -72 -22.5 -124c-14 -6.66699 -24.833 -12.5 -32.5 -17.5s-14.834 -11.5 -21.501 -19.5
c0 -14 18 -21.333 54 -22v-202c0 -62.667 -0.333008 -118.667 -1 -168c-0.666992 -11.333 3.66602 -16.333 12.999 -15c10 0 22.667 0.833008 38 2.5s27.333 3.5 36 5.5c0 13.333 -0.333008 35.5 -1 66.5s-1.16699 65.167 -1.5 102.5s-0.5 74.833 -0.5 112.5v96.5
c56 -1.33301 98.5 -1.16602 127.5 0.500977s49.5 3.5 61.5 5.5v-380zM347.004 437.998c-10 -0.666992 -24.834 -1.00098 -44.501 -1.00098h-59.5c-20 0 -38.167 0.166992 -54.5 0.5s-26.166 0.5 -29.499 0.5c0 66 11 114.333 33 145s48.667 46 80 46
c26.667 0.666992 49.667 -6.66602 69 -21.999c4.66699 -4 6.66699 -11.333 6 -22v-147z" />
    <glyph glyph-name="ffi" unicode="ffi" horiz-adv-x="777" 
d="M350 381l0.000976562 -196.999c0 -68.667 -0.333008 -127.334 -1 -176.001c0 -6 0.666992 -9.83301 2 -11.5s4.66602 -2.5 9.99902 -2.5c6.66699 0 18.5 0.666992 35.5 2s30.167 3 39.5 5c0 14 -0.333008 36.667 -1 68s-1.16699 65.833 -1.5 103.5
s-0.5 75.334 -0.5 113.001s0.333008 69.5 1 95.5h134c27.333 0 46.333 1 57 3v-233c0 -30 -0.5 -58.833 -1.5 -86.5s-1.5 -51.5 -1.5 -71.5c16.667 0 28.667 0.333008 36 1s17.333 2 30 4c8 1.33301 13.5 3.5 16.5 6.5s4.5 9.5 4.5 19.5v360c0 26 -1.16699 43 -3.5 51
s-5.83301 12 -10.5 12c-6 0 -16 -1.33301 -30 -4s-28.667 -4 -44 -4c-17.333 -1.33301 -36 -2 -56 -2h-57c-18 0 -33.667 0.166992 -47 0.5s-22 0.5 -26 0.5c0 75.333 12 125.166 36 149.499s50.333 36.5 79 36.5c24.667 0 46.667 -5 66 -15c10 -5.33301 19 -2 27 10
s11.667 23 11 33c-6 8 -18.333 15.5 -37 22.5s-39 10.5 -61 10.5c-28 0 -54.5 -5 -79.5 -15s-46.5 -25 -64.5 -45c-10 8 -24.667 16.667 -44 26s-45 14 -77 14c-24.667 0 -49.5 -4 -74.5 -12s-47.167 -20.667 -66.5 -38c-27.333 -24.667 -46.333 -51.834 -57 -81.501
s-16.667 -61.5 -18 -95.5c-24.667 -9.33301 -42.667 -20.666 -54 -33.999c0 -8 4 -13.833 12 -17.5s22 -5.5 42 -5.5c0.666992 -142 0 -266.333 -2 -373c-0.666992 -10.667 3.66602 -15.334 12.999 -14.001c6.66699 0 18.334 0.666992 35.001 2s30 3 40 5
c0 14 -0.333008 36.667 -1 68s-1.16699 65.833 -1.5 103.5s-0.5 75.334 -0.5 113.001s0.333008 69.5 1 95.5h191zM160.001 438.001c0 50.667 10.668 91.499 32.001 122.499s52.666 46.5 93.999 46.5c17.333 0 34.333 -2.66699 51 -8s30 -13.666 40 -24.999
c-10 -16 -17 -37.167 -21 -63.5s-6 -50.5 -6 -72.5h-190z" />
    <glyph glyph-name="ffl" unicode="ffl" horiz-adv-x="778" 
d="M351 381v-196.501c0 -69 -0.333008 -127.833 -1 -176.5c-0.666992 -10 3.66602 -14.667 12.999 -14c6 0 17.5 0.666992 34.5 2s30.5 3 40.5 5c0 14 -0.333008 36.667 -1 68s-1.16699 65.833 -1.5 103.5l-1 113c-0.333008 37.667 -0.166016 69.5 0.500977 95.5
c55.333 -0.666992 98 -0.166992 128 1.5s51 3.5 63 5.5v-383c0 -8.66699 4.33301 -12.667 13 -12c6 0 17.667 0.666992 35 2s30.666 3 39.999 5c-1.33301 14 -2.33301 33.333 -3 58s-1 49.334 -1 74.001v488c0 30 -1 48.333 -3 55s-5.66699 10 -11 10
c-6 0 -14.167 -2.16699 -24.5 -6.5l-30.5 -12.5c-8.66699 4 -20.5 8.16699 -35.5 12.5s-32.167 6.5 -51.5 6.5c-26.667 0 -52.334 -5 -77.001 -15s-46 -25 -64 -45c-10.667 9.33301 -26 18.333 -46 27s-43.667 13 -71 13s-53.5 -4 -78.5 -12s-47.5 -21 -67.5 -39
c-26.667 -24 -45.5 -51.167 -56.5 -81.5s-17.167 -62.166 -18.5 -95.499c-26 -10 -44 -21.333 -54 -34c0 -8 4 -13.833 12 -17.5s22 -5.5 42 -5.5c0.666992 -141.333 0.333984 -265.333 -0.999023 -372c-0.666992 -10.667 3.66602 -15.334 12.999 -14.001
c6.66699 0 18.334 0.666992 35.001 2s30 3 40 5c0 14 -0.333008 36.667 -1 68s-1.16699 65.833 -1.5 103.5l-1 113c-0.333008 37.667 -0.166016 69.5 0.500977 95.5h192zM625 437.999c-10 -0.666992 -25 -1 -45 -1h-60c-20 0 -38.333 0.166992 -55 0.5s-26.667 0.5 -30 0.5
c0 61.333 9.5 108.5 28.5 141.5s48.167 49.5 87.5 49.5c27.333 0.666992 50.333 -7 69 -23c4 -4 5.66699 -10.667 5 -20v-148zM160 437.999c0 50.667 10.833 91.834 32.5 123.501s52.5 47.5 92.5 47.5c42 -0.666992 72.667 -12.334 92 -35.001
c-7.33301 -14.667 -13.5 -35 -18.5 -61s-7.5 -51 -7.5 -75h-191z" />
    <glyph glyph-name=".notdef" horiz-adv-x="500" 
d="M0 0h500v700h-500v-700zM250 395l-170 255h340zM280 350l170 255v-510zM80 50l170 255l170 -255h-340zM50 605l170 -255l-170 -255v510z" />
    <glyph glyph-name="space" unicode=" " horiz-adv-x="212" 
 />
    <glyph glyph-name="exclam" unicode="!" horiz-adv-x="184" 
d="M128 607c-11.333 0 -26.998 -2.8291 -46.998 -8.49609s-30.667 -11.167 -32 -16.5c0 -20 0.833008 -49.333 2.5 -88s3.66699 -78.334 6 -119.001s4.66602 -78.334 6.99902 -113.001s4.16602 -57.334 5.49902 -68.001c2 0 6.5 0.833008 13.5 2.5s14.833 4.16699 23.5 7.5
c3.33301 2 6.5 4.66699 9.5 8s5.16699 9.66602 6.5 18.999c0 7.33301 1.16699 27.5 3.5 60.5l7.5 108l7.5 111.5c2.33301 35.333 3.5 59 3.5 71c0 10 -1.33301 16.667 -4 20s-6.66699 5 -12 5h-1zM95.002 99.0039c-19.333 0 -33.833 -5.5 -43.5 -16.5
s-14.5 -24.167 -14.5 -39.5c0 -18 5.66699 -31.5 17 -40.5s23 -13.5 35 -13.5c16.667 0 30.167 5.16699 40.5 15.5s15.5 23.833 15.5 40.5c0 14 -4.5 26.5 -13.5 37.5s-20.833 16.5 -35.5 16.5h-1z" />
    <glyph glyph-name="quotedbl" unicode="&#x22;" horiz-adv-x="294" 
d="M94 674c-8.66699 0 -19.165 -2.5 -31.498 -7.5s-21.833 -9.83301 -28.5 -14.5c4.66699 -27.333 7.66699 -61.5 9 -102.5s2 -76.167 2 -105.5c10 0 19.833 2.66699 29.5 8s16.167 10.666 19.5 15.999c5.33301 15.333 10.666 38.5 15.999 69.5s8.33301 58.5 9 82.5
c0 12.667 -1.33301 24.834 -4 36.501s-9.33398 17.5 -20.001 17.5h-1zM236.002 674c-8.66699 0 -18.999 -2.5 -30.999 -7.5s-21.333 -9.83301 -28 -14.5c4.66699 -27.333 7.66699 -61.5 9 -102.5s2 -76.167 2 -105.5c10 0 19.667 2.66699 29 8s15.666 10.666 18.999 15.999
c6 15.333 11.5 38.5 16.5 69.5s7.83301 58.5 8.5 82.5c0 12.667 -1 24.834 -3 36.501s-9 17.5 -21 17.5h-1z" />
    <glyph glyph-name="numbersign" unicode="#" horiz-adv-x="463" 
d="M76 469c-6.66699 -10 -12 -24.3311 -16 -42.998c-3.33301 -10 1.66699 -14.667 15 -14h71l-29 -133h-78c-6.66699 -11.333 -12 -25.333 -16 -42c-2.66699 -10 2.33301 -14.667 15 -14l67 -1l-31 -142c6 -4.66699 13 -8.83398 21 -12.501s14 -5.5 18 -5.5
c8 -0.666992 12.667 3.66602 14 12.999l30 147h96l-30 -145c-2.66699 -8.66699 -0.333984 -13.667 6.99902 -15c8 0 16.833 1.33301 26.5 4s15.834 5.33398 18.501 8.00098l28 148h81c3.33301 4 6.33301 10.167 9 18.5s5 16.5 7 24.5c2 10 -2.66699 14.667 -14 14h-69
l28 133h70c6.66699 10.667 12 24 16 40c2.66699 12 -2 17.667 -14 17h-60l25 116c3.33301 10 1.33301 15 -6 15c-8.66699 0 -18 -1.5 -28 -4.5s-16 -5.5 -18 -7.5l-26 -119h-92l25 116c0.666992 3.33301 0.666992 6.66602 0 9.99902s-2.66699 5 -6 5
c-7.33301 0 -16 -1.5 -26 -4.5s-16.667 -5.5 -20 -7.5l-27 -119h-82zM292 412.002l-28 -133h-94l29 133h93z" />
    <glyph glyph-name="dollar" unicode="$" horiz-adv-x="463" 
d="M299 657c-16 0.666992 -31.999 -1.32617 -47.999 -5.99316c-9.33301 -2 -15 -10 -17 -24l-8 -54c-12 -1.33301 -26.167 -5 -42.5 -11s-31.833 -15 -46.5 -27s-27.167 -27 -37.5 -45s-15.5 -39.667 -15.5 -65c0 -37.333 10.5 -67.833 31.5 -91.5s52.5 -47.167 94.5 -70.5
c37.333 -21.333 66.166 -40.166 86.499 -56.499s30.5 -36.5 30.5 -60.5c0 -28 -9.66699 -49.833 -29 -65.5s-45 -23.5 -77 -23.5c-22.667 0 -46.334 4.33301 -71.001 13s-46 19.667 -64 33c-6 3.33301 -10.333 2.33301 -13 -3c-6 -6 -9.33301 -15.167 -10 -27.5
s1.33301 -21.5 6 -27.5c11.333 -10 27.5 -19.5 48.5 -28.5s45.167 -14.5 72.5 -16.5l-10 -93c16 -0.666992 31.333 0.666016 46 3.99902c11.333 1.33301 18 7.66602 20 18.999l8 74c15.333 1.33301 32 5.16602 50 11.499s34.833 15.666 50.5 27.999s28.667 28.166 39 47.499
s15.5 43 15.5 71c0 43.333 -13.167 75.5 -39.5 96.5s-55.833 41.5 -88.5 61.5c-35.333 20 -63.666 38.167 -84.999 54.5s-32 38.166 -32 65.499c0 24 9 43.5 27 58.5s41 22.5 69 22.5c16.667 0 33.5 -2.83301 50.5 -8.5s33.167 -12.5 48.5 -20.5
c10 -1.33301 18.667 2.5 26 11.5s11.333 19.167 12 30.5c-10 9.33301 -25.5 18.166 -46.5 26.499s-41.5 13.166 -61.5 14.499z" />
    <glyph glyph-name="percent" unicode="%" horiz-adv-x="680" 
d="M550 591c-4 11.333 -10.998 20.334 -20.998 27.001c-8.66699 9.33301 -15.334 9.66602 -20.001 0.999023l-93 -152.5l-102 -166l-99.5 -161.5l-85.5 -139c3.33301 -11.333 10.333 -21 21 -29c3.33301 -3.33301 6.66602 -4.83301 9.99902 -4.5s7.33301 3.83301 12 10.5
l216 349.5zM171.002 602.001c-24 0 -44.8311 -5.33496 -62.498 -16.002s-32.167 -24.167 -43.5 -40.5s-19.5 -34.5 -24.5 -54.5s-7.5 -39.333 -7.5 -58c0 -55.333 13.167 -96.166 39.5 -122.499s58.166 -39.5 95.499 -39.5c45.333 0 79.166 17.167 101.499 51.5
s33.5 72.5 33.5 114.5c0 44.667 -10.333 83.334 -31 116.001s-54 49 -100 49h-1zM168.004 556.999c26.667 0 44.5 -13.832 53.5 -41.499s13.5 -53.5 13.5 -77.5c0 -36 -5.5 -65.5 -16.5 -88.5s-27.833 -34.5 -50.5 -34.5c-24 0 -41.167 12.167 -51.5 36.5
s-15.5 52.166 -15.5 83.499c0 35.333 5.5 64.5 16.5 87.5s27.5 34.5 49.5 34.5h1zM517.004 319c-48 0 -83.333 -18.333 -106 -55s-34 -75 -34 -115c0 -59.333 13.833 -101 41.5 -125s59.167 -36 94.5 -36c44 0 77.333 16.833 100 50.5s34 71.5 34 113.5
c0 44 -10 82.833 -30 116.5s-53 50.5 -99 50.5h-1zM512.004 274c28 0 46.166 -13.834 54.499 -41.501s12.5 -54.167 12.5 -79.5c0 -38 -5.66699 -67.5 -17 -88.5s-27.666 -31.5 -48.999 -31.5c-24 0 -41.333 11.833 -52 35.5s-16 50.834 -16 81.501
c0 33.333 5.5 62.333 16.5 87s27.5 37 49.5 37h1z" />
    <glyph glyph-name="ampersand" unicode="&#x26;" horiz-adv-x="650" 
d="M611 7l-42.0029 41.002l-108 102c68.667 120.667 119.667 198 153 232v4c-6 6 -13.333 11.5 -22 16.5s-19 7.5 -31 7.5c-12 0.666992 -25.333 -10.666 -40 -33.999c-14 -22 -30.333 -50.333 -49 -85l-54 -100l-23.5 20.5l-37.5 34l-44 41l-41 39.5
c26 17.333 53.167 37.666 81.5 60.999s42.5 55 42.5 95c0 46 -14.167 79.5 -42.5 100.5s-61.166 31.5 -98.499 31.5c-44 0 -80.5 -13.833 -109.5 -41.5s-43.5 -63.5 -43.5 -107.5c0.666992 -50 22.667 -96.333 66 -139l-42.5 -31c-15 -10.667 -28.667 -22.834 -41 -36.501
s-22.5 -28.834 -30.5 -45.501s-12 -36 -12 -58c0 -52 16.833 -92.833 50.5 -122.5s77.834 -44.5 132.501 -44.5c26 0 55.333 6 88 18s65.334 39 98.001 81c40.667 -37.333 69 -64.333 85 -81c14 -13.333 26.667 -20 38 -20c15.333 0 30 2 44 6s25 7.66699 33 11v4z
M176.997 474.002c0 26.667 6.66699 48.002 20 64.002s31.333 24 54 24c18.667 0 35.334 -7 50.001 -21s22 -33.667 22 -59c0 -24.667 -7.33301 -46.667 -22 -66s-35.334 -38 -62.001 -56c-22 19.333 -37.833 38.666 -47.5 57.999s-14.5 37.666 -14.5 54.999v1z
M244.997 53.0039c-33.333 0 -61.499 10.668 -84.499 32.001s-34.5 48.666 -34.5 81.999c0 26 6.83301 49 20.5 69s32.167 38.333 55.5 55c7.33301 -8.66699 17.666 -19.667 30.999 -33l44 -43.5l49 -47l46 -42.5c-21.333 -30 -43 -49.5 -65 -58.5s-42.333 -13.5 -61 -13.5
h-1z" />
    <glyph glyph-name="quotesingle" unicode="'" horiz-adv-x="152" 
d="M95 674c-9.33301 0 -20.166 -2.5 -32.499 -7.5s-22.166 -9.83301 -29.499 -14.5c5.33301 -27.333 8.66602 -61.333 9.99902 -102s1.66602 -76 0.999023 -106c10 0 19.833 2.5 29.5 7.5s16.167 10.167 19.5 15.5c6 15.333 11.667 38.666 17 69.999s8.33301 59 9 83
c0 12.667 -1.33301 24.834 -4 36.501s-9 17.5 -19 17.5h-1z" />
    <glyph glyph-name="parenleft" unicode="(" horiz-adv-x="326" 
d="M57 245c0 -44 3.99902 -87.6631 11.999 -130.996s20 -83.833 36 -121.5s35.5 -71.834 58.5 -102.501s49.167 -55.334 78.5 -74.001c6 0 13.333 4.33301 22 13s14.334 19 17.001 31c-49.333 45.333 -87.166 101.666 -113.499 168.999s-39.5 143 -39.5 227
c0 76.667 12.5 148.667 37.5 216s63.5 127.666 115.5 180.999c1.33301 8 -1.33398 17.333 -8.00098 28s-14 17 -22 19c-57.333 -48 -104 -110 -140 -186s-54 -165.333 -54 -268v-1z" />
    <glyph glyph-name="parenright" unicode=")" horiz-adv-x="326" 
d="M276 272c0 50 -5.33203 97.665 -15.999 142.998s-24.834 86.5 -42.501 123.5s-37.5 69.333 -59.5 97s-44.333 49.167 -67 64.5c-7.33301 0 -15 -4.33301 -23 -13s-13 -19 -15 -31c48 -45.333 85.333 -101.5 112 -168.5s40 -142.833 40 -227.5
c0.666992 -158.667 -50 -291 -152 -397c-2 -9.33301 0.5 -18.666 7.5 -27.999s14.5 -15.666 22.5 -18.999c61.333 52 108.833 116.333 142.5 193s50.5 164 50.5 262v1z" />
    <glyph glyph-name="asterisk" unicode="*" horiz-adv-x="351" 
d="M168 538l-88 83.998c-14 -9.33301 -25 -20.666 -33 -33.999c-6 -10.667 -2.33301 -19.667 11 -27l89 -48l-102 -33c-8 -4 -10.667 -11.667 -8 -23c1.33301 -8 4.16602 -16 8.49902 -24s9.5 -13.667 15.5 -17l100 70l-24 -91c-4.66699 -20.667 -1 -31.667 11 -33
c21.333 -4 37 -4.33301 47 -1l-2 121l94 -85c5.33301 3.33301 11 7.83301 17 13.5s10.667 12.167 14 19.5c6.66699 13.333 3.66699 23.333 -9 30l-95 50l91 30c14 4 19.333 13 16 27c-3.33301 15.333 -11 28 -23 38l-97 -65l27 104c2 11.333 -4.66699 18 -20 20
c-15.333 2.66699 -28.666 2.33398 -39.999 -0.999023v-125z" />
    <glyph glyph-name="plus" unicode="+" horiz-adv-x="572" 
d="M253 222l-0.000976562 -213.001l27 2c14.667 1.33301 24.667 4.33301 30 9s8 11 8 19v183h159c12.667 0 21.167 5.33301 25.5 16s6.83301 25 7.5 43h-192v155c0 15.333 -1.66699 25.333 -5 30s-10 6.33398 -20 5.00098l-43 -5c0.666992 -9.33301 1.33398 -22 2.00098 -38
s1 -30.667 1 -44v-103h-160c-12 0 -20.333 -5.33301 -25 -16s-7 -25 -7 -43h192z" />
    <glyph glyph-name="comma" unicode="," horiz-adv-x="174" 
d="M106 128c-10.667 0 -21.834 -2.5 -33.501 -7.5s-21.5 -9.83301 -29.5 -14.5c2.66699 -10.667 4.33398 -24.334 5.00098 -41.001c0 -28.667 -6 -58 -18 -88s-27.333 -57 -46 -81c26.667 -1.33301 48 3.33398 64 14.001c19.333 14 38.833 36.667 58.5 68s29.5 62 29.5 92
c0 10.667 -2 23 -6 37s-11.667 21 -23 21h-1z" />
    <glyph glyph-name="hyphen" unicode="-" horiz-adv-x="300" 
d="M265 291c-22 -6 -52.834 -12.6699 -92.501 -20.0029s-74.5 -13 -104.5 -17c-6 -0.666992 -12.5 -7.5 -19.5 -20.5s-12.167 -28.5 -15.5 -46.5l2 -4c10 0 22.833 0.833008 38.5 2.5s32.167 3.83398 49.5 6.50098s33.833 5.83398 49.5 9.50098s28.5 7.5 38.5 11.5
c16.667 4 29.334 13.333 38.001 28s14.667 30.334 18 47.001z" />
    <glyph glyph-name="period" unicode="." horiz-adv-x="174" 
d="M90 103c-18.667 0 -33.002 -5.83301 -43.002 -17.5s-15 -25.5 -15 -41.5c0 -18.667 5.83301 -32.5 17.5 -41.5s23.5 -13.5 35.5 -13.5c16.667 0 30.334 5.16699 41.001 15.5s16 24.5 16 42.5c0 14 -4.66699 26.833 -14 38.5s-21.666 17.5 -36.999 17.5h-1z" />
    <glyph glyph-name="slash" unicode="/" horiz-adv-x="354" 
d="M319 641l-38 -0.998047c-13.333 -0.666992 -22 -3.33398 -26 -8.00098s-7 -11.334 -9 -20.001l-206 -706l44 1c8.66699 0.666992 15.5 3.16699 20.5 7.5s9.5 13.5 13.5 27.5z" />
    <glyph glyph-name="zero" unicode="0" horiz-adv-x="463" 
d="M236 602c-40 0 -73.333 -9.99805 -100 -29.998s-48 -45 -64 -75s-27 -63.167 -33 -99.5s-9 -70.5 -9 -102.5c0 -60 5.66699 -109.667 17 -149s26.333 -70.833 45 -94.5s40 -40.167 64 -49.5s48.667 -14 74 -14c62 0 111.167 24.833 147.5 74.5s54.5 127.5 54.5 233.5
c0 28 -2.16699 59.667 -6.5 95s-13.5 68.666 -27.5 99.999s-33.667 57.666 -59 78.999s-59.333 32 -102 32h-1zM232 546.002c22 0 40 -7.33496 54 -22.002s25.167 -33.667 33.5 -57s14.333 -49.5 18 -78.5s5.5 -57.5 5.5 -85.5c0 -57.333 -3.5 -103 -10.5 -137
s-15.667 -60 -26 -78s-21.833 -29.833 -34.5 -35.5s-25 -8.5 -37 -8.5c-14 0 -28 3.83301 -42 11.5s-26.5 21.334 -37.5 41.001s-19.833 45.834 -26.5 78.501s-10 73.667 -10 123c0 90 11.667 153.833 35 191.5s49 56.5 77 56.5h1z" />
    <glyph glyph-name="one" unicode="1" horiz-adv-x="463" 
d="M314 602c-20 -10 -49.667 -22.333 -89 -37l-124 -45l-22 -53l2 -3c20 5.33301 46.333 13 79 23s58.334 19 77.001 27c0 -64.667 -0.166992 -125.667 -0.5 -183s-0.5 -108.833 -0.5 -154.5v-116v-66.5c6.66699 0 16.667 0.5 30 1.5s25.666 1.83301 36.999 2.5
c7.33301 1.33301 12.833 3.5 16.5 6.5s5.5 9.5 5.5 19.5c0 20 -0.333008 57.833 -1 113.5s-1 114.5 -1 176.5v174.5v107.5z" />
    <glyph glyph-name="two" unicode="2" horiz-adv-x="463" 
d="M40 13l3.00098 -7c23.333 -4.66699 56.833 -7.5 100.5 -8.5s90.5 -1.5 140.5 -1.5c26 0 48 1.16699 66 3.5s30 5.5 36 9.5c6.66699 2 14.5 8.66699 23.5 20s14.5 23 16.5 35c-43.333 -2 -90.833 -3.16699 -142.5 -3.5s-96.5 0.833984 -134.5 3.50098
c42 42.667 79.167 82.834 111.5 120.501s56.5 69.167 72.5 94.5c16 24.667 28.833 49 38.5 73s14.5 49.333 14.5 76c0 50 -14.5 91.5 -43.5 124.5s-70.5 49.5 -124.5 49.5c-33.333 0 -66.333 -7.5 -99 -22.5s-59.667 -36.5 -81 -64.5c0 -10.667 2.33301 -20 7 -28
c7.33301 -15.333 18.666 -16.333 33.999 -3c10 8.66699 25.333 19.167 46 31.5s43.667 18.5 69 18.5c30 0 54.5 -9.83301 73.5 -29.5s28.5 -48.5 28.5 -86.5c0 -44.667 -17.833 -94.334 -53.5 -149.001s-97.167 -127.334 -184.5 -218.001z" />
    <glyph glyph-name="three" unicode="3" horiz-adv-x="463" 
d="M47 52c-0.666992 -10 1.16699 -20.334 5.5 -31.001s9.5 -19 15.5 -25c6 -4.66699 18.833 -10.167 38.5 -16.5s43.5 -9.5 71.5 -9.5c68.667 0 126 17.5 172 52.5s69 84.167 69 147.5c0 37.333 -11.667 69.833 -35 97.5s-61.333 46.834 -114 57.501
c32.667 14.667 59 33.334 79 56.001s30 51.667 30 87c0 10.667 -2.5 23.667 -7.5 39s-13.5 30 -25.5 44s-28.5 26 -49.5 36s-47.5 15 -79.5 15c-31.333 0 -62.333 -7.66699 -93 -23s-52.667 -32 -66 -50c-2 -11.333 0.333008 -22.333 7 -33c3.33301 -6 8 -8.5 14 -7.5
s12 4.16699 18 9.5c12 9.33301 27.333 18 46 26s37 12 55 12c29.333 0 52 -8.33301 68 -25s24 -37.334 24 -62.001c0 -36.667 -13.5 -65 -40.5 -85s-61.5 -34 -103.5 -42c-4 -4 -8.83301 -11.5 -14.5 -22.5s-9.5 -20.5 -11.5 -28.5l3 -3c16 2.66699 35 4.66699 57 6
c46.667 0 82.5 -9.66699 107.5 -29s37.5 -46.333 37.5 -81c0 -35.333 -11 -66.5 -33 -93.5s-62.667 -40.5 -122 -40.5c-22 0 -44.5 2.5 -67.5 7.5s-40.833 10.5 -53.5 16.5z" />
    <glyph glyph-name="four" unicode="4" horiz-adv-x="463" 
d="M389 625c-14.667 -2 -32.168 -6.99609 -52.501 -14.9961s-37.5 -17.333 -51.5 -28c-12.667 -12.667 -31 -34.334 -55 -65.001s-49 -64.334 -75 -101.001l-76 -110.5c-24.667 -37 -44 -67.833 -58 -92.5c0.666992 -6.66699 4.16699 -14.334 10.5 -23.001
s11.5 -14 15.5 -16c20 -4 53.5 -7.33301 100.5 -10s92.5 -4 136.5 -4c0 -32 -0.666992 -62.667 -2 -92s-2 -54 -2 -74c6 0 16 0.333008 30 1s26.333 2 37 4c7.33301 1.33301 13 3.66602 17 6.99902s6 9.33301 6 18v67v69l17.5 2.5c7 1 13.5 2.5 19.5 4.5
c16.667 11.333 28.334 29.666 35.001 54.999l-1 2c-12 -1.33301 -25.5 -2.33301 -40.5 -3s-25.167 -1 -30.5 -1v184l-5 3c-12 -1.33301 -25.5 -4.16602 -40.5 -8.49902s-27.167 -8.5 -36.5 -12.5l-3 -166c-32 -0.666992 -63.5 -0.166992 -94.5 1.5
s-58.833 4.16699 -83.5 7.5c36.667 64 80.5 130.667 131.5 200s101.833 133 152.5 191z" />
    <glyph glyph-name="five" unicode="5" horiz-adv-x="463" 
d="M61 306c18 -2 42.0029 -5.33105 72.0029 -9.99805s58 -10.667 84 -18c32.667 -10 59 -23.5 79 -40.5s30 -41.833 30 -74.5c0 -48 -16.667 -82.5 -50 -103.5s-71.333 -31.5 -114 -31.5c-21.333 0 -41.333 1.83301 -60 5.5s-32.334 7.16699 -41.001 10.5l-3 -2
c0 -10 2 -19.833 6 -29.5s9.33301 -17.5 16 -23.5c5.33301 -4 15.666 -8.16699 30.999 -12.5s36.666 -6.5 63.999 -6.5c66 0 122.833 18.333 170.5 55s71.5 86.334 71.5 149.001c0 45.333 -13.5 81.333 -40.5 108s-66.5 47.334 -118.5 62.001
c-18 4.66699 -39.333 9.16699 -64 13.5l-65 11.5c0.666992 7.33301 2.33398 18.166 5.00098 32.499s5.66699 29.333 9 45s6.66602 30.5 9.99902 44.5s6 24.333 8 31c68 2.66699 114.5 5.5 139.5 8.5s42.5 8.5 52.5 16.5c6.66699 6 12.167 14 16.5 24s7.5 20 9.5 30l-2 4
c-8 -2 -24.333 -3.83301 -49 -5.5s-51 -3.33398 -79 -5.00098s-54.833 -2.83398 -80.5 -3.50098s-43.5 -1 -53.5 -1c-4 -8 -8.83301 -23.5 -14.5 -46.5s-11.5 -48.5 -17.5 -76.5l-17.5 -83.5c-5.66699 -27.667 -9.5 -49.834 -11.5 -66.501z" />
    <glyph glyph-name="six" unicode="6" horiz-adv-x="463" 
d="M424 587c-10.667 25.333 -28 37.3291 -52 35.9961c-11.333 0 -26.5 -2.16699 -45.5 -6.5s-39.833 -11.5 -62.5 -21.5s-46.167 -23.5 -70.5 -40.5s-47.5 -38.167 -69.5 -63.5c-32 -36.667 -56.167 -77 -72.5 -121s-24.5 -89.333 -24.5 -136c0 -46 5.66699 -84.667 17 -116
s26.666 -56.666 45.999 -75.999s41.333 -33.166 66 -41.499s50 -12.5 76 -12.5c64 0 113.833 20.333 149.5 61s53.5 88.334 53.5 143.001c0 16.667 -2.66699 34.834 -8 54.501s-14 37.834 -26 54.501s-27.833 30.667 -47.5 42s-43.834 17 -72.501 17
c-20 0 -40 -3.66699 -60 -11s-37 -17 -51 -29c-6.66699 -6 -11.667 -14.833 -15 -26.5s-4.66602 -20.834 -3.99902 -27.501c30.667 20 61 30.333 91 31c23.333 0 46.833 -8.5 70.5 -25.5s35.5 -49.5 35.5 -97.5c0 -44.667 -10.667 -77.5 -32 -98.5
s-45.666 -31.5 -72.999 -31.5c-34 0 -63.333 15 -88 45s-37 78 -37 144c0 48 7.33301 92.5 22 133.5s35.667 76.5 63 106.5s59.333 54 96 72s78 31.333 124 40z" />
    <glyph glyph-name="seven" unicode="7" horiz-adv-x="463" 
d="M427 590l-52.498 -0.00390625h-79.5h-80h-53c-45.333 -0.666992 -73 2 -83 8c-9.33301 -6 -18.5 -15.167 -27.5 -27.5s-13.5 -22.166 -13.5 -29.499c-1.33301 -6 2.66699 -10.833 12 -14.5s28 -5.5 56 -5.5c107.333 0.666992 187.333 1 240 1
c-10.667 -40 -26.334 -84.833 -47.001 -134.5s-43.334 -99.5 -68.001 -149.5s-50.167 -96.833 -76.5 -140.5s-50.833 -79.5 -73.5 -107.5l2 -5c12.667 0 28.667 1.33301 48 4c10 2.66699 18.833 5.83398 26.5 9.50098s15.5 9.83398 23.5 18.501c11.333 12 30 41.333 56 88
s52.833 99 80.5 157s52.5 116.833 74.5 176.5s35 108.834 39 147.501z" />
    <glyph glyph-name="eight" unicode="8" horiz-adv-x="463" 
d="M237 602c-55.333 0 -98.832 -16.166 -130.499 -48.499s-47.5 -69.166 -47.5 -110.499c0 -29.333 7.16699 -56.333 21.5 -81s41.166 -47 80.499 -67c-36 -22 -66 -44.333 -90 -67s-36 -52.667 -36 -90c0 -14.667 2.83301 -30.834 8.5 -48.501s15.667 -34 30 -49
s34 -27.5 59 -37.5s56.5 -15 94.5 -15c60 0 108.5 16 145.5 48s55.5 70.667 55.5 116c0 42 -11.833 73.667 -35.5 95s-55.5 42.666 -95.5 63.999c28 19.333 52.5 40 73.5 62s31.5 51 31.5 87c0 42.667 -15.333 77 -46 103s-70 39 -118 39h-1zM231.001 549.001
c30 0 53.333 -9 70 -27s25 -41 25 -69c0 -24 -7.33301 -46 -22 -66s-32.667 -37 -54 -51c-39.333 18 -67.833 35.833 -85.5 53.5s-26.5 40.167 -26.5 67.5c0 30 9.33301 52.833 28 68.5s40 23.5 64 23.5h1zM233.001 42.001c-30 0 -56.501 9.00098 -79.501 27.001
s-34.5 43.667 -34.5 77c0 24 8 45.833 24 65.5s38 38.167 66 55.5c48.667 -24 83 -45 103 -63s30 -39 30 -63c0 -32.667 -10.667 -57.334 -32 -74.001s-46.666 -25 -75.999 -25h-1z" />
    <glyph glyph-name="nine" unicode="9" horiz-adv-x="463" 
d="M59 10c2.66699 -13.333 9.99707 -24.333 21.9971 -33c6.66699 -4.66699 17 -7 31 -7c14.667 0 42.167 6.83301 82.5 20.5s80.5 39.834 120.5 78.501c42 41.333 71.5 86.166 88.5 134.499s25.5 97.5 25.5 147.5c0 30.667 -3.66699 60.834 -11 90.501s-19 56.5 -35 80.5
s-36.5 43.333 -61.5 58s-55.167 22 -90.5 22c-32.667 0 -61.5 -6 -86.5 -18s-46 -27.333 -63 -46s-29.833 -39.834 -38.5 -63.501s-13 -47.5 -13 -71.5c0 -48 14 -88.667 42 -122s68 -50 120 -50c19.333 0 36.833 2.66699 52.5 8s26.834 11.333 33.501 18
c6 5.33301 10.5 13.333 13.5 24s4.5 19.667 4.5 27c-6.66699 -3.33301 -16.5 -6.83301 -29.5 -10.5s-25.5 -5.5 -37.5 -5.5c-29.333 0 -55.166 9.66699 -77.499 29s-33.5 51 -33.5 95c0 34 9 64.167 27 90.5s43.667 39.5 77 39.5c38 0 66.833 -18.333 86.5 -55
s29.5 -82 29.5 -136c0 -47.333 -6.16699 -92 -18.5 -134s-34.166 -79.333 -65.499 -112c-28 -30 -60.833 -52.5 -98.5 -67.5s-69.5 -24.5 -95.5 -28.5z" />
    <glyph glyph-name="colon" unicode=":" horiz-adv-x="174" 
d="M88 419c-18.667 0 -32.668 -5.66699 -42.001 -17s-14 -25 -14 -41c0 -19.333 5.83301 -33.5 17.5 -42.5s23.834 -13.5 36.501 -13.5c16 0 29 5.33301 39 16s15 24.667 15 42c0 15.333 -4.5 28.5 -13.5 39.5s-21.5 16.5 -37.5 16.5h-1zM90.999 103
c-18 0 -32.166 -5.66699 -42.499 -17s-15.5 -25.333 -15.5 -42c0 -19.333 5.83301 -33.333 17.5 -42s23.5 -13 35.5 -13c17.333 0 31.166 5.16699 41.499 15.5s15.5 24.5 15.5 42.5c0 15.333 -5 28.5 -15 39.5s-22 16.5 -36 16.5h-1z" />
    <glyph glyph-name="semicolon" unicode=";" horiz-adv-x="174" 
d="M90 419c-19.333 0 -33.833 -5.83301 -43.5 -17.5s-14.5 -25.5 -14.5 -41.5c0 -19.333 5.83301 -33.333 17.5 -42s23.5 -13 35.5 -13c16 0 29.167 5.33301 39.5 16s15.5 24.667 15.5 42c0 14.667 -4.5 27.667 -13.5 39s-20.833 17 -35.5 17h-1zM105 128
c-10 0 -20.834 -2.50098 -32.501 -7.50098s-21.5 -9.83301 -29.5 -14.5c2.66699 -10.667 4.33398 -24.334 5.00098 -41.001c0 -28.667 -6.16699 -58.167 -18.5 -88.5s-27.5 -57.166 -45.5 -80.499c26.667 -1.33301 48 3.33398 64 14.001c19.333 14 38.833 36.667 58.5 68
s29.5 62 29.5 92c0 10.667 -2 23 -6 37s-12 21 -24 21h-1z" />
    <glyph glyph-name="less" unicode="&#x3c;" horiz-adv-x="572" 
d="M478 408c-0.666992 4.66699 -2 11.168 -4 19.501s-4 15.833 -6 22.5c-5.33301 12 -14.333 14.333 -27 7l-335 -201c-6.66699 -9.33301 -10.334 -22.333 -11.001 -39c0.666992 -8.66699 5.33398 -15 14.001 -19l332 -194c11.333 -6.66699 19.666 -5.33398 24.999 3.99902
c2.66699 6 5.33398 14 8.00098 24s4 17.333 4 22l-305 175v3z" />
    <glyph glyph-name="equal" unicode="=" horiz-adv-x="572" 
d="M478 316c12.667 0 21 5.00098 25 15.001s6.33301 24.667 7 44h-417c-21.333 -0.666992 -32 -20.334 -32 -59.001h417zM478 120.001c12.667 0 21 5.00098 25 15.001s6.33301 24.667 7 44h-417c-21.333 -0.666992 -32 -20.334 -32 -59.001h417z" />
    <glyph glyph-name="greater" unicode="&#x3e;" horiz-adv-x="572" 
d="M95 55c0 -6 0.832031 -13.168 2.49902 -21.501s4.16699 -15.166 7.5 -20.499c6 -12.667 14.667 -15.334 26 -8.00098l335 201c6.66699 9.33301 10.334 22.333 11.001 39c0 8 -4.66699 14 -14 18l-331 194c-12 6.66699 -20.667 5.33398 -26 -3.99902
c-2.66699 -6 -5.16699 -14 -7.5 -24s-3.5 -17.333 -3.5 -22l304 -174v-3z" />
    <glyph glyph-name="question" unicode="?" horiz-adv-x="326" 
d="M173 607c-18.667 0 -39.999 -3.83105 -63.999 -11.498s-45.667 -21.5 -65 -41.5c-2 -8.66699 -1.5 -17.834 1.5 -27.501s8.5 -16.5 16.5 -20.5h4c12 9.33301 25.667 17 41 23s31 9 47 9c19.333 0 34.666 -5.83301 45.999 -17.5s17 -26.5 17 -44.5
c0 -20 -6.16699 -39 -18.5 -57s-24.5 -34.667 -36.5 -50c-32 -40.667 -48.333 -79.334 -49 -116.001c0 -24.667 5.5 -42.5 16.5 -53.5s21.833 -16.5 32.5 -16.5c5.33301 0 11 1 17 3s10.667 5 14 9c-6 12.667 -9.33301 28 -10 46c0 12 4.16699 27 12.5 45s22.5 39 42.5 63
c18 22 33.333 43.833 46 65.5s19 44.5 19 68.5c0 37.333 -12 67.333 -36 90s-55 34 -93 34h-1zM169.001 99.002c-19.333 0 -33.833 -5.5 -43.5 -16.5s-14.5 -24.167 -14.5 -39.5c0 -18 5.83301 -31.5 17.5 -40.5s23.5 -13.5 35.5 -13.5c16 0 29.333 5.16699 40 15.5
s16 23.833 16 40.5c0 14 -4.83301 26.5 -14.5 37.5s-21.5 16.5 -35.5 16.5h-1z" />
    <glyph glyph-name="at" unicode="@" horiz-adv-x="744" 
d="M533 29c-24 -17.333 -50.999 -30.9961 -80.999 -40.9961s-60 -15 -90 -15c-79.333 0 -141.5 24.167 -186.5 72.5s-67.5 111.166 -67.5 188.499c0 45.333 7 87.666 21 126.999s34 73.833 60 103.5s58.167 53.167 96.5 70.5s81.5 26 129.5 26c62 0 115.667 -20.333 161 -61
s68 -94.334 68 -161.001c0 -36 -4 -66.667 -12 -92s-17.833 -45.833 -29.5 -61.5s-24 -26.834 -37 -33.501s-25.167 -10 -36.5 -10c-16 0 -26.833 6.16699 -32.5 18.5s-5.83398 33.166 -0.500977 62.499c2 12.667 5 29 9 49l12.5 61.5c4.33301 21 8.83301 40.667 13.5 59
l11 42.5l-53.5 12c-17.667 4 -37.5 6 -59.5 6c-36 0 -68 -7 -96 -21s-52 -32.833 -72 -56.5s-35 -50.667 -45 -81s-15 -62.166 -15 -95.499c0 -35.333 7 -62.5 21 -81.5s31 -28.5 51 -28.5c25.333 0 52 8.5 80 25.5s54 46.167 78 87.5c-8 -45.333 -4.33301 -75.5 11 -90.5
s35 -22.5 59 -22.5c56.667 0 104.834 23.167 144.501 69.5s59.5 105.166 59.5 176.499c0 82 -26.833 148.5 -80.5 199.5s-122.834 76.5 -207.501 76.5c-56 0 -107.167 -9.5 -153.5 -28.5s-86 -45.5 -119 -79.5s-58.5 -74.5 -76.5 -121.5s-27 -98.5 -27 -154.5
c0 -50 7.5 -94.167 22.5 -132.5s35.833 -70.5 62.5 -96.5s58 -46 94 -60s74.667 -21 116 -21c82 0.666992 145 19.334 189 56.001c9.33301 6.66699 14.5 16 15.5 28s-0.5 21 -4.5 27zM307.001 148.004c-8.66699 0 -16.333 4.83105 -23 14.498s-10 25.834 -10 48.501
c0 22 3 44.5 9 67.5s15 43.667 27 62s27.167 33.5 45.5 45.5s39.833 18 64.5 18c6 0 14 -0.666992 24 -2s17.667 -3 23 -5l-14 -53.5c-6 -23 -12 -42.167 -18 -57.5c-16.667 -43.333 -37.5 -77.166 -62.5 -101.499s-46.5 -36.5 -64.5 -36.5h-1z" />
    <glyph glyph-name="A" unicode="A" horiz-adv-x="625" 
d="M430 195l40.001 -96.001l32 -75c4.66699 -12 9.16699 -20 13.5 -24s9.83301 -6 16.5 -6c8 0 20 1 36 3s29.333 4.66699 40 8v4c-9.33301 18 -20.666 42.667 -33.999 74l-50 118l-38 86.5l-47 112.5l-47.5 115.5l-40.5 96.5c-3.33301 10.667 -11 16.334 -23 17.001
c-6 0 -16.167 -1.16699 -30.5 -3.5s-26.833 -4.5 -37.5 -6.5l12 -28l-47 -107l-73.5 -167l-77.5 -175.5l-59 -130.5v-5c7.33301 -4 17.166 -7 29.499 -9s22.5 -3 30.5 -3c11.333 0 18.666 4 21.999 12l34 77l49 112h250zM202.001 255.999l54 132l51 123l103 -255h-208z" />
    <glyph glyph-name="B" unicode="B" horiz-adv-x="507" 
d="M75 7c24 -5.33301 48.668 -9.50098 74.001 -12.501s50 -4.5 74 -4.5c70 0 129 16.5 177 49.5s72 82.5 72 148.5c0 34 -10.667 64.833 -32 92.5s-53 47.5 -95 59.5c23.333 13.333 43.333 31.833 60 55.5s25 50.5 25 80.5c0 12 -2.33301 27 -7 45s-14 35 -28 51
s-34.333 29.833 -61 41.5s-62 17.5 -106 17.5c-31.333 0 -63 -1.83301 -95 -5.5s-52.333 -6.5 -61 -8.5c1.33301 -25.333 2.16602 -47.166 2.49902 -65.499s0.5 -40.5 0.5 -66.5v-478zM162.001 569.999c6 0.666992 14.332 1.49805 24.999 2.49805s20 1.5 28 1.5
c44.667 0 77 -10.667 97 -32s30 -47.333 30 -78c0 -29.333 -6.5 -53.666 -19.5 -72.999s-26.5 -31.666 -40.5 -36.999c-23.333 0.666992 -45.666 0.5 -66.999 -0.5s-39 -2.5 -53 -4.5v221zM162 294.997c7.33301 1.33301 16.167 2.33301 26.5 3s20.5 1 30.5 1
c48 0 86.167 -10 114.5 -30s42.5 -49.333 42.5 -88c0 -46 -14.5 -80 -43.5 -102s-64.167 -33 -105.5 -33c-12 0 -24.333 0.666992 -37 2s-22 3 -28 5v242z" />
    <glyph glyph-name="C" unicode="C" horiz-adv-x="585" 
d="M552 81c-14 -6 -34.835 -12.5 -62.502 -19.5s-56.834 -10.5 -87.501 -10.5c-88 0 -154.833 24.833 -200.5 74.5s-68.5 112.5 -68.5 188.5c0 86.667 24.667 152.167 74 196.5s107.666 66.5 174.999 66.5c28.667 0 55 -3.33301 79 -10s44.667 -14 62 -22
c10 -2 19.333 1.5 28 10.5s13.334 20.833 14.001 35.5c-8 9.33301 -28.5 20 -61.5 32s-72.5 18 -118.5 18c-49.333 0 -95.166 -8 -137.499 -24s-79.166 -38.333 -110.499 -67s-55.833 -63.5 -73.5 -104.5s-26.5 -86.5 -26.5 -136.5c0 -96 28.833 -174 86.5 -234
s142.834 -90 255.501 -90c33.333 0 63 3.33301 89 10s44.667 14 56 22c8 6 14.833 14.667 20.5 26s9.16699 23 10.5 35z" />
    <glyph glyph-name="D" unicode="D" horiz-adv-x="649" 
d="M75 12c28 -7.33301 56.165 -12.832 84.498 -16.499s60.5 -5.5 96.5 -5.5c50.667 0 98 7.16699 142 21.5s82 35.5 114 63.5s57.333 62.667 76 104s28 89 28 143c0 30.667 -4.33301 64 -13 100s-26 69.333 -52 100s-62.833 56.5 -110.5 77.5s-110.167 31.5 -187.5 31.5
c-17.333 0 -35.666 -0.666992 -54.999 -2s-37.666 -3 -54.999 -5s-32.333 -4 -45 -6l-25 -4c0.666992 -14.667 1.16699 -29.334 1.5 -44.001s0.5 -39 0.5 -73v-485zM162.998 566.001c20.667 4 47.668 6 81.001 6c93.333 0 162.666 -23.167 207.999 -69.5
s68 -107.5 68 -183.5c0 -52 -7.83301 -95.5 -23.5 -130.5s-35.667 -63 -60 -84s-52 -35.667 -83 -44s-61.833 -12.5 -92.5 -12.5c-17.333 0 -35 0.666992 -53 2s-33 4 -45 8v508z" />
    <glyph glyph-name="E" unicode="E" horiz-adv-x="449" 
d="M75 23l14.002 -18.999c12 -2.66699 34.333 -5 67 -7s69.667 -3 111 -3c35.333 0 62.666 0.5 81.999 1.5s32.333 1.83301 39 2.5c23.333 9.33301 38.666 29.333 45.999 60l-1 2c-20 -2 -44.333 -3.33301 -73 -4s-54 -1 -76 -1c-24 0 -47.667 0.5 -71 1.5
s-40 3.16699 -50 6.5v228h171c16 0 29.167 3.33301 39.5 10s17.833 23.667 22.5 51h-233v212h138c22 0 39 0.166992 51 0.5s21.333 2.5 28 6.5c12.667 10 20.667 28 24 54h-130.5h-123.5c-14 -1.33301 -28 -3.33301 -42 -6s-26 -5.33398 -36 -8.00098
c2.66699 -36.667 3.66699 -78.667 3 -126v-462z" />
    <glyph glyph-name="F" unicode="F" horiz-adv-x="437" 
d="M75 11c0.666992 -12.667 6.66406 -18.333 17.9971 -17c12 0 25.167 0.833008 39.5 2.5s25.5 3.5 33.5 5.5c-1.33301 37.333 -2.16602 77.333 -2.49902 120s-0.5 92 -0.5 148h176c16.667 0 30.834 3.33301 42.501 10s18.5 23.667 20.5 51h-239v233h163
c20 0 35.167 0.333008 45.5 1s18.5 3 24.5 7c10.667 9.33301 18.667 27 24 53h-52h-76.5h-78h-57.5c-16 -2 -32 -4.33301 -48 -7s-28 -5 -36 -7c0.666992 -12 1.33398 -26.333 2.00098 -43s1 -38 1 -64v-493z" />
    <glyph glyph-name="G" unicode="G" horiz-adv-x="648" 
d="M503 63c-10 -6 -25.165 -10.665 -45.498 -13.998s-39.5 -5 -57.5 -5c-33.333 0 -66 4.83301 -98 14.5s-60.667 25.334 -86 47.001s-45.5 49.667 -60.5 84s-22.5 76.166 -22.5 125.499c0 81.333 23.667 145.166 71 191.499s107 69.5 179 69.5
c26.667 0 54 -2.83301 82 -8.5s54.667 -15.5 80 -29.5c12 -3.33301 22.667 0 32 10s14 22 14 36c-9.33301 8 -31 19.5 -65 34.5s-80 22.5 -138 22.5c-48.667 0 -94.334 -8 -137.001 -24s-80 -38.333 -112 -67s-57 -63.5 -75 -104.5s-27 -86.5 -27 -136.5
c0 -60.667 9.66699 -111.667 29 -153s45.166 -74.833 77.499 -100.5s69.5 -43.834 111.5 -54.501s85 -16 129 -16c24 0 49 2.5 75 7.5s46.667 10.167 62 15.5c11.333 4 23.833 10.167 37.5 18.5s24.5 15.833 32.5 22.5v229c0 10 -1.33301 17 -4 21s-6.66699 6 -12 6
c-10 0 -22.667 -2 -38 -6s-28 -7 -38 -9c1.33301 -12.667 2.33301 -27.667 3 -45s1 -40.333 1 -69v-113z" />
    <glyph glyph-name="H" unicode="H" horiz-adv-x="651" 
d="M163 355l0.00292969 222.003c0 22.667 -1.33301 37 -4 43s-7.33398 9 -14.001 9c-8 0 -20 -0.833008 -36 -2.5s-28.333 -3.5 -37 -5.5c2 -18 3 -60.667 3 -128v-316c0 -83.333 -1 -144.333 -3 -183c11.333 0 22 0.166992 32 0.5s21.333 1.5 34 3.5
c10 1.33301 16.667 3.5 20 6.5s5 9.5 5 19.5v270h184c44 0 76 0.166992 96 0.5s35 1.16602 45 2.49902v-287c0 -12 5 -17.333 15 -16c7.33301 0 19.666 0.833008 36.999 2.5s30.333 3.5 39 5.5c-0.666992 10 -1.33398 24.167 -2.00098 42.5s-1 45.166 -1 80.499v323
c0 83.333 1 143.666 3 180.999c-10.667 0 -23 -0.333008 -37 -1s-25.333 -1.66699 -34 -3c-8 -1.33301 -13.333 -3.5 -16 -6.5s-4 -9.5 -4 -19.5v-244h-325z" />
    <glyph glyph-name="I" unicode="I" horiz-adv-x="238" 
d="M75 13c0 -8 1.16895 -13.166 3.50195 -15.499s6.5 -3.5 12.5 -3.5c8 0 20.5 0.833008 37.5 2.5s29.5 3.5 37.5 5.5c-0.666992 10 -1.33398 24.167 -2.00098 42.5s-1 45.166 -1 80.499v452c0 22 -1 36.167 -3 42.5s-6.33301 9.5 -13 9.5c-8.66699 0 -21.834 -1 -39.501 -3
s-29.5 -3.66699 -35.5 -5c2 -18 3 -60.333 3 -127v-481z" />
    <glyph glyph-name="J" unicode="J" horiz-adv-x="238" 
d="M75 149c0 -46 -2.33203 -83.168 -6.99902 -111.501s-11.334 -50.666 -20.001 -66.999s-19.667 -28.5 -33 -36.5s-29 -14.667 -47 -20l-1 -3c2 -10 6.83301 -19.333 14.5 -28s16.5 -13 26.5 -13c11.333 0 25.333 3.5 42 10.5s31.667 16.5 45 28.5
c24.667 23.333 42.167 52.833 52.5 88.5s15.5 87.5 15.5 155.5v425c0 22 -1 36 -3 42s-6 9 -12 9c-8 0 -20.5 -1 -37.5 -3s-29.833 -3.66699 -38.5 -5c2 -18 3 -60 3 -126v-346z" />
    <glyph glyph-name="K" unicode="K" horiz-adv-x="569" 
d="M75 11c0 -7.33301 1.16895 -12.001 3.50195 -14.001s6.83301 -3 13.5 -3c8 0 20.5 0.833008 37.5 2.5s29.167 3.5 36.5 5.5c-0.666992 10 -1.33398 24.167 -2.00098 42.5s-1 45.166 -1 80.499v182c6.66699 -9.33301 21.5 -26.666 44.5 -51.999l76 -83l81.5 -86l61 -62
c11.333 -12.667 21.333 -21.167 30 -25.5s18.667 -6.5 30 -6.5c14 0 28.333 1.33301 43 4s24.667 5.33398 30 8.00098v3c-20 16.667 -44.167 39 -72.5 67l-85.5 87.5l-81.5 89c-25.667 29 -46.5 53.5 -62.5 73.5l61 62.5l71 72.5l69.5 71.5l57.5 58.5
c22.667 22.667 21.667 36 -3 40c-18.667 4 -34.667 6 -48 6l-73 -79l-81 -85.5l-79.5 -83l-68.5 -70.5v263c0 21.333 -0.833008 34.833 -2.5 40.5s-5.83398 8.5 -12.501 8.5c-8 0 -20.667 -1 -38 -3s-30 -3.66699 -38 -5c2 -18 3 -60.333 3 -127v-483z" />
    <glyph glyph-name="L" unicode="L" horiz-adv-x="431" 
d="M75 23l13.9961 -19c12.667 -2.66699 34.5 -5 65.5 -7s66.833 -3 107.5 -3c34.667 0 61 0.5 79 1.5s30.333 1.83301 37 2.5c24.667 10.667 39.334 30.667 44.001 60l-1 2c-20 -2 -44.167 -3.33301 -72.5 -4s-53.5 -1 -75.5 -1c-21.333 0 -42.666 0.5 -63.999 1.5
s-36.666 3.16699 -45.999 6.5v511c0 24 -1.16699 39.167 -3.5 45.5s-6.16602 9.5 -11.499 9.5c-12.667 0 -26.5 -1 -41.5 -3s-26.5 -3.66699 -34.5 -5c2 -19.333 3 -62 3 -128v-470z" />
    <glyph glyph-name="M" unicode="M" horiz-adv-x="834" 
d="M602 600l-39.001 -93l-46.5 -115l-50.5 -126l-50 -126l-144 380l-31.5 74c-7 16 -13.5 27.667 -19.5 35c-15.333 0 -29.666 -1.33301 -42.999 -4l-34 -7l6 -24l-33.5 -174l-31.5 -169.5l-27 -145.5l-19 -102c7.33301 -4 17.166 -6.5 29.499 -7.5s22.5 -1.5 30.5 -1.5
c9.33301 0 15 5 17 15l16 100l22 132.5l23 141l20 124.5l46 -130l52 -145l47.5 -134.5l33.5 -97.5c6 0 13.167 0.5 21.5 1.5s15.5 2.5 21.5 4.5c8 2 13.667 5.16699 17 9.5s6.33301 10.166 9 17.499l51.5 137l50.5 132l44 116l35 91l46 -301c6 -46 11 -82.833 15 -110.5
s8.66699 -55.5 14 -83.5c2 -14 9 -20.667 21 -20c8 0 19.667 0.833008 35 2.5s27 3.83398 35 6.50098c-10.667 47.333 -24.667 123 -42 227l-63 373c-2 10 -4.16699 16.833 -6.5 20.5s-5.5 5.5 -9.5 5.5c-8.66699 0 -21.167 -1.16699 -37.5 -3.5
s-27.166 -4.83301 -32.499 -7.5z" />
    <glyph glyph-name="N" unicode="N" horiz-adv-x="662" 
d="M81 583v-407c0 -82.667 -1 -143.334 -3 -182.001c18.667 0 36.667 1.33301 54 4c6.66699 1.33301 11.667 3.66602 15 6.99902s5 11 5 23v258c0 25.333 -0.333008 54 -1 86s-2 78 -4 138c19.333 -32.667 38.166 -63 56.499 -91l54.5 -83l132 -183.5l116 -157.5
c5.33301 -5.33301 11 -8 17 -8c8.66699 0 20 2 34 6s23 7 27 9v443c0 81.333 1 142.666 3 183.999c-10 0 -18 -0.333008 -24 -1s-16.333 -1.66699 -31 -3c-6 -1.33301 -10.667 -3.66602 -14 -6.99902s-5 -10.666 -5 -21.999v-278v-86.5c0 -32.333 1.66699 -73.5 5 -123.5
c-14 24.667 -31.5 52.167 -52.5 82.5l-69.5 99.5l-75.5 101.5l-67.5 94l-55 76.5l-36 50c-9.33301 10.667 -17.666 16.334 -24.999 17.001c-8 0 -22 -1 -42 -3s-33 -3.66699 -39 -5v-4z" />
    <glyph glyph-name="O" unicode="O" horiz-adv-x="712" 
d="M357 641c-50 0 -94.834 -8.66699 -134.501 -26s-73.334 -41 -101.001 -71s-48.667 -65.5 -63 -106.5s-21.5 -85.167 -21.5 -132.5c0 -35.333 5.66699 -71.833 17 -109.5s29.833 -72.167 55.5 -103.5s58.834 -57 99.501 -77s90 -30 148 -30
c52.667 0 98.834 9.16699 138.501 27.5s72.667 42.833 99 73.5s46.333 66.167 60 106.5s20.5 82.5 20.5 126.5c0 44.667 -7.5 86.5 -22.5 125.5s-36.5 73 -64.5 102s-61.333 52 -100 69s-82 25.5 -130 25.5h-1zM349.999 584c68.667 0 124.169 -25.832 166.502 -77.499
s63.5 -115.834 63.5 -192.501c0 -90 -20.333 -157.833 -61 -203.5s-92.667 -68.5 -156 -68.5c-29.333 0 -57.833 5.83301 -85.5 17.5s-52.334 29 -74.001 52s-38.834 51.5 -51.501 85.5s-19 73 -19 117c0 86 20.5 152.5 61.5 199.5s92.5 70.5 154.5 70.5h1z" />
    <glyph glyph-name="P" unicode="P" horiz-adv-x="492" 
d="M75 12c0.666992 -13.333 6.33594 -19.334 17.0029 -18.001c10 0 22.833 0.833008 38.5 2.5s27.5 3.5 35.5 5.5c-0.666992 10 -1.33398 23.833 -2.00098 41.5s-1 43.834 -1 78.501v447c18 2 36 3 54 3c15.333 0 31.666 -1.83301 48.999 -5.5s33.166 -10.5 47.499 -20.5
s26.5 -24.167 36.5 -42.5s15 -41.833 15 -70.5c0 -28 -4.33301 -50.833 -13 -68.5s-19 -31.5 -31 -41.5s-25.333 -17 -40 -21s-28 -6 -40 -6c-8 0 -16.667 0.5 -26 1.5s-17 2.5 -23 4.5c-0.666992 -10.667 1.5 -21 6.5 -31s10.167 -16.333 15.5 -19
c12 -8 30.333 -11.667 55 -11c19.333 0 40 3.66699 62 11s42.5 19 61.5 35s34.833 36.333 47.5 61s19 54 19 88c0 70 -22.833 120 -68.5 150s-103.5 45 -173.5 45c-28.667 0 -56.667 -1.33301 -84 -4s-48 -5 -62 -7c2 -23.333 3.16699 -45.833 3.5 -67.5
s0.5 -44.5 0.5 -68.5v-472z" />
    <glyph glyph-name="Q" unicode="Q" horiz-adv-x="712" 
d="M358 641c-50 0 -94.999 -8.49609 -134.999 -25.4961s-73.833 -40.5 -101.5 -70.5s-48.667 -65.5 -63 -106.5s-21.5 -85.167 -21.5 -132.5c0 -85.333 24.5 -156.833 73.5 -214.5s117.5 -92.834 205.5 -105.501c24 -2.66699 45.667 -8.33398 65 -17.001
s40 -21.334 62 -38.001c48 -34 89.167 -60.833 123.5 -80.5s66.5 -29.5 96.5 -29.5c12.667 0 26.167 3.16699 40.5 9.5s25.166 16.166 32.499 29.499c-0.666992 1.33301 -0.666992 2.33301 0 3c-53.333 10.667 -113.333 39.667 -180 87c-14 10 -29 20.167 -45 30.5
s-30.667 18.5 -44 24.5c69.333 22.667 121.333 62.334 156 119.001s52 121.667 52 195c0 44 -7.33301 85.333 -22 124s-35.667 72.667 -63 102s-60.5 52.666 -99.5 69.999s-82.833 26 -131.5 26h-1zM350.001 584.004c70 0 125.833 -25.833 167.5 -77.5
s62.5 -115.834 62.5 -192.501c0 -90 -20 -157.5 -60 -202.5s-92 -67.5 -156 -67.5c-29.333 0 -57.833 5.66699 -85.5 17s-52.5 28.333 -74.5 51s-39.333 51 -52 85s-19 73 -19 117c0 86.667 20.5 153.334 61.5 200.001s92.5 70 154.5 70h1z" />
    <glyph glyph-name="R" unicode="R" horiz-adv-x="527" 
d="M162 264l14.5029 0.00195312h12.5c27.333 0 48 -5.5 62 -16.5s31 -32.5 51 -64.5l43.5 -75c11 -18.667 25.167 -40.334 42.5 -65.001c13.333 -18.667 26.166 -31.834 38.499 -39.501s26.166 -11.5 41.499 -11.5c12.667 0 24.5 0.833008 35.5 2.5
s18.5 3.83398 22.5 6.50098v4c-23.333 22 -60.666 74.333 -111.999 157c-39.333 65.333 -71.333 107.333 -96 126c10 4 22 10 36 18s27.667 18.833 41 32.5s24.666 29.834 33.999 48.501s14 40.667 14 66c0 66 -20.167 112.167 -60.5 138.5s-93.5 39.5 -159.5 39.5
c-22.667 0 -49.834 -1.83301 -81.501 -5.5s-54.5 -6.83398 -68.5 -9.50098c0.666992 -16 1.16699 -31.333 1.5 -46s0.5 -34 0.5 -58v-336c0 -82 -1 -142.667 -3 -182c6 0 16 0.166992 30 0.5s28 1.16602 42 2.49902c6 1.33301 10.5 3.5 13.5 6.5s4.5 9.16699 4.5 18.5v242z
M162.003 571.002c7.33301 1.33301 16.332 2.33301 26.999 3s21.334 1 32.001 1c32.667 0 62.5 -9.5 89.5 -28.5s40.5 -52.167 40.5 -99.5c0 -36.667 -8.83301 -65 -26.5 -85s-35.5 -33 -53.5 -39c-7.33301 -2.66699 -22.833 -4.5 -46.5 -5.5s-44.5 -0.833008 -62.5 0.5v253z
" />
    <glyph glyph-name="S" unicode="S" horiz-adv-x="430" 
d="M241 641c-39.333 0 -71.8301 -5.83203 -97.4971 -17.499s-46 -26 -61 -43s-25.333 -35 -31 -54s-8.5 -36.167 -8.5 -51.5c0 -29.333 7.33301 -59.333 22 -90s51.667 -62 111 -94c48 -27.333 82.167 -50.5 102.5 -69.5s30.5 -43.5 30.5 -73.5
c0 -30.667 -11 -54.5 -33 -71.5s-50.667 -25.5 -86 -25.5c-22.667 0 -47.5 4.33301 -74.5 13s-49.5 20 -67.5 34c-4 -4.66699 -7.66699 -11.334 -11 -20.001s-5 -17.667 -5 -27c0 -10 6 -19 18 -27c10.667 -9.33301 28.167 -18.166 52.5 -26.499s53.166 -12.5 86.499 -12.5
c56.667 0 105.667 15.667 147 47s62 75.333 62 132c0 44 -11.167 78.667 -33.5 104s-59.5 53 -111.5 83c-44 24.667 -75.667 46 -95 64s-29 42 -29 72c0 31.333 11 54.166 33 68.499s46.333 21.5 73 21.5c18 0 35.667 -2.83301 53 -8.5s32.666 -11.5 45.999 -17.5
c11.333 0 20.166 5.33301 26.499 16s9.5 21 9.5 31c-12 12 -30.833 22.167 -56.5 30.5s-49.5 12.5 -71.5 12.5h-1z" />
    <glyph glyph-name="T" unicode="T" horiz-adv-x="537" 
d="M230 12c0 -13.333 5.33398 -19.333 16.001 -18c12 0 24.667 0.833008 38 2.5s25.666 3.5 36.999 5.5c-0.666992 10 -1.33398 24.167 -2.00098 42.5s-1 44.833 -1 79.5v440h183c6.66699 2.66699 14 9.66699 22 21s12.333 24.666 13 39.999h-336
c-56 0 -93.167 0.333008 -111.5 1s-30.5 2 -36.5 4c-9.33301 -8 -18.666 -22.667 -27.999 -44c-5.33301 -15.333 -0.333008 -22.666 15 -21.999h191v-552z" />
    <glyph glyph-name="U" unicode="U" horiz-adv-x="658" 
d="M159 575c0 24 -1.00098 39 -3.00098 45s-6.66699 9 -14 9c-8 0 -20.667 -1 -38 -3s-29.333 -3.66699 -36 -5c2 -19.333 3 -62 3 -128v-203c0 -58 6 -106.667 18 -146s29 -70.833 51 -94.5s48.5 -40.334 79.5 -50.001s65.5 -14.5 103.5 -14.5c28 0 57.333 3.33301 88 10
s59 21 85 43s47.5 54.333 64.5 97s25.5 100 25.5 172v141c0 82.667 1 143 3 181c-10 0 -18.833 -0.333008 -26.5 -1l-33.5 -3c-6 -1.33301 -10.667 -3.5 -14 -6.5s-5 -8.83301 -5 -17.5v-298c0 -56 -5.16699 -100.5 -15.5 -133.5s-23.666 -58.5 -39.999 -76.5
s-35 -29.667 -56 -35s-42.5 -8 -64.5 -8c-19.333 0 -39.333 2.66699 -60 8s-39.667 16.5 -57 33.5s-31.333 41.333 -42 73s-16 73.834 -16 126.501v284z" />
    <glyph glyph-name="V" unicode="V" horiz-adv-x="597" 
d="M23 608c44 -99.333 86.499 -202.501 127.499 -309.501l119.5 -310.5c13.333 0 25.5 1.16699 36.5 3.5s18.833 4.83301 23.5 7.5c8 4.66699 15 14.334 21 29.001l113 273.5l111 279.5c4 12 5.33301 20.833 4 26.5s-5.33301 9.83398 -12 12.501c-6 2 -14.333 4 -25 6
s-21 3.33301 -31 4l-99.5 -265l-98.5 -263l-98.5 261l-68.5 185c-13.333 34 -22.5 56 -27.5 66s-10.833 15 -17.5 15c-11.333 0 -24.666 -2.33301 -39.999 -7s-28 -9.33398 -38 -14.001z" />
    <glyph glyph-name="W" unicode="W" horiz-adv-x="882" 
d="M467 629c-22 -0.666992 -42.668 -5.33398 -62.001 -14.001c0.666992 -4 1.5 -8.66699 2.5 -14s1.83301 -10 2.5 -14l-43 -138l-39 -131.5l-33.5 -115l-25.5 -88.5c-22 80.667 -45.333 161.167 -70 241.5l-63 206.5c-8.66699 28 -15.167 46.167 -19.5 54.5
s-10.166 12.5 -17.499 12.5c-9.33301 0 -22 -2.16699 -38 -6.5s-28 -8.5 -36 -12.5c36.667 -96 71.834 -198.667 105.501 -308l98.5 -314c9.33301 0 19.166 1.16699 29.499 3.5s18.5 4.5 24.5 6.5c6 2.66699 10.667 7 14 13s7 15 11 27l26.5 91.5l37.5 125.5l39.5 129.5
l31.5 103.5l43.5 -152.5l39.5 -140.5l33 -120c10 -36 18.333 -65 25 -87c9.33301 0 20.333 1.33301 33 4s21 5 25 7c4 2.66699 7.66699 6.66699 11 12s7 13.333 11 24l96.5 268l96.5 280c4 12.667 5 21.834 3 27.501s-7 9.5 -15 11.5c-10 2 -19.833 3.66699 -29.5 5
s-16.5 2 -20.5 2l-62 -191.5l-106 -326.5l-41.5 146.5l-39 139.5l-34 120l-25.5 88c-4.66699 15.333 -11 23.333 -19 24h-1z" />
    <glyph glyph-name="X" unicode="X" horiz-adv-x="565" 
d="M29 612l39.501 -56.501l55.5 -79l59.5 -86l52.5 -76.5l-125 -172l-99 -135v-4c6.66699 -2.66699 17 -4.83398 31 -6.50098s25.333 -2.5 34 -2.5c10 0 18 4.66699 24 14l31 44.5l44 62.5l50 71l50 71l96.5 -144.5l69.5 -101.5c5.33301 -8.66699 10.5 -14.167 15.5 -16.5
s10.167 -3.5 15.5 -3.5c16 0 31.5 1.33301 46.5 4s26.167 5.33398 33.5 8.00098v3l-75.5 107l-147.5 215l124.5 168.5c39 52.333 66.833 90.5 83.5 114.5v2c-8 4 -18.5 7.66699 -31.5 11s-22.5 5 -28.5 5c-9.33301 0.666992 -18.666 -6.33301 -27.999 -21l-74.5 -106.5
l-84.5 -117.5l-74.5 104.5l-72.5 107.5c-8.66699 12 -15.334 20.5 -20.001 25.5s-9.33398 7.5 -14.001 7.5c-8.66699 0 -21.167 -1.66699 -37.5 -5s-30.833 -6.66602 -43.5 -9.99902v-2z" />
    <glyph glyph-name="Y" unicode="Y" horiz-adv-x="555" 
d="M235 12c0 -8 1.00195 -13.002 3.00195 -15.002s6 -3 12 -3c33.333 0 58.666 2.66699 75.999 8c-0.666992 10 -1.33398 24 -2.00098 42s-1 44 -1 78v145c-0.666992 14 2.66602 27.333 9.99902 40l32 45.5l60 85l62.5 88.5l39.5 57c14 20.667 14.667 33.334 2 38.001
c-13.333 4.66699 -32 7.33398 -56 8.00098l-32.5 -50.5l-53.5 -81.5l-56.5 -85l-40.5 -60l-82 124.5l-70 108.5c-11.333 16.667 -20.166 28.167 -26.499 34.5s-12.5 9.5 -18.5 9.5c-10 0 -22.333 -1.5 -37 -4.5s-27.667 -6.16699 -39 -9.5v-3l48 -69.5l58 -84l57.5 -85.5
l46.5 -72c6 -10.667 8.66699 -25 8 -43v-246z" />
    <glyph glyph-name="Z" unicode="Z" horiz-adv-x="548" 
d="M533 57c-16 -1.33301 -40.666 -2.16602 -73.999 -2.49902s-69 -0.5 -107 -0.5s-74.833 0.5 -110.5 1.5s-63.834 2.5 -84.501 4.5l99.5 145.5l95 144l78.5 123l50 81.5c6 14 10.833 26 14.5 36s6.5 21.667 8.5 35h-352c-35.333 -0.666992 -60 1.66602 -74 6.99902
c-4.66699 -4 -10.334 -10.167 -17.001 -18.5s-11 -16.5 -13 -24.5s-0.333008 -14.167 5 -18.5s23 -6.5 53 -6.5h60h81h82.5h65.5c-15.333 -26.667 -36.833 -61.667 -64.5 -105l-92 -140l-105 -152.5l-103.5 -141.5c0.666992 -7.33301 6 -15 16 -23
c14 -2 42.833 -3.83301 86.5 -5.5s112.167 -2.5 205.5 -2.5c58 0 95.833 0.5 113.5 1.5s28.834 2.16699 33.501 3.5c6.66699 2 14.667 7.66699 24 17s18 22.333 26 39z" />
    <glyph glyph-name="bracketleft" unicode="[" horiz-adv-x="323" 
d="M96 212c0 -38 -0.501953 -75.999 -1.50195 -113.999s-1.5 -73.667 -1.5 -107s0.166992 -63.333 0.5 -90s1.5 -47.334 3.5 -62.001c2 -2.66699 19 -6.33398 51 -11.001s69.667 -7 113 -7c5.33301 8.66699 8.66602 20.667 9.99902 36
c1.33301 6.66699 -2.33398 10.667 -11.001 12c-34 4 -58.333 7.33301 -73 10c-13.333 0.666992 -20.666 8 -21.999 22c-0.666992 4 -1.5 10.333 -2.5 19s-1.5 23.834 -1.5 45.501v89.5c0 38 0.333008 88 1 150c0.666992 124 1.83398 217.5 3.50098 280.5
s3.16699 98.167 4.5 105.5c0.666992 14 6 22 16 24c8 0.666992 19.5 2.16699 34.5 4.5l42.5 6.5c6.66699 0.666992 11.167 1.5 13.5 2.5s3.5 2.83301 3.5 5.5c-0.666992 16 -4 29.667 -10 41c-10.667 0 -25 -0.833008 -43 -2.5s-35.833 -3.5 -53.5 -5.5
s-33.167 -3.83301 -46.5 -5.5s-20.666 -2.83398 -21.999 -3.50098c-1.33301 -19.333 -2.66602 -48.666 -3.99902 -87.999s-2.33301 -81.333 -3 -126s-1.16699 -88.167 -1.5 -130.5s-0.5 -75.833 -0.5 -100.5v-1z" />
    <glyph glyph-name="backslash" unicode="\" horiz-adv-x="315" 
d="M101 641l-32 -1.99902c-15.333 -1.33301 -24.333 -4.33301 -27 -9s-3 -10.667 -1 -18l175 -706l43 2c10 0.666992 16.5 3.16699 19.5 7.5s2.83301 13.166 -0.5 26.499z" />
    <glyph glyph-name="bracketright" unicode="]" horiz-adv-x="323" 
d="M230 284c0 37.333 0.166992 74.832 0.5 112.499s0.5 73.5 0.5 107.5v91c0 26.667 -0.666992 47.334 -2 62.001c-4 2.66699 -21.5 6.33398 -52.5 11.001s-67.833 7 -110.5 7c-6 -8.66699 -9.66699 -21 -11 -37c-0.666992 -6.66699 3.33301 -10.667 12 -12
c33.333 -4 57.333 -7 72 -9c12.667 -1.33301 20 -9 22 -23c0 -4 0.333008 -10.333 1 -19s1 -24 1 -46s0.166992 -51.833 0.5 -89.5s0.5 -87.167 0.5 -148.5c-1.33301 -124.667 -2.83301 -218.334 -4.5 -281.001s-2.83398 -97.667 -3.50098 -105
c-1.33301 -14 -6.66602 -22 -15.999 -24c-8 -1.33301 -19 -3 -33 -5l-44 -6c-12.667 -1.33301 -18.334 -4 -17.001 -8c0 -16 3.33301 -29.667 10 -41c10 0 23.833 0.666992 41.5 2s35.5 3 53.5 5s33.667 4 47 6s21 3.33301 23 4c2.66699 58.667 4.83398 127 6.50098 205
s2.5 158 2.5 240v1z" />
    <glyph glyph-name="asciicircum" unicode="^" horiz-adv-x="572" 
d="M77 226c4.66699 -4.66699 13.501 -8.66699 26.501 -12s21.833 -5 26.5 -5c6.66699 -1.33301 12.667 4 18 16l136 306l134 -299c2.66699 -6 5.66699 -11.333 9 -16s7.66602 -7 12.999 -7c8 0 18.167 2 30.5 6s20.5 7.66699 24.5 11l-176 376
c-18 0.666992 -34.667 -0.333008 -50 -3c-8 -1.33301 -13.5 -3 -16.5 -5s-5.5 -5.66699 -7.5 -11z" />
    <glyph glyph-name="underscore" unicode="_" horiz-adv-x="500" 
d="M500 -75h-500v-50h500v50z" />
    <glyph glyph-name="grave" unicode="`" horiz-adv-x="400" 
d="M152 684c-9.33301 0 -18.667 -2.33301 -28 -7s-17.333 -10 -24 -16c-8.66699 -8.66699 -10 -15.667 -4 -21c20 -21.333 39.667 -44.833 59 -70.5s35.333 -47.834 48 -66.501c7.33301 2 16 6.66699 26 14c7.33301 4.66699 8.66602 12.667 3.99902 24
c-4 11.333 -9.83301 25 -17.5 41s-15.5 31.5 -23.5 46.5s-15.667 27.833 -23 38.5s-12.666 16.334 -15.999 17.001h-1z" />
    <glyph glyph-name="a" unicode="a" horiz-adv-x="429" 
d="M406 52c-6.66699 -1.33301 -13.001 -1.99902 -19.001 -1.99902c-22 0 -33.333 10.667 -34 32c-0.666992 30 -0.5 65.333 0.5 106s1.5 72 1.5 94c0 47.333 -12.333 87 -37 119s-62 48 -112 48c-34 0 -65.833 -7.66699 -95.5 -23s-52.5 -30 -68.5 -44
c0.666992 -12.667 4.33398 -23.5 11.001 -32.5s17 -10.5 31 -4.5c14 9.33301 29.833 17.833 47.5 25.5s35.834 11.5 54.501 11.5c30 0 52 -9.5 66 -28.5s21 -40.167 21 -63.5v-30l-50 -10l-54 -15c-22 -6 -43.333 -14.5 -64 -25.5s-38.5 -25.333 -53.5 -43
s-22.5 -39.5 -22.5 -65.5c0 -30.667 10.667 -57.167 32 -79.5s49.333 -33.5 84 -33.5c26 0 50.333 6.5 73 19.5s41 27.5 55 43.5c2.66699 -16.667 9.66699 -31.334 21 -44.001s27.666 -19 48.999 -19c42.667 0 64 20.667 64 62zM112.999 114.001
c0 28 16.168 49.499 48.501 64.499s69.166 25.833 110.499 32.5v-78c0 -16.667 -2.33301 -27.667 -7 -33c-8 -10.667 -19.167 -21.167 -33.5 -31.5s-31.833 -15.5 -52.5 -15.5c-18 0 -33.5 5.33301 -46.5 16s-19.5 25.334 -19.5 44.001v1z" />
    <glyph glyph-name="b" unicode="b" horiz-adv-x="505" 
d="M154 613c0 30 -1.16797 48.501 -3.50098 55.501s-6.16602 10.5 -11.499 10.5c-7.33301 0 -19 -1.5 -35 -4.5s-29 -6.16699 -39 -9.5c0.666992 -10 1.5 -23.5 2.5 -40.5s1.5 -40.5 1.5 -70.5v-512c0 -8.66699 1.33301 -15 4 -19s7 -7.66699 13 -11
c11.333 -6 28 -11.5 50 -16.5s46 -7.5 72 -7.5c72.667 0 135.167 22 187.5 66s78.5 105.333 78.5 184c0 72 -19.667 125.167 -59 159.5s-82 51.5 -128 51.5c-22 0 -45.333 -4.83301 -70 -14.5s-46 -19.834 -64 -30.501zM152.999 354.001c12 7.33301 27.168 13.667 45.501 19
s33.833 8 46.5 8c41.333 0 74.833 -13.833 100.5 -41.5s38.5 -65.5 38.5 -113.5c0 -61.333 -17 -107 -51 -137s-73 -45 -117 -45c-10 0 -20.833 0.666992 -32.5 2s-21.834 4 -30.501 8v300z" />
    <glyph glyph-name="c" unicode="c" horiz-adv-x="418" 
d="M391 74c-14 -6 -30.668 -10.834 -50.001 -14.501s-38 -5.5 -56 -5.5s-36.5 2.5 -55.5 7.5s-36.5 13.667 -52.5 26s-29.167 29.333 -39.5 51s-15.5 49.167 -15.5 82.5c0 49.333 13.833 89.166 41.5 119.499s63.5 45.5 107.5 45.5c33.333 0 64 -7 92 -21
c12 -1.33301 21.167 3.33398 27.5 14.001s9.5 21.667 9.5 33c-6.66699 6.66699 -21.167 14.5 -43.5 23.5s-49.833 13.5 -82.5 13.5c-68 0 -125.167 -22.167 -171.5 -66.5s-69.5 -101.166 -69.5 -170.499c0 -44 7 -80.5 21 -109.5s32 -52 54 -69s46.333 -28.833 73 -35.5
s53 -10 79 -10c20.667 0 40.667 2.16699 60 6.5s35 10.5 47 18.5c7.33301 5.33301 13.333 13.5 18 24.5s7.33398 22.5 8.00098 34.5z" />
    <glyph glyph-name="d" unicode="d" horiz-adv-x="515" 
d="M359 436c-6 1.33301 -15.3359 3.83301 -28.0029 7.5s-29 5.5 -49 5.5c-71.333 0 -130.666 -22.667 -177.999 -68s-71 -104 -71 -176c0 -70.667 19 -124.5 57 -161.5s83.667 -55.5 137 -55.5c20.667 0 44.334 5.5 71.001 16.5s50 24.5 70 40.5
c2.66699 -15.333 9.5 -28.666 20.5 -39.999s28.167 -17 51.5 -17c10 0 19.667 5.16699 29 15.5s15 21.166 17 32.499v3c-15.333 2 -26.333 7 -33 15s-10 24 -10 48v511c0 30 -1.16699 48.5 -3.5 55.5s-6.16602 10.5 -11.499 10.5c-8 0 -20 -1.5 -36 -4.5
s-28.333 -6.16699 -37 -9.5l2.5 -36.5c1 -14.333 1.5 -34.5 1.5 -60.5v-132zM358.997 89c-12 -10 -26.833 -18 -44.5 -24s-34.5 -9 -50.5 -9c-40 0 -73.5 14.167 -100.5 42.5s-40.5 67.5 -40.5 117.5c0 62 16.833 107 50.5 135s69.5 42 107.5 42
c17.333 0 32.833 -1.66699 46.5 -5s24.167 -7 31.5 -11v-288z" />
    <glyph glyph-name="e" unicode="e" horiz-adv-x="431" 
d="M381 80c-9.33301 -5.33301 -24.833 -10.832 -46.5 -16.499s-43.5 -8.5 -65.5 -8.5c-44 0 -80.167 13.833 -108.5 41.5s-42.5 67.167 -42.5 118.5c18 -1.33301 37.167 -2 57.5 -2h58c18.333 0 35 0.333008 50 1s26.167 1.66699 33.5 3c16.667 2.66699 34.5 7 53.5 13
s29.5 13.333 31.5 22c2 9.33301 3 19.666 3 30.999c-1.33301 40 -15 77.667 -41 113s-67.333 53 -124 53c-33.333 0 -62.833 -6.5 -88.5 -19.5s-47.5 -30.5 -65.5 -52.5s-31.5 -47.333 -40.5 -76s-13.5 -58.667 -13.5 -90c0 -70 18.333 -124.667 55 -164s90 -59 160 -59
c20 0 39.333 2.5 58 7.5s32 9.83301 40 14.5c8 4 16.333 12.333 25 25s13 27 13 43zM229 397.001c31.333 0 54.666 -10.5 69.999 -31.5s23 -46.5 23 -76.5c0 -12.667 -7 -19.667 -21 -21c-9.33301 -0.666992 -32.666 -1.16699 -69.999 -1.5s-74 0.166992 -110 1.5
c4 42 16.5 74 37.5 96s44.167 33 69.5 33h1z" />
    <glyph glyph-name="f" unicode="f" horiz-adv-x="264" 
d="M255 685c-18 0 -36.1689 -2.83203 -54.502 -8.49902s-36.5 -16.5 -54.5 -32.5c-21.333 -19.333 -38.5 -45 -51.5 -77s-19.5 -75 -19.5 -129c-24.667 -9.33301 -42.667 -20.666 -54 -33.999c0 -8 4 -14 12 -18s22 -6 42 -6c0.666992 -140 0.333984 -263 -0.999023 -369
c0 -12.667 4.66699 -18.334 14 -17.001c6.66699 0 18.167 0.833008 34.5 2.5s29.5 3.5 39.5 5.5c0 14 -0.333008 36.667 -1 68s-1.16699 65.666 -1.5 102.999l-1 112c-0.333008 37.333 -0.166016 69 0.500977 95c58 -1.33301 94.333 2.66699 109 12
c6 4 11.5 10.167 16.5 18.5s8.5 18.166 10.5 29.499c-6 -1.33301 -15.833 -2.16602 -29.5 -2.49902s-27.5 -0.5 -41.5 -0.5s-27.167 0.166992 -39.5 0.5s-20.5 0.5 -24.5 0.5c-1.33301 70 7 118.333 25 145s39.667 40 65 40c12 -0.666992 23.333 -2.66699 34 -6
c10 -2 18.667 2.66699 26 14s10 22 8 32c-4.66699 6 -13 11.167 -25 15.5s-24.333 6.5 -37 6.5h-1z" />
    <glyph glyph-name="g" unicode="g" horiz-adv-x="442" 
d="M212 449c-49.333 0 -90.167 -15.334 -122.5 -46.001s-48.5 -69 -48.5 -115c0 -30.667 7.33301 -57.167 22 -79.5s34.667 -39.166 60 -50.499c-8 -8.66699 -18 -17.5 -30 -26.5s-22.333 -16.167 -31 -21.5c-5.33301 -3.33301 -8 -7.33301 -8 -12
c0.666992 -16.667 6.5 -32.334 17.5 -47.001s25.5 -25 43.5 -31c-24.667 -13.333 -46.667 -29 -66 -47s-29 -37.667 -29 -59c0 -34 15.833 -64.333 47.5 -91s78.5 -40 140.5 -40c29.333 0 57.666 4.33301 84.999 13s51.5 20.667 72.5 36s38 33.833 51 55.5
s19.5 45.834 19.5 72.501c0 28.667 -9.16699 53.834 -27.5 75.501s-47.5 34.5 -87.5 38.5c-36 2.66699 -77 5 -123 7c-22 1.33301 -37 5 -45 11s-12 13.333 -12 22c0 2 2.83301 6.33301 8.5 13s11.834 13 18.501 19c7.33301 -2.66699 13.333 -4.16699 18 -4.5
s12.667 -0.5 24 -0.5c42.667 0 80.667 12.667 114 38s50 64 50 116c0 24.667 -6 49 -18 73h16c6.66699 0 12 0.333008 16 1c33.333 2 50.333 17.667 51 47c0 6.66699 -1 12.667 -3 18c-7.33301 -2.66699 -17.5 -4.83398 -30.5 -6.50098s-25.833 -2.5 -38.5 -2.5
c-11.333 0 -23.833 1.33301 -37.5 4s-27.167 6 -40.5 10c-12 2.66699 -24.833 5 -38.5 7s-26.167 3 -37.5 3h-1zM209.999 398.999c30.667 0 52.833 -10.832 66.5 -32.499s20.5 -45.834 20.5 -72.501c0 -28 -7.16699 -52.333 -21.5 -73s-35.5 -31 -63.5 -31
c-26.667 0 -48.167 9.5 -64.5 28.5s-24.5 43.833 -24.5 74.5c0 32 8.33301 57.667 25 77s37 29 61 29h1zM97.998 -74c0 16 5.33301 30.167 16 42.5s23 21.833 37 28.5c10 6 23.667 9 41 9c13.333 0 28.333 -0.333008 45 -1s33.667 -2 51 -4c28.667 -4 48.167 -12 58.5 -24
s15.5 -26 15.5 -42c0 -27.333 -12.5 -49.5 -37.5 -66.5s-56.833 -25.5 -95.5 -25.5c-32.667 0 -62.667 7.16699 -90 21.5s-41 34.5 -41 60.5v1z" />
    <glyph glyph-name="h" unicode="h" horiz-adv-x="514" 
d="M153 613c0 30 -1.16602 48.499 -3.49902 55.499s-5.83301 10.5 -10.5 10.5c-8 0 -19.167 -1.33301 -33.5 -4s-27.833 -6 -40.5 -10c0.666992 -10 1.5 -23.667 2.5 -41s1.5 -40.666 1.5 -69.999v-376c0 -88 -1 -149.333 -3 -184c22 -0.666992 44.667 0.666016 68 3.99902
c7.33301 1.33301 12.333 3.66602 15 6.99902s4 9.33301 4 18v305c10 10 24.833 21.5 44.5 34.5s42.5 19.5 68.5 19.5s48.333 -9.16699 67 -27.5s28 -50.166 28 -95.499c0 -22 -0.166992 -45.333 -0.5 -70s-0.5 -48.667 -0.5 -72v-63.5v-43.5c0 -10.667 4.66699 -16 14 -16
c29.333 0.666992 53.666 3.33398 72.999 8.00098c-2 22.667 -2.66699 64.667 -2 126v137c0 46.667 -10 89 -30 127s-58 57 -114 57c-30 0 -57.167 -6.83301 -81.5 -20.5s-46.5 -29.167 -66.5 -46.5v231z" />
    <glyph glyph-name="i" unicode="i" horiz-adv-x="221" 
d="M112 652c-10.667 0 -21.668 -4.16797 -33.001 -12.501s-17 -21.166 -17 -38.499c0 -16 4.5 -28.167 13.5 -36.5s20.5 -12.5 34.5 -12.5s25.5 5 34.5 15s13.5 22 13.5 36s-4.16699 25.667 -12.5 35s-19.166 14 -32.499 14h-1zM152.999 381.999
c0 28 -1.16602 45.334 -3.49902 52.001s-5.83301 10 -10.5 10c-8 0 -20.333 -1 -37 -3s-29 -4.33301 -37 -7l2.5 -42c1 -17.333 1.5 -41 1.5 -71v-170c0 -29.333 -0.5 -57.833 -1.5 -85.5s-1.5 -51.5 -1.5 -71.5c29.333 1.33301 51.333 3 66 5
c7.33301 0.666992 12.666 2.66699 15.999 6s5 9.66602 5 18.999v358z" />
    <glyph glyph-name="j" unicode="j" horiz-adv-x="221" 
d="M112 651c-10.667 0 -21.668 -4.16699 -33.001 -12.5s-17 -21.5 -17 -39.5c0 -16 4.5 -28.167 13.5 -36.5s20.5 -12.5 34.5 -12.5s25.5 5 34.5 15s13.5 22 13.5 36c0 13.333 -4.16699 25 -12.5 35s-19.166 15 -32.499 15h-1zM-30.001 -182
c4 -10 9.66699 -18.332 17 -24.999s15.333 -10 24 -10c10 0 25.167 6.16699 45.5 18.5s38.5 31.166 54.5 56.499c16 27.333 27 58.5 33 93.5s9 74.5 9 118.5v312c0 28 -1.16699 45.333 -3.5 52s-5.83301 10 -10.5 10c-8 0 -20.333 -1 -37 -3s-29 -4.33301 -37 -7l2.5 -41.5
c1 -17 1.5 -40.5 1.5 -70.5v-246c0 -44.667 -2 -81.5 -6 -110.5s-10 -52.833 -18 -71.5s-18 -33.5 -30 -44.5s-26.667 -20.5 -44 -28.5z" />
    <glyph glyph-name="k" unicode="k" horiz-adv-x="452" 
d="M153 614c0 30 -1.16699 48.334 -3.5 55.001s-5.83301 10 -10.5 10c-7.33301 0 -19.5 -1.33301 -36.5 -4s-29.5 -6 -37.5 -10l2.5 -41c1 -16.667 1.5 -40 1.5 -70v-377c0 -83.333 -1 -144.333 -3 -183c14.667 0 26.334 0.333008 35.001 1s18 1.33398 28 2.00098
c8.66699 1.33301 14.834 3.66602 18.501 6.99902s5.5 10 5.5 20v199c9.33301 -14 21.666 -30.5 36.999 -49.5s31.5 -38 48.5 -57l49.5 -53.5l39 -40c9.33301 -11.333 18.666 -19.333 27.999 -24s20.333 -7 33 -7c12 0 23.833 1.16699 35.5 3.5s20.5 4.83301 26.5 7.5l1 3
c-12 10 -27.833 25.167 -47.5 45.5s-39.667 42.333 -60 66l-58 68.5c-18.333 22 -32.166 39.667 -41.499 53l87 84.5c30 29 55 54.833 75 77.5c14 14 21.167 23.667 21.5 29s-3.83398 9.66602 -12.501 12.999c-19.333 5.33301 -36.333 7.33301 -51 6l-40 -43l-56 -60
l-61 -63c-20.667 -20.667 -38.667 -38 -54 -52v383z" />
    <glyph glyph-name="l" unicode="l" horiz-adv-x="221" 
d="M69 6c-0.666992 -9.33301 3.66797 -13.667 13.001 -13c6 0 17.667 0.833008 35 2.5s30.666 3.5 39.999 5.5c-1.33301 14 -2.33301 33.167 -3 57.5s-1 48.833 -1 73.5v482c0 30 -1 48.333 -3 55s-5.66699 10 -11 10c-8 0 -19.833 -1.33301 -35.5 -4s-28.5 -6 -38.5 -10
c0.666992 -10 1.5 -23.5 2.5 -40.5s1.5 -40.167 1.5 -69.5v-549z" />
    <glyph glyph-name="m" unicode="m" horiz-adv-x="789" 
d="M157 322c12 13.333 27.6689 26.5039 47.002 39.5039s40.333 19.5 63 19.5c58 0.666992 87.333 -38 88 -116v-86c0 -88.667 -1 -150.334 -3 -185.001c20 -0.666992 42.667 0.666016 68 3.99902c8 1.33301 13.167 3.5 15.5 6.5s3.5 9.5 3.5 19.5v302
c12 12 26.667 24.167 44 36.5s38.333 18.5 63 18.5c59.333 0.666992 89.666 -38 90.999 -116v-255c-0.666992 -10.667 3.66602 -16 12.999 -16c12.667 0 25.667 1 39 3s25.333 3.66699 36 5c-2 25.333 -3.33301 66.666 -4 123.999v148c0 46.667 -10.667 87.5 -32 122.5
s-57.666 52.5 -108.999 52.5c-30 0 -58.5 -8.16699 -85.5 -24.5s-50.5 -34.5 -70.5 -54.5c-10.667 24 -25.5 43.167 -44.5 57.5s-44.5 21.5 -76.5 21.5c-28 0 -55 -7.83301 -81 -23.5s-49 -32.834 -69 -51.501c-2 16 -5.66699 32.5 -11 49.5s-16 25.5 -32 25.5
c-8.66699 0 -18.834 -3.83301 -30.501 -11.5s-19.5 -15.167 -23.5 -22.5v-4c12 -7.33301 17.667 -28 17 -62v-171c0 -88 -1 -149.333 -3 -184c21.333 -0.666992 44 0.666016 68 3.99902c6.66699 1.33301 11.5 3.33301 14.5 6s4.5 8.33398 4.5 17.001v301z" />
    <glyph glyph-name="n" unicode="n" horiz-adv-x="516" 
d="M362 8c0 -9.33301 4.99805 -13.999 14.998 -13.999c12.667 0 25.5 1 38.5 3s24.833 3.66699 35.5 5c-2 25.333 -3.33301 67 -4 125v140c0 48 -10 90.333 -30 127s-58.667 55 -116 55c-28 0 -54.833 -7.5 -80.5 -22.5s-48.167 -32.167 -67.5 -51.5
c-2 14 -5.83301 29.833 -11.5 47.5s-16.167 26.5 -31.5 26.5c-9.33301 0 -19.666 -3.83301 -30.999 -11.5s-19 -15.5 -23 -23.5v-4c6 -4.66699 10.333 -11.667 13 -21s4 -23 4 -41v-170c0 -88 -1 -149.333 -3 -184c22 0 44 1.33301 66 4c8 1.33301 13.5 3.33301 16.5 6
s4.5 9 4.5 19v299c11.333 13.333 26.5 26.666 45.5 39.999s41.5 20 67.5 20c28.667 0 51.334 -9.66699 68.001 -29s25 -48.333 25 -87z" />
    <glyph glyph-name="o" unicode="o" horiz-adv-x="502" 
d="M255 449c-66 0 -119.667 -22.667 -161 -68s-62 -101 -62 -167c0 -59.333 17.833 -111.833 53.5 -157.5s90.167 -68.5 163.5 -68.5c67.333 0 120.833 22.5 160.5 67.5s59.5 100.833 59.5 167.5c0 63.333 -18 116.833 -54 160.5s-89 65.5 -159 65.5h-1zM248 394
c45.333 0 78.501 -18.167 99.501 -54.5s31.5 -77.5 31.5 -123.5c0 -62 -12.833 -106.333 -38.5 -133s-53.5 -40 -83.5 -40c-36.667 0 -68.334 15 -95.001 45s-40 75.667 -40 137c0 54 12.333 95.667 37 125s54 44 88 44h1z" />
    <glyph glyph-name="p" unicode="p" horiz-adv-x="517" 
d="M157 13c10 -7.33301 23.167 -13.333 39.5 -18s33.5 -7 51.5 -7c64.667 0 120.167 23 166.5 69s69.5 106 69.5 180c0 72 -18.5 125.333 -55.5 160s-77.5 52 -121.5 52c-44.667 0.666992 -96.334 -21.333 -155.001 -66c-1.33301 19.333 -5.5 35.166 -12.5 47.499
s-16.167 18.5 -27.5 18.5s-22.333 -3.83301 -33 -11.5s-18.334 -15.167 -23.001 -22.5v-5c10.667 -5.33301 16.334 -24 17.001 -56v-392c0 -89.333 -1 -147.666 -3 -174.999c22.667 0 45.334 1.33301 68.001 4c8 2.66699 13.167 5.5 15.5 8.5s3.5 8.5 3.5 16.5v197zM157 331
c10 8.66699 25.667 18.833 47 30.5s44 17.5 68 17.5c34.667 0 63.667 -13.833 87 -41.5s35 -64.5 35 -110.5c0 -35.333 -5.16699 -64.5 -15.5 -87.5s-23.166 -41.5 -38.499 -55.5s-31.833 -23.833 -49.5 -29.5s-33.834 -8.5 -48.501 -8.5c-16 0 -31.667 2.16699 -47 6.5
s-28 9.5 -38 15.5v263z" />
    <glyph glyph-name="q" unicode="q" horiz-adv-x="506" 
d="M391 432c-10 3.33301 -24.5 6.99902 -43.5 10.999s-39.833 6 -62.5 6c-71.333 0 -131.333 -22.333 -180 -67s-73 -103.667 -73 -177c0 -69.333 19.667 -122.833 59 -160.5s88 -56.5 146 -56.5c17.333 0 37 4 59 12s41 17.333 57 28v-69
c0 -81.333 -1 -140.666 -3 -177.999c14 0 31.333 1 52 3c14.667 2 24.167 4.83301 28.5 8.5s6.5 10.167 6.5 19.5v386c0 70 0.666992 123.167 2 159.5s2 62.5 2 78.5h-4zM353 76.999c-10 -6 -22.999 -11.168 -38.999 -15.501s-30 -6.5 -42 -6.5
c-46.667 0 -83.334 15.167 -110.001 45.5s-40 69.5 -40 117.5c0 62 17 106.833 51 134.5s69 41.5 105 41.5c36 -1.33301 61 -5.66602 75 -12.999v-304z" />
    <glyph glyph-name="r" unicode="r" horiz-adv-x="327" 
d="M50 408c16.667 -10.667 24.333 -31.668 23 -63.001v-167c0 -88 -1 -149.333 -3 -184c21.333 0 44.333 1.33301 69 4c13.333 1.33301 19.333 9.33301 18 24v41.5v60.5v66v57c0 10.667 0.833008 20 2.5 28s4.5 16.667 8.5 26c10 24 22.333 41.5 37 52.5
s27.667 16.5 39 16.5c12.667 0 26 -2.66699 40 -8c5.33301 0 11 3.33301 17 10s10 14 12 22c3.33301 6 5.33301 12.833 6 20.5s0 13.834 -2 18.501c-4 3.33301 -10 6.83301 -18 10.5s-17 5.5 -27 5.5c-23.333 0 -45.5 -8.5 -66.5 -25.5s-39.167 -41.833 -54.5 -74.5
c0 32 -4.33301 56.667 -13 74s-20 26 -34 26c-9.33301 0 -19.833 -4.33301 -31.5 -13s-19.167 -16.667 -22.5 -24v-4z" />
    <glyph glyph-name="s" unicode="s" horiz-adv-x="341" 
d="M193 449c-40 0 -75.165 -11.8311 -105.498 -35.498s-45.5 -55.5 -45.5 -95.5c0 -26 6.5 -48 19.5 -66s30.167 -32.667 51.5 -44l75 -38c17.333 -9.33301 29.833 -18.833 37.5 -28.5s11.5 -20.5 11.5 -32.5c0 -17.333 -6.5 -31.666 -19.5 -42.999s-31.833 -17 -56.5 -17
c-18.667 0 -37.667 3.33301 -57 10s-36 15 -50 25c-6 -2.66699 -10.833 -7.33398 -14.5 -14.001s-5.83398 -13.334 -6.50098 -20.001c-2 -10.667 1.66699 -20.334 11 -29.001c10 -9.33301 25 -17.166 45 -23.499s42 -9.5 66 -9.5c40 0 77.167 11 111.5 33s51.5 57 51.5 105
c0.666992 41.333 -21 75 -65 101c-14.667 8 -29.834 15.833 -45.501 23.5s-30.167 15.167 -43.5 22.5c-12 6 -22.167 13.667 -30.5 23s-12.5 21.333 -12.5 36c0 17.333 6.33301 31.166 19 41.499s29 15.5 49 15.5c12 0 24.5 -1.83301 37.5 -5.5s24.833 -8.16699 35.5 -13.5
c11.333 -0.666992 19.833 4.33301 25.5 15s8.16699 20.667 7.5 30c-12 11.333 -27.333 19.833 -46 25.5s-37 8.5 -55 8.5h-1z" />
    <glyph glyph-name="t" unicode="t" horiz-adv-x="337" 
d="M309 73c-8.66699 -6 -19.835 -11.001 -33.502 -15.001s-27.5 -6 -41.5 -6c-17.333 0 -33.166 5 -47.499 15s-22.5 30 -24.5 60c-2 21.333 -3.16699 56 -3.5 104s0.833984 97.667 3.50098 149h69c10 0 23.667 1 41 3c8.66699 0 17.834 2.83301 27.501 8.5
s17.167 21.167 22.5 46.5h-26.5h-44.5h-48.5h-39.5c0.666992 20.667 2 46.667 4 78c-12 -2 -22 -5.33301 -30 -10s-15 -9.66699 -21 -15c-4 -4 -10.333 -10 -19 -18l-27 -26l-26 -27c-8 -8.66699 -13 -15.334 -15 -20.001c0 -5.33301 3.66699 -10.166 11 -14.499
s19.666 -6.5 36.999 -6.5v-161.5v-97.5c0 -38 9.5 -69.5 28.5 -94.5s50.833 -37.5 95.5 -37.5c17.333 0 34.833 2.33301 52.5 7s31.5 11.334 41.5 20.001c8.66699 6.66699 14 15.167 16 25.5s2 20.5 0 30.5z" />
    <glyph glyph-name="u" unicode="u" horiz-adv-x="513" 
d="M69 153c0 -49.333 11.833 -89.165 35.5 -119.498s60.834 -45.5 111.501 -45.5c22.667 0 44 4.33301 64 13c10 4.66699 22.667 11.5 38 20.5s30.333 21.5 45 37.5c2 -22 8.83301 -39.333 20.5 -52s28.167 -19 49.5 -19c10 0 19.833 5.33301 29.5 16s14.834 21 15.501 31v4
c-14 2 -24.167 7 -30.5 15s-9.5 24.333 -9.5 49v161c0 43.333 0.5 81.333 1.5 114s1.5 54.667 1.5 66c-21.333 -0.666992 -45 -2.66699 -71 -6c-6.66699 -2.66699 -11 -6 -13 -10s-3 -12 -3 -24v-296c-8 -10.667 -21.333 -21.834 -40 -33.501s-39.667 -17.5 -63 -17.5
c-11.333 0 -22.833 1.16699 -34.5 3.5s-22.334 7.66602 -32.001 15.999s-17.334 20.5 -23.001 36.5s-8.5 37.333 -8.5 64c0 32 -0.166992 65.833 -0.5 101.5s-0.5 70.167 -0.5 103.5c0 28 -1 45.333 -3 52s-5.66699 10 -11 10c-8.66699 0 -21 -1.16699 -37 -3.5
s-28 -4.5 -36 -6.5l2.5 -42.5c1 -17 1.5 -40.5 1.5 -70.5v-168z" />
    <glyph glyph-name="v" unicode="v" horiz-adv-x="433" 
d="M86 449c-9.33301 0 -21.5029 -2.49902 -36.5029 -7.49902s-26.5 -9.83301 -34.5 -14.5l22.5 -52c9 -20.667 21.5 -51.667 37.5 -93l70 -183.5c16.667 -43 30.334 -79.833 41.001 -110.5c7.33301 0.666992 15.833 1.83398 25.5 3.50098s18.834 3.83398 27.501 6.50098
c10.667 3.33301 19.334 13.666 26.001 30.999l79.5 194l62.5 153c7.33301 19.333 11.5 33.166 12.5 41.499s-2.16699 14.5 -9.5 18.5c-18 9.33301 -35.667 13.666 -53 12.999l-29.5 -79.5l-35.5 -95l-36 -95c-12 -31 -22 -58.167 -30 -81.5l-33 93.5l-34.5 95l-30 83
c-9 25 -15.833 44.5 -20.5 58.5c-5.33301 14 -12.333 21 -21 21h-1z" />
    <glyph glyph-name="w" unicode="w" horiz-adv-x="666" 
d="M89 449c-8.66699 0 -21.0029 -2.50098 -37.0029 -7.50098s-28 -10.167 -36 -15.5l22 -56.5l36 -97.5l52.5 -160.5l40.5 -123.5c18 1.33301 35.333 4.33301 52 9c10.667 3.33301 18.334 12.666 23.001 27.999c4 14 10.333 33.667 19 59l28 80l28.5 81l21.5 63
c8.66699 -31.333 16.834 -59.5 24.501 -84.5l23 -73.5l23 -75l26.5 -87c18.667 1.33301 35.667 4 51 8c7.33301 2.66699 12.833 6.33398 16.5 11.001s7.5 12 11.5 22l66.5 180l62.5 172c6 17.333 9.16699 30 9.5 38s-2.16699 14 -7.5 18c-17.333 7.33301 -36 11.333 -56 12
l-37.5 -117l-76.5 -228l-89 294c-4 14 -7.5 24.333 -10.5 31s-7.5 10 -13.5 10c-8 0 -18.667 -2 -32 -6s-23 -7.33301 -29 -10c2.66699 -7.33301 4.66699 -15.666 6 -24.999l-23 -71l-23 -67l-24.5 -72.5l-28.5 -87.5l-53.5 180.5l-46.5 150.5
c-3.33301 12 -9.66602 18 -18.999 18h-1z" />
    <glyph glyph-name="x" unicode="x" horiz-adv-x="427" 
d="M23 429l26.501 -38.5l39.5 -57.5l42.5 -61.5l35.5 -49.5l-85 -118.5l-72 -99.5v-3c8 -2 17.833 -3.66699 29.5 -5s22.167 -2 31.5 -2c10 0 17.667 4.33301 23 13l64 93l48 68l62 -90.5l48 -69.5c6.66699 -10 15 -14.667 25 -14c16 0 30.833 0.833008 44.5 2.5
s24.5 3.5 32.5 5.5v3l-81.5 114c-30.333 42 -56.5 80.333 -78.5 115l74.5 103l72.5 97v2c-8.66699 3.33301 -18.834 6.33301 -30.501 9s-21.5 4 -29.5 4c-8.66699 0 -17 -7 -25 -21l-45.5 -66l-54.5 -76l-51.5 74.5l-41.5 62.5c-4.66699 6 -9.66699 11.833 -15 17.5
s-10.333 8.5 -15 8.5c-10 0 -23.5 -2.33301 -40.5 -7s-28.167 -8 -33.5 -10v-3z" />
    <glyph glyph-name="y" unicode="y" horiz-adv-x="421" 
d="M49 -187c4 -6 11.8301 -11.6641 23.4971 -16.9971s23.5 -8 35.5 -8c4 0 12.333 8.16699 25 24.5s27.5 37.666 44.5 63.999s35 56.5 54 90.5s36.833 69 53.5 105c28 62 51.833 121.833 71.5 179.5s35.834 108.5 48.501 152.5c2 10 2.33301 17.667 1 23
s-5.66602 9.66602 -12.999 12.999c-8 2.66699 -16.667 4.83398 -26 6.50098s-18 2.5 -26 2.5c-4.66699 -20.667 -11.5 -45.834 -20.5 -75.501l-29 -92.5c-10.333 -32 -21.166 -63.333 -32.499 -94s-22 -57 -32 -79l-26 71l-33.5 93l-33 91.5l-24.5 67.5
c-2.66699 5.33301 -5.5 9.66602 -8.5 12.999s-7.5 5 -13.5 5c-8.66699 0 -20.167 -2.5 -34.5 -7.5s-26.166 -10.167 -35.499 -15.5c10.667 -24 23.5 -54.5 38.5 -91.5l43.5 -110l38 -99c11.333 -29.667 19 -49.167 23 -58.5c3.33301 -9.33301 7.16602 -18.333 11.499 -27
s7.83301 -14.667 10.5 -18c-22 -42 -45.833 -81.833 -71.5 -119.5s-46.5 -66.5 -62.5 -86.5v-3z" />
    <glyph glyph-name="z" unicode="z" horiz-adv-x="382" 
d="M28 6c15.333 -4 40.168 -6.5 74.501 -7.5s74.833 -1.5 121.5 -1.5c42.667 0 73 0.666992 91 2s30.667 5 38 11c14 10.667 23 27.334 27 50.001c-8 -2 -22.167 -3.33301 -42.5 -4s-42.833 -1 -67.5 -1s-49.167 0.166992 -73.5 0.5s-44.166 1.5 -59.499 3.5l62 95.5
l60.5 95.5l49.5 80c14 23.333 23.333 39.666 28 48.999c5.33301 12.667 8.66602 22 9.99902 28s3 16.333 5 31h-212c-28.667 0 -48.834 0.333008 -60.501 1s-20.5 3 -26.5 7c-4 -3.33301 -9 -9.33301 -15 -18s-9.66699 -17.667 -11 -27c-2.66699 -14 17 -21 59 -21h86.5
h75.5c-14 -24.667 -32.333 -55 -55 -91l-69.5 -107.5l-65.5 -97.5l-42 -61z" />
    <glyph glyph-name="braceleft" unicode="{" horiz-adv-x="323" 
d="M278 -139c0.666992 6 -3.66895 10.3369 -13.002 13.0039c-29.333 8 -49.166 20 -59.499 36s-15.5 34.667 -15.5 56c0 27.333 3.5 56.5 10.5 87.5s10.5 64.5 10.5 100.5c0 26 -3.66699 49.833 -11 71.5s-27 39.167 -59 52.5c21.333 8.66699 38.333 21.667 51 39
s19 41.666 19 72.999c0 27.333 -3.16699 55.166 -9.5 83.499s-9.5 54.5 -9.5 78.5c0 26 5.5 46.5 16.5 61.5s29.5 27.5 55.5 37.5c10 2.66699 14.667 8 14 16c0 15.333 -2 26.666 -6 33.999c-36 -2 -67.667 -12.333 -95 -31c-22 -16 -36.667 -34.5 -44 -55.5
s-11 -41.833 -11 -62.5c0 -26 2.83301 -55 8.5 -87s8.5 -60 8.5 -84c0 -22 -5.5 -40.833 -16.5 -56.5s-35.5 -26.834 -73.5 -33.501c-1.33301 -9.33301 -0.5 -18.333 2.5 -27s6.83301 -13 11.5 -13c29.333 -2.66699 49.333 -11.167 60 -25.5s16 -35.833 16 -64.5
c0 -28 -3.33301 -61.167 -10 -99.5s-10 -70.833 -10 -97.5c0 -46 13.333 -80.5 40 -103.5s63.334 -35.167 110.001 -36.5c2 3.33301 4 8.83301 6 16.5s3 14.167 3 19.5v1z" />
    <glyph glyph-name="bar" unicode="|" horiz-adv-x="282" 
d="M177 750h-72v-1000h72v1000z" />
    <glyph glyph-name="braceright" unicode="}" horiz-adv-x="323" 
d="M46 662c-0.666992 -5.33301 4 -9.33301 14 -12c28 -8 47.333 -19.667 58 -35s16 -33.333 16 -54c0 -29.333 -3.5 -58.833 -10.5 -88.5s-10.5 -59.167 -10.5 -88.5c0 -25.333 4 -49 12 -71s27.333 -39.333 58 -52c-20 -9.33301 -36.667 -22.666 -50 -39.999
s-20 -43 -20 -77c-0.666992 -30 2.33301 -60.167 9 -90.5s10 -57.833 10 -82.5c0 -26 -5.66699 -46.5 -17 -61.5s-30 -27.5 -56 -37.5c-8.66699 -2.66699 -13 -8 -13 -16c0 -16.667 2 -27.667 6 -33c36 2 68 12.333 96 31c21.333 16 35.666 34.333 42.999 55
s11 41.667 11 63c0 28 -2.83301 60 -8.5 96s-8.5 66.333 -8.5 91c0 21.333 5.33301 39.833 16 55.5s35.334 27.167 74.001 34.5c0.666992 8.66699 -0.5 17.167 -3.5 25.5s-6.5 13.166 -10.5 14.499c-29.333 2 -49.333 10 -60 24s-16 35 -16 63c0 22 3.5 51.167 10.5 87.5
s10.5 68.5 10.5 96.5c0 46 -13.5 80.5 -40.5 103.5s-63.5 35.167 -109.5 36.5c-2.66699 -3.33301 -5 -8.83301 -7 -16.5s-3 -14.5 -3 -20.5v-1z" />
    <glyph glyph-name="asciitilde" unicode="~" horiz-adv-x="572" 
d="M189 354c-10 0 -22.002 -1.83301 -36.002 -5.5s-27.667 -11.5 -41 -23.5s-25.166 -30 -35.499 -54s-16.833 -56.667 -19.5 -98c10.667 -7.33301 24.334 -11.333 41.001 -12c12 -0.666992 19.667 6 23 20c6 42 14.667 70.667 26 86s25 23 41 23c10 0 21.167 -4 33.5 -12
s27.166 -21 44.499 -39c21.333 -22.667 41.833 -41.667 61.5 -57s42.5 -23 68.5 -23c28 0 54.167 11.333 78.5 34s37.5 69 39.5 139c-4 4 -10.5 8 -19.5 12s-17.5 6 -25.5 6c-3.33301 0 -6.33301 -1 -9 -3s-4.33398 -6 -5.00098 -12c-4 -44 -10.667 -73.333 -20 -88
s-22 -22 -38 -22c-15.333 0 -30.166 6.33301 -44.499 19s-30.166 28.334 -47.499 47.001c-19.333 19.333 -37.5 34.666 -54.5 45.999s-37.167 17 -60.5 17h-1z" />
    <glyph glyph-name="nonbreakingspace" unicode="&#xa0;" horiz-adv-x="212" 
 />
    <glyph glyph-name="exclamdown" unicode="&#xa1;" horiz-adv-x="184" 
d="M90 339c18.667 0 33 5.33203 43 15.999s15 24 15 40c0 16.667 -5.5 29.834 -16.5 39.501s-22.833 14.5 -35.5 14.5c-17.333 0 -31 -5.33301 -41 -16s-15 -24 -15 -40c0 -14 4.5 -26.5 13.5 -37.5s20.833 -16.5 35.5 -16.5h1zM60 -169.001
c10.667 0 25.5 2.49902 44.5 7.49902s29.5 10.5 31.5 16.5c-0.666992 20.667 -2.16699 50.334 -4.5 89.001s-4.5 78.167 -6.5 118.5s-4.16699 77.666 -6.5 111.999s-3.5 57.5 -3.5 69.5c-2 0 -6.66699 -1.16699 -14 -3.5l-23 -7.5c-4 -2 -7.66699 -4.5 -11 -7.5
s-5 -8.83301 -5 -17.5c-1.33301 -8 -3.33301 -28.667 -6 -62s-5.16699 -69.166 -7.5 -107.499s-4.33301 -75 -6 -110s-2.5 -58.833 -2.5 -71.5c0 -10 1.66699 -16.833 5 -20.5s8 -5.5 14 -5.5h1z" />
    <glyph glyph-name="cent" unicode="&#xa2;" horiz-adv-x="463" 
d="M313 579l-26.001 -2c-16 -1.33301 -26.333 -3.83301 -31 -7.5s-7.33398 -9.5 -8.00098 -17.5l-5 -49c-15.333 -3.33301 -33.5 -9 -54.5 -17s-40.833 -20 -59.5 -36s-34.5 -36.5 -47.5 -61.5s-19.5 -56.167 -19.5 -93.5c0 -36 5.66699 -65.833 17 -89.5s25 -42.5 41 -56.5
s32.833 -24.333 50.5 -31s32.5 -11 44.5 -13l-12 -97l40 3c10 0.666992 16.833 3 20.5 7s6.16699 10.667 7.5 20l8 62c20 0 36.833 1.83301 50.5 5.5s24.5 7.5 32.5 11.5c7.33301 4 13.833 11 19.5 21s9.5 24 11.5 42c-31.333 -13.333 -64.666 -19.666 -99.999 -18.999
c-32.667 0 -64.334 10.833 -95.001 32.5s-46 59.167 -46 112.5c0 13.333 2 28.166 6 44.499s11.167 31.5 21.5 45.5s24.333 26 42 36s39.834 15 66.501 15c12.667 0 25.5 -1.83301 38.5 -5.5s24.5 -7.83398 34.5 -12.501c10.667 -1.33301 19.334 2.83398 26.001 12.501
s10 19.5 10 29.5c-8 8 -20.167 15.167 -36.5 21.5s-34.833 10.5 -55.5 12.5z" />
    <glyph glyph-name="sterling" unicode="&#xa3;" horiz-adv-x="463" 
d="M28 12c44 -14 89.502 -26.334 136.502 -37.001s91.5 -16 133.5 -16c24 0 43.833 1.5 59.5 4.5s28.5 7.5 38.5 13.5c7.33301 6.66699 14 14.5 20 23.5s10.333 20.833 13 35.5l-3 3c-16.667 -6 -36.5 -10 -59.5 -12s-43.167 -3 -60.5 -3c-28 0 -60.833 3.5 -98.5 10.5
s-66.5 14.833 -86.5 23.5c22.667 23.333 40.167 52 52.5 86s19.166 77.333 20.499 130c42 0 73.667 -0.166992 95 -0.5s35.333 0.166992 42 1.5c8 0.666992 16.667 5.16699 26 13.5s16 23.5 20 45.5c-6 -1.33301 -17 -2.16602 -33 -2.49902s-33.167 -0.5 -51.5 -0.5
s-36.333 0.166992 -54 0.5s-31.167 0.5 -40.5 0.5c1.33301 64 8 116.667 20 158s39.667 62 83 62c10.667 0 21 -1.5 31 -4.5s18.333 -5.83301 25 -8.5c10 -2 18.167 2.66699 24.5 14s9.16602 21 8.49902 29c-8 7.33301 -19.833 14.333 -35.5 21s-33.5 10 -53.5 10
c-62 0 -108.5 -22.5 -139.5 -67.5s-47.833 -116.167 -50.5 -213.5c-18 -6 -31.667 -12 -41 -18s-16 -15 -20 -27c4 -4.66699 10.333 -8 19 -10s21.667 -3 39 -3c0 -18 -1 -38.333 -3 -61s-6 -45.5 -12 -68.5s-14.167 -45 -24.5 -66s-23.5 -39.167 -39.5 -54.5z" />
    <glyph glyph-name="currency" unicode="&#xa4;" horiz-adv-x="463" 
d="M227 479c-22 0 -41.334 -3 -58.001 -9s-30.667 -12.333 -42 -19c-10.667 10.667 -21.5 22.334 -32.5 35.001s-19.5 22 -25.5 28c-10.667 2 -21 -6 -31 -24c-6.66699 -10.667 -5 -22.334 5 -35.001c8 -10 14.667 -17.833 20 -23.5l17 -17.5
c-12.667 -15.333 -23.667 -33 -33 -53s-14 -42.667 -14 -68c0 -24.667 3.5 -48 10.5 -70s19.5 -41.667 37.5 -59c-8.66699 -12.667 -18.667 -25.834 -30 -39.501l-26 -31.5c2.66699 -11.333 11.334 -20.333 26.001 -27c12.667 -6.66699 25.334 -2 38.001 14
c8.66699 10 16.667 19.833 24 29.5l17 22.5c10 -6 22 -10.5 36 -13.5s28 -4.5 42 -4.5c16 0 32.333 1.83301 49 5.5s33.334 11.5 50.001 23.5l48.5 -55.5c12.333 -14.333 20.833 -21.5 25.5 -21.5c5.33301 0 12.166 4.5 20.499 13.5s13.5 17.833 15.5 26.5
c-4 6 -11.667 15.333 -23 28l-40 46c13.333 14 23.833 32.333 31.5 55s11.5 45 11.5 67c0 18.667 -2.83301 37.334 -8.5 56.001s-13.5 35.334 -23.5 50.001l34 38c10 11.333 15 21 15 29c0 4 -2.33301 10.167 -7 18.5s-12 16.166 -22 23.499
c-8 -10.667 -17.167 -22 -27.5 -34s-20.5 -23 -30.5 -33c-12 10 -27.333 17.333 -46 22s-36.334 7 -53.001 7h-1zM213.999 428c35.333 0 63.167 -12 83.5 -36s30.5 -55 30.5 -93c0 -38.667 -9.83301 -70.667 -29.5 -96s-47.167 -38 -82.5 -38c-36 0 -64 12 -84 36
s-30 56 -30 96c0 36 10 66.833 30 92.5s47 38.5 81 38.5h1z" />
    <glyph glyph-name="yen" unicode="&#xa5;" horiz-adv-x="463" 
d="M274 327l44.499 71.001l44.5 70.5l38 61l27 43.5c5.33301 6.66699 2.33301 11.667 -9 15c-19.333 4 -37.666 5.33301 -54.999 4c-6 -9.33301 -14.167 -22.833 -24.5 -40.5l-33.5 -59l-37.5 -67l-37.5 -64.5l-34 59.5l-37 66l-32 58.5c-9.33301 17.333 -16 30 -20 38
c-4 6 -9.66699 9.33301 -17 10c-8 0 -20.333 -1.16699 -37 -3.5s-30.334 -4.5 -41.001 -6.5v-4l27.5 -45.5l43 -71l46 -75.5l37.5 -60h-110c-3.33301 -2 -6.16602 -9 -8.49902 -21s-3.5 -21 -3.5 -27h132v-78h-116c-2.66699 -2 -5.16699 -8.83301 -7.5 -20.5
s-3.5 -20.834 -3.5 -27.501h127v-142c0 -8 1.5 -13 4.5 -15s7.5 -3 13.5 -3c11.333 0 23 0.666992 35 2s22.333 3 31 5v153h91c10 0 17.833 5.5 23.5 16.5s8.5 21.5 8.5 31.5h-123v78h104c8.66699 0 16.167 5.5 22.5 16.5s9.83301 21.5 10.5 31.5h-124z" />
    <glyph glyph-name="brokenbar" unicode="&#xa6;" horiz-adv-x="282" 
d="M177 675h-72v-350h72v350zM177 175h-72v-350h72v350z" />
    <glyph glyph-name="section" unicode="&#xa7;" horiz-adv-x="441" 
d="M37 373c0 -42 10.3311 -79.1709 30.998 -111.504s44 -63.166 70 -92.499c10 -12 21.5 -25 34.5 -39s25.167 -28 36.5 -42s21 -28 29 -42s12 -27 12 -39c0 -20 -7.66699 -36 -23 -48s-35 -18 -59 -18c-14 0 -28.833 1.83301 -44.5 5.5s-28.167 7.83398 -37.5 12.501
c-4 -10.667 -4.16699 -21.5 -0.5 -32.5s8.5 -18.5 14.5 -22.5c5.33301 -4.66699 14.166 -8.5 26.499 -11.5s25.5 -4.5 39.5 -4.5c28 0 54 6 78 18s42.333 29 55 51c26.667 24.667 50.334 54.167 71.001 88.5s31.334 74.166 32.001 119.499c0 48 -10.5 87 -31.5 117
s-46.833 61 -77.5 93c-24 22 -47.333 45.667 -70 71s-34 49 -34 71c0.666992 40.667 25.334 61 74.001 61c22.667 0 44 -5.66699 64 -17c5.33301 4.66699 10 11.834 14 21.501s3 17.834 -3 24.501c-8 6.66699 -19 11.834 -33 15.501s-26.667 5.5 -38 5.5
c-30.667 0 -56.5 -6.5 -77.5 -19.5s-38.167 -28.5 -51.5 -46.5c-26 -20.667 -49.333 -46.667 -70 -78s-31 -68 -31 -110v-1zM343.998 135.996c0 -16 -3.16895 -33.833 -9.50195 -53.5s-14.833 -37.5 -25.5 -53.5c-2 33.333 -14.5 64.833 -37.5 94.5s-49.5 60.5 -79.5 92.5
c-26 27.333 -48.5 56 -67.5 86s-28.167 62 -27.5 96c0.666992 38.667 12.334 73.334 35.001 104.001c0.666992 -37.333 14.334 -71.333 41.001 -102s53 -59.334 79 -86.001c24 -26 45.333 -53 64 -81s28 -60 28 -96v-1z" />
    <glyph glyph-name="dieresis" unicode="&#xa8;" horiz-adv-x="400" 
d="M117 632c-16 0 -28.166 -4.83398 -36.499 -14.501s-12.5 -21.5 -12.5 -35.5c0 -16 4.66699 -27.833 14 -35.5s19.666 -11.5 30.999 -11.5c30.667 0.666992 46.667 17.334 48 50.001c0 12 -4.16699 22.833 -12.5 32.5s-18.5 14.5 -30.5 14.5h-1zM288.001 631.999
c-16 0 -28.168 -4.83301 -36.501 -14.5s-12.5 -21.5 -12.5 -35.5c0 -16 4.83301 -27.833 14.5 -35.5s19.834 -11.5 30.501 -11.5c14 0 25.5 4.33301 34.5 13s13.5 21 13.5 37c0 12 -4.16699 22.833 -12.5 32.5s-18.5 14.5 -30.5 14.5h-1z" />
    <glyph glyph-name="copyright" unicode="&#xa9;" horiz-adv-x="680" 
d="M342 631c-43.333 0 -83.5 -7.66504 -120.5 -22.998s-69.333 -37 -97 -65s-49.167 -61.333 -64.5 -100s-23 -81 -23 -127c0 -47.333 7.66699 -90.333 23 -129s36.833 -71.834 64.5 -99.501s60 -48.834 97 -63.501s77.167 -22 120.5 -22c42 0 81.167 7.33301 117.5 22
s68 35.834 95 63.501s48.5 60.834 64.5 99.501s24 81.667 24 129c0 43.333 -7.5 84.166 -22.5 122.499s-35.5 71.666 -61.5 99.999s-57.5 50.833 -94.5 67.5s-77.5 25 -121.5 25h-1zM343 590.002c38 0 72 -7.5 102 -22.5s55.667 -35.167 77 -60.5s37.833 -54.333 49.5 -87
s17.5 -67 17.5 -103c0 -38.667 -6 -74.834 -18 -108.501s-28.833 -62.667 -50.5 -87s-47.5 -43.5 -77.5 -57.5s-63 -21 -99 -21c-38 0 -72.667 7 -104 21s-58 33.333 -80 58s-39 53.667 -51 87s-18 69 -18 107s6 73.5 18 106.5s29 61.833 51 86.5s48.333 44.334 79 59.001
s65 22 103 22h1zM457 214.002c-10 -4 -22.502 -7.5 -37.502 -10.5s-29.167 -4.5 -42.5 -4.5c-41.333 0 -72.833 11 -94.5 33s-32.5 51.333 -32.5 88c0 40 12.167 69.5 36.5 88.5s49.5 28.5 75.5 28.5c16.667 0 31 -1.83301 43 -5.5l28 -8.5
c8.66699 -3.33301 16.334 -1.66602 23.001 5.00098c1.33301 2 3 5.33301 5 10s3 9.66699 3 15c-4.66699 4.66699 -16.167 10.5 -34.5 17.5s-38.833 10.5 -61.5 10.5c-52 0 -94.667 -15.5 -128 -46.5s-50 -70.833 -50 -119.5c0 -50 15.333 -89.667 46 -119s72 -44 124 -44
c22 0 39.167 2.16699 51.5 6.5s21.5 8.16602 27.5 11.499c12.667 12 19.334 26 20.001 42z" />
    <glyph glyph-name="ordfeminine" unicode="&#xaa;" horiz-adv-x="319" 
d="M306 326c-5.33301 -2 -12.3281 -3 -20.9951 -3c-4.66699 0 -9.33398 1.83301 -14.001 5.5s-7.33398 9.5 -8.00098 17.5c0 14 0.333008 34.5 1 61.5s1 47.5 1 61.5c0 30 -8.5 54.667 -25.5 74s-43.833 29 -80.5 29c-26 0 -50.833 -5.66699 -74.5 -17
s-39.834 -22 -48.501 -32l5 -13c6 -18.667 17.333 -23.667 34 -15c8.66699 6 19.167 12 31.5 18s25.166 9 38.499 9c34.667 -0.666992 52 -18.334 52 -53.001v-14c-8 -1.33301 -19.333 -3.66602 -34 -6.99902c-10.667 -2 -23.834 -5 -39.501 -9s-30.5 -9.83301 -44.5 -17.5
s-26 -17.334 -36 -29.001s-15 -26.167 -15 -43.5c0 -22 7.83301 -40 23.5 -54s36.5 -20.667 62.5 -20c20 0 37 3.83301 51 11.5s25.667 15.834 35 24.501c7.33301 -23.333 26 -35 56 -35c13.333 0 24.5 3 33.5 9s14.5 14 16.5 24v17zM98.0049 360c0 18 11 31.334 33 40.001
s44 14.334 66 17.001v-40c0 -10 -2 -18 -6 -24c-4 -8.66699 -10.833 -15.834 -20.5 -21.501s-20.167 -8.5 -31.5 -8.5s-21 3.16699 -29 9.5s-12 15.166 -12 26.499v1z" />
    <glyph glyph-name="guillemotleft" unicode="&#xab;" horiz-adv-x="571" 
d="M416 55c0 6 -4.49902 16.999 -13.499 32.999s-19.167 33 -30.5 51l-33.5 51.5l-22.5 33.5l23.5 30.5c11.667 15 23.5 31.333 35.5 49s22.833 34.5 32.5 50.5s14.5 27.667 14.5 35c-0.666992 9.33301 -4.66699 18 -12 26s-13.333 14 -18 18
c-24.667 -38 -50.834 -74.167 -78.501 -108.5s-55.5 -64.833 -83.5 -91.5c0 -8.66699 3 -17.334 9 -26.001c26 -28 51.167 -58.167 75.5 -90.5s46.5 -66.5 66.5 -102.5c7.33301 2.66699 15 7.83398 23 15.501s12 15.834 12 24.501v1zM230.001 380.999
c0 7.33301 -3.50098 14.999 -10.501 22.999s-13.167 13 -18.5 15c-22 -34.667 -46.333 -68.167 -73 -100.5s-53.334 -60.833 -80.001 -85.5c0 -8 2 -16 6 -24c25.333 -26 49.833 -55 73.5 -87s45.167 -64 64.5 -96c6 1.33301 12.667 5.83301 20 13.5s11 15.834 11 24.501
c0 7.33301 -3.83301 18.5 -11.5 33.5s-16.5 30.667 -26.5 47s-20 31.833 -30 46.5s-17 25.667 -21 33c4 6 11.333 16.333 22 31s21.334 30.167 32.001 46.5s20.334 32 29.001 47s13 25.5 13 31.5v1z" />
    <glyph glyph-name="logicalnot" unicode="&#xac;" horiz-adv-x="572" 
d="M445 77c10 0 23.333 0.833008 40 2.5s25 11.167 25 28.5v247l-9 10h-408c-12 0 -20.167 -5 -24.5 -15s-6.5 -24.667 -6.5 -44h383v-229z" />
    <glyph glyph-name="sfthyphen" unicode="&#xad;" horiz-adv-x="300" 
d="M265 291c-22 -6 -52.834 -12.6699 -92.501 -20.0029s-74.5 -13 -104.5 -17c-6 -0.666992 -12.5 -7.5 -19.5 -20.5s-12.167 -28.5 -15.5 -46.5l2 -4c10 0 22.833 0.833008 38.5 2.5s32.167 3.83398 49.5 6.50098s33.833 5.83398 49.5 9.50098s28.5 7.5 38.5 11.5
c16.667 4 29.334 13.333 38.001 28s14.667 30.334 18 47.001z" />
    <glyph glyph-name="registered" unicode="&#xae;" horiz-adv-x="315" 
d="M157 641c-39.333 0 -70.332 -12.667 -92.999 -38s-34 -56 -34 -92s11.333 -66.333 34 -91s53.667 -37 93 -37s70.666 12.333 93.999 37s35 55 35 91c0 36.667 -11.833 67.5 -35.5 92.5s-54.5 37.5 -92.5 37.5h-1zM156.001 615c29.333 0 53.001 -10.167 71.001 -30.5
s27 -44.5 27 -72.5c0 -30.667 -9.16699 -55.667 -27.5 -75s-41.166 -29 -68.499 -29c-28.667 0 -51.834 9.66699 -69.501 29s-26.5 44.333 -26.5 75c0 28 8.66699 52.167 26 72.5s39.666 30.5 66.999 30.5h1zM138.002 497c10.667 2 17.999 -0.999023 21.999 -8.99902
c8 -14 15 -25 21 -33c2 -4.66699 8 -7.66699 18 -9c7.33301 0 14 0.666992 20 2v3c-6 5.33301 -12.833 14.5 -20.5 27.5s-13.5 22.5 -17.5 28.5c6.66699 2 12.834 5.66699 18.501 11s8.5 12.333 8.5 21c-1.33301 26 -19.666 39 -54.999 39
c-16.667 0 -31.334 -1.33301 -44.001 -4v-127c7.33301 -0.666992 14.333 -0.333984 21 0.999023c6 0.666992 8.66699 4.66699 8 12v37zM138.001 557.001c3.33301 0.666992 8.33301 1.00098 15 1.00098c15.333 -0.666992 23.333 -7.33398 24 -20.001
c0 -10 -5 -16.667 -15 -20c-7.33301 -1.33301 -15.333 -2 -24 -2v41z" />
    <glyph glyph-name="macron" unicode="&#xaf;" horiz-adv-x="400" 
d="M291 544c4 4 8.16895 11.668 12.502 23.001s6.5 20.666 6.5 27.999c0.666992 6.66699 -3.33301 10 -12 10h-192c-2.66699 -2 -5.83398 -8.5 -9.50098 -19.5s-5.5 -20.5 -5.5 -28.5c-0.666992 -8.66699 3.66602 -13 12.999 -13h187z" />
    <glyph glyph-name="degree" unicode="&#xb0;" horiz-adv-x="290" 
d="M145 602c-34 0 -61.333 -11.334 -82 -34.001s-31 -49.667 -31 -81c0 -37.333 11.5 -65.166 34.5 -83.499s46.833 -27.5 71.5 -27.5c36 0 64.833 10.333 86.5 31s32.5 48 32.5 82c0 30.667 -10 57.167 -30 79.5s-47 33.5 -81 33.5h-1zM144 553.999
c18.667 0 32.667 -7.16699 42 -21.5s14 -29.5 14 -45.5c0 -17.333 -4.16699 -32.333 -12.5 -45s-22.5 -19 -42.5 -19c-14 0 -26.667 5.5 -38 16.5s-17 27.167 -17 48.5c0 18 4.66699 33.5 14 46.5s22.333 19.5 39 19.5h1z" />
    <glyph glyph-name="plusminus" unicode="&#xb1;" horiz-adv-x="572" 
d="M253 308v-199l27 2c15.333 1.33301 25.5 4.5 30.5 9.5s7.5 11.5 7.5 19.5v168h159c12.667 0 21.167 5.33301 25.5 16s6.83301 25 7.5 43h-192v142c0 12 -1.33301 21.167 -4 27.5s-9 8.83301 -19 7.5l-45 -6c2 -16.667 3 -38.667 3 -66v-105h-159
c-12 0 -20.5 -5.33301 -25.5 -16s-7.5 -25 -7.5 -43h192zM478 0c12.667 0 21.167 5.33398 25.5 16.001s6.83301 25 7.5 43h-417c-21.333 -0.666992 -32 -20.334 -32 -59.001h416z" />
    <glyph glyph-name="twosuperior" unicode="&#xb2;" 
d="M33 661c10.667 10 23.833 18 39.5 24s30.5 9 44.5 9c16 0 29.333 -4.66699 40 -14s16 -23 16 -41c0 -29.333 -14.333 -58 -43 -86s-58 -54.333 -88 -79l-17 -36l2 -5c12.667 -2.66699 31.5 -4.33398 56.5 -5.00098s49.5 -1 73.5 -1c22 0 39.333 0.5 52 1.5
s23.667 2.83301 33 5.5c8 4.66699 14.667 12.167 20 22.5s8.66602 19.5 9.99902 27.5c-33.333 -2.66699 -62 -4.16699 -86 -4.5s-46 0.166992 -66 1.5l40 32c14.667 12 28.5 25 41.5 39s24.167 29.167 33.5 45.5s14 33.5 14 51.5c0 30 -9.66699 54.333 -29 73
s-45.666 28 -78.999 28c-20.667 0 -40 -4.16699 -58 -12.5s-32.333 -18.166 -43 -29.499c-2 -6 -4.16699 -13 -6.5 -21s-3.5 -16 -3.5 -24z" />
    <glyph glyph-name="threesuperior" unicode="&#xb3;" 
d="M78 558c16 2.66699 30.334 4.00195 43.001 4.00195c20 0 36.333 -4.16699 49 -12.5s19 -21.5 19 -39.5s-7.33301 -32.833 -22 -44.5s-37.334 -17.5 -68.001 -17.5c-12 0 -24.333 1.16699 -37 3.5s-22 4.83301 -28 7.5l-2 -3c0 -7.33301 1.5 -14.833 4.5 -22.5
s6.5 -13.167 10.5 -16.5c4 -4 10.833 -7.5 20.5 -10.5s24.5 -4.5 44.5 -4.5c38.667 0 73.334 9.83301 104.001 29.5s46 47.167 46 82.5c0 23.333 -6.5 41.5 -19.5 54.5s-30.833 22.5 -53.5 28.5c14 8 26.167 17.167 36.5 27.5s15.5 25.5 15.5 45.5
c0 24 -9.16699 43.167 -27.5 57.5s-41.5 21.5 -69.5 21.5c-22 0 -41.5 -4.5 -58.5 -13.5s-28.5 -16.5 -34.5 -22.5c-7.33301 -7.33301 -11 -14 -11 -20c0 -4 1.16699 -8.33301 3.5 -13s5.16602 -8.33398 8.49902 -11.001c8.66699 7.33301 20 14.166 34 20.499
s26.667 9.5 38 9.5c14 0 26 -3.66699 36 -11s15 -18 15 -32c0 -18 -7.5 -31.167 -22.5 -39.5s-35.5 -14.5 -61.5 -18.5c-4 -6 -7.33301 -12.5 -10 -19.5s-5 -12.5 -7 -16.5z" />
    <glyph glyph-name="acute" unicode="&#xb4;" horiz-adv-x="400" 
d="M253 682c-4.66699 0 -10.668 -5.50195 -18.001 -16.502s-15 -23.833 -23 -38.5s-15.667 -29.667 -23 -45s-13 -28 -17 -38c-4 -8 -5.83301 -14 -5.5 -18s1.83301 -7 4.5 -9c6.66699 -7.33301 15.334 -12.666 26.001 -15.999l49 66c18.667 25.333 38 49.333 58 72
c8.66699 8.66699 9.66699 15.334 3 20.001c-6 5.33301 -14.167 10.5 -24.5 15.5s-19.833 7.5 -28.5 7.5h-1z" />
    <glyph glyph-name="mu" unicode="&#xb5;" horiz-adv-x="513" 
d="M140 34c10 -17.333 23.168 -29.167 39.501 -35.5s33.5 -9.5 51.5 -9.5c28 0 52.5 6.16699 73.5 18.5s40.833 28.5 59.5 48.5c2.66699 -20 10.667 -36.333 24 -49s30.333 -19 51 -19c13.333 0 24.333 5.5 33 16.5s13.667 21.5 15 31.5v4
c-14 1.33301 -25.667 6.33301 -35 15s-14 25 -14 49v158c0 42.667 0.5 80.5 1.5 113.5s1.5 55.5 1.5 67.5c-21.333 -0.666992 -45 -3 -71 -7c-6.66699 -2 -11 -5 -13 -9s-3 -12.667 -3 -26v-284c-8.66699 -14.667 -22.667 -28.167 -42 -40.5s-41 -18.5 -65 -18.5
c-20 0 -40.167 6.5 -60.5 19.5s-30.5 42.5 -30.5 88.5v213c0 29.333 -1.16699 47.333 -3.5 54s-5.83301 10 -10.5 10c-9.33301 0 -21.833 -1.16699 -37.5 -3.5s-27.834 -4.83301 -36.501 -7.5l2.5 -43.5c1 -17 1.5 -40.5 1.5 -70.5v-172l-9 -315
c-0.666992 -16.667 0.833008 -28 4.5 -34s16.167 -10.333 37.5 -13c13.333 -0.666992 27 -0.666992 41 0z" />
    <glyph glyph-name="paragraph" unicode="&#xb6;" horiz-adv-x="496" 
d="M304 204l0.000976562 -47.9971c0 -68.667 -8.33301 -120 -25 -154s-46.667 -51 -90 -51c-38 0.666992 -71 13.334 -99 38.001c-2.66699 -2 -6.5 -7.66699 -11.5 -17s-6.83301 -17.333 -5.5 -24c0 -10 10.5 -21.333 31.5 -34s48.167 -19 81.5 -19
c26 0 49.167 4.16699 69.5 12.5s37.5 19.166 51.5 32.499c24 23.333 40.667 53.666 50 90.999s14 96.333 14 177v306c9.33301 0.666992 20 1.5 32 2.5s22.333 2.16699 31 3.5c10.667 13.333 20 27.666 28 42.999l-1 4h-49h-56h-54h-45c-60.667 0 -111.334 -18 -152.001 -54
s-61 -86 -61 -150c0 -52.667 16.333 -96.334 49 -131.001s71.667 -52 117 -52c10.667 0 22.667 2 36 6z" />
    <glyph glyph-name="middot" unicode="&#xb7;" horiz-adv-x="174" 
d="M90 296c-19.333 0 -33.835 -6 -43.502 -18s-14.5 -26 -14.5 -42c0 -20 5.83301 -34.333 17.5 -43s23.834 -13 36.501 -13c16.667 0 30.167 5.5 40.5 16.5s15.5 25.5 15.5 43.5c0 14 -4.66699 26.833 -14 38.5s-21.666 17.5 -36.999 17.5h-1z" />
    <glyph glyph-name="cedilla" unicode="&#xb8;" horiz-adv-x="401" 
d="M198 4l-62.999 -87.998v-13c19.333 1.33301 37 -1.16699 53 -7.5s24 -16.166 24 -29.499c0 -7.33301 -4.5 -15.833 -13.5 -25.5s-28.5 -18.5 -58.5 -26.5c-6.66699 -2.66699 -9.66699 -6.33398 -9 -11.001c0 -4 2.16699 -9.33301 6.5 -16s10.166 -11 17.499 -13
c28 3.33301 55.667 13.666 83 30.999s41 40 41 68c0 18 -5.66699 33.667 -17 47s-27 22.666 -47 27.999l39 56h-56z" />
    <glyph glyph-name="onesuperior" unicode="&#xb9;" 
d="M208 750c-12.667 -6 -33.501 -14.0029 -62.501 -24.0029s-53.5 -17.333 -73.5 -22l-15 -40l2 -3c7.33301 0.666992 20.833 2.83398 40.5 6.50098s34.167 7.16699 43.5 10.5c0 -24 -0.333008 -50 -1 -78s-1 -54.667 -1 -80s-0.166992 -47 -0.5 -65s-0.5 -28.667 -0.5 -32
l48 4c16 0.666992 23.667 6.33398 23 17.001c-0.666992 22.667 -1 50.167 -1 82.5s0.166992 63.833 0.5 94.5s0.833008 57.834 1.5 81.501s1.33398 38.5 2.00098 44.5z" />
    <glyph glyph-name="ordmasculine" unicode="&#xba;" horiz-adv-x="358" 
d="M181 572c-44 0 -81 -13.999 -111 -41.999s-45 -65 -45 -111c0 -36.667 12.667 -69.834 38 -99.501s63.333 -44.5 114 -44.5c44.667 0 81.667 13.5 111 40.5s44 63.833 44 110.5c0 42 -13.5 76.833 -40.5 104.5s-63.5 41.5 -109.5 41.5h-1zM177 524.001
c27.333 0 47.5 -10.001 60.5 -30.001s19.5 -43 19.5 -69c0 -35.333 -7.83301 -61.166 -23.5 -77.499s-33.5 -24.5 -53.5 -24.5c-18.667 0 -36.667 8 -54 24s-26 42 -26 78c0 30 7.33301 54 22 72s32.667 27 54 27h1z" />
    <glyph glyph-name="guillemotright" unicode="&#xbb;" horiz-adv-x="571" 
d="M155 393c0 -6.66699 4.16699 -18.1631 12.5 -34.4961s18.333 -33.5 30 -51.5l34 -51c11 -16 18.833 -27 23.5 -33l-24.5 -32.5l-35.5 -50c-12 -17.667 -22.667 -34.334 -32 -50.001s-14 -26.834 -14 -33.501c0 -10 3.66699 -19 11 -27s14 -13.333 20 -16
c24 37.333 50 73.166 78 107.499s56 65.166 84 92.499c0 8.66699 -3 17.334 -9 26.001c-54 55.333 -102 119.666 -144 192.999c-8 -2.66699 -15.667 -8 -23 -16s-11 -15.667 -11 -23v-1zM339 66.0039c0 -8 3.5 -16.002 10.5 -24.002s13.5 -13 19.5 -15
c22 34.667 46.333 68 73 100s53.334 61 80.001 87c0 8 -2.33301 16.333 -7 25c-25.333 24.667 -49.833 53 -73.5 85s-44.834 64 -63.501 96c-7.33301 -1.33301 -14.5 -5.66602 -21.5 -12.999s-10.167 -15.333 -9.5 -24c0 -8 3.66699 -19.667 11 -35s16 -31.166 26 -47.499
s20 -31.833 30 -46.5s17.333 -25 22 -31c-4.66699 -6 -12.5 -16.667 -23.5 -32l-33 -47.5c-11 -16.333 -20.5 -31.833 -28.5 -46.5s-12 -24.667 -12 -30v-1z" />
    <glyph glyph-name="onequarter" unicode="&#xbc;" horiz-adv-x="667" 
d="M201 602c-13.333 -6 -34.668 -14.0029 -64.001 -24.0029s-54 -17.333 -74 -22l-16 -38l3 -4c8 0.666992 21.5 2.66699 40.5 6s33.5 6.66602 43.5 9.99902c0 -23.333 -0.333008 -49.166 -1 -77.499s-1 -55.166 -1 -80.499v-65v-32l48 4
c16 0.666992 23.667 6.33398 23 17.001c-0.666992 22.667 -1 50.167 -1 82.5v94.5c0 30.667 0.333008 57.834 1 81.501s1.33398 38.5 2.00098 44.5zM528.998 590.997c-4 11.333 -11.333 20.6689 -22 28.002c-8.66699 8.66699 -16 8 -22 -2l-91.5 -151.5l-100 -166
l-98 -161.5l-84.5 -138c3.33301 -10.667 11.333 -20.667 24 -30c3.33301 -2.66699 6.5 -3.83398 9.5 -3.50098s6.83301 4.16602 11.5 11.499l213.5 348.5zM575.998 337c-13.333 -2 -29.166 -6.33105 -47.499 -12.998s-30.166 -12.667 -35.499 -18
c-9.33301 -8.66699 -20.833 -21 -34.5 -37l-42 -51.5l-42 -56c-13.667 -19 -24.834 -35.833 -33.501 -50.5c0 -2.66699 2.5 -8 7.5 -16s8.83301 -13 11.5 -15c12 -2.66699 31 -4.5 57 -5.5s53.667 -1.5 83 -1.5c0 -12 -0.333008 -25.167 -1 -39.5
s-1.33398 -26.5 -2.00098 -36.5l5 -4c8 1.33301 29.667 4.66602 65 9.99902v37.5v34.5c6 0.666992 14.333 2.66699 25 6c4 4 8 10.167 12 18.5s7 15.833 9 22.5l-1 2c-18.667 -2.66699 -33.667 -4 -45 -4v91h-4c-9.33301 -1.33301 -20.833 -4.33301 -34.5 -9
s-22.5 -8.33398 -26.5 -11.001l-2 -72c-42 0 -73.667 1 -95 3c24 38 51.333 75.167 82 111.5s61 69.5 91 99.5z" />
    <glyph glyph-name="onehalf" unicode="&#xbd;" horiz-adv-x="667" 
d="M198 602c-13.333 -6 -34.6689 -14.0049 -64.002 -24.0049s-54 -17.333 -74 -22l-16 -41l2 -2c8 0.666992 21.667 2.83398 41 6.50098s34 7.16699 44 10.5c0 -23.333 -0.333008 -49.166 -1 -77.499s-1 -55.166 -1 -80.499v-65v-32l48 4
c16.667 0.666992 24.334 6.33398 23.001 17.001c-0.666992 22.667 -1 50.167 -1 82.5v94.5c0 30.667 0.333008 57.834 1 81.501s1.33398 38.5 2.00098 44.5zM513.997 590.995c-2.66699 11.333 -9.66797 20.6689 -21.001 28.002c-9.33301 8.66699 -16.666 8 -21.999 -2
l-91.5 -151.5l-100 -166l-98 -161.5l-84.5 -138c3.33301 -10.667 11.333 -20.667 24 -30c4 -2.66699 7.5 -3.83398 10.5 -3.50098s6.83301 4.16602 11.5 11.499l212.5 348zM493.996 319.998c-21.333 0 -40.999 -4.33203 -58.999 -12.999s-32.667 -18.667 -44 -30
c-4 -6 -6.83301 -13.333 -8.5 -22s-1.83398 -16.667 -0.500977 -24l3 -3c10.667 10 24 18.5 40 25.5s31 10.5 45 10.5c16 0 29.333 -4.66699 40 -14s16 -23 16 -41c0 -29.333 -14.333 -58 -43 -86s-58 -54.667 -88 -80c-6 -11.333 -12 -23.333 -18 -36l2 -4
c12.667 -2.66699 31.5 -4.33398 56.5 -5.00098s49.833 -1 74.5 -1c22 0 39.833 0.5 53.5 1.5s24.5 2.83301 32.5 5.5c8 4 14.5 11.167 19.5 21.5s8.16699 19.5 9.5 27.5c-33.333 -2.66699 -61.833 -4 -85.5 -4s-45.5 0.666992 -65.5 2l40 33c14.667 12 28.5 25 41.5 39
s24 29 33 45s13.5 33 13.5 51c0 30.667 -9.66699 55.167 -29 73.5s-45.333 27.5 -78 27.5h-1z" />
    <glyph glyph-name="threequarters" unicode="&#xbe;" horiz-adv-x="667" 
d="M158 601c-22 0 -41.3291 -4.33203 -57.9961 -12.999s-28 -16 -34 -22c-6.66699 -6.66699 -10.334 -13.667 -11.001 -21c0 -4 1 -8.33301 3 -13s4.66699 -8.33398 8 -11.001c9.33301 8 20.666 15.167 33.999 21.5s26 9.5 38 9.5c13.333 0 24.666 -3.83301 33.999 -11.5
s14 -18.167 14 -31.5c0 -18.667 -7.5 -32.334 -22.5 -41.001s-34.5 -14.667 -58.5 -18c-4 -6 -7.33301 -12.5 -10 -19.5s-5 -12.5 -7 -16.5l2 -4c16 2.66699 30.333 4 43 4c20 0 36.5 -4 49.5 -12s19.5 -21 19.5 -39s-7.33301 -33 -22 -45s-37.334 -18 -68.001 -18
c-12 0 -24.333 1.33301 -37 4s-22 5.33398 -28 8.00098l-2 -3c0.666992 -18 5.66699 -31.333 15 -40c4 -3.33301 11 -6.66602 21 -9.99902s25 -5 45 -5c38 0 72.5 10 103.5 30s46.5 47.667 46.5 83c0 23.333 -6.5 41.5 -19.5 54.5s-31.167 22.167 -54.5 27.5
c14 8 26 17.667 36 29s15 26.333 15 45c0 23.333 -8.83301 42.166 -26.5 56.499s-40.167 21.5 -67.5 21.5h-1zM554.004 591.001c-4 12 -11.333 21.335 -22 28.002c-8.66699 8.66699 -15.667 8 -21 -2l-91.5 -151.5l-100.5 -166l-98.5 -161.5l-84.5 -138
c3.33301 -10.667 11.333 -20.667 24 -30c4 -2.66699 7.5 -3.83398 10.5 -3.50098s6.83301 4.16602 11.5 11.499l213 348.5zM588.004 337.003c-12 -2 -27.668 -6.33008 -47.001 -12.9971s-31.666 -12.667 -36.999 -18c-9.33301 -8.66699 -20.833 -21 -34.5 -37l-42 -51.5
c-14.333 -18.333 -28.166 -37 -41.499 -56s-24.333 -35.833 -33 -50.5c0 -2.66699 2.5 -8 7.5 -16s8.83301 -13 11.5 -15c12 -2.66699 30.833 -4.5 56.5 -5.5s53.167 -1.5 82.5 -1.5c0 -12 -0.333008 -25.333 -1 -40s-1.33398 -26.334 -2.00098 -35.001l6 -4
c8 0 29.333 3 64 9v37.5v34.5c6 0.666992 14.333 2.66699 25 6c4 4 8 10.167 12 18.5s7 15.5 9 21.5l-1 3c-18.667 -2.66699 -33.667 -4 -45 -4v90h-3c-10 -0.666992 -21.833 -3.33398 -35.5 -8.00098s-22.5 -8.33398 -26.5 -11.001l-2 -72c-41.333 0 -72.333 1 -93 3
c24 37.333 51.167 74.333 81.5 111s60.5 70 90.5 100z" />
    <glyph glyph-name="questiondown" unicode="&#xbf;" horiz-adv-x="328" 
d="M169 340c18 0 32.332 5.16699 42.999 15.5s16 23.833 16 40.5c0 18 -5.83301 31.5 -17.5 40.5s-23.167 13.5 -34.5 13.5c-17.333 0 -31.166 -5.33301 -41.499 -16s-15.5 -24 -15.5 -40c0 -14 4.5 -26.5 13.5 -37.5s20.833 -16.5 35.5 -16.5h1zM164.999 -169
c21.333 0 43.667 4.33301 67 13s44 22 62 40c2 9.33301 1.66699 18.5 -1 27.5s-7.66699 15.5 -15 19.5h-5c-11.333 -8 -25 -15.167 -41 -21.5s-31.667 -9.5 -47 -9.5c-20 0 -35.667 5.66699 -47 17s-17 26.333 -17 45c0 20 6.16699 39 18.5 57l36.5 51
c33.333 41.333 50 80 50 116c0 24 -5.5 41.667 -16.5 53s-21.5 17 -31.5 17c-6 0 -12.167 -1.16699 -18.5 -3.5s-10.833 -5.16602 -13.5 -8.49902c6.66699 -13.333 10 -29 10 -47c0 -12 -4.16699 -27 -12.5 -45s-22.5 -38.667 -42.5 -62
c-18.667 -22.667 -34.167 -44.834 -46.5 -66.501s-18.5 -44.5 -18.5 -68.5c0 -35.333 11.333 -64.833 34 -88.5s54 -35.5 94 -35.5h1z" />
    <glyph glyph-name="Agrave" unicode="&#xc0;" horiz-adv-x="625" 
d="M430 195l40.001 -96.001l32 -75c4.66699 -12 9.16699 -20 13.5 -24s9.83301 -6 16.5 -6c8 0 20 1 36 3s29.333 4.66699 40 8v4c-9.33301 18 -20.666 42.667 -33.999 74l-50 118l-38 86.5l-47 112.5l-47.5 115.5l-40.5 96.5c-3.33301 10.667 -11 16.334 -23 17.001
c-6 0 -16.167 -1.16699 -30.5 -3.5s-26.833 -4.5 -37.5 -6.5l12 -28l-47 -107l-73.5 -167l-77.5 -175.5l-59 -130.5v-5c7.33301 -4 17.166 -7 29.499 -9s22.5 -3 30.5 -3c11.333 0 18.666 4 21.999 12l34 77l49 112h250zM202.001 255.999l54 132l51 123l103 -255h-208z
M225.001 803.999c-8.66699 0 -17.5 -5 -26.5 -15s-15.167 -19.667 -18.5 -29c-4 -8 -2.33301 -12.667 5 -14c28.667 -10 58.667 -22.333 90 -37l77 -37c4 4 9.33301 10.667 16 20c8 10.667 7 19 -3 25c-9.33301 8 -21 16.833 -35 26.5l-42 28c-14 9 -26.833 16.667 -38.5 23
s-19.5 9.5 -23.5 9.5h-1z" />
    <glyph glyph-name="Aacute" unicode="&#xc1;" horiz-adv-x="625" 
d="M430 195l40.001 -96.001l32 -75c4.66699 -12 9.16699 -20 13.5 -24s9.83301 -6 16.5 -6c8 0 20 1 36 3s29.333 4.66699 40 8v4c-9.33301 18 -20.666 42.667 -33.999 74l-50 118l-38 86.5l-47 112.5l-47.5 115.5l-40.5 96.5c-3.33301 10.667 -11 16.334 -23 17.001
c-6 0 -16.167 -1.16699 -30.5 -3.5s-26.833 -4.5 -37.5 -6.5l12 -28l-47 -107l-73.5 -167l-77.5 -175.5l-59 -130.5v-5c7.33301 -4 17.166 -7 29.499 -9s22.5 -3 30.5 -3c11.333 0 18.666 4 21.999 12l34 77l49 112h250zM202.001 255.999l54 132l51 123l103 -255h-208z
M421.001 792.999c-6.66699 -0.666992 -16.8301 -4.16699 -30.4971 -10.5s-28.334 -13.5 -44.001 -21.5s-30.834 -16.667 -45.501 -26s-26.667 -17.333 -36 -24c-10 -6 -12.333 -14.333 -7 -25c4 -8 9 -14.667 15 -20l77.5 28c32.333 12 64.5 22.667 96.5 32
c10.667 2.66699 15 8.66699 13 18c-2 8 -6.83301 17.5 -14.5 28.5s-15.834 17.833 -24.501 20.5z" />
    <glyph glyph-name="Acircumflex" unicode="&#xc2;" horiz-adv-x="625" 
d="M430 195l40.001 -96.001l32 -75c4.66699 -12 9.16699 -20 13.5 -24s9.83301 -6 16.5 -6c8 0 20 1 36 3s29.333 4.66699 40 8v4c-9.33301 18 -20.666 42.667 -33.999 74l-50 118l-38 86.5l-47 112.5l-47.5 115.5l-40.5 96.5c-3.33301 10.667 -11 16.334 -23 17.001
c-6 0 -16.167 -1.16699 -30.5 -3.5s-26.833 -4.5 -37.5 -6.5l12 -28l-47 -107l-73.5 -167l-77.5 -175.5l-59 -130.5v-5c7.33301 -4 17.166 -7 29.499 -9s22.5 -3 30.5 -3c11.333 0 18.666 4 21.999 12l34 77l49 112h250zM202.001 255.999l54 132l51 123l103 -255h-208z
M230.001 664.999c8 0.666992 14.6699 3.00098 20.0029 7.00098c10 6.66699 20.833 15.167 32.5 25.5s23.167 21.166 34.5 32.499c14.667 -14 28.167 -26.333 40.5 -37s21.833 -18 28.5 -22c6 -4 13.667 -6 23 -6c6 0 13.167 2.66699 21.5 8s14.166 11 17.499 17
c-42.667 33.333 -81 70 -115 110c-8 0 -17 -1 -27 -3c-6.66699 -3.33301 -12 -7 -16 -11c-30.667 -37.333 -64.667 -70 -102 -98c3.33301 -5.33301 9.16602 -10.5 17.499 -15.5s16.166 -7.5 23.499 -7.5h1z" />
    <glyph glyph-name="Atilde" unicode="&#xc3;" horiz-adv-x="625" 
d="M430 195l40.001 -96.001l32 -75c4.66699 -12 9.16699 -20 13.5 -24s9.83301 -6 16.5 -6c8 0 20 1 36 3s29.333 4.66699 40 8v4c-9.33301 18 -20.666 42.667 -33.999 74l-50 118l-38 86.5l-47 112.5l-47.5 115.5l-40.5 96.5c-3.33301 10.667 -11 16.334 -23 17.001
c-6 0 -16.167 -1.16699 -30.5 -3.5s-26.833 -4.5 -37.5 -6.5l12 -28l-47 -107l-73.5 -167l-77.5 -175.5l-59 -130.5v-5c7.33301 -4 17.166 -7 29.499 -9s22.5 -3 30.5 -3c11.333 0 18.666 4 21.999 12l34 77l49 112h250zM202.001 255.999l54 132l51 123l103 -255h-208z
M273.001 790.999c-28 0 -47.502 -12.001 -58.502 -36.001s-17.833 -48.333 -20.5 -73c4 -2 10 -4 18 -6s15 -3 21 -3c5.33301 0.666992 8.33301 4.33398 9 11.001c6.66699 30.667 16 46.667 28 48c4.66699 0 9.16699 -1.83301 13.5 -5.5s9.83301 -9.16699 16.5 -16.5
c9.33301 -12 18.5 -21.833 27.5 -29.5s19.5 -11.5 31.5 -11.5c42 0.666992 66 36.334 72 107.001c-5.33301 4 -11.666 7.33301 -18.999 10s-13 4 -17 4c-6 0 -9.66699 -3.33301 -11 -10c-4 -18.667 -8 -31.667 -12 -39s-8.33301 -11 -13 -11
c-6.66699 1.33301 -16 9.66602 -28 24.999c-8 10 -16.667 18.5 -26 25.5s-19.666 10.5 -30.999 10.5h-1z" />
    <glyph glyph-name="Adieresis" unicode="&#xc4;" horiz-adv-x="625" 
d="M430 195l40.001 -96.001l32 -75c4.66699 -12 9.16699 -20 13.5 -24s9.83301 -6 16.5 -6c8 0 20 1 36 3s29.333 4.66699 40 8v4c-9.33301 18 -20.666 42.667 -33.999 74l-50 118l-38 86.5l-47 112.5l-47.5 115.5l-40.5 96.5c-3.33301 10.667 -11 16.334 -23 17.001
c-6 0 -16.167 -1.16699 -30.5 -3.5s-26.833 -4.5 -37.5 -6.5l12 -28l-47 -107l-73.5 -167l-77.5 -175.5l-59 -130.5v-5c7.33301 -4 17.166 -7 29.499 -9s22.5 -3 30.5 -3c11.333 0 18.666 4 21.999 12l34 77l49 112h250zM202.001 255.999l54 132l51 123l103 -255h-208z
M222.001 764.999c-16 0 -28.167 -4.83301 -36.5 -14.5s-12.5 -21.5 -12.5 -35.5c0 -16 4.66699 -27.833 14 -35.5s20 -11.5 32 -11.5c14 0 25.333 4.33301 34 13s13 21 13 37c0 12.667 -4.16699 23.667 -12.5 33s-18.5 14 -30.5 14h-1zM412.001 764.999
c-16 0 -28.168 -4.83398 -36.501 -14.501s-12.5 -21.5 -12.5 -35.5c0 -16 4.83301 -27.833 14.5 -35.5s19.834 -11.5 30.501 -11.5c30.667 0.666992 46.667 17.334 48 50.001c0 12.667 -4.16699 23.667 -12.5 33s-18.5 14 -30.5 14h-1z" />
    <glyph glyph-name="Aring" unicode="&#xc5;" horiz-adv-x="625" 
d="M430 195l40.001 -96.001l32 -75c4.66699 -12 9.16699 -20 13.5 -24s9.83301 -6 16.5 -6c8 0 20 1 36 3s29.333 4.66699 40 8v4c-9.33301 18 -20.666 42.667 -33.999 74l-50 118l-38 86.5l-47 112.5l-47.5 115.5l-40.5 96.5c-3.33301 10.667 -11 16.334 -23 17.001
c-6 0 -16.167 -1.16699 -30.5 -3.5s-26.833 -4.5 -37.5 -6.5l12 -28l-47 -107l-73.5 -167l-77.5 -175.5l-59 -130.5v-5c7.33301 -4 17.166 -7 29.499 -9s22.5 -3 30.5 -3c11.333 0 18.666 4 21.999 12l34 77l49 112h250zM202.001 255.999l54 132l51 123l103 -255h-208z
M318.001 837.999c-29.333 0 -52.001 -8.99902 -68.001 -26.999s-24 -39 -24 -63c0 -26.667 8.66699 -47.334 26 -62.001s37 -22 59 -22c27.333 0 49.5 8.16699 66.5 24.5s25.5 37.833 25.5 64.5c0 24 -8.16699 44.167 -24.5 60.5s-36.166 24.5 -59.499 24.5h-1zM314 797
c14 0 24.167 -4.66699 30.5 -14s9.5 -20.333 9.5 -33c0 -12 -3.16699 -22.5 -9.5 -31.5s-16.166 -13.5 -29.499 -13.5c-10.667 0 -19.834 4.16699 -27.501 12.5s-11.5 19.5 -11.5 33.5c0 10.667 3.16699 21 9.5 31s15.5 15 27.5 15h1z" />
    <glyph glyph-name="AE" unicode="&#xc6;" horiz-adv-x="786" 
d="M412 253l10.002 -228.999l15 -20c24 -6 84.667 -9.33301 182 -10c30.667 0 54.667 0.5 72 1.5s29.333 1.83301 36 2.5c26 9.33301 42 29 48 59l-1 2c-14.667 -2 -35.334 -3.33301 -62.001 -4s-52 -1 -76 -1c-26 0 -50.5 0.5 -73.5 1.5s-40.5 2.83301 -52.5 5.5l-12 190
h171c14.667 0 26 3.83301 34 11.5s15 23.5 21 47.5h-229l-14 255h178c30 0 49 3.33301 57 10c10.667 10 17.667 26.667 21 50h-151.5h-175.5c-14.667 -1.33301 -28.834 -3 -42.501 -5l-33.5 -5l-5.5 -14.5c-1.66699 -4.33301 -4.16699 -9.5 -7.5 -15.5l-68.5 -123.5
l-90 -167.5l-88 -165l-62.5 -117l1 -7c6 -4 13.5 -7.83301 22.5 -11.5s19.5 -5.5 31.5 -5.5c9.33301 1.33301 16 6.66602 20 15.999l42.5 80l88.5 169h194zM410.002 310.001h-165l54 104.5l69 129.5c10 16 20 23.667 30 23z" />
    <glyph glyph-name="Ccedilla" unicode="&#xc7;" horiz-adv-x="585" 
d="M288 -85v-12c19.333 0.666992 37 -2 53 -8s24 -16 24 -30c0 -7.33301 -5 -15.5 -15 -24.5s-29 -17.5 -57 -25.5c-7.33301 -3.33301 -10.333 -7 -9 -11c0 -4 2.16699 -9.66699 6.5 -17s9.83301 -12 16.5 -14c28 3.33301 55.833 13.833 83.5 31.5s41.5 40.5 41.5 68.5
c0 18 -5.66699 33.5 -17 46.5s-27 22.5 -47 28.5l26 37c30.667 1.33301 57.5 5 80.5 11s39.5 12.667 49.5 20c15.333 14.667 25.333 36 30 64l-3 2c-12 -6 -32.5 -12.667 -61.5 -20s-59.5 -11 -91.5 -11c-88 0 -154.167 25.5 -198.5 76.5s-66.5 113.167 -66.5 186.5
c0 85.333 24.5 150.333 73.5 195s107.167 67 174.5 67c23.333 0 47 -2.66699 71 -8s43.333 -12 58 -20c13.333 -6.66699 25.333 -5.66699 36 3s17 21.334 19 38.001c-9.33301 10 -30 21.167 -62 33.5s-71 18.5 -117 18.5c-49.333 0 -95.166 -7.83301 -137.499 -23.5
s-79.333 -38 -111 -67s-56.334 -64 -74.001 -105s-26.5 -86.833 -26.5 -137.5c0 -92.667 25.833 -167.334 77.5 -224.001s126.5 -89 224.5 -97z" />
    <glyph glyph-name="Egrave" unicode="&#xc8;" horiz-adv-x="449" 
d="M75 23l14.002 -18.999c12 -2.66699 34.333 -5 67 -7s69.667 -3 111 -3c35.333 0 62.666 0.5 81.999 1.5s32.333 1.83301 39 2.5c23.333 9.33301 38.666 29.333 45.999 60l-1 2c-20 -2 -44.333 -3.33301 -73 -4s-54 -1 -76 -1c-24 0 -47.667 0.5 -71 1.5
s-40 3.16699 -50 6.5v228h171c16 0 29.167 3.33301 39.5 10s17.833 23.667 22.5 51h-233v212h138c22 0 39 0.166992 51 0.5s21.333 2.5 28 6.5c12.667 10 20.667 28 24 54h-130.5h-123.5c-14 -1.33301 -28 -3.33301 -42 -6s-26 -5.33398 -36 -8.00098
c2.66699 -36.667 3.66699 -78.667 3 -126v-462zM153.002 798.001c-8.66699 0 -17.5 -5 -26.5 -15s-15.167 -19.667 -18.5 -29c-4 -8 -2.33301 -12.667 5 -14c28.667 -10 58.667 -22.333 90 -37l77 -37c4 4 9.33301 10.667 16 20c8 10.667 7 19 -3 25
c-9.33301 8 -21 16.833 -35 26.5l-42 28c-14 9 -26.833 16.667 -38.5 23s-19.5 9.5 -23.5 9.5h-1z" />
    <glyph glyph-name="Eacute" unicode="&#xc9;" horiz-adv-x="449" 
d="M75 23l14.002 -18.999c12 -2.66699 34.333 -5 67 -7s69.667 -3 111 -3c35.333 0 62.666 0.5 81.999 1.5s32.333 1.83301 39 2.5c23.333 9.33301 38.666 29.333 45.999 60l-1 2c-20 -2 -44.333 -3.33301 -73 -4s-54 -1 -76 -1c-24 0 -47.667 0.5 -71 1.5
s-40 3.16699 -50 6.5v228h171c16 0 29.167 3.33301 39.5 10s17.833 23.667 22.5 51h-233v212h138c22 0 39 0.166992 51 0.5s21.333 2.5 28 6.5c12.667 10 20.667 28 24 54h-130.5h-123.5c-14 -1.33301 -28 -3.33301 -42 -6s-26 -5.33398 -36 -8.00098
c2.66699 -36.667 3.66699 -78.667 3 -126v-462zM344.002 793.001c-6.66699 -0.666992 -16.8301 -4.16699 -30.4971 -10.5s-28.334 -13.5 -44.001 -21.5s-30.834 -16.667 -45.501 -26s-26.667 -17.333 -36 -24c-10.667 -6 -13 -14.333 -7 -25c4 -8 9 -14.667 15 -20l77.5 28
c32.333 12 64.5 22.667 96.5 32c10.667 2.66699 15 8.66699 13 18c-2 8 -6.83301 17.5 -14.5 28.5s-15.834 17.833 -24.501 20.5z" />
    <glyph glyph-name="Ecircumflex" unicode="&#xca;" horiz-adv-x="449" 
d="M75 23l14.002 -18.999c12 -2.66699 34.333 -5 67 -7s69.667 -3 111 -3c35.333 0 62.666 0.5 81.999 1.5s32.333 1.83301 39 2.5c23.333 9.33301 38.666 29.333 45.999 60l-1 2c-20 -2 -44.333 -3.33301 -73 -4s-54 -1 -76 -1c-24 0 -47.667 0.5 -71 1.5
s-40 3.16699 -50 6.5v228h171c16 0 29.167 3.33301 39.5 10s17.833 23.667 22.5 51h-233v212h138c22 0 39 0.166992 51 0.5s21.333 2.5 28 6.5c12.667 10 20.667 28 24 54h-130.5h-123.5c-14 -1.33301 -28 -3.33301 -42 -6s-26 -5.33398 -36 -8.00098
c2.66699 -36.667 3.66699 -78.667 3 -126v-462zM157.002 670.001c7.33301 1.33301 14.0029 3.66895 20.0029 7.00195c10 6.66699 20.833 15.167 32.5 25.5s23.167 21.166 34.5 32.499c14.667 -14 28.167 -26.333 40.5 -37s21.833 -18 28.5 -22c6 -4 13.667 -6 23 -6
c6 0 13.167 2.66699 21.5 8s14.166 11 17.499 17c-42.667 34 -81 70.667 -115 110c-8 0.666992 -17 -0.333008 -27 -3c-6 -2.66699 -11.333 -6.33398 -16 -11.001c-30 -38 -64 -70.667 -102 -98c3.33301 -5.33301 9.16602 -10.5 17.499 -15.5s16.166 -7.5 23.499 -7.5h1z
" />
    <glyph glyph-name="Edieresis" unicode="&#xcb;" horiz-adv-x="449" 
d="M75 23l14.002 -18.999c12 -2.66699 34.333 -5 67 -7s69.667 -3 111 -3c35.333 0 62.666 0.5 81.999 1.5s32.333 1.83301 39 2.5c23.333 9.33301 38.666 29.333 45.999 60l-1 2c-20 -2 -44.333 -3.33301 -73 -4s-54 -1 -76 -1c-24 0 -47.667 0.5 -71 1.5
s-40 3.16699 -50 6.5v228h171c16 0 29.167 3.33301 39.5 10s17.833 23.667 22.5 51h-233v212h138c22 0 39 0.166992 51 0.5s21.333 2.5 28 6.5c12.667 10 20.667 28 24 54h-130.5h-123.5c-14 -1.33301 -28 -3.33301 -42 -6s-26 -5.33398 -36 -8.00098
c2.66699 -36.667 3.66699 -78.667 3 -126v-462zM147.002 772.001c-16 0 -28.167 -4.83301 -36.5 -14.5s-12.5 -21.5 -12.5 -35.5c0 -16 4.66699 -27.833 14 -35.5s20 -11.5 32 -11.5c14 0 25.333 4.33301 34 13s13 21 13 37c0 12.667 -4.16699 23.667 -12.5 33
s-18.5 14 -30.5 14h-1zM337.002 772.001c-16 0 -28.168 -4.83398 -36.501 -14.501s-12.5 -21.5 -12.5 -35.5c0 -16 4.83301 -27.833 14.5 -35.5s19.834 -11.5 30.501 -11.5c30.667 0.666992 46.667 17.334 48 50.001c0 12.667 -4.16699 23.667 -12.5 33s-18.5 14 -30.5 14
h-1z" />
    <glyph glyph-name="Igrave" unicode="&#xcc;" horiz-adv-x="238" 
d="M76 13c0 -8 1.16895 -13.166 3.50195 -15.499s6.5 -3.5 12.5 -3.5c8 0 20.5 0.833008 37.5 2.5s29.5 3.5 37.5 5.5c-0.666992 10 -1.33398 24.167 -2.00098 42.5s-1 45.166 -1 80.499v452c0 22 -1 36.167 -3 42.5s-6.33301 9.5 -13 9.5c-8.66699 0 -21.834 -1 -39.501 -3
s-29.5 -3.66699 -35.5 -5c2 -18 3 -60.333 3 -127v-481zM40.002 798.001c-8.66699 0 -17.333 -5 -26 -15s-15 -19.667 -19 -29c-4 -8 -2.33301 -12.667 5 -14c28.667 -10 58.667 -22.333 90 -37l77 -37c4 4 9.33301 10.667 16 20c8 10.667 7 19 -3 25
c-9.33301 8 -21 16.833 -35 26.5l-42 28c-14 9 -26.833 16.667 -38.5 23s-19.5 9.5 -23.5 9.5h-1z" />
    <glyph glyph-name="Iacute" unicode="&#xcd;" horiz-adv-x="238" 
d="M77 13c0 -8 1.16895 -13.166 3.50195 -15.499s6.5 -3.5 12.5 -3.5c8 0 20.5 0.833008 37.5 2.5s29.5 3.5 37.5 5.5c-0.666992 10 -1.33398 24.167 -2.00098 42.5s-1 45.166 -1 80.499v452c0 22 -1 36.167 -3 42.5s-6.33301 9.5 -13 9.5c-8.66699 0 -21.834 -1 -39.501 -3
s-29.5 -3.66699 -35.5 -5c2 -18 3 -60.333 3 -127v-481zM217.002 793.001c-6.66699 -0.666992 -16.8301 -4.16699 -30.4971 -10.5s-28.334 -13.5 -44.001 -21.5s-30.834 -16.667 -45.501 -26s-26.667 -17.333 -36 -24c-10 -6 -12.333 -14.333 -7 -25c4 -8 9 -14.667 15 -20
l77.5 28c32.333 12 64.5 22.667 96.5 32c10.667 2.66699 15 8.66699 13 18c-2 8 -6.83301 17.5 -14.5 28.5s-15.834 17.833 -24.501 20.5z" />
    <glyph glyph-name="Icircumflex" unicode="&#xce;" horiz-adv-x="238" 
d="M75 13c0 -8 1.16895 -13.166 3.50195 -15.499s6.5 -3.5 12.5 -3.5c8 0 20.5 0.833008 37.5 2.5s29.5 3.5 37.5 5.5c-0.666992 10 -1.33398 24.167 -2.00098 42.5s-1 45.166 -1 80.499v452c0 22 -1 36.167 -3 42.5s-6.33301 9.5 -13 9.5c-8.66699 0 -21.834 -1 -39.501 -3
s-29.5 -3.66699 -35.5 -5c2 -18 3 -60.333 3 -127v-481zM32.002 664.001c8 1.33301 14.668 3.66895 20.001 7.00195c10 6.66699 20.833 15.167 32.5 25.5s23.167 21.166 34.5 32.499c14.667 -14 28.167 -26.333 40.5 -37s21.833 -18 28.5 -22c6 -4 13.667 -6 23 -6
c6 0 13.167 2.66699 21.5 8s14.166 11 17.499 17c-42.667 34 -81 70.667 -115 110c-8 0.666992 -17 -0.333008 -27 -3c-6.66699 -2.66699 -12 -6.33398 -16 -11.001c-30.667 -38 -64.667 -70.667 -102 -98c4 -5.33301 10 -10.5 18 -15.5s15.667 -7.5 23 -7.5h1z" />
    <glyph glyph-name="Idieresis" unicode="&#xcf;" horiz-adv-x="238" 
d="M75 13c0 -8 1.16895 -13.166 3.50195 -15.499s6.5 -3.5 12.5 -3.5c8 0 20.5 0.833008 37.5 2.5s29.5 3.5 37.5 5.5c-0.666992 10 -1.33398 24.167 -2.00098 42.5s-1 45.166 -1 80.499v452c0 22 -1 36.167 -3 42.5s-6.33301 9.5 -13 9.5c-8.66699 0 -21.834 -1 -39.501 -3
s-29.5 -3.66699 -35.5 -5c2 -18 3 -60.333 3 -127v-481zM27.002 766.001c-16 0 -28.167 -4.83301 -36.5 -14.5s-12.5 -21.5 -12.5 -35.5c0 -16 4.66699 -27.833 14 -35.5s20 -11.5 32 -11.5c14 0 25.333 4.33301 34 13s13 21 13 37c0 12.667 -4.16699 23.667 -12.5 33
s-18.5 14 -30.5 14h-1zM217.002 766.001c-16 0 -28.168 -4.83398 -36.501 -14.501s-12.5 -21.5 -12.5 -35.5c0 -16 4.83301 -27.833 14.5 -35.5s19.834 -11.5 30.501 -11.5c30.667 0.666992 46.667 17.334 48 50.001c0 12.667 -4.16699 23.667 -12.5 33s-18.5 14 -30.5 14
h-1z" />
    <glyph glyph-name="Eth" unicode="&#xd0;" horiz-adv-x="663" 
d="M85 616c0.666992 -16 1.16699 -31.5029 1.5 -46.5029s0.5 -39.5 0.5 -73.5v-145h-39c-11.333 0 -21.666 -3.16699 -30.999 -9.5s-15 -22.166 -17 -47.499h87v-281c35.333 -8 65.333 -13.833 90 -17.5s56.667 -5.5 96 -5.5c27.333 0 64.833 4.5 112.5 13.5
s92.5 31.167 134.5 66.5c42 36 70.833 75.333 86.5 118s23.5 87.334 23.5 134.001c0 30.667 -4.33301 64 -13 100s-26 69.5 -52 100.5s-62.5 57 -109.5 78s-109.5 31.5 -187.5 31.5c-46.667 -1.33301 -82.334 -3.66602 -107.001 -6.99902zM175 566.997
c31.333 4.66699 60.332 7.00195 86.999 7.00195c92.667 0 161.167 -23.667 205.5 -71s66.5 -109 66.5 -185c0 -50.667 -7.83301 -93.334 -23.5 -128.001s-35.667 -62.667 -60 -84s-51.833 -36.5 -82.5 -45.5s-61.334 -13.5 -92.001 -13.5
c-37.333 -0.666992 -71 3.66602 -101 12.999v234h113c16.667 0 30.834 3 42.501 9s19.834 22 24.501 48h-180v216z" />
    <glyph glyph-name="Ntilde" unicode="&#xd1;" horiz-adv-x="662" 
d="M81 583v-407c0 -82.667 -1 -143.334 -3 -182.001c18.667 0 36.667 1.33301 54 4c6.66699 1.33301 11.667 3.66602 15 6.99902s5 11 5 23v258c0 25.333 -0.333008 54 -1 86s-2 78 -4 138c19.333 -32.667 38.166 -63 56.499 -91l54.5 -83l132 -183.5l116 -157.5
c5.33301 -5.33301 11 -8 17 -8c8.66699 0 20 2 34 6s23 7 27 9v443c0 81.333 1 142.666 3 183.999c-10 0 -18 -0.333008 -24 -1s-16.333 -1.66699 -31 -3c-6 -1.33301 -10.667 -3.66602 -14 -6.99902s-5 -10.666 -5 -21.999v-278v-86.5c0 -32.333 1.66699 -73.5 5 -123.5
c-14 24.667 -31.5 52.167 -52.5 82.5l-69.5 99.5l-75.5 101.5l-67.5 94l-55 76.5l-36 50c-9.33301 10.667 -17.666 16.334 -24.999 17.001c-8 0 -22 -1 -42 -3s-33 -3.66699 -39 -5v-4zM297 780c-28 0 -47.502 -12 -58.502 -36s-17.833 -48.333 -20.5 -73c4 -2 10 -4 18 -6
s15 -3 21 -3c5.33301 0.666992 8.33301 4.33398 9 11.001c6.66699 30.667 16 46.667 28 48c4.66699 0 9.16699 -1.83301 13.5 -5.5s9.83301 -9.16699 16.5 -16.5c9.33301 -12 18.5 -21.833 27.5 -29.5s19.5 -11.5 31.5 -11.5c42 1.33301 66 37 72 107
c-5.33301 4 -11.666 7.33301 -18.999 10s-13 4 -17 4c-6 0 -9.66699 -3.33301 -11 -10c-4 -18.667 -8 -31.667 -12 -39s-8.33301 -11 -13 -11c-6.66699 1.33301 -16 9.66602 -28 24.999c-8 10 -16.667 18.5 -26 25.5s-19.666 10.5 -30.999 10.5h-1z" />
    <glyph glyph-name="Ograve" unicode="&#xd2;" horiz-adv-x="712" 
d="M357 641c-50 0 -94.834 -8.66699 -134.501 -26s-73.334 -41 -101.001 -71s-48.667 -65.5 -63 -106.5s-21.5 -85.167 -21.5 -132.5c0 -35.333 5.66699 -71.833 17 -109.5s29.833 -72.167 55.5 -103.5s58.834 -57 99.501 -77s90 -30 148 -30
c52.667 0 98.834 9.16699 138.501 27.5s72.667 42.833 99 73.5s46.333 66.167 60 106.5s20.5 82.5 20.5 126.5c0 44.667 -7.5 86.5 -22.5 125.5s-36.5 73 -64.5 102s-61.333 52 -100 69s-82 25.5 -130 25.5h-1zM349.999 584c68.667 0 124.169 -25.832 166.502 -77.499
s63.5 -115.834 63.5 -192.501c0 -90 -20.333 -157.833 -61 -203.5s-92.667 -68.5 -156 -68.5c-29.333 0 -57.833 5.83301 -85.5 17.5s-52.334 29 -74.001 52s-38.834 51.5 -51.501 85.5s-19 73 -19 117c0 86 20.5 152.5 61.5 199.5s92.5 70.5 154.5 70.5h1zM286.001 810.001
c-8.66699 0 -17.5 -5 -26.5 -15s-15.167 -19.667 -18.5 -29c-4.66699 -8 -3 -12.667 5 -14c28.667 -10 58.667 -22.333 90 -37l77 -37c4 4 9.33301 10.667 16 20c7.33301 10.667 6.33301 19 -3 25c-9.33301 8 -21 16.833 -35 26.5l-42 28c-14 9 -26.833 16.667 -38.5 23
s-19.5 9.5 -23.5 9.5h-1z" />
    <glyph glyph-name="Oacute" unicode="&#xd3;" horiz-adv-x="712" 
d="M357 641c-50 0 -94.834 -8.66699 -134.501 -26s-73.334 -41 -101.001 -71s-48.667 -65.5 -63 -106.5s-21.5 -85.167 -21.5 -132.5c0 -35.333 5.66699 -71.833 17 -109.5s29.833 -72.167 55.5 -103.5s58.834 -57 99.501 -77s90 -30 148 -30
c52.667 0 98.834 9.16699 138.501 27.5s72.667 42.833 99 73.5s46.333 66.167 60 106.5s20.5 82.5 20.5 126.5c0 44.667 -7.5 86.5 -22.5 125.5s-36.5 73 -64.5 102s-61.333 52 -100 69s-82 25.5 -130 25.5h-1zM349.999 584c68.667 0 124.169 -25.832 166.502 -77.499
s63.5 -115.834 63.5 -192.501c0 -90 -20.333 -157.833 -61 -203.5s-92.667 -68.5 -156 -68.5c-29.333 0 -57.833 5.83301 -85.5 17.5s-52.334 29 -74.001 52s-38.834 51.5 -51.501 85.5s-19 73 -19 117c0 86 20.5 152.5 61.5 199.5s92.5 70.5 154.5 70.5h1zM451.001 802.001
c-6.66699 -0.666992 -16.8301 -4.16699 -30.4971 -10.5s-28.334 -13.5 -44.001 -21.5s-30.834 -16.667 -45.501 -26s-26.667 -17.333 -36 -24c-10 -6.66699 -12.333 -15 -7 -25c4 -8 9 -14.667 15 -20l77.5 28c32.333 12 64.5 22.667 96.5 32c10.667 2 15 8 13 18
c-2 8 -6.83301 17.5 -14.5 28.5s-15.834 17.833 -24.501 20.5z" />
    <glyph glyph-name="Ocircumflex" unicode="&#xd4;" horiz-adv-x="712" 
d="M357 641c-50 0 -94.834 -8.66699 -134.501 -26s-73.334 -41 -101.001 -71s-48.667 -65.5 -63 -106.5s-21.5 -85.167 -21.5 -132.5c0 -35.333 5.66699 -71.833 17 -109.5s29.833 -72.167 55.5 -103.5s58.834 -57 99.501 -77s90 -30 148 -30
c52.667 0 98.834 9.16699 138.501 27.5s72.667 42.833 99 73.5s46.333 66.167 60 106.5s20.5 82.5 20.5 126.5c0 44.667 -7.5 86.5 -22.5 125.5s-36.5 73 -64.5 102s-61.333 52 -100 69s-82 25.5 -130 25.5h-1zM349.999 584c68.667 0 124.169 -25.832 166.502 -77.499
s63.5 -115.834 63.5 -192.501c0 -90 -20.333 -157.833 -61 -203.5s-92.667 -68.5 -156 -68.5c-29.333 0 -57.833 5.83301 -85.5 17.5s-52.334 29 -74.001 52s-38.834 51.5 -51.501 85.5s-19 73 -19 117c0 86 20.5 152.5 61.5 199.5s92.5 70.5 154.5 70.5h1zM269.001 681.001
c7.33301 0.666992 14.0029 3.00098 20.0029 7.00098c10 6.66699 20.833 15.167 32.5 25.5s23.167 21.166 34.5 32.499c14.667 -14 28.167 -26.333 40.5 -37s21.833 -18 28.5 -22c6 -4 13.667 -6 23 -6c6 0 13.167 2.66699 21.5 8s14.166 11 17.499 17
c-42.667 33.333 -81 70 -115 110c-8 0 -17 -1 -27 -3c-6 -3.33301 -11.333 -7 -16 -11c-30 -37.333 -64 -70 -102 -98c3.33301 -5.33301 9.16602 -10.5 17.499 -15.5s16.166 -7.5 23.499 -7.5h1z" />
    <glyph glyph-name="Otilde" unicode="&#xd5;" horiz-adv-x="712" 
d="M357 641c-50 0 -94.834 -8.66699 -134.501 -26s-73.334 -41 -101.001 -71s-48.667 -65.5 -63 -106.5s-21.5 -85.167 -21.5 -132.5c0 -35.333 5.66699 -71.833 17 -109.5s29.833 -72.167 55.5 -103.5s58.834 -57 99.501 -77s90 -30 148 -30
c52.667 0 98.834 9.16699 138.501 27.5s72.667 42.833 99 73.5s46.333 66.167 60 106.5s20.5 82.5 20.5 126.5c0 44.667 -7.5 86.5 -22.5 125.5s-36.5 73 -64.5 102s-61.333 52 -100 69s-82 25.5 -130 25.5h-1zM349.999 584c68.667 0 124.169 -25.832 166.502 -77.499
s63.5 -115.834 63.5 -192.501c0 -90 -20.333 -157.833 -61 -203.5s-92.667 -68.5 -156 -68.5c-29.333 0 -57.833 5.83301 -85.5 17.5s-52.334 29 -74.001 52s-38.834 51.5 -51.501 85.5s-19 73 -19 117c0 86 20.5 152.5 61.5 199.5s92.5 70.5 154.5 70.5h1zM312.001 804.001
c-28 0 -47.502 -12 -58.502 -36s-17.833 -48.333 -20.5 -73c4 -2 10 -4 18 -6s15 -3 21 -3c5.33301 0.666992 8.33301 4.33398 9 11.001c6.66699 30.667 16 46.667 28 48c4.66699 0 9.16699 -1.83301 13.5 -5.5s9.83301 -9.16699 16.5 -16.5
c9.33301 -12 18.5 -21.833 27.5 -29.5s19.5 -11.5 31.5 -11.5c41.333 1.33301 65.333 37 72 107c-5.33301 4 -11.666 7.33301 -18.999 10s-13 4 -17 4c-6 0 -9.66699 -3.33301 -11 -10c-4 -18.667 -8 -31.667 -12 -39s-8.33301 -11 -13 -11
c-6.66699 1.33301 -16 9.66602 -28 24.999c-8 10 -16.667 18.5 -26 25.5s-19.666 10.5 -30.999 10.5h-1z" />
    <glyph glyph-name="Odieresis" unicode="&#xd6;" horiz-adv-x="712" 
d="M357 641c-50 0 -94.834 -8.66699 -134.501 -26s-73.334 -41 -101.001 -71s-48.667 -65.5 -63 -106.5s-21.5 -85.167 -21.5 -132.5c0 -35.333 5.66699 -71.833 17 -109.5s29.833 -72.167 55.5 -103.5s58.834 -57 99.501 -77s90 -30 148 -30
c52.667 0 98.834 9.16699 138.501 27.5s72.667 42.833 99 73.5s46.333 66.167 60 106.5s20.5 82.5 20.5 126.5c0 44.667 -7.5 86.5 -22.5 125.5s-36.5 73 -64.5 102s-61.333 52 -100 69s-82 25.5 -130 25.5h-1zM349.999 584c68.667 0 124.169 -25.832 166.502 -77.499
s63.5 -115.834 63.5 -192.501c0 -90 -20.333 -157.833 -61 -203.5s-92.667 -68.5 -156 -68.5c-29.333 0 -57.833 5.83301 -85.5 17.5s-52.334 29 -74.001 52s-38.834 51.5 -51.501 85.5s-19 73 -19 117c0 86 20.5 152.5 61.5 199.5s92.5 70.5 154.5 70.5h1zM264.001 782.001
c-16 0 -28.167 -4.83301 -36.5 -14.5s-12.5 -21.5 -12.5 -35.5c0 -16 4.66699 -27.833 14 -35.5s20 -11.5 32 -11.5c14 0 25.333 4.33301 34 13s13 21 13 37c0 12.667 -4.16699 23.667 -12.5 33s-18.5 14 -30.5 14h-1zM454.001 782.001
c-16 0 -28.168 -4.83398 -36.501 -14.501s-12.5 -21.5 -12.5 -35.5c0 -16 4.83301 -27.833 14.5 -35.5s19.834 -11.5 30.501 -11.5c30.667 0.666992 46.667 17.334 48 50.001c0 12.667 -4.16699 23.667 -12.5 33s-18.5 14 -30.5 14h-1z" />
    <glyph glyph-name="multiply" unicode="&#xd7;" horiz-adv-x="572" 
d="M498 419c-1.33301 2.66699 -4.33301 7.66895 -9 15.002s-11 13.666 -19 18.999c-10.667 7.33301 -21.667 5.33301 -33 -6l-152 -159l-168 173c-8 -2.66699 -15 -6.83398 -21 -12.501s-10.333 -11.167 -13 -16.5c-6 -13.333 -5.33301 -23 2 -29l155 -159l-152 -157
c-8.66699 -9.33301 -10 -20.333 -4 -33c9.33301 -16 20.333 -26 33 -30l165 176l169 -176c14 5.33301 26 14.333 36 27c7.33301 12 6 23.333 -4 34l-155 159z" />
    <glyph glyph-name="Oslash" unicode="&#xd8;" horiz-adv-x="718" 
d="M631 626c-1.33301 10 -8.33105 21.333 -20.998 34c-5.33301 3.33301 -9.83301 4.5 -13.5 3.5s-8.5 -5.5 -14.5 -13.5l-46 -60c-50.667 34.667 -109.334 51.667 -176.001 51c-49.333 0 -93.833 -8.5 -133.5 -25.5s-73.5 -40.5 -101.5 -70.5s-49.5 -65.667 -64.5 -107
s-22.5 -86 -22.5 -134c0 -36 7.16699 -75.333 21.5 -118s39.166 -80.667 74.499 -114l-62 -81c4 -10 10.667 -20.333 20 -31c8 -10.667 16.667 -10 26 2l58 76c22.667 -16.667 49.834 -29.667 81.501 -39s65.5 -14 101.5 -14c55.333 0 103.166 9.16699 143.499 27.5
s73.5 43 99.5 74s45.5 66.5 58.5 106.5s19.5 81.333 19.5 124s-8.16699 85.5 -24.5 128.5s-41.833 80.5 -76.5 112.5zM184.002 136c-17.333 20 -30.833 45.166 -40.5 75.499s-14.5 62.5 -14.5 96.5c0 88.667 22.5 156.834 67.5 204.501s97.5 71.5 157.5 71.5
c54.667 0 101 -15.667 139 -47zM531.002 496.999c17.333 -20.667 31.334 -46.5 42.001 -77.5s16 -65.167 16 -102.5c0 -94 -21.667 -163.333 -65 -208s-97 -67 -161 -67c-26 0 -51.333 4.5 -76 13.5s-46.334 22.5 -65.001 40.5z" />
    <glyph glyph-name="Ugrave" unicode="&#xd9;" horiz-adv-x="658" 
d="M159 575c0 24 -1.00098 39 -3.00098 45s-6.66699 9 -14 9c-8 0 -20.667 -1 -38 -3s-29.333 -3.66699 -36 -5c2 -19.333 3 -62 3 -128v-203c0 -58 6 -106.667 18 -146s29 -70.833 51 -94.5s48.5 -40.334 79.5 -50.001s65.5 -14.5 103.5 -14.5c28 0 57.333 3.33301 88 10
s59 21 85 43s47.5 54.333 64.5 97s25.5 100 25.5 172v141c0 82.667 1 143 3 181c-10 0 -18.833 -0.333008 -26.5 -1l-33.5 -3c-6 -1.33301 -10.667 -3.5 -14 -6.5s-5 -8.83301 -5 -17.5v-298c0 -56 -5.16699 -100.5 -15.5 -133.5s-23.666 -58.5 -39.999 -76.5
s-35 -29.667 -56 -35s-42.5 -8 -64.5 -8c-19.333 0 -39.333 2.66699 -60 8s-39.667 16.5 -57 33.5s-31.333 41.333 -42 73s-16 73.834 -16 126.501v284zM251.999 790c-8.66699 0 -17.5 -5 -26.5 -15s-15.167 -19.667 -18.5 -29c-4.66699 -8 -3 -12.667 5 -14
c28.667 -10 58.667 -22.333 90 -37l77 -37c4 4 9.33301 10.667 16 20c7.33301 10.667 6.33301 19 -3 25c-9.33301 8 -21 16.833 -35 26.5l-42 28c-14 9 -26.833 16.667 -38.5 23s-19.5 9.5 -23.5 9.5h-1z" />
    <glyph glyph-name="Uacute" unicode="&#xda;" horiz-adv-x="658" 
d="M159 575c0 24 -1.00098 39 -3.00098 45s-6.66699 9 -14 9c-8 0 -20.667 -1 -38 -3s-29.333 -3.66699 -36 -5c2 -19.333 3 -62 3 -128v-203c0 -58 6 -106.667 18 -146s29 -70.833 51 -94.5s48.5 -40.334 79.5 -50.001s65.5 -14.5 103.5 -14.5c28 0 57.333 3.33301 88 10
s59 21 85 43s47.5 54.333 64.5 97s25.5 100 25.5 172v141c0 82.667 1 143 3 181c-10 0 -18.833 -0.333008 -26.5 -1l-33.5 -3c-6 -1.33301 -10.667 -3.5 -14 -6.5s-5 -8.83301 -5 -17.5v-298c0 -56 -5.16699 -100.5 -15.5 -133.5s-23.666 -58.5 -39.999 -76.5
s-35 -29.667 -56 -35s-42.5 -8 -64.5 -8c-19.333 0 -39.333 2.66699 -60 8s-39.667 16.5 -57 33.5s-31.333 41.333 -42 73s-16 73.834 -16 126.501v284zM416.999 791c-6.66699 -0.666992 -16.8301 -4.16699 -30.4971 -10.5s-28.334 -13.5 -44.001 -21.5
s-30.834 -16.667 -45.501 -26s-26.667 -17.333 -36 -24c-10 -6 -12.333 -14.333 -7 -25c4 -8 9 -14.667 15 -20l77.5 28c32.333 12 64.5 22.667 96.5 32c10.667 2.66699 15 8.66699 13 18c-2 8 -6.83301 17.5 -14.5 28.5s-15.834 17.833 -24.501 20.5z" />
    <glyph glyph-name="Ucircumflex" unicode="&#xdb;" horiz-adv-x="658" 
d="M159 575c0 24 -1.00098 39 -3.00098 45s-6.66699 9 -14 9c-8 0 -20.667 -1 -38 -3s-29.333 -3.66699 -36 -5c2 -19.333 3 -62 3 -128v-203c0 -58 6 -106.667 18 -146s29 -70.833 51 -94.5s48.5 -40.334 79.5 -50.001s65.5 -14.5 103.5 -14.5c28 0 57.333 3.33301 88 10
s59 21 85 43s47.5 54.333 64.5 97s25.5 100 25.5 172v141c0 82.667 1 143 3 181c-10 0 -18.833 -0.333008 -26.5 -1l-33.5 -3c-6 -1.33301 -10.667 -3.5 -14 -6.5s-5 -8.83301 -5 -17.5v-298c0 -56 -5.16699 -100.5 -15.5 -133.5s-23.666 -58.5 -39.999 -76.5
s-35 -29.667 -56 -35s-42.5 -8 -64.5 -8c-19.333 0 -39.333 2.66699 -60 8s-39.667 16.5 -57 33.5s-31.333 41.333 -42 73s-16 73.834 -16 126.501v284zM241.999 668c8 1.33301 14.6699 3.66895 20.0029 7.00195c10 6.66699 20.833 15.167 32.5 25.5
s23.167 21.166 34.5 32.499c14.667 -14 28.167 -26.333 40.5 -37s21.833 -18 28.5 -22c6 -4 13.667 -6 23 -6c6 0 13.167 2.66699 21.5 8s14.166 11 17.499 17c-42.667 34 -81 70.667 -115 110c-8 0.666992 -17 -0.333008 -27 -3
c-6.66699 -2.66699 -12 -6.33398 -16 -11.001c-30.667 -38 -64.667 -70.667 -102 -98c3.33301 -5.33301 9.16602 -10.5 17.499 -15.5s16.166 -7.5 23.499 -7.5h1z" />
    <glyph glyph-name="Udieresis" unicode="&#xdc;" horiz-adv-x="658" 
d="M159 575c0 24 -1.00098 39 -3.00098 45s-6.66699 9 -14 9c-8 0 -20.667 -1 -38 -3s-29.333 -3.66699 -36 -5c2 -19.333 3 -62 3 -128v-203c0 -58 6 -106.667 18 -146s29 -70.833 51 -94.5s48.5 -40.334 79.5 -50.001s65.5 -14.5 103.5 -14.5c28 0 57.333 3.33301 88 10
s59 21 85 43s47.5 54.333 64.5 97s25.5 100 25.5 172v141c0 82.667 1 143 3 181c-10 0 -18.833 -0.333008 -26.5 -1l-33.5 -3c-6 -1.33301 -10.667 -3.5 -14 -6.5s-5 -8.83301 -5 -17.5v-298c0 -56 -5.16699 -100.5 -15.5 -133.5s-23.666 -58.5 -39.999 -76.5
s-35 -29.667 -56 -35s-42.5 -8 -64.5 -8c-19.333 0 -39.333 2.66699 -60 8s-39.667 16.5 -57 33.5s-31.333 41.333 -42 73s-16 73.834 -16 126.501v284zM237.999 768c-16 0 -28.167 -4.83301 -36.5 -14.5s-12.5 -21.5 -12.5 -35.5c0 -16 4.66699 -27.833 14 -35.5
s20 -11.5 32 -11.5c14 0 25.333 4.33301 34 13s13 21 13 37c0 12.667 -4.16699 23.667 -12.5 33s-18.5 14 -30.5 14h-1zM427.999 768c-16 0 -28.168 -4.83398 -36.501 -14.501s-12.5 -21.5 -12.5 -35.5c0 -16 4.83301 -27.833 14.5 -35.5s19.834 -11.5 30.501 -11.5
c30.667 0.666992 46.667 17.334 48 50.001c0 12.667 -4.16699 23.667 -12.5 33s-18.5 14 -30.5 14h-1z" />
    <glyph glyph-name="Yacute" unicode="&#xdd;" horiz-adv-x="555" 
d="M235 12c0 -8 1.00195 -13.002 3.00195 -15.002s6 -3 12 -3c33.333 0 58.666 2.66699 75.999 8c-0.666992 10 -1.33398 24 -2.00098 42s-1 44 -1 78v145c-0.666992 14 2.66602 27.333 9.99902 40l32 45.5l60 85l62.5 88.5l39.5 57c14 20.667 14.667 33.334 2 38.001
c-13.333 4.66699 -32 7.33398 -56 8.00098l-32.5 -50.5l-53.5 -81.5l-56.5 -85l-40.5 -60l-82 124.5l-70 108.5c-11.333 16.667 -20.166 28.167 -26.499 34.5s-12.5 9.5 -18.5 9.5c-10 0 -22.333 -1.5 -37 -4.5s-27.667 -6.16699 -39 -9.5v-3l48 -69.5l58 -84l57.5 -85.5
l46.5 -72c6 -10.667 8.66699 -25 8 -43v-246zM393.002 777.998c-6.66699 -0.666992 -16.8301 -4.16699 -30.4971 -10.5s-28.334 -13.5 -44.001 -21.5s-30.834 -16.667 -45.501 -26s-26.667 -17.333 -36 -24c-10 -6.66699 -12.333 -15 -7 -25c4 -8 9 -14.667 15 -20l77.5 28
c32.333 12 64.5 22.667 96.5 32c10.667 2 15 8 13 18c-2 8 -6.83301 17.5 -14.5 28.5s-15.834 17.833 -24.501 20.5z" />
    <glyph glyph-name="Thorn" unicode="&#xde;" horiz-adv-x="473" 
d="M75 12c-0.666992 -13.333 5.33203 -19.3311 17.999 -17.998c10 0 22.667 0.833008 38 2.5s27 3.5 35 5.5c-0.666992 10 -1.33398 24.167 -2.00098 42.5s-1 45.166 -1 80.499v317c14.667 3.33301 31 4.66602 49 3.99902c40 0 72.667 -11.167 98 -33.5s38 -56.5 38 -102.5
c0 -30 -4.83301 -53.833 -14.5 -71.5s-21.5 -31.5 -35.5 -41.5s-28.167 -16.5 -42.5 -19.5s-26.5 -4.5 -36.5 -4.5c-7.33301 0 -11.833 0.166992 -13.5 0.5s-7.16699 0.833008 -16.5 1.5c0 -10 2.16699 -19.333 6.5 -28s10.5 -15 18.5 -19
c9.33301 -5.33301 23 -7.66602 41 -6.99902c15.333 0 33.5 2.83301 54.5 8.5s41.333 15.834 61 30.501s36.334 34.667 50.001 60s20.5 57 20.5 95c0 20.667 -3.33301 43 -10 67s-20 46.333 -40 67c-20 20 -44.167 34.167 -72.5 42.5s-59.166 12.5 -92.499 12.5
c-28 -0.666992 -49 -2.33398 -63 -5.00098v74c0 23.333 -1.16699 38.5 -3.5 45.5s-6.83301 10.5 -13.5 10.5c-8 0 -20.333 -1 -37 -3s-29 -3.66699 -37 -5c2 -18.667 3 -61.334 3 -128.001v-481z" />
    <glyph glyph-name="germandbls" unicode="&#xdf;" horiz-adv-x="519" 
d="M290 685c-55.333 0.666992 -102.002 -18.001 -140.002 -56.001c-25.333 -24 -44.166 -54.333 -56.499 -91s-18.5 -72 -18.5 -106c-13.333 -6 -24 -11.5 -32 -16.5s-15.333 -10.833 -22 -17.5c0 -8 4 -15 12 -21s22 -9 42 -9
c0.666992 -134.667 0.333984 -255 -0.999023 -361c-0.666992 -9.33301 3.66602 -13.666 12.999 -12.999c6.66699 0 18.334 0.833008 35.001 2.5s30 3.5 40 5.5c-1.33301 51.333 -2.33301 111.833 -3 181.5s-0.666992 143.5 0 221.5c0 81.333 11.333 139.166 34 173.499
s52 51.5 88 51.5c28 0 50 -9.83301 66 -29.5s24 -46.167 24 -79.5c-0.666992 -11.333 -2.33398 -21 -5.00098 -29c-77.333 -46.667 -115.666 -96.334 -114.999 -149.001c0 -22 5.33301 -41.333 16 -58s24 -31 40 -43l58 -42c15.333 -12 25.833 -23.333 31.5 -34
s8.5 -23 8.5 -37c0 -24.667 -9.33301 -44.167 -28 -58.5s-41.667 -21.5 -69 -21.5c-14 0 -26.333 1.33301 -37 4s-21 6 -31 10c-9.33301 0.666992 -17.333 -3.66602 -24 -12.999c-6 -10.667 -7.33301 -23 -4 -37c10 -7.33301 23.5 -13.166 40.5 -17.499
s34.833 -6.5 53.5 -6.5c48 0 90.5 14 127.5 42s55.5 67.333 55.5 118c0 20 -5 39.333 -15 58s-24.333 35 -43 49c-12 8 -22.667 15.5 -32 22.5s-20 15.5 -32 25.5c-10 7.33301 -18.167 16 -24.5 26s-9.5 20.667 -9.5 32c0 46 37 86.333 111 121
c2 4.66699 3.5 11.167 4.5 19.5s1.5 16.5 1.5 24.5c0 46 -14 83.833 -42 113.5s-67 44.5 -117 44.5h-1z" />
    <glyph glyph-name="agrave" unicode="&#xe0;" horiz-adv-x="429" 
d="M406 52c-6.66699 -1.33301 -13.001 -1.99902 -19.001 -1.99902c-22 0 -33.333 10.667 -34 32c-0.666992 30 -0.5 65.333 0.5 106s1.5 72 1.5 94c0 47.333 -12.333 87 -37 119s-62 48 -112 48c-34 0 -65.833 -7.66699 -95.5 -23s-52.5 -30 -68.5 -44
c0.666992 -12.667 4.33398 -23.5 11.001 -32.5s17 -10.5 31 -4.5c14 9.33301 29.833 17.833 47.5 25.5s35.834 11.5 54.501 11.5c30 0 52 -9.5 66 -28.5s21 -40.167 21 -63.5v-30l-50 -10l-54 -15c-22 -6 -43.333 -14.5 -64 -25.5s-38.5 -25.333 -53.5 -43
s-22.5 -39.5 -22.5 -65.5c0 -30.667 10.667 -57.167 32 -79.5s49.333 -33.5 84 -33.5c26 0 50.333 6.5 73 19.5s41 27.5 55 43.5c2.66699 -16.667 9.66699 -31.334 21 -44.001s27.666 -19 48.999 -19c42.667 0 64 20.667 64 62zM112.999 114.001
c0 28 16.168 49.499 48.501 64.499s69.166 25.833 110.499 32.5v-78c0 -16.667 -2.33301 -27.667 -7 -33c-8 -10.667 -19.167 -21.167 -33.5 -31.5s-31.833 -15.5 -52.5 -15.5c-18 0 -33.5 5.33301 -46.5 16s-19.5 25.334 -19.5 44.001v1zM154 684
c-9.33301 0 -18.667 -2.33301 -28 -7s-17.333 -10 -24 -16c-8.66699 -8.66699 -10 -15.667 -4 -21c20 -21.333 39.667 -44.833 59 -70.5s35.333 -47.834 48 -66.501c7.33301 2 16 6.66699 26 14c7.33301 4.66699 8.66602 12.667 3.99902 24c-4 11.333 -9.83301 25 -17.5 41
s-15.5 31.5 -23.5 46.5s-15.667 27.833 -23 38.5s-12.666 16.334 -15.999 17.001h-1z" />
    <glyph glyph-name="aacute" unicode="&#xe1;" horiz-adv-x="429" 
d="M406 52c-6.66699 -1.33301 -13.001 -1.99902 -19.001 -1.99902c-22 0 -33.333 10.667 -34 32c-0.666992 30 -0.5 65.333 0.5 106s1.5 72 1.5 94c0 47.333 -12.333 87 -37 119s-62 48 -112 48c-34 0 -65.833 -7.66699 -95.5 -23s-52.5 -30 -68.5 -44
c0.666992 -12.667 4.33398 -23.5 11.001 -32.5s17 -10.5 31 -4.5c14 9.33301 29.833 17.833 47.5 25.5s35.834 11.5 54.501 11.5c30 0 52 -9.5 66 -28.5s21 -40.167 21 -63.5v-30l-50 -10l-54 -15c-22 -6 -43.333 -14.5 -64 -25.5s-38.5 -25.333 -53.5 -43
s-22.5 -39.5 -22.5 -65.5c0 -30.667 10.667 -57.167 32 -79.5s49.333 -33.5 84 -33.5c26 0 50.333 6.5 73 19.5s41 27.5 55 43.5c2.66699 -16.667 9.66699 -31.334 21 -44.001s27.666 -19 48.999 -19c42.667 0 64 20.667 64 62zM112.999 114.001
c0 28 16.168 49.499 48.501 64.499s69.166 25.833 110.499 32.5v-78c0 -16.667 -2.33301 -27.667 -7 -33c-8 -10.667 -19.167 -21.167 -33.5 -31.5s-31.833 -15.5 -52.5 -15.5c-18 0 -33.5 5.33301 -46.5 16s-19.5 25.334 -19.5 44.001v1zM247 682
c-4.66699 0 -10.668 -5.50195 -18.001 -16.502s-15 -23.833 -23 -38.5s-15.667 -29.667 -23 -45s-13 -28 -17 -38c-4 -8 -5.83301 -14 -5.5 -18s1.83301 -7 4.5 -9c6.66699 -7.33301 15.334 -12.666 26.001 -15.999l49 66c18.667 25.333 38 49.333 58 72
c8.66699 8.66699 9.66699 15.334 3 20.001c-6 5.33301 -14.167 10.5 -24.5 15.5s-19.833 7.5 -28.5 7.5h-1z" />
    <glyph glyph-name="acircumflex" unicode="&#xe2;" horiz-adv-x="429" 
d="M406 52c-6.66699 -1.33301 -13.001 -1.99902 -19.001 -1.99902c-22 0 -33.333 10.667 -34 32c-0.666992 30 -0.5 65.333 0.5 106s1.5 72 1.5 94c0 47.333 -12.333 87 -37 119s-62 48 -112 48c-34 0 -65.833 -7.66699 -95.5 -23s-52.5 -30 -68.5 -44
c0.666992 -12.667 4.33398 -23.5 11.001 -32.5s17 -10.5 31 -4.5c14 9.33301 29.833 17.833 47.5 25.5s35.834 11.5 54.501 11.5c30 0 52 -9.5 66 -28.5s21 -40.167 21 -63.5v-30l-50 -10l-54 -15c-22 -6 -43.333 -14.5 -64 -25.5s-38.5 -25.333 -53.5 -43
s-22.5 -39.5 -22.5 -65.5c0 -30.667 10.667 -57.167 32 -79.5s49.333 -33.5 84 -33.5c26 0 50.333 6.5 73 19.5s41 27.5 55 43.5c2.66699 -16.667 9.66699 -31.334 21 -44.001s27.666 -19 48.999 -19c42.667 0 64 20.667 64 62zM112.999 114.001
c0 28 16.168 49.499 48.501 64.499s69.166 25.833 110.499 32.5v-78c0 -16.667 -2.33301 -27.667 -7 -33c-8 -10.667 -19.167 -21.167 -33.5 -31.5s-31.833 -15.5 -52.5 -15.5c-18 0 -33.5 5.33301 -46.5 16s-19.5 25.334 -19.5 44.001v1zM136 505
c5.33301 0.666992 9.66602 3.33203 12.999 7.99902l29 48l26 46c10 -20 19.5 -37.167 28.5 -51.5l24.5 -40.5c4.66699 -7.33301 10 -10.666 16 -9.99902c8 0 16.167 2 24.5 6s14.833 8 19.5 12c-31.333 51.333 -61.666 103.666 -90.999 156.999
c-10.667 0 -21.667 -1.33301 -33 -4c-8 -1.33301 -14 -6.66602 -18 -15.999c-13.333 -25.333 -26.833 -49 -40.5 -71l-42.5 -70c5.33301 -4 12.333 -7.33301 21 -10s16 -4 22 -4h1z" />
    <glyph glyph-name="atilde" unicode="&#xe3;" horiz-adv-x="429" 
d="M406 52c-6.66699 -1.33301 -13.001 -1.99902 -19.001 -1.99902c-22 0 -33.333 10.667 -34 32c-0.666992 30 -0.5 65.333 0.5 106s1.5 72 1.5 94c0 47.333 -12.333 87 -37 119s-62 48 -112 48c-34 0 -65.833 -7.66699 -95.5 -23s-52.5 -30 -68.5 -44
c0.666992 -12.667 4.33398 -23.5 11.001 -32.5s17 -10.5 31 -4.5c14 9.33301 29.833 17.833 47.5 25.5s35.834 11.5 54.501 11.5c30 0 52 -9.5 66 -28.5s21 -40.167 21 -63.5v-30l-50 -10l-54 -15c-22 -6 -43.333 -14.5 -64 -25.5s-38.5 -25.333 -53.5 -43
s-22.5 -39.5 -22.5 -65.5c0 -30.667 10.667 -57.167 32 -79.5s49.333 -33.5 84 -33.5c26 0 50.333 6.5 73 19.5s41 27.5 55 43.5c2.66699 -16.667 9.66699 -31.334 21 -44.001s27.666 -19 48.999 -19c42.667 0 64 20.667 64 62zM112.999 114.001
c0 28 16.168 49.499 48.501 64.499s69.166 25.833 110.499 32.5v-78c0 -16.667 -2.33301 -27.667 -7 -33c-8 -10.667 -19.167 -21.167 -33.5 -31.5s-31.833 -15.5 -52.5 -15.5c-18 0 -33.5 5.33301 -46.5 16s-19.5 25.334 -19.5 44.001v1zM166 648
c-28 0 -48.0029 -11.999 -60.0029 -35.999s-19 -49 -21 -75c4 -2 10.167 -4 18.5 -6s15.5 -3 21.5 -3c5.33301 0.666992 8.33301 4.33398 9 11.001c6.66699 30.667 16.334 46.667 29.001 48c4.66699 0 9 -2 13 -6l17 -17c9.33301 -11.333 18.5 -20.833 27.5 -28.5
s19.5 -11.5 31.5 -11.5c42.667 1.33301 67.334 37.666 74.001 108.999c-5.33301 4 -11.833 7.5 -19.5 10.5s-13.5 4.5 -17.5 4.5c-5.33301 0 -8.66602 -3.66699 -9.99902 -11c-4 -18.667 -8.16699 -31.5 -12.5 -38.5s-8.83301 -10.5 -13.5 -10.5
c-8 1.33301 -17.333 9.66602 -28 24.999c-8 9.33301 -16.667 17.5 -26 24.5s-20 10.5 -32 10.5h-1z" />
    <glyph glyph-name="adieresis" unicode="&#xe4;" horiz-adv-x="429" 
d="M406 52c-6.66699 -1.33301 -13.001 -1.99902 -19.001 -1.99902c-22 0 -33.333 10.667 -34 32c-0.666992 30 -0.5 65.333 0.5 106s1.5 72 1.5 94c0 47.333 -12.333 87 -37 119s-62 48 -112 48c-34 0 -65.833 -7.66699 -95.5 -23s-52.5 -30 -68.5 -44
c0.666992 -12.667 4.33398 -23.5 11.001 -32.5s17 -10.5 31 -4.5c14 9.33301 29.833 17.833 47.5 25.5s35.834 11.5 54.501 11.5c30 0 52 -9.5 66 -28.5s21 -40.167 21 -63.5v-30l-50 -10l-54 -15c-22 -6 -43.333 -14.5 -64 -25.5s-38.5 -25.333 -53.5 -43
s-22.5 -39.5 -22.5 -65.5c0 -30.667 10.667 -57.167 32 -79.5s49.333 -33.5 84 -33.5c26 0 50.333 6.5 73 19.5s41 27.5 55 43.5c2.66699 -16.667 9.66699 -31.334 21 -44.001s27.666 -19 48.999 -19c42.667 0 64 20.667 64 62zM112.999 114.001
c0 28 16.168 49.499 48.501 64.499s69.166 25.833 110.499 32.5v-78c0 -16.667 -2.33301 -27.667 -7 -33c-8 -10.667 -19.167 -21.167 -33.5 -31.5s-31.833 -15.5 -52.5 -15.5c-18 0 -33.5 5.33301 -46.5 16s-19.5 25.334 -19.5 44.001v1zM121 632
c-16 0 -28.166 -4.83398 -36.499 -14.501s-12.5 -21.5 -12.5 -35.5c0 -16 4.66699 -27.833 14 -35.5s19.666 -11.5 30.999 -11.5c30.667 0.666992 46.667 17.334 48 50.001c0 12 -4.16699 22.833 -12.5 32.5s-18.5 14.5 -30.5 14.5h-1zM292.001 631.999
c-16 0 -28.168 -4.83301 -36.501 -14.5s-12.5 -21.5 -12.5 -35.5c0 -16 4.83301 -27.833 14.5 -35.5s19.834 -11.5 30.501 -11.5c14 0 25.5 4.33301 34.5 13s13.5 21 13.5 37c0 12 -4.16699 22.833 -12.5 32.5s-18.5 14.5 -30.5 14.5h-1z" />
    <glyph glyph-name="aring" unicode="&#xe5;" horiz-adv-x="429" 
d="M406 52c-6.66699 -1.33301 -13.001 -1.99902 -19.001 -1.99902c-22 0 -33.333 10.667 -34 32c-0.666992 30 -0.5 65.333 0.5 106s1.5 72 1.5 94c0 47.333 -12.333 87 -37 119s-62 48 -112 48c-34 0 -65.833 -7.66699 -95.5 -23s-52.5 -30 -68.5 -44
c0.666992 -12.667 4.33398 -23.5 11.001 -32.5s17 -10.5 31 -4.5c14 9.33301 29.833 17.833 47.5 25.5s35.834 11.5 54.501 11.5c30 0 52 -9.5 66 -28.5s21 -40.167 21 -63.5v-30l-50 -10l-54 -15c-22 -6 -43.333 -14.5 -64 -25.5s-38.5 -25.333 -53.5 -43
s-22.5 -39.5 -22.5 -65.5c0 -30.667 10.667 -57.167 32 -79.5s49.333 -33.5 84 -33.5c26 0 50.333 6.5 73 19.5s41 27.5 55 43.5c2.66699 -16.667 9.66699 -31.334 21 -44.001s27.666 -19 48.999 -19c42.667 0 64 20.667 64 62zM112.999 114.001
c0 28 16.168 49.499 48.501 64.499s69.166 25.833 110.499 32.5v-78c0 -16.667 -2.33301 -27.667 -7 -33c-8 -10.667 -19.167 -21.167 -33.5 -31.5s-31.833 -15.5 -52.5 -15.5c-18 0 -33.5 5.33301 -46.5 16s-19.5 25.334 -19.5 44.001v1zM209 675
c-28.667 0 -51.167 -9.16797 -67.5 -27.501s-24.5 -39.5 -24.5 -63.5c0 -28 8.83301 -49.667 26.5 -65s38.5 -23 62.5 -23c26.667 0 48.667 8.33301 66 25s26 38.334 26 65.001c0 25.333 -8.5 46.5 -25.5 63.5s-37.833 25.5 -62.5 25.5h-1zM206 631.999
c14.667 0 25.167 -5.00098 31.5 -15.001s9.5 -21 9.5 -33s-3.16699 -22.5 -9.5 -31.5s-15.833 -13.5 -28.5 -13.5c-12 0 -21.833 4.33301 -29.5 13s-11.5 20.334 -11.5 35.001c0 10 3.16699 20 9.5 30s15.5 15 27.5 15h1z" />
    <glyph glyph-name="ae" unicode="&#xe6;" horiz-adv-x="667" 
d="M617 79c-8.66699 -4 -23.5 -8.99609 -44.5 -14.9961s-42.167 -9 -63.5 -9c-48 0 -86 14.167 -114 42.5s-42 66.5 -42 114.5c18 -0.666992 37.167 -1 57.5 -1h59c19 0 36 0.333008 51 1s26.167 1.66699 33.5 3c16 2 33.5 6.66699 52.5 14s29.5 15 31.5 23
c0.666992 4 1.33398 9.16699 2.00098 15.5s1 12.166 1 17.499c-0.666992 18.667 -4.16699 37.667 -10.5 57s-16 37 -29 53s-29.333 29 -49 39s-43.5 15 -71.5 15c-34 0 -63.833 -7.83301 -89.5 -23.5s-46.5 -34.834 -62.5 -57.501c-8 21.333 -22.5 40.166 -43.5 56.499
s-47.833 24.5 -80.5 24.5s-64.167 -7.16699 -94.5 -21.5s-53.166 -29.5 -68.499 -45.5c1.33301 -17.333 6.16602 -29.333 14.499 -36s19.5 -6 33.5 2c28 22 60 33.333 96 34c30 0 52.333 -9.66699 67 -29s22 -41.333 22 -66v-24c-8.66699 -2 -19.334 -4.33301 -32.001 -7
c-18 -4 -39.167 -9.33301 -63.5 -16s-47.5 -16 -69.5 -28s-40.833 -27 -56.5 -45s-23.5 -40.333 -23.5 -67c0 -30.667 10.5 -57 31.5 -79s49.5 -33 85.5 -33c32.667 0 63.667 8.66699 93 26s53.333 36.666 72 57.999c16 -28 39.5 -49 70.5 -63s64.5 -21 100.5 -21
c18 0 36 2 54 6s30.333 7.66699 37 11s15.667 11.5 27 24.5s17.333 28.5 18 46.5zM466 397.004c30 0 52.833 -10.5 68.5 -31.5s23.5 -46.5 23.5 -76.5c0 -14 -6.33301 -21.667 -19 -23c-9.33301 -1.33301 -33 -2.33301 -71 -3s-75.667 0 -113 2c4 38 16.167 69.5 36.5 94.5
s44.833 37.5 73.5 37.5h1zM178 54.0039c-19.333 0 -34.834 5.66699 -46.501 17s-17.5 25 -17.5 41c0 29.333 16.167 51.5 48.5 66.5s69.5 25.833 111.5 32.5c0 -18 1.83301 -36.333 5.5 -55s7.5 -32.667 11.5 -42c-35.333 -40.667 -72.666 -60.667 -111.999 -60h-1z" />
    <glyph glyph-name="ccedilla" unicode="&#xe7;" horiz-adv-x="418" 
d="M179 -85v-13c19.333 1.33301 37 -1 53 -7s24 -16 24 -30c0 -7.33301 -5 -15.5 -15 -24.5s-29 -17.5 -57 -25.5c-6.66699 -3.33301 -9.66699 -7 -9 -11c0 -4 2.16699 -9.66699 6.5 -17s10.166 -12 17.499 -14c28 3.33301 55.667 13.833 83 31.5s41 40.5 41 68.5
c0 17.333 -5.66699 32.666 -17 45.999s-27 22.666 -47 27.999l29 42c11.333 0.666992 24.666 3 39.999 7s27 8.66699 35 14c8 6 14.667 14.667 20 26s8.66602 23 9.99902 35l-3 3c-15.333 -6 -32.166 -10.833 -50.499 -14.5s-36.166 -5.5 -53.499 -5.5
c-18 0 -36.667 2.33301 -56 7s-37 13.334 -53 26.001s-29.167 30 -39.5 52s-15.5 50 -15.5 84c0 47.333 13.833 86.333 41.5 117s63.834 46 108.501 46c12 0 25.5 -1.5 40.5 -4.5s29.5 -7.83301 43.5 -14.5c9.33301 -4.66699 19 -2.66699 29 6c4 4 7.5 9.5 10.5 16.5
s4.5 14.167 4.5 21.5c-4 5.33301 -16.833 13 -38.5 23s-51.167 15 -88.5 15c-68 0 -125 -22.167 -171 -66.5s-69 -101.166 -69 -170.499c0 -40 5.5 -73.5 16.5 -100.5s25.833 -49.333 44.5 -67s40 -30.667 64 -39s49 -13.833 75 -16.5z" />
    <glyph glyph-name="egrave" unicode="&#xe8;" horiz-adv-x="431" 
d="M381 80c-9.33301 -5.33301 -24.833 -10.832 -46.5 -16.499s-43.5 -8.5 -65.5 -8.5c-44 0 -80.167 13.833 -108.5 41.5s-42.5 67.167 -42.5 118.5c18 -1.33301 37.167 -2 57.5 -2h58c18.333 0 35 0.333008 50 1s26.167 1.66699 33.5 3c16.667 2.66699 34.5 7 53.5 13
s29.5 13.333 31.5 22c2 9.33301 3 19.666 3 30.999c-1.33301 40 -15 77.667 -41 113s-67.333 53 -124 53c-33.333 0 -62.833 -6.5 -88.5 -19.5s-47.5 -30.5 -65.5 -52.5s-31.5 -47.333 -40.5 -76s-13.5 -58.667 -13.5 -90c0 -70 18.333 -124.667 55 -164s90 -59 160 -59
c20 0 39.333 2.5 58 7.5s32 9.83301 40 14.5c8 4 16.333 12.333 25 25s13 27 13 43zM229 397.001c31.333 0 54.666 -10.5 69.999 -31.5s23 -46.5 23 -76.5c0 -12.667 -7 -19.667 -21 -21c-9.33301 -0.666992 -32.666 -1.16699 -69.999 -1.5s-74 0.166992 -110 1.5
c4 42 16.5 74 37.5 96s44.167 33 69.5 33h1zM179 684.001c-9.33301 0 -18.667 -2.33301 -28 -7s-17.333 -10 -24 -16c-8.66699 -8.66699 -10 -15.667 -4 -21c20 -21.333 39.667 -44.833 59 -70.5s35.333 -47.834 48 -66.501c7.33301 2 16 6.66699 26 14
c7.33301 4.66699 8.66602 12.667 3.99902 24c-4 11.333 -9.83301 25 -17.5 41s-15.5 31.5 -23.5 46.5s-15.667 27.833 -23 38.5s-12.666 16.334 -15.999 17.001h-1z" />
    <glyph glyph-name="eacute" unicode="&#xe9;" horiz-adv-x="431" 
d="M381 80c-9.33301 -5.33301 -24.833 -10.832 -46.5 -16.499s-43.5 -8.5 -65.5 -8.5c-44 0 -80.167 13.833 -108.5 41.5s-42.5 67.167 -42.5 118.5c18 -1.33301 37.167 -2 57.5 -2h58c18.333 0 35 0.333008 50 1s26.167 1.66699 33.5 3c16.667 2.66699 34.5 7 53.5 13
s29.5 13.333 31.5 22c2 9.33301 3 19.666 3 30.999c-1.33301 40 -15 77.667 -41 113s-67.333 53 -124 53c-33.333 0 -62.833 -6.5 -88.5 -19.5s-47.5 -30.5 -65.5 -52.5s-31.5 -47.333 -40.5 -76s-13.5 -58.667 -13.5 -90c0 -70 18.333 -124.667 55 -164s90 -59 160 -59
c20 0 39.333 2.5 58 7.5s32 9.83301 40 14.5c8 4 16.333 12.333 25 25s13 27 13 43zM229 397.001c31.333 0 54.666 -10.5 69.999 -31.5s23 -46.5 23 -76.5c0 -12.667 -7 -19.667 -21 -21c-9.33301 -0.666992 -32.666 -1.16699 -69.999 -1.5s-74 0.166992 -110 1.5
c4 42 16.5 74 37.5 96s44.167 33 69.5 33h1zM269 682.001c-4.66699 0 -10.668 -5.50195 -18.001 -16.502s-15 -23.833 -23 -38.5s-15.667 -29.667 -23 -45s-13 -28 -17 -38c-4 -8 -5.83301 -14 -5.5 -18s1.83301 -7 4.5 -9c6.66699 -7.33301 15.334 -12.666 26.001 -15.999
l49 66c18.667 25.333 38 49.333 58 72c8.66699 8.66699 9.66699 15.334 3 20.001c-6 5.33301 -14.167 10.5 -24.5 15.5s-19.833 7.5 -28.5 7.5h-1z" />
    <glyph glyph-name="ecircumflex" unicode="&#xea;" horiz-adv-x="431" 
d="M381 80c-9.33301 -5.33301 -24.833 -10.832 -46.5 -16.499s-43.5 -8.5 -65.5 -8.5c-44 0 -80.167 13.833 -108.5 41.5s-42.5 67.167 -42.5 118.5c18 -1.33301 37.167 -2 57.5 -2h58c18.333 0 35 0.333008 50 1s26.167 1.66699 33.5 3c16.667 2.66699 34.5 7 53.5 13
s29.5 13.333 31.5 22c2 9.33301 3 19.666 3 30.999c-1.33301 40 -15 77.667 -41 113s-67.333 53 -124 53c-33.333 0 -62.833 -6.5 -88.5 -19.5s-47.5 -30.5 -65.5 -52.5s-31.5 -47.333 -40.5 -76s-13.5 -58.667 -13.5 -90c0 -70 18.333 -124.667 55 -164s90 -59 160 -59
c20 0 39.333 2.5 58 7.5s32 9.83301 40 14.5c8 4 16.333 12.333 25 25s13 27 13 43zM229 397.001c31.333 0 54.666 -10.5 69.999 -31.5s23 -46.5 23 -76.5c0 -12.667 -7 -19.667 -21 -21c-9.33301 -0.666992 -32.666 -1.16699 -69.999 -1.5s-74 0.166992 -110 1.5
c4 42 16.5 74 37.5 96s44.167 33 69.5 33h1zM162 505.001c5.33301 0.666992 9.66602 3.33203 12.999 7.99902l29 48l26 46c10 -20 19.5 -37.167 28.5 -51.5l24.5 -40.5c4.66699 -7.33301 10 -10.666 16 -9.99902c8 0 16.167 2 24.5 6s14.833 8 19.5 12
c-31.333 51.333 -61.666 103.666 -90.999 156.999c-10.667 0 -21.667 -1.33301 -33 -4c-8 -1.33301 -14 -6.66602 -18 -15.999c-13.333 -25.333 -26.833 -49 -40.5 -71l-42.5 -70c5.33301 -4 12.333 -7.33301 21 -10s16 -4 22 -4h1z" />
    <glyph glyph-name="edieresis" unicode="&#xeb;" horiz-adv-x="431" 
d="M381 80c-9.33301 -5.33301 -24.833 -10.832 -46.5 -16.499s-43.5 -8.5 -65.5 -8.5c-44 0 -80.167 13.833 -108.5 41.5s-42.5 67.167 -42.5 118.5c18 -1.33301 37.167 -2 57.5 -2h58c18.333 0 35 0.333008 50 1s26.167 1.66699 33.5 3c16.667 2.66699 34.5 7 53.5 13
s29.5 13.333 31.5 22c2 9.33301 3 19.666 3 30.999c-1.33301 40 -15 77.667 -41 113s-67.333 53 -124 53c-33.333 0 -62.833 -6.5 -88.5 -19.5s-47.5 -30.5 -65.5 -52.5s-31.5 -47.333 -40.5 -76s-13.5 -58.667 -13.5 -90c0 -70 18.333 -124.667 55 -164s90 -59 160 -59
c20 0 39.333 2.5 58 7.5s32 9.83301 40 14.5c8 4 16.333 12.333 25 25s13 27 13 43zM229 397.001c31.333 0 54.666 -10.5 69.999 -31.5s23 -46.5 23 -76.5c0 -12.667 -7 -19.667 -21 -21c-9.33301 -0.666992 -32.666 -1.16699 -69.999 -1.5s-74 0.166992 -110 1.5
c4 42 16.5 74 37.5 96s44.167 33 69.5 33h1zM146 632.001c-16 0 -28.166 -4.83398 -36.499 -14.501s-12.5 -21.5 -12.5 -35.5c0 -16 4.66699 -27.833 14 -35.5s19.666 -11.5 30.999 -11.5c30.667 0.666992 46.667 17.334 48 50.001c0 12 -4.16699 22.833 -12.5 32.5
s-18.5 14.5 -30.5 14.5h-1zM317.001 632c-16 0 -28.168 -4.83301 -36.501 -14.5s-12.5 -21.5 -12.5 -35.5c0 -16 4.83301 -27.833 14.5 -35.5s19.834 -11.5 30.501 -11.5c14 0 25.5 4.33301 34.5 13s13.5 21 13.5 37c0 12 -4.16699 22.833 -12.5 32.5s-18.5 14.5 -30.5 14.5
h-1z" />
    <glyph glyph-name="igrave" unicode="&#xec;" horiz-adv-x="221" 
d="M154 382c0 28 -1.16602 45.334 -3.49902 52.001s-5.83301 10 -10.5 10c-8 0 -20.333 -1 -37 -3s-29 -4.33301 -37 -7l2.5 -42c1 -17.333 1.5 -41 1.5 -71v-170c0 -29.333 -0.5 -57.833 -1.5 -85.5s-1.5 -51.5 -1.5 -71.5c29.333 1.33301 51.333 3 66 5
c7.33301 0.666992 12.666 2.66699 15.999 6s5 9.66602 5 18.999v358zM63.001 684.001c-9.33301 0 -18.667 -2.33301 -28 -7s-17.333 -10 -24 -16c-8.66699 -8.66699 -10 -15.667 -4 -21c20 -21.333 39.667 -44.833 59 -70.5s35.333 -47.834 48 -66.501
c7.33301 2 16 6.66699 26 14c7.33301 4.66699 8.66602 12.667 3.99902 24c-4 11.333 -9.83301 25 -17.5 41s-15.5 31.5 -23.5 46.5s-15.667 27.833 -23 38.5s-12.666 16.334 -15.999 17.001h-1z" />
    <glyph glyph-name="iacute" unicode="&#xed;" horiz-adv-x="221" 
d="M154 382c0 28 -1.16602 45.334 -3.49902 52.001s-5.83301 10 -10.5 10c-8 0 -20.333 -1 -37 -3s-29 -4.33301 -37 -7l2.5 -42c1 -17.333 1.5 -41 1.5 -71v-170c0 -29.333 -0.5 -57.833 -1.5 -85.5s-1.5 -51.5 -1.5 -71.5c29.333 1.33301 51.333 3 66 5
c7.33301 0.666992 12.666 2.66699 15.999 6s5 9.66602 5 18.999v358zM153.001 682.001c-4.66699 0 -10.668 -5.50195 -18.001 -16.502s-15 -23.833 -23 -38.5s-15.667 -29.667 -23 -45s-13 -28 -17 -38c-4 -8 -5.83301 -14 -5.5 -18s1.83301 -7 4.5 -9
c6.66699 -7.33301 15.334 -12.666 26.001 -15.999l49 66c18.667 25.333 38 49.333 58 72c8.66699 8.66699 9.66699 15.334 3 20.001c-6 5.33301 -14.167 10.5 -24.5 15.5s-19.833 7.5 -28.5 7.5h-1z" />
    <glyph glyph-name="icircumflex" unicode="&#xee;" horiz-adv-x="221" 
d="M153 382c0 28 -1.16602 45.334 -3.49902 52.001s-5.83301 10 -10.5 10c-8 0 -20.333 -1 -37 -3s-29 -4.33301 -37 -7l2.5 -42c1 -17.333 1.5 -41 1.5 -71v-170c0 -29.333 -0.5 -57.833 -1.5 -85.5s-1.5 -51.5 -1.5 -71.5c29.333 1.33301 51.333 3 66 5
c7.33301 0.666992 12.666 2.66699 15.999 6s5 9.66602 5 18.999v358zM43.001 505.001c4.66699 0.666992 9 3.33105 13 7.99805l29 48l26 46c10 -20 19.5 -37.167 28.5 -51.5l24.5 -40.5c4 -7.33301 9.33301 -10.666 16 -9.99902c8 0 16.167 2 24.5 6s14.833 8 19.5 12
l-91 157c-10.667 0 -21.667 -1.33301 -33 -4c-8 -1.33301 -14 -6.66602 -18 -15.999c-13.333 -25.333 -26.833 -49 -40.5 -71l-42.5 -70c5.33301 -4 12.333 -7.33301 21 -10s16 -4 22 -4h1z" />
    <glyph glyph-name="idieresis" unicode="&#xef;" horiz-adv-x="221" 
d="M153 382c0 28 -1.16602 45.334 -3.49902 52.001s-5.83301 10 -10.5 10c-8 0 -20.333 -1 -37 -3s-29 -4.33301 -37 -7l2.5 -42c1 -17.333 1.5 -41 1.5 -71v-170c0 -29.333 -0.5 -57.833 -1.5 -85.5s-1.5 -51.5 -1.5 -71.5c29.333 1.33301 51.333 3 66 5
c7.33301 0.666992 12.666 2.66699 15.999 6s5 9.66602 5 18.999v358zM31.001 632.001c-16 0 -28.166 -4.83398 -36.499 -14.501s-12.5 -21.5 -12.5 -35.5c0 -16 4.66699 -27.833 14 -35.5s19.666 -11.5 30.999 -11.5c30.667 0.666992 46.667 17.334 48 50.001
c0 12 -4.16699 22.833 -12.5 32.5s-18.5 14.5 -30.5 14.5h-1zM202.002 632c-16 0 -28.168 -4.83301 -36.501 -14.5s-12.5 -21.5 -12.5 -35.5c0 -16 4.83301 -27.833 14.5 -35.5s19.834 -11.5 30.501 -11.5c14 0 25.5 4.33301 34.5 13s13.5 21 13.5 37
c0 12 -4.16699 22.833 -12.5 32.5s-18.5 14.5 -30.5 14.5h-1z" />
    <glyph glyph-name="eth" unicode="&#xf0;" horiz-adv-x="498" 
d="M422 608c7.33301 4.66699 11.999 11.3369 13.999 20.0039s3 18 3 28c0.666992 10.667 -5.33301 12.667 -18 6l-112 -57c-28.667 21.333 -60.167 39 -94.5 53s-60.5 21 -78.5 21c-14.667 0.666992 -25.667 -6.33301 -33 -21c-4.66699 -5.33301 -9.66699 -12.333 -15 -21
l1 -2c22.667 -4 48.334 -11.833 77.001 -23.5s53 -24.834 73 -39.501l-103 -49c-7.33301 -8.66699 -11.333 -23.334 -12 -44.001c-1.33301 -11.333 4.66699 -14 18 -8l139 68c30 -28 53.667 -66 71 -114c-14 9.33301 -28.5 15.666 -43.5 18.999s-29.167 5 -42.5 5
c-70 0 -126.333 -22.667 -169 -68s-64 -102.333 -64 -171c0 -68 19 -122 57 -162s90 -60 156 -60c61.333 0 113.333 22.167 156 66.5s64 111.166 64 200.499c0 62 -10.167 120.667 -30.5 176s-48.833 102 -85.5 140zM264.999 393.003c19.333 0 37.833 -3.33496 55.5 -10.002
s32.5 -15.667 44.5 -27c3.33301 -10 6.5 -23.833 9.5 -41.5s4.5 -38.167 4.5 -61.5c0 -69.333 -11.5 -121.666 -34.5 -156.999s-54.5 -53 -94.5 -53c-27.333 0 -55.333 13 -84 39s-43 70.667 -43 134c0 56.667 13.5 100.334 40.5 131.001s60.5 46 100.5 46h1z" />
    <glyph glyph-name="ntilde" unicode="&#xf1;" horiz-adv-x="516" 
d="M362 8c0 -9.33301 4.99805 -13.999 14.998 -13.999c12.667 0 25.5 1 38.5 3s24.833 3.66699 35.5 5c-2 25.333 -3.33301 67 -4 125v140c0 48 -10 90.333 -30 127s-58.667 55 -116 55c-28 0 -54.833 -7.5 -80.5 -22.5s-48.167 -32.167 -67.5 -51.5
c-2 14 -5.83301 29.833 -11.5 47.5s-16.167 26.5 -31.5 26.5c-9.33301 0 -19.666 -3.83301 -30.999 -11.5s-19 -15.5 -23 -23.5v-4c6 -4.66699 10.333 -11.667 13 -21s4 -23 4 -41v-170c0 -88 -1 -149.333 -3 -184c22 0 44 1.33301 66 4c8 1.33301 13.5 3.33301 16.5 6
s4.5 9 4.5 19v299c11.333 13.333 26.5 26.666 45.5 39.999s41.5 20 67.5 20c28.667 0 51.334 -9.66699 68.001 -29s25 -48.333 25 -87zM212.998 648.001c-28 0 -48.002 -11.999 -60.002 -35.999s-19 -49 -21 -75c4 -2 10.167 -4 18.5 -6s15.5 -3 21.5 -3
c5.33301 0.666992 8.33301 4.33398 9 11.001c7.33301 30.667 17 46.667 29 48c4.66699 0 9 -2 13 -6l17 -17c9.33301 -11.333 18.5 -20.833 27.5 -28.5s19.5 -11.5 31.5 -11.5c42.667 1.33301 67.334 37.666 74.001 108.999c-5.33301 4 -11.833 7.5 -19.5 10.5
s-13.5 4.5 -17.5 4.5c-5.33301 0 -8.66602 -3.66699 -9.99902 -11c-4 -18.667 -8.16699 -31.5 -12.5 -38.5s-8.83301 -10.5 -13.5 -10.5c-8 1.33301 -17.333 9.66602 -28 24.999c-8 9.33301 -16.667 17.5 -26 24.5s-20 10.5 -32 10.5h-1z" />
    <glyph glyph-name="ograve" unicode="&#xf2;" horiz-adv-x="502" 
d="M255 449c-66 0 -119.667 -22.667 -161 -68s-62 -101 -62 -167c0 -59.333 17.833 -111.833 53.5 -157.5s90.167 -68.5 163.5 -68.5c67.333 0 120.833 22.5 160.5 67.5s59.5 100.833 59.5 167.5c0 63.333 -18 116.833 -54 160.5s-89 65.5 -159 65.5h-1zM248 394
c45.333 0 78.501 -18.167 99.501 -54.5s31.5 -77.5 31.5 -123.5c0 -62 -12.833 -106.333 -38.5 -133s-53.5 -40 -83.5 -40c-36.667 0 -68.334 15 -95.001 45s-40 75.667 -40 137c0 54 12.333 95.667 37 125s54 44 88 44h1zM204.001 684c-9.33301 0 -18.667 -2.33301 -28 -7
s-17.333 -10 -24 -16c-8.66699 -8.66699 -10 -15.667 -4 -21c20 -21.333 39.667 -44.833 59 -70.5s35.333 -47.834 48 -66.501c7.33301 2 16 6.66699 26 14c7.33301 4.66699 8.66602 12.667 3.99902 24c-4 11.333 -9.83301 25 -17.5 41s-15.5 31.5 -23.5 46.5
s-15.667 27.833 -23 38.5s-12.666 16.334 -15.999 17.001h-1z" />
    <glyph glyph-name="oacute" unicode="&#xf3;" horiz-adv-x="502" 
d="M255 449c-66 0 -119.667 -22.667 -161 -68s-62 -101 -62 -167c0 -59.333 17.833 -111.833 53.5 -157.5s90.167 -68.5 163.5 -68.5c67.333 0 120.833 22.5 160.5 67.5s59.5 100.833 59.5 167.5c0 63.333 -18 116.833 -54 160.5s-89 65.5 -159 65.5h-1zM248 394
c45.333 0 78.501 -18.167 99.501 -54.5s31.5 -77.5 31.5 -123.5c0 -62 -12.833 -106.333 -38.5 -133s-53.5 -40 -83.5 -40c-36.667 0 -68.334 15 -95.001 45s-40 75.667 -40 137c0 54 12.333 95.667 37 125s54 44 88 44h1zM286.001 682
c-4.66699 0 -10.668 -5.50195 -18.001 -16.502s-15 -23.833 -23 -38.5s-15.667 -29.667 -23 -45s-13 -28 -17 -38c-4 -8 -5.83301 -14 -5.5 -18s1.83301 -7 4.5 -9c6.66699 -7.33301 15.334 -12.666 26.001 -15.999l49 66c18.667 25.333 38 49.333 58 72
c8.66699 8.66699 9.66699 15.334 3 20.001c-6 5.33301 -14.167 10.5 -24.5 15.5s-19.833 7.5 -28.5 7.5h-1z" />
    <glyph glyph-name="ocircumflex" unicode="&#xf4;" horiz-adv-x="502" 
d="M255 449c-66 0 -119.667 -22.667 -161 -68s-62 -101 -62 -167c0 -59.333 17.833 -111.833 53.5 -157.5s90.167 -68.5 163.5 -68.5c67.333 0 120.833 22.5 160.5 67.5s59.5 100.833 59.5 167.5c0 63.333 -18 116.833 -54 160.5s-89 65.5 -159 65.5h-1zM248 394
c45.333 0 78.501 -18.167 99.501 -54.5s31.5 -77.5 31.5 -123.5c0 -62 -12.833 -106.333 -38.5 -133s-53.5 -40 -83.5 -40c-36.667 0 -68.334 15 -95.001 45s-40 75.667 -40 137c0 54 12.333 95.667 37 125s54 44 88 44h1zM191.001 505
c4.66699 0.666992 9 3.33105 13 7.99805l29 48l26 46c10 -20 19.5 -37.167 28.5 -51.5l24.5 -40.5c4 -7.33301 9.33301 -10.666 16 -9.99902c8 0 16.167 2 24.5 6s14.833 8 19.5 12l-91 157c-10.667 0 -21.667 -1.33301 -33 -4c-8 -1.33301 -14 -6.66602 -18 -15.999
c-13.333 -25.333 -26.833 -49 -40.5 -71l-42.5 -70c5.33301 -4 12.333 -7.33301 21 -10s16 -4 22 -4h1z" />
    <glyph glyph-name="otilde" unicode="&#xf5;" horiz-adv-x="502" 
d="M255 449c-66 0 -119.667 -22.667 -161 -68s-62 -101 -62 -167c0 -59.333 17.833 -111.833 53.5 -157.5s90.167 -68.5 163.5 -68.5c67.333 0 120.833 22.5 160.5 67.5s59.5 100.833 59.5 167.5c0 63.333 -18 116.833 -54 160.5s-89 65.5 -159 65.5h-1zM248 394
c45.333 0 78.501 -18.167 99.501 -54.5s31.5 -77.5 31.5 -123.5c0 -62 -12.833 -106.333 -38.5 -133s-53.5 -40 -83.5 -40c-36.667 0 -68.334 15 -95.001 45s-40 75.667 -40 137c0 54 12.333 95.667 37 125s54 44 88 44h1zM205.001 648
c-28 0 -48.002 -11.999 -60.002 -35.999s-19 -49 -21 -75c4 -2 10.167 -4 18.5 -6s15.5 -3 21.5 -3c5.33301 0.666992 8.33301 4.33398 9 11.001c7.33301 30.667 17 46.667 29 48c4.66699 0 9 -2 13 -6l17 -17c9.33301 -11.333 18.5 -20.833 27.5 -28.5
s19.5 -11.5 31.5 -11.5c42.667 1.33301 67.334 37.666 74.001 108.999c-5.33301 4 -11.833 7.5 -19.5 10.5s-13.5 4.5 -17.5 4.5c-5.33301 0 -8.66602 -3.66699 -9.99902 -11c-4 -18.667 -8.16699 -31.5 -12.5 -38.5s-8.83301 -10.5 -13.5 -10.5
c-8 1.33301 -17.333 9.66602 -28 24.999c-8 9.33301 -16.667 17.5 -26 24.5s-20 10.5 -32 10.5h-1z" />
    <glyph glyph-name="odieresis" unicode="&#xf6;" horiz-adv-x="502" 
d="M255 449c-66 0 -119.667 -22.667 -161 -68s-62 -101 -62 -167c0 -59.333 17.833 -111.833 53.5 -157.5s90.167 -68.5 163.5 -68.5c67.333 0 120.833 22.5 160.5 67.5s59.5 100.833 59.5 167.5c0 63.333 -18 116.833 -54 160.5s-89 65.5 -159 65.5h-1zM248 394
c45.333 0 78.501 -18.167 99.501 -54.5s31.5 -77.5 31.5 -123.5c0 -62 -12.833 -106.333 -38.5 -133s-53.5 -40 -83.5 -40c-36.667 0 -68.334 15 -95.001 45s-40 75.667 -40 137c0 54 12.333 95.667 37 125s54 44 88 44h1zM162.001 632
c-16 0 -28.166 -4.83398 -36.499 -14.501s-12.5 -21.5 -12.5 -35.5c0 -16 4.66699 -27.833 14 -35.5s19.666 -11.5 30.999 -11.5c30.667 0.666992 46.667 17.334 48 50.001c0 12 -4.16699 22.833 -12.5 32.5s-18.5 14.5 -30.5 14.5h-1zM333.002 631.999
c-16 0 -28.168 -4.83301 -36.501 -14.5s-12.5 -21.5 -12.5 -35.5c0 -16 4.83301 -27.833 14.5 -35.5s19.834 -11.5 30.501 -11.5c14 0 25.5 4.33301 34.5 13s13.5 21 13.5 37c0 12 -4.16699 22.833 -12.5 32.5s-18.5 14.5 -30.5 14.5h-1z" />
    <glyph glyph-name="divide" unicode="&#xf7;" horiz-adv-x="572" 
d="M284 354c14 0 25.5 4.33301 34.5 13s13.5 20 13.5 34c0 12 -4.33301 22.833 -13 32.5s-20 14.5 -34 14.5c-12 0 -22.5 -4.83301 -31.5 -14.5s-13.5 -20.5 -13.5 -32.5c0 -12.667 4.16699 -23.667 12.5 -33s18.5 -14 30.5 -14h1zM478 217c12 0 20.332 5 24.999 15
s7.33398 24.667 8.00098 44h-420c-10.667 0 -18.167 -5.16699 -22.5 -15.5s-6.5 -24.833 -6.5 -43.5h416zM284.999 139c-13.333 0 -24.332 -4.5 -32.999 -13.5s-13 -19.833 -13 -32.5c0 -14 4.33301 -25.5 13 -34.5s19.667 -13.5 33 -13.5c11.333 0 21.666 4.5 30.999 13.5
s14 20.5 14 34.5c0 12 -4.33301 22.667 -13 32s-19 14 -31 14h-1z" />
    <glyph glyph-name="oslash" unicode="&#xf8;" horiz-adv-x="513" 
d="M437 429c-3.33301 10.667 -8.99902 20.6641 -16.999 29.9971c-4 4 -7.5 5.83301 -10.5 5.5s-7.5 -4.5 -13.5 -12.5l-8.5 -12c-2.33301 -3.33301 -7.16602 -9.66602 -14.499 -18.999c-16.667 9.33301 -34 16.333 -52 21s-38.667 7 -62 7
c-66 0 -120.167 -22.667 -162.5 -68s-63.5 -100.333 -63.5 -165c0 -33.333 5.66699 -65.166 17 -95.499s28.333 -55.833 51 -76.5c-9.33301 -13.333 -15.833 -22.166 -19.5 -26.499s-7.16699 -8.83301 -10.5 -13.5c3.33301 -10.667 9 -20.334 17 -29.001
c8 -9.33301 15.667 -8 23 4l9.5 13l18.5 25c31.333 -19.333 71.666 -29 120.999 -29c65.333 0 118.333 22.333 159 67s61 99.667 61 165c0 34 -5.83301 66.333 -17.5 97s-28.834 56.334 -51.501 77.001zM149.001 108.997c-20.667 28.667 -31.333 66 -32 112
c0 55.333 13.833 98.333 41.5 129s59.5 46 95.5 46c30.667 0 57 -9.66699 79 -29zM364.002 329.997c9.33301 -12.667 16.833 -28.833 22.5 -48.5s8.5 -41.167 8.5 -64.5c0 -62 -14.167 -106.833 -42.5 -134.5s-58.5 -41.5 -90.5 -41.5c-14.667 0 -29.5 2.66699 -44.5 8
s-28.167 13 -39.5 23z" />
    <glyph glyph-name="ugrave" unicode="&#xf9;" horiz-adv-x="513" 
d="M69 153c0 -49.333 11.833 -89.165 35.5 -119.498s60.834 -45.5 111.501 -45.5c22.667 0 44 4.33301 64 13c10 4.66699 22.667 11.5 38 20.5s30.333 21.5 45 37.5c2 -22 8.83301 -39.333 20.5 -52s28.167 -19 49.5 -19c10 0 19.833 5.33301 29.5 16s14.834 21 15.501 31v4
c-14 2 -24.167 7 -30.5 15s-9.5 24.333 -9.5 49v161c0 43.333 0.5 81.333 1.5 114s1.5 54.667 1.5 66c-21.333 -0.666992 -45 -2.66699 -71 -6c-6.66699 -2.66699 -11 -6 -13 -10s-3 -12 -3 -24v-296c-8 -10.667 -21.333 -21.834 -40 -33.501s-39.667 -17.5 -63 -17.5
c-11.333 0 -22.833 1.16699 -34.5 3.5s-22.334 7.66602 -32.001 15.999s-17.334 20.5 -23.001 36.5s-8.5 37.333 -8.5 64c0 32 -0.166992 65.833 -0.5 101.5s-0.5 70.167 -0.5 103.5c0 28 -1 45.333 -3 52s-5.66699 10 -11 10c-8.66699 0 -21 -1.16699 -37 -3.5
s-28 -4.5 -36 -6.5l2.5 -42.5c1 -17 1.5 -40.5 1.5 -70.5v-168zM203 684.001c-9.33301 0 -18.667 -2.33301 -28 -7s-17.333 -10 -24 -16c-8.66699 -8.66699 -10 -15.667 -4 -21c20 -21.333 39.667 -44.833 59 -70.5s35.333 -47.834 48 -66.501c7.33301 2 16 6.66699 26 14
c7.33301 4.66699 8.66602 12.667 3.99902 24c-4 11.333 -9.83301 25 -17.5 41s-15.5 31.5 -23.5 46.5s-15.667 27.833 -23 38.5s-12.666 16.334 -15.999 17.001h-1z" />
    <glyph glyph-name="uacute" unicode="&#xfa;" horiz-adv-x="513" 
d="M69 153c0 -49.333 11.833 -89.165 35.5 -119.498s60.834 -45.5 111.501 -45.5c22.667 0 44 4.33301 64 13c10 4.66699 22.667 11.5 38 20.5s30.333 21.5 45 37.5c2 -22 8.83301 -39.333 20.5 -52s28.167 -19 49.5 -19c10 0 19.833 5.33301 29.5 16s14.834 21 15.501 31v4
c-14 2 -24.167 7 -30.5 15s-9.5 24.333 -9.5 49v161c0 43.333 0.5 81.333 1.5 114s1.5 54.667 1.5 66c-21.333 -0.666992 -45 -2.66699 -71 -6c-6.66699 -2.66699 -11 -6 -13 -10s-3 -12 -3 -24v-296c-8 -10.667 -21.333 -21.834 -40 -33.501s-39.667 -17.5 -63 -17.5
c-11.333 0 -22.833 1.16699 -34.5 3.5s-22.334 7.66602 -32.001 15.999s-17.334 20.5 -23.001 36.5s-8.5 37.333 -8.5 64c0 32 -0.166992 65.833 -0.5 101.5s-0.5 70.167 -0.5 103.5c0 28 -1 45.333 -3 52s-5.66699 10 -11 10c-8.66699 0 -21 -1.16699 -37 -3.5
s-28 -4.5 -36 -6.5l2.5 -42.5c1 -17 1.5 -40.5 1.5 -70.5v-168zM299 682.001c-4.66699 0 -10.668 -5.50195 -18.001 -16.502s-15 -23.833 -23 -38.5s-15.667 -29.667 -23 -45s-13 -28 -17 -38c-4 -8 -5.83301 -14 -5.5 -18s1.83301 -7 4.5 -9
c6.66699 -7.33301 15.334 -12.666 26.001 -15.999l49 66c18.667 25.333 38 49.333 58 72c8.66699 8.66699 9.66699 15.334 3 20.001c-6 5.33301 -14.167 10.5 -24.5 15.5s-19.833 7.5 -28.5 7.5h-1z" />
    <glyph glyph-name="ucircumflex" unicode="&#xfb;" horiz-adv-x="513" 
d="M69 153c0 -49.333 11.833 -89.165 35.5 -119.498s60.834 -45.5 111.501 -45.5c22.667 0 44 4.33301 64 13c10 4.66699 22.667 11.5 38 20.5s30.333 21.5 45 37.5c2 -22 8.83301 -39.333 20.5 -52s28.167 -19 49.5 -19c10 0 19.833 5.33301 29.5 16s14.834 21 15.501 31v4
c-14 2 -24.167 7 -30.5 15s-9.5 24.333 -9.5 49v161c0 43.333 0.5 81.333 1.5 114s1.5 54.667 1.5 66c-21.333 -0.666992 -45 -2.66699 -71 -6c-6.66699 -2.66699 -11 -6 -13 -10s-3 -12 -3 -24v-296c-8 -10.667 -21.333 -21.834 -40 -33.501s-39.667 -17.5 -63 -17.5
c-11.333 0 -22.833 1.16699 -34.5 3.5s-22.334 7.66602 -32.001 15.999s-17.334 20.5 -23.001 36.5s-8.5 37.333 -8.5 64c0 32 -0.166992 65.833 -0.5 101.5s-0.5 70.167 -0.5 103.5c0 28 -1 45.333 -3 52s-5.66699 10 -11 10c-8.66699 0 -21 -1.16699 -37 -3.5
s-28 -4.5 -36 -6.5l2.5 -42.5c1 -17 1.5 -40.5 1.5 -70.5v-168zM186 506.001c5.33301 0.666992 9.66602 3.33203 12.999 7.99902l29 48l26 46c10 -20 19.5 -37.167 28.5 -51.5l24.5 -40.5c4.66699 -7.33301 10 -10.666 16 -9.99902c8 0 16.167 2 24.5 6s14.833 8 19.5 12
c-31.333 51.333 -61.666 103.666 -90.999 156.999c-10.667 -0.666992 -21.667 -2 -33 -4c-8 -1.33301 -14 -6.66602 -18 -15.999c-13.333 -25.333 -26.833 -49 -40.5 -71l-42.5 -70c5.33301 -4 12.333 -7.33301 21 -10s16 -4 22 -4h1z" />
    <glyph glyph-name="udieresis" unicode="&#xfc;" horiz-adv-x="513" 
d="M69 153c0 -49.333 11.833 -89.165 35.5 -119.498s60.834 -45.5 111.501 -45.5c22.667 0 44 4.33301 64 13c10 4.66699 22.667 11.5 38 20.5s30.333 21.5 45 37.5c2 -22 8.83301 -39.333 20.5 -52s28.167 -19 49.5 -19c10 0 19.833 5.33301 29.5 16s14.834 21 15.501 31v4
c-14 2 -24.167 7 -30.5 15s-9.5 24.333 -9.5 49v161c0 43.333 0.5 81.333 1.5 114s1.5 54.667 1.5 66c-21.333 -0.666992 -45 -2.66699 -71 -6c-6.66699 -2.66699 -11 -6 -13 -10s-3 -12 -3 -24v-296c-8 -10.667 -21.333 -21.834 -40 -33.501s-39.667 -17.5 -63 -17.5
c-11.333 0 -22.833 1.16699 -34.5 3.5s-22.334 7.66602 -32.001 15.999s-17.334 20.5 -23.001 36.5s-8.5 37.333 -8.5 64c0 32 -0.166992 65.833 -0.5 101.5s-0.5 70.167 -0.5 103.5c0 28 -1 45.333 -3 52s-5.66699 10 -11 10c-8.66699 0 -21 -1.16699 -37 -3.5
s-28 -4.5 -36 -6.5l2.5 -42.5c1 -17 1.5 -40.5 1.5 -70.5v-168zM168 632.001c-16 0 -28.166 -4.83398 -36.499 -14.501s-12.5 -21.5 -12.5 -35.5c0 -16 4.66699 -27.833 14 -35.5s19.666 -11.5 30.999 -11.5c30.667 0.666992 46.667 17.334 48 50.001
c0 12 -4.16699 22.833 -12.5 32.5s-18.5 14.5 -30.5 14.5h-1zM339.001 632c-16 0 -28.168 -4.83301 -36.501 -14.5s-12.5 -21.5 -12.5 -35.5c0 -16 4.83301 -27.833 14.5 -35.5s19.834 -11.5 30.501 -11.5c14 0 25.5 4.33301 34.5 13s13.5 21 13.5 37
c0 12 -4.16699 22.833 -12.5 32.5s-18.5 14.5 -30.5 14.5h-1z" />
    <glyph glyph-name="yacute" unicode="&#xfd;" horiz-adv-x="421" 
d="M49 -187c4 -6 11.8301 -11.6641 23.4971 -16.9971s23.5 -8 35.5 -8c4 0 12.333 8.16699 25 24.5s27.5 37.666 44.5 63.999s35 56.5 54 90.5s36.833 69 53.5 105c28 62 51.833 121.833 71.5 179.5s35.834 108.5 48.501 152.5c2 10 2.33301 17.667 1 23
s-5.66602 9.66602 -12.999 12.999c-8 2.66699 -16.667 4.83398 -26 6.50098s-18 2.5 -26 2.5c-4.66699 -20.667 -11.5 -45.834 -20.5 -75.501l-29 -92.5c-10.333 -32 -21.166 -63.333 -32.499 -94s-22 -57 -32 -79l-26 71l-33.5 93l-33 91.5l-24.5 67.5
c-2.66699 5.33301 -5.5 9.66602 -8.5 12.999s-7.5 5 -13.5 5c-8.66699 0 -20.167 -2.5 -34.5 -7.5s-26.166 -10.167 -35.499 -15.5c10.667 -24 23.5 -54.5 38.5 -91.5l43.5 -110l38 -99c11.333 -29.667 19 -49.167 23 -58.5c3.33301 -9.33301 7.16602 -18.333 11.499 -27
s7.83301 -14.667 10.5 -18c-22 -42 -45.833 -81.833 -71.5 -119.5s-46.5 -66.5 -62.5 -86.5v-3zM264.997 682.003c-4.66699 0 -10.668 -5.50195 -18.001 -16.502s-15 -23.833 -23 -38.5s-15.667 -29.667 -23 -45s-13 -28 -17 -38c-4 -8 -5.83301 -14 -5.5 -18
s1.83301 -7 4.5 -9c6.66699 -7.33301 15.334 -12.666 26.001 -15.999l49 66c18.667 25.333 38 49.333 58 72c8.66699 8.66699 9.66699 15.334 3 20.001c-6 5.33301 -14.167 10.5 -24.5 15.5s-19.833 7.5 -28.5 7.5h-1z" />
    <glyph glyph-name="thorn" unicode="&#xfe;" horiz-adv-x="513" 
d="M154 12c9.33301 -6 21.833 -11.499 37.5 -16.499s32.834 -7.5 51.501 -7.5c34.667 0 66.5 6.33301 95.5 19s54 30.167 75 52.5s37.5 48.666 49.5 78.999s18 62.5 18 96.5c0 72 -18 125.667 -54 161s-78 53 -126 53c-25.333 0 -50 -5.5 -74 -16.5
s-48.333 -25.833 -73 -44.5v226c0 30 -1.16699 48.333 -3.5 55s-5.83301 10 -10.5 10c-7.33301 0 -19 -1.33301 -35 -4s-29 -6 -39 -10c0.666992 -10 1.5 -23.5 2.5 -40.5s1.5 -40.167 1.5 -69.5v-205v-388c0 -88 -1 -146.667 -3 -176c23.333 0 45.666 1.33301 66.999 4
c8 2 13.333 4.5 16 7.5s4 8.5 4 16.5v198zM154 332.001c10.667 10 26.1699 20.333 46.5029 31s42.833 16 67.5 16c40 0 70.5 -15.667 91.5 -47s31.5 -64 31.5 -98c0 -38 -5.33301 -69.167 -16 -93.5s-23.834 -43.5 -39.501 -57.5s-32.334 -23.667 -50.001 -29
s-33.5 -8 -47.5 -8s-28.333 1.83301 -43 5.5s-28.334 9.5 -41.001 17.5v263z" />
    <glyph glyph-name="ydieresis" unicode="&#xff;" horiz-adv-x="421" 
d="M49 -187c4 -6 11.8301 -11.6641 23.4971 -16.9971s23.5 -8 35.5 -8c4 0 12.333 8.16699 25 24.5s27.5 37.666 44.5 63.999s35 56.5 54 90.5s36.833 69 53.5 105c28 62 51.833 121.833 71.5 179.5s35.834 108.5 48.501 152.5c2 10 2.33301 17.667 1 23
s-5.66602 9.66602 -12.999 12.999c-8 2.66699 -16.667 4.83398 -26 6.50098s-18 2.5 -26 2.5c-4.66699 -20.667 -11.5 -45.834 -20.5 -75.501l-29 -92.5c-10.333 -32 -21.166 -63.333 -32.499 -94s-22 -57 -32 -79l-26 71l-33.5 93l-33 91.5l-24.5 67.5
c-2.66699 5.33301 -5.5 9.66602 -8.5 12.999s-7.5 5 -13.5 5c-8.66699 0 -20.167 -2.5 -34.5 -7.5s-26.166 -10.167 -35.499 -15.5c10.667 -24 23.5 -54.5 38.5 -91.5l43.5 -110l38 -99c11.333 -29.667 19 -49.167 23 -58.5c3.33301 -9.33301 7.16602 -18.333 11.499 -27
s7.83301 -14.667 10.5 -18c-22 -42 -45.833 -81.833 -71.5 -119.5s-46.5 -66.5 -62.5 -86.5v-3zM136.997 632.003c-16 0 -28.166 -4.83398 -36.499 -14.501s-12.5 -21.5 -12.5 -35.5c0 -16 4.66699 -27.833 14 -35.5s19.666 -11.5 30.999 -11.5
c30.667 0.666992 46.667 17.334 48 50.001c0 12 -4.16699 22.833 -12.5 32.5s-18.5 14.5 -30.5 14.5h-1zM307.998 632.002c-16 0 -28.168 -4.83301 -36.501 -14.5s-12.5 -21.5 -12.5 -35.5c0 -16 4.83301 -27.833 14.5 -35.5s19.834 -11.5 30.501 -11.5
c14 0 25.5 4.33301 34.5 13s13.5 21 13.5 37c0 12 -4.16699 22.833 -12.5 32.5s-18.5 14.5 -30.5 14.5h-1z" />
    <glyph glyph-name="Amacron" unicode="&#x100;" horiz-adv-x="625" 
d="M430 195l40.001 -96.001l32 -75c4.66699 -12 9.16699 -20 13.5 -24s9.83301 -6 16.5 -6c8 0 20 1 36 3s29.333 4.66699 40 8v4c-9.33301 18 -20.666 42.667 -33.999 74l-50 118l-38 86.5l-47 112.5l-47.5 115.5l-40.5 96.5c-3.33301 10.667 -11 16.334 -23 17.001
c-6 0 -16.167 -1.16699 -30.5 -3.5s-26.833 -4.5 -37.5 -6.5l12 -28l-47 -107l-73.5 -167l-77.5 -175.5l-59 -130.5v-5c7.33301 -4 17.166 -7 29.499 -9s22.5 -3 30.5 -3c11.333 0 18.666 4 21.999 12l34 77l49 112h250zM202.001 255.999l54 132l51 123l103 -255h-208z
M409.001 679.999c4 4.66699 8.16797 12.667 12.501 24s6.5 20.666 6.5 27.999c0.666992 6.66699 -3.33301 10 -12 10h-196c-2.66699 -2 -6 -8.16699 -10 -18.5s-6 -20.166 -6 -29.499c-0.666992 -9.33301 3.66602 -14 12.999 -14h192z" />
    <glyph glyph-name="amacron" unicode="&#x101;" horiz-adv-x="429" 
d="M406 52c-6.66699 -1.33301 -13.001 -1.99902 -19.001 -1.99902c-22 0 -33.333 10.667 -34 32c-0.666992 30 -0.5 65.333 0.5 106s1.5 72 1.5 94c0 47.333 -12.333 87 -37 119s-62 48 -112 48c-34 0 -65.833 -7.66699 -95.5 -23s-52.5 -30 -68.5 -44
c0.666992 -12.667 4.33398 -23.5 11.001 -32.5s17 -10.5 31 -4.5c14 9.33301 29.833 17.833 47.5 25.5s35.834 11.5 54.501 11.5c30 0 52 -9.5 66 -28.5s21 -40.167 21 -63.5v-30l-50 -10l-54 -15c-22 -6 -43.333 -14.5 -64 -25.5s-38.5 -25.333 -53.5 -43
s-22.5 -39.5 -22.5 -65.5c0 -30.667 10.667 -57.167 32 -79.5s49.333 -33.5 84 -33.5c26 0 50.333 6.5 73 19.5s41 27.5 55 43.5c2.66699 -16.667 9.66699 -31.334 21 -44.001s27.666 -19 48.999 -19c42.667 0 64 20.667 64 62zM112.999 114.001
c0 28 16.168 49.499 48.501 64.499s69.166 25.833 110.499 32.5v-78c0 -16.667 -2.33301 -27.667 -7 -33c-8 -10.667 -19.167 -21.167 -33.5 -31.5s-31.833 -15.5 -52.5 -15.5c-18 0 -33.5 5.33301 -46.5 16s-19.5 25.334 -19.5 44.001v1zM299 542
c4 4 8.16895 11.668 12.502 23.001s6.5 20.666 6.5 27.999c0.666992 6.66699 -3.33301 10 -12 10h-192c-2.66699 -2 -5.83398 -8.5 -9.50098 -19.5s-5.5 -20.5 -5.5 -28.5c-0.666992 -8.66699 3.66602 -13 12.999 -13h187z" />
    <glyph glyph-name="Abreve" unicode="&#x102;" horiz-adv-x="625" 
d="M430 195l40.001 -96.001l32 -75c4.66699 -12 9.16699 -20 13.5 -24s9.83301 -6 16.5 -6c8 0 20 1 36 3s29.333 4.66699 40 8v4c-9.33301 18 -20.666 42.667 -33.999 74l-50 118l-38 86.5l-47 112.5l-47.5 115.5l-40.5 96.5c-3.33301 10.667 -11 16.334 -23 17.001
c-6 0 -16.167 -1.16699 -30.5 -3.5s-26.833 -4.5 -37.5 -6.5l12 -28l-47 -107l-73.5 -167l-77.5 -175.5l-59 -130.5v-5c7.33301 -4 17.166 -7 29.499 -9s22.5 -3 30.5 -3c11.333 0 18.666 4 21.999 12l34 77l49 112h250zM202.001 255.999l54 132l51 123l103 -255h-208z
M240.001 790.999c-7.33301 0 -16.1689 -1.66602 -26.502 -4.99902s-15.5 -8.33301 -15.5 -15c-0.666992 -26.667 8.5 -51.167 27.5 -73.5s46.5 -33.5 82.5 -33.5c32 0 58.833 9.33301 80.5 28s35.167 45.667 40.5 81c0 5.33301 -5.16699 9.66602 -15.5 12.999
s-18.166 5 -23.499 5c-7.33301 -1.33301 -11.666 -5.33301 -12.999 -12c-10 -24 -20.167 -39.5 -30.5 -46.5s-22.5 -10.5 -36.5 -10.5s-25.833 3.83301 -35.5 11.5s-17.167 22.5 -22.5 44.5c-1.33301 8 -5 12.333 -11 13h-1z" />
    <glyph glyph-name="abreve" unicode="&#x103;" horiz-adv-x="429" 
d="M406 52c-6.66699 -1.33301 -13.001 -1.99902 -19.001 -1.99902c-22 0 -33.333 10.667 -34 32c-0.666992 30 -0.5 65.333 0.5 106s1.5 72 1.5 94c0 47.333 -12.333 87 -37 119s-62 48 -112 48c-34 0 -65.833 -7.66699 -95.5 -23s-52.5 -30 -68.5 -44
c0.666992 -12.667 4.33398 -23.5 11.001 -32.5s17 -10.5 31 -4.5c14 9.33301 29.833 17.833 47.5 25.5s35.834 11.5 54.501 11.5c30 0 52 -9.5 66 -28.5s21 -40.167 21 -63.5v-30l-50 -10l-54 -15c-22 -6 -43.333 -14.5 -64 -25.5s-38.5 -25.333 -53.5 -43
s-22.5 -39.5 -22.5 -65.5c0 -30.667 10.667 -57.167 32 -79.5s49.333 -33.5 84 -33.5c26 0 50.333 6.5 73 19.5s41 27.5 55 43.5c2.66699 -16.667 9.66699 -31.334 21 -44.001s27.666 -19 48.999 -19c42.667 0 64 20.667 64 62zM112.999 114.001
c0 28 16.168 49.499 48.501 64.499s69.166 25.833 110.499 32.5v-78c0 -16.667 -2.33301 -27.667 -7 -33c-8 -10.667 -19.167 -21.167 -33.5 -31.5s-31.833 -15.5 -52.5 -15.5c-18 0 -33.5 5.33301 -46.5 16s-19.5 25.334 -19.5 44.001v1zM145 659
c-8.66699 0 -18.167 -1.99805 -28.5 -5.99805s-15.5 -10 -15.5 -18c0 -36.667 8.66699 -65.334 26 -86.001s41 -31 71 -31c32 0 57.833 9.66699 77.5 29s31.834 50.333 36.501 93c0 5.33301 -4.83301 9.83301 -14.5 13.5s-17.834 5.5 -24.501 5.5
c-6.66699 -0.666992 -10 -3.66699 -10 -9c-4.66699 -25.333 -11.667 -44 -21 -56s-22.333 -18 -39 -18c-27.333 1.33301 -44 25.666 -50 72.999c-0.666992 6 -3 9.33301 -7 10h-1z" />
    <glyph glyph-name="Aogonek" unicode="&#x104;" horiz-adv-x="625" 
d="M433 192l38.5029 -94.5c9 -23 19.167 -47.5 30.5 -73.5c3.33301 -8.66699 6.66602 -14.834 9.99902 -18.501s8 -6.5 14 -8.5c-28 -20 -51 -43.5 -69 -70.5s-27 -53.5 -27 -79.5c0 -28 8.5 -50.167 25.5 -66.5s39.167 -24.5 66.5 -24.5c18 0 34.833 3 50.5 9
s27.5 12.667 35.5 20c2.66699 4 5.16699 11 7.5 21s3.5 17.333 3.5 22l-3 3c-8 -2.66699 -17 -5.5 -27 -8.5s-20.333 -4.5 -31 -4.5c-16.667 0 -29.167 4.66699 -37.5 14s-12.5 21.333 -12.5 36c0 27.333 10.667 53.5 32 78.5s43.666 44.5 66.999 58.5v5
c-8.66699 18 -19.5 42.5 -32.5 73.5l-49.5 118.5c-10 22 -22.333 50.833 -37 86.5l-46 112l-47.5 115l-39.5 96.5c-4.66699 10.667 -12.334 16.334 -23.001 17.001c-6.66699 0 -17.167 -1.16699 -31.5 -3.5s-26.833 -4.5 -37.5 -6.5l12 -28l-47.5 -106.5l-74.5 -166.5
l-78 -175.5l-59 -131.5l-1 -5c8 -4 18 -7 30 -9s22 -3 30 -3c12 0 19.333 4 22 12c8.66699 18 20 43.333 34 76l48 110h254zM202.003 253l108 257.001c14.667 -34.667 49 -120.334 103 -257.001h-211z" />
    <glyph glyph-name="aogonek" unicode="&#x105;" horiz-adv-x="429" 
d="M406 54c-7.33301 -2.66699 -14.6689 -4.00098 -22.002 -4.00098c-20 0.666992 -30.333 11.334 -31 32.001c-0.666992 30 -0.5 65.333 0.5 106s1.5 72 1.5 94c0 47.333 -12.333 87 -37 119s-62 48 -112 48c-34 0 -65.833 -7.66699 -95.5 -23s-52.5 -30 -68.5 -44
c0.666992 -12.667 4.33398 -23.5 11.001 -32.5s17 -10.833 31 -5.5c14 10 29.833 18.833 47.5 26.5s35.834 11.5 54.501 11.5c30 0 52 -9.5 66 -28.5s21 -40.167 21 -63.5v-29c-14 -2.66699 -30 -6 -48 -10l-54 -15c-22 -6 -43.667 -14.5 -65 -25.5s-39.5 -25.333 -54.5 -43
s-22.5 -39.5 -22.5 -65.5c0 -31.333 10.667 -58.166 32 -80.499s49.333 -33.5 84 -33.5c27.333 0 51.833 6.5 73.5 19.5s39.834 27.5 54.501 43.5c2 -12 6.33301 -23.333 13 -34s16 -18.334 28 -23.001c-30 -20.667 -53.5 -43.5 -70.5 -68.5s-25.5 -50.833 -25.5 -77.5
c0 -28 8.16699 -50.333 24.5 -67s38.166 -25 65.499 -25c18 0 35 3 51 9s28 12.667 36 20c2 4 4.33301 11 7 21s4 17.667 4 23l-3 3c-8 -3.33301 -17.167 -6.33301 -27.5 -9s-20.5 -4 -30.5 -4c-16.667 0 -29.167 5 -37.5 15s-12.5 21.333 -12.5 34
c0 20 5.66699 40.167 17 60.5s32 41.166 62 62.499c18.667 12.667 29 24.334 31 35.001zM112.997 113.999c0 28 16.167 49.499 48.5 64.499s69.166 25.833 110.499 32.5v-78c0 -16.667 -2.33301 -27.667 -7 -33c-8 -10.667 -19.167 -21.167 -33.5 -31.5
s-32.166 -15.5 -53.499 -15.5c-18 0 -33.333 5.33301 -46 16s-19 25.334 -19 44.001v1z" />
    <glyph glyph-name="Cacute" unicode="&#x106;" horiz-adv-x="585" 
d="M552 81c-14 -6 -34.835 -12.5 -62.502 -19.5s-56.834 -10.5 -87.501 -10.5c-88 0 -154.833 24.833 -200.5 74.5s-68.5 112.5 -68.5 188.5c0 86.667 24.667 152.167 74 196.5s107.666 66.5 174.999 66.5c28.667 0 55 -3.33301 79 -10s44.667 -14 62 -22
c10 -2 19.333 1.5 28 10.5s13.334 20.833 14.001 35.5c-8 9.33301 -28.5 20 -61.5 32s-72.5 18 -118.5 18c-49.333 0 -95.166 -8 -137.499 -24s-79.166 -38.333 -110.499 -67s-55.833 -63.5 -73.5 -104.5s-26.5 -86.5 -26.5 -136.5c0 -96 28.833 -174 86.5 -234
s142.834 -90 255.501 -90c33.333 0 63 3.33301 89 10s44.667 14 56 22c8 6 14.833 14.667 20.5 26s9.16699 23 10.5 35zM446.998 804c-6.66699 -0.666992 -16.8301 -4.16699 -30.4971 -10.5s-28.334 -13.5 -44.001 -21.5s-30.834 -16.667 -45.501 -26
s-26.667 -17.333 -36 -24c-10 -6.66699 -12.333 -15 -7 -25c4 -8 9 -14.667 15 -20l77.5 28c32.333 12 64.5 22.667 96.5 32c10.667 2 15 8 13 18c-2 8 -6.83301 17.5 -14.5 28.5s-15.834 17.833 -24.501 20.5z" />
    <glyph glyph-name="cacute" unicode="&#x107;" horiz-adv-x="418" 
d="M391 74c-14 -6 -30.668 -10.834 -50.001 -14.501s-38 -5.5 -56 -5.5s-36.5 2.5 -55.5 7.5s-36.5 13.667 -52.5 26s-29.167 29.333 -39.5 51s-15.5 49.167 -15.5 82.5c0 49.333 13.833 89.166 41.5 119.499s63.5 45.5 107.5 45.5c33.333 0 64 -7 92 -21
c12 -1.33301 21.167 3.33398 27.5 14.001s9.5 21.667 9.5 33c-6.66699 6.66699 -21.167 14.5 -43.5 23.5s-49.833 13.5 -82.5 13.5c-68 0 -125.167 -22.167 -171.5 -66.5s-69.5 -101.166 -69.5 -170.499c0 -44 7 -80.5 21 -109.5s32 -52 54 -69s46.333 -28.833 73 -35.5
s53 -10 79 -10c20.667 0 40.667 2.16699 60 6.5s35 10.5 47 18.5c7.33301 5.33301 13.333 13.5 18 24.5s7.33398 22.5 8.00098 34.5zM293.999 681.999c-4.66699 0 -10.668 -5.50195 -18.001 -16.502s-15 -23.833 -23 -38.5s-15.667 -29.667 -23 -45s-13 -28 -17 -38
c-4 -8 -5.83301 -14 -5.5 -18s1.83301 -7 4.5 -9c6.66699 -7.33301 15.334 -12.666 26.001 -15.999l49 66c18.667 25.333 38 49.333 58 72c8.66699 8.66699 9.66699 15.334 3 20.001c-6 5.33301 -14.167 10.5 -24.5 15.5s-19.833 7.5 -28.5 7.5h-1z" />
    <glyph glyph-name="Ccircumflex" unicode="&#x108;" horiz-adv-x="585" 
d="M552 81c-14 -6 -34.835 -12.5 -62.502 -19.5s-56.834 -10.5 -87.501 -10.5c-88 0 -154.833 24.833 -200.5 74.5s-68.5 112.5 -68.5 188.5c0 86.667 24.667 152.167 74 196.5s107.666 66.5 174.999 66.5c28.667 0 55 -3.33301 79 -10s44.667 -14 62 -22
c10 -2 19.333 1.5 28 10.5s13.334 20.833 14.001 35.5c-8 9.33301 -28.5 20 -61.5 32s-72.5 18 -118.5 18c-49.333 0 -95.166 -8 -137.499 -24s-79.166 -38.333 -110.499 -67s-55.833 -63.5 -73.5 -104.5s-26.5 -86.5 -26.5 -136.5c0 -96 28.833 -174 86.5 -234
s142.834 -90 255.501 -90c33.333 0 63 3.33301 89 10s44.667 14 56 22c8 6 14.833 14.667 20.5 26s9.16699 23 10.5 35zM270.998 678c7.33301 1.33301 14.0029 3.66895 20.0029 7.00195c10 6.66699 20.833 15.167 32.5 25.5s23.167 21.166 34.5 32.499
c14.667 -14 28.167 -26.333 40.5 -37s21.833 -18 28.5 -22c6 -4 13.667 -6 23 -6c6 0 13.167 2.66699 21.5 8s14.166 11 17.499 17c-42.667 34 -81 70.667 -115 110c-8 0.666992 -17 -0.333008 -27 -3c-6 -2.66699 -11.333 -6.33398 -16 -11.001
c-30 -38 -64 -70.667 -102 -98c3.33301 -5.33301 9.16602 -10.5 17.499 -15.5s16.166 -7.5 23.499 -7.5h1z" />
    <glyph glyph-name="ccircumflex" unicode="&#x109;" horiz-adv-x="418" 
d="M391 74c-14 -6 -30.668 -10.834 -50.001 -14.501s-38 -5.5 -56 -5.5s-36.5 2.5 -55.5 7.5s-36.5 13.667 -52.5 26s-29.167 29.333 -39.5 51s-15.5 49.167 -15.5 82.5c0 49.333 13.833 89.166 41.5 119.499s63.5 45.5 107.5 45.5c33.333 0 64 -7 92 -21
c12 -1.33301 21.167 3.33398 27.5 14.001s9.5 21.667 9.5 33c-6.66699 6.66699 -21.167 14.5 -43.5 23.5s-49.833 13.5 -82.5 13.5c-68 0 -125.167 -22.167 -171.5 -66.5s-69.5 -101.166 -69.5 -170.499c0 -44 7 -80.5 21 -109.5s32 -52 54 -69s46.333 -28.833 73 -35.5
s53 -10 79 -10c20.667 0 40.667 2.16699 60 6.5s35 10.5 47 18.5c7.33301 5.33301 13.333 13.5 18 24.5s7.33398 22.5 8.00098 34.5zM180.999 504.999c4.66699 0.666992 9 3.33105 13 7.99805l29 48l26 46c10 -20 19.5 -37.167 28.5 -51.5l24.5 -40.5
c4 -7.33301 9.33301 -10.666 16 -9.99902c8 0 16.167 2 24.5 6s14.833 8 19.5 12l-91 157c-10.667 0 -21.667 -1.33301 -33 -4c-8 -1.33301 -14 -6.66602 -18 -15.999c-13.333 -25.333 -26.833 -49 -40.5 -71l-42.5 -70c5.33301 -4 12.333 -7.33301 21 -10s16 -4 22 -4h1z
" />
    <glyph glyph-name="Cdot" unicode="&#x10a;" horiz-adv-x="585" 
d="M552 81c-14 -6 -34.835 -12.5 -62.502 -19.5s-56.834 -10.5 -87.501 -10.5c-88 0 -154.833 24.833 -200.5 74.5s-68.5 112.5 -68.5 188.5c0 86.667 24.667 152.167 74 196.5s107.666 66.5 174.999 66.5c28.667 0 55 -3.33301 79 -10s44.667 -14 62 -22
c10 -2 19.333 1.5 28 10.5s13.334 20.833 14.001 35.5c-8 9.33301 -28.5 20 -61.5 32s-72.5 18 -118.5 18c-49.333 0 -95.166 -8 -137.499 -24s-79.166 -38.333 -110.499 -67s-55.833 -63.5 -73.5 -104.5s-26.5 -86.5 -26.5 -136.5c0 -96 28.833 -174 86.5 -234
s142.834 -90 255.501 -90c33.333 0 63 3.33301 89 10s44.667 14 56 22c8 6 14.833 14.667 20.5 26s9.16699 23 10.5 35zM360.998 777c-16 0 -28.167 -4.83301 -36.5 -14.5s-12.5 -21.5 -12.5 -35.5c0 -16 4.66699 -27.833 14 -35.5s20 -11.5 32 -11.5
c14 0 25.333 4.33301 34 13s13 21 13 37c0 12.667 -4.16699 23.667 -12.5 33s-18.5 14 -30.5 14h-1z" />
    <glyph glyph-name="cdot" unicode="&#x10b;" horiz-adv-x="418" 
d="M391 74c-14 -6 -30.668 -10.834 -50.001 -14.501s-38 -5.5 -56 -5.5s-36.5 2.5 -55.5 7.5s-36.5 13.667 -52.5 26s-29.167 29.333 -39.5 51s-15.5 49.167 -15.5 82.5c0 49.333 13.833 89.166 41.5 119.499s63.5 45.5 107.5 45.5c33.333 0 64 -7 92 -21
c12 -1.33301 21.167 3.33398 27.5 14.001s9.5 21.667 9.5 33c-6.66699 6.66699 -21.167 14.5 -43.5 23.5s-49.833 13.5 -82.5 13.5c-68 0 -125.167 -22.167 -171.5 -66.5s-69.5 -101.166 -69.5 -170.499c0 -44 7 -80.5 21 -109.5s32 -52 54 -69s46.333 -28.833 73 -35.5
s53 -10 79 -10c20.667 0 40.667 2.16699 60 6.5s35 10.5 47 18.5c7.33301 5.33301 13.333 13.5 18 24.5s7.33398 22.5 8.00098 34.5zM250.999 632.999c-16 0 -28.166 -5 -36.499 -15s-12.5 -22 -12.5 -36c0 -16.667 4.66699 -28.834 14 -36.501s20 -11.5 32 -11.5
c14 0 25.667 4.5 35 13.5s14 21.5 14 37.5c0 12.667 -4.33301 23.834 -13 33.501s-19.334 14.5 -32.001 14.5h-1z" />
    <glyph glyph-name="Ccaron" unicode="&#x10c;" horiz-adv-x="585" 
d="M552 81c-14 -6 -34.835 -12.5 -62.502 -19.5s-56.834 -10.5 -87.501 -10.5c-88 0 -154.833 24.833 -200.5 74.5s-68.5 112.5 -68.5 188.5c0 86.667 24.667 152.167 74 196.5s107.666 66.5 174.999 66.5c28.667 0 55 -3.33301 79 -10s44.667 -14 62 -22
c10 -2 19.333 1.5 28 10.5s13.334 20.833 14.001 35.5c-8 9.33301 -28.5 20 -61.5 32s-72.5 18 -118.5 18c-49.333 0 -95.166 -8 -137.499 -24s-79.166 -38.333 -110.499 -67s-55.833 -63.5 -73.5 -104.5s-26.5 -86.5 -26.5 -136.5c0 -96 28.833 -174 86.5 -234
s142.834 -90 255.501 -90c33.333 0 63 3.33301 89 10s44.667 14 56 22c8 6 14.833 14.667 20.5 26s9.16699 23 10.5 35zM444.998 809c-7.33301 -0.666992 -13.667 -3 -19 -7c-10 -6.66699 -20.833 -15 -32.5 -25s-22.834 -20.333 -33.501 -31c-30 28 -52 47 -66 57
c-6.66699 4 -14 6 -22 6c-6 0 -13.333 -2.83301 -22 -8.5s-14 -11.167 -16 -16.5c40.667 -32 77.334 -67.333 110.001 -106c8 0 17 1 27 3c6 3.33301 11 7 15 11c30 36 63.333 67.333 100 94c-4 5.33301 -10 10.5 -18 15.5s-15.333 7.5 -22 7.5h-1z" />
    <glyph glyph-name="ccaron" unicode="&#x10d;" horiz-adv-x="418" 
d="M391 74c-14 -6 -30.668 -10.834 -50.001 -14.501s-38 -5.5 -56 -5.5s-36.5 2.5 -55.5 7.5s-36.5 13.667 -52.5 26s-29.167 29.333 -39.5 51s-15.5 49.167 -15.5 82.5c0 49.333 13.833 89.166 41.5 119.499s63.5 45.5 107.5 45.5c33.333 0 64 -7 92 -21
c12 -1.33301 21.167 3.33398 27.5 14.001s9.5 21.667 9.5 33c-6.66699 6.66699 -21.167 14.5 -43.5 23.5s-49.833 13.5 -82.5 13.5c-68 0 -125.167 -22.167 -171.5 -66.5s-69.5 -101.166 -69.5 -170.499c0 -44 7 -80.5 21 -109.5s32 -52 54 -69s46.333 -28.833 73 -35.5
s53 -10 79 -10c20.667 0 40.667 2.16699 60 6.5s35 10.5 47 18.5c7.33301 5.33301 13.333 13.5 18 24.5s7.33398 22.5 8.00098 34.5zM316.999 678.999c-4.66699 -0.666992 -9 -3.66797 -13 -9.00098c-8 -12 -17 -26.667 -27 -44s-19 -33.666 -27 -48.999l-53 92
c-4 7.33301 -9 10.666 -15 9.99902c-8 0 -16.167 -2 -24.5 -6s-14.5 -7.33301 -18.5 -10c31.333 -52.667 61 -105.334 89 -158.001c10.667 0 21.334 1.33301 32.001 4c4 0.666992 7.16699 2.33398 9.5 5.00098s5.16602 6.33398 8.49902 11.001c12 24 24.833 47 38.5 69
l42.5 71c-6 4 -13.167 7.33301 -21.5 10s-14.833 4 -19.5 4h-1z" />
    <glyph glyph-name="Dcaron" unicode="&#x10e;" horiz-adv-x="649" 
d="M75 12c28 -7.33301 56.165 -12.832 84.498 -16.499s60.5 -5.5 96.5 -5.5c50.667 0 98 7.16699 142 21.5s82 35.5 114 63.5s57.333 62.667 76 104s28 89 28 143c0 30.667 -4.33301 64 -13 100s-26 69.333 -52 100s-62.833 56.5 -110.5 77.5s-110.167 31.5 -187.5 31.5
c-17.333 0 -35.666 -0.666992 -54.999 -2s-37.666 -3 -54.999 -5s-32.333 -4 -45 -6l-25 -4c0.666992 -14.667 1.16699 -29.334 1.5 -44.001s0.5 -39 0.5 -73v-485zM162.998 566.001c20.667 4 47.668 6 81.001 6c93.333 0 162.666 -23.167 207.999 -69.5
s68 -107.5 68 -183.5c0 -52 -7.83301 -95.5 -23.5 -130.5s-35.667 -63 -60 -84s-52 -35.667 -83 -44s-61.833 -12.5 -92.5 -12.5c-17.333 0 -35 0.666992 -53 2s-33 4 -45 8v508zM379.999 798.001c-6.66699 -1.33301 -13 -3.66797 -19 -7.00098
c-10 -6.66699 -20.833 -15 -32.5 -25s-22.834 -20.333 -33.501 -31c-30 27.333 -52 46.333 -66 57c-6 4 -13.333 6 -22 6c-6 0 -13.333 -2.83301 -22 -8.5s-14 -11.167 -16 -16.5c40.667 -32.667 77.334 -68 110.001 -106c8 -0.666992 17 0.333008 27 3
c6 2.66699 11 6.33398 15 11.001c30 36 63.333 67.333 100 94c-4 5.33301 -10 10.5 -18 15.5s-15.333 7.5 -22 7.5h-1z" />
    <glyph glyph-name="dcaron" unicode="&#x10f;" horiz-adv-x="515" 
d="M359 436c-6 1.33301 -15.3359 3.83301 -28.0029 7.5s-29 5.5 -49 5.5c-71.333 0 -130.666 -22.667 -177.999 -68s-71 -104 -71 -176c0 -70.667 19 -124.5 57 -161.5s83.667 -55.5 137 -55.5c20.667 0 44.334 5.5 71.001 16.5s50 24.5 70 40.5
c2.66699 -15.333 9.5 -28.666 20.5 -39.999s28.167 -17 51.5 -17c10 0 19.667 5.16699 29 15.5s15 21.166 17 32.499v3c-15.333 2 -26.333 7 -33 15s-10 24 -10 48v511c0 30 -1.16699 48.5 -3.5 55.5s-6.16602 10.5 -11.499 10.5c-8 0 -20 -1.5 -36 -4.5
s-28.333 -6.16699 -37 -9.5l2.5 -36.5c1 -14.333 1.5 -34.5 1.5 -60.5v-132zM358.997 89c-12 -10 -26.833 -18 -44.5 -24s-34.5 -9 -50.5 -9c-40 0 -73.5 14.167 -100.5 42.5s-40.5 67.5 -40.5 117.5c0 62 16.833 107 50.5 135s69.5 42 107.5 42
c17.333 0 32.833 -1.66699 46.5 -5s24.167 -7 31.5 -11v-288zM576.997 697c-10 0 -20.501 -2.33105 -31.501 -6.99805s-20.5 -9.66699 -28.5 -15c8.66699 -12.667 13.334 -29 14.001 -49c0 -28 -5.33301 -53 -16 -75s-25 -44 -43 -66
c12 -0.666992 24.333 0.166016 37 2.49902s22.667 6.16602 30 11.499c19.333 12 36.833 30.667 52.5 56s23.5 52 23.5 80c0 14.667 -3.33301 28.667 -10 42s-15.667 20 -27 20h-1z" />
    <glyph glyph-name="Dcroat" unicode="&#x110;" horiz-adv-x="663" 
d="M85 616c0.666992 -16 1.16699 -31.5029 1.5 -46.5029s0.5 -39.5 0.5 -73.5v-145h-39c-11.333 0 -21.666 -3.16699 -30.999 -9.5s-15 -22.166 -17 -47.499h87v-281c35.333 -8 65.333 -13.833 90 -17.5s56.667 -5.5 96 -5.5c27.333 0 64.833 4.5 112.5 13.5
s92.5 31.167 134.5 66.5c42 36 70.833 75.333 86.5 118s23.5 87.334 23.5 134.001c0 30.667 -4.33301 64 -13 100s-26 69.5 -52 100.5s-62.5 57 -109.5 78s-109.5 31.5 -187.5 31.5c-46.667 -1.33301 -82.334 -3.66602 -107.001 -6.99902zM175 566.997
c31.333 4.66699 60.332 7.00195 86.999 7.00195c92.667 0 161.167 -23.667 205.5 -71s66.5 -109 66.5 -185c0 -50.667 -7.83301 -93.334 -23.5 -128.001s-35.667 -62.667 -60 -84s-51.833 -36.5 -82.5 -45.5s-61.334 -13.5 -92.001 -13.5
c-37.333 -0.666992 -71 3.66602 -101 12.999v234h113c16.667 0 30.834 3 42.501 9s19.834 22 24.501 48h-180v216z" />
    <glyph glyph-name="dcroat" unicode="&#x111;" horiz-adv-x="516" 
d="M359 434c-7.33301 2.66699 -17.332 5.83496 -29.999 9.50195s-29 5.5 -49 5.5c-71.333 0 -130.333 -23 -177 -69s-70 -104.667 -70 -176c0 -70 19 -123.5 57 -160.5s84 -55.5 138 -55.5c20.667 0 44 5.5 70 16.5s49.333 25.167 70 42.5
c2.66699 -16 9.66699 -29.833 21 -41.5s28.666 -17.5 51.999 -17.5c10 0 19.5 5 28.5 15s14.5 20.333 16.5 31v5c-15.333 2 -26.333 7.16699 -33 15.5s-10 24.166 -10 47.499v423h21c17.333 0 31 3.83301 41 11.5s16.667 20.834 20 39.501h-82v38
c0 30 -1.16699 48.333 -3.5 55s-6.16602 10 -11.499 10c-8 0 -20 -1.5 -36 -4.5s-28.333 -6.16699 -37 -9.5c2 -20.667 3.33301 -50.334 4 -89.001h-70c-10.667 0 -20.334 -4.33301 -29.001 -13s-14 -21.334 -16 -38.001h115v-91zM359.001 91.001
c-12.667 -10.667 -27.832 -19.165 -45.499 -25.498s-34.834 -9.5 -51.501 -9.5c-39.333 0 -72.333 14.167 -99 42.5s-40 67.166 -40 116.499c0 62 16.833 107.167 50.5 135.5s69.167 42.5 106.5 42.5c36 -0.666992 62.333 -6.33398 79 -17.001v-285z" />
    <glyph glyph-name="Emacron" unicode="&#x112;" horiz-adv-x="449" 
d="M75 23l14.002 -18.999c12 -2.66699 34.333 -5 67 -7s69.667 -3 111 -3c35.333 0 62.666 0.5 81.999 1.5s32.333 1.83301 39 2.5c23.333 9.33301 38.666 29.333 45.999 60l-1 2c-20 -2 -44.333 -3.33301 -73 -4s-54 -1 -76 -1c-24 0 -47.667 0.5 -71 1.5
s-40 3.16699 -50 6.5v228h171c16 0 29.167 3.33301 39.5 10s17.833 23.667 22.5 51h-233v212h138c22 0 39 0.166992 51 0.5s21.333 2.5 28 6.5c12.667 10 20.667 28 24 54h-130.5h-123.5c-14 -1.33301 -28 -3.33301 -42 -6s-26 -5.33398 -36 -8.00098
c2.66699 -36.667 3.66699 -78.667 3 -126v-462zM338.002 685.001c4 4.66699 8.16797 12.667 12.501 24s6.5 20.666 6.5 27.999c0.666992 6.66699 -3.33301 10 -12 10h-196c-2.66699 -2 -6 -8.16699 -10 -18.5s-6 -20.166 -6 -29.499
c-0.666992 -10 3.66602 -14.667 12.999 -14h192z" />
    <glyph glyph-name="emacron" unicode="&#x113;" horiz-adv-x="431" 
d="M381 80c-9.33301 -5.33301 -24.833 -10.832 -46.5 -16.499s-43.5 -8.5 -65.5 -8.5c-44 0 -80.167 13.833 -108.5 41.5s-42.5 67.167 -42.5 118.5c18 -1.33301 37.167 -2 57.5 -2h58c18.333 0 35 0.333008 50 1s26.167 1.66699 33.5 3c16.667 2.66699 34.5 7 53.5 13
s29.5 13.333 31.5 22c2 9.33301 3 19.666 3 30.999c-1.33301 40 -15 77.667 -41 113s-67.333 53 -124 53c-33.333 0 -62.833 -6.5 -88.5 -19.5s-47.5 -30.5 -65.5 -52.5s-31.5 -47.333 -40.5 -76s-13.5 -58.667 -13.5 -90c0 -70 18.333 -124.667 55 -164s90 -59 160 -59
c20 0 39.333 2.5 58 7.5s32 9.83301 40 14.5c8 4 16.333 12.333 25 25s13 27 13 43zM229 397.001c31.333 0 54.666 -10.5 69.999 -31.5s23 -46.5 23 -76.5c0 -12.667 -7 -19.667 -21 -21c-9.33301 -0.666992 -32.666 -1.16699 -69.999 -1.5s-74 0.166992 -110 1.5
c4 42 16.5 74 37.5 96s44.167 33 69.5 33h1zM314 544.001c4 4 8.16895 11.668 12.502 23.001s6.5 20.666 6.5 27.999c0.666992 6.66699 -3.33301 10 -12 10h-192c-2.66699 -2 -5.83398 -8.5 -9.50098 -19.5s-5.5 -20.5 -5.5 -28.5
c-0.666992 -8.66699 3.66602 -13 12.999 -13h187z" />
    </font>
</defs>
</svg>
