<?xml version="1.0" standalone="no"?>
<!DOCTYPE svg PUBLIC "-//W3C//DTD SVG 1.1//EN" "http://www.w3.org/Graphics/SVG/1.1/DTD/svg11.dtd" >
<svg>
<metadata>
Created by FontForge 20090914 at Wed Aug  9 11:14:05 2017
 By www-data
&#194;&#169; 1996, 2001 Adobe Systems Incorporated. All Rights Reserved.
</metadata>
<defs>
<font id="CronosPro-Bold" horiz-adv-x="327" >
  <font-face 
    font-family="Cronos Pro"
    font-weight="700"
    font-stretch="normal"
    units-per-em="1000"
    panose-1="2 12 7 2 3 4 3 2 3 4"
    ascent="780"
    descent="-220"
    x-height="448.001"
    cap-height="629"
    bbox="-187 -295.001 1140.52 885"
    underline-thickness="50"
    underline-position="-50"
    unicode-range="U+0020-U+FB06"
  />
<missing-glyph horiz-adv-x="500" 
d="M0 0h500v700h-500v-700zM250 395l-170 255h340zM280 350l170 255v-510zM80 50l170 255l170 -255h-340zM50 605l170 -255l-170 -255v510z" />
    <glyph glyph-name="uniE063" unicode="Th" horiz-adv-x="1025" 
d="M693 611c0 30.667 -1.50293 49.502 -4.50293 56.502s-8.5 10.5 -16.5 10.5c-6 0 -15 -0.833008 -27 -2.5s-24.333 -3.5 -37 -5.5s-24.5 -4.16699 -35.5 -6.5s-18.5 -4.5 -22.5 -6.5c0.666992 -8.66699 1.66699 -19.334 3 -32.001h-347c-48 0 -82.5 0.333008 -103.5 1
s-35.5 2 -43.5 4c-6 -6.66699 -12 -14.834 -18 -24.501s-12 -23.167 -18 -40.5c-4 -13.333 -4.16699 -22.333 -0.5 -27s9.83398 -7 18.501 -7h182v-519c0 -13.333 8 -19.333 24 -18c48.667 0 89.334 2.66699 122.001 8c-0.666992 10 -1.33398 24.167 -2.00098 42.5
s-1 44.833 -1 79.5v407h188v-358c0 -58 -1 -117.667 -3 -179c22 0 42 0.5 60 1.5s37 2.5 57 4.5c11.333 1.33301 18.333 4 21 8s4 11 4 21v297c10.667 10 22.667 16.667 36 20s25 5 35 5c20 0 36.333 -7 49 -21s19 -32 19 -54v-259c-0.666992 -16.667 7 -24.334 23 -23.001
c24.667 0 47.667 1 69 3s38 3.66699 50 5c-1.33301 19.333 -2.16602 42.5 -2.49902 69.5s-0.5 52.167 -0.5 75.5v136c0 52.667 -13.167 94.334 -39.5 125.001s-60.5 46 -102.5 46c-27.333 0 -52.166 -5.16699 -74.499 -15.5s-42.833 -23.5 -61.5 -39.5v212z" />
    <glyph glyph-name="uniE064" unicode="T&#x127;" horiz-adv-x="1027" 
d="M693 625c0 18.667 -1.33496 32.1699 -4.00195 40.5029s-8.33398 12.5 -17.001 12.5c-6 0 -15 -0.833008 -27 -2.5s-24.333 -3.5 -37 -5.5s-24.5 -4.16699 -35.5 -6.5s-18.5 -4.5 -22.5 -6.5c0.666992 -8.66699 1.66699 -19.334 3 -32.001h-347
c-48 0 -82.5 0.333008 -103.5 1s-35.5 2 -43.5 4c-6 -6.66699 -12 -14.834 -18 -24.501s-12 -23.167 -18 -40.5c-4 -13.333 -4.16699 -22.333 -0.5 -27s9.83398 -7 18.501 -7h182v-519c0 -13.333 8 -19.333 24 -18c48.667 0 89.334 2.66699 122.001 8
c-0.666992 10 -1.33398 24.167 -2.00098 42.5s-1 44.833 -1 79.5v407h188v-358c0 -58 -1 -117.667 -3 -179c22 0 42 0.5 60 1.5s37 2.5 57 4.5c11.333 1.33301 18.333 4 21 8s4 11 4 21v296c14 12 27.333 20.167 40 24.5s25 6.5 37 6.5c18 0 32.667 -6.5 44 -19.5
s17 -29.5 17 -49.5v-270c0 -16.667 7.66699 -24.334 23 -23.001c24.667 0 47.667 1 69 3s38 3.66699 50 5c-1.33301 19.333 -2.16602 42.5 -2.49902 69.5s-0.5 52.167 -0.5 75.5v137c0 56 -13 98.333 -39 127s-60.333 43 -103 43c-27.333 0 -52.166 -5.33301 -74.499 -16
s-42.5 -24 -60.5 -40v133h95c17.333 0 30 10.833 38 32.5s14 42.167 18 61.5h-151z" />
    <glyph glyph-name="uniE065" unicode="T&#x125;" horiz-adv-x="1025" 
d="M693 611c0 30.667 -1.50293 49.502 -4.50293 56.502s-8.5 10.5 -16.5 10.5c-6 0 -15 -0.833008 -27 -2.5s-24.333 -3.5 -37 -5.5s-24.5 -4.16699 -35.5 -6.5s-18.5 -4.5 -22.5 -6.5c0.666992 -8.66699 1.66699 -19.334 3 -32.001h-347c-48 0 -82.5 0.333008 -103.5 1
s-35.5 2 -43.5 4c-6 -6.66699 -12 -14.834 -18 -24.501s-12 -23.167 -18 -40.5c-4 -13.333 -4.16699 -22.333 -0.5 -27s9.83398 -7 18.501 -7h182v-519c0 -13.333 8 -19.333 24 -18c48.667 0 89.334 2.66699 122.001 8c-0.666992 10 -1.33398 24.167 -2.00098 42.5
s-1 44.833 -1 79.5v407h188v-358c0 -58 -1 -117.667 -3 -179c22 0 42 0.5 60 1.5s37 2.5 57 4.5c11.333 1.33301 18.333 4 21 8s4 11 4 21v297c10.667 10 22.667 16.667 36 20s25 5 35 5c20 0 36.333 -7 49 -21s19 -32 19 -54v-259c-0.666992 -16.667 7 -24.334 23 -23.001
c24.667 0 47.667 1 69 3s38 3.66699 50 5c-1.33301 19.333 -2.16602 42.5 -2.49902 69.5s-0.5 52.167 -0.5 75.5v136c0 52.667 -13.167 94.334 -39.5 125.001s-60.5 46 -102.5 46c-27.333 0 -52.166 -5.16699 -74.499 -15.5s-42.833 -23.5 -61.5 -39.5v212zM534.997 687.002
c3.33301 0 6.83691 0.999023 10.5039 2.99902s6.5 3.66699 8.5 5c25.333 15.333 48.666 33 69.999 53c27.333 -25.333 49.666 -43.333 66.999 -54c8 -5.33301 17 -7.66602 27 -6.99902c10 0 20.833 4.66699 32.5 14s19.5 17 23.5 23c-47.333 38 -87.666 78 -120.999 120
c-16.667 0 -31.334 -1.33301 -44.001 -4c-8.66699 -2 -15.667 -6.33301 -21 -13c-16 -19.333 -33.833 -37.833 -53.5 -55.5s-39.834 -33.167 -60.501 -46.5c2 -8 9.16699 -16.333 21.5 -25s25.166 -13 38.499 -13h1z" />
    <glyph glyph-name="uniE067" unicode="&#x166;h" horiz-adv-x="1027" 
d="M693 611c0 30.667 -1.50195 49.5039 -4.50195 56.5039s-8.5 10.5 -16.5 10.5c-6 0 -15 -0.833008 -27 -2.5s-24.333 -3.5 -37 -5.5s-24.5 -4.16699 -35.5 -6.5s-18.5 -4.5 -22.5 -6.5c0.666992 -8.66699 1.66699 -19.334 3 -32.001h-347c-48 0 -82.5 0.333008 -103.5 1
s-35.5 2 -43.5 4c-6 -6.66699 -12 -14.834 -18 -24.501s-12 -23.167 -18 -40.5c-4 -13.333 -4.16699 -22.333 -0.5 -27s9.83398 -7 18.501 -7h182v-174h-60c-10.667 0 -19.834 -8.66699 -27.501 -26s-12.167 -34.666 -13.5 -51.999h101v-267c0 -13.333 8 -19.333 24 -18
c48.667 0 89.334 2.66699 122.001 8c-0.666992 10 -1.33398 24.167 -2.00098 42.5s-1 45.166 -1 80.499v154h47c17.333 0 30.833 8.16699 40.5 24.5s16.5 34.166 20.5 53.499h-108v174h188v-357c0 -58.667 -1 -118.667 -3 -180c22 0 42 0.5 60 1.5s37 2.5 57 4.5
c11.333 1.33301 18.333 4 21 8s4 11 4 21v297c14 12 27.333 20.167 40 24.5s25 6.5 37 6.5c18 0 32.667 -5.83301 44 -17.5s17 -27.5 17 -47.5v-275c0 -16.667 7.66699 -24.334 23 -23.001c24.667 0 47.667 1 69 3s38 3.66699 50 5
c-1.33301 19.333 -2.16602 42.5 -2.49902 69.5s-0.5 52.5 -0.5 76.5v145c0 52 -13 91.833 -39 119.5s-60.333 41.5 -103 41.5c-27.333 0 -52.166 -5.33301 -74.499 -16s-42.5 -23.667 -60.5 -39v212z" />
    <glyph glyph-name="uniE069" unicode="&#x164;h" horiz-adv-x="1025" 
d="M693 611c0 30.667 -1.50293 49.502 -4.50293 56.502s-8.5 10.5 -16.5 10.5c-6 0 -15 -0.833008 -27 -2.5s-24.333 -3.5 -37 -5.5s-24.5 -4.16699 -35.5 -6.5s-18.5 -4.5 -22.5 -6.5c0.666992 -8.66699 1.66699 -19.334 3 -32.001h-347c-48 0 -82.5 0.333008 -103.5 1
s-35.5 2 -43.5 4c-6 -6.66699 -12 -14.834 -18 -24.501s-12 -23.167 -18 -40.5c-4 -13.333 -4.16699 -22.333 -0.5 -27s9.83398 -7 18.501 -7h182v-519c0 -13.333 8 -19.333 24 -18c48.667 0 89.334 2.66699 122.001 8c-0.666992 10 -1.33398 24.167 -2.00098 42.5
s-1 44.833 -1 79.5v407h188v-358c0 -58 -1 -117.667 -3 -179c22 0 42 0.5 60 1.5s37 2.5 57 4.5c11.333 1.33301 18.333 4 21 8s4 11 4 21v297c10.667 10 22.667 16.667 36 20s25 5 35 5c20 0 36.333 -7 49 -21s19 -32 19 -54v-259c-0.666992 -16.667 7 -24.334 23 -23.001
c24.667 0 47.667 1 69 3s38 3.66699 50 5c-1.33301 19.333 -2.16602 42.5 -2.49902 69.5s-0.5 52.167 -0.5 75.5v136c0 52.667 -13.167 94.334 -39.5 125.001s-60.5 46 -102.5 46c-27.333 0 -52.166 -5.16699 -74.499 -15.5s-42.833 -23.5 -61.5 -39.5v212zM387.997 823.002
c-4 0 -7.66406 -1.16797 -10.9971 -3.50098s-6 -3.83301 -8 -4.5c-25.333 -15.333 -48.333 -33 -69 -53c-28.667 26 -51 44 -67 54c-8 5.33301 -17 7.66602 -27 6.99902c-10.667 0 -21.667 -4.66699 -33 -14s-19 -17 -23 -23c24 -19.333 45.667 -38.666 65 -57.999
s37.666 -39.666 54.999 -60.999c16.667 0 31.667 1.33301 45 4c8.66699 2 15.667 6.33301 21 13c15.333 18 32.666 35.833 51.999 53.5s39.666 33.5 60.999 47.5c-3.33301 7.33301 -11 15.5 -23 24.5s-24.333 13.5 -37 13.5h-1z" />
    <glyph glyph-name="uniE06B" unicode="&#x162;h" horiz-adv-x="1025" 
d="M693 611c0 30.667 -1.50293 49.502 -4.50293 56.502s-8.5 10.5 -16.5 10.5c-6 0 -15 -0.833008 -27 -2.5s-24.333 -3.5 -37 -5.5s-24.5 -4.16699 -35.5 -6.5s-18.5 -4.5 -22.5 -6.5c0.666992 -8.66699 1.66699 -19.334 3 -32.001h-347c-48 0 -82.5 0.333008 -103.5 1
s-35.5 2 -43.5 4c-6 -6.66699 -12 -14.834 -18 -24.501s-12 -23.167 -18 -40.5c-4 -13.333 -4.16699 -22.333 -0.5 -27s9.83398 -7 18.501 -7h182v-519c0 -13.333 8 -19.333 24 -18c48.667 0 89.334 2.66699 122.001 8c-0.666992 10 -1.33398 24.167 -2.00098 42.5
s-1 44.833 -1 79.5v407h188v-358c0 -58 -1 -117.667 -3 -179c22 0 42 0.5 60 1.5s37 2.5 57 4.5c11.333 1.33301 18.333 4 21 8s4 11 4 21v297c10.667 10 22.667 16.667 36 20s25 5 35 5c20 0 36.333 -7 49 -21s19 -32 19 -54v-259c-0.666992 -16.667 7 -24.334 23 -23.001
c24.667 0 47.667 1 69 3s38 3.66699 50 5c-1.33301 19.333 -2.16602 42.5 -2.49902 69.5s-0.5 52.167 -0.5 75.5v136c0 52.667 -13.167 94.334 -39.5 125.001s-60.5 46 -102.5 46c-27.333 0 -52.166 -5.16699 -74.499 -15.5s-42.833 -23.5 -61.5 -39.5v212zM313.997 -44.998
c-16 0 -31.833 -2.66699 -47.5 -8s-29.5 -12 -41.5 -20c10 -13.333 15.333 -32.333 16 -57c0 -32 -5 -59.167 -15 -81.5s-26 -46.833 -48 -73.5c16 0 33.833 1.5 53.5 4.5s37.5 9.5 53.5 19.5c22 14 40.833 34.167 56.5 60.5s23.5 53.5 23.5 81.5
c0 20 -4.33301 37.333 -13 52s-21 22 -37 22h-1z" />
    <glyph glyph-name="uniE0A1" unicode="ffj" horiz-adv-x="845" 
d="M647 142c0 -54 -1.83008 -97.8291 -5.49707 -131.496s-9.66699 -61.167 -18 -82.5s-19.5 -37.5 -33.5 -48.5s-31.333 -20.167 -52 -27.5l-1 -3c2 -17.333 8.66699 -31.666 20 -42.999s24.666 -17 39.999 -17c16.667 0 37 4.66699 61 14s46.333 26.666 67 51.999
c20 25.333 35 56.666 45 93.999s15 87 15 149l1 292c0 28 -1.5 45.333 -4.5 52s-8.5 10 -16.5 10c-10 0 -24.5 -1.5 -43.5 -4.5s-39.5 -4.5 -61.5 -4.5c-8 -0.666992 -20.333 -1 -37 -1h-50.5h-46.5h-27c0 53.333 8.16699 91.333 24.5 114s38.833 34 67.5 34
c15.333 0 28.166 -1.66699 38.499 -5s21.5 -7.66602 33.5 -12.999c13.333 -6 26.833 -0.5 40.5 16.5s19.5 34.167 17.5 51.5c-4 9.33301 -18.5 19 -43.5 29s-51.833 15 -80.5 15c-28 0 -55.667 -4.5 -83 -13.5s-52 -23.167 -74 -42.5c-12 8 -29 16 -51 24s-45.333 12 -70 12
c-28 0 -56 -3.33301 -84 -10s-53.667 -19 -77 -37c-33.333 -25.333 -56.333 -53.333 -69 -84s-19 -61 -19 -91c-12 -6.66699 -22.833 -13.334 -32.5 -20.001s-18.834 -15 -27.501 -25c0.666992 -24.667 20.667 -38.334 60 -41.001c0 -60 0.166992 -120 0.5 -180
s-0.5 -117 -2.5 -171c0 -8.66699 5 -12.334 15 -11.001c3.33301 0 10 0.333008 20 1s21.5 1.16699 34.5 1.5s26.333 0.833008 40 1.5s25.5 1.33398 35.5 2.00098c0 13.333 -0.333008 35.666 -1 66.999s-1.16699 65 -1.5 101l-1 106c-0.333008 34.667 -0.5 62 -0.5 82h151
v-74.5v-97.5c0 -34 -0.333008 -67.167 -1 -99.5s-1 -58.833 -1 -79.5c0 -8.66699 4.66699 -12.334 14 -11.001c2.66699 0 9 0.333008 19 1s21.5 1.16699 34.5 1.5s26.5 0.833008 40.5 1.5s26 1.33398 36 2.00098c0 13.333 -0.5 35.666 -1.5 66.999s-1.66699 65 -2 101
l-1 106c-0.333008 34.667 -0.5 62 -0.5 82c31.333 0 62 0.166992 92 0.5s49.333 0.833008 58 1.5v-216zM211.003 442.004c-0.666992 34 5.66895 64.834 19.002 92.501s39.666 41.5 78.999 41.5c16 0 31 -3 45 -9s23.667 -11 29 -15
c-12.667 -24.667 -20.334 -61.334 -23.001 -110.001h-149z" />
    <glyph glyph-name="uniE0A2" unicode="fj" horiz-adv-x="548" 
d="M349 135c0 -54 -1.66406 -97.4951 -4.99707 -130.495s-9 -59.5 -17 -79.5s-19 -35.333 -33 -46s-31.333 -19.667 -52 -27l-2 -4c2 -17.333 8.66699 -31.5 20 -42.5s24.666 -16.5 39.999 -16.5c16.667 0 37 4.66699 61 14s46.333 26.666 67 51.999
c20 25.333 35 56.5 45 93.5s15 86.5 15 148.5v286c0 30 -1.5 48.833 -4.5 56.5s-8.5 11.5 -16.5 11.5c-10 0 -23.833 -1.5 -41.5 -4.5s-38.834 -4.5 -63.501 -4.5c-32 -0.666992 -64 -0.833984 -96 -0.500977s-50.333 0.5 -55 0.5c-2 52 6 89.5 24 112.5s42 34.5 72 34.5
c13.333 0 28.333 -2.5 45 -7.5s31.667 -10.833 45 -17.5c15.333 0 27.166 10.667 35.499 32s8.5 38.333 0.5 51c-10.667 8 -27 16.167 -49 24.5s-45.667 12.5 -71 12.5c-36 0 -65.5 -4.16699 -88.5 -12.5s-43.5 -18.833 -61.5 -31.5c-36 -28 -60.5 -59.333 -73.5 -94
s-19.5 -69.334 -19.5 -104.001l-30.5 -22.5c-7.66699 -5.66699 -17.5 -14.834 -29.5 -27.501c0.666992 -24.667 20.667 -37.334 60 -38.001c0 -60 0.166992 -119.667 0.5 -179s-0.5 -116 -2.5 -170c0 -8.66699 5 -12.334 15 -11.001c3.33301 0 10 0.333008 20 1
s21.5 1.16699 34.5 1.5s26.5 0.833008 40.5 1.5s26 1.33398 36 2.00098c0 13.333 -0.5 35.5 -1.5 66.5s-1.66699 64.5 -2 100.5l-1 105.5c-0.333008 34.333 -0.5 61.5 -0.5 81.5h84.5c25 0 43.5 0.666992 55.5 2v-221z" />
    <glyph glyph-name="ff" unicode="ff" horiz-adv-x="582" 
d="M359 356l-0.000976562 -73.502v-97.5c0 -34 -0.333008 -66.833 -1 -98.5s-1 -57.5 -1 -77.5c-0.666992 -11.333 4 -16.333 14 -15c2.66699 0 9.16699 0.333008 19.5 1s22 1.16699 35 1.5s26.5 0.833008 40.5 1.5s26 1.33398 36 2.00098c0 13.333 -0.5 35.666 -1.5 66.999
s-1.66699 65 -2 101l-1 106c-0.333008 34.667 -0.5 62 -0.5 82c18 0 34.833 1 50.5 3s26.834 6 33.501 12c6 4.66699 12 11.834 18 21.501s11 26.834 15 51.501c-6.66699 -0.666992 -15.667 -1.16699 -27 -1.5s-22.833 -0.5 -34.5 -0.5h-31.5h-18
c-2.66699 49.333 1.66602 86.333 12.999 111s25 37 41 37c8.66699 0.666992 19.334 -0.666016 32.001 -3.99902c14.667 -4.66699 28 2.16602 40 20.499s17.333 35.5 16 51.5c-4.66699 6 -14.334 11.833 -29.001 17.5s-32 8.5 -52 8.5c-22.667 0 -45.5 -4.33301 -68.5 -13
s-43.5 -22 -61.5 -40c-13.333 9.33301 -30.5 17.166 -51.5 23.499s-43.167 9.5 -66.5 9.5c-32.667 0 -61.667 -3.66699 -87 -11s-49.333 -19.666 -72 -36.999c-31.333 -24 -53.666 -51.5 -66.999 -82.5s-20 -61.5 -20 -91.5l-31.5 -22
c-7 -4.66699 -16.5 -13.334 -28.5 -26.001c0.666992 -24 20.667 -36.667 60 -38c0 -60 0.166992 -120 0.5 -180s-0.5 -116.333 -2.5 -169c0 -9.33301 5 -13.666 15 -12.999c3.33301 0 10 0.333008 20 1s21.5 1.16699 34.5 1.5s26.5 0.833008 40.5 1.5s26 1.33398 36 2.00098
c0 13.333 -0.5 35.666 -1.5 66.999s-1.66699 65 -2 101l-1 106c-0.333008 34.667 -0.5 62 -0.5 82h150zM211.999 441.998c-1.33301 36 5.83301 67.665 21.5 94.998s42.5 41 80.5 41c32.667 -1.33301 56 -7.66602 70 -18.999c-7.33301 -13.333 -13.333 -30.166 -18 -50.499
s-7 -42.5 -7 -66.5h-147z" />
    <glyph glyph-name="fi" unicode="fi" horiz-adv-x="548" 
d="M488 383c0 30 -1.5 48.835 -4.5 56.502s-8.5 11.5 -16.5 11.5c-10 0 -23.833 -1.5 -41.5 -4.5s-38.834 -4.5 -63.501 -4.5h-86h-65c-2 50.667 5.83301 87.834 23.5 111.501s41.5 35.5 71.5 35.5c12.667 0 26.334 -2 41.001 -6s28.667 -9.33301 42 -16
c17.333 4.66699 29.333 18 36 40c2.66699 8 3.66699 16.167 3 24.5s-2 14.5 -4 18.5c-10 8 -24.333 15.667 -43 23s-41.334 11 -68.001 11c-25.333 0 -50.666 -3 -75.999 -9s-49.666 -17.667 -72.999 -35c-36.667 -28 -61.5 -59.333 -74.5 -94s-19.5 -69.334 -19.5 -104.001
l-30.5 -22.5c-7.66699 -5.66699 -17.5 -14.834 -29.5 -27.501c0.666992 -24.667 20.667 -37.334 60 -38.001c0 -60 0.166992 -119.667 0.5 -179s-0.5 -116 -2.5 -170c0 -8.66699 5 -12.334 15 -11.001c3.33301 0 10 0.333008 20 1s21.5 1.16699 34.5 1.5
s26.5 0.833008 40.5 1.5s26 1.33398 36 2.00098c0 13.333 -0.5 35.5 -1.5 66.5s-1.66699 64.5 -2 100.5l-1 105.5c-0.333008 34.333 -0.5 61.5 -0.5 81.5c31.333 0 59.5 0.166992 84.5 0.5s43.5 1.16602 55.5 2.49902v-207c0 -29.333 -0.5 -57.666 -1.5 -84.999
s-1.5 -51 -1.5 -71c22 0 42.667 0.333008 62 1s34.666 1.33398 45.999 2.00098c12 1.33301 20.667 3.66602 26 6.99902s8 10 8 20v359z" />
    <glyph glyph-name="fl" unicode="fl" horiz-adv-x="548" 
d="M349 7c-0.666992 -9.33301 4 -13.6699 14 -13.0029c6 0 14.833 0.333008 26.5 1s24.167 1.33398 37.5 2.00098l38.5 2c12.333 0.666992 21.5 1.66699 27.5 3c-2 13.333 -3.33301 32.166 -4 56.499s-1 48.833 -1 73.5v488c0 29.333 -1.66699 47.333 -5 54s-9 10 -17 10
c-7.33301 0 -20.166 -1.16699 -38.499 -3.5s-36.833 -6.16602 -55.5 -11.499c-21.333 10 -48 15 -80 15c-22.667 0 -46.5 -4 -71.5 -12s-47.5 -20.333 -67.5 -37c-28 -24 -48.833 -51.167 -62.5 -81.5s-20.5 -67.5 -20.5 -111.5l-32.5 -23
c-7.66699 -5.33301 -16.834 -14.333 -27.501 -27c0 -12 6.5 -21.5 19.5 -28.5s26.5 -10.5 40.5 -10.5c0 -60 0.166992 -119.5 0.5 -178.5s-0.5 -114.833 -2.5 -167.5c0 -9.33301 5 -13.666 15 -12.999c14 0 35 0.833008 63 2.5s50.667 3.5 68 5.5
c0 12.667 -0.5 34.334 -1.5 65.001s-1.66699 64 -2 100l-1 105.5c-0.333008 34.333 -0.5 61.5 -0.5 81.5c40 0 70 0.333008 90 1s36.667 3 50 7v-355zM349 440.996c-31.333 0 -61.333 0.166016 -90 0.499023s-44.667 0.5 -48 0.5c-2 46 3.83301 83.167 17.5 111.5
s35.5 42.5 65.5 42.5c20 0 36.667 -4.33301 50 -13c4 -3.33301 5.66699 -10.666 5 -21.999v-120z" />
    <glyph glyph-name="ffi" unicode="ffi" horiz-adv-x="845" 
d="M360 356l0.00195312 -74.4941v-97.5c0 -34 -0.333008 -67.167 -1 -99.5s-1 -58.833 -1 -79.5c0 -8.66699 4.66699 -12.334 14 -11.001c2.66699 0 9 0.333008 19 1s21.5 1.16699 34.5 1.5s26.5 0.833008 40.5 1.5s26 1.33398 36 2.00098
c0 13.333 -0.333008 35.666 -1 66.999s-1.16699 65 -1.5 101l-1 106c-0.333008 34.667 -0.5 62 -0.5 82c31.333 0 61.833 0.166992 91.5 0.5s48.834 0.833008 57.501 1.5v-208c0 -29.333 -0.5 -57.666 -1.5 -84.999s-1.5 -51 -1.5 -71c22 0 42.667 0.333008 62 1
s34.666 1.66699 45.999 3c12 1.33301 20.667 3.66602 26 6.99902s8 9.66602 8 18.999v366c0 28 -1.5 45.333 -4.5 52s-8.5 10 -16.5 10c-10 0 -24.5 -1.5 -43.5 -4.5s-39.5 -4.5 -61.5 -4.5c-8 -0.666992 -20.333 -1 -37 -1h-50.5h-46.5h-27c0 60 9.83301 99.667 29.5 119
s41.5 29 65.5 29c25.333 0 49 -5 71 -15c6.66699 -4 13.5 -4 20.5 0s13.333 9.83301 19 17.5s10.167 16 13.5 25s4.66602 17.167 3.99902 24.5c-4 9.33301 -18.333 18.666 -43 27.999s-51 14 -79 14c-61.333 1.33301 -114.333 -16.667 -159 -54c-12 8 -28.5 15.667 -49.5 23
s-45.167 11 -72.5 11c-26 0 -53.5 -3.33301 -82.5 -10s-55.167 -19 -78.5 -37c-33.333 -25.333 -56.333 -53.333 -69 -84s-19 -61 -19 -91c-12 -6.66699 -22.833 -13.334 -32.5 -20.001s-18.834 -15 -27.501 -25c0.666992 -24.667 20.667 -38.334 60 -41.001
c0 -60 0.166992 -120 0.5 -180s-0.5 -117 -2.5 -171c0 -8.66699 5 -12.334 15 -11.001c3.33301 0 10 0.333008 20 1s21.5 1.16699 34.5 1.5s26.333 0.833008 40 1.5s25.5 1.33398 35.5 2.00098c0 13.333 -0.333008 35.666 -1 66.999s-1.16699 65 -1.5 101l-1 106
c-0.333008 34.667 -0.5 62 -0.5 82h151zM211.002 442.006c-0.666992 35.333 6.16895 66.5 20.502 93.5s41.166 40.5 80.499 40.5c19.333 0 34.666 -2.33301 45.999 -7s20 -9 26 -13c-14.667 -28.667 -22.667 -66.667 -24 -114h-149z" />
    <glyph glyph-name="ffl" unicode="ffl" horiz-adv-x="846" 
d="M360 356l0.00195312 -73.5v-97.5c0 -34 -0.333008 -67.333 -1 -100s-1 -59.334 -1 -80.001c0 -7.33301 4.66699 -11 14 -11c2.66699 0 9.16699 0.333008 19.5 1s22 1.16699 35 1.5s26.5 0.833008 40.5 1.5s26 1.33398 36 2.00098c0 13.333 -0.5 35.666 -1.5 66.999
s-1.66699 65 -2 101l-1 106c-0.333008 34.667 -0.5 62 -0.5 82c39.333 0 70.666 0.333008 93.999 1s41.666 3 54.999 7v-359c-0.666992 -7.33301 4 -11 14 -11c4 0 11.667 0.333008 23 1s24 1.16699 38 1.5s27.5 0.833008 40.5 1.5s22.5 1.33398 28.5 2.00098
c-2 14 -3.33301 33.333 -4 58s-1 49.334 -1 74.001v487c0 30 -1.5 48.333 -4.5 55s-8.5 10 -16.5 10s-20 -1.83301 -36 -5.5s-33 -8.16699 -51 -13.5c-10 5.33301 -24.167 9.83301 -42.5 13.5s-35.5 5.5 -51.5 5.5c-26 0 -51.333 -4 -76 -12s-47.667 -21 -69 -39
c-13.333 9.33301 -30.666 16.833 -51.999 22.5s-43 8.5 -65 8.5c-26.667 0 -54.5 -3.16699 -83.5 -9.5s-56.5 -19.5 -82.5 -39.5c-31.333 -24 -53.5 -51.333 -66.5 -82s-19.5 -62 -19.5 -94c-10.667 -5.33301 -21.834 -12.333 -33.501 -21s-20.5 -16.667 -26.5 -24
c0.666992 -24 20.667 -37.667 60 -41c0 -58 0.166992 -117 0.5 -177s-0.5 -117 -2.5 -171c0 -8.66699 5 -12.334 15 -11.001c3.33301 0 10 0.333008 20 1s21.5 1.16699 34.5 1.5s26.5 0.833008 40.5 1.5s26 1.33398 36 2.00098c0 13.333 -0.5 35.666 -1.5 66.999
s-1.66699 65 -2 101l-1 106c-0.333008 34.667 -0.5 62 -0.5 82h151zM645.002 441c-32.667 0 -64.501 0.166016 -95.501 0.499023s-48.167 0.5 -51.5 0.5c-1.33301 102.667 27.334 154.334 86.001 155.001c10 0 20.167 -1.66699 30.5 -5s18.5 -7 24.5 -11
c4 -2.66699 6 -9 6 -19v-121zM211.001 441.999c-0.666992 38 6.83203 70.167 22.499 96.5s41.834 39.5 78.501 39.5c14 0 27.833 -2.16699 41.5 -6.5s23.5 -8.5 29.5 -12.5c-14 -31.333 -21.667 -70.333 -23 -117h-149z" />
    <glyph glyph-name=".notdef" horiz-adv-x="500" 
d="M0 0h500v700h-500v-700zM250 395l-170 255h340zM280 350l170 255v-510zM80 50l170 255l170 -255h-340zM50 605l170 -255l-170 -255v510z" />
    <glyph glyph-name="space" unicode=" " horiz-adv-x="208" 
 />
    <glyph glyph-name="exclam" unicode="!" horiz-adv-x="238" 
d="M175 607c-10 0 -21.998 -0.999023 -35.998 -2.99902s-27.833 -4.33301 -41.5 -7s-25.334 -5.5 -35.001 -8.5s-14.834 -5.5 -15.501 -7.5c0 -14.667 1.5 -40.5 4.5 -77.5s6.5 -75.5 10.5 -115.5s8 -77.167 12 -111.5s7 -56.5 9 -66.5c3.33301 0 10 1 20 3s22 4.66699 36 8
c4.66699 2 9.66699 4.5 15 7.5s9 9.16699 11 18.5l7.5 62l11.5 96.5c4 34.333 7.5 67.666 10.5 99.999s4.5 56.5 4.5 72.5c0 13.333 -1.83301 21.5 -5.5 24.5s-9.5 4.5 -17.5 4.5h-1zM122.002 148.001c-28 0 -48.833 -8.00098 -62.5 -24.001s-20.5 -35 -20.5 -57
c0 -27.333 8.16699 -47.166 24.5 -59.499s33.5 -18.5 51.5 -18.5c24 0 43.5 7.33301 58.5 22s22.5 34.334 22.5 59.001c0 21.333 -6.66699 39.666 -20 54.999s-31 23 -53 23h-1z" />
    <glyph glyph-name="quotedbl" unicode="&#x22;" horiz-adv-x="359" 
d="M123 686c-14 0 -30.5 -2.66699 -49.5 -8s-33.5 -10.333 -43.5 -15c6 -28.667 10.5 -64.667 13.5 -108s4.83301 -80.333 5.5 -111c14.667 0 29 3.33301 43 10s23.333 13 28 19c7.33301 16 14.833 39.167 22.5 69.5s12.5 58.166 14.5 83.499
c0.666992 18.667 -0.833008 33.334 -4.5 44.001s-13.167 16 -28.5 16h-1zM295 686c-14 0 -30.5 -2.66602 -49.5 -7.99902s-33.5 -10.333 -43.5 -15c5.33301 -28.667 9.83301 -64.667 13.5 -108s5.5 -80.333 5.5 -111c14.667 0 29 3.33301 43 10s23.333 13 28 19
c7.33301 16 14.833 39.167 22.5 69.5s12.5 58.166 14.5 83.499c0.666992 18 -0.5 32.5 -3.5 43.5s-12.833 16.5 -29.5 16.5h-1z" />
    <glyph glyph-name="numbersign" unicode="#" horiz-adv-x="499" 
d="M87 478c-4 -7.33301 -7.50293 -16.168 -10.5029 -26.501s-5.83301 -23.833 -8.5 -40.5c-2 -10 -1.5 -16.333 1.5 -19s8.5 -4 16.5 -4h59l-24 -105h-71c-4 -9.33301 -7.33301 -19.833 -10 -31.5s-5 -23.167 -7 -34.5c-2 -9.33301 -1.83301 -15.333 0.5 -18s7.5 -4 15.5 -4
l55 -1l-31 -130l35.5 -13c11 -4 18.833 -6 23.5 -6c8.66699 -0.666992 14 4.33301 16 15l29 134h81l-29 -133c-1.33301 -4 -1.16602 -7.66699 0.500977 -11s5.5 -5 11.5 -5c10 0 21.833 1.5 35.5 4.5s21.834 5.83301 24.501 8.5l27 136h77
c6.66699 14.667 12.667 37.334 18 68.001c1.33301 14.667 -4.33398 21.667 -17.001 21h-57l24 105h63c7.33301 20 13.333 42 18 66c2 8.66699 1.16699 14.834 -2.5 18.501s-8.5 5.5 -14.5 5.5h-46l22 107c0 4 -0.166992 7.66699 -0.5 11s-2.16602 5 -5.49902 5
c-14.667 0 -28 -1.5 -40 -4.5s-20.333 -5.5 -25 -7.5l-26 -111h-78l22 107c2.66699 9.33301 0.333984 14.666 -6.99902 15.999c-7.33301 0 -18.5 -1.5 -33.5 -4.5s-25.833 -5.5 -32.5 -7.5l-26 -111h-74zM297.997 387.998l-24 -105h-78l24 105h78z" />
    <glyph glyph-name="dollar" unicode="$" horiz-adv-x="499" 
d="M333 657c-15.333 0 -28.667 -0.499023 -40 -1.49902s-23 -2.5 -35 -4.5c-12.667 -2 -19.667 -10 -21 -24l-8 -54c-14.667 -2 -31 -6.33301 -49 -13s-35 -16.334 -51 -29.001s-29.167 -28.667 -39.5 -48s-15.5 -42.333 -15.5 -69c0 -38 10.333 -69.5 31 -94.5
s54 -49.5 100 -73.5c42 -22 72.5 -39.667 91.5 -53s28.5 -29.666 28.5 -48.999c0 -14 -6 -27.167 -18 -39.5s-32.667 -18.5 -62 -18.5c-25.333 0 -51.5 4.83301 -78.5 14.5s-48.167 20.5 -63.5 32.5c-13.333 8.66699 -23 6.33398 -29 -6.99902
c-8 -9.33301 -12.5 -22 -13.5 -38s0.833008 -27.667 5.5 -35c16.667 -14 36.667 -25.833 60 -35.5s47.333 -15.5 72 -17.5l-10 -93c12.667 0 24.167 0.333008 34.5 1s22.166 1.66699 35.499 3c17.333 2 26.333 8.33301 27 19l8 75c18 2 36.833 6.66699 56.5 14
s37.5 18 53.5 32s29.333 31.167 40 51.5s16 44.5 16 72.5c0 45.333 -13.667 78.833 -41 100.5s-62.333 44.167 -105 67.5c-40 22 -68.333 39.833 -85 53.5s-25 29.167 -25 46.5c0 8 4.33301 18.667 13 32s29 20 61 20c16 0 33.5 -3 52.5 -9s37.5 -13.333 55.5 -22
c16 0 28.333 8.16699 37 24.5s13.334 30.166 14.001 41.499c-14 12 -32.667 22.167 -56 30.5s-43 13.166 -59 14.499z" />
    <glyph glyph-name="percent" unicode="%" horiz-adv-x="718" 
d="M571 580c-2 8 -6.66602 15.334 -13.999 22.001s-15 12 -23 16c-6 2 -10.5 3.16699 -13.5 3.5s-5.83301 -1.83398 -8.5 -6.50098l-90 -149l-98.5 -162l-96.5 -157.5l-84 -135.5c7.33301 -14 19.666 -26.333 36.999 -37c4 -2 8.16699 -3 12.5 -3s9.5 4.66699 15.5 14
l210 342zM183.001 602.001c-28 0 -51.5 -5.66699 -70.5 -17s-34.5 -25.333 -46.5 -42s-20.5 -34.667 -25.5 -54s-7.5 -37.333 -7.5 -54c0 -57.333 14 -99 42 -125s63.667 -39 107 -39c47.333 0 83 17.167 107 51.5s36 72.5 36 114.5c0 52 -12.5 92.5 -37.5 121.5
s-59.5 43.5 -103.5 43.5h-1zM177.001 539.001c20 0 33.167 -11.332 39.5 -33.999s9.5 -46.334 9.5 -71.001c0 -28 -3.5 -51.667 -10.5 -71s-18.5 -29 -34.5 -29c-16.667 0 -29 9.16699 -37 27.5s-12 43.5 -12 75.5c0 34 4.16699 59.5 12.5 76.5s18.833 25.5 31.5 25.5h1z
M541.001 319.002c-27.333 0 -50.5 -5.66797 -69.5 -17.001s-34.5 -25.333 -46.5 -42s-20.5 -34.667 -25.5 -54s-7.5 -37 -7.5 -53c0 -57.333 14 -99.166 42 -125.499s63.667 -39.5 107 -39.5c47.333 0 83 17.333 107 52s36 72.667 36 114c0 54 -12.5 95 -37.5 123
s-59.833 42 -104.5 42h-1zM536.001 256.001c20.667 0 34 -11 40 -33s9 -46 9 -72c-0.666992 -66 -15.667 -99.333 -45 -100c-32 1.33301 -48.333 36 -49 104c0 33.333 4 58.5 12 75.5s18.667 25.5 32 25.5h1z" />
    <glyph glyph-name="ampersand" unicode="&#x26;" horiz-adv-x="681" 
d="M654 10c-8 6.66699 -22.5029 20.499 -43.5029 41.499s-57.5 54.5 -109.5 100.5c68.667 120.667 117.667 198 147 232v3c-6.66699 4.66699 -17.167 10 -31.5 16s-33.166 9 -56.499 9c-20 -1.33301 -35 -12.333 -45 -33c-14 -26 -28.5 -55 -43.5 -87l-34.5 -73
c-8.66699 6.66699 -24.834 20.834 -48.501 42.501l-67.5 60.5c25.333 16 51.5 34.833 78.5 56.5s40.5 52.5 40.5 92.5c0 48 -16.167 83.833 -48.5 107.5s-71.166 35.5 -116.499 35.5c-53.333 0 -95.5 -16 -126.5 -48s-46.5 -69 -46.5 -111
c0 -22.667 4.16699 -45.667 12.5 -69s23.5 -46 45.5 -68l-39 -24c-14 -8.66699 -27 -19 -39 -31s-22 -26.167 -30 -42.5s-12 -35.5 -12 -57.5c0 -54 18 -96.667 54 -128s85.333 -47 148 -47c30 0 60 5.33301 90 16s59 29 87 55c6 -6 15.167 -14.167 27.5 -24.5
s22.833 -19.5 31.5 -27.5c10.667 -11.333 26.334 -17.333 47.001 -18c30.667 0 57.334 2 80.001 6s39 8 49 12v3zM217.997 471.999c0 22 5.33105 38.5 15.998 49.5s23.334 16.5 38.001 16.5c15.333 0 28.333 -6.16699 39 -18.5s16 -29.5 16 -51.5
c0.666992 -41.333 -17.666 -74 -54.999 -98c-18 16 -31.5 31.833 -40.5 47.5s-13.5 33.5 -13.5 53.5v1zM282.995 86.999c-35.333 0 -62.333 10.665 -81 31.998s-28 45 -28 71c0 20.667 4.16699 37.834 12.5 51.501s15.5 22.167 21.5 25.5
c7.33301 -9.33301 18 -21.166 32 -35.499l45 -44.5l45 -43l31 -29c-8 -7.33301 -19.167 -13.833 -33.5 -19.5s-28.833 -8.5 -43.5 -8.5h-1z" />
    <glyph glyph-name="quotesingle" unicode="'" horiz-adv-x="187" 
d="M123 686c-14 0 -30.5 -2.66699 -49.5 -8s-33.5 -10.333 -43.5 -15c6 -28.667 10.5 -64.334 13.5 -107.001s4.83301 -80 5.5 -112c14.667 0 29 3 43 9s23.333 12 28 18c7.33301 16 14.833 39.5 22.5 70.5s12.5 59.167 14.5 84.5
c0.666992 18.667 -0.833008 33.334 -4.5 44.001s-13.167 16 -28.5 16h-1z" />
    <glyph glyph-name="parenleft" unicode="(" horiz-adv-x="355" 
d="M54 244c0 -38 4.00098 -78.168 12.001 -120.501s20 -83.166 36 -122.499s36.5 -75.5 61.5 -108.5s54.5 -58.5 88.5 -76.5c6.66699 -1.33301 17 5.16699 31 19.5s22 32.5 24 54.5c-45.333 40 -80.833 93 -106.5 159s-38.5 135.333 -38.5 208
c0 70.667 12.667 138.167 38 202.5s61 119.5 107 165.5c2 12 -1.66699 26.5 -11 43.5s-20 27.5 -32 31.5c-64.667 -48 -115.834 -111 -153.501 -189s-56.5 -166.667 -56.5 -266v-1z" />
    <glyph glyph-name="parenright" unicode=")" horiz-adv-x="355" 
d="M309 273c0 44 -5.16699 88.1689 -15.5 132.502s-24.5 85.833 -42.5 124.5s-39 73 -63 103s-50 52.667 -78 68c-8 1.33301 -18.667 -5.16699 -32 -19.5s-20.666 -32.5 -21.999 -54.5c44.667 -40 80 -93.167 106 -159.5s39 -135.5 39 -207.5
c0 -71.333 -12.667 -139.333 -38 -204s-61 -120 -107 -166c-2 -14.667 2.16699 -29.5 12.5 -44.5s21.166 -24.5 32.499 -28.5c68 51.333 119.667 116.666 155 195.999s53 165.666 53 258.999v1z" />
    <glyph glyph-name="asterisk" unicode="*" horiz-adv-x="383" 
d="M180 530l-84.9971 98.002c-24.667 -14.667 -42.334 -32.667 -53.001 -54c-6.66699 -15.333 -1.33398 -27.333 15.999 -36l94 -40l-110 -28c-8 -2.66699 -11 -11.334 -9 -26.001c2 -12 6.66699 -24.667 14 -38s15.333 -22 24 -26l101 81l-36 -96
c-7.33301 -20 -2 -32 16 -36c14.667 -2.66699 28.5 -3.83398 41.5 -3.50098s23.167 1.5 30.5 3.5l-13 128l91 -99c7.33301 4 16.166 10.833 26.499 20.5s18.166 20.5 23.499 32.5c4 10 4 18 0 24s-9.33301 10.667 -16 14l-99 44l99 19c14.667 3.33301 20.334 14 17.001 32
c-4.66699 26.667 -16 47.667 -34 63l-99 -77l39 110c2 6 0.666992 11.167 -4 15.5s-12 7.5 -22 9.5c-13.333 2 -25.5 2.33301 -36.5 1s-19.5 -3 -25.5 -5z" />
    <glyph glyph-name="plus" unicode="+" horiz-adv-x="591" 
d="M246 211l-0.00195312 -206.002l43 2c22.667 0.666992 37.334 3.83398 44.001 9.50098s10 12.5 10 20.5v174h149c14 0 23.333 6.5 28 19.5s7 36.5 7 70.5h-184v145c0 15.333 -1.33301 25.333 -4 30s-9.66699 7 -21 7l-75 -6
c0.666992 -9.33301 1.33398 -22.166 2.00098 -38.499s1 -31.5 1 -45.5v-92h-150c-12.667 0 -21.5 -6.5 -26.5 -19.5s-7.5 -36.5 -7.5 -70.5h184z" />
    <glyph glyph-name="comma" unicode="," horiz-adv-x="226" 
d="M144 166c-17.333 0 -34.501 -3.00098 -51.501 -9.00098s-32.5 -12 -46.5 -18c4 -11.333 6.33301 -27.333 7 -48c0 -35.333 -6.5 -69.666 -19.5 -102.999s-31.5 -64.666 -55.5 -93.999c19.333 0 38.5 1.5 57.5 4.5s36.5 10.167 52.5 21.5
c24.667 18 47.334 43.667 68.001 77s31 66.666 31 99.999c0 16 -3.5 31.5 -10.5 46.5s-17.5 22.5 -31.5 22.5h-1z" />
    <glyph glyph-name="hyphen" unicode="-" horiz-adv-x="321" 
d="M284 320c-23.333 -7.33301 -56.501 -15.833 -99.501 -25.5s-80.167 -17.5 -111.5 -23.5c-6 -1.33301 -13.5 -11.166 -22.5 -29.499s-14.833 -41.166 -17.5 -68.499l3 -5c10 -0.666992 23.5 0.333008 40.5 3s35.333 6 55 10s38.834 8.66699 57.501 14s34 10.666 46 15.999
c12 2 23 14.667 33 38s16.333 45.666 19 66.999z" />
    <glyph glyph-name="period" unicode="." horiz-adv-x="226" 
d="M117 152c-28 0 -48.667 -8.33203 -62 -24.999s-20 -36.334 -20 -59.001c0 -28 8 -48.167 24 -60.5s33 -18.5 51 -18.5c24 0 43.5 7.5 58.5 22.5s22.5 35.167 22.5 60.5c0 21.333 -6.66699 40 -20 56s-31 24 -53 24h-1z" />
    <glyph glyph-name="slash" unicode="/" horiz-adv-x="397" 
d="M355 641l-71.001 -2c-13.333 -0.666992 -22.166 -3.16699 -26.499 -7.5s-7.5 -10.833 -9.5 -19.5l-207 -706l63 3c16 0.666992 27.333 3 34 7s12 12.667 16 26z" />
    <glyph glyph-name="zero" unicode="0" horiz-adv-x="499" 
d="M260 602c-43.333 0 -79.834 -9.3291 -109.501 -27.9961s-53.5 -43 -71.5 -73s-31 -63.333 -39 -100s-12 -73.334 -12 -110.001c0 -58 6.16699 -106.333 18.5 -145s28.5 -69.834 48.5 -93.501s43 -40.334 69 -50.001s53 -14.5 81 -14.5c71.333 0 126.833 26.667 166.5 80
s59.5 131.333 59.5 234c0 25.333 -2.5 55.166 -7.5 89.499s-15 67 -30 98s-36.167 57.5 -63.5 79.5s-63.666 33 -108.999 33h-1zM249.999 518.004c9.33301 0 18.668 -3.16895 28.001 -9.50195s17.833 -17.5 25.5 -33.5s14 -38 19 -66s7.5 -63.667 7.5 -107
c0 -51.333 -2.66699 -92.166 -8 -122.499s-11.833 -53.5 -19.5 -69.5s-15.834 -26.333 -24.501 -31s-16.667 -7 -24 -7c-9.33301 0 -19 3 -29 9s-19 17.5 -27 34.5s-14.667 40.333 -20 70s-8 67.834 -8 114.501c0 58 5.83301 108.833 17.5 152.5s32.167 65.5 61.5 65.5h1z
" />
    <glyph glyph-name="one" unicode="1" horiz-adv-x="499" 
d="M347 602c-10.667 -4.66699 -25.167 -10.5 -43.5 -17.5l-60.5 -22c-22 -7.66699 -44.833 -15.167 -68.5 -22.5s-45.834 -13.666 -66.501 -18.999l-26 -74l3 -4c8 0 18.167 1.16699 30.5 3.5s24.833 5 37.5 8l36.5 9c11.667 3 20.5 5.5 26.5 7.5
c0 -51.333 -0.333008 -102.5 -1 -153.5s-1 -98.5 -1 -142.5v-114v-67c8.66699 0 25.334 0.333008 50.001 1s47 1.66699 67 3c10 1.33301 17.167 3.5 21.5 6.5s6.5 9.5 6.5 19.5c0 20 -0.333008 57.833 -1 113.5s-1.16699 114.667 -1.5 177s-0.5 120.666 -0.5 174.999v107.5z
" />
    <glyph glyph-name="two" unicode="2" horiz-adv-x="499" 
d="M44 18l4.99609 -11c26.667 -4.66699 61.834 -7.5 105.501 -8.5s95.834 -1.5 156.501 -1.5c54 0.666992 86.333 5 97 13c8 2.66699 18.167 12.667 30.5 30s20.5 37 24.5 59c-24 -0.666992 -49.167 -1.5 -75.5 -2.5s-51.166 -1.5 -74.499 -1.5
s-44.166 0.166992 -62.499 0.5s-31.5 1.5 -39.5 3.5c76.667 74 128.667 134.667 156 182c14.667 24 26 47.167 34 69.5s12 47.5 12 75.5c0 48 -15.333 89.333 -46 124s-74 52 -130 52c-40 0 -77.667 -8 -113 -24s-65 -39 -89 -69c0.666992 -12.667 3.66699 -25.667 9 -39
c9.33301 -24 24.333 -27.667 45 -11c6 4.66699 18.667 12 38 22s39 15 59 15c30.667 0 52.5 -9.5 65.5 -28.5s19.5 -40.167 19.5 -63.5c0 -50.667 -17.333 -102 -52 -154s-87 -114.667 -157 -188z" />
    <glyph glyph-name="three" unicode="3" horiz-adv-x="499" 
d="M45 83c-1.33301 -16.667 1.00195 -32.833 7.00195 -48.5s14 -27.167 24 -34.5c6.66699 -6 20 -12.5 40 -19.5s46.667 -10.5 80 -10.5c73.333 0 135.166 17.833 185.499 53.5s75.5 87.167 75.5 154.5c0 38 -12.333 70.5 -37 97.5s-61.667 45.167 -111 54.5
c33.333 15.333 59 33.5 77 54.5s27 46.833 27 77.5c0 10 -2.33301 22.833 -7 38.5s-13.167 31 -25.5 46s-30 28 -53 39s-53.167 16.5 -90.5 16.5c-38 0 -73.833 -8.66699 -107.5 -26s-58.5 -36.333 -74.5 -57c-0.666992 -6 -0.5 -13.333 0.5 -22s3.5 -16.667 7.5 -24
c5.33301 -10.667 12 -15.834 20 -15.501s16 3.5 24 9.5c10 6.66699 23.667 14 41 22s35 12 53 12c22 0 39.667 -6.5 53 -19.5s20 -30.5 20 -52.5c0 -26.667 -9.5 -47.667 -28.5 -63s-48.5 -27.333 -88.5 -36c-6 -6.66699 -12.667 -18.167 -20 -34.5s-11.333 -30.5 -12 -42.5
l5 -4c16.667 2 36 3.66699 58 5c79.333 -1.33301 119 -30.666 119 -87.999c0 -31.333 -10.333 -56.5 -31 -75.5s-54.334 -28.5 -101.001 -28.5c-21.333 0 -44 2.5 -68 7.5s-43.333 10.5 -58 16.5z" />
    <glyph glyph-name="four" unicode="4" horiz-adv-x="499" 
d="M411 621c-18 -2.66699 -41.498 -7.83105 -70.498 -15.498s-53.167 -16.834 -72.5 -27.501c-13.333 -14 -31.666 -36 -54.999 -66s-47.5 -62.833 -72.5 -98.5l-71.5 -106c-22.667 -35 -40 -64.167 -52 -87.5c0 -10 5 -22.833 15 -38.5s17 -24.5 21 -26.5
c9.33301 -2 22.666 -4 39.999 -6s36 -3.66699 56 -5s40.5 -2.16602 61.5 -2.49902s40.5 -0.5 58.5 -0.5c0 -9.33301 -0.666992 -29.666 -2 -60.999s-3 -60 -5 -86c9.33301 0 26.166 0.5 50.499 1.5s45.166 2.83301 62.499 5.5c10 1.33301 18 3.5 24 6.5s9 8.5 9 16.5v28v36
v33.5v20.5c6 0.666992 12.667 1.66699 20 3s15.666 4.33301 24.999 9c12.667 17.333 22.334 43.333 29.001 78l-2 3c-11.333 -0.666992 -24.5 -1.5 -39.5 -2.5s-25.833 -1.5 -32.5 -1.5v151l-4 4c-8 -1.33301 -18.333 -3.33301 -31 -6s-25.5 -5.83398 -38.5 -9.50098
s-25 -7.33398 -36 -11.001s-19.167 -7.16699 -24.5 -10.5l-4 -117c-24 -0.666992 -46.833 -0.333984 -68.5 0.999023s-40.5 3.33301 -56.5 6c41.333 73.333 86 141.5 134 204.5s93 119.5 135 169.5z" />
    <glyph glyph-name="five" unicode="5" horiz-adv-x="499" 
d="M64 270c22 -2 50.667 -5.5 86 -10.5s66 -11.5 92 -19.5c19.333 -6 35.833 -15 49.5 -27s20.5 -29 20.5 -51c0 -36.667 -14.5 -63 -43.5 -79s-63.833 -24 -104.5 -24c-20 0 -40 1.66699 -60 5s-34.333 6.66602 -43 9.99902l-4 -4c0 -14 2.5 -28.5 7.5 -43.5
s12.5 -26.167 22.5 -33.5c16.667 -15.333 52.334 -23 107.001 -23c34 0 66.833 4.66699 98.5 14s59.5 22.833 83.5 40.5s43.333 39.334 58 65.001s22 55.167 22 88.5c0 44.667 -11.333 79 -34 103s-57.334 44 -104.001 60c-16 4.66699 -38.667 9.66699 -68 15
s-56.666 9.66602 -81.999 12.999c3.33301 16 7.5 34.833 12.5 56.5s9.16699 37.5 12.5 47.5c47.333 2 86.166 5 116.499 9s52.166 11 65.499 21c10.667 8 19.667 21 27 39s13 36.667 17 56l-1 4c-8 -2.66699 -26 -5.5 -54 -8.5s-58.333 -5.5 -91 -7.5
s-63.667 -3.66699 -93 -5s-48.666 -1.66602 -57.999 -0.999023c-3.33301 -6.66699 -8 -20.834 -14 -42.501s-12.5 -46.667 -19.5 -75s-13.833 -58.166 -20.5 -89.499s-12 -60 -16 -86z" />
    <glyph glyph-name="six" unicode="6" horiz-adv-x="499" 
d="M463 559c-8 24 -18.1689 40.166 -30.502 48.499s-26.5 12.5 -42.5 12.5c-31.333 0 -72.333 -8.83301 -123 -26.5s-96.667 -48.5 -138 -92.5c-34 -36 -59.333 -75.5 -76 -118.5s-25 -90.833 -25 -143.5c0 -84 21.5 -146.833 64.5 -188.5s96.167 -62.5 159.5 -62.5
c60.667 0 112.334 18.167 155.001 54.5s64 87.833 64 154.5c0 40 -12 77.667 -36 113s-63.667 53 -119 53c-17.333 0 -35.166 -3 -53.499 -9s-32.166 -13 -41.499 -21c-6.66699 -6 -12.334 -16.667 -17.001 -32s-7 -27.333 -7 -36c17.333 5.33301 34.333 7.66602 51 6.99902
c16 0 34.667 -7 56 -21s32 -42 32 -84c0 -24.667 -5.66699 -46.667 -17 -66s-29 -29 -53 -29s-45.5 13.833 -64.5 41.5s-28.5 71.5 -28.5 131.5c0 35.333 5 71.833 15 109.5s27.333 70.834 52 99.501c26 30 56.833 52.833 92.5 68.5s78.5 26.834 128.5 33.501z" />
    <glyph glyph-name="seven" unicode="7" horiz-adv-x="499" 
d="M465 590l-58.5 -0.00195312h-89h-86.5h-51c-46 -1.33301 -75 1.66699 -87 9c-12 -10 -23.5 -23.5 -34.5 -40.5s-17.5 -31.167 -19.5 -42.5s0.833008 -20.166 8.5 -26.499s29.5 -9.5 65.5 -9.5c54 0 100.667 0.333008 140 1s66 1 80 1c-14 -44 -30.667 -89 -50 -135
s-40 -90.667 -62 -134s-45 -83.833 -69 -121.5s-47 -70.5 -69 -98.5l2 -4c20 -2 47.333 -0.333008 82 5c32 5.33301 55.333 17 70 35c13.333 15.333 32.833 46.833 58.5 94.5s51.5 100.334 77.5 158.001s48.5 114.5 67.5 170.5s28.5 100.333 28.5 133z" />
    <glyph glyph-name="eight" unicode="8" horiz-adv-x="499" 
d="M256 602c-66.667 0 -116.5 -17.666 -149.5 -52.999s-49.5 -74 -49.5 -116c0 -28 6.66699 -54.333 20 -79s37 -47 71 -67c-28.667 -14.667 -54.667 -32.5 -78 -53.5s-35 -49.5 -35 -85.5c0 -17.333 3.16699 -35.333 9.5 -54s17.5 -36 33.5 -52s37.5 -29 64.5 -39
s61.5 -15 103.5 -15c62 0 113.833 15.833 155.5 47.5s62.5 73.5 62.5 125.5c0 39.333 -10 70.666 -30 93.999s-49.333 45.666 -88 66.999c26 14 48.167 30.833 66.5 50.5s27.5 45.834 27.5 78.501c0 41.333 -16 76.833 -48 106.5s-77 44.5 -135 44.5h-1zM250 523.001
c24 0 42.167 -7.83301 54.5 -23.5s18.5 -34.167 18.5 -55.5c-0.666992 -37.333 -14 -66 -40 -86c-38 16 -64.5 31.667 -79.5 47s-22.5 33 -22.5 53c0 18 6.16699 33.333 18.5 46s28.833 19 49.5 19h1zM252 67.001c-26 0 -46.999 8.66699 -62.999 26s-24 38 -24 62
c0 16.667 3.66699 33 11 49s20.666 30.667 39.999 44c40 -19.333 68.333 -37.5 85 -54.5s25 -34.833 25 -53.5c0 -21.333 -6.83301 -38.833 -20.5 -52.5s-31.167 -20.5 -52.5 -20.5h-1z" />
    <glyph glyph-name="nine" unicode="9" horiz-adv-x="499" 
d="M59 35c3.33301 -22 13.666 -40 30.999 -54c9.33301 -7.33301 24.333 -11 45 -11c22.667 0 54 6.33301 94 19s80 37.334 120 74.001c43.333 40.667 73.833 85.167 91.5 133.5s26.5 98.5 26.5 150.5c0 33.333 -4.5 65.166 -13.5 95.499s-22.5 57.333 -40.5 81
s-40.5 42.667 -67.5 57s-58.5 21.5 -94.5 21.5c-70 0 -124.5 -21.333 -163.5 -64s-58.5 -91 -58.5 -145c0 -54.667 15.167 -97.5 45.5 -128.5s68.5 -46.5 114.5 -46.5c37.333 0 64 7 80 21c8 6 14.667 17.333 20 34s8 30.667 8 42c-6 -2 -13.167 -3.5 -21.5 -4.5
s-14.166 -1.5 -17.499 -1.5c-20 0 -40.333 7.83301 -61 23.5s-31 43.167 -31 82.5c0 27.333 6.33301 51.333 19 72s31 31 55 31c28 0 48.667 -15.833 62 -47.5s20 -70.5 20 -116.5c0 -42.667 -5.16699 -85.167 -15.5 -127.5s-31.5 -78.833 -63.5 -109.5
c-27.333 -26 -57.5 -44.5 -90.5 -55.5s-63.833 -18.833 -92.5 -23.5z" />
    <glyph glyph-name="colon" unicode=":" horiz-adv-x="226" 
d="M116 425c-27.333 0 -47.667 -8.16699 -61 -24.5s-20 -35.833 -20 -58.5c0 -28 8.16699 -48.333 24.5 -61s33.5 -19 51.5 -19c24 0 43.167 7.33301 57.5 22s21.5 35 21.5 61c0 21.333 -6.66699 40 -20 56s-31 24 -53 24h-1zM116.999 152
c-27.333 0 -47.833 -8.16699 -61.5 -24.5s-20.5 -35.833 -20.5 -58.5c0 -28 8.16699 -48.333 24.5 -61s33.5 -19 51.5 -19c24 0 43.333 7.5 58 22.5s22 35.167 22 60.5c0 21.333 -6.66699 40 -20 56s-31 24 -53 24h-1z" />
    <glyph glyph-name="semicolon" unicode=";" horiz-adv-x="226" 
d="M116 425c-27.333 0 -47.667 -8.33203 -61 -24.999s-20 -36.334 -20 -59.001c0 -28 8.16699 -48.167 24.5 -60.5s33.5 -18.5 51.5 -18.5c24 0 43.167 7.33301 57.5 22s21.5 35 21.5 61c0 21.333 -6.66699 40 -20 56s-31 24 -53 24h-1zM143.999 166.001
c-17.333 0 -34.501 -3.00098 -51.501 -9.00098s-32.5 -12 -46.5 -18c4 -11.333 6.33301 -27.333 7 -48c0 -35.333 -6.5 -69.666 -19.5 -102.999s-31.5 -64.666 -55.5 -93.999c19.333 0 38.5 1.5 57.5 4.5s36.5 10.167 52.5 21.5c24.667 18 47.334 43.667 68.001 77
s31 66.666 31 99.999c0 16 -3.5 31.5 -10.5 46.5s-17.5 22.5 -31.5 22.5h-1z" />
    <glyph glyph-name="less" unicode="&#x3c;" horiz-adv-x="591" 
d="M504 378c0 7.33301 -1.16602 18.667 -3.49902 34s-4.83301 27 -7.5 35c-6 15.333 -16 19 -30 11l-364 -189c-7.33301 -15.333 -11.333 -37 -12 -65c0 -8 1.33301 -13.667 4 -17s6.66699 -6 12 -8l360 -182c14 -6 22.667 -4 26 6c3.33301 8 6.66602 20.5 9.99902 37.5
s5 29.167 5 36.5l-312 150v3z" />
    <glyph glyph-name="equal" unicode="=" horiz-adv-x="591" 
d="M493 305c14 0 23 8.33301 27 25s6.33301 38.334 7 65.001h-430c-12 0 -20.5 -6.83301 -25.5 -20.5s-7.5 -36.834 -7.5 -69.501h429zM493 103c14 0 23 8.33301 27 25s6.33301 38.334 7 65.001h-430c-12 0 -20.5 -6.83301 -25.5 -20.5s-7.5 -36.834 -7.5 -69.501h429z" />
    <glyph glyph-name="greater" unicode="&#x3e;" horiz-adv-x="591" 
d="M87 77c0 -8 1.00098 -19.668 3.00098 -35.001s4.66699 -27 8 -35c6.66699 -14 16.667 -17.333 30 -10l364 188c3.33301 6.66699 6.16602 15.834 8.49902 27.501s3.5 24.167 3.5 37.5c0 8 -1.5 13.667 -4.5 17s-6.83301 6.33301 -11.5 9l-360 181
c-14 7.33301 -22.667 5.66602 -26 -5.00098c-4 -8 -7.5 -20.667 -10.5 -38s-4.5 -29.666 -4.5 -36.999l312 -149v-3z" />
    <glyph glyph-name="question" unicode="?" horiz-adv-x="376" 
d="M201 607c-22 0 -47.3311 -4.00293 -75.998 -12.0029s-54 -23 -76 -45c-4.66699 -11.333 -5.33398 -25.166 -2.00098 -41.499s11 -28.166 23 -35.499h5c15.333 10 30.833 17.333 46.5 22s29.834 7 42.501 7c11.333 0 22 -3 32 -9s15 -16.333 15 -31
c0 -14 -4.33301 -27.167 -13 -39.5s-20 -26.166 -34 -41.499c-14 -14.667 -25.667 -31 -35 -49s-14 -36 -14 -54c0 -28.667 7.33301 -50.667 22 -66s33 -23 55 -23c8.66699 0 17 1.33301 25 4s13 5.33398 15 8.00098c-6 13.333 -9.33301 28.666 -10 45.999
c0 15.333 5.16699 31 15.5 47s26.166 35 47.499 57c21.333 22.667 37.166 44 47.499 64s15.5 40.333 15.5 61c0 40.667 -13.333 72.667 -40 96s-62 35 -106 35h-1zM191.002 147.997c-28 0 -48.833 -8.00098 -62.5 -24.001s-20.5 -35 -20.5 -57
c0 -27.333 8.33301 -47.166 25 -59.499s34 -18.5 52 -18.5c24 0 43.667 7.33301 59 22s23 34.334 23 59.001c0 21.333 -7 39.666 -21 54.999s-32 23 -54 23h-1z" />
    <glyph glyph-name="at" unicode="@" horiz-adv-x="802" 
d="M565 -30c-24 -16 -50.334 -28.834 -79.001 -38.501s-58.334 -14.5 -89.001 -14.5c-76.667 0 -138.5 23.333 -185.5 70s-70.5 111 -70.5 193c0 42 7 82.5 21 121.5s34.333 73.5 61 103.5s59.334 54 98.001 72s82.334 27 131.001 27c64 0 117.667 -20.667 161 -62
s65 -94 65 -158c0 -63.333 -12.5 -110.333 -37.5 -141s-47.167 -46 -66.5 -46c-20.667 0.666992 -29 13 -25 37c1.33301 14 4 33.167 8 57.5s8.5 49.5 13.5 75.5s10 50.167 15 72.5s9.16699 38.5 12.5 48.5c-20 3.33301 -40.167 7.5 -60.5 12.5s-46.166 7.5 -77.499 7.5
c-78 0 -139.667 -25.5 -185 -76.5s-68 -113.5 -68 -187.5c0 -42 8.16699 -73.333 24.5 -94s36.833 -31 61.5 -31c24 0 50.167 7.16699 78.5 21.5s54.166 40.5 77.499 78.5c-7.33301 -36 -4.33301 -61.667 9 -77s36 -23 68 -23c33.333 0 64.5 6.33301 93.5 19
s54.5 30.834 76.5 54.501s39.333 51.667 52 84s19 67.833 19 106.5c0 43.333 -7.83301 82.833 -23.5 118.5s-37.5 66.5 -65.5 92.5s-61.167 46.167 -99.5 60.5s-79.833 21.5 -124.5 21.5c-62 0 -118.333 -10.167 -169 -30.5s-94 -48.5 -130 -84.5s-64 -79.167 -84 -129.5
s-30 -105.833 -30 -166.5c0 -104.667 30.5 -185.5 91.5 -242.5s139.5 -85.5 235.5 -85.5c42 0 79.167 4.66699 111.5 14s58.166 22 77.499 38c10.667 8 16.834 21.333 18.501 40s-0.833008 32 -7.5 40zM349.999 105.999c-6.66699 0 -12.834 3.66895 -18.501 11.002
s-8.5 22.666 -8.5 45.999c0 19.333 2.66699 39.166 8 59.499s13 38.833 23 55.5s22.667 30.5 38 41.5s33 16.5 53 16.5c14 0.666992 27 -1.33301 39 -6c-2 -8 -5.83301 -24.5 -11.5 -49.5s-13.167 -48.167 -22.5 -69.5c-15.333 -36 -32.666 -62.5 -51.999 -79.5
s-35 -25.5 -47 -25.5h-1z" />
    <glyph glyph-name="A" unicode="A" horiz-adv-x="640" 
d="M416 161l23 -66.499l24 -67.5c4.66699 -14 9.66699 -23 15 -27s12.333 -6 21 -6c6 0 14.833 0.5 26.5 1.5s24.167 2 37.5 3s25.833 2 37.5 3s20.5 2.5 26.5 4.5l1 4c-10.667 22.667 -22.667 50.667 -36 84l-50 131l-30.5 79.5l-39.5 102.5l-41.5 107.5l-37.5 95.5
c-6 13.333 -14 19.666 -24 18.999c-6 0 -22.333 -1.16699 -49 -3.5s-51 -5.5 -73 -9.5l6 -18l-48 -116l-69.5 -169l-71 -173.5l-52.5 -128.5l1 -4c12 -4 28.5 -7.16699 49.5 -9.5s38.167 -3.5 51.5 -3.5c17.333 0 27.333 5 30 15c6 14.667 14.833 37.667 26.5 69l31.5 83
h214zM232 254.001l43 118.5l35 101.5l79 -220h-157z" />
    <glyph glyph-name="B" unicode="B" horiz-adv-x="560" 
d="M70 7c20 -4 47.668 -7.83105 83.001 -11.498s66.666 -5.5 93.999 -5.5c82 0 148.667 17.167 200 51.5s77 84.833 77 151.5c0 32.667 -10.5 62.5 -31.5 89.5s-52.833 46.833 -95.5 59.5c22.667 11.333 43.334 28.166 62.001 50.499s28 49.166 28 80.499
c0 16 -2.83301 33.167 -8.5 51.5s-16.5 35.5 -32.5 51.5s-38.833 29.167 -68.5 39.5s-68.5 15.5 -116.5 15.5c-16 0 -34 -0.833008 -54 -2.5s-39.333 -3.5 -58 -5.5s-35.5 -4.16699 -50.5 -6.5s-25.5 -4.16602 -31.5 -5.49902
c1.33301 -21.333 2.16602 -40.833 2.49902 -58.5s0.5 -39.834 0.5 -66.501v-479zM209.001 543.002c4.66699 0.666992 11.833 1.5 21.5 2.5s18.5 1.5 26.5 1.5c26 0 48.333 -7.66699 67 -23s28 -39 28 -71c0 -24 -4.16699 -43.5 -12.5 -58.5s-18.5 -25.5 -30.5 -31.5
c-24 0 -43.167 -0.5 -57.5 -1.5s-28.5 -2.5 -42.5 -4.5v186zM209 277.002c14 2 28 2.66699 42 2c37.333 0 66.5 -8.5 87.5 -25.5s31.5 -40.167 31.5 -69.5c0 -36 -10.667 -63.333 -32 -82s-49 -28 -83 -28c-7.33301 0 -15.333 0.166992 -24 0.5s-16 1.5 -22 3.5v199z" />
    <glyph glyph-name="C" unicode="C" horiz-adv-x="595" 
d="M564 109c-12.667 -4 -31.334 -8.83105 -56.001 -14.498s-54 -8.5 -88 -8.5c-76 0 -134.167 22.167 -174.5 66.5s-60.5 98.5 -60.5 162.5c0 77.333 20 134.833 60 172.5s89 56.5 147 56.5c26 0 50 -2.66699 72 -8s40 -11 54 -17c18.667 -2.66699 33.5 4 44.5 20
s15.833 33 14.5 51c-8 8.66699 -29.167 19.167 -63.5 31.5s-74.833 18.5 -121.5 18.5c-50 0 -97 -7.83301 -141 -23.5s-82.167 -37.834 -114.5 -66.501s-57.666 -63.5 -75.999 -104.5s-27.5 -87.5 -27.5 -139.5c0 -96 30.333 -173.5 91 -232.5s149 -88.5 265 -88.5
c32 0 60.667 3.66699 86 11s44.333 15 57 23c19.333 19.333 31.333 48.666 36 87.999z" />
    <glyph glyph-name="D" unicode="D" horiz-adv-x="668" 
d="M70 8c33.333 -6 66.6699 -10.499 100.003 -13.499s68.666 -4.5 105.999 -4.5c50.667 0 98 7.16699 142 21.5s82 35.5 114 63.5s57.333 62.667 76 104s28 89 28 143c0 32 -4.5 66 -13.5 102s-26.333 69.333 -52 100s-61.167 56.167 -106.5 76.5s-105 30.5 -179 30.5
c-44.667 0 -88.834 -2.83301 -132.501 -8.5s-71.834 -9.83398 -84.501 -12.501c0 -12 0.333008 -25.167 1 -39.5s1 -38.5 1 -72.5v-490zM213.004 539.001c9.33301 2 28.002 3.33203 56.002 3.99902c65.333 0 117.5 -18.5 156.5 -55.5s58.5 -92.5 58.5 -166.5
c0 -52.667 -7.33301 -95 -22 -127s-32.334 -56.667 -53.001 -74s-42.667 -28.666 -66 -33.999s-44 -8 -62 -8c-22.667 -0.666992 -45.334 1.33301 -68.001 6v455z" />
    <glyph glyph-name="E" unicode="E" horiz-adv-x="482" 
d="M70 24l16.001 -19.998c12 -2.66699 33.167 -5 63.5 -7s68.166 -3 113.499 -3c81.333 0 129 1.66699 143 5c13.333 8 24.833 18.833 34.5 32.5s17.167 33.167 22.5 58.5l-2 2c-26 -2 -55.833 -3.16699 -89.5 -3.5s-59.834 -0.5 -78.501 -0.5
c-17.333 0 -32.166 0.5 -44.499 1.5s-24.166 2.5 -35.499 4.5v181h143c18 0 32.5 6 43.5 18s19.167 37.333 24.5 76h-211v162h88c22 0 42.333 0.166992 61 0.5s32 2.16602 40 5.49902c6 6.66699 12 16 18 28s11 32 15 60h-66h-68h-61h-43
c-24 -0.666992 -47.667 -2.33398 -71 -5.00098s-43 -5.66699 -59 -9c1.33301 -22 2.16602 -42.5 2.49902 -61.5s0.5 -40.5 0.5 -64.5v-461z" />
    <glyph glyph-name="F" unicode="F" horiz-adv-x="464" 
d="M70 14c0 -8.66699 1.83105 -14.168 5.49805 -16.501s9.83398 -3.5 18.501 -3.5c23.333 0 47.166 0.833008 71.499 2.5s41.166 3.5 50.499 5.5c-2 74 -3 158.333 -3 253h142c20 0 36.333 4.66699 49 14s22.334 36 29.001 80h-220v182h121c22.667 0 40 0.166992 52 0.5
s21.667 2.16602 29 5.49902c6.66699 6 13.834 15.333 21.501 28s14.167 32.667 19.5 60h-58h-77.5h-72.5h-42c-25.333 -1.33301 -52.5 -3.66602 -81.5 -6.99902s-48.167 -6 -57.5 -8c0.666992 -20.667 1.33398 -38.667 2.00098 -54s1 -32.666 1 -51.999v-490z" />
    <glyph glyph-name="G" unicode="G" horiz-adv-x="647" 
d="M456 80c-10.667 -4 -28.999 -6.33105 -54.999 -6.99805c-28 0 -55 5 -81 15s-49 25 -69 45s-36.167 45.167 -48.5 75.5s-18.5 66.166 -18.5 107.499c0 76 19.667 132.333 59 169s87.666 55 144.999 55c53.333 -1.33301 101.333 -11.333 144 -30
c18 -3.33301 33.667 2 47 16s20 32.333 20 55c-14 12.667 -39.167 25.667 -75.5 39s-81.166 20 -134.499 20c-50 0 -96.667 -7.83301 -140 -23.5s-81 -37.667 -113 -66s-57.333 -63 -76 -104s-28 -87.167 -28 -138.5c0 -64 10.167 -116.833 30.5 -158.5s47 -74.667 80 -99
s70 -41.333 111 -51s82.167 -14.5 123.5 -14.5c24 0 48.333 2.16699 73 6.5s46.334 9.16602 65.001 14.499c14 6.66699 28.667 15 44 25s28.666 19.667 39.999 29v224c0 10 -2 17 -6 21s-10 6 -18 6c-16 0 -35.833 -2 -59.5 -6s-44.834 -7 -63.501 -9
c0 -12 0.666992 -23.667 2 -35s2 -25.333 2 -42v-139z" />
    <glyph glyph-name="H" unicode="H" horiz-adv-x="665" 
d="M213 372v202.002c0 22 -1.33301 36.667 -4 44s-9 11 -19 11c-12 0 -31.667 -0.833008 -59 -2.5s-48.666 -3.5 -63.999 -5.5c2 -18.667 3 -61.334 3 -128.001v-317c0 -82 -1 -142.667 -3 -182c10 0 27.5 0.333008 52.5 1s44.833 1.66699 59.5 3
c12 1.33301 20.667 3.5 26 6.5s8 10.167 8 21.5v253h139c47.333 0 80.666 1 99.999 3v-268c0 -8.66699 2 -14.167 6 -16.5s10 -3.5 18 -3.5c6 0 14.833 0.333008 26.5 1l35.5 2l34.5 2c11 0.666992 19.5 1.66699 25.5 3c-0.666992 10 -1.33398 24.167 -2.00098 42.5
s-1 45.166 -1 80.499v323c0 82.667 1 143 3 181c-18 -0.666992 -39.167 -1.33398 -63.5 -2.00098s-42.833 -1.33398 -55.5 -2.00098c-9.33301 -1.33301 -16.166 -3.66602 -20.499 -6.99902s-6.5 -10.666 -6.5 -21.999v-224h-239z" />
    <glyph glyph-name="I" unicode="I" horiz-adv-x="283" 
d="M70 14c0 -8.66699 1.83203 -14.167 5.49902 -16.5s9.83398 -3.5 18.501 -3.5c6 0 15 0.333008 27 1l36.5 2c12.333 0.666992 24 1.33398 35 2.00098s18.833 1.66699 23.5 3c-0.666992 10 -1.33398 24.167 -2.00098 42.5s-1 45.166 -1 80.499v448
c0 22.667 -1.33301 37.667 -4 45s-9 11 -19 11c-6 0 -15 -0.5 -27 -1.5s-24.167 -1.83301 -36.5 -2.5s-24.166 -1.5 -35.499 -2.5s-19.333 -1.5 -24 -1.5c2 -18 3 -60.333 3 -127v-480z" />
    <glyph glyph-name="J" unicode="J" horiz-adv-x="283" 
d="M70 152c0 -43.333 -1.99902 -78.166 -5.99902 -104.499s-10 -47 -18 -62s-18.667 -25.833 -32 -32.5s-30 -12 -50 -16l-2 -3c3.33301 -17.333 10.666 -32.5 21.999 -45.5s25 -19.5 41 -19.5c20.667 0 43.167 5 67.5 15s44.5 23.333 60.5 40
c21.333 23.333 36.666 51 45.999 83s14 80.667 14 146v422c0 21.333 -1.33301 35.666 -4 42.999s-9 11 -19 11c-12 0 -31.667 -1 -59 -3s-48.666 -3.66699 -63.999 -5c2 -18 3 -60 3 -126v-343z" />
    <glyph glyph-name="K" unicode="K" horiz-adv-x="595" 
d="M70 14c0 -8.66699 1.99707 -14.165 5.99707 -16.498s10 -3.5 18 -3.5c6 0 15 0.333008 27 1l36.5 2c12.333 0.666992 24 1.33398 35 2.00098s18.833 1.66699 23.5 3c-0.666992 10 -1.33398 24.167 -2.00098 42.5s-1 45.166 -1 80.499v178
c2.66699 -8 11.334 -23.167 26.001 -45.5l50 -74l56.5 -79.5c19 -26 34.5 -46 46.5 -60c16.667 -22 31 -36.167 43 -42.5s27 -9.5 45 -9.5c26 0 50.167 1.66699 72.5 5s35.833 6.66602 40.5 9.99902v4c-15.333 16 -34.166 38.333 -56.499 67l-68.5 90l-65.5 91
c-20.333 29.333 -35.833 53.333 -46.5 72l52.5 63.5l55.5 67.5l51 62c16 19.333 29 35.666 39 48.999c10 14 14.333 25.167 13 33.5s-12 14.5 -32 18.5c-31.333 6 -57.666 8.66699 -78.999 8l-54 -74l-64 -83l-65.5 -82.5l-59.5 -72.5v253c0 22 -1.33301 36.667 -4 44
s-9 11 -19 11c-6 0 -15 -0.5 -27 -1.5s-24.167 -1.83301 -36.5 -2.5s-24.166 -1.5 -35.499 -2.5s-19.333 -1.5 -24 -1.5c2 -18 3 -60.333 3 -127v-480z" />
    <glyph glyph-name="L" unicode="L" horiz-adv-x="454" 
d="M70 24l16.002 -20.001c12 -2.66699 33.667 -5 65 -7s68 -3 110 -3c40 0 69.833 0.5 89.5 1.5s33.5 2.16699 41.5 3.5c27.333 16.667 45.666 47.334 54.999 92.001l-2 2c-26 -2.66699 -53 -4.16699 -81 -4.5s-51.667 -0.5 -71 -0.5c-34.667 0 -61.334 2.33301 -80.001 7
v473c0 24.667 -1.33301 41 -4 49s-9 12 -19 12c-22 0 -45 -1 -69 -3s-42 -3.66699 -54 -5c2 -20.667 3 -63.667 3 -129v-468z" />
    <glyph glyph-name="M" unicode="M" horiz-adv-x="826" 
d="M566 600l-35.0039 -88.5039l-38.5 -102.5l-38.5 -105l-34 -94l-131 370c-8 21.333 -14.167 34.833 -18.5 40.5s-10.5 8.5 -18.5 8.5c-28 0 -52.167 -2 -72.5 -6l-51.5 -10l2 -16c-10 -58 -19.5 -116.5 -28.5 -175.5l-25.5 -168l-21.5 -145l-15.5 -105.5
c8 -4 23.167 -6.5 45.5 -7.5s41.5 -1.5 57.5 -1.5c11.333 0 17.666 5.66699 18.999 17l11.5 106l13 124l13 122.5c4.33301 39.667 7.83301 73.834 10.5 102.501l36.5 -118l42.5 -138l39.5 -126.5l27.5 -83.5c24.667 0.666992 48.334 3.33398 71.001 8.00098
c12 2 20.833 5.5 26.5 10.5s10.5 13.167 14.5 24.5l83 252.5c24 73.667 42 131.167 54 172.5l21 -227c4.66699 -56.667 8.66699 -101.5 12 -134.5s6.33301 -61.5 9 -85.5c0.666992 -11.333 4 -18.666 10 -21.999s12.667 -5 20 -5c5.33301 0 13.333 0.333008 24 1
s22 1.33398 34 2.00098s23.333 1.33398 34 2.00098s18.334 2 23.001 4c-8 47.333 -19 123 -33 227l-48 366c-2 13.333 -4.66699 22.166 -8 26.499s-7.66602 6.5 -12.999 6.5c-7.33301 0 -17.166 -0.5 -29.499 -1.5s-24.666 -2.16699 -36.999 -3.5s-23.833 -3 -34.5 -5
s-18 -4 -22 -6v-13z" />
    <glyph glyph-name="N" unicode="N" horiz-adv-x="666" 
d="M70 594v-417.999c0 -82.667 -1 -143.334 -3 -182.001c18 0 35.5 0.333008 52.5 1s30.167 1.66699 39.5 3c8.66699 1.33301 14.834 3.5 18.501 6.5s5.5 9.5 5.5 19.5v263c0 26 -0.166992 53.333 -0.5 82s-1.83301 66 -4.5 112l56 -112.5
c17.333 -33.667 41.333 -75.167 72 -124.5l86.5 -141.5c20.333 -33 41.5 -65.5 63.5 -97.5c4 -6 8 -10.333 12 -13s10 -4 18 -4c16.667 0 38 2.33301 64 7s41.667 8 47 10v440c0 81.333 1 142.666 3 183.999c-12.667 0 -27.334 -0.5 -44.001 -1.5s-33 -2.16699 -49 -3.5
c-8 -0.666992 -13.833 -2.66699 -17.5 -6s-5.5 -10.666 -5.5 -21.999v-279v-68c0 -19.333 2 -45.333 6 -78c-12 26 -26.333 52.833 -43 80.5l-56 95.5l-46 75l-46.5 75l-41 66l-29.5 48c-9.33301 11.333 -19 17.333 -29 18c-5.33301 0 -14.833 -0.5 -28.5 -1.5
s-28.167 -1.83301 -43.5 -2.5s-29.833 -1.5 -43.5 -2.5s-23.167 -1.5 -28.5 -1.5v-5z" />
    <glyph glyph-name="O" unicode="O" horiz-adv-x="714" 
d="M360 640c-52 0 -98.167 -8.50098 -138.5 -25.501s-74.5 -40.5 -102.5 -70.5s-49.333 -65.167 -64 -105.5s-22 -83.833 -22 -130.5c0 -40 5.83301 -79.333 17.5 -118s30.5 -73.167 56.5 -103.5s59.5 -54.833 100.5 -73.5s90.5 -28 148.5 -28
c52.667 0 99.167 8.83301 139.5 26.5s74.333 41.5 102 71.5s48.667 65.167 63 105.5s21.5 83.5 21.5 129.5c0 43.333 -7.16699 84.333 -21.5 123s-35 72.834 -62 102.501s-60.333 53.167 -100 70.5s-85.5 26 -137.5 26h-1zM349 551.999
c59.333 0 104.501 -23.834 135.501 -71.501s46.5 -105.5 46.5 -173.5c0 -73.333 -14.333 -130.666 -43 -171.999s-69 -62 -121 -62c-50 0 -92.667 21 -128 63s-53 104 -53 186c0 80 16.167 138.333 48.5 175s70.166 55 113.499 55h1z" />
    <glyph glyph-name="P" unicode="P" horiz-adv-x="532" 
d="M70 12c-0.666992 -13.333 7.33398 -19.334 24.001 -18.001c7.33301 0 17 0.333008 29 1l36 2c12 0.666992 23.333 1.33398 34 2.00098s18.334 1.66699 23.001 3c-0.666992 10 -1.33398 23.333 -2.00098 40s-1 42.667 -1 78v421
c5.33301 0.666992 11.166 1.16699 17.499 1.5s11.5 0.5 15.5 0.5c28.667 0 54.334 -9 77.001 -27s34 -48 34 -90c0 -48.667 -11.5 -81.167 -34.5 -97.5s-46.5 -24.5 -70.5 -24.5c-9.33301 0 -17.333 0.333008 -24 1c0 -18 4 -34.167 12 -48.5s16.333 -23.5 25 -27.5
c6 -3.33301 14.167 -5.33301 24.5 -6s18.833 -1 25.5 -1c14 0 31.833 3.5 53.5 10.5s42.5 18.5 62.5 34.5s37.333 36.833 52 62.5s22 57.167 22 94.5c0 77.333 -24.833 131.166 -74.5 161.499s-113.834 45.5 -192.501 45.5c-37.333 0 -72 -1.66699 -104 -5
s-54.667 -6 -68 -8c2 -23.333 3.16699 -45.666 3.5 -66.999s0.5 -44 0.5 -68v-471z" />
    <glyph glyph-name="Q" unicode="Q" horiz-adv-x="714" 
d="M360 640c-52 0 -98.165 -8.5 -138.498 -25.5s-74.5 -40.333 -102.5 -70s-49.333 -64.667 -64 -105s-22 -83.833 -22 -130.5c0 -88.667 23.167 -161 69.5 -217s113.166 -91 200.499 -105c25.333 -4 48.833 -11.333 70.5 -22s46.5 -28 74.5 -52
c46 -37.333 85.5 -64.333 118.5 -81s62.5 -25 88.5 -25c20 0 40.5 4.83301 61.5 14.5s36.167 25.167 45.5 46.5v4c-20 4 -42 11.5 -66 22.5s-55.333 31.167 -94 60.5c-15.333 12 -31.833 23.833 -49.5 35.5s-33.5 20.834 -47.5 27.501c55.333 24 98.666 62.5 129.999 115.5
s47 114.5 47 184.5c0 44 -7 85.333 -21 124s-34.667 72.667 -62 102s-60.833 52.666 -100.5 69.999s-85.5 26 -137.5 26h-1zM350.002 552c61.333 0 106.833 -24 136.5 -72s44.5 -106 44.5 -174c0 -71.333 -14 -128 -42 -170s-68.333 -63 -121 -63s-96.167 21.5 -130.5 64.5
s-51.5 103.833 -51.5 182.5c0 80.667 16.167 139.5 48.5 176.5s70.5 55.5 114.5 55.5h1z" />
    <glyph glyph-name="R" unicode="R" horiz-adv-x="558" 
d="M209 251c4.66699 0.666992 9.33496 0.666992 14.002 0c10.667 0 21.334 -3 32.001 -9s23 -22.333 37 -49l50 -101c12.667 -24.667 25 -44 37 -58c13.333 -17.333 27.166 -28.666 41.499 -33.999s32.166 -8 53.499 -8c20 0 39.167 1.16699 57.5 3.5s29.5 4.83301 33.5 7.5
v4c-14 14.667 -28.5 33.667 -43.5 57s-34.167 56 -57.5 98l-46 78.5c-14.667 24.333 -27.667 41.5 -39 51.5c10 4 21.667 10.167 35 18.5s26 18.666 38 30.999s22.5 27.333 31.5 45s13.5 38.5 13.5 62.5c0 61.333 -19.833 107 -59.5 137s-102.5 45 -188.5 45
c-12 0 -27.167 -0.666992 -45.5 -2s-36.5 -3 -54.5 -5s-34.5 -4 -49.5 -6s-25.5 -3.66699 -31.5 -5c0.666992 -14 1.16699 -28.167 1.5 -42.5s0.5 -33.5 0.5 -57.5v-336c0 -83.333 -1 -144.333 -3 -183c11.333 0 30.166 0.333008 56.499 1s46.833 1.66699 61.5 3
c8 1.33301 14 3.5 18 6.5s6 9.5 6 19.5v227zM209.001 546c11.333 1.33301 23.333 1.99902 36 1.99902c30 0 55.167 -9.16699 75.5 -27.5s30.5 -46.5 30.5 -84.5c0 -32.667 -7.16699 -56.167 -21.5 -70.5s-24.5 -23.166 -30.5 -26.499c-7.33301 -4 -21.333 -6.66699 -42 -8
s-36.667 -1 -48 1v214z" />
    <glyph glyph-name="S" unicode="S" horiz-adv-x="460" 
d="M252 640c-42.667 0 -78.167 -6.33691 -106.5 -19.0039s-51 -28.167 -68 -46.5s-28.833 -38 -35.5 -59s-10 -40.167 -10 -57.5c0 -31.333 8.5 -63 25.5 -95s54.5 -63.333 112.5 -94c50.667 -28 83.167 -49.667 97.5 -65s21.5 -32 21.5 -50
c0 -23.333 -8.83301 -40.333 -26.5 -51s-40.167 -16 -67.5 -16c-24 0 -49.667 4.83301 -77 14.5s-50 20.5 -68 32.5c-4.66699 -2.66699 -10.5 -12.667 -17.5 -30s-10.5 -31.333 -10.5 -42c-1.33301 -13.333 7.66699 -26 27 -38c13.333 -10 32.5 -19 57.5 -27
s55.5 -12 91.5 -12c30 0 58.833 4.16699 86.5 12.5s52.334 20.666 74.001 36.999s39.167 36.833 52.5 61.5s20 53.334 20 86.001c0 48.667 -12.667 85.334 -38 110.001s-59 49 -101 73c-48 26.667 -81 47.834 -99 63.501s-27 33.834 -27 54.501
c0 17.333 7.16699 31.5 21.5 42.5s34.833 16.5 61.5 16.5c14.667 0 31.667 -2.66699 51 -8s34.666 -10.666 45.999 -15.999c20 -2 34.667 6 44 24s14 34 14 48c-12.667 12.667 -34 24.167 -64 34.5s-59 15.5 -87 15.5h-1z" />
    <glyph glyph-name="T" unicode="T" horiz-adv-x="565" 
d="M214 12c0 -13.333 8.00293 -19.332 24.0029 -17.999c48.667 0 89.334 2.66699 122.001 8c-0.666992 10 -1.33398 24.167 -2.00098 42.5s-1 44.833 -1 79.5v407h148c11.333 2 23.166 10.167 35.499 24.5s20.166 37.5 23.499 69.5h-365c-48 0 -81.5 0.333008 -100.5 1
s-32.833 2 -41.5 4c-6 -6.66699 -12 -14.834 -18 -24.501s-11.667 -23.167 -17 -40.5c-4 -13.333 -4.33301 -22.333 -1 -27s9.66602 -7 18.999 -7h174v-519z" />
    <glyph glyph-name="U" unicode="U" horiz-adv-x="667" 
d="M208 569c0 24 -1.33008 40.0029 -3.99707 48.0029s-9 12 -19 12c-6 0 -15 -0.5 -27 -1.5s-24.167 -1.83301 -36.5 -2.5s-24.166 -1.5 -35.499 -2.5s-19.333 -1.5 -24 -1.5c2 -20.667 3 -63.667 3 -129v-206c0 -104 21.667 -180.167 65 -228.5
s109.666 -72.5 198.999 -72.5c31.333 0 63.166 3.66699 95.499 11s61.5 22.166 87.5 44.499s47.5 54.5 64.5 96.5s25.5 97.667 25.5 167v143c0 82 1 142.667 3 182c-10 0 -25.833 -0.333008 -47.5 -1s-39.834 -1.66699 -54.501 -3c-8 -1.33301 -13.833 -3.5 -17.5 -6.5
s-5.5 -9.5 -5.5 -19.5v-300c0 -44 -3.66699 -79.833 -11 -107.5s-17 -49.334 -29 -65.001s-26.167 -26.167 -42.5 -31.5s-33.833 -8 -52.5 -8c-16.667 0 -33.334 2.33301 -50.001 7s-31.5 14.167 -44.5 28.5s-23.333 35.166 -31 62.499s-11.5 63 -11.5 107v277z" />
    <glyph glyph-name="V" unicode="V" horiz-adv-x="624" 
d="M13 606c42 -96.667 83.668 -199.332 125.001 -307.999l116 -310c23.333 0 45.333 1.16699 66 3.5s34.667 5.16602 42 8.49902c9.33301 4.66699 18 16.667 26 36l109 263c36.667 89.333 72 180 106 272c10 26 8 41.333 -6 46c-8 2.66699 -22.333 5.66699 -43 9
s-41 5 -61 5l-84 -239l-79 -233c-20.667 68 -44.834 139.833 -72.501 215.5l-70.5 196.5c-8 22 -14.5 37.167 -19.5 45.5s-11.5 12.5 -19.5 12.5c-16 0 -36.5 -2.33301 -61.5 -7s-49.5 -10 -73.5 -16z" />
    <glyph glyph-name="W" unicode="W" horiz-adv-x="878" 
d="M488 629c-17.333 0 -34.3301 -1.99805 -50.9971 -5.99805s-35 -9.66699 -55 -17c0.666992 -4.66699 1.66699 -10.5 3 -17.5s2.33301 -13.5 3 -19.5l-32.5 -123l-31.5 -114l-25.5 -93c-7 -26.667 -11.5 -46.334 -13.5 -59.001l-57 222.5l-42 157.5
c-8 28 -14.833 46.5 -20.5 55.5s-14.167 13.5 -25.5 13.5c-16.667 0 -38.667 -3 -66 -9s-46 -11 -56 -15c17.333 -43.333 34.333 -91 51 -143l49 -159.5l47.5 -162.5c15.667 -54 31.167 -104.667 46.5 -152c17.333 0 35.666 1.33301 54.999 4s33 5 41 7
c14 6 23.667 19.333 29 40l25 88.5l32 114l29.5 106l17.5 63.5l27.5 -113.5l28 -116.5l26 -107c8.33301 -33.333 15.833 -62 22.5 -86c17.333 0 37.166 1.16699 59.499 3.5s37.166 4.83301 44.499 7.5c10 4.66699 17.667 15 23 31l97 276.5
c32.667 94.333 62 185.833 88 274.5c4 14.667 3.33301 25.167 -2 31.5s-16 10.5 -32 12.5c-16 1.33301 -31.5 2.33301 -46.5 3s-24.167 1 -27.5 1c-10.667 -36 -25.667 -89.333 -45 -160l-83 -300l-35 142l-31.5 124.5l-24.5 97.5l-15 60
c-3.33301 9.33301 -7 17.666 -11 24.999s-9 11 -15 11h-1z" />
    <glyph glyph-name="X" unicode="X" horiz-adv-x="587" 
d="M23 604l37.5029 -54.501l52 -79l56 -85.5l49.5 -75l-57.5 -82.5l-59 -84.5l-53 -76l-39.5 -57l1 -4c8.66699 -4 25.667 -7 51 -9s45.333 -3 60 -3c10.667 -1.33301 20.667 4.66699 30 18c12 20 31 49.833 57 89.5l72 114.5l124 -207
c5.33301 -8.66699 10.666 -14.334 15.999 -17.001s11.666 -4 18.999 -4c32 0 61.333 2.16699 88 6.5s43 8.5 49 12.5v3c-10 16.667 -32.167 50.834 -66.5 102.501l-142.5 220.5l115.5 157.5l78.5 112.5v3c-16 6 -35.333 11.333 -58 16s-38 7 -46 7
c-4.66699 0 -8.83398 -1.16699 -12.501 -3.5s-8.16699 -7.16602 -13.5 -14.499l-69 -103.5l-55 -84.5l-44.5 68l-68.5 108c-10.667 20.667 -22.334 30.667 -35.001 30c-10.667 0 -29.667 -2.16699 -57 -6.5s-53.666 -9.5 -78.999 -15.5v-3z" />
    <glyph glyph-name="Y" unicode="Y" horiz-adv-x="573" 
d="M222 12c0 -8 1.16895 -13.0029 3.50195 -15.0029s7.83301 -3 16.5 -3c32.667 0 58.334 0.833008 77.001 2.5s35 3.5 49 5.5c-0.666992 10.667 -1.33398 24.834 -2.00098 42.501s-1 43.5 -1 77.5v133c-0.666992 14 3 28.333 11 43c2 4 11.333 18.667 28 44l55 84.5
l58.5 89.5c19 28.667 31.5 48.334 37.5 59.001c14 22 13.667 36.333 -1 43c-8 2.66699 -21 5.16699 -39 7.5s-37.667 3.5 -59 3.5c-4.66699 -9.33301 -12.834 -24.5 -24.501 -45.5l-38.5 -69l-43.5 -75.5l-39.5 -65l-61 108l-55 99c-14 22.667 -24 36.334 -30 41.001
s-13.667 7 -23 7c-14.667 0 -34.334 -2 -59.001 -6s-46.667 -8.66699 -66 -14v-3l100.5 -155.5c37 -57.667 69.5 -111.167 97.5 -160.5c6 -12 8.66699 -27.667 8 -47v-231z" />
    <glyph glyph-name="Z" unicode="Z" horiz-adv-x="541" 
d="M531 90c-15.333 -2 -37.8359 -3.16406 -67.5029 -3.49707s-60.334 -0.5 -92.001 -0.5s-60.667 0.666992 -87 2s-43.5 3 -51.5 5l74 128l77.5 137l63 116.5c17.667 33.667 28.5 55.5 32.5 65.5c6 18.667 10.333 33.5 13 44.5s5 24.5 7 40.5h-353
c-32 -0.666992 -57.333 2 -76 8c-5.33301 -6 -11.666 -14.167 -18.999 -24.5s-13 -21.5 -17 -33.5c-5.33301 -13.333 -4.66602 -23.833 2.00098 -31.5s25 -11.5 55 -11.5h53.5h69.5h66.5h45.5c-10 -19.333 -25.833 -48.333 -47.5 -87l-74.5 -129.5l-89.5 -147.5
c-31.667 -50.667 -62.5 -97.334 -92.5 -140.001c0.666992 -8.66699 5.66699 -17.334 15 -26.001c12.667 -1.33301 29.667 -2.33301 51 -3s44 -1.33398 68 -2.00098l74 -2c25.333 -0.666992 48.333 -1 69 -1c60.667 0 102 0.5 124 1.5s35.667 1.5 41 1.5
c6.66699 2.66699 17.834 12.5 33.501 29.5s26.834 37.5 33.501 61.5z" />
    <glyph glyph-name="bracketleft" unicode="[" horiz-adv-x="355" 
d="M100 212c0 -38 -0.500977 -76 -1.50098 -114s-1.5 -73.667 -1.5 -107s0.166992 -63.333 0.5 -90s1.5 -47.334 3.5 -62.001c0.666992 -0.666992 7 -2 19 -4s27 -4 45 -6s38.167 -3.83301 60.5 -5.5s44.5 -2.5 66.5 -2.5c5.33301 10 8.66602 28.667 9.99902 56
c0.666992 12 -3.33301 18 -12 18l-36.5 5.5c-11 1.66699 -19.5 2.83398 -25.5 3.50098c-12.667 1.33301 -20 8.33301 -22 21c-0.666992 4 -1.33398 10 -2.00098 18s-1.16699 21.833 -1.5 41.5s-0.5 47 -0.5 82s0.333008 81.167 1 138.5
c0.666992 124 1.83398 213.5 3.50098 268.5s2.83398 86.167 3.50098 93.5c0.666992 12.667 5 20 13 22l31 5c12.667 2 24.667 4 36 6c8 1.33301 13.5 2.66602 16.5 3.99902s4.5 4.33301 4.5 9c0 30.667 -3.33301 51.334 -10 62.001c-14 0 -31.833 -0.833008 -53.5 -2.5
s-42.5 -3.5 -62.5 -5.5s-37.5 -3.83301 -52.5 -5.5s-22.833 -2.83398 -23.5 -3.50098c-1.33301 -19.333 -2.66602 -48.666 -3.99902 -87.999s-2.33301 -81.333 -3 -126s-1.16699 -88.167 -1.5 -130.5s-0.5 -75.833 -0.5 -100.5v-1z" />
    <glyph glyph-name="backslash" unicode="\" horiz-adv-x="361" 
d="M146 641l-77 -2.00098c-12 -0.666992 -18.5 -3.16699 -19.5 -7.5s-0.166992 -11.166 2.5 -20.499l173 -705l79 3c10 0.666992 16.5 3 19.5 7s2.83301 12.667 -0.5 26z" />
    <glyph glyph-name="bracketright" unicode="]" horiz-adv-x="355" 
d="M259 284c0 37.333 0.169922 74.834 0.50293 112.501s0.5 73.5 0.5 107.5v91c0 26.667 -0.666992 47.334 -2 62.001c-1.33301 0.666992 -8 2 -20 4s-27 4 -45 6s-38 3.83301 -60 5.5s-43.333 2.5 -64 2.5c-6 -10 -10 -28.667 -12 -56c-0.666992 -12 3.33301 -18 12 -18
l36 -5.5c11.333 -1.66699 20 -2.83398 26 -3.50098c12.667 -1.33301 20 -8.33301 22 -21c0 -4 0.333008 -10 1 -18s1 -22 1 -42s0.166992 -47.667 0.5 -83s0.5 -81 0.5 -137c-1.33301 -124.667 -2.83301 -214.334 -4.5 -269.001s-2.5 -85.667 -2.5 -93
c-0.666992 -12.667 -5 -20 -13 -22l-31.5 -5c-13 -2 -24.833 -4 -35.5 -6c-8.66699 -1.33301 -14.334 -2.66602 -17.001 -3.99902s-4 -4.33301 -4 -9c0 -30.667 3.33301 -51.334 10 -62.001c13.333 0 30.666 0.833008 51.999 2.5s42 3.5 62 5.5l53 5.5
c15.333 1.66699 23.666 2.83398 24.999 3.50098c6.66699 149.333 9.66699 297.666 9 444.999v1z" />
    <glyph glyph-name="asciicircum" unicode="^" horiz-adv-x="591" 
d="M74 214c6 -4 19.5 -7.83301 40.5 -11.5s35.167 -5.5 42.5 -5.5c6.66699 -1.33301 13 4 19 16l119 288l114 -281c1.33301 -4 4 -8.83301 8 -14.5s10.667 -8.5 20 -8.5c14.667 0 30.667 2.16699 48 6.5s28 7.83301 32 10.5l-170 388c-8.66699 0 -20.667 -0.5 -36 -1.5
s-30.333 -1.83301 -45 -2.5c-10 -1.33301 -16.667 -3 -20 -5s-6 -5.66699 -8 -11z" />
    <glyph glyph-name="underscore" unicode="_" horiz-adv-x="500" 
d="M500 -75h-500v-50h500v50z" />
    <glyph glyph-name="grave" unicode="`" horiz-adv-x="400" 
d="M164 689c-16 0 -32.0029 -3.33203 -48.0029 -9.99902s-28 -13.667 -36 -21c-8.66699 -9.33301 -10 -16.333 -4 -21c22 -22 43.5 -46.167 64.5 -72.5s37.833 -48.5 50.5 -66.5c14.667 2 28 7 40 15c10.667 5.33301 13.334 13.666 8.00098 24.999
c-3.33301 12.667 -8.16602 27.5 -14.499 44.5s-13.166 33.333 -20.499 49s-14.5 29 -21.5 40s-13.167 16.833 -18.5 17.5z" />
    <glyph glyph-name="a" unicode="a" horiz-adv-x="465" 
d="M447 88c-4.66699 -1.33301 -9.99707 -1.66406 -15.9971 -0.99707c-12 0 -21 2.5 -27 7.5s-9 10.167 -9 15.5c0 33.333 0.666992 65.5 2 96.5s2 56.833 2 77.5c0 58 -17.667 100.833 -53 128.5s-74 41.5 -116 41.5c-34 0 -68 -6.83301 -102 -20.5s-62.667 -28.5 -86 -44.5
c-0.666992 -16.667 3.16602 -32.834 11.499 -48.501s24.833 -20.167 49.5 -13.5l38.5 15.5c15.667 6.33301 32.167 9.5 49.5 9.5c23.333 0 41.666 -6.5 54.999 -19.5s20 -29.167 20 -48.5v-12c-6 -1.33301 -13.833 -2.83301 -23.5 -4.5s-18.834 -3.16699 -27.501 -4.5
c-20 -4.66699 -41.333 -10.167 -64 -16.5s-43.334 -14.833 -62.001 -25.5s-34 -24.334 -46 -41.001s-18 -37.334 -18 -62.001c0 -40 13.333 -71.667 40 -95s56.334 -35 89.001 -35c22 0 43.167 5.33301 63.5 16s36.833 23 49.5 37c16.667 -35.333 45.667 -53 87 -53
c32 0 55.667 8.5 71 25.5s23 40.5 23 70.5zM156.003 138.002c0 10.667 6.83203 23 20.499 37s42.834 23.333 87.501 28v-68c0 -17.333 -3 -29 -9 -35c-6.66699 -6 -13 -10 -19 -12s-14 -3 -24 -3c-16 0 -29.333 4.5 -40 13.5s-16 21.833 -16 38.5v1z" />
    <glyph glyph-name="b" unicode="b" horiz-adv-x="526" 
d="M199 612c0 30 -1.66797 48.498 -5.00098 55.498s-9 10.5 -17 10.5c-12 0 -32.167 -2.5 -60.5 -7.5s-48.5 -9.5 -60.5 -13.5l2.5 -40.5c1 -16.333 1.5 -37.833 1.5 -64.5v-510c0 -13.333 9.66699 -23 29 -29c36.667 -15.333 82.667 -23.666 138 -24.999
c36.667 0 71.5 5.83301 104.5 17.5s62 28.5 87 50.5s44.833 48.833 59.5 80.5s22 67.5 22 107.5c0 26 -3.83301 51.5 -11.5 76.5s-19.5 47.5 -35.5 67.5s-36.167 36 -60.5 48s-53.5 18 -87.5 18c-14.667 0 -33.167 -4.16699 -55.5 -12.5s-39.166 -15.166 -50.499 -20.499
v191zM198.999 346.998c4 2 10.667 3.66602 20 4.99902s17 2 23 2c38 0 66.5 -12.833 85.5 -38.5s28.5 -56.5 28.5 -92.5c0 -58 -13.667 -97.833 -41 -119.5s-53 -32.5 -77 -32.5c-14.667 0.666992 -27.667 2.33398 -39 5.00098v271z" />
    <glyph glyph-name="c" unicode="c" horiz-adv-x="429" 
d="M412 108c-26 -10.667 -61.999 -16.665 -107.999 -17.998c-34.667 0 -65.667 11 -93 33s-41 57.333 -41 106c0 44 11.5 76.667 34.5 98s50.833 32 83.5 32c12 0 25 -1.33301 39 -4s26.333 -6 37 -10c19.333 0 32.833 8.16699 40.5 24.5s11.5 31.5 11.5 45.5
c-10 9.33301 -26.667 18.166 -50 26.499s-52 12.5 -86 12.5c-71.333 0 -131 -22.667 -179 -68s-72 -104.333 -72 -177c0 -66.667 20.833 -120.167 62.5 -160.5s98.5 -60.5 170.5 -60.5c20.667 0 41.167 2 61.5 6s38.166 11 53.499 21c10 9.33301 18.5 22.666 25.5 39.999
s10.833 34 11.5 50z" />
    <glyph glyph-name="d" unicode="d" horiz-adv-x="537" 
d="M334 447c-4 2 -11.0029 3.66797 -21.0029 5.00098s-20.333 2 -31 2c-71.333 0 -131.333 -22.833 -180 -68.5s-73 -105.5 -73 -179.5c0 -64 17.5 -116.333 52.5 -157s83.5 -61 145.5 -61c18 0 38.5 5.16699 61.5 15.5s43.5 22.5 61.5 36.5
c6 -14 15.833 -26.167 29.5 -36.5s35.5 -15.5 65.5 -15.5c15.333 0 29.833 8.33301 43.5 25s21.5 33 23.5 49v4c-13.333 3.33301 -23.166 8.16602 -29.499 14.499s-9.5 18.5 -9.5 36.5v495c0 30 -1.5 48.5 -4.5 55.5s-8.5 10.5 -16.5 10.5
c-6 0 -14.833 -0.833008 -26.5 -2.5s-23.667 -3.5 -36 -5.5s-24.166 -4.16699 -35.499 -6.5s-19.666 -4.5 -24.999 -6.5c1.33301 -10.667 2.5 -23.5 3.5 -38.5s1.5 -37.5 1.5 -67.5v-104zM333.997 101.001c-6.66699 -4 -14.667 -6.83301 -24 -8.5s-17.333 -2.5 -24 -2.5
c-30 0 -56.333 11.333 -79 34s-34 57 -34 103c0 52 12.5 89 37.5 111s50.833 33 77.5 33c10 0 19.167 -1 27.5 -3s14.5 -4 18.5 -6v-261z" />
    <glyph glyph-name="e" unicode="e" horiz-adv-x="450" 
d="M406 111c-8.66699 -4 -23.501 -8.66602 -44.501 -13.999s-43.5 -8 -67.5 -8c-30 0 -58.167 7.66699 -84.5 23s-41.166 43.666 -44.499 84.999c10.667 -0.666992 24.667 -1.16699 42 -1.5s35 -0.333008 53 0s34.5 1.16602 49.5 2.49902s25.5 3 31.5 5
c22 6 40.667 12.5 56 19.5s24 14.167 26 21.5c2 6.66699 3.33301 17.667 4 33c0 20 -3.5 40.5 -10.5 61.5s-17.667 40 -32 57s-33 31 -56 42s-50.833 16.5 -83.5 16.5c-34.667 0 -65.5 -7 -92.5 -21s-49.667 -32 -68 -54s-32.333 -47.167 -42 -75.5
s-14.5 -57.166 -14.5 -86.499c0 -76 19.833 -133.167 59.5 -171.5s96.834 -57.5 171.501 -57.5c16 0 33.167 2 51.5 6s31.166 7.33301 38.499 10c8.66699 4 20.667 16.167 36 36.5s23 42.833 23 67.5zM235.999 375.001c22 0 37.834 -8 47.501 -24s14.5 -35 14.5 -57
c0 -6 -1 -11 -3 -15s-4.33301 -6 -7 -6c-13.333 -1.33301 -33.833 -2.16602 -61.5 -2.49902s-47.834 0.5 -60.501 2.5c0 35.333 7.5 61.166 22.5 77.499s30.5 24.5 46.5 24.5h1z" />
    <glyph glyph-name="f" unicode="f" horiz-adv-x="294" 
d="M271 684c-20 0 -41.334 -3.16504 -64.001 -9.49805s-45 -19.5 -67 -39.5c-20.667 -20 -37.5 -45 -50.5 -75s-19.5 -69.333 -19.5 -118c-12.667 -9.33301 -23.334 -16.333 -32.001 -21s-18 -12.667 -28 -24c0.666992 -24.667 20.667 -38.667 60 -42
c0 -58 -0.166992 -116.333 -0.5 -175s-0.833008 -115 -1.5 -169c0 -7.33301 1.33301 -12 4 -14s7 -3 13 -3c6.66699 0 24.834 0.833008 54.501 2.5s54.5 3.5 74.5 5.5c0 13.333 -0.5 35.666 -1.5 66.999s-1.66699 65 -2 101l-1 105c-0.333008 34 -0.5 60.667 -0.5 80
c18.667 0 35.667 1.16699 51 3.5s26.333 6.16602 33 11.499c6 4 12.5 12.5 19.5 25.5s11.5 29.167 13.5 48.5c-6.66699 -0.666992 -15.667 -1.16699 -27 -1.5s-23 -0.5 -35 -0.5h-32.5h-19.5c-2 49.333 2 85.833 12 109.5s27 35.5 51 35.5
c7.33301 -0.666992 15.333 -2 24 -4c14 -0.666992 25.833 8.5 35.5 27.5s12.834 35.5 9.50098 49.5c-17.333 15.333 -41.333 23.333 -72 24h-1z" />
    <glyph glyph-name="g" unicode="g" horiz-adv-x="454" 
d="M223 454c-54.667 0 -100.33 -14.501 -136.997 -43.501s-55 -67.833 -55 -116.5c0 -39.333 9.66699 -68.833 29 -88.5s40 -33.167 62 -40.5c-10 -11.333 -22 -21.666 -36 -30.999s-25.667 -16.666 -35 -21.999c-7.33301 -5.33301 -10.666 -10 -9.99902 -14
c0 -24 6.83301 -43.5 20.5 -58.5s27.167 -25.167 40.5 -30.5c-21.333 -10 -41.666 -21.833 -60.999 -35.5s-29 -31.5 -29 -53.5c0 -38 18.833 -69.333 56.5 -94s86.167 -37 145.5 -37c32 0 62.833 4.16699 92.5 12.5s56.167 20.5 79.5 36.5s42.166 35.833 56.499 59.5
s21.5 50.5 21.5 80.5c0 29.333 -10 55.666 -30 78.999s-54.667 36.666 -104 39.999c-40.667 2 -79.334 4.66699 -116.001 8c-16 1.33301 -26.5 4.5 -31.5 9.5s-7.5 10.833 -7.5 17.5c0 4 1.33301 7.66699 4 11s5 6 7 8c6.66699 -2 17.667 -3 33 -3
c50 0 92.667 12.5 128 37.5s53 62.5 53 112.5c0 14.667 -3 31.334 -9 50.001c11.333 0.666992 20.333 1.33398 27 2.00098c34.667 4 51.667 25 51 63c-0.666992 11.333 -2.33398 21 -5.00098 29c-8 -2.66699 -19.667 -5.33398 -35 -8.00098s-31 -4 -47 -4
c-8.66699 0 -20.334 1.5 -35.001 4.5s-27.334 5.83301 -38.001 8.5c-14 2.66699 -28.833 5.16699 -44.5 7.5s-29.167 3.5 -40.5 3.5h-1zM219.004 381.999c24.667 0 41.333 -8.99902 50 -26.999s13 -37 13 -57c0 -24 -5.66699 -43.167 -17 -57.5s-25 -21.5 -41 -21.5
c-19.333 0 -34.833 7.16699 -46.5 21.5s-17.5 35.166 -17.5 62.499c0 19.333 4.66699 37.333 14 54s24 25 44 25h1zM133.003 -60c0.666992 20 7.66699 33.332 21 39.999c10.667 5.33301 21.667 8 33 8c12 0.666992 26.5 0.5 43.5 -0.5s33.167 -2.83301 48.5 -5.5
c26 -3.33301 43.667 -9.5 53 -18.5s14 -19.5 14 -31.5c0 -18.667 -10.167 -32.667 -30.5 -42s-43.5 -14 -69.5 -14c-32 0 -58.833 5.83301 -80.5 17.5s-32.5 26.834 -32.5 45.501v1z" />
    <glyph glyph-name="h" unicode="h" horiz-adv-x="537" 
d="M199 612c0 30 -1.50195 48.501 -4.50195 55.501s-8.5 10.5 -16.5 10.5c-6 0 -15 -0.833008 -27 -2.5s-24.333 -3.5 -37 -5.5s-24.5 -4.16699 -35.5 -6.5s-18.5 -4.5 -22.5 -6.5l2.5 -38.5c1 -15 1.5 -37.5 1.5 -67.5v-378c0 -58 -1 -117.667 -3 -179c22 0 42 0.5 60 1.5
s37 2.5 57 4.5c11.333 1.33301 18.333 4 21 8s4 11 4 21v298c23.333 16 47 24 71 24c20.667 0 37.167 -7.5 49.5 -22.5s18.5 -33.5 18.5 -55.5v-256c0 -16.667 7.66699 -24.334 23 -23.001c24.667 0 47.667 1 69 3s38 3.66699 50 5
c-1.33301 19.333 -2.16602 42.5 -2.49902 69.5s-0.5 52.167 -0.5 75.5v132c0 56 -13.167 99.167 -39.5 129.5s-60.833 45.5 -103.5 45.5c-27.333 0 -51.666 -5.16699 -72.999 -15.5s-42 -23.5 -62 -39.5v213z" />
    <glyph glyph-name="i" unicode="i" horiz-adv-x="259" 
d="M133 666c-14 0 -30 -5.83203 -48 -17.499s-27 -31.167 -27 -58.5c0 -26.667 7.66699 -45.334 23 -56.001s31.333 -16 48 -16c20.667 0 38 7.16699 52 21.5s21 32.5 21 54.5c0 20 -6.16699 37 -18.5 51s-28.833 21 -49.5 21h-1zM200 385.001
c0 28.667 -1.49902 46.335 -4.49902 53.002s-8.5 10 -16.5 10c-12 0 -32.167 -1.33301 -60.5 -4s-48.833 -5.66699 -61.5 -9c0.666992 -10 1.5 -23.5 2.5 -40.5s1.5 -40.833 1.5 -71.5v-171c0 -30 -0.5 -58.833 -1.5 -86.5s-1.5 -51.5 -1.5 -71.5c22 0 42.667 0.333008 62 1
s34.666 1.66699 45.999 3c12.667 1.33301 21.5 3.66602 26.5 6.99902s7.5 9.66602 7.5 18.999v361z" />
    <glyph glyph-name="j" unicode="j" horiz-adv-x="259" 
d="M133 666c-14 0 -30 -5.83203 -48 -17.499s-27 -31.167 -27 -58.5c0 -26.667 7.66699 -45.334 23 -56.001s31.333 -16 48 -16c20.667 0 38 6.83301 52 20.5s21 31.5 21 53.5c0 20 -6.16699 37.333 -18.5 52s-28.833 22 -49.5 22h-1zM-49 -150.999
c3.33301 -16.667 10.833 -30.835 22.5 -42.502s24.5 -17.5 38.5 -17.5c16.667 0 37 4.66699 61 14s46.333 26.333 67 51c20 25.333 35 57 45 95s15 87.667 15 149v287c0 28.667 -1.5 46.334 -4.5 53.001s-8.5 10 -16.5 10c-12 0 -32.167 -1.33301 -60.5 -4
s-48.833 -5.66699 -61.5 -9c0.666992 -9.33301 1.5 -22.333 2.5 -39s1.5 -40 1.5 -70v-209c0 -53.333 -1.83301 -95.666 -5.5 -126.999s-9.5 -56 -17.5 -74s-18.833 -31.333 -32.5 -40s-31.5 -16.667 -53.5 -24z" />
    <glyph glyph-name="k" unicode="k" horiz-adv-x="484" 
d="M199 612c0 30 -1.49902 48.499 -4.49902 55.499s-8.5 10.5 -16.5 10.5c-12 0 -32.167 -1.5 -60.5 -4.5s-48.833 -6.5 -61.5 -10.5l2.5 -41c1 -16.667 1.5 -40 1.5 -70v-374c0 -82.667 -1 -144 -3 -184c30 0 52 0.333008 66 1s28 1.66699 42 3
c12.667 1.33301 21.5 3.5 26.5 6.5s7.5 9.5 7.5 19.5v193c16.667 -34 35.167 -65.833 55.5 -95.5l57.5 -80.5c13.333 -20 25.666 -33.167 36.999 -39.5s26 -9.5 44 -9.5s36.833 1.33301 56.5 4s34.5 6.33398 44.5 11.001l1 4c-12.667 14.667 -27 33.167 -43 55.5l-47 68
c-15.333 23 -29.166 44.667 -41.499 65s-21.166 35.833 -26.499 46.5c43.333 49.333 85.666 100.333 126.999 153c18.667 25.333 15 41 -11 47c-12 2 -25.667 3.83301 -41 5.5s-28 2.5 -38 2.5c-4.66699 -8 -14.834 -22 -30.501 -42l-51 -65.5l-54 -68l-39.5 -48.5v382z" />
    <glyph glyph-name="l" unicode="l" horiz-adv-x="259" 
d="M60 5c0 -9.33301 4.66797 -13.6689 14.001 -13.002c3.33301 0 10.666 0.333008 21.999 1s24 1.33398 38 2.00098s27.5 1.5 40.5 2.5s22.5 1.83301 28.5 2.5c-1.33301 14 -2.33301 33.333 -3 58s-1 49.334 -1 74.001v481c0 30 -1.5 48.333 -4.5 55s-8.83301 10 -17.5 10
c-6 0 -15 -0.833008 -27 -2.5s-24 -3.5 -36 -5.5s-23.5 -4.16699 -34.5 -6.5s-18.833 -4.5 -23.5 -6.5l2.5 -37c1 -14.667 1.5 -36.667 1.5 -66v-549z" />
    <glyph glyph-name="m" unicode="m" horiz-adv-x="817" 
d="M204 323c21.333 18 45.3301 27.3359 71.9971 28.0029c20.667 0 36.834 -7.33301 48.501 -22s17.5 -33.667 17.5 -57v-98c0 -58 -1 -118 -3 -180c21.333 0 41.166 0.5 59.499 1.5s37.5 2.5 57.5 4.5c11.333 1.33301 18.333 3.83301 21 7.5s4 9.83398 4 18.501v296
c10 8 20.667 14.833 32 20.5s24 8.5 38 8.5c22 0 38.833 -7.5 50.5 -22.5s17.5 -33.5 17.5 -55.5v-258c0 -14 7.33301 -21 22 -21c24.667 0 47.834 1 69.501 3s38.5 3.66699 50.5 5c-1.33301 19.333 -2.16602 42.666 -2.49902 69.999s-0.5 53.666 -0.5 78.999v131
c0 16 -2.16699 34 -6.5 54s-11.833 38.667 -22.5 56s-25.334 32 -44.001 44s-42.667 18 -72 18c-26.667 0 -53.834 -7.66699 -81.501 -23s-51.167 -31.333 -70.5 -48c-10.667 19.333 -25.167 36 -43.5 50s-44.166 21 -77.499 21c-25.333 0 -50.666 -6.66699 -75.999 -20
s-48 -28 -68 -44c-4 14.667 -10.5 29 -19.5 43s-25.167 21 -48.5 21c-16.667 0 -33.167 -6 -49.5 -18s-27.166 -25.667 -32.499 -41v-7c7.33301 -5.33301 12.333 -11.5 15 -18.5s4 -16.5 4 -28.5v-167c0 -58 -1 -118 -3 -180c22 0 42 0.5 60 1.5s37 2.5 57 4.5
c11.333 1.33301 18.333 4.16602 21 8.49902s4 11.166 4 20.499v294z" />
    <glyph glyph-name="n" unicode="n" horiz-adv-x="543" 
d="M344 15c0 -14 7.66895 -20.9971 23.002 -20.9971c24.667 0 47.667 1 69 3s38 3.66699 50 5c-1.33301 19.333 -2.16602 42.666 -2.49902 69.999s-0.5 53.666 -0.5 78.999v118c0 17.333 -1.83301 36.666 -5.5 57.999s-10.667 41.333 -21 60s-25.5 34.5 -45.5 47.5
s-46.333 19.5 -79 19.5c-24 0 -47.333 -6.33301 -70 -19s-44.667 -27.334 -66 -44.001c-4 16 -10.833 30.5 -20.5 43.5s-24.834 19.5 -45.501 19.5c-18 0 -35.333 -6.33301 -52 -19s-27.334 -26 -32.001 -40v-8c8 -5.33301 13.167 -11.666 15.5 -18.999
s3.5 -17.666 3.5 -30.999v-163c0 -58 -1 -118 -3 -180c21.333 0 41.166 0.5 59.499 1.5s37.5 2.83301 57.5 5.5c11.333 1.33301 18.333 3.66602 21 6.99902s4 9.33301 4 18v299c10 7.33301 20.333 13.5 31 18.5s24.667 7.5 42 7.5c18.667 0 34.5 -7.33301 47.5 -22
s19.5 -34 19.5 -58v-256z" />
    <glyph glyph-name="o" unicode="o" horiz-adv-x="513" 
d="M262 454c-68 0 -124 -22.168 -168 -66.501s-66 -101.166 -66 -170.499c0 -77.333 22 -134.833 66 -172.5s96.333 -56.5 157 -56.5c70.667 0 127.5 22 170.5 66s64.5 102 64.5 174c0 60.667 -18.833 113.5 -56.5 158.5s-93.167 67.5 -166.5 67.5h-1zM252 370.999
c32 0 55 -16.001 69 -48.001s21 -68 21 -108c0 -39.333 -5.33301 -73.166 -16 -101.499s-31.667 -42.5 -63 -42.5c-24.667 0 -46 12.833 -64 38.5s-27 66.5 -27 122.5c0 37.333 5.83301 69.833 17.5 97.5s32.167 41.5 61.5 41.5h1z" />
    <glyph glyph-name="p" unicode="p" horiz-adv-x="540" 
d="M204 1c15.333 -8.66699 36.334 -13 63.001 -13c32 0 62.667 5.83301 92 17.5s55 28.5 77 50.5s39.833 48.833 53.5 80.5s20.5 67.5 20.5 107.5c0 58 -16 107.5 -48 148.5s-76 61.5 -132 61.5c-22 0 -43.667 -5 -65 -15s-45 -23.333 -71 -40
c-4 10.667 -10.5 22.5 -19.5 35.5s-23.5 19.5 -43.5 19.5s-37.667 -6.16699 -53 -18.5s-26 -25.833 -32 -40.5v-8c7.33301 -2 12.333 -7.5 15 -16.5s4 -19.167 4 -30.5v-395c0 -58.667 -1 -110.667 -3 -156c21.333 0 41.166 0.5 59.499 1.5s37.5 2.5 57.5 4.5
c11.333 1.33301 18.333 4 21 8s4 10.667 4 20v178zM204.001 331c18 10.667 40.334 16.668 67.001 18.001c28.667 0 51.667 -12.333 69 -37s26 -54.334 26 -89.001c0 -49.333 -11.667 -86.333 -35 -111s-51 -37 -83 -37c-6.66699 0 -14.334 0.5 -23.001 1.5
s-15.667 2.5 -21 4.5v250z" />
    <glyph glyph-name="q" unicode="q" horiz-adv-x="527" 
d="M393 440c-12.667 3.33301 -28.666 6.50098 -47.999 9.50098s-38 4.5 -56 4.5c-36.667 0 -71 -6 -103 -18s-59.833 -29 -83.5 -51s-42 -48.167 -55 -78.5s-19.5 -63.5 -19.5 -99.5c0 -66.667 19.333 -119.834 58 -159.501s91 -59.5 157 -59.5
c13.333 0 28.166 3.33301 44.499 10s29.833 12.667 40.5 18v-51c0 -40.667 -0.333008 -74.167 -1 -100.5l-2 -75.5c9.33301 0 19.333 0.333008 30 1s24.667 1.66699 42 3c30 2.66699 49.167 6.16699 57.5 10.5s12.5 11.833 12.5 22.5v377c0 70 0.5 123.333 1.5 160
s1.83301 63 2.5 79h-4zM329.001 93.001c-8.66699 -2.66699 -19.667 -4.33301 -33 -5c-36 0 -65.667 12.167 -89 36.5s-35 58.5 -35 102.5c0 52 12 89 36 111s51 33 81 33c16.667 -0.666992 30 -2.66699 40 -6v-272z" />
    <glyph glyph-name="r" unicode="r" horiz-adv-x="374" 
d="M42 391c16 -11.333 23.6689 -26.6689 23.002 -46.002v-170c0 -58.667 -1 -119 -3 -181c22 0 42 0.5 60 1.5s37 2.5 57 4.5c11.333 1.33301 18.333 4.33301 21 9s4 11 4 19v203c0 10.667 0.5 19.167 1.5 25.5s2.83301 13.5 5.5 21.5c6.66699 19.333 15.667 32 27 38
s20.666 9 27.999 9c8.66699 0 16.667 -0.833008 24 -2.5s16.666 -4.5 27.999 -8.5c8 0.666992 16.5 6.83398 25.5 18.501s14.833 23.834 17.5 36.501c5.33301 10 8.5 22.167 9.5 36.5s0.166992 24.833 -2.5 31.5c-5.33301 4 -12.5 7.83301 -21.5 11.5s-17.833 5.5 -26.5 5.5
c-55.333 -1.33301 -97.333 -36.333 -126 -105c-0.666992 30 -6.16699 55 -16.5 75s-27.833 30 -52.5 30c-16 0 -32.833 -6.5 -50.5 -19.5s-28.5 -26.167 -32.5 -39.5v-4z" />
    <glyph glyph-name="s" unicode="s" horiz-adv-x="369" 
d="M207 454c-45.333 0 -84.999 -12.666 -118.999 -37.999s-51 -61.333 -51 -108c0 -26 6.5 -48.833 19.5 -68.5s29.5 -35.167 49.5 -46.5l78 -40c12.667 -7.33301 21.5 -14 26.5 -20s7.5 -12.667 7.5 -20c-1.33301 -20.667 -17.666 -31.667 -48.999 -33
c-20.667 0 -41.334 3.83301 -62.001 11.5s-38 16.167 -52 25.5c-8 -7.33301 -14.667 -17 -20 -29s-8 -24 -8 -36c0.666992 -16 9.66699 -28.667 27 -38c14 -8.66699 30.667 -15.167 50 -19.5s38 -6.5 56 -6.5c48.667 0 92 12.5 130 37.5s57 62.833 57 113.5
c0 22.667 -5.5 43.667 -16.5 63s-29.5 36.333 -55.5 51l-41 19c-17.333 8 -30 14.667 -38 20c-10 6 -18.167 11.667 -24.5 17s-9.5 12.666 -9.5 21.999c0 8.66699 3.83301 16 11.5 22s18.5 9 32.5 9c24 0 46.333 -5 67 -15c19.333 -2 32.666 5.66699 39.999 23
s10.666 33.666 9.99902 48.999c-35.333 24.667 -73.666 36.334 -114.999 35.001h-1z" />
    <glyph glyph-name="t" unicode="t" horiz-adv-x="358" 
d="M336 101c-5.33301 -2.66699 -14.168 -5.99805 -26.501 -9.99805s-25.833 -6 -40.5 -6c-17.333 0 -31.833 5 -43.5 15s-18.5 26 -20.5 48c-2 20 -3.16699 50.333 -3.5 91s0.5 79 2.5 115c13.333 0 29.5 0.333008 48.5 1s32.833 1.66699 41.5 3
c10 1.33301 20.167 5.66602 30.5 12.999s18.833 31 25.5 71h-24h-39.5h-43.5h-36c0 15.333 0.666992 32.5 2 51.5s3 35.833 5 50.5c-23.333 -2 -41.166 -6 -53.499 -12s-22.833 -12.667 -31.5 -20c-5.33301 -4 -14 -11.5 -26 -22.5l-38.5 -35.5
c-13.667 -12.667 -26.167 -25.334 -37.5 -38.001s-19 -23 -23 -31c0 -5.33301 5 -11.833 15 -19.5s25 -11.5 45 -11.5v-136v-94c0 -34 9.83301 -65.167 29.5 -93.5s56.5 -42.5 110.5 -42.5c24 0 46.333 2.83301 67 8.5s37.667 14.167 51 25.5
c8.66699 8 14.167 19.5 16.5 34.5s2.5 29.167 0.5 42.5z" />
    <glyph glyph-name="u" unicode="u" horiz-adv-x="539" 
d="M60 159c0 -49.333 11.998 -90.167 35.998 -122.5s63.667 -48.5 119 -48.5c23.333 0 44.333 5 63 15c22.667 9.33301 47.334 25 74.001 47c6 -18.667 15.667 -33.667 29 -45s35 -17 65 -17c14 0 28.167 7.66699 42.5 23s22.5 32 24.5 50v6
c-13.333 2 -23.166 6.5 -29.499 13.5s-9.5 19.833 -9.5 38.5v148c0 44 0.5 82.5 1.5 115.5s1.5 54.833 1.5 65.5c-20 0 -38.333 -0.666992 -55 -2l-64 -5c-10 -2.66699 -16.333 -6.5 -19 -11.5s-4 -14.833 -4 -29.5v-286c-15.333 -13.333 -36 -20.333 -62 -21
c-16 0 -32.333 5.16699 -49 15.5s-25 31.5 -25 63.5v108v105c0 28.667 -1.5 46.334 -4.5 53.001s-8.5 10 -16.5 10c-15.333 0 -36.5 -1.5 -63.5 -4.5s-46.5 -5.83301 -58.5 -8.5c0.666992 -10 1.5 -23.333 2.5 -40s1.5 -40.334 1.5 -71.001v-165z" />
    <glyph glyph-name="v" unicode="v" horiz-adv-x="458" 
d="M128 454c-15.333 0 -35.499 -2.66699 -60.499 -8s-44.167 -11.333 -57.5 -18c18.667 -42 35 -82.667 49 -122c38.667 -98 77.667 -204 117 -318c10.667 0 24.667 1 42 3s33.333 4.33301 48 7c16.667 2.66699 27.667 10.667 33 24c7.33301 20 16.666 44 27.999 72
l36.5 89.5l39.5 95l36 88.5c6 16.667 9.83301 31 11.5 43s-3.5 20.667 -15.5 26c-26 12 -55 18 -87 18c-24 -78.667 -58 -181 -102 -307l-48 158l-40 125c-2.66699 6 -6.16699 11.5 -10.5 16.5s-10.5 7.5 -18.5 7.5h-1z" />
    <glyph glyph-name="w" unicode="w" horiz-adv-x="684" 
d="M133 454c-17.333 0 -39.6641 -3.50195 -66.9971 -10.502s-46.666 -12.167 -57.999 -15.5l21.5 -59.5l25.5 -74.5l51 -162l44 -144c13.333 0 28.5 0.833008 45.5 2.5s32.5 3.83398 46.5 6.50098c8.66699 2 15 5.33301 19 10s8 13 12 25l39.5 123l31.5 101
c12.667 -52 25.167 -99.333 37.5 -142s23.5 -84.667 33.5 -126c16 0 32.667 0.833008 50 2.5s33 3.83398 47 6.50098c10.667 2.66699 17.834 6.33398 21.501 11.001s7.5 12 11.5 22l126 360c5.33301 16 7.16602 28 5.49902 36s-5.83398 13.333 -12.501 16
c-14 4 -29.333 6.83301 -46 8.5s-33 2.83398 -49 3.50098c-6 -24 -13 -50.5 -21 -79.5l-24 -85.5l-22 -79l-16 -59c-8.66699 36.667 -20 80.667 -34 132s-25.333 94.666 -34 129.999c-2.66699 9.33301 -5.33398 16.666 -8.00098 21.999s-8.33398 8 -17.001 8
c-11.333 0 -28.833 -2.66699 -52.5 -8s-40.167 -9.33301 -49.5 -12l6 -31l-11 -38c-3.33301 -12 -7.66602 -26.833 -12.999 -44.5l-19 -65l-29 -98.5l-38.5 168l-27.5 113c-2.66699 10 -5.83398 17 -9.50098 21s-8.83398 6 -15.501 6h-1z" />
    <glyph glyph-name="x" unicode="x" horiz-adv-x="446" 
d="M19 430l28.5029 -45.002l40.5 -64l39.5 -62.5c12.333 -19.667 21.166 -32.834 26.499 -39.501c-28 -42.667 -52.167 -78.167 -72.5 -106.5s-44.166 -63.833 -71.499 -106.5v-4c10.667 -2 25.5 -3.83301 44.5 -5.5s36.833 -2.5 53.5 -2.5c14 0.666992 24 6.66699 30 18
l37 60.5l37 61.5c10.667 -19.333 23.167 -39.666 37.5 -60.999s27.166 -41.333 38.499 -60c8 -13.333 18.667 -19.666 32 -18.999c25.333 0 49.5 1.16699 72.5 3.5s40.5 4.83301 52.5 7.5v3l-78.5 122.5c-26.333 41 -48.5 76.833 -66.5 107.5
c7.33301 12 18.166 28.333 32.499 49l43 62l38 54.5l18.5 26.5v3c-8 4 -21.667 8.5 -41 13.5s-36 7.5 -50 7.5c-7.33301 0 -12.833 -1.83301 -16.5 -5.5s-7.5 -8.83398 -11.5 -15.501l-37 -59l-35 -56l-42 69l-32 53c-6 8.66699 -14.333 13.334 -25 14.001
c-18 0 -40.833 -2.66699 -68.5 -8s-45.834 -9.66602 -54.501 -12.999v-3z" />
    <glyph glyph-name="y" unicode="y" horiz-adv-x="446" 
d="M54 -157c6 -8 17.6729 -17.1689 35.0059 -27.502s36.333 -15.5 57 -15.5c6 0 14.667 6.33301 26 19s24.166 29.5 38.499 50.5s29.833 45.5 46.5 73.5s33 58 49 90c29.333 60 54.666 121.333 75.999 184s38.666 122.334 51.999 179.001
c2.66699 12.667 2.66699 22.5 0 29.5s-11 12.5 -25 16.5c-30 6.66699 -56 10.667 -78 12c-2.66699 -16.667 -6.83398 -37.167 -12.501 -61.5s-12.334 -49.833 -20.001 -76.5s-15.834 -53.5 -24.501 -80.5s-17 -51.5 -25 -73.5l-43.5 133l-43.5 127
c-4 8.66699 -8.16699 16.167 -12.5 22.5s-11.5 9.5 -21.5 9.5c-14 0 -33 -3 -57 -9s-44 -13 -60 -21l33.5 -79l43 -107.5l40.5 -103.5c12.667 -32 22 -54.333 28 -67c2 -8 5.5 -16.333 10.5 -25s8.83301 -15 11.5 -19c-17.333 -31.333 -38.833 -64.666 -64.5 -99.999
s-45.5 -60.333 -59.5 -75v-5z" />
    <glyph glyph-name="z" unicode="z" horiz-adv-x="407" 
d="M24 7c20.667 -4 49.6719 -6.83301 87.0049 -8.5s81 -2.5 131 -2.5c27.333 0 48.666 0.5 63.999 1.5s27.166 1.83301 35.499 2.5s14.666 2 18.999 4s8.5 4.33301 12.5 7c6.66699 4.66699 13.5 13.667 20.5 27s12.5 30 16.5 50c-10 -2 -24.833 -3.16699 -44.5 -3.5
s-40.167 -0.5 -61.5 -0.5s-41 0.166992 -59 0.5s-30 1.5 -36 3.5l46.5 81l49 87l41 75c11.667 22 19.167 37 22.5 45l7 18c1.33301 3.33301 2.16602 6.5 2.49902 9.5s0.666016 7.16699 0.999023 12.5s1.5 14 3.5 26h-248c-22 0 -39.333 0.333008 -52 1s-22.334 3 -29.001 7
c-9.33301 -6.66699 -19.666 -27 -30.999 -61c-8 -24.667 11.333 -36.667 58 -36h72.5h57.5c-10 -19.333 -24.667 -45 -44 -77l-59.5 -98l-57.5 -92l-37 -58z" />
    <glyph glyph-name="braceleft" unicode="{" horiz-adv-x="355" 
d="M309 -116c0.666992 8.66699 -3.99902 13.665 -13.999 14.998c-28 4.66699 -47 13.334 -57 26.001s-15 27 -15 43c0 25.333 3.5 54.333 10.5 87s10.5 65 10.5 97c0 24 -5.33301 47.833 -16 71.5s-34 42.167 -70 55.5c26 8.66699 46.833 22.334 62.5 41.001
s23.5 43.667 23.5 75c-0.666992 23.333 -4.5 48.166 -11.5 74.499s-10.5 52.5 -10.5 78.5c0 24.667 6.16699 41.834 18.5 51.501s29.5 18.167 51.5 25.5c11.333 2.66699 16.666 10.667 15.999 24c-0.666992 25.333 -3 42 -7 50c-33.333 -0.666992 -60 -3.83398 -80 -9.50098
s-37 -13.5 -51 -23.5c-22.667 -16.667 -37.667 -36.167 -45 -58.5s-11 -44.5 -11 -66.5c0 -30.667 2.83301 -60 8.5 -88s8.5 -52 8.5 -72s-5.16699 -36.667 -15.5 -50s-32.5 -24 -66.5 -32c-1.33301 -14 -0.333008 -27.667 3 -41s7.33301 -20 12 -20
c24.667 -4 42 -12.167 52 -24.5s15 -32.166 15 -59.499c0 -11.333 -1.16699 -25.5 -3.5 -42.5l-7 -52.5c-2.33301 -18 -4.5 -35.667 -6.5 -53s-3 -32 -3 -44c0 -46 14.667 -80.5 44 -103.5s76.333 -35.167 141 -36.5c4 6.66699 7.16699 16 9.5 28s3.5 23 3.5 33v1z" />
    <glyph glyph-name="bar" unicode="|" horiz-adv-x="318" 
d="M213 750h-108v-1000h108v1000z" />
    <glyph glyph-name="braceright" unicode="}" horiz-adv-x="355" 
d="M47 638c-0.666992 -8.66699 3.99902 -13.667 13.999 -15c27.333 -5.33301 46.166 -14.333 56.499 -27s15.5 -26.667 15.5 -42c0 -26 -3.5 -54.167 -10.5 -84.5s-10.5 -61.833 -10.5 -94.5c0 -21.333 5.16699 -43.666 15.5 -66.999s33.833 -41 70.5 -53
c-26 -9.33301 -46.833 -23.333 -62.5 -42s-23.5 -43 -23.5 -73s3.66699 -58.667 11 -86s11 -53.666 11 -78.999c0 -24.667 -6.16699 -41.834 -18.5 -51.501s-29.5 -18.5 -51.5 -26.5c-11.333 -2.66699 -16.666 -10.334 -15.999 -23.001c0 -25.333 2 -42.333 6 -51
c32.667 0.666992 59.334 4.16699 80.001 10.5s38.667 14.833 54 25.5c21.333 16 35.666 34.833 42.999 56.5s11 43.5 11 65.5c0 30 -2.83301 61.167 -8.5 93.5s-8.5 58.5 -8.5 78.5s5 36.667 15 50s32.333 24 67 32c0.666992 14 -0.666016 27.333 -3.99902 40
s-7 19.334 -11 20.001c-25.333 3.33301 -42.833 11.166 -52.5 23.499s-14.5 30.833 -14.5 55.5c0 10.667 1 24 3 40l6.5 50.5l7 52c2.33301 17 3.5 31.5 3.5 43.5c0 46 -14.833 80.5 -44.5 103.5s-76.5 35.167 -140.5 36.5c-4 -6.66699 -7.16699 -16 -9.5 -28
s-3.5 -23 -3.5 -33v-1z" />
    <glyph glyph-name="asciitilde" unicode="~" horiz-adv-x="591" 
d="M204 357c-14 0 -28.835 -1.83398 -44.502 -5.50098s-30.667 -12.167 -45 -25.5s-27.166 -33.166 -38.499 -59.499s-19 -62.5 -23 -108.5c4.66699 -5.33301 16.167 -11 34.5 -17s31.5 -9 39.5 -9c10 0 16.333 6.33301 19 19c6.66699 48 15 77.833 25 89.5s20 17.5 30 17.5
c9.33301 0 19.333 -4.16699 30 -12.5s24.667 -21.166 42 -38.499c18 -19.333 37.167 -37.166 57.5 -53.499s44.833 -24.5 73.5 -24.5c15.333 0 30.833 2.5 46.5 7.5s29.834 14.667 42.501 29s23.167 34.666 31.5 60.999s13.166 60.5 14.499 102.5
c-6 5.33301 -15.833 10.666 -29.5 15.999s-28.167 8 -43.5 8c-5.33301 0 -9.66602 -1 -12.999 -3s-5 -6.33301 -5 -13c-3.33301 -44 -8.83301 -72.667 -16.5 -86s-16.5 -20 -26.5 -20c-8 0 -17.833 3.83301 -29.5 11.5s-27.5 22.5 -47.5 44.5
c-22.667 24 -43.167 41.667 -61.5 53s-38.833 17 -61.5 17h-1z" />
    <glyph glyph-name="nonbreakingspace" unicode="&#xa0;" horiz-adv-x="208" 
 />
    <glyph glyph-name="exclamdown" unicode="&#xa1;" horiz-adv-x="238" 
d="M118 295c26.667 0 47.168 7.49805 61.501 22.498s21.5 34.5 21.5 58.5c0 26.667 -8.16699 46.334 -24.5 59.001s-33.5 19 -51.5 19c-24.667 0 -44.334 -7.5 -59.001 -22.5s-22 -34.5 -22 -58.5c0 -21.333 6.66699 -39.666 20 -54.999s31 -23 53 -23h1zM70.001 -164.002
c8.66699 0 19.665 0.831055 32.998 2.49805s26.333 3.5 39 5.5s23.834 4.33301 33.501 7s15.5 5.33398 17.5 8.00098c-0.666992 18 -2.83398 45.5 -6.50098 82.5l-11.5 115c-4 39.667 -8 76.334 -12 110.001s-6.33301 55.834 -7 66.501c-3.33301 0 -10 -1.16699 -20 -3.5
s-21.667 -4.83301 -35 -7.5c-5.33301 -2 -10.666 -4.66699 -15.999 -8s-8.66602 -9.33301 -9.99902 -18c-2 -12 -5 -33 -9 -63s-8 -61.833 -12 -95.5s-7.16699 -66.334 -9.5 -98.001s-3.5 -55.5 -3.5 -71.5c0 -13.333 2.5 -22 7.5 -26s11.833 -6 20.5 -6h1z" />
    <glyph glyph-name="cent" unicode="&#xa2;" horiz-adv-x="499" 
d="M361 583l-52 -3.99902c-18 -2 -29.5 -4.83301 -34.5 -8.5s-7.83301 -9.83398 -8.5 -18.501l-5 -50c-16.667 -3.33301 -36.5 -9.16602 -59.5 -17.499s-44.667 -20.5 -65 -36.5s-37.5 -37 -51.5 -63s-21 -58 -21 -96s6.33301 -69.167 19 -93.5s28 -43.666 46 -57.999
s36.833 -24.833 56.5 -31.5s36.167 -11 49.5 -13l-12 -101l59 4c15.333 1.33301 25.5 4.33301 30.5 9s8.16699 12 9.5 22l6 61c16 0 31.167 2 45.5 6s25.833 9 34.5 15c7.33301 4 15.5 12.5 24.5 25.5s13.5 34.5 13.5 64.5c-28 -12.667 -62.667 -19.334 -104 -20.001
c-14 0 -28.833 1.83301 -44.5 5.5s-30.167 10.334 -43.5 20.001s-24.166 22.167 -32.499 37.5s-12.5 34.333 -12.5 57c0 29.333 8.66699 56.5 26 81.5s49 37.5 95 37.5c10 0 20.833 -1.5 32.5 -4.5s22.5 -6.5 32.5 -10.5c18 -0.666992 30.667 7.66602 38 24.999
s11 31.666 11 42.999c-10 8 -23.333 15 -40 21s-34.334 10 -53.001 12z" />
    <glyph glyph-name="sterling" unicode="&#xa3;" horiz-adv-x="499" 
d="M31 13c57.333 -14 110.334 -26.333 159.001 -37s93 -16 133 -16c40.667 -0.666992 70 5.33301 88 18c11.333 8.66699 21.666 20 30.999 34s15 33 17 57l-2 2c-16.667 -4 -35.667 -6.83301 -57 -8.5s-39 -2.5 -53 -2.5c-32.667 0 -64.167 3.16699 -94.5 9.5
s-55.166 12.833 -74.499 19.5c18 15.333 33.667 36.333 47 63s21.666 62 24.999 106c58.667 0 95 0.333008 109 1c7.33301 0.666992 17 6.33398 29 17.001s21 34.667 27 72c-8 -1.33301 -19 -2.16602 -33 -2.49902s-29 -0.5 -45 -0.5h-46h-36
c2 57.333 7.66699 100.333 17 129s30 43 62 43c16.667 -0.666992 30.334 -3.33398 41.001 -8.00098c16 -2 27.667 7.16699 35 27.5s10.333 35.5 9 45.5c-10.667 8 -24.5 15.333 -41.5 22s-35.833 10 -56.5 10c-71.333 0 -123 -25 -155 -75s-49.333 -114.333 -52 -193
c-20 -7.33301 -35.667 -15.833 -47 -25.5s-18.333 -25.834 -21 -48.501c14.667 -10 35.667 -14.667 63 -14c0 -14 -0.833008 -31 -2.5 -51s-5.33398 -40.833 -11.001 -62.5s-13.5 -42.667 -23.5 -63s-23.667 -37.5 -41 -51.5v-17z" />
    <glyph glyph-name="currency" unicode="&#xa4;" horiz-adv-x="499" 
d="M241 491c-20.667 0 -38.667 -2.66504 -54 -7.99805s-29 -11.333 -41 -18c-12.667 12 -25.5 25.167 -38.5 39.5l-29.5 32.5c-18 -6.66699 -32.333 -17.334 -43 -32.001c-12.667 -14.667 -11 -30.334 5 -47.001l42 -40c-13.333 -16 -24.833 -34.333 -34.5 -55
s-14.5 -44.334 -14.5 -71.001c-1.33301 -54.667 15.334 -99.334 50.001 -134.001c-9.33301 -12.667 -20.833 -26.667 -34.5 -42l-30.5 -34c2.66699 -10.667 13.667 -21.334 33 -32.001s37 -7 53 11c13.333 14 23.166 25.5 29.499 34.5l15.5 22.5
c4.66699 -4 14.167 -7.5 28.5 -10.5s28.5 -4.5 42.5 -4.5c16 0 31.5 1.83301 46.5 5.5s31.5 10.834 49.5 21.501l43 -52.5c16.667 -19.667 28.334 -29.5 35.001 -29.5s16.167 6.33301 28.5 19s20.166 24 23.499 34c-4 6 -12.5 16 -25.5 30l-42.5 48
c13.333 14 24 33.167 32 57.5s12 45.833 12 64.5c-0.666992 44.667 -10.667 81.334 -30 110.001c16 16.667 29.167 31 39.5 43s15.5 21.333 15.5 28c0 8 -2.66699 17.167 -8 27.5s-18 19.5 -38 27.5c-8 -10 -18.333 -22.167 -31 -36.5s-23 -25.5 -31 -33.5
c-10 6.66699 -24.667 12.334 -44 17.001s-37 7 -53 7h-1zM226 419.002c30 0 53.5 -10.668 70.5 -32.001s25.5 -50.666 25.5 -87.999c0 -38.667 -8.66699 -69 -26 -91s-40 -33 -68 -33c-25.333 0 -47.5 10.167 -66.5 30.5s-28.5 50.5 -28.5 90.5s9.5 70.5 28.5 91.5
s40.167 31.5 63.5 31.5h1z" />
    <glyph glyph-name="yen" unicode="&#xa5;" horiz-adv-x="499" 
d="M314 335l37.4971 63.5l38.5 65.5l35.5 59.5c11 18.333 20.5 33.5 28.5 45.5c1.33301 2 0.833008 4.66699 -1.5 8s-8.16602 6 -17.499 8c-14 2 -29.5 3.16699 -46.5 3.5s-31.833 -0.166992 -44.5 -1.5c-5.33301 -8.66699 -12.166 -21.5 -20.499 -38.5l-26 -54.5l-26 -57
l-20.5 -47l-19 38l-27.5 55l-27 55.5l-18.5 39.5c-2 3.33301 -4 5.83301 -6 7.5s-5.66699 2.5 -11 2.5c-14.667 0 -36.834 -1.33301 -66.501 -4s-51.834 -5.66699 -66.501 -9v-4c4 -8 12.167 -22.667 24.5 -44l39.5 -69l41.5 -71.5c13.667 -23 24.167 -40.167 31.5 -51.5
h-89c-3.33301 -2 -6.16602 -11.333 -8.49902 -28s-3.5 -30 -3.5 -40h113v-62h-95c-4 -2 -7.16699 -11.333 -9.5 -28s-3.5 -30 -3.5 -40h108v-126c0 -8 1.66699 -13.167 5 -15.5s9 -3.5 17 -3.5c22 0 43.5 1.33301 64.5 4s38.5 4 52.5 4v137h81c8 0 14.667 8.33301 20 25
s8 31 8 43h-109v62h90c12.667 0 21.334 8 26.001 24s7.33398 30.667 8.00098 44h-107z" />
    <glyph glyph-name="brokenbar" unicode="&#xa6;" horiz-adv-x="318" 
d="M213 675h-108v-350h108v350zM213 175h-108v-350h108v350z" />
    <glyph glyph-name="section" unicode="&#xa7;" horiz-adv-x="467" 
d="M35 347c0 -42 9.50098 -77.6689 28.501 -107.002s40.5 -56.333 64.5 -81l70.5 -74c23 -25.333 34.5 -46 34.5 -62c0 -14 -7 -25 -21 -33s-28 -12 -42 -12c-24.667 -1.33301 -50.334 3.33398 -77.001 14.001c-8 -14 -10.5 -28.5 -7.5 -43.5s10.167 -26.167 21.5 -33.5
c15.333 -10 36 -14.667 62 -14c32 0 59.333 6.33301 82 19s41 27 55 43c30.667 23.333 58.5 54 83.5 92s37.5 80 37.5 126s-9.16699 83 -27.5 111s-43.5 56.667 -75.5 86c-33.333 28 -58.5 51.333 -75.5 70s-25.5 36 -25.5 52c0 10 5 18 15 24s23 9 39 9
c10 0 20.833 -1.66699 32.5 -5s22.5 -7.66602 32.5 -12.999c8 7.33301 14.833 18.5 20.5 33.5s3.83398 26.167 -5.49902 33.5c-8.66699 6 -19.834 11.333 -33.501 16s-28.167 7 -43.5 7c-35.333 0 -64 -7 -86 -21s-38.667 -28.667 -50 -44
c-22.667 -18 -46.5 -42.5 -71.5 -73.5s-37.5 -70.5 -37.5 -118.5v-1zM342.001 137.998c0 -10 -2.33398 -22.833 -7.00098 -38.5s-11 -29.5 -19 -41.5c-2 28 -11 54 -27 78s-41 53 -75 87c-28.667 28.667 -51.167 56 -67.5 82s-24.5 53.333 -24.5 82
c-0.666992 22 5.33301 45 18 69c5.33301 -34 20.5 -64 45.5 -90l72.5 -73c22.667 -22 42.334 -44.833 59.001 -68.5s25 -52.167 25 -85.5v-1z" />
    <glyph glyph-name="dieresis" unicode="&#xa8;" horiz-adv-x="400" 
d="M105 662c-22 0 -38.5 -6.66797 -49.5 -20.001s-16.5 -29.333 -16.5 -48c0 -21.333 6.5 -37.166 19.5 -47.499s26.833 -15.5 41.5 -15.5c19.333 0 35 6 47 18s18 28.667 18 50c0 16 -5.66699 30.5 -17 43.5s-25.333 19.5 -42 19.5h-1zM303 661.999
c-22 0 -38.5 -6.66895 -49.5 -20.002s-16.5 -29.333 -16.5 -48c0 -21.333 6.66699 -37.166 20 -47.499s27 -15.5 41 -15.5c19.333 0 35 6 47 18s18 28.667 18 50c0 16.667 -5.66699 31.334 -17 44.001s-25.333 19 -42 19h-1z" />
    <glyph glyph-name="copyright" unicode="&#xa9;" horiz-adv-x="700" 
d="M352 631c-44.667 0 -86.5 -7.83301 -125.5 -23.5s-72.667 -37.5 -101 -65.5s-50.5 -61.167 -66.5 -99.5s-24 -80.5 -24 -126.5s8 -88.333 24 -127s38.167 -72 66.5 -100s62 -49.5 101 -64.5s80.833 -22.5 125.5 -22.5c43.333 0 84 7.5 122 22.5s71 36.5 99 64.5
s50.333 61.333 67 100s25 81 25 127c0 44.667 -8 86.167 -24 124.5s-38 71.5 -66 99.5s-61 50.167 -99 66.5s-79 24.5 -123 24.5h-1zM353 579c36 0 69.001 -7.00195 99.001 -21.002s55.667 -33 77 -57s38 -51.667 50 -83s18 -64.333 18 -99
c0 -38 -6.16699 -73.167 -18.5 -105.5s-29.333 -60.5 -51 -84.5s-47.334 -42.5 -77.001 -55.5s-61.834 -19.5 -96.501 -19.5c-36 0 -69.5 6.5 -100.5 19.5s-57.667 31.333 -80 55s-39.666 51.5 -51.999 83.5s-18.5 66.667 -18.5 104s6.16699 71.833 18.5 103.5
s29.5 59.334 51.5 83.001s48.333 42.334 79 56.001s64 20.5 100 20.5h1zM470.001 228.998c-9.33301 -4 -21.332 -7.16602 -35.999 -9.49902s-29.334 -3.5 -44.001 -3.5c-39.333 0 -68.666 10 -87.999 30s-29 44.667 -29 74c0 31.333 9.16699 56 27.5 74s41.166 27 68.499 27
c15.333 0 28.833 -1.5 40.5 -4.5l25.5 -6.5c5.33301 -2.66699 11 -3 17 -1s10.333 5.33301 13 10c2 2.66699 4.16699 7.33398 6.5 14.001s3.5 12.667 3.5 18c-4 5.33301 -15.167 11.666 -33.5 18.999s-41.166 11 -68.499 11c-48 0 -90.333 -14.333 -127 -43
s-55 -69 -55 -121c0 -50 15 -90 45 -120s74.667 -45 134 -45c21.333 0 38.666 2.16699 51.999 6.5s22 7.83301 26 10.5c8 6 14 15.167 18 27.5s6 22.166 6 29.499z" />
    <glyph glyph-name="ordfeminine" unicode="&#xaa;" horiz-adv-x="362" 
d="M347 349c-4.66699 -2 -11.668 -2.99805 -21.001 -2.99805c-8 0 -15.333 3.33301 -22 10c0 20.667 0.5 41.167 1.5 61.5s1.5 36.166 1.5 47.499c0 38 -12.333 65.333 -37 82s-54 25 -88 25c-28 0 -55.5 -5 -82.5 -15s-47.5 -20 -61.5 -30l5 -17
c7.33301 -30.667 26 -39.667 56 -27c7.33301 3.33301 16.833 6.83301 28.5 10.5s22.834 5.5 33.501 5.5c12.667 0 22.834 -3 30.501 -9s11.5 -13.333 11.5 -22v-7c-2.66699 -0.666992 -6.5 -1.33398 -11.5 -2.00098s-12.5 -2 -22.5 -4
c-32.667 -6 -64.834 -15.833 -96.501 -29.5s-47.5 -36.5 -47.5 -68.5c0 -27.333 9 -47.833 27 -61.5s40.333 -20.5 67 -20.5c16 0 32.167 3.83301 48.5 11.5s28.5 15.5 36.5 23.5c10.667 -24 33.334 -35.667 68.001 -35c22 0 39.667 5 53 15s20.666 22 21.999 36v23z
M129.999 371.002c0 6.66699 4.5 14.332 13.5 22.999s28.5 14.334 58.5 17.001v-34c0 -8 -2.66699 -14.667 -8 -20c-8 -8.66699 -19 -13 -33 -13c-9.33301 0 -16.833 2.33301 -22.5 7s-8.5 11 -8.5 19v1z" />
    <glyph glyph-name="guillemotleft" unicode="&#xab;" horiz-adv-x="640" 
d="M485 60c0 7.33301 -4.16699 18.832 -12.5 34.499s-17.666 32.334 -27.999 50.001s-20.666 34.334 -30.999 50.001s-18.166 27.167 -23.499 34.5c5.33301 6 13.666 16.667 24.999 32l35 49c12 17.333 22.5 34 31.5 50s13.5 28 13.5 36
c-1.33301 10.667 -8.5 20.667 -21.5 30s-23.167 15 -30.5 17c-30 -41.333 -59.333 -79.333 -88 -114s-62 -65 -100 -91c-0.666992 -8.66699 3 -17.334 11 -26.001c31.333 -29.333 60.666 -59.833 87.999 -91.5s52.666 -67.5 75.999 -107.5c8.66699 2 20 7.66699 34 17
s21 19 21 29v1zM272 387.999c0 8.66699 -6.16406 17.499 -18.4971 26.499s-22.5 14.5 -30.5 16.5c-26.667 -39.333 -55.334 -75.333 -86.001 -108s-61.334 -61 -92.001 -85c-0.666992 -8.66699 2 -16.667 8 -24c30 -26 59.167 -55.5 87.5 -88.5s51.833 -66.5 70.5 -100.5
c8 1.33301 18.5 6.83301 31.5 16.5s19.167 18.834 18.5 27.501c0 8.66699 -3.5 20.5 -10.5 35.5s-15 30.5 -24 46.5s-18.167 31 -27.5 45s-16.333 25 -21 33c4.66699 5.33301 12.167 15.5 22.5 30.5s20.666 31 30.999 48l28 48c8.33301 15 12.5 25.5 12.5 31.5v1z" />
    <glyph glyph-name="logicalnot" unicode="&#xac;" horiz-adv-x="591" 
d="M430 64c4.66699 0 12.333 -0.332031 23 -0.999023s21.5 -0.333984 32.5 0.999023s20.667 4.33301 29 9s12.5 12.334 12.5 23.001v267l-13 14h-418c-12 0 -20.333 -8.33301 -25 -25s-7 -38.334 -7 -65.001h366v-223z" />
    <glyph glyph-name="sfthyphen" unicode="&#xad;" horiz-adv-x="321" 
d="M284 320c-23.333 -7.33301 -56.501 -15.833 -99.501 -25.5s-80.167 -17.5 -111.5 -23.5c-6 -1.33301 -13.5 -11.166 -22.5 -29.499s-14.833 -41.166 -17.5 -68.499l3 -5c10 -0.666992 23.5 0.333008 40.5 3s35.333 6 55 10s38.834 8.66699 57.501 14s34 10.666 46 15.999
c12 2 23 14.667 33 38s16.333 45.666 19 66.999z" />
    <glyph glyph-name="registered" unicode="&#xae;" horiz-adv-x="318" 
d="M160 640c-40 0 -71.833 -12.667 -95.5 -38s-35.5 -56.666 -35.5 -93.999c0 -36 11.667 -66.833 35 -92.5s55 -38.5 95 -38.5s72.167 12.833 96.5 38.5s36.5 56.5 36.5 92.5c0 37.333 -12.333 68.666 -37 93.999s-56 38 -94 38h-1zM159 612c28.667 0 51.833 -10 69.5 -30
s26.5 -44.333 26.5 -73c0 -30 -9 -54.667 -27 -74s-40.667 -29 -68 -29c-28 0 -50.667 9.66699 -68 29s-26 44 -26 74c0 28.667 8.33301 53 25 73s39 30 67 30h1zM143.999 494c5.33301 1.33301 10 -0.999023 14 -6.99902c8 -14 14.333 -24.333 19 -31
c3.33301 -6.66699 10 -10.334 20 -11.001c5.33301 0 9.66602 0.166992 12.999 0.5s7.33301 0.833008 12 1.5v3c-4 4 -10.167 13 -18.5 27l-17.5 29c4.66699 2 9.83398 5.33301 15.501 10s8.5 11.667 8.5 21c-1.33301 26 -19 39 -53 39c-15.333 0 -31.333 -1.33301 -48 -4
v-126h12.5c5 0 9.16699 0.333008 12.5 1c6.66699 0.666992 10 5 10 13v34zM143.999 551.001c2.66699 0.666992 6.33301 0.999023 11 0.999023c11.333 -0.666992 17.333 -6.66699 18 -18c-0.666992 -9.33301 -4.66699 -14.666 -12 -15.999c-6 -1.33301 -11.667 -2 -17 -2v35z
" />
    <glyph glyph-name="macron" unicode="&#xaf;" horiz-adv-x="400" 
d="M302 542c4.66699 6 9.49805 16.666 14.498 31.999s7.5 29.333 7.5 42c0.666992 9.33301 -3.66602 14.333 -12.999 15h-217c-3.33301 -4 -7.16602 -14.333 -11.499 -31s-6.5 -30.667 -6.5 -42s4.66699 -16.666 14 -15.999h212z" />
    <glyph glyph-name="degree" unicode="&#xb0;" horiz-adv-x="318" 
d="M164 602c-40.667 0 -72.668 -12.334 -96.001 -37.001s-35 -55 -35 -91c0 -40 12.667 -70.333 38 -91s52.333 -31 81 -31c40.667 0 73 12 97 36s36 54.333 36 91c0 30.667 -10.667 58.834 -32 84.501s-50.666 38.5 -87.999 38.5h-1zM158.999 536.999
c16.667 0 29.332 -6.33301 37.999 -19s13 -26 13 -40c0 -16 -4 -30.167 -12 -42.5s-21 -18.5 -39 -18.5c-13.333 0 -25.166 5 -35.499 15s-15.5 24.667 -15.5 44c0 15.333 4.33301 29.333 13 42s21 19 37 19h1z" />
    <glyph glyph-name="plusminus" unicode="&#xb1;" horiz-adv-x="591" 
d="M246 317v-190.001l43 2c22.667 0.666992 37.334 3.83398 44.001 9.50098s10 12.5 10 20.5v158h149c14 0 23 6.5 27 19.5s6.33301 36.5 7 70.5h-183v129c0 13.333 -1.33301 22.833 -4 28.5s-9.66699 8.16699 -21 7.5l-75 -5c2 -18 3 -40.667 3 -68v-92h-150
c-12.667 0 -21.334 -6.5 -26.001 -19.5s-7 -36.5 -7 -70.5h183zM493 -0.000976562c14 0 23.001 6.66895 27.001 20.002s6.33301 36.666 7 69.999h-430c-12.667 0 -21.334 -6.33301 -26.001 -19s-7 -36.334 -7 -71.001h429z" />
    <glyph glyph-name="twosuperior" unicode="&#xb2;" 
d="M39 645c9.33301 7.33301 20.832 13.1689 34.499 17.502s27.5 6.5 41.5 6.5s25.167 -3.83301 33.5 -11.5s12.5 -18.167 12.5 -31.5c0 -14 -4 -27.667 -12 -41s-17.667 -26 -29 -38s-23.166 -23 -35.499 -33l-30.5 -24c-4 -7.33301 -8 -15.5 -12 -24.5l-11 -24.5l4 -8
c10 -2.66699 28.333 -4.33398 55 -5.00098s53 -1 79 -1c38.667 -0.666992 69 2.33301 91 9c7.33301 3.33301 14.666 12.666 21.999 27.999s12.666 29.333 15.999 42c-38.667 -1.33301 -66.667 -2 -84 -2s-31 0.666992 -41 2c22 16.667 44.667 35.667 68 57s35 50 35 86
c0 28 -9.83301 51.833 -29.5 71.5s-48.5 29.5 -86.5 29.5c-21.333 0 -42.166 -3.83301 -62.499 -11.5s-36.833 -18.5 -49.5 -32.5c-3.33301 -6 -6.16602 -15.167 -8.49902 -27.5s-3.5 -22.5 -3.5 -30.5z" />
    <glyph glyph-name="threesuperior" unicode="&#xb3;" 
d="M80 547c14.667 2 28.6689 3.33301 42.002 4c22 0 37.333 -3.83301 46 -11.5s13 -16.5 13 -26.5c0 -12.667 -5.33301 -23.334 -16 -32.001s-29.667 -13 -57 -13c-12 0 -24.667 1.33301 -38 4s-23.333 5.33398 -30 8.00098l-3 -3
c-0.666992 -12 1.16602 -23.667 5.49902 -35s9.83301 -19.666 16.5 -24.999c5.33301 -2.66699 12.833 -5.66699 22.5 -9s26.5 -5 50.5 -5c44 0 82.333 10.333 115 31s49 49 49 85c-0.666992 43.333 -26.667 70.333 -78 81c14 6.66699 26.833 15.167 38.5 25.5
s17.5 25.5 17.5 45.5s-10 38.167 -30 54.5s-46 24.5 -78 24.5c-28 0 -51.667 -4.83301 -71 -14.5s-32 -17.167 -38 -22.5c-10 -8.66699 -15 -18 -15 -28c0 -4.66699 1.16699 -10.334 3.5 -17.001s5.5 -12.334 9.5 -17.001c11.333 8 24 14.667 38 20s26.333 8 37 8
c12 0 22 -2.66699 30 -8s12 -12.666 12 -21.999c0 -11.333 -5 -21 -15 -29s-31 -14 -63 -18c-2.66699 -5.33301 -5.83398 -13.333 -9.50098 -24l-8.5 -25z" />
    <glyph glyph-name="acute" unicode="&#xb4;" horiz-adv-x="400" 
d="M243 688c-8 -0.666992 -16.167 -6.83496 -24.5 -18.502s-16.5 -25.5 -24.5 -41.5s-15 -32.167 -21 -48.5s-10.333 -29.166 -13 -38.499c-5.33301 -15.333 -4.33301 -24.666 3 -27.999c4.66699 -3.33301 10 -6.5 16 -9.5s14 -5.16699 24 -6.5l51 63
c21.333 26.667 43 52 65 76c10 9.33301 10.667 16.333 2 21c-8 6.66699 -19 13.5 -33 20.5s-29 10.5 -45 10.5z" />
    <glyph glyph-name="mu" unicode="&#xb5;" horiz-adv-x="541" 
d="M181 19c4 -6.66699 12.1699 -13.3311 24.5029 -19.998s26.5 -10 42.5 -10c24 0 43.833 5.66699 59.5 17s31.5 25.333 47.5 42c6.66699 -16 17 -30 31 -42s36 -18 66 -18c20 0 35.833 8.5 47.5 25.5s19.167 33.5 22.5 49.5v5c-16.667 2 -28.667 6.83301 -36 14.5
s-11 20.5 -11 38.5v141c0 42.667 0.5 80.5 1.5 113.5s1.5 55.833 1.5 68.5c-20 -0.666992 -38.333 -1.83398 -55 -3.50098s-38 -3.5 -64 -5.5c-10 -2.66699 -16.333 -6.66699 -19 -12s-4 -15 -4 -29v-268c-16.667 -20 -39.334 -29.667 -68.001 -29
c-14 0 -28.5 4.66699 -43.5 14s-22.5 30 -22.5 62v103v103c0 30 -1.5 48.333 -4.5 55s-8.5 10 -16.5 10c-15.333 0 -36.333 -1.83301 -63 -5.5s-46.334 -7.16699 -59.001 -10.5c1.33301 -10 2.33301 -23.333 3 -40s1 -40 1 -70v-172l-11 -314
c-0.666992 -16.667 0.666016 -27.834 3.99902 -33.501s16 -9.5 38 -11.5c30 -2 60.333 -2.66699 91 -2z" />
    <glyph glyph-name="paragraph" unicode="&#xb6;" horiz-adv-x="523" 
d="M297 148l-0.000976562 -53.999c0 -52 -8 -92.5 -24 -121.5s-42 -43.5 -78 -43.5c-23.333 0 -43 4.16699 -59 12.5s-28.667 15.166 -38 20.499c-4 -2 -9.33301 -10.333 -16 -25s-8.66699 -26.667 -6 -36c1.33301 -10.667 12.833 -22.167 34.5 -34.5
s50.167 -18.5 85.5 -18.5c29.333 0 54.333 4.16699 75 12.5s37.667 17.833 51 28.5c30.667 26 50.834 58.167 60.501 96.5s14.5 94.5 14.5 168.5v295l66 6l29 60l-2 5h-60.5h-67.5h-104c-64 0 -116.5 -18.167 -157.5 -54.5s-61.5 -88.166 -61.5 -155.499
c0 -54.667 17.333 -99.167 52 -133.5s73.667 -51.5 117 -51.5c12.667 -0.666992 25.667 1.66602 39 6.99902z" />
    <glyph glyph-name="middot" unicode="&#xb7;" horiz-adv-x="226" 
d="M118 318c-28 0 -48.833 -8.16699 -62.5 -24.5s-20.5 -35.833 -20.5 -58.5c0 -28 8.16699 -48.333 24.5 -61s33.5 -19 51.5 -19c24 0 43.333 7.5 58 22.5s22 35.167 22 60.5c0 21.333 -6.5 40 -19.5 56s-30.5 24 -52.5 24h-1z" />
    <glyph glyph-name="cedilla" unicode="&#xb8;" horiz-adv-x="400" 
d="M183 4l-66 -86.999v-29c20 2 36.5 -0.333008 49.5 -7s19.5 -15.334 19.5 -26.001c0 -7.33301 -3.83301 -14.833 -11.5 -22.5s-25.167 -14.834 -52.5 -21.501c-4.66699 -0.666992 -7.5 -2.5 -8.5 -5.5s-1.5 -5.83301 -1.5 -8.5c0 -6 3 -13.667 9 -23
s13.667 -15.666 23 -18.999c34 2 66.333 13.167 97 33.5s46 46.5 46 78.5c0 20 -6.33301 37.333 -19 52s-28.667 25 -48 31l38 54h-75z" />
    <glyph glyph-name="onesuperior" unicode="&#xb9;" 
d="M245 750c-7.33301 -3.33301 -18.333 -7.33496 -33 -12.002s-30.5 -9.16699 -47.5 -13.5s-33.833 -8.33301 -50.5 -12s-30.334 -6.5 -41.001 -8.5l-20 -63l2 -2c6.66699 0.666992 19.834 2.33398 39.501 5.00098s34.5 5.66699 44.5 9
c-0.666992 -16 -1.33398 -36.167 -2.00098 -60.5s-1 -48.5 -1 -72.5v-64v-33l85 6c10 0.666992 16.833 2.16699 20.5 4.5s5.5 6.5 5.5 12.5c-0.666992 22 -1 49.167 -1 81.5v94.5c0 30.667 0.333008 57.834 1 81.501s1.33398 38.167 2.00098 43.5z" />
    <glyph glyph-name="ordmasculine" unicode="&#xba;" horiz-adv-x="384" 
d="M198 572c-48 0 -88.832 -12.999 -122.499 -38.999s-50.5 -64 -50.5 -114c0 -48.667 16.167 -84.834 48.5 -108.501s70.166 -35.5 113.499 -35.5c46.667 0 87 12.333 121 37s51 62.667 51 114c0 40.667 -14.667 75.167 -44 103.5s-68 42.5 -116 42.5h-1zM192.001 504.001
c20 0 33.501 -9.33301 40.501 -28s10.5 -37 10.5 -55c-0.666992 -50.667 -17.334 -76.667 -50.001 -78c-14 0 -26.167 6.83301 -36.5 20.5s-15.5 34.5 -15.5 62.5c0 24 4.33301 43 13 57s21 21 37 21h1z" />
    <glyph glyph-name="guillemotright" unicode="&#xbb;" horiz-adv-x="638" 
d="M156 395c0 -8 3.83203 -20.1641 11.499 -36.4971s16.5 -33.333 26.5 -51s20.333 -34.167 31 -49.5s19 -26 25 -32c-6 -7.33301 -14.833 -18.833 -26.5 -34.5l-35.5 -50c-12 -17.667 -22.167 -34.334 -30.5 -50.001s-12.5 -27.5 -12.5 -35.5
c0.666992 -10.667 7.83398 -20.834 21.501 -30.501s24.5 -14.834 32.5 -15.501c28 40.667 56.667 78.5 86 113.5s63 65.5 101 91.5c0 9.33301 -3.33301 18.333 -10 27c-32 28 -61.833 58.167 -89.5 90.5s-53.5 68.833 -77.5 109.5c-9.33301 -2 -20.5 -8 -33.5 -18
s-19.5 -19.333 -19.5 -28v-1zM363.999 64.0029c0 -8 6.1709 -16.6689 18.5039 -26.002s22.5 -15 30.5 -17c26.667 39.333 55.5 75.333 86.5 108s62.167 61.334 93.5 86.001c0.666992 8.66699 -2.33301 17.334 -9 26.001c-31.333 24.667 -61 53.667 -89 87s-51 67 -69 101
c-8.66699 -1.33301 -19.5 -7 -32.5 -17s-18.833 -19 -17.5 -27c0 -8.66699 3.16699 -20.5 9.5 -35.5s14.166 -30.5 23.499 -46.5s18.666 -31.167 27.999 -45.5s17 -24.833 23 -31.5c-6 -6 -14.333 -16.833 -25 -32.5s-21.334 -32.167 -32.001 -49.5
s-19.834 -33.5 -27.501 -48.5s-11.5 -25.167 -11.5 -30.5v-1z" />
    <glyph glyph-name="onequarter" unicode="&#xbc;" horiz-adv-x="720" 
d="M238 602c-8 -3.33301 -19.332 -7.16895 -33.999 -11.502s-30.5 -8.66602 -47.5 -12.999l-50.5 -12.5c-16.667 -4 -30.334 -7 -41.001 -9l-20 -62l3 -3c6.66699 0.666992 19.667 2.5 39 5.5s34 6.16699 44 9.5c-0.666992 -16 -1.33398 -36.333 -2.00098 -61s-1 -49 -1 -73
v-64v-33l85 6c10 0.666992 16.833 2.16699 20.5 4.5s5.5 6.5 5.5 12.5c-0.666992 22 -1 49.167 -1 81.5v94.5c0 30.667 0.333008 57.834 1 81.501s1.33398 38.167 2.00098 43.5zM558.001 586.997c-6.66699 18 -19.333 31.001 -38 39.001
c-10.667 6.66699 -18.667 5.33398 -24 -3.99902l-89.5 -149.5l-97.5 -164.5l-95.5 -160.5l-82.5 -136.5c7.33301 -14 20.333 -26.333 39 -37c4.66699 -2.66699 9 -3.83398 13 -3.50098s9 5.16602 15 14.499l208 346zM624.002 336.998
c-19.333 -2.66699 -41.335 -7.33594 -66.002 -14.0029s-40.667 -13 -48 -19c-10.667 -10 -22.5 -22.667 -35.5 -38s-26.167 -32 -39.5 -50s-26.166 -36.167 -38.499 -54.5s-22.833 -35.166 -31.5 -50.499c0 -2.66699 3.33301 -10 10 -22s11.334 -18.667 14.001 -20
c12 -2 30.5 -3.5 55.5 -4.5s49.5 -1.5 73.5 -1.5c0 -8.66699 -0.5 -19.334 -1.5 -32.001s-1.5 -24 -1.5 -34l5 -4c6.66699 0.666992 17.334 1.83398 32.001 3.50098s38 3.83398 70 6.50098v34v28c4 0.666992 10.667 3 20 7c4 6.66699 8.16699 16 12.5 28s7.5 22 9.5 30l-1 2
c-10 -1.33301 -18.833 -2.16602 -26.5 -2.49902s-12.5 -0.5 -14.5 -0.5v81h-4c-16.667 0 -35.834 -3.16699 -57.501 -9.5s-35.167 -11.5 -40.5 -15.5l-2 -57c-8.66699 -0.666992 -18.667 -0.666992 -30 0s-21 1.33398 -29 2.00098c20.667 34 46 68.667 76 104
s60 68.666 90 99.999z" />
    <glyph glyph-name="onehalf" unicode="&#xbd;" horiz-adv-x="720" 
d="M238 602c-8 -3.33301 -19.332 -7.16797 -33.999 -11.501s-30.5 -8.66602 -47.5 -12.999l-50.5 -12.5c-16.667 -4 -30.334 -7 -41.001 -9l-20 -63l2 -2c6.66699 0.666992 19.834 2.5 39.501 5.5s34.5 6.16699 44.5 9.5c-0.666992 -16 -1.33398 -36.333 -2.00098 -61
s-1 -49 -1 -73v-64v-33l85 6c10 0.666992 16.833 2.16699 20.5 4.5s5.5 6.5 5.5 12.5c-0.666992 22 -1 49.167 -1 81.5v94c0 30.333 0.333008 57.333 1 81s1.66699 38.5 3 44.5zM553.001 586.998c-6 18 -18.667 31.001 -38 39.001c-10 6.66699 -18 5.33398 -24 -3.99902
l-89.5 -149.5l-97.5 -164.5l-95.5 -160.5l-82.5 -136.5c6.66699 -14 19.667 -26.333 39 -37c4 -2.66699 8 -3.83398 12 -3.50098s9 5.16602 15 14.499l209 345zM536.001 319.999c-22 0 -43.332 -4.16602 -63.999 -12.499s-37.667 -19.5 -51 -33.5
c-4 -7.33301 -7 -16.666 -9 -27.999s-3 -21 -3 -29l5 -2c9.33301 6.66699 20.666 12.5 33.999 17.5s27 7.5 41 7.5c13.333 0 24.666 -3.66699 33.999 -11s14 -18 14 -32c0 -14.667 -4 -28.834 -12 -42.501s-17.667 -26.5 -29 -38.5s-23 -22.833 -35 -32.5
s-22.333 -17.5 -31 -23.5c-4 -7.33301 -8.16699 -15.833 -12.5 -25.5l-11.5 -25.5l3 -6c10 -2.66699 28.667 -4.33398 56 -5.00098s54 -1 80 -1c38.667 -0.666992 69 2.33301 91 9c7.33301 3.33301 14.833 12.333 22.5 27s12.834 29 15.501 43
c-38.667 -1.33301 -66.5 -2 -83.5 -2s-30.5 0.666992 -40.5 2l67.5 58c23 20.667 34.5 49 34.5 85c0 29.333 -9.66699 53.5 -29 72.5s-48 28.5 -86 28.5h-1z" />
    <glyph glyph-name="threequarters" unicode="&#xbe;" horiz-adv-x="720" 
d="M174 602c-28 0 -51.666 -4.83008 -70.999 -14.4971s-32 -17.167 -38 -22.5c-10 -8.66699 -15 -18.334 -15 -29.001s4.33301 -21.667 13 -33c12 9.33301 25 16.666 39 21.999s26.667 8 38 8c12 0 21.667 -3 29 -9s11 -13.667 11 -23c0 -10.667 -5 -20.334 -15 -29.001
s-31 -15 -63 -19c-2.66699 -5.33301 -5.83398 -13.166 -9.50098 -23.499l-8.5 -24.5l4 -6c14.667 2 28.667 3.33301 42 4c22 0 37.333 -3.83301 46 -11.5s13 -16.167 13 -25.5c0 -13.333 -5.66699 -24.5 -17 -33.5s-30.666 -13.5 -57.999 -13.5c-14 0 -27 1.5 -39 4.5
s-21.333 5.83301 -28 8.5l-4 -4c2 -26.667 9.33301 -46 22 -58c5.33301 -2.66699 12.666 -5.83398 21.999 -9.50098s26 -5.5 50 -5.5c44 0 82.833 10.5 116.5 31.5s50.5 48.833 50.5 83.5c0 43.333 -25.333 70 -76 80c14 7.33301 26.5 16.333 37.5 27s16.5 26 16.5 46
s-9.83301 38.167 -29.5 54.5s-45.5 24.5 -77.5 24.5h-1zM589.001 587.003c-6.66699 18 -19.333 31.001 -38 39.001c-10 6.66699 -18 5.33398 -24 -3.99902l-89.5 -150.5l-97.5 -164.5l-95.5 -160l-82.5 -136c6.66699 -14 19.667 -26.333 39 -37
c4 -2.66699 8 -3.83398 12 -3.50098s9 5.16602 15 14.499l208.5 345.5zM640.002 337.004c-16 -2 -37.1689 -6.50098 -63.502 -13.501s-43.166 -13.833 -50.499 -20.5c-10.667 -10 -22.5 -22.667 -35.5 -38s-26 -32 -39 -50l-37.5 -54c-12 -18 -22.333 -34.667 -31 -50
c0 -2.66699 3.33301 -10 10 -22s11.334 -18.667 14.001 -20c12 -2 30.167 -3.5 54.5 -4.5s48.5 -1.5 72.5 -1.5c0 -8.66699 -0.5 -18.834 -1.5 -30.501s-1.5 -22.5 -1.5 -32.5l8 -7l30 3.5c14 1.66699 37 3.83398 69 6.50098v34v28c4 0.666992 10.667 3 20 7
c4 6.66699 8.16699 16 12.5 28s7.5 22 9.5 30l-1 2c-10 -1.33301 -18.833 -2.16602 -26.5 -2.49902s-12.5 -0.5 -14.5 -0.5v81h-3c-17.333 0 -36.833 -3.16699 -58.5 -9.5s-35.167 -11.5 -40.5 -15.5l-2 -57c-8.66699 -0.666992 -18.167 -0.666992 -28.5 0
s-19.5 1.33398 -27.5 2.00098c20.667 34 45.5 68.667 74.5 104s58.5 68.666 88.5 99.999z" />
    <glyph glyph-name="questiondown" unicode="&#xbf;" horiz-adv-x="376" 
d="M191 296c26.667 0 47.333 7.49805 62 22.498s22 34.5 22 58.5c0 26.667 -8.33301 46.334 -25 59.001s-33.667 19 -51 19c-25.333 0 -45.5 -7.5 -60.5 -22.5s-22.5 -34.5 -22.5 -58.5c0 -21.333 6.83301 -39.666 20.5 -54.999s31.5 -23 53.5 -23h1zM182.999 -163.002
c21.333 0 46.499 4 75.499 12s54.5 23 76.5 45c4 12.667 4.33301 26.667 1 42s-10.333 27 -21 35h-7c-14 -9.33301 -29 -16.5 -45 -21.5s-30 -7.5 -42 -7.5s-23 3 -33 9s-15 16.333 -15 31c0 14 4.33301 27 13 39s20 26 34 42c32 35.333 48.333 69.666 49 102.999
c0 28 -7.16699 49.833 -21.5 65.5s-31.833 23.5 -52.5 23.5c-9.33301 0 -18.5 -1.5 -27.5 -4.5s-14.167 -5.5 -15.5 -7.5c6 -13.333 9.33301 -28.666 10 -45.999c0 -16 -5.16699 -31.833 -15.5 -47.5s-26.166 -34.5 -47.499 -56.5c-22 -22.667 -38 -44 -48 -64
s-15 -40.667 -15 -62c0 -40.667 13.333 -72.5 40 -95.5s62 -34.5 106 -34.5h1z" />
    <glyph glyph-name="Agrave" unicode="&#xc0;" horiz-adv-x="640" 
d="M416 161l23 -66.499l24 -67.5c4.66699 -14 9.66699 -23 15 -27s12.333 -6 21 -6c6 0 14.833 0.5 26.5 1.5s24.167 2 37.5 3s25.833 2 37.5 3s20.5 2.5 26.5 4.5l1 4c-10.667 22.667 -22.667 50.667 -36 84l-50 131l-30.5 79.5l-39.5 102.5l-41.5 107.5l-37.5 95.5
c-6 13.333 -14 19.666 -24 18.999c-6 0 -22.333 -1.16699 -49 -3.5s-51 -5.5 -73 -9.5l6 -18l-48 -116l-69.5 -169l-71 -173.5l-52.5 -128.5l1 -4c12 -4 28.5 -7.16699 49.5 -9.5s38.167 -3.5 51.5 -3.5c17.333 0 27.333 5 30 15c6 14.667 14.833 37.667 26.5 69l31.5 83
h214zM232 254.001l43 118.5l35 101.5l79 -220h-157zM234 834.001c-12 0 -23.1631 -7.00098 -33.4961 -21.001s-17.833 -28 -22.5 -42c-4 -12.667 -1.33301 -20 8 -22c31.333 -12 63.666 -26.167 96.999 -42.5s61.666 -29.5 84.999 -39.5c4 5.33301 10 14.333 18 27
c5.33301 8.66699 7.16602 16 5.49902 22s-5.16699 11.333 -10.5 16c-10 8.66699 -22.333 18.834 -37 30.501s-29.334 22.667 -44.001 33s-28.167 19.333 -40.5 27s-20.5 11.5 -24.5 11.5h-1z" />
    <glyph glyph-name="Aacute" unicode="&#xc1;" horiz-adv-x="640" 
d="M416 161l23 -66.499l24 -67.5c4.66699 -14 9.66699 -23 15 -27s12.333 -6 21 -6c6 0 14.833 0.5 26.5 1.5s24.167 2 37.5 3s25.833 2 37.5 3s20.5 2.5 26.5 4.5l1 4c-10.667 22.667 -22.667 50.667 -36 84l-50 131l-30.5 79.5l-39.5 102.5l-41.5 107.5l-37.5 95.5
c-6 13.333 -14 19.666 -24 18.999c-6 0 -22.333 -1.16699 -49 -3.5s-51 -5.5 -73 -9.5l6 -18l-48 -116l-69.5 -169l-71 -173.5l-52.5 -128.5l1 -4c12 -4 28.5 -7.16699 49.5 -9.5s38.167 -3.5 51.5 -3.5c17.333 0 27.333 5 30 15c6 14.667 14.833 37.667 26.5 69l31.5 83
h214zM232 254.001l43 118.5l35 101.5l79 -220h-157zM426 821.001c-9.33301 0 -20.999 -3.16504 -34.999 -9.49805s-28.833 -14.166 -44.5 -23.499s-31 -19.333 -46 -30s-27.5 -20.334 -37.5 -29.001c-12.667 -8.66699 -14.667 -19.667 -6 -33
c6 -10.667 12.333 -20.334 19 -29.001l82.5 30.5c34.333 13 68.5 24.5 102.5 34.5c11.333 3.33301 16.666 9.66602 15.999 18.999c-2.66699 10.667 -8 24 -16 40s-19.667 26 -35 30z" />
    <glyph glyph-name="Acircumflex" unicode="&#xc2;" horiz-adv-x="640" 
d="M416 161l23 -66.499l24 -67.5c4.66699 -14 9.66699 -23 15 -27s12.333 -6 21 -6c6 0 14.833 0.5 26.5 1.5s24.167 2 37.5 3s25.833 2 37.5 3s20.5 2.5 26.5 4.5l1 4c-10.667 22.667 -22.667 50.667 -36 84l-50 131l-30.5 79.5l-39.5 102.5l-41.5 107.5l-37.5 95.5
c-6 13.333 -14 19.666 -24 18.999c-6 0 -22.333 -1.16699 -49 -3.5s-51 -5.5 -73 -9.5l6 -18l-48 -116l-69.5 -169l-71 -173.5l-52.5 -128.5l1 -4c12 -4 28.5 -7.16699 49.5 -9.5s38.167 -3.5 51.5 -3.5c17.333 0 27.333 5 30 15c6 14.667 14.833 37.667 26.5 69l31.5 83
h214zM232 254.001l43 118.5l35 101.5l79 -220h-157zM238 664.001c3.33301 0 6.83691 1 10.5039 3s6.5 3.66699 8.5 5c25.333 16 48.666 33.667 69.999 53c27.333 -26 49.666 -44 66.999 -54c8 -4.66699 17 -7 27 -7s20.833 4.66699 32.5 14s19.5 17 23.5 23
c-47.333 38 -87.666 78 -120.999 120c-16.667 0 -31.334 -1.33301 -44.001 -4c-8.66699 -2 -15.667 -6.33301 -21 -13c-16 -19.333 -33.833 -37.833 -53.5 -55.5s-39.834 -33.167 -60.501 -46.5c2 -8 9.16699 -16.333 21.5 -25s25.166 -13 38.499 -13h1z" />
    <glyph glyph-name="Atilde" unicode="&#xc3;" horiz-adv-x="640" 
d="M416 161l23 -66.499l24 -67.5c4.66699 -14 9.66699 -23 15 -27s12.333 -6 21 -6c6 0 14.833 0.5 26.5 1.5s24.167 2 37.5 3s25.833 2 37.5 3s20.5 2.5 26.5 4.5l1 4c-10.667 22.667 -22.667 50.667 -36 84l-50 131l-30.5 79.5l-39.5 102.5l-41.5 107.5l-37.5 95.5
c-6 13.333 -14 19.666 -24 18.999c-6 0 -22.333 -1.16699 -49 -3.5s-51 -5.5 -73 -9.5l6 -18l-48 -116l-69.5 -169l-71 -173.5l-52.5 -128.5l1 -4c12 -4 28.5 -7.16699 49.5 -9.5s38.167 -3.5 51.5 -3.5c17.333 0 27.333 5 30 15c6 14.667 14.833 37.667 26.5 69l31.5 83
h214zM232 254.001l43 118.5l35 101.5l79 -220h-157zM284 813.001c-32 0 -54.835 -12.832 -68.502 -38.499s-21.834 -57.167 -24.501 -94.5c4 -2 12.5 -4 25.5 -6s22.833 -3 29.5 -3c4.66699 0.666992 7.33398 4.33398 8.00098 11.001c4 18 8 30.167 12 36.5
s8.66699 9.83301 14 10.5c4 0 8.16699 -1.83301 12.5 -5.5s9.83301 -9.5 16.5 -17.5c8.66699 -10.667 18 -19.834 28 -27.501s22 -11.5 36 -11.5c22.667 0 41 10 55 30s23.333 53.667 28 101c-6 4 -15.167 7.5 -27.5 10.5s-20.5 4.5 -24.5 4.5
c-5.33301 0.666992 -8.66602 -3 -9.99902 -11c-6.66699 -32.667 -15 -48.334 -25 -47.001c-7.33301 0.666992 -15.666 8 -24.999 22c-17.333 23.333 -37 35.333 -59 36h-1z" />
    <glyph glyph-name="Adieresis" unicode="&#xc4;" horiz-adv-x="640" 
d="M416 161l23 -66.499l24 -67.5c4.66699 -14 9.66699 -23 15 -27s12.333 -6 21 -6c6 0 14.833 0.5 26.5 1.5s24.167 2 37.5 3s25.833 2 37.5 3s20.5 2.5 26.5 4.5l1 4c-10.667 22.667 -22.667 50.667 -36 84l-50 131l-30.5 79.5l-39.5 102.5l-41.5 107.5l-37.5 95.5
c-6 13.333 -14 19.666 -24 18.999c-6 0 -22.333 -1.16699 -49 -3.5s-51 -5.5 -73 -9.5l6 -18l-48 -116l-69.5 -169l-71 -173.5l-52.5 -128.5l1 -4c12 -4 28.5 -7.16699 49.5 -9.5s38.167 -3.5 51.5 -3.5c17.333 0 27.333 5 30 15c6 14.667 14.833 37.667 26.5 69l31.5 83
h214zM232 254.001l43 118.5l35 101.5l79 -220h-157zM223 800.001c-22 0 -38.501 -6.33203 -49.501 -18.999s-16.5 -28.334 -16.5 -47.001c0 -21.333 6.33301 -37 19 -47s26.667 -15 42 -15c18.667 0 33.834 5.83301 45.501 17.5s17.5 28.167 17.5 49.5
c0 16 -5.5 30.167 -16.5 42.5s-24.5 18.5 -40.5 18.5h-1zM429.999 800.002c-20.667 0 -36.498 -6.33203 -47.498 -18.999s-16.5 -28.334 -16.5 -47.001c0 -21.333 6.33301 -37 19 -47s26 -15 40 -15c19.333 0 34.666 5.83301 45.999 17.5s17 28.167 17 49.5
c0 16 -5.33301 30.167 -16 42.5s-24.334 18.5 -41.001 18.5h-1z" />
    <glyph glyph-name="Aring" unicode="&#xc5;" horiz-adv-x="640" 
d="M416 161l23 -66.499l24 -67.5c4.66699 -14 9.66699 -23 15 -27s12.333 -6 21 -6c6 0 14.833 0.5 26.5 1.5s24.167 2 37.5 3s25.833 2 37.5 3s20.5 2.5 26.5 4.5l1 4c-10.667 22.667 -22.667 50.667 -36 84l-50 131l-30.5 79.5l-39.5 102.5l-41.5 107.5l-37.5 95.5
c-6 13.333 -14 19.666 -24 18.999c-6 0 -22.333 -1.16699 -49 -3.5s-51 -5.5 -73 -9.5l6 -18l-48 -116l-69.5 -169l-71 -173.5l-52.5 -128.5l1 -4c12 -4 28.5 -7.16699 49.5 -9.5s38.167 -3.5 51.5 -3.5c17.333 0 27.333 5 30 15c6 14.667 14.833 37.667 26.5 69l31.5 83
h214zM232 254.001l43 118.5l35 101.5l79 -220h-157zM331 865.001c-36 0 -63.502 -10.332 -82.502 -30.999s-28.5 -45 -28.5 -73c0 -32.667 10.333 -57.334 31 -74.001s43.334 -25 68.001 -25c32 0 58.167 9.83301 78.5 29.5s30.5 44.5 30.5 74.5
c0 28 -9.16699 51.5 -27.5 70.5s-41.166 28.5 -68.499 28.5h-1zM322.998 810.002c14 0 24.167 -4.83203 30.5 -14.499s9.5 -20.834 9.5 -33.501c0 -12 -2.83301 -22.667 -8.5 -32s-15.5 -14 -29.5 -14c-10 0 -19.167 3.83301 -27.5 11.5s-12.5 19.167 -12.5 34.5
c0 12 3.16699 23 9.5 33s15.5 15 27.5 15h1z" />
    <glyph glyph-name="AE" unicode="&#xc6;" horiz-adv-x="796" 
d="M410 235l10.9971 -211l14 -20c10.667 -2.66699 32.834 -5 66.501 -7s71.5 -3 113.5 -3c55.333 0 90.333 1.66699 105 5c13.333 8 25.5 18.333 36.5 31s20.167 32 27.5 58l-2 2c-14 -2 -33.667 -3.16699 -59 -3.5s-47.666 -0.5 -66.999 -0.5c-26 0 -46.5 0.5 -61.5 1.5
s-26.5 2.5 -34.5 4.5l-11 141h105c16.667 0 31 4.16699 43 12.5s24.333 34.166 37 77.499h-191l-14 210h96c22.667 0 42.667 0.5 60 1.5s28.333 3.5 33 7.5c6 6 12.333 15.333 19 28s12 31 16 55h-164h-161c-22.667 0 -45 -1.16699 -67 -3.5s-40 -4.16602 -54 -5.49902
c-1.33301 -9.33301 -4.66602 -18.666 -9.99902 -27.999l-62.5 -124l-81.5 -166l-80 -163l-57 -115l1 -10c6.66699 -3.33301 17.167 -7.83301 31.5 -13.5s33.5 -8.5 57.5 -8.5c6 0 11 1.66699 15 5s7 6.66602 9 9.99902l41.5 87l68.5 145h170zM406.997 323h-131
c4 10 10 23.667 18 41l26 54l27 54.5l20 41.5c8 17.333 17.333 26 28 26z" />
    <glyph glyph-name="Ccedilla" unicode="&#xc7;" horiz-adv-x="595" 
d="M280 -82v-28.9961c20 2 36.5 -0.333008 49.5 -7s19.5 -15.334 19.5 -26.001c0 -7.33301 -3.83301 -14.833 -11.5 -22.5s-25.167 -14.834 -52.5 -21.501c-7.33301 -2.66699 -10.333 -7.33398 -9 -14.001c0 -6 2.83301 -13.667 8.5 -23s13.167 -15.666 22.5 -18.999
c34 2 66.333 13.167 97 33.5s46 46.5 46 78.5c0 20 -6.33301 37.333 -19 52s-28.667 25 -48 31l25 36c26 0.666992 50.5 4.16699 73.5 10.5s39.833 13.166 50.5 20.499c8 10 14.833 21.5 20.5 34.5s10.5 31.833 14.5 56.5l-4 3c-12.667 -4 -31.5 -9 -56.5 -15
s-54.5 -9 -88.5 -9c-74.667 0 -132.167 22.333 -172.5 67s-60.5 98 -60.5 160c0 75.333 19.833 131.833 59.5 169.5s88.5 56.5 146.5 56.5c20 0 42 -2.66699 66 -8s39.333 -9.33301 46 -12c17.333 -8 33.833 -5.33301 49.5 8s23.5 33 23.5 59
c-10.667 11.333 -33.167 22.833 -67.5 34.5s-72.5 17.5 -114.5 17.5c-50.667 0 -98 -7.66699 -142 -23s-82.167 -37.333 -114.5 -66s-57.833 -63.667 -76.5 -105s-28 -88 -28 -140c0 -89.333 25.833 -162.333 77.5 -219s126.5 -89.334 224.5 -98.001z" />
    <glyph glyph-name="Egrave" unicode="&#xc8;" horiz-adv-x="482" 
d="M70 24l16.001 -19.998c12 -2.66699 33.167 -5 63.5 -7s68.166 -3 113.499 -3c81.333 0 129 1.66699 143 5c13.333 8 24.833 18.833 34.5 32.5s17.167 33.167 22.5 58.5l-2 2c-26 -2 -55.833 -3.16699 -89.5 -3.5s-59.834 -0.5 -78.501 -0.5
c-17.333 0 -32.166 0.5 -44.499 1.5s-24.166 2.5 -35.499 4.5v181h143c18 0 32.5 6 43.5 18s19.167 37.333 24.5 76h-211v162h88c22 0 42.333 0.166992 61 0.5s32 2.16602 40 5.49902c6 6.66699 12 16 18 28s11 32 15 60h-66h-68h-61h-43
c-24 -0.666992 -47.667 -2.33398 -71 -5.00098s-43 -5.66699 -59 -9c1.33301 -22 2.16602 -42.5 2.49902 -61.5s0.5 -40.5 0.5 -64.5v-461zM165.001 834.002c-12 0 -23.1631 -7.00098 -33.4961 -21.001s-17.833 -28 -22.5 -42c-4.66699 -12.667 -2 -20 8 -22
c31.333 -12 63.666 -26.167 96.999 -42.5s61.666 -29.5 84.999 -39.5c4 5.33301 10 14.333 18 27c5.33301 8.66699 7.16602 16 5.49902 22s-5.16699 11.333 -10.5 16c-10 8.66699 -22.333 18.834 -37 30.501s-29.334 22.667 -44.001 33s-28.167 19.333 -40.5 27
s-20.5 11.5 -24.5 11.5h-1z" />
    <glyph glyph-name="Eacute" unicode="&#xc9;" horiz-adv-x="482" 
d="M70 24l16.001 -19.998c12 -2.66699 33.167 -5 63.5 -7s68.166 -3 113.499 -3c81.333 0 129 1.66699 143 5c13.333 8 24.833 18.833 34.5 32.5s17.167 33.167 22.5 58.5l-2 2c-26 -2 -55.833 -3.16699 -89.5 -3.5s-59.834 -0.5 -78.501 -0.5
c-17.333 0 -32.166 0.5 -44.499 1.5s-24.166 2.5 -35.499 4.5v181h143c18 0 32.5 6 43.5 18s19.167 37.333 24.5 76h-211v162h88c22 0 42.333 0.166992 61 0.5s32 2.16602 40 5.49902c6 6.66699 12 16 18 28s11 32 15 60h-66h-68h-61h-43
c-24 -0.666992 -47.667 -2.33398 -71 -5.00098s-43 -5.66699 -59 -9c1.33301 -22 2.16602 -42.5 2.49902 -61.5s0.5 -40.5 0.5 -64.5v-461zM357.001 821.002c-9.33301 0 -20.998 -3.16504 -34.998 -9.49805s-28.833 -14.166 -44.5 -23.499s-31 -19.333 -46 -30
s-27.5 -20.334 -37.5 -29.001c-12.667 -8.66699 -14.667 -19.667 -6 -33c5.33301 -10.667 11.666 -20.334 18.999 -29.001l82.5 30.5c34.333 13 68.5 24.5 102.5 34.5c11.333 3.33301 16.666 9.66602 15.999 18.999c-2.66699 10.667 -8 24 -16 40s-19.667 26 -35 30z" />
    <glyph glyph-name="Ecircumflex" unicode="&#xca;" horiz-adv-x="482" 
d="M70 24l16.001 -19.998c12 -2.66699 33.167 -5 63.5 -7s68.166 -3 113.499 -3c81.333 0 129 1.66699 143 5c13.333 8 24.833 18.833 34.5 32.5s17.167 33.167 22.5 58.5l-2 2c-26 -2 -55.833 -3.16699 -89.5 -3.5s-59.834 -0.5 -78.501 -0.5
c-17.333 0 -32.166 0.5 -44.499 1.5s-24.166 2.5 -35.499 4.5v181h143c18 0 32.5 6 43.5 18s19.167 37.333 24.5 76h-211v162h88c22 0 42.333 0.166992 61 0.5s32 2.16602 40 5.49902c6 6.66699 12 16 18 28s11 32 15 60h-66h-68h-61h-43
c-24 -0.666992 -47.667 -2.33398 -71 -5.00098s-43 -5.66699 -59 -9c1.33301 -22 2.16602 -42.5 2.49902 -61.5s0.5 -40.5 0.5 -64.5v-461zM167.001 665.002c3.33301 0 6.83691 0.999023 10.5039 2.99902s6.5 3.66699 8.5 5c25.333 15.333 48.666 33 69.999 53
c28 -25.333 50.333 -43.333 67 -54c8 -5.33301 17 -7.66602 27 -6.99902c10 0 20.833 4.66699 32.5 14s19.5 17 23.5 23c-46.667 38 -87 78 -121 120c-16.667 0 -31.334 -1.33301 -44.001 -4c-8.66699 -2 -15.667 -6.33301 -21 -13c-16 -19.333 -33.833 -37.833 -53.5 -55.5
s-39.834 -33.167 -60.501 -46.5c2 -8 9.16699 -16.333 21.5 -25s25.166 -13 38.499 -13h1z" />
    <glyph glyph-name="Edieresis" unicode="&#xcb;" horiz-adv-x="482" 
d="M70 24l16.001 -19.998c12 -2.66699 33.167 -5 63.5 -7s68.166 -3 113.499 -3c81.333 0 129 1.66699 143 5c13.333 8 24.833 18.833 34.5 32.5s17.167 33.167 22.5 58.5l-2 2c-26 -2 -55.833 -3.16699 -89.5 -3.5s-59.834 -0.5 -78.501 -0.5
c-17.333 0 -32.166 0.5 -44.499 1.5s-24.166 2.5 -35.499 4.5v181h143c18 0 32.5 6 43.5 18s19.167 37.333 24.5 76h-211v162h88c22 0 42.333 0.166992 61 0.5s32 2.16602 40 5.49902c6 6.66699 12 16 18 28s11 32 15 60h-66h-68h-61h-43
c-24 -0.666992 -47.667 -2.33398 -71 -5.00098s-43 -5.66699 -59 -9c1.33301 -22 2.16602 -42.5 2.49902 -61.5s0.5 -40.5 0.5 -64.5v-461zM155.001 803.002c-22 0 -38.501 -6.33203 -49.501 -18.999s-16.5 -28.334 -16.5 -47.001c0 -21.333 6.33301 -37 19 -47
s26.667 -15 42 -15c18.667 0 33.834 5.83301 45.501 17.5s17.5 28.167 17.5 49.5c0 16 -5.5 30.167 -16.5 42.5s-24.5 18.5 -40.5 18.5h-1zM362 803.003c-20.667 0 -36.498 -6.33203 -47.498 -18.999s-16.5 -28.334 -16.5 -47.001c0 -21.333 6.33301 -37 19 -47
s26 -15 40 -15c19.333 0 34.666 5.83301 45.999 17.5s17 28.167 17 49.5c0 16 -5.33301 30.167 -16 42.5s-24.334 18.5 -41.001 18.5h-1z" />
    <glyph glyph-name="Igrave" unicode="&#xcc;" horiz-adv-x="283" 
d="M72 14c0 -8.66699 1.83203 -14.167 5.49902 -16.5s9.83398 -3.5 18.501 -3.5c6 0 15 0.333008 27 1l36.5 2c12.333 0.666992 24 1.33398 35 2.00098s18.833 1.66699 23.5 3c-0.666992 10 -1.33398 24.167 -2.00098 42.5s-1 45.166 -1 80.499v448
c0 22.667 -1.33301 37.667 -4 45s-9 11 -19 11c-6 0 -15 -0.5 -27 -1.5s-24.167 -1.83301 -36.5 -2.5s-24.166 -1.5 -35.499 -2.5s-19.333 -1.5 -24 -1.5c2 -18 3 -60.333 3 -127v-480zM61.999 834c-12 0 -23.1631 -7.00098 -33.4961 -21.001s-17.833 -28 -22.5 -42
c-4 -12.667 -1.33301 -20 8 -22c31.333 -12 63.666 -26.167 96.999 -42.5s61.666 -29.5 84.999 -39.5c4 5.33301 10 14.333 18 27c5.33301 8.66699 7.16602 16 5.49902 22s-5.16699 11.333 -10.5 16c-10 8.66699 -22.333 18.834 -37 30.501s-29.334 22.667 -44.001 33
s-28.167 19.333 -40.5 27s-20.5 11.5 -24.5 11.5h-1z" />
    <glyph glyph-name="Iacute" unicode="&#xcd;" horiz-adv-x="283" 
d="M73 14c0 -8.66699 1.83203 -14.167 5.49902 -16.5s9.83398 -3.5 18.501 -3.5c6 0 15 0.333008 27 1l36.5 2c12.333 0.666992 24 1.33398 35 2.00098s18.833 1.66699 23.5 3c-0.666992 10 -1.33398 24.167 -2.00098 42.5s-1 45.166 -1 80.499v448
c0 22.667 -1.33301 37.667 -4 45s-9 11 -19 11c-6 0 -15 -0.5 -27 -1.5s-24.167 -1.83301 -36.5 -2.5s-24.166 -1.5 -35.499 -2.5s-19.333 -1.5 -24 -1.5c2 -18 3 -60.333 3 -127v-480zM239.999 821c-9.33301 0 -20.998 -3.16504 -34.998 -9.49805
s-28.833 -14.166 -44.5 -23.499s-31 -19.333 -46 -30s-27.5 -20.334 -37.5 -29.001c-12.667 -8.66699 -14.667 -19.667 -6 -33c5.33301 -10.667 11.666 -20.334 18.999 -29.001l82.5 30.5c34.333 13 68.5 24.5 102.5 34.5c11.333 3.33301 16.666 9.66602 15.999 18.999
c-2.66699 10.667 -8 24 -16 40s-19.667 26 -35 30z" />
    <glyph glyph-name="Icircumflex" unicode="&#xce;" horiz-adv-x="283" 
d="M70 14c0 -8.66699 1.83203 -14.167 5.49902 -16.5s9.83398 -3.5 18.501 -3.5c6 0 15 0.333008 27 1l36.5 2c12.333 0.666992 24 1.33398 35 2.00098s18.833 1.66699 23.5 3c-0.666992 10 -1.33398 24.167 -2.00098 42.5s-1 45.166 -1 80.499v448
c0 22.667 -1.33301 37.667 -4 45s-9 11 -19 11c-6 0 -15 -0.5 -27 -1.5s-24.167 -1.83301 -36.5 -2.5s-24.166 -1.5 -35.499 -2.5s-19.333 -1.5 -24 -1.5c2 -18 3 -60.333 3 -127v-480zM53.999 661c3.33301 0 6.83594 0.999023 10.5029 2.99902s6.5 3.66699 8.5 5
c25.333 15.333 48.666 33 69.999 53c27.333 -25.333 49.666 -43.333 66.999 -54c8 -5.33301 17 -7.66602 27 -6.99902c10 0 20.833 4.66699 32.5 14s19.5 17 23.5 23c-47.333 38 -87.666 78 -120.999 120c-16.667 0 -31.334 -1.33301 -44.001 -4
c-8.66699 -2 -15.667 -6.33301 -21 -13c-16 -19.333 -33.833 -37.833 -53.5 -55.5s-39.834 -33.167 -60.501 -46.5c2.66699 -8 10 -16.333 22 -25s24.667 -13 38 -13h1z" />
    <glyph glyph-name="Idieresis" unicode="&#xcf;" horiz-adv-x="283" 
d="M70 14c0 -8.66699 1.83203 -14.167 5.49902 -16.5s9.83398 -3.5 18.501 -3.5c6 0 15 0.333008 27 1l36.5 2c12.333 0.666992 24 1.33398 35 2.00098s18.833 1.66699 23.5 3c-0.666992 10 -1.33398 24.167 -2.00098 42.5s-1 45.166 -1 80.499v448
c0 22.667 -1.33301 37.667 -4 45s-9 11 -19 11c-6 0 -15 -0.5 -27 -1.5s-24.167 -1.83301 -36.5 -2.5s-24.166 -1.5 -35.499 -2.5s-19.333 -1.5 -24 -1.5c2 -18 3 -60.333 3 -127v-480zM42.999 803c-22 0 -38.501 -6.33203 -49.501 -18.999s-16.5 -28.334 -16.5 -47.001
c0 -21.333 6.33301 -37 19 -47s26.667 -15 42 -15c18.667 0 33.834 5.83301 45.501 17.5s17.5 28.167 17.5 49.5c0 16 -5.5 30.167 -16.5 42.5s-24.5 18.5 -40.5 18.5h-1zM249.998 803.001c-20.667 0 -36.498 -6.33203 -47.498 -18.999s-16.5 -28.334 -16.5 -47.001
c0 -21.333 6.33301 -37 19 -47s26 -15 40 -15c19.333 0 34.666 5.83301 45.999 17.5s17 28.167 17 49.5c0 16 -5.33301 30.167 -16 42.5s-24.334 18.5 -41.001 18.5h-1z" />
    <glyph glyph-name="Eth" unicode="&#xd0;" horiz-adv-x="688" 
d="M83 611c0 -12.667 0.333008 -26.168 1 -40.501s1 -38.5 1 -72.5v-133h-25c-12 0 -23.167 -3.83301 -33.5 -11.5s-17.166 -31.5 -20.499 -71.5h79v-271c44.667 -7.33301 81 -12.666 109 -15.999s63 -5 105 -5c27.333 0 64.833 4.5 112.5 13.5s92.5 31.167 134.5 66.5
c40.667 35.333 69.167 73.833 85.5 115.5s24.5 85.834 24.5 132.501c0 32 -4.5 66.167 -13.5 102.5s-26.333 70.166 -52 101.499s-61.334 57.333 -107.001 78s-105.5 31 -179.5 31c-28 0 -48.167 -0.666992 -60.5 -2l-36.5 -4zM228 537.999
c8 1.33301 18.5039 2.50195 31.5039 3.50195s24.5 1.5 34.5 1.5c63.333 0 114.166 -19.167 152.499 -57.5s57.5 -93.5 57.5 -165.5c0 -50.667 -7.16699 -91.834 -21.5 -123.501s-31.833 -56.334 -52.5 -74.001s-42.834 -29.5 -66.501 -35.5s-44.834 -9 -63.501 -9
c-26 0 -50 2.33301 -72 7v197h84c17.333 0 32.666 3.83301 45.999 11.5s23 31.5 29 71.5h-159v173z" />
    <glyph glyph-name="Ntilde" unicode="&#xd1;" horiz-adv-x="666" 
d="M70 594v-417.999c0 -82.667 -1 -143.334 -3 -182.001c18 0 35.5 0.333008 52.5 1s30.167 1.66699 39.5 3c8.66699 1.33301 14.834 3.5 18.501 6.5s5.5 9.5 5.5 19.5v263c0 26 -0.166992 53.333 -0.5 82s-1.83301 66 -4.5 112l56 -112.5
c17.333 -33.667 41.333 -75.167 72 -124.5l86.5 -141.5c20.333 -33 41.5 -65.5 63.5 -97.5c4 -6 8 -10.333 12 -13s10 -4 18 -4c16.667 0 38 2.33301 64 7s41.667 8 47 10v440c0 81.333 1 142.666 3 183.999c-12.667 0 -27.334 -0.5 -44.001 -1.5s-33 -2.16699 -49 -3.5
c-8 -0.666992 -13.833 -2.66699 -17.5 -6s-5.5 -10.666 -5.5 -21.999v-279v-68c0 -19.333 2 -45.333 6 -78c-12 26 -26.333 52.833 -43 80.5l-56 95.5l-46 75l-46.5 75l-41 66l-29.5 48c-9.33301 11.333 -19 17.333 -29 18c-5.33301 0 -14.833 -0.5 -28.5 -1.5
s-28.167 -1.83301 -43.5 -2.5s-29.833 -1.5 -43.5 -2.5s-23.167 -1.5 -28.5 -1.5v-5zM302 814.001c-32 0 -54.835 -12.832 -68.502 -38.499s-21.834 -57.167 -24.501 -94.5c4 -2 12.5 -4 25.5 -6s22.833 -3 29.5 -3c4.66699 0.666992 7.33398 4.33398 8.00098 11.001
c4 18 8 30.167 12 36.5s8.66699 9.83301 14 10.5c4 0 8.16699 -1.83301 12.5 -5.5s9.83301 -9.5 16.5 -17.5c8.66699 -10.667 18 -19.834 28 -27.501s22 -11.5 36 -11.5c22.667 0 41 10 55 30s23.333 53.667 28 101c-6 4 -15.167 7.5 -27.5 10.5s-20.5 4.5 -24.5 4.5
c-5.33301 0 -8.66602 -3.66699 -9.99902 -11c-6.66699 -32.667 -15 -48.334 -25 -47.001c-7.33301 0.666992 -15.666 8 -24.999 22c-17.333 22.667 -37 34.667 -59 36h-1z" />
    <glyph glyph-name="Ograve" unicode="&#xd2;" horiz-adv-x="714" 
d="M360 640c-52 0 -98.167 -8.50098 -138.5 -25.501s-74.5 -40.5 -102.5 -70.5s-49.333 -65.167 -64 -105.5s-22 -83.833 -22 -130.5c0 -40 5.83301 -79.333 17.5 -118s30.5 -73.167 56.5 -103.5s59.5 -54.833 100.5 -73.5s90.5 -28 148.5 -28
c52.667 0 99.167 8.83301 139.5 26.5s74.333 41.5 102 71.5s48.667 65.167 63 105.5s21.5 83.5 21.5 129.5c0 43.333 -7.16699 84.333 -21.5 123s-35 72.834 -62 102.501s-60.333 53.167 -100 70.5s-85.5 26 -137.5 26h-1zM349 551.999
c59.333 0 104.501 -23.834 135.501 -71.501s46.5 -105.5 46.5 -173.5c0 -73.333 -14.333 -130.666 -43 -171.999s-69 -62 -121 -62c-50 0 -92.667 21 -128 63s-53 104 -53 186c0 80 16.167 138.333 48.5 175s70.166 55 113.499 55h1zM283.001 844.998
c-12 0 -23.1631 -7.00195 -33.4961 -21.002s-17.833 -28 -22.5 -42c-4.66699 -13.333 -2 -20.666 8 -21.999c31.333 -12 63.666 -26.167 96.999 -42.5s61.666 -29.5 84.999 -39.5c4 5.33301 10 14.333 18 27c5.33301 8.66699 7.16602 16 5.49902 22
s-5.16699 11.333 -10.5 16c-10 8.66699 -22.333 18.834 -37 30.501s-29.334 22.667 -44.001 33s-28.167 19.333 -40.5 27s-20.5 11.5 -24.5 11.5h-1z" />
    <glyph glyph-name="Oacute" unicode="&#xd3;" horiz-adv-x="714" 
d="M360 640c-52 0 -98.167 -8.50098 -138.5 -25.501s-74.5 -40.5 -102.5 -70.5s-49.333 -65.167 -64 -105.5s-22 -83.833 -22 -130.5c0 -40 5.83301 -79.333 17.5 -118s30.5 -73.167 56.5 -103.5s59.5 -54.833 100.5 -73.5s90.5 -28 148.5 -28
c52.667 0 99.167 8.83301 139.5 26.5s74.333 41.5 102 71.5s48.667 65.167 63 105.5s21.5 83.5 21.5 129.5c0 43.333 -7.16699 84.333 -21.5 123s-35 72.834 -62 102.501s-60.333 53.167 -100 70.5s-85.5 26 -137.5 26h-1zM349 551.999
c59.333 0 104.501 -23.834 135.501 -71.501s46.5 -105.5 46.5 -173.5c0 -73.333 -14.333 -130.666 -43 -171.999s-69 -62 -121 -62c-50 0 -92.667 21 -128 63s-53 104 -53 186c0 80 16.167 138.333 48.5 175s70.166 55 113.499 55h1zM455.001 830.998
c-9.33301 0 -20.998 -3.16504 -34.998 -9.49805s-28.833 -14.166 -44.5 -23.499s-31 -19.333 -46 -30s-27.5 -20.334 -37.5 -29.001c-12.667 -8.66699 -14.667 -19.667 -6 -33c5.33301 -10.667 11.666 -20.334 18.999 -29.001l82.5 30.5c34.333 13 68.5 24.5 102.5 34.5
c11.333 3.33301 16.666 9.66602 15.999 18.999c-2.66699 10.667 -8 24 -16 40s-19.667 26 -35 30z" />
    <glyph glyph-name="Ocircumflex" unicode="&#xd4;" horiz-adv-x="714" 
d="M360 640c-52 0 -98.167 -8.50098 -138.5 -25.501s-74.5 -40.5 -102.5 -70.5s-49.333 -65.167 -64 -105.5s-22 -83.833 -22 -130.5c0 -40 5.83301 -79.333 17.5 -118s30.5 -73.167 56.5 -103.5s59.5 -54.833 100.5 -73.5s90.5 -28 148.5 -28
c52.667 0 99.167 8.83301 139.5 26.5s74.333 41.5 102 71.5s48.667 65.167 63 105.5s21.5 83.5 21.5 129.5c0 43.333 -7.16699 84.333 -21.5 123s-35 72.834 -62 102.501s-60.333 53.167 -100 70.5s-85.5 26 -137.5 26h-1zM349 551.999
c59.333 0 104.501 -23.834 135.501 -71.501s46.5 -105.5 46.5 -173.5c0 -73.333 -14.333 -130.666 -43 -171.999s-69 -62 -121 -62c-50 0 -92.667 21 -128 63s-53 104 -53 186c0 80 16.167 138.333 48.5 175s70.166 55 113.499 55h1zM269.001 678.998
c3.33301 0 6.83691 0.999023 10.5039 2.99902s6.5 3.66699 8.5 5c25.333 15.333 48.666 33 69.999 53c28 -25.333 50.333 -43.333 67 -54c8 -5.33301 17 -7.66602 27 -6.99902c10 0 20.833 4.66699 32.5 14s19.5 17 23.5 23c-46.667 38 -87 78 -121 120
c-16.667 0 -31.334 -1.33301 -44.001 -4c-8.66699 -2 -15.667 -6.33301 -21 -13c-16 -19.333 -33.833 -37.833 -53.5 -55.5s-39.834 -33.167 -60.501 -46.5c2 -8 9.16699 -16.333 21.5 -25s25.166 -13 38.499 -13h1z" />
    <glyph glyph-name="Otilde" unicode="&#xd5;" horiz-adv-x="714" 
d="M360 640c-52 0 -98.167 -8.50098 -138.5 -25.501s-74.5 -40.5 -102.5 -70.5s-49.333 -65.167 -64 -105.5s-22 -83.833 -22 -130.5c0 -40 5.83301 -79.333 17.5 -118s30.5 -73.167 56.5 -103.5s59.5 -54.833 100.5 -73.5s90.5 -28 148.5 -28
c52.667 0 99.167 8.83301 139.5 26.5s74.333 41.5 102 71.5s48.667 65.167 63 105.5s21.5 83.5 21.5 129.5c0 43.333 -7.16699 84.333 -21.5 123s-35 72.834 -62 102.501s-60.333 53.167 -100 70.5s-85.5 26 -137.5 26h-1zM349 551.999
c59.333 0 104.501 -23.834 135.501 -71.501s46.5 -105.5 46.5 -173.5c0 -73.333 -14.333 -130.666 -43 -171.999s-69 -62 -121 -62c-50 0 -92.667 21 -128 63s-53 104 -53 186c0 80 16.167 138.333 48.5 175s70.166 55 113.499 55h1zM317.001 823.998
c-32 0 -54.834 -12.832 -68.501 -38.499s-21.834 -57.167 -24.501 -94.5c4 -2 12.5 -4 25.5 -6s22.833 -3 29.5 -3c4.66699 0.666992 7.33398 4.33398 8.00098 11.001c4 18 8 30.167 12 36.5s8.66699 9.83301 14 10.5c4 0 8.16699 -1.83301 12.5 -5.5
s9.83301 -9.5 16.5 -17.5c8.66699 -10.667 18 -19.834 28 -27.501s22 -11.5 36 -11.5c22.667 0 41 10 55 30s23.333 53.667 28 101c-6 4 -15.167 7.5 -27.5 10.5s-20.5 4.5 -24.5 4.5c-5.33301 0 -8.66602 -3.66699 -9.99902 -11c-6.66699 -32.667 -15 -48.334 -25 -47.001
c-7.33301 0.666992 -15.666 8 -24.999 22c-16.667 22.667 -36.334 34.667 -59.001 36h-1z" />
    <glyph glyph-name="Odieresis" unicode="&#xd6;" horiz-adv-x="714" 
d="M360 640c-52 0 -98.167 -8.50098 -138.5 -25.501s-74.5 -40.5 -102.5 -70.5s-49.333 -65.167 -64 -105.5s-22 -83.833 -22 -130.5c0 -40 5.83301 -79.333 17.5 -118s30.5 -73.167 56.5 -103.5s59.5 -54.833 100.5 -73.5s90.5 -28 148.5 -28
c52.667 0 99.167 8.83301 139.5 26.5s74.333 41.5 102 71.5s48.667 65.167 63 105.5s21.5 83.5 21.5 129.5c0 43.333 -7.16699 84.333 -21.5 123s-35 72.834 -62 102.501s-60.333 53.167 -100 70.5s-85.5 26 -137.5 26h-1zM349 551.999
c59.333 0 104.501 -23.834 135.501 -71.501s46.5 -105.5 46.5 -173.5c0 -73.333 -14.333 -130.666 -43 -171.999s-69 -62 -121 -62c-50 0 -92.667 21 -128 63s-53 104 -53 186c0 80 16.167 138.333 48.5 175s70.166 55 113.499 55h1zM258.001 812.998
c-22 0 -38.501 -6.33203 -49.501 -18.999s-16.5 -28.334 -16.5 -47.001c0 -21.333 6.33301 -37 19 -47s26.667 -15 42 -15c18.667 0 33.834 5.83301 45.501 17.5s17.5 28.167 17.5 49.5c0 16 -5.5 30.167 -16.5 42.5s-24.5 18.5 -40.5 18.5h-1zM465 812.999
c-20.667 0 -36.498 -6.33203 -47.498 -18.999s-16.5 -28.334 -16.5 -47.001c0 -21.333 6.33301 -37 19 -47s26 -15 40 -15c19.333 0 34.666 5.83301 45.999 17.5s17 28.167 17 49.5c0 16 -5.33301 30.167 -16 42.5s-24.334 18.5 -41.001 18.5h-1z" />
    <glyph glyph-name="multiply" unicode="&#xd7;" horiz-adv-x="591" 
d="M522 400c0 5.33301 -4.66699 14.835 -14 28.502s-20 24.167 -32 31.5c-13.333 9.33301 -26.666 7.66602 -39.999 -5.00098l-137 -143l-155 159c-12 -4 -23.167 -10.333 -33.5 -19s-18.5 -17.334 -24.5 -26.001c-10.667 -18 -10 -31.667 2 -41l143 -142l-143 -144
c-12.667 -13.333 -14 -27.333 -4 -42c17.333 -26 37.333 -40.667 60 -44l155 161l155 -161c11.333 4 22.166 9.5 32.499 16.5s19.833 17.167 28.5 30.5c5.33301 8 6.5 16 3.5 24s-7.16699 15 -12.5 21l-140 138z" />
    <glyph glyph-name="Oslash" unicode="&#xd8;" horiz-adv-x="729" 
d="M648 616c-1.33301 12 -12.001 27.0029 -32.001 45.0029c-6 4 -11.333 5.5 -16 4.5s-11 -6.5 -19 -16.5l-40 -53c-47.333 28.667 -105.333 43.334 -174 44.001c-50 0 -95.5 -8.16699 -136.5 -24.5s-76.167 -39.333 -105.5 -69s-52 -65 -68 -106s-24 -86.5 -24 -136.5
c0 -38 7.5 -78.333 22.5 -121s40.833 -80.334 77.5 -113.001l-59 -77c2.66699 -12.667 11.334 -26.334 26.001 -41.001c10.667 -15.333 22.667 -15 36 1l57 73c22 -14 48.333 -24.333 79 -31s61 -10 91 -10c56 0 104.833 9 146.5 27s76.5 42.167 104.5 72.5
s48.833 65.666 62.5 105.999s20.5 82.833 20.5 127.5c0 39.333 -7.5 80.166 -22.5 122.499s-39.833 79.5 -74.5 111.5zM210.999 172.003c-12 16 -21 36.833 -27 62.5s-9 50.834 -9 75.501c0 44 5.66699 81.167 17 111.5s26 55.166 44 74.499s37.833 33.5 59.5 42.5
s42.5 13.5 62.5 13.5c52 0 91 -13.667 117 -41zM521.999 452.003c10.667 -17.333 18.833 -39 24.5 -65s8.5 -51 8.5 -75c0 -78.667 -17.333 -138.167 -52 -178.5s-79 -60.5 -133 -60.5c-21.333 0 -41.5 3.83301 -60.5 11.5s-35.167 17.5 -48.5 29.5z" />
    <glyph glyph-name="Ugrave" unicode="&#xd9;" horiz-adv-x="667" 
d="M208 569c0 24 -1.33008 40.0029 -3.99707 48.0029s-9 12 -19 12c-6 0 -15 -0.5 -27 -1.5s-24.167 -1.83301 -36.5 -2.5s-24.166 -1.5 -35.499 -2.5s-19.333 -1.5 -24 -1.5c2 -20.667 3 -63.667 3 -129v-206c0 -104 21.667 -180.167 65 -228.5
s109.666 -72.5 198.999 -72.5c31.333 0 63.166 3.66699 95.499 11s61.5 22.166 87.5 44.499s47.5 54.5 64.5 96.5s25.5 97.667 25.5 167v143c0 82 1 142.667 3 182c-10 0 -25.833 -0.333008 -47.5 -1s-39.834 -1.66699 -54.501 -3c-8 -1.33301 -13.833 -3.5 -17.5 -6.5
s-5.5 -9.5 -5.5 -19.5v-300c0 -44 -3.66699 -79.833 -11 -107.5s-17 -49.334 -29 -65.001s-26.167 -26.167 -42.5 -31.5s-33.833 -8 -52.5 -8c-16.667 0 -33.334 2.33301 -50.001 7s-31.5 14.167 -44.5 28.5s-23.333 35.166 -31 62.499s-11.5 63 -11.5 107v277z
M253.003 826.003c-12 0 -23.1631 -7.00098 -33.4961 -21.001s-17.833 -28 -22.5 -42c-4.66699 -12.667 -2 -20 8 -22c31.333 -12 63.666 -26.167 96.999 -42.5s61.666 -29.5 84.999 -39.5c4 5.33301 10 14.333 18 27c5.33301 8.66699 7.16602 16 5.49902 22
s-5.16699 11.333 -10.5 16c-10 8.66699 -22.333 18.834 -37 30.501s-29.334 22.667 -44.001 33s-28.167 19.333 -40.5 27s-20.5 11.5 -24.5 11.5h-1z" />
    <glyph glyph-name="Uacute" unicode="&#xda;" horiz-adv-x="667" 
d="M208 569c0 24 -1.33008 40.0029 -3.99707 48.0029s-9 12 -19 12c-6 0 -15 -0.5 -27 -1.5s-24.167 -1.83301 -36.5 -2.5s-24.166 -1.5 -35.499 -2.5s-19.333 -1.5 -24 -1.5c2 -20.667 3 -63.667 3 -129v-206c0 -104 21.667 -180.167 65 -228.5
s109.666 -72.5 198.999 -72.5c31.333 0 63.166 3.66699 95.499 11s61.5 22.166 87.5 44.499s47.5 54.5 64.5 96.5s25.5 97.667 25.5 167v143c0 82 1 142.667 3 182c-10 0 -25.833 -0.333008 -47.5 -1s-39.834 -1.66699 -54.501 -3c-8 -1.33301 -13.833 -3.5 -17.5 -6.5
s-5.5 -9.5 -5.5 -19.5v-300c0 -44 -3.66699 -79.833 -11 -107.5s-17 -49.334 -29 -65.001s-26.167 -26.167 -42.5 -31.5s-33.833 -8 -52.5 -8c-16.667 0 -33.334 2.33301 -50.001 7s-31.5 14.167 -44.5 28.5s-23.333 35.166 -31 62.499s-11.5 63 -11.5 107v277z
M425.003 816.003c-9.33301 0 -20.998 -3.16504 -34.998 -9.49805s-28.833 -14.166 -44.5 -23.499s-31 -19.333 -46 -30s-27.5 -20.334 -37.5 -29.001c-12.667 -8 -14.667 -19 -6 -33c5.33301 -10.667 11.666 -20.334 18.999 -29.001l82.5 30.5
c34.333 13 68.5 24.5 102.5 34.5c11.333 3.33301 16.666 9.66602 15.999 18.999c-2.66699 10.667 -8 24 -16 40s-19.667 26 -35 30z" />
    <glyph glyph-name="Ucircumflex" unicode="&#xdb;" horiz-adv-x="667" 
d="M208 569c0 24 -1.33008 40.0029 -3.99707 48.0029s-9 12 -19 12c-6 0 -15 -0.5 -27 -1.5s-24.167 -1.83301 -36.5 -2.5s-24.166 -1.5 -35.499 -2.5s-19.333 -1.5 -24 -1.5c2 -20.667 3 -63.667 3 -129v-206c0 -104 21.667 -180.167 65 -228.5
s109.666 -72.5 198.999 -72.5c31.333 0 63.166 3.66699 95.499 11s61.5 22.166 87.5 44.499s47.5 54.5 64.5 96.5s25.5 97.667 25.5 167v143c0 82 1 142.667 3 182c-10 0 -25.833 -0.333008 -47.5 -1s-39.834 -1.66699 -54.501 -3c-8 -1.33301 -13.833 -3.5 -17.5 -6.5
s-5.5 -9.5 -5.5 -19.5v-300c0 -44 -3.66699 -79.833 -11 -107.5s-17 -49.334 -29 -65.001s-26.167 -26.167 -42.5 -31.5s-33.833 -8 -52.5 -8c-16.667 0 -33.334 2.33301 -50.001 7s-31.5 14.167 -44.5 28.5s-23.333 35.166 -31 62.499s-11.5 63 -11.5 107v277z
M246.003 672.003c3.33301 0 6.83691 1 10.5039 3s6.5 3.66699 8.5 5c25.333 16 48.666 33.667 69.999 53c27.333 -26 49.666 -44 66.999 -54c8 -4.66699 17 -7 27 -7s20.833 4.66699 32.5 14s19.5 17 23.5 23c-47.333 38 -87.666 78 -120.999 120
c-16.667 0 -31.334 -1.33301 -44.001 -4c-8.66699 -2 -15.667 -6.33301 -21 -13c-16 -19.333 -33.833 -37.833 -53.5 -55.5s-39.834 -33.167 -60.501 -46.5c2 -8 9.16699 -16.333 21.5 -25s25.166 -13 38.499 -13h1z" />
    <glyph glyph-name="Udieresis" unicode="&#xdc;" horiz-adv-x="667" 
d="M208 569c0 24 -1.33008 40.0029 -3.99707 48.0029s-9 12 -19 12c-6 0 -15 -0.5 -27 -1.5s-24.167 -1.83301 -36.5 -2.5s-24.166 -1.5 -35.499 -2.5s-19.333 -1.5 -24 -1.5c2 -20.667 3 -63.667 3 -129v-206c0 -104 21.667 -180.167 65 -228.5
s109.666 -72.5 198.999 -72.5c31.333 0 63.166 3.66699 95.499 11s61.5 22.166 87.5 44.499s47.5 54.5 64.5 96.5s25.5 97.667 25.5 167v143c0 82 1 142.667 3 182c-10 0 -25.833 -0.333008 -47.5 -1s-39.834 -1.66699 -54.501 -3c-8 -1.33301 -13.833 -3.5 -17.5 -6.5
s-5.5 -9.5 -5.5 -19.5v-300c0 -44 -3.66699 -79.833 -11 -107.5s-17 -49.334 -29 -65.001s-26.167 -26.167 -42.5 -31.5s-33.833 -8 -52.5 -8c-16.667 0 -33.334 2.33301 -50.001 7s-31.5 14.167 -44.5 28.5s-23.333 35.166 -31 62.499s-11.5 63 -11.5 107v277z
M239.003 808.003c-22 0 -38.501 -6.33203 -49.501 -18.999s-16.5 -28.334 -16.5 -47.001c0 -21.333 6.33301 -37 19 -47s26.667 -15 42 -15c18.667 0 33.834 5.83301 45.501 17.5s17.5 28.167 17.5 49.5c0 16 -5.5 30.167 -16.5 42.5s-24.5 18.5 -40.5 18.5h-1z
M446.002 808.004c-20.667 0 -36.498 -6.33203 -47.498 -18.999s-16.5 -28.334 -16.5 -47.001c0 -21.333 6.33301 -37 19 -47s26 -15 40 -15c19.333 0 34.666 5.83301 45.999 17.5s17 28.167 17 49.5c0 16 -5.33301 30.167 -16 42.5s-24.334 18.5 -41.001 18.5h-1z" />
    <glyph glyph-name="Yacute" unicode="&#xdd;" horiz-adv-x="573" 
d="M222 12c0 -8 1.16895 -13.0029 3.50195 -15.0029s7.83301 -3 16.5 -3c32.667 0 58.334 0.833008 77.001 2.5s35 3.5 49 5.5c-0.666992 10.667 -1.33398 24.834 -2.00098 42.501s-1 43.5 -1 77.5v133c-0.666992 14 3 28.333 11 43c2 4 11.333 18.667 28 44l55 84.5
l58.5 89.5c19 28.667 31.5 48.334 37.5 59.001c14 22 13.667 36.333 -1 43c-8 2.66699 -21 5.16699 -39 7.5s-37.667 3.5 -59 3.5c-4.66699 -9.33301 -12.834 -24.5 -24.501 -45.5l-38.5 -69l-43.5 -75.5l-39.5 -65l-61 108l-55 99c-14 22.667 -24 36.334 -30 41.001
s-13.667 7 -23 7c-14.667 0 -34.334 -2 -59.001 -6s-46.667 -8.66699 -66 -14v-3l100.5 -155.5c37 -57.667 69.5 -111.167 97.5 -160.5c6 -12 8.66699 -27.667 8 -47v-231zM408.002 803.997c-9.33301 0 -20.999 -3.16504 -34.999 -9.49805s-28.833 -14.166 -44.5 -23.499
s-31 -19.333 -46 -30s-27.5 -20.334 -37.5 -29.001c-12.667 -8 -14.667 -19 -6 -33c6 -10.667 12.333 -20.334 19 -29.001l82.5 30.5c34.333 13 68.5 24.5 102.5 34.5c11.333 3.33301 16.666 9.66602 15.999 18.999c-2.66699 10.667 -8 24 -16 40s-19.667 26 -35 30z" />
    <glyph glyph-name="Thorn" unicode="&#xde;" horiz-adv-x="521" 
d="M70 12c0 -8 1.16699 -12.998 3.5 -14.998s7.83301 -3 16.5 -3c16.667 0 38.334 0.833008 65.001 2.5s47 3.5 61 5.5c-0.666992 10 -1.33398 24.167 -2.00098 42.5s-1 45.166 -1 80.499v289c12.667 1.33301 21.667 1.66602 27 0.999023c28 0 52.333 -8 73 -24
s31 -45 31 -87c0 -36 -10 -62 -30 -78s-40.667 -24 -62 -24c-8 0 -16.333 0.666992 -25 2c-1.33301 -18.667 1.5 -34.834 8.5 -48.501s15.833 -22.5 26.5 -26.5c6 -2.66699 12.5 -4.66699 19.5 -6s16.167 -2 27.5 -2c12 0 28 2.66699 48 8s40 15 60 29s37.333 33.5 52 58.5
s22 57.5 22 97.5c0 20.667 -3.33301 42.834 -10 66.501s-20 45.834 -40 66.501c-20 20 -44.833 34.5 -74.5 43.5s-62.834 13.5 -99.501 13.5c-21.333 -0.666992 -39.333 -2 -54 -4v73c0 22.667 -1.33301 37.667 -4 45s-9 11 -19 11c-6 0 -15 -0.5 -27 -1.5
s-24.167 -1.83301 -36.5 -2.5s-24.166 -1.5 -35.499 -2.5s-19.333 -1.5 -24 -1.5c2 -18.667 3 -61.334 3 -128.001v-481z" />
    <glyph glyph-name="germandbls" unicode="&#xdf;" horiz-adv-x="572" 
d="M311 684c-27.333 0 -53.001 -3.83496 -77.001 -11.502s-45 -17.834 -63 -30.501c-32.667 -24 -57.667 -54.5 -75 -91.5s-26 -75.167 -26 -114.5c-12.667 -9.33301 -23 -17.5 -31 -24.5s-17.667 -17.5 -29 -31.5c0.666992 -22.667 20.667 -35 60 -37
c0 -56 0.166992 -112.833 0.5 -170.5s-0.5 -112.834 -2.5 -165.501c0 -9.33301 5 -13.666 15 -12.999c3.33301 0 10 0.333008 20 1s21.5 1.33398 34.5 2.00098l40.5 2c14 0.666992 26 1.66699 36 3c-4 126.667 -5.66699 259.334 -5 398.001
c0 76.667 8.83301 129.167 26.5 157.5s39.834 42.5 66.501 42.5c22.667 0 40.5 -9.33301 53.5 -28s19.5 -41.334 19.5 -68.001c0 -14.667 -2 -27.334 -6 -38.001c-66.667 -41.333 -100 -88.666 -100 -141.999c0.666992 -40 16.334 -71.333 47.001 -94l63 -48
c22 -16 33.333 -34 34 -54c0 -19.333 -7 -32.5 -21 -39.5s-27 -10.5 -39 -10.5c-24.667 1.33301 -46 5.33301 -64 12c-6 -4 -11 -7.66699 -15 -11s-7.33301 -9 -10 -17c-8 -17.333 -7 -35.666 3 -54.999c8 -4 19.333 -8.16699 34 -12.5s32.667 -6.5 54 -6.5
c22 0 44.333 3.33301 67 10s43.167 17 61.5 31s33.5 32 45.5 54s18 48 18 78c0 20 -4.83301 40 -14.5 60s-24.167 37.333 -43.5 52c-8.66699 6 -18.167 13.167 -28.5 21.5l-30.5 23.5c-8 5.33301 -14.667 12 -20 20s-8 17 -8 27c0 16.667 5.33301 32.5 16 47.5
s36 32.5 76 52.5c4 8.66699 6.33301 23.334 7 44.001c0 50 -16.333 91.667 -49 125s-79.334 50 -140.001 50h-1z" />
    <glyph glyph-name="agrave" unicode="&#xe0;" horiz-adv-x="465" 
d="M447 88c-4.66699 -1.33301 -9.99707 -1.66406 -15.9971 -0.99707c-12 0 -21 2.5 -27 7.5s-9 10.167 -9 15.5c0 33.333 0.666992 65.5 2 96.5s2 56.833 2 77.5c0 58 -17.667 100.833 -53 128.5s-74 41.5 -116 41.5c-34 0 -68 -6.83301 -102 -20.5s-62.667 -28.5 -86 -44.5
c-0.666992 -16.667 3.16602 -32.834 11.499 -48.501s24.833 -20.167 49.5 -13.5l38.5 15.5c15.667 6.33301 32.167 9.5 49.5 9.5c23.333 0 41.666 -6.5 54.999 -19.5s20 -29.167 20 -48.5v-12c-6 -1.33301 -13.833 -2.83301 -23.5 -4.5s-18.834 -3.16699 -27.501 -4.5
c-20 -4.66699 -41.333 -10.167 -64 -16.5s-43.334 -14.833 -62.001 -25.5s-34 -24.334 -46 -41.001s-18 -37.334 -18 -62.001c0 -40 13.333 -71.667 40 -95s56.334 -35 89.001 -35c22 0 43.167 5.33301 63.5 16s36.833 23 49.5 37c16.667 -35.333 45.667 -53 87 -53
c32 0 55.667 8.5 71 25.5s23 40.5 23 70.5zM156.003 138.002c0 10.667 6.83203 23 20.499 37s42.834 23.333 87.501 28v-68c0 -17.333 -3 -29 -9 -35c-6.66699 -6 -13 -10 -19 -12s-14 -3 -24 -3c-16 0 -29.333 4.5 -40 13.5s-16 21.833 -16 38.5v1zM196.002 689.002
c-16 0 -32.001 -3.33203 -48.001 -9.99902s-28 -13.667 -36 -21c-8.66699 -9.33301 -10 -16.333 -4 -21c22 -22 43.5 -46.167 64.5 -72.5s37.833 -48.5 50.5 -66.5c15.333 2 28.666 7 39.999 15c10 5.33301 12.667 13.666 8 24.999
c-3.33301 12.667 -8.16602 27.5 -14.499 44.5s-13.166 33.333 -20.499 49s-14.5 29 -21.5 40s-13.167 16.833 -18.5 17.5z" />
    <glyph glyph-name="aacute" unicode="&#xe1;" horiz-adv-x="465" 
d="M447 88c-4.66699 -1.33301 -9.99707 -1.66406 -15.9971 -0.99707c-12 0 -21 2.5 -27 7.5s-9 10.167 -9 15.5c0 33.333 0.666992 65.5 2 96.5s2 56.833 2 77.5c0 58 -17.667 100.833 -53 128.5s-74 41.5 -116 41.5c-34 0 -68 -6.83301 -102 -20.5s-62.667 -28.5 -86 -44.5
c-0.666992 -16.667 3.16602 -32.834 11.499 -48.501s24.833 -20.167 49.5 -13.5l38.5 15.5c15.667 6.33301 32.167 9.5 49.5 9.5c23.333 0 41.666 -6.5 54.999 -19.5s20 -29.167 20 -48.5v-12c-6 -1.33301 -13.833 -2.83301 -23.5 -4.5s-18.834 -3.16699 -27.501 -4.5
c-20 -4.66699 -41.333 -10.167 -64 -16.5s-43.334 -14.833 -62.001 -25.5s-34 -24.334 -46 -41.001s-18 -37.334 -18 -62.001c0 -40 13.333 -71.667 40 -95s56.334 -35 89.001 -35c22 0 43.167 5.33301 63.5 16s36.833 23 49.5 37c16.667 -35.333 45.667 -53 87 -53
c32 0 55.667 8.5 71 25.5s23 40.5 23 70.5zM156.003 138.002c0 10.667 6.83203 23 20.499 37s42.834 23.333 87.501 28v-68c0 -17.333 -3 -29 -9 -35c-6.66699 -6 -13 -10 -19 -12s-14 -3 -24 -3c-16 0 -29.333 4.5 -40 13.5s-16 21.833 -16 38.5v1zM258.002 688.002
c-8 -0.666992 -16.167 -6.83496 -24.5 -18.502s-16.5 -25.5 -24.5 -41.5s-15 -32.167 -21 -48.5s-10.333 -29.166 -13 -38.499c-5.33301 -15.333 -4.33301 -24.666 3 -27.999c4.66699 -3.33301 10 -6.5 16 -9.5s14 -5.16699 24 -6.5l51 63c21.333 26.667 43 52 65 76
c10 9.33301 10.667 16.333 2 21c-8 6.66699 -19 13.5 -33 20.5s-29 10.5 -45 10.5z" />
    <glyph glyph-name="acircumflex" unicode="&#xe2;" horiz-adv-x="465" 
d="M447 88c-4.66699 -1.33301 -9.99707 -1.66406 -15.9971 -0.99707c-12 0 -21 2.5 -27 7.5s-9 10.167 -9 15.5c0 33.333 0.666992 65.5 2 96.5s2 56.833 2 77.5c0 58 -17.667 100.833 -53 128.5s-74 41.5 -116 41.5c-34 0 -68 -6.83301 -102 -20.5s-62.667 -28.5 -86 -44.5
c-0.666992 -16.667 3.16602 -32.834 11.499 -48.501s24.833 -20.167 49.5 -13.5l38.5 15.5c15.667 6.33301 32.167 9.5 49.5 9.5c23.333 0 41.666 -6.5 54.999 -19.5s20 -29.167 20 -48.5v-12c-6 -1.33301 -13.833 -2.83301 -23.5 -4.5s-18.834 -3.16699 -27.501 -4.5
c-20 -4.66699 -41.333 -10.167 -64 -16.5s-43.334 -14.833 -62.001 -25.5s-34 -24.334 -46 -41.001s-18 -37.334 -18 -62.001c0 -40 13.333 -71.667 40 -95s56.334 -35 89.001 -35c22 0 43.167 5.33301 63.5 16s36.833 23 49.5 37c16.667 -35.333 45.667 -53 87 -53
c32 0 55.667 8.5 71 25.5s23 40.5 23 70.5zM156.003 138.002c0 10.667 6.83203 23 20.499 37s42.834 23.333 87.501 28v-68c0 -17.333 -3 -29 -9 -35c-6.66699 -6 -13 -10 -19 -12s-14 -3 -24 -3c-16 0 -29.333 4.5 -40 13.5s-16 21.833 -16 38.5v1zM155.002 510.002
c6 0.666992 13.334 6.33008 22.001 16.9971c16.667 18.667 32 40.334 46 65.001c17.333 -25.333 34.666 -49.333 51.999 -72c4.66699 -7.33301 11.667 -10.666 21 -9.99902c8 0 18.667 2.33301 32 7s24 9 32 13l-53.5 77c-17 25.333 -33.833 52 -50.5 80
c-14 0 -29.667 -1.33301 -47 -4c-10.667 -3.33301 -18 -8.66602 -22 -15.999c-14 -26 -28.833 -50 -44.5 -72l-51.5 -71c12 -4 24 -7.33301 36 -10s21 -4 27 -4h1z" />
    <glyph glyph-name="atilde" unicode="&#xe3;" horiz-adv-x="465" 
d="M447 88c-4.66699 -1.33301 -9.99707 -1.66406 -15.9971 -0.99707c-12 0 -21 2.5 -27 7.5s-9 10.167 -9 15.5c0 33.333 0.666992 65.5 2 96.5s2 56.833 2 77.5c0 58 -17.667 100.833 -53 128.5s-74 41.5 -116 41.5c-34 0 -68 -6.83301 -102 -20.5s-62.667 -28.5 -86 -44.5
c-0.666992 -16.667 3.16602 -32.834 11.499 -48.501s24.833 -20.167 49.5 -13.5l38.5 15.5c15.667 6.33301 32.167 9.5 49.5 9.5c23.333 0 41.666 -6.5 54.999 -19.5s20 -29.167 20 -48.5v-12c-6 -1.33301 -13.833 -2.83301 -23.5 -4.5s-18.834 -3.16699 -27.501 -4.5
c-20 -4.66699 -41.333 -10.167 -64 -16.5s-43.334 -14.833 -62.001 -25.5s-34 -24.334 -46 -41.001s-18 -37.334 -18 -62.001c0 -40 13.333 -71.667 40 -95s56.334 -35 89.001 -35c22 0 43.167 5.33301 63.5 16s36.833 23 49.5 37c16.667 -35.333 45.667 -53 87 -53
c32 0 55.667 8.5 71 25.5s23 40.5 23 70.5zM156.003 138.002c0 10.667 6.83203 23 20.499 37s42.834 23.333 87.501 28v-68c0 -17.333 -3 -29 -9 -35c-6.66699 -6 -13 -10 -19 -12s-14 -3 -24 -3c-16 0 -29.333 4.5 -40 13.5s-16 21.833 -16 38.5v1zM187.002 675.002
c-32.667 0 -56 -12.832 -70 -38.499s-22 -57.834 -24 -96.501c4 -2 12.667 -4 26 -6s23.333 -3 30 -3c5.33301 0.666992 8.33301 4.33398 9 11.001c4 18 8 30.167 12 36.5s8.33301 9.83301 13 10.5c4 0 8 -2 12 -6l17 -17c8.66699 -10.667 18.167 -19.834 28.5 -27.501
s22.5 -11.5 36.5 -11.5c22.667 0 41.167 10.167 55.5 30.5s23.833 54.833 28.5 103.5c-6 4 -15.5 7.33301 -28.5 10s-21.5 4 -25.5 4c-5.33301 0 -8.66602 -3.33301 -9.99902 -10c-3.33301 -18 -7.16602 -30.333 -11.499 -37s-8.5 -10 -12.5 -10
c-4.66699 0 -8.83398 2 -12.501 6s-7.83398 9 -12.501 15c-16.667 22.667 -36.667 34.667 -60 36h-1z" />
    <glyph glyph-name="adieresis" unicode="&#xe4;" horiz-adv-x="465" 
d="M447 88c-4.66699 -1.33301 -9.99707 -1.66406 -15.9971 -0.99707c-12 0 -21 2.5 -27 7.5s-9 10.167 -9 15.5c0 33.333 0.666992 65.5 2 96.5s2 56.833 2 77.5c0 58 -17.667 100.833 -53 128.5s-74 41.5 -116 41.5c-34 0 -68 -6.83301 -102 -20.5s-62.667 -28.5 -86 -44.5
c-0.666992 -16.667 3.16602 -32.834 11.499 -48.501s24.833 -20.167 49.5 -13.5l38.5 15.5c15.667 6.33301 32.167 9.5 49.5 9.5c23.333 0 41.666 -6.5 54.999 -19.5s20 -29.167 20 -48.5v-12c-6 -1.33301 -13.833 -2.83301 -23.5 -4.5s-18.834 -3.16699 -27.501 -4.5
c-20 -4.66699 -41.333 -10.167 -64 -16.5s-43.334 -14.833 -62.001 -25.5s-34 -24.334 -46 -41.001s-18 -37.334 -18 -62.001c0 -40 13.333 -71.667 40 -95s56.334 -35 89.001 -35c22 0 43.167 5.33301 63.5 16s36.833 23 49.5 37c16.667 -35.333 45.667 -53 87 -53
c32 0 55.667 8.5 71 25.5s23 40.5 23 70.5zM156.003 138.002c0 10.667 6.83203 23 20.499 37s42.834 23.333 87.501 28v-68c0 -17.333 -3 -29 -9 -35c-6.66699 -6 -13 -10 -19 -12s-14 -3 -24 -3c-16 0 -29.333 4.5 -40 13.5s-16 21.833 -16 38.5v1zM127.002 662.002
c-22 0 -38.5 -6.66797 -49.5 -20.001s-16.5 -29.333 -16.5 -48c0 -21.333 6.5 -37.166 19.5 -47.499s26.833 -15.5 41.5 -15.5c19.333 0 35 6 47 18s18 28.667 18 50c0 16 -5.66699 30.5 -17 43.5s-25.333 19.5 -42 19.5h-1zM325.002 662.001
c-22 0 -38.5 -6.66895 -49.5 -20.002s-16.5 -29.333 -16.5 -48c0 -21.333 6.66699 -37.166 20 -47.499s27 -15.5 41 -15.5c19.333 0 35 6 47 18s18 28.667 18 50c0 16.667 -5.66699 31.334 -17 44.001s-25.333 19 -42 19h-1z" />
    <glyph glyph-name="aring" unicode="&#xe5;" horiz-adv-x="465" 
d="M447 88c-4.66699 -1.33301 -9.99707 -1.66406 -15.9971 -0.99707c-12 0 -21 2.5 -27 7.5s-9 10.167 -9 15.5c0 33.333 0.666992 65.5 2 96.5s2 56.833 2 77.5c0 58 -17.667 100.833 -53 128.5s-74 41.5 -116 41.5c-34 0 -68 -6.83301 -102 -20.5s-62.667 -28.5 -86 -44.5
c-0.666992 -16.667 3.16602 -32.834 11.499 -48.501s24.833 -20.167 49.5 -13.5l38.5 15.5c15.667 6.33301 32.167 9.5 49.5 9.5c23.333 0 41.666 -6.5 54.999 -19.5s20 -29.167 20 -48.5v-12c-6 -1.33301 -13.833 -2.83301 -23.5 -4.5s-18.834 -3.16699 -27.501 -4.5
c-20 -4.66699 -41.333 -10.167 -64 -16.5s-43.334 -14.833 -62.001 -25.5s-34 -24.334 -46 -41.001s-18 -37.334 -18 -62.001c0 -40 13.333 -71.667 40 -95s56.334 -35 89.001 -35c22 0 43.167 5.33301 63.5 16s36.833 23 49.5 37c16.667 -35.333 45.667 -53 87 -53
c32 0 55.667 8.5 71 25.5s23 40.5 23 70.5zM156.003 138.002c0 10.667 6.83203 23 20.499 37s42.834 23.333 87.501 28v-68c0 -17.333 -3 -29 -9 -35c-6.66699 -6 -13 -10 -19 -12s-14 -3 -24 -3c-16 0 -29.333 4.5 -40 13.5s-16 21.833 -16 38.5v1zM233.002 700.002
c-34 0 -60.333 -10.5 -79 -31.5s-28 -44.833 -28 -71.5c0 -34.667 10.667 -60.5 32 -77.5s46 -25.5 74 -25.5c30 0 55 10 75 30s30 44 30 72c0 30.667 -9.66699 55.667 -29 75s-44 29 -74 29h-1zM231.002 644.002c14 0 24.166 -5.00098 30.499 -15.001s9.5 -21 9.5 -33
c0 -12.667 -3.16699 -23.667 -9.5 -33s-15.5 -14 -27.5 -14c-11.333 0 -21.166 4 -29.499 12s-12.5 20.667 -12.5 38c0 10.667 3.33301 20.834 10 30.501s16 14.5 28 14.5h1z" />
    <glyph glyph-name="ae" unicode="&#xe6;" horiz-adv-x="679" 
d="M635 111c-7.33301 -3.33301 -21.8301 -7.83105 -43.4971 -13.498s-43.5 -8.5 -65.5 -8.5c-36 0 -66.333 8.5 -91 25.5s-38.334 43.833 -41.001 80.5c10.667 0 25 0.166992 43 0.5s36 0.833008 54 1.5s34.5 1.66699 49.5 3s25.5 3 31.5 5c22 5.33301 40 11.5 54 18.5
s22.333 13.833 25 20.5l3 15.5c1.33301 7 2 13.5 2 19.5c0 18.667 -3 38.167 -9 58.5s-15.667 39.166 -29 56.499s-30.833 31.666 -52.5 42.999s-48.5 17 -80.5 17c-28.667 0 -54.334 -5.33301 -77.001 -16s-42 -23.667 -58 -39c-25.333 36.667 -66.333 55 -123 55
c-32.667 0 -65.667 -6.16699 -99 -18.5s-62.333 -26.833 -87 -43.5c-2 -26 3.16699 -45.167 15.5 -57.5s29.5 -14.166 51.5 -5.49902l39 15c14 5.33301 31.667 8 53 8c23.333 0 41.166 -6.16699 53.499 -18.5s18.5 -26.166 18.5 -41.499v-19c-4 0 -11 -0.833008 -21 -2.5
l-33 -5.5c-20 -4.66699 -41.5 -10.5 -64.5 -17.5s-44 -16.333 -63 -28s-34.667 -26 -47 -43s-18.5 -37.833 -18.5 -62.5c0 -40 13.333 -71 40 -93s57 -33 91 -33c28 0 55 6 81 18s52 31.333 78 58c18 -28.667 42.333 -48.334 73 -59.001s64 -16.334 100 -17.001
c14 0 30 1.66699 48 5s30 6 36 8s18.333 13.167 37 33.5s28 44.833 28 73.5zM464.003 375.002c20.667 0 36.332 -8.49902 46.999 -25.499s16 -36.167 16 -57.5c0.666992 -12 -1.66602 -18.333 -6.99902 -19c-12 -2 -32.167 -3.5 -60.5 -4.5s-49.833 -0.5 -64.5 1.5
c0 37.333 7 64.166 21 80.499s29.667 24.5 47 24.5h1zM211.001 85.0029c-15.333 0 -28.334 4.33301 -39.001 13s-16 21 -16 37c0 10.667 7 23.5 21 38.5s45 24.5 93 28.5c0 -10 1.33301 -23.333 4 -40s6.33398 -29 11.001 -37c-15.333 -18 -29.333 -29.167 -42 -33.5
s-23 -6.5 -31 -6.5h-1z" />
    <glyph glyph-name="ccedilla" unicode="&#xe7;" horiz-adv-x="429" 
d="M169 -83l0.000976562 -28.9971c20 2.66699 36.5 0.666992 49.5 -6s19.5 -15.667 19.5 -27c0 -7.33301 -3.83301 -14.833 -11.5 -22.5s-25.167 -14.5 -52.5 -20.5c-4 -1.33301 -6.5 -3.5 -7.5 -6.5s-1.5 -5.5 -1.5 -7.5c0 -6 2.83301 -13.833 8.5 -23.5
s13.5 -15.834 23.5 -18.501c34 2 66.167 13 96.5 33s45.5 46 45.5 78c0 20 -6.33301 37.5 -19 52.5s-28.667 25.5 -48 31.5l29 40c11.333 2 23.833 4.66699 37.5 8s25.5 8 35.5 14c11.333 8.66699 20.833 21.834 28.5 39.501s11.5 34.5 11.5 50.5l-3 4
c-12 -4.66699 -27.5 -8.83398 -46.5 -12.501s-38.5 -5.5 -58.5 -5.5c-36 0 -67.667 11 -95 33s-41 57.667 -41 107c0 40.667 11 72.5 33 95.5s51.333 34.5 88 34.5c19.333 0.666992 40.666 -3.66602 63.999 -12.999c6.66699 -2.66699 12.834 -3.83398 18.501 -3.50098
s12.167 3.5 19.5 9.5c6.66699 6 12.167 15 16.5 27s6.5 23.333 6.5 34c-4 4.66699 -16.833 12.667 -38.5 24s-53.5 17 -95.5 17c-40 0 -75.833 -6.83301 -107.5 -20.5s-58.334 -31.834 -80.001 -54.501s-38 -48.834 -49 -78.501s-16.5 -60.834 -16.5 -93.501
c0 -61.333 17.5 -111.166 52.5 -149.499s82.833 -60.5 143.5 -66.5z" />
    <glyph glyph-name="egrave" unicode="&#xe8;" horiz-adv-x="450" 
d="M406 111c-8.66699 -4 -23.501 -8.66602 -44.501 -13.999s-43.5 -8 -67.5 -8c-30 0 -58.167 7.66699 -84.5 23s-41.166 43.666 -44.499 84.999c10.667 -0.666992 24.667 -1.16699 42 -1.5s35 -0.333008 53 0s34.5 1.16602 49.5 2.49902s25.5 3 31.5 5
c22 6 40.667 12.5 56 19.5s24 14.167 26 21.5c2 6.66699 3.33301 17.667 4 33c0 20 -3.5 40.5 -10.5 61.5s-17.667 40 -32 57s-33 31 -56 42s-50.833 16.5 -83.5 16.5c-34.667 0 -65.5 -7 -92.5 -21s-49.667 -32 -68 -54s-32.333 -47.167 -42 -75.5
s-14.5 -57.166 -14.5 -86.499c0 -76 19.833 -133.167 59.5 -171.5s96.834 -57.5 171.501 -57.5c16 0 33.167 2 51.5 6s31.166 7.33301 38.499 10c8.66699 4 20.667 16.167 36 36.5s23 42.833 23 67.5zM235.999 375.001c22 0 37.834 -8 47.501 -24s14.5 -35 14.5 -57
c0 -6 -1 -11 -3 -15s-4.33301 -6 -7 -6c-13.333 -1.33301 -33.833 -2.16602 -61.5 -2.49902s-47.834 0.5 -60.501 2.5c0 35.333 7.5 61.166 22.5 77.499s30.5 24.5 46.5 24.5h1zM200 689.001c-16 0 -32.001 -3.33203 -48.001 -9.99902s-28 -13.667 -36 -21
c-8.66699 -9.33301 -10 -16.333 -4 -21c22 -22 43.5 -46.167 64.5 -72.5s37.833 -48.5 50.5 -66.5c15.333 2 28.666 7 39.999 15c10 5.33301 12.667 13.666 8 24.999c-3.33301 12.667 -8.16602 27.5 -14.499 44.5s-13.166 33.333 -20.499 49s-14.5 29 -21.5 40
s-13.167 16.833 -18.5 17.5z" />
    <glyph glyph-name="eacute" unicode="&#xe9;" horiz-adv-x="450" 
d="M406 111c-8.66699 -4 -23.501 -8.66602 -44.501 -13.999s-43.5 -8 -67.5 -8c-30 0 -58.167 7.66699 -84.5 23s-41.166 43.666 -44.499 84.999c10.667 -0.666992 24.667 -1.16699 42 -1.5s35 -0.333008 53 0s34.5 1.16602 49.5 2.49902s25.5 3 31.5 5
c22 6 40.667 12.5 56 19.5s24 14.167 26 21.5c2 6.66699 3.33301 17.667 4 33c0 20 -3.5 40.5 -10.5 61.5s-17.667 40 -32 57s-33 31 -56 42s-50.833 16.5 -83.5 16.5c-34.667 0 -65.5 -7 -92.5 -21s-49.667 -32 -68 -54s-32.333 -47.167 -42 -75.5
s-14.5 -57.166 -14.5 -86.499c0 -76 19.833 -133.167 59.5 -171.5s96.834 -57.5 171.501 -57.5c16 0 33.167 2 51.5 6s31.166 7.33301 38.499 10c8.66699 4 20.667 16.167 36 36.5s23 42.833 23 67.5zM235.999 375.001c22 0 37.834 -8 47.501 -24s14.5 -35 14.5 -57
c0 -6 -1 -11 -3 -15s-4.33301 -6 -7 -6c-13.333 -1.33301 -33.833 -2.16602 -61.5 -2.49902s-47.834 0.5 -60.501 2.5c0 35.333 7.5 61.166 22.5 77.499s30.5 24.5 46.5 24.5h1zM271 688.001c-8 -0.666992 -16.167 -6.83496 -24.5 -18.502s-16.5 -25.5 -24.5 -41.5
s-15 -32.167 -21 -48.5s-10.333 -29.166 -13 -38.499c-5.33301 -15.333 -4.33301 -24.666 3 -27.999c4.66699 -3.33301 10 -6.5 16 -9.5s14 -5.16699 24 -6.5l51 63c21.333 26.667 43 52 65 76c10 9.33301 10.667 16.333 2 21c-8 6.66699 -19 13.5 -33 20.5
s-29 10.5 -45 10.5z" />
    <glyph glyph-name="ecircumflex" unicode="&#xea;" horiz-adv-x="450" 
d="M406 111c-8.66699 -4 -23.501 -8.66602 -44.501 -13.999s-43.5 -8 -67.5 -8c-30 0 -58.167 7.66699 -84.5 23s-41.166 43.666 -44.499 84.999c10.667 -0.666992 24.667 -1.16699 42 -1.5s35 -0.333008 53 0s34.5 1.16602 49.5 2.49902s25.5 3 31.5 5
c22 6 40.667 12.5 56 19.5s24 14.167 26 21.5c2 6.66699 3.33301 17.667 4 33c0 20 -3.5 40.5 -10.5 61.5s-17.667 40 -32 57s-33 31 -56 42s-50.833 16.5 -83.5 16.5c-34.667 0 -65.5 -7 -92.5 -21s-49.667 -32 -68 -54s-32.333 -47.167 -42 -75.5
s-14.5 -57.166 -14.5 -86.499c0 -76 19.833 -133.167 59.5 -171.5s96.834 -57.5 171.501 -57.5c16 0 33.167 2 51.5 6s31.166 7.33301 38.499 10c8.66699 4 20.667 16.167 36 36.5s23 42.833 23 67.5zM235.999 375.001c22 0 37.834 -8 47.501 -24s14.5 -35 14.5 -57
c0 -6 -1 -11 -3 -15s-4.33301 -6 -7 -6c-13.333 -1.33301 -33.833 -2.16602 -61.5 -2.49902s-47.834 0.5 -60.501 2.5c0 35.333 7.5 61.166 22.5 77.499s30.5 24.5 46.5 24.5h1zM169 510.001c6 0.666992 13.334 6.33008 22.001 16.9971c16.667 18.667 32 40.334 46 65.001
c17.333 -25.333 34.666 -49.333 51.999 -72c4.66699 -7.33301 11.667 -10.666 21 -9.99902c8 0 18.667 2.33301 32 7s24 9 32 13l-53.5 77c-17 25.333 -33.833 52 -50.5 80c-14 0 -29.667 -1.33301 -47 -4c-10.667 -3.33301 -18 -8.66602 -22 -15.999
c-14 -26 -28.833 -50 -44.5 -72l-51.5 -71c12 -4 24 -7.33301 36 -10s21 -4 27 -4h1z" />
    <glyph glyph-name="edieresis" unicode="&#xeb;" horiz-adv-x="450" 
d="M406 111c-8.66699 -4 -23.501 -8.66602 -44.501 -13.999s-43.5 -8 -67.5 -8c-30 0 -58.167 7.66699 -84.5 23s-41.166 43.666 -44.499 84.999c10.667 -0.666992 24.667 -1.16699 42 -1.5s35 -0.333008 53 0s34.5 1.16602 49.5 2.49902s25.5 3 31.5 5
c22 6 40.667 12.5 56 19.5s24 14.167 26 21.5c2 6.66699 3.33301 17.667 4 33c0 20 -3.5 40.5 -10.5 61.5s-17.667 40 -32 57s-33 31 -56 42s-50.833 16.5 -83.5 16.5c-34.667 0 -65.5 -7 -92.5 -21s-49.667 -32 -68 -54s-32.333 -47.167 -42 -75.5
s-14.5 -57.166 -14.5 -86.499c0 -76 19.833 -133.167 59.5 -171.5s96.834 -57.5 171.501 -57.5c16 0 33.167 2 51.5 6s31.166 7.33301 38.499 10c8.66699 4 20.667 16.167 36 36.5s23 42.833 23 67.5zM235.999 375.001c22 0 37.834 -8 47.501 -24s14.5 -35 14.5 -57
c0 -6 -1 -11 -3 -15s-4.33301 -6 -7 -6c-13.333 -1.33301 -33.833 -2.16602 -61.5 -2.49902s-47.834 0.5 -60.501 2.5c0 35.333 7.5 61.166 22.5 77.499s30.5 24.5 46.5 24.5h1zM139 662.001c-22 0 -38.5 -6.66797 -49.5 -20.001s-16.5 -29.333 -16.5 -48
c0 -21.333 6.5 -37.166 19.5 -47.499s26.833 -15.5 41.5 -15.5c19.333 0 35 6 47 18s18 28.667 18 50c0 16 -5.66699 30.5 -17 43.5s-25.333 19.5 -42 19.5h-1zM337 662c-22 0 -38.5 -6.66895 -49.5 -20.002s-16.5 -29.333 -16.5 -48c0 -21.333 6.66699 -37.166 20 -47.499
s27 -15.5 41 -15.5c19.333 0 35 6 47 18s18 28.667 18 50c0 16.667 -5.66699 31.334 -17 44.001s-25.333 19 -42 19h-1z" />
    <glyph glyph-name="igrave" unicode="&#xec;" horiz-adv-x="259" 
d="M201 385c0 28.667 -1.49902 46.335 -4.49902 53.002s-8.5 10 -16.5 10c-12 0 -32.167 -1.33301 -60.5 -4s-48.833 -5.66699 -61.5 -9c0.666992 -10 1.5 -23.5 2.5 -40.5s1.5 -40.833 1.5 -71.5v-171c0 -30 -0.5 -58.833 -1.5 -86.5s-1.5 -51.5 -1.5 -71.5
c22 0 42.667 0.333008 62 1s34.666 1.66699 45.999 3c12.667 1.33301 21.5 3.66602 26.5 6.99902s7.5 9.66602 7.5 18.999v361zM98.001 689.001c-16 0 -32.0029 -3.33203 -48.0029 -9.99902s-28 -13.667 -36 -21c-8.66699 -9.33301 -10 -16.333 -4 -21
c22 -22 43.5 -46.167 64.5 -72.5s37.833 -48.5 50.5 -66.5c14.667 2 28 7 40 15c10.667 5.33301 13.334 13.666 8.00098 24.999c-3.33301 12.667 -8.16602 27.5 -14.499 44.5s-13.166 33.333 -20.499 49s-14.5 29 -21.5 40s-13.167 16.833 -18.5 17.5z" />
    <glyph glyph-name="iacute" unicode="&#xed;" horiz-adv-x="259" 
d="M200 385c0 28.667 -1.49902 46.335 -4.49902 53.002s-8.5 10 -16.5 10c-12 0 -32.167 -1.33301 -60.5 -4s-48.833 -5.66699 -61.5 -9c0.666992 -10 1.5 -23.5 2.5 -40.5s1.5 -40.833 1.5 -71.5v-171c0 -30 -0.5 -58.833 -1.5 -86.5s-1.5 -51.5 -1.5 -71.5
c22 0 42.667 0.333008 62 1s34.666 1.66699 45.999 3c12.667 1.33301 21.5 3.66602 26.5 6.99902s7.5 9.66602 7.5 18.999v361zM160.001 688.001c-8 -0.666992 -16.167 -6.83496 -24.5 -18.502s-16.5 -25.5 -24.5 -41.5s-15 -32.167 -21 -48.5s-10.333 -29.166 -13 -38.499
c-5.33301 -15.333 -4.33301 -24.666 3 -27.999c4.66699 -3.33301 10 -6.5 16 -9.5s14 -5.16699 24 -6.5l51 63c21.333 26.667 43 52 65 76c10 9.33301 10.667 16.333 2 21c-8 6.66699 -19 13.5 -33 20.5s-29 10.5 -45 10.5z" />
    <glyph glyph-name="icircumflex" unicode="&#xee;" horiz-adv-x="259" 
d="M200 385c0 28.667 -1.49902 46.335 -4.49902 53.002s-8.5 10 -16.5 10c-12 0 -32.167 -1.33301 -60.5 -4s-48.833 -5.66699 -61.5 -9c0.666992 -10 1.5 -23.5 2.5 -40.5s1.5 -40.833 1.5 -71.5v-171c0 -30 -0.5 -58.833 -1.5 -86.5s-1.5 -51.5 -1.5 -71.5
c22 0 42.667 0.333008 62 1s34.666 1.66699 45.999 3c12.667 1.33301 21.5 3.66602 26.5 6.99902s7.5 9.66602 7.5 18.999v361zM60.001 510.001c6 0.666992 13.335 6.33008 22.002 16.9971c17.333 18.667 32.666 40.334 45.999 65.001
c17.333 -25.333 34.666 -49.333 51.999 -72c5.33301 -7.33301 12.333 -10.666 21 -9.99902c8 0 18.667 2.33301 32 7s24 9 32 13l-53.5 77c-17 25.333 -33.833 52 -50.5 80c-14 0 -29.667 -1.33301 -47 -4c-10.667 -3.33301 -18 -8.66602 -22 -15.999
c-14 -26 -28.833 -50 -44.5 -72l-51.5 -71c12 -4 24 -7.33301 36 -10s21 -4 27 -4h1z" />
    <glyph glyph-name="idieresis" unicode="&#xef;" horiz-adv-x="259" 
d="M200 385c0 28.667 -1.49902 46.335 -4.49902 53.002s-8.5 10 -16.5 10c-12 0 -32.167 -1.33301 -60.5 -4s-48.833 -5.66699 -61.5 -9c0.666992 -10 1.5 -23.5 2.5 -40.5s1.5 -40.833 1.5 -71.5v-171c0 -30 -0.5 -58.833 -1.5 -86.5s-1.5 -51.5 -1.5 -71.5
c22 0 42.667 0.333008 62 1s34.666 1.66699 45.999 3c12.667 1.33301 21.5 3.66602 26.5 6.99902s7.5 9.66602 7.5 18.999v361zM38.001 662.001c-22 0 -38.5 -6.66797 -49.5 -20.001s-16.5 -29.333 -16.5 -48c0 -21.333 6.5 -37.166 19.5 -47.499s26.833 -15.5 41.5 -15.5
c19.333 0 35 6 47 18s18 28.667 18 50c0 16 -5.66699 30.5 -17 43.5s-25.333 19.5 -42 19.5h-1zM236.001 662c-22 0 -38.5 -6.66895 -49.5 -20.002s-16.5 -29.333 -16.5 -48c0 -21.333 6.66699 -37.166 20 -47.499s27 -15.5 41 -15.5c19.333 0 35 6 47 18s18 28.667 18 50
c0 16.667 -5.66699 31.334 -17 44.001s-25.333 19 -42 19h-1z" />
    <glyph glyph-name="eth" unicode="&#xf0;" horiz-adv-x="509" 
d="M422 605c6 6 9.83105 15.499 11.498 28.499s2.5 23.833 2.5 32.5c0 8 -2 12.5 -6 13.5s-11.667 -1.16699 -23 -6.5l-108 -54c-38 22.667 -70 38.167 -96 46.5s-42 12.5 -48 12.5c-10 0 -18 -1.83301 -24 -5.5s-12 -11.5 -18 -23.5c-8.66699 -10 -16.667 -21 -24 -33v-3
c7.33301 -3.33301 22 -9.16602 44 -17.499s40 -17.5 54 -27.5l-91 -46c-3.33301 -4 -6 -11.167 -8 -21.5s-3 -21.833 -3 -34.5c0 -6.66699 1.33301 -11 4 -13s9.33398 -0.333008 20.001 5l137 66c13.333 -11.333 26 -24.666 38 -39.999s19.667 -28 23 -38
c-17.333 5.33301 -32.666 7.66602 -45.999 6.99902c-70 0 -126.167 -22.5 -168.5 -67.5s-63.5 -102.167 -63.5 -171.5c0 -41.333 6 -76.333 18 -105s28 -52 48 -70s43.167 -31 69.5 -39s53.833 -12 82.5 -12c30 0 59 4.83301 87 14.5s52.833 25.334 74.5 47.001
s39 49.667 52 84s19.5 76.166 19.5 125.499c0 57.333 -11.167 114 -33.5 170s-52.833 104 -91.5 144zM266.998 367.999c15.333 0 27.1689 -1.99902 35.502 -5.99902s16.166 -9 23.499 -15c4 -8.66699 7.5 -22.334 10.5 -41.001s4.5 -37 4.5 -55
c0 -50.667 -5.83301 -93.167 -17.5 -127.5s-34.834 -51.5 -69.501 -51.5c-18.667 0 -36.834 12 -54.501 36s-26.5 62.333 -26.5 115c0 50 8.83301 86.667 26.5 110s39.834 35 66.501 35h1z" />
    <glyph glyph-name="ntilde" unicode="&#xf1;" horiz-adv-x="543" 
d="M344 15c0 -14 7.66895 -20.9971 23.002 -20.9971c24.667 0 47.667 1 69 3s38 3.66699 50 5c-1.33301 19.333 -2.16602 42.666 -2.49902 69.999s-0.5 53.666 -0.5 78.999v118c0 17.333 -1.83301 36.666 -5.5 57.999s-10.667 41.333 -21 60s-25.5 34.5 -45.5 47.5
s-46.333 19.5 -79 19.5c-24 0 -47.333 -6.33301 -70 -19s-44.667 -27.334 -66 -44.001c-4 16 -10.833 30.5 -20.5 43.5s-24.834 19.5 -45.501 19.5c-18 0 -35.333 -6.33301 -52 -19s-27.334 -26 -32.001 -40v-8c8 -5.33301 13.167 -11.666 15.5 -18.999
s3.5 -17.666 3.5 -30.999v-163c0 -58 -1 -118 -3 -180c21.333 0 41.166 0.5 59.499 1.5s37.5 2.83301 57.5 5.5c11.333 1.33301 18.333 3.66602 21 6.99902s4 9.33301 4 18v299c10 7.33301 20.333 13.5 31 18.5s24.667 7.5 42 7.5c18.667 0 34.5 -7.33301 47.5 -22
s19.5 -34 19.5 -58v-256zM226.002 675.003c-32.667 0 -56 -12.832 -70 -38.499s-22 -57.834 -24 -96.501c4 -2 12.667 -4 26 -6s23.333 -3 30 -3c5.33301 0.666992 8.33301 4.33398 9 11.001c4 18 8 30.167 12 36.5s8.33301 9.83301 13 10.5c4 0 8 -2 12 -6l17 -17
c8.66699 -10.667 18.167 -19.834 28.5 -27.501s22.5 -11.5 36.5 -11.5c22.667 0 41.167 10.167 55.5 30.5s23.833 54.833 28.5 103.5c-6 4 -15.5 7.33301 -28.5 10s-21.5 4 -25.5 4c-5.33301 0 -8.66602 -3.33301 -9.99902 -10c-3.33301 -18 -7.16602 -30.333 -11.499 -37
s-8.5 -10 -12.5 -10c-4.66699 0 -8.83398 2 -12.501 6s-7.83398 9 -12.501 15c-16.667 22.667 -36.667 34.667 -60 36h-1z" />
    <glyph glyph-name="ograve" unicode="&#xf2;" horiz-adv-x="513" 
d="M262 454c-68 0 -124 -22.168 -168 -66.501s-66 -101.166 -66 -170.499c0 -77.333 22 -134.833 66 -172.5s96.333 -56.5 157 -56.5c70.667 0 127.5 22 170.5 66s64.5 102 64.5 174c0 60.667 -18.833 113.5 -56.5 158.5s-93.167 67.5 -166.5 67.5h-1zM252 370.999
c32 0 55 -16.001 69 -48.001s21 -68 21 -108c0 -39.333 -5.33301 -73.166 -16 -101.499s-31.667 -42.5 -63 -42.5c-24.667 0 -46 12.833 -64 38.5s-27 66.5 -27 122.5c0 37.333 5.83301 69.833 17.5 97.5s32.167 41.5 61.5 41.5h1zM224 688.998
c-16 0 -32.001 -3.33203 -48.001 -9.99902s-28 -13.667 -36 -21c-8.66699 -9.33301 -10 -16.333 -4 -21c22 -22 43.5 -46.167 64.5 -72.5s37.833 -48.5 50.5 -66.5c15.333 2 28.666 7 39.999 15c10 5.33301 12.667 13.666 8 24.999
c-3.33301 12.667 -8.16602 27.5 -14.499 44.5s-13.166 33.333 -20.499 49s-14.5 29 -21.5 40s-13.167 16.833 -18.5 17.5z" />
    <glyph glyph-name="oacute" unicode="&#xf3;" horiz-adv-x="513" 
d="M262 454c-68 0 -124 -22.168 -168 -66.501s-66 -101.166 -66 -170.499c0 -77.333 22 -134.833 66 -172.5s96.333 -56.5 157 -56.5c70.667 0 127.5 22 170.5 66s64.5 102 64.5 174c0 60.667 -18.833 113.5 -56.5 158.5s-93.167 67.5 -166.5 67.5h-1zM252 370.999
c32 0 55 -16.001 69 -48.001s21 -68 21 -108c0 -39.333 -5.33301 -73.166 -16 -101.499s-31.667 -42.5 -63 -42.5c-24.667 0 -46 12.833 -64 38.5s-27 66.5 -27 122.5c0 37.333 5.83301 69.833 17.5 97.5s32.167 41.5 61.5 41.5h1zM281 687.998
c-8 -0.666992 -16.167 -6.83496 -24.5 -18.502s-16.5 -25.5 -24.5 -41.5s-15 -32.167 -21 -48.5s-10.333 -29.166 -13 -38.499c-5.33301 -15.333 -4.33301 -24.666 3 -27.999c4.66699 -3.33301 10 -6.5 16 -9.5s14 -5.16699 24 -6.5l51 63c21.333 26.667 43 52 65 76
c10 9.33301 10.667 16.333 2 21c-8 6.66699 -19 13.5 -33 20.5s-29 10.5 -45 10.5z" />
    <glyph glyph-name="ocircumflex" unicode="&#xf4;" horiz-adv-x="513" 
d="M262 454c-68 0 -124 -22.168 -168 -66.501s-66 -101.166 -66 -170.499c0 -77.333 22 -134.833 66 -172.5s96.333 -56.5 157 -56.5c70.667 0 127.5 22 170.5 66s64.5 102 64.5 174c0 60.667 -18.833 113.5 -56.5 158.5s-93.167 67.5 -166.5 67.5h-1zM252 370.999
c32 0 55 -16.001 69 -48.001s21 -68 21 -108c0 -39.333 -5.33301 -73.166 -16 -101.499s-31.667 -42.5 -63 -42.5c-24.667 0 -46 12.833 -64 38.5s-27 66.5 -27 122.5c0 37.333 5.83301 69.833 17.5 97.5s32.167 41.5 61.5 41.5h1zM195 509.998
c6 0.666992 13.334 6.33008 22.001 16.9971c16.667 18.667 32 40.334 46 65.001c17.333 -25.333 34.666 -49.333 51.999 -72c4.66699 -7.33301 11.667 -10.666 21 -9.99902c8 0 18.667 2.33301 32 7s24 9 32 13l-53.5 77c-17 25.333 -33.833 52 -50.5 80
c-14 0 -29.667 -1.33301 -47 -4c-10.667 -3.33301 -18 -8.66602 -22 -15.999c-14 -26 -28.833 -50 -44.5 -72l-51.5 -71c12 -4 24 -7.33301 36 -10s21 -4 27 -4h1z" />
    <glyph glyph-name="otilde" unicode="&#xf5;" horiz-adv-x="513" 
d="M262 454c-68 0 -124 -22.168 -168 -66.501s-66 -101.166 -66 -170.499c0 -77.333 22 -134.833 66 -172.5s96.333 -56.5 157 -56.5c70.667 0 127.5 22 170.5 66s64.5 102 64.5 174c0 60.667 -18.833 113.5 -56.5 158.5s-93.167 67.5 -166.5 67.5h-1zM252 370.999
c32 0 55 -16.001 69 -48.001s21 -68 21 -108c0 -39.333 -5.33301 -73.166 -16 -101.499s-31.667 -42.5 -63 -42.5c-24.667 0 -46 12.833 -64 38.5s-27 66.5 -27 122.5c0 37.333 5.83301 69.833 17.5 97.5s32.167 41.5 61.5 41.5h1zM210 674.998
c-32.667 0 -56 -12.832 -70 -38.499s-22 -57.834 -24 -96.501c4 -2 12.667 -4 26 -6s23.333 -3 30 -3c5.33301 0.666992 8.33301 4.33398 9 11.001c4 18 8 30.167 12 36.5s8.33301 9.83301 13 10.5c4 0 8 -2 12 -6l17 -17c8.66699 -10.667 18.167 -19.834 28.5 -27.501
s22.5 -11.5 36.5 -11.5c22.667 0 41.167 10.167 55.5 30.5s23.833 54.833 28.5 103.5c-6 4 -15.5 7.33301 -28.5 10s-21.5 4 -25.5 4c-5.33301 0 -8.66602 -3.33301 -9.99902 -10c-3.33301 -18 -7.16602 -30.333 -11.499 -37s-8.5 -10 -12.5 -10
c-4.66699 0 -8.83398 2 -12.501 6s-7.83398 9 -12.501 15c-16.667 22.667 -36.667 34.667 -60 36h-1z" />
    <glyph glyph-name="odieresis" unicode="&#xf6;" horiz-adv-x="513" 
d="M262 454c-68 0 -124 -22.168 -168 -66.501s-66 -101.166 -66 -170.499c0 -77.333 22 -134.833 66 -172.5s96.333 -56.5 157 -56.5c70.667 0 127.5 22 170.5 66s64.5 102 64.5 174c0 60.667 -18.833 113.5 -56.5 158.5s-93.167 67.5 -166.5 67.5h-1zM252 370.999
c32 0 55 -16.001 69 -48.001s21 -68 21 -108c0 -39.333 -5.33301 -73.166 -16 -101.499s-31.667 -42.5 -63 -42.5c-24.667 0 -46 12.833 -64 38.5s-27 66.5 -27 122.5c0 37.333 5.83301 69.833 17.5 97.5s32.167 41.5 61.5 41.5h1zM156 661.998
c-22 0 -38.5 -6.66797 -49.5 -20.001s-16.5 -29.333 -16.5 -48c0 -21.333 6.5 -37.166 19.5 -47.499s26.833 -15.5 41.5 -15.5c19.333 0 35 6 47 18s18 28.667 18 50c0 16 -5.66699 30.5 -17 43.5s-25.333 19.5 -42 19.5h-1zM354 661.997
c-22 0 -38.5 -6.66895 -49.5 -20.002s-16.5 -29.333 -16.5 -48c0 -21.333 6.66699 -37.166 20 -47.499s27 -15.5 41 -15.5c19.333 0 35 6 47 18s18 28.667 18 50c0 16.667 -5.66699 31.334 -17 44.001s-25.333 19 -42 19h-1z" />
    <glyph glyph-name="divide" unicode="&#xf7;" horiz-adv-x="591" 
d="M295 363c18 0 32.833 6.00098 44.5 18.001s17.5 27 17.5 45c0 16 -5.66699 30.5 -17 43.5s-26 19.5 -44 19.5s-32.667 -6.5 -44 -19.5s-17 -27.5 -17 -43.5c0 -16.667 5.5 -31.334 16.5 -44.001s25.167 -19 42.5 -19h1zM493 207.001c14 0 23.001 8.33301 27.001 25
s6.33301 38.334 7 65.001h-430c-12.667 0 -21.334 -6.33301 -26.001 -19s-7 -36.334 -7 -71.001h429zM294.001 141.001c-17.333 0 -31.999 -6 -43.999 -18s-18 -26.667 -18 -44c0 -18.667 6 -34 18 -46s26.667 -18 44 -18c16 0 30.167 6 42.5 18s18.5 27.333 18.5 46
c0 17.333 -5.83301 32 -17.5 44s-25.834 18 -42.501 18h-1z" />
    <glyph glyph-name="oslash" unicode="&#xf8;" horiz-adv-x="520" 
d="M443 429c-2.66699 11.333 -10.002 23.668 -22.002 37.001c-6 6.66699 -11 9.66699 -15 9s-9.66699 -6.33398 -17 -17.001c-1.33301 -2.66699 -1.83301 -3.66699 -1.5 -3s-5.5 -7.33301 -17.5 -24c-13.333 6.66699 -29.333 12.167 -48 16.5s-38.667 6.5 -60 6.5
c-33.333 0 -64.333 -6.16699 -93 -18.5s-53.5 -29 -74.5 -50s-37.333 -45.667 -49 -74s-17.5 -59.166 -17.5 -92.499c0 -41.333 6.5 -76.5 19.5 -105.5s30.167 -52.167 51.5 -69.5c-16 -23.333 -24.5 -35 -25.5 -35s-1.5 -0.333008 -1.5 -1
c1.33301 -6.66699 4 -12.834 8 -18.501l15 -20.5c7.33301 -11.333 16 -10.333 26 3c0.666992 2 1.33398 3.33301 2.00098 4s9.33398 12 26.001 34c30 -14.667 68 -22 114 -22c66 0 120.333 22.167 163 66.5s64 100.5 64 168.5c0 32 -5.66699 64 -17 96s-29 58 -53 78z
M175.998 149.002c-9.33301 23.333 -13.667 49.333 -13 78c0 38 7.33301 72 22 102s39 45 73 45c10.667 0 20.667 -2.66699 30 -8s17 -11 23 -17zM342.997 295.002c4 -11.333 7.00098 -24.168 9.00098 -38.501s3 -28.5 3 -42.5c0 -38.667 -6.83301 -72.5 -20.5 -101.5
s-37.167 -43.5 -70.5 -43.5c-20.667 0.666992 -39.334 9.33398 -56.001 26.001z" />
    <glyph glyph-name="ugrave" unicode="&#xf9;" horiz-adv-x="539" 
d="M60 159c0 -49.333 11.998 -90.167 35.998 -122.5s63.667 -48.5 119 -48.5c23.333 0 44.333 5 63 15c22.667 9.33301 47.334 25 74.001 47c6 -18.667 15.667 -33.667 29 -45s35 -17 65 -17c14 0 28.167 7.66699 42.5 23s22.5 32 24.5 50v6
c-13.333 2 -23.166 6.5 -29.499 13.5s-9.5 19.833 -9.5 38.5v148c0 44 0.5 82.5 1.5 115.5s1.5 54.833 1.5 65.5c-20 0 -38.333 -0.666992 -55 -2l-64 -5c-10 -2.66699 -16.333 -6.5 -19 -11.5s-4 -14.833 -4 -29.5v-286c-15.333 -13.333 -36 -20.333 -62 -21
c-16 0 -32.333 5.16699 -49 15.5s-25 31.5 -25 63.5v108v105c0 28.667 -1.5 46.334 -4.5 53.001s-8.5 10 -16.5 10c-15.333 0 -36.5 -1.5 -63.5 -4.5s-46.5 -5.83301 -58.5 -8.5c0.666992 -10 1.5 -23.333 2.5 -40s1.5 -40.334 1.5 -71.001v-165zM227.998 688.999
c-16 0 -32.001 -3.33203 -48.001 -9.99902s-28 -13.667 -36 -21c-8.66699 -9.33301 -10 -16.333 -4 -21c22 -22 43.5 -46.167 64.5 -72.5s37.833 -48.5 50.5 -66.5c15.333 2 28.666 7 39.999 15c10 5.33301 12.667 13.666 8 24.999
c-3.33301 12.667 -8.16602 27.5 -14.499 44.5s-13.166 33.333 -20.499 49s-14.5 29 -21.5 40s-13.167 16.833 -18.5 17.5z" />
    <glyph glyph-name="uacute" unicode="&#xfa;" horiz-adv-x="539" 
d="M60 159c0 -49.333 11.998 -90.167 35.998 -122.5s63.667 -48.5 119 -48.5c23.333 0 44.333 5 63 15c22.667 9.33301 47.334 25 74.001 47c6 -18.667 15.667 -33.667 29 -45s35 -17 65 -17c14 0 28.167 7.66699 42.5 23s22.5 32 24.5 50v6
c-13.333 2 -23.166 6.5 -29.499 13.5s-9.5 19.833 -9.5 38.5v148c0 44 0.5 82.5 1.5 115.5s1.5 54.833 1.5 65.5c-20 0 -38.333 -0.666992 -55 -2l-64 -5c-10 -2.66699 -16.333 -6.5 -19 -11.5s-4 -14.833 -4 -29.5v-286c-15.333 -13.333 -36 -20.333 -62 -21
c-16 0 -32.333 5.16699 -49 15.5s-25 31.5 -25 63.5v108v105c0 28.667 -1.5 46.334 -4.5 53.001s-8.5 10 -16.5 10c-15.333 0 -36.5 -1.5 -63.5 -4.5s-46.5 -5.83301 -58.5 -8.5c0.666992 -10 1.5 -23.333 2.5 -40s1.5 -40.334 1.5 -71.001v-165zM307.998 687.999
c-8 -0.666992 -16.167 -6.83496 -24.5 -18.502s-16.5 -25.5 -24.5 -41.5s-15 -32.167 -21 -48.5s-10.333 -29.166 -13 -38.499c-5.33301 -15.333 -4.33301 -24.666 3 -27.999c4.66699 -3.33301 10 -6.5 16 -9.5s14 -5.16699 24 -6.5l51 63c21.333 26.667 43 52 65 76
c10 9.33301 10.667 16.333 2 21c-8 6.66699 -19 13.5 -33 20.5s-29 10.5 -45 10.5z" />
    <glyph glyph-name="ucircumflex" unicode="&#xfb;" horiz-adv-x="539" 
d="M60 159c0 -49.333 11.998 -90.167 35.998 -122.5s63.667 -48.5 119 -48.5c23.333 0 44.333 5 63 15c22.667 9.33301 47.334 25 74.001 47c6 -18.667 15.667 -33.667 29 -45s35 -17 65 -17c14 0 28.167 7.66699 42.5 23s22.5 32 24.5 50v6
c-13.333 2 -23.166 6.5 -29.499 13.5s-9.5 19.833 -9.5 38.5v148c0 44 0.5 82.5 1.5 115.5s1.5 54.833 1.5 65.5c-20 0 -38.333 -0.666992 -55 -2l-64 -5c-10 -2.66699 -16.333 -6.5 -19 -11.5s-4 -14.833 -4 -29.5v-286c-15.333 -13.333 -36 -20.333 -62 -21
c-16 0 -32.333 5.16699 -49 15.5s-25 31.5 -25 63.5v108v105c0 28.667 -1.5 46.334 -4.5 53.001s-8.5 10 -16.5 10c-15.333 0 -36.5 -1.5 -63.5 -4.5s-46.5 -5.83301 -58.5 -8.5c0.666992 -10 1.5 -23.333 2.5 -40s1.5 -40.334 1.5 -71.001v-165zM196.998 511.999
c6 0.666992 13.334 6.33008 22.001 16.9971c16.667 18.667 32 40.334 46 65.001c17.333 -25.333 34.666 -49.333 51.999 -72c4.66699 -7.33301 11.667 -10.666 21 -9.99902c8 0 18.667 2.33301 32 7s24 9 32 13l-53.5 77c-17 25.333 -33.833 52 -50.5 80
c-14 0 -29.667 -1.33301 -47 -4c-10.667 -3.33301 -18 -8.66602 -22 -15.999c-14 -26 -28.833 -50 -44.5 -72l-51.5 -71c12 -4 24 -7.33301 36 -10s21 -4 27 -4h1z" />
    <glyph glyph-name="udieresis" unicode="&#xfc;" horiz-adv-x="539" 
d="M60 159c0 -49.333 11.998 -90.167 35.998 -122.5s63.667 -48.5 119 -48.5c23.333 0 44.333 5 63 15c22.667 9.33301 47.334 25 74.001 47c6 -18.667 15.667 -33.667 29 -45s35 -17 65 -17c14 0 28.167 7.66699 42.5 23s22.5 32 24.5 50v6
c-13.333 2 -23.166 6.5 -29.499 13.5s-9.5 19.833 -9.5 38.5v148c0 44 0.5 82.5 1.5 115.5s1.5 54.833 1.5 65.5c-20 0 -38.333 -0.666992 -55 -2l-64 -5c-10 -2.66699 -16.333 -6.5 -19 -11.5s-4 -14.833 -4 -29.5v-286c-15.333 -13.333 -36 -20.333 -62 -21
c-16 0 -32.333 5.16699 -49 15.5s-25 31.5 -25 63.5v108v105c0 28.667 -1.5 46.334 -4.5 53.001s-8.5 10 -16.5 10c-15.333 0 -36.5 -1.5 -63.5 -4.5s-46.5 -5.83301 -58.5 -8.5c0.666992 -10 1.5 -23.333 2.5 -40s1.5 -40.334 1.5 -71.001v-165zM169.998 661.999
c-22 0 -38.5 -6.66797 -49.5 -20.001s-16.5 -29.333 -16.5 -48c0 -21.333 6.5 -37.166 19.5 -47.499s26.833 -15.5 41.5 -15.5c19.333 0 35 6 47 18s18 28.667 18 50c0 16 -5.66699 30.5 -17 43.5s-25.333 19.5 -42 19.5h-1zM367.998 661.998
c-22 0 -38.5 -6.66895 -49.5 -20.002s-16.5 -29.333 -16.5 -48c0 -21.333 6.66699 -37.166 20 -47.499s27 -15.5 41 -15.5c19.333 0 35 6 47 18s18 28.667 18 50c0 16.667 -5.66699 31.334 -17 44.001s-25.333 19 -42 19h-1z" />
    <glyph glyph-name="yacute" unicode="&#xfd;" horiz-adv-x="446" 
d="M54 -157c6 -8 17.6729 -17.1689 35.0059 -27.502s36.333 -15.5 57 -15.5c6 0 14.667 6.33301 26 19s24.166 29.5 38.499 50.5s29.833 45.5 46.5 73.5s33 58 49 90c29.333 60 54.666 121.333 75.999 184s38.666 122.334 51.999 179.001
c2.66699 12.667 2.66699 22.5 0 29.5s-11 12.5 -25 16.5c-30 6.66699 -56 10.667 -78 12c-2.66699 -16.667 -6.83398 -37.167 -12.501 -61.5s-12.334 -49.833 -20.001 -76.5s-15.834 -53.5 -24.501 -80.5s-17 -51.5 -25 -73.5l-43.5 133l-43.5 127
c-4 8.66699 -8.16699 16.167 -12.5 22.5s-11.5 9.5 -21.5 9.5c-14 0 -33 -3 -57 -9s-44 -13 -60 -21l33.5 -79l43 -107.5l40.5 -103.5c12.667 -32 22 -54.333 28 -67c2 -8 5.5 -16.333 10.5 -25s8.83301 -15 11.5 -19c-17.333 -31.333 -38.833 -64.666 -64.5 -99.999
s-45.5 -60.333 -59.5 -75v-5zM272.006 687.998c-8 -0.666992 -16.167 -6.83496 -24.5 -18.502s-16.5 -25.5 -24.5 -41.5s-15 -32.167 -21 -48.5s-10.333 -29.166 -13 -38.499c-5.33301 -15.333 -4.33301 -24.666 3 -27.999c4.66699 -3.33301 10 -6.5 16 -9.5
s14 -5.16699 24 -6.5l51 63c21.333 26.667 43 52 65 76c10 9.33301 10.667 16.333 2 21c-8 6.66699 -19 13.5 -33 20.5s-29 10.5 -45 10.5z" />
    <glyph glyph-name="thorn" unicode="&#xfe;" horiz-adv-x="531" 
d="M199 0c16.667 -7.33301 37.667 -11.334 63 -12.001c72 0 130.333 24.5 175 73.5s67 109.5 67 181.5c0 58 -15.667 107.667 -47 149s-75.666 62 -132.999 62c-27.333 0 -50.333 -4.83301 -69 -14.5s-37.667 -21.5 -57 -35.5v209c0 30 -1.33301 48.333 -4 55s-8 10 -16 10
c-6 0 -15 -0.833008 -27 -2.5s-24.167 -3.5 -36.5 -5.5s-24 -4.16699 -35 -6.5s-18.833 -4.5 -23.5 -6.5l2.5 -37c1 -14.667 1.5 -37 1.5 -67v-223v-383c0 -58 -1 -112.333 -3 -163c21.333 0 41.166 0.5 59.499 1.5s37.5 2.5 57.5 4.5c11.333 2 18.333 4.83301 21 8.5
s4 9.83398 4 18.501v183zM199 326.999c12 9.33301 23.167 15.333 33.5 18s21.166 4 32.499 4c28 0 50.833 -12 68.5 -36s26.5 -52.667 26.5 -86c0 -42 -9.66699 -77.833 -29 -107.5s-47.666 -44.5 -84.999 -44.5c-20 0 -35.667 2.66699 -47 8v244z" />
    <glyph glyph-name="ydieresis" unicode="&#xff;" horiz-adv-x="446" 
d="M54 -157c6 -8 17.6729 -17.1689 35.0059 -27.502s36.333 -15.5 57 -15.5c6 0 14.667 6.33301 26 19s24.166 29.5 38.499 50.5s29.833 45.5 46.5 73.5s33 58 49 90c29.333 60 54.666 121.333 75.999 184s38.666 122.334 51.999 179.001
c2.66699 12.667 2.66699 22.5 0 29.5s-11 12.5 -25 16.5c-30 6.66699 -56 10.667 -78 12c-2.66699 -16.667 -6.83398 -37.167 -12.501 -61.5s-12.334 -49.833 -20.001 -76.5s-15.834 -53.5 -24.501 -80.5s-17 -51.5 -25 -73.5l-43.5 133l-43.5 127
c-4 8.66699 -8.16699 16.167 -12.5 22.5s-11.5 9.5 -21.5 9.5c-14 0 -33 -3 -57 -9s-44 -13 -60 -21l33.5 -79l43 -107.5l40.5 -103.5c12.667 -32 22 -54.333 28 -67c2 -8 5.5 -16.333 10.5 -25s8.83301 -15 11.5 -19c-17.333 -31.333 -38.833 -64.666 -64.5 -99.999
s-45.5 -60.333 -59.5 -75v-5zM135.006 661.998c-22 0 -38.5 -6.66797 -49.5 -20.001s-16.5 -29.333 -16.5 -48c0 -21.333 6.5 -37.166 19.5 -47.499s26.833 -15.5 41.5 -15.5c19.333 0 35 6 47 18s18 28.667 18 50c0 16 -5.66699 30.5 -17 43.5s-25.333 19.5 -42 19.5h-1z
M333.006 661.997c-22 0 -38.5 -6.66895 -49.5 -20.002s-16.5 -29.333 -16.5 -48c0 -21.333 6.66699 -37.166 20 -47.499s27 -15.5 41 -15.5c19.333 0 35 6 47 18s18 28.667 18 50c0 16.667 -5.66699 31.334 -17 44.001s-25.333 19 -42 19h-1z" />
    <glyph glyph-name="Amacron" unicode="&#x100;" horiz-adv-x="640" 
d="M416 161l23 -66.499l24 -67.5c4.66699 -14 9.66699 -23 15 -27s12.333 -6 21 -6c6 0 14.833 0.5 26.5 1.5s24.167 2 37.5 3s25.833 2 37.5 3s20.5 2.5 26.5 4.5l1 4c-10.667 22.667 -22.667 50.667 -36 84l-50 131l-30.5 79.5l-39.5 102.5l-41.5 107.5l-37.5 95.5
c-6 13.333 -14 19.666 -24 18.999c-6 0 -22.333 -1.16699 -49 -3.5s-51 -5.5 -73 -9.5l6 -18l-48 -116l-69.5 -169l-71 -173.5l-52.5 -128.5l1 -4c12 -4 28.5 -7.16699 49.5 -9.5s38.167 -3.5 51.5 -3.5c17.333 0 27.333 5 30 15c6 14.667 14.833 37.667 26.5 69l31.5 83
h214zM232 254.001l43 118.5l35 101.5l79 -220h-157zM432 680.001c4 6 8.66699 16.834 14 32.501s8 30.167 8 43.5c0.666992 9.33301 -4 14.333 -14 15h-224c-3.33301 -4 -7.33301 -14.5 -12 -31.5s-7 -31.167 -7 -42.5c0 -12.667 5 -18.334 15 -17.001h220z" />
    <glyph glyph-name="amacron" unicode="&#x101;" horiz-adv-x="465" 
d="M447 88c-4.66699 -1.33301 -9.99707 -1.66406 -15.9971 -0.99707c-12 0 -21 2.5 -27 7.5s-9 10.167 -9 15.5c0 33.333 0.666992 65.5 2 96.5s2 56.833 2 77.5c0 58 -17.667 100.833 -53 128.5s-74 41.5 -116 41.5c-34 0 -68 -6.83301 -102 -20.5s-62.667 -28.5 -86 -44.5
c-0.666992 -16.667 3.16602 -32.834 11.499 -48.501s24.833 -20.167 49.5 -13.5l38.5 15.5c15.667 6.33301 32.167 9.5 49.5 9.5c23.333 0 41.666 -6.5 54.999 -19.5s20 -29.167 20 -48.5v-12c-6 -1.33301 -13.833 -2.83301 -23.5 -4.5s-18.834 -3.16699 -27.501 -4.5
c-20 -4.66699 -41.333 -10.167 -64 -16.5s-43.334 -14.833 -62.001 -25.5s-34 -24.334 -46 -41.001s-18 -37.334 -18 -62.001c0 -40 13.333 -71.667 40 -95s56.334 -35 89.001 -35c22 0 43.167 5.33301 63.5 16s36.833 23 49.5 37c16.667 -35.333 45.667 -53 87 -53
c32 0 55.667 8.5 71 25.5s23 40.5 23 70.5zM156.003 138.002c0 10.667 6.83203 23 20.499 37s42.834 23.333 87.501 28v-68c0 -17.333 -3 -29 -9 -35c-6.66699 -6 -13 -10 -19 -12s-14 -3 -24 -3c-16 0 -29.333 4.5 -40 13.5s-16 21.833 -16 38.5v1zM331.002 537.002
c4.66699 6 9.49805 16.666 14.498 31.999s7.5 29.333 7.5 42c0.666992 10 -3.66602 15 -12.999 15h-217c-3.33301 -4 -7.16602 -14.333 -11.499 -31s-6.5 -30.667 -6.5 -42s4.66699 -16.666 14 -15.999h212z" />
    <glyph glyph-name="Abreve" unicode="&#x102;" horiz-adv-x="640" 
d="M416 161l23 -66.499l24 -67.5c4.66699 -14 9.66699 -23 15 -27s12.333 -6 21 -6c6 0 14.833 0.5 26.5 1.5s24.167 2 37.5 3s25.833 2 37.5 3s20.5 2.5 26.5 4.5l1 4c-10.667 22.667 -22.667 50.667 -36 84l-50 131l-30.5 79.5l-39.5 102.5l-41.5 107.5l-37.5 95.5
c-6 13.333 -14 19.666 -24 18.999c-6 0 -22.333 -1.16699 -49 -3.5s-51 -5.5 -73 -9.5l6 -18l-48 -116l-69.5 -169l-71 -173.5l-52.5 -128.5l1 -4c12 -4 28.5 -7.16699 49.5 -9.5s38.167 -3.5 51.5 -3.5c17.333 0 27.333 5 30 15c6 14.667 14.833 37.667 26.5 69l31.5 83
h214zM232 254.001l43 118.5l35 101.5l79 -220h-157zM252 806.001c-9.33301 0 -21.999 -1.66699 -37.999 -5s-24 -9 -24 -17c-0.666992 -32 9.5 -60.333 30.5 -85s52.5 -37 94.5 -37c38 0 69.167 11.333 93.5 34s39.166 53 44.499 91c0 6 -7.83301 10.667 -23.5 14
s-27.5 5 -35.5 5c-8.66699 -1.33301 -13.667 -6 -15 -14c-6 -22 -14.333 -36.333 -25 -43s-23 -10 -37 -10c-12.667 0 -23.5 3.83301 -32.5 11.5s-15.167 21.167 -18.5 40.5c-0.666992 10 -5 15 -13 15h-1z" />
    <glyph glyph-name="abreve" unicode="&#x103;" horiz-adv-x="465" 
d="M447 88c-4.66699 -1.33301 -9.99707 -1.66406 -15.9971 -0.99707c-12 0 -21 2.5 -27 7.5s-9 10.167 -9 15.5c0 33.333 0.666992 65.5 2 96.5s2 56.833 2 77.5c0 58 -17.667 100.833 -53 128.5s-74 41.5 -116 41.5c-34 0 -68 -6.83301 -102 -20.5s-62.667 -28.5 -86 -44.5
c-0.666992 -16.667 3.16602 -32.834 11.499 -48.501s24.833 -20.167 49.5 -13.5l38.5 15.5c15.667 6.33301 32.167 9.5 49.5 9.5c23.333 0 41.666 -6.5 54.999 -19.5s20 -29.167 20 -48.5v-12c-6 -1.33301 -13.833 -2.83301 -23.5 -4.5s-18.834 -3.16699 -27.501 -4.5
c-20 -4.66699 -41.333 -10.167 -64 -16.5s-43.334 -14.833 -62.001 -25.5s-34 -24.334 -46 -41.001s-18 -37.334 -18 -62.001c0 -40 13.333 -71.667 40 -95s56.334 -35 89.001 -35c22 0 43.167 5.33301 63.5 16s36.833 23 49.5 37c16.667 -35.333 45.667 -53 87 -53
c32 0 55.667 8.5 71 25.5s23 40.5 23 70.5zM156.003 138.002c0 10.667 6.83203 23 20.499 37s42.834 23.333 87.501 28v-68c0 -17.333 -3 -29 -9 -35c-6.66699 -6 -13 -10 -19 -12s-14 -3 -24 -3c-16 0 -29.333 4.5 -40 13.5s-16 21.833 -16 38.5v1zM173.002 671.002
c-9.33301 0 -21.835 -1.66602 -37.502 -4.99902s-23.5 -9 -23.5 -17c0 -40 9.33301 -71.333 28 -94s46 -34 82 -34c38 0 68.333 10.167 91 30.5s36.334 53.833 41.001 100.5c0 6 -7.5 10.667 -22.5 14s-26.5 5 -34.5 5c-4.66699 0 -7.83398 -1.16699 -9.50098 -3.5
s-2.5 -3.83301 -2.5 -4.5c-4.66699 -22 -11.167 -38 -19.5 -48s-20.5 -15 -36.5 -15c-11.333 0 -21.166 4.16699 -29.499 12.5s-14.166 24.5 -17.499 48.5c0 5.33301 -2.66699 8.66602 -8 9.99902h-1z" />
    <glyph glyph-name="Aogonek" unicode="&#x104;" horiz-adv-x="640" 
d="M416 161l23.002 -66.498l24 -67.5c4 -12 8.66699 -20.5 14 -25.5s14.666 -7.5 27.999 -7.5c-26.667 -20 -49 -43.333 -67 -70s-27 -52.667 -27 -78c0 -29.333 9.16699 -53.833 27.5 -73.5s44.5 -29.5 78.5 -29.5c22 0 42.5 4 61.5 12s32.167 16 39.5 24
c2.66699 4 5.5 12.833 8.5 26.5s4.5 23.5 4.5 29.5l-4 4c-14 -7.33301 -32.333 -11.333 -55 -12c-14.667 0 -26.5 4.33301 -35.5 13s-13.5 21 -13.5 37c0 29.333 12.167 56.166 36.5 80.499s46.166 40.5 65.499 48.5l1 7c-10 22 -21.5 49.333 -34.5 82l-49.5 130l-30.5 79.5
l-39.5 102.5l-41.5 107.5l-37.5 95.5c-6 13.333 -14 19.666 -24 18.999c-6 0 -22.333 -1.16699 -49 -3.5s-51 -5.5 -73 -9.5l6 -18l-48 -116l-69 -168l-70.5 -172.5l-52.5 -128.5l1 -6c12 -4 28.333 -7.16699 49 -9.5s37.667 -3.5 51 -3.5c17.333 0 27.333 5 30 15
c6 14.667 14.833 37.667 26.5 69l31.5 83h214zM232.002 254.002l43 118.5l35 101.5l79 -220h-157z" />
    <glyph glyph-name="aogonek" unicode="&#x105;" horiz-adv-x="465" 
d="M448 90c-6.66699 -2.66699 -14.9961 -3.99512 -24.9961 -3.99512s-17.167 2.33301 -21.5 7s-6.5 9.66699 -6.5 15c0 33.333 0.666992 65.833 2 97.5s2 57.834 2 78.501c0 58 -17.667 100.833 -53 128.5s-74 41.5 -116 41.5c-34 0 -68 -6.83301 -102 -20.5
s-62.667 -28.5 -86 -44.5c-0.666992 -16.667 3.16602 -32.834 11.499 -48.501s24.833 -20.167 49.5 -13.5l38.5 15.5c15.667 6.33301 32.167 9.5 49.5 9.5c23.333 0 41.666 -6.5 54.999 -19.5s20 -29.167 20 -48.5v-12c-11.333 -1.33301 -26.333 -4 -45 -8
c-20 -4.66699 -41.5 -10.334 -64.5 -17.001s-44.333 -15.5 -64 -26.5s-35.834 -24.833 -48.501 -41.5s-19 -37.334 -19 -62.001c0 -40 13.333 -71.5 40 -94.5s56.334 -34.5 89.001 -34.5c22 0 43.167 5.33301 63.5 16s36.833 23 49.5 37c10 -20.667 24 -35.334 42 -44.001
c-29.333 -20 -53.666 -43.5 -72.999 -70.5s-29 -54.167 -29 -81.5c0 -28.667 9 -52.834 27 -72.501s44 -29.5 78 -29.5c22 0 42.5 4 61.5 12s32.5 16 40.5 24c2.66699 4 5.5 12.833 8.5 26.5s4.5 23.5 4.5 29.5l-5 3c-14.667 -6.66699 -32.334 -10.334 -53.001 -11.001
c-14.667 0 -26.834 4.33301 -36.501 13s-14.5 20 -14.5 34c0 20 5.16699 39.5 15.5 58.5s33.166 40.5 68.499 64.5c28 16 43 32.667 45 50zM156.004 138.005c0 10.667 6.83203 23 20.499 37s42.834 23.333 87.501 28v-68c0 -17.333 -3 -29 -9 -35
c-6.66699 -6 -13 -10 -19 -12s-14.333 -3 -25 -3c-16 0 -29.167 4.5 -39.5 13.5s-15.5 21.833 -15.5 38.5v1z" />
    <glyph glyph-name="Cacute" unicode="&#x106;" horiz-adv-x="595" 
d="M564 109c-12.667 -4 -31.334 -8.83105 -56.001 -14.498s-54 -8.5 -88 -8.5c-76 0 -134.167 22.167 -174.5 66.5s-60.5 98.5 -60.5 162.5c0 77.333 20 134.833 60 172.5s89 56.5 147 56.5c26 0 50 -2.66699 72 -8s40 -11 54 -17c18.667 -2.66699 33.5 4 44.5 20
s15.833 33 14.5 51c-8 8.66699 -29.167 19.167 -63.5 31.5s-74.833 18.5 -121.5 18.5c-50 0 -97 -7.83301 -141 -23.5s-82.167 -37.834 -114.5 -66.501s-57.666 -63.5 -75.999 -104.5s-27.5 -87.5 -27.5 -139.5c0 -96 30.333 -173.5 91 -232.5s149 -88.5 265 -88.5
c32 0 60.667 3.66699 86 11s44.333 15 57 23c19.333 19.333 31.333 48.666 36 87.999zM449 829.002c-9.33301 0 -20.998 -3.16504 -34.998 -9.49805s-28.833 -14.166 -44.5 -23.499s-31 -19.333 -46 -30s-27.5 -20.334 -37.5 -29.001
c-12.667 -8.66699 -14.667 -19.667 -6 -33c5.33301 -10.667 11.666 -20.334 18.999 -29.001l82.5 30.5c34.333 13 68.5 24.5 102.5 34.5c11.333 3.33301 16.666 9.66602 15.999 18.999c-2.66699 10.667 -8 24 -16 40s-19.667 26 -35 30z" />
    <glyph glyph-name="cacute" unicode="&#x107;" horiz-adv-x="429" 
d="M412 108c-26 -10.667 -61.999 -16.665 -107.999 -17.998c-34.667 0 -65.667 11 -93 33s-41 57.333 -41 106c0 44 11.5 76.667 34.5 98s50.833 32 83.5 32c12 0 25 -1.33301 39 -4s26.333 -6 37 -10c19.333 0 32.833 8.16699 40.5 24.5s11.5 31.5 11.5 45.5
c-10 9.33301 -26.667 18.166 -50 26.499s-52 12.5 -86 12.5c-71.333 0 -131 -22.667 -179 -68s-72 -104.333 -72 -177c0 -66.667 20.833 -120.167 62.5 -160.5s98.5 -60.5 170.5 -60.5c20.667 0 41.167 2 61.5 6s38.166 11 53.499 21c10 9.33301 18.5 22.666 25.5 39.999
s10.833 34 11.5 50zM295.001 688.002c-8 -0.666992 -16.167 -6.83496 -24.5 -18.502s-16.5 -25.5 -24.5 -41.5s-15 -32.167 -21 -48.5s-10.333 -29.166 -13 -38.499c-5.33301 -15.333 -4.33301 -24.666 3 -27.999c4.66699 -3.33301 10 -6.5 16 -9.5s14 -5.16699 24 -6.5
l51 63c21.333 26.667 43 52 65 76c10 9.33301 10.667 16.333 2 21c-8 6.66699 -19 13.5 -33 20.5s-29 10.5 -45 10.5z" />
    <glyph glyph-name="Ccircumflex" unicode="&#x108;" horiz-adv-x="595" 
d="M564 109c-12.667 -4 -31.334 -8.83105 -56.001 -14.498s-54 -8.5 -88 -8.5c-76 0 -134.167 22.167 -174.5 66.5s-60.5 98.5 -60.5 162.5c0 77.333 20 134.833 60 172.5s89 56.5 147 56.5c26 0 50 -2.66699 72 -8s40 -11 54 -17c18.667 -2.66699 33.5 4 44.5 20
s15.833 33 14.5 51c-8 8.66699 -29.167 19.167 -63.5 31.5s-74.833 18.5 -121.5 18.5c-50 0 -97 -7.83301 -141 -23.5s-82.167 -37.834 -114.5 -66.501s-57.666 -63.5 -75.999 -104.5s-27.5 -87.5 -27.5 -139.5c0 -96 30.333 -173.5 91 -232.5s149 -88.5 265 -88.5
c32 0 60.667 3.66699 86 11s44.333 15 57 23c19.333 19.333 31.333 48.666 36 87.999zM275 674.002c3.33301 0 6.83691 1 10.5039 3s6.5 3.66699 8.5 5c25.333 16 48.666 33.667 69.999 53c28 -26 50.333 -44 67 -54c8 -4.66699 17 -7 27 -7s20.833 4.66699 32.5 14
s19.5 17 23.5 23c-46.667 38 -87 78 -121 120c-16.667 0 -31.334 -1.33301 -44.001 -4c-8.66699 -2 -15.667 -6.33301 -21 -13c-16 -19.333 -33.833 -37.833 -53.5 -55.5s-39.834 -33.167 -60.501 -46.5c2 -8 9.16699 -16.333 21.5 -25s25.166 -13 38.499 -13h1z" />
    <glyph glyph-name="ccircumflex" unicode="&#x109;" horiz-adv-x="429" 
d="M412 108c-26 -10.667 -61.999 -16.665 -107.999 -17.998c-34.667 0 -65.667 11 -93 33s-41 57.333 -41 106c0 44 11.5 76.667 34.5 98s50.833 32 83.5 32c12 0 25 -1.33301 39 -4s26.333 -6 37 -10c19.333 0 32.833 8.16699 40.5 24.5s11.5 31.5 11.5 45.5
c-10 9.33301 -26.667 18.166 -50 26.499s-52 12.5 -86 12.5c-71.333 0 -131 -22.667 -179 -68s-72 -104.333 -72 -177c0 -66.667 20.833 -120.167 62.5 -160.5s98.5 -60.5 170.5 -60.5c20.667 0 41.167 2 61.5 6s38.166 11 53.499 21c10 9.33301 18.5 22.666 25.5 39.999
s10.833 34 11.5 50zM185.001 510.002c6 0.666992 13.334 6.33008 22.001 16.9971c16.667 18.667 32 40.334 46 65.001c17.333 -25.333 34.666 -49.333 51.999 -72c4.66699 -7.33301 11.667 -10.666 21 -9.99902c8 0 18.667 2.33301 32 7s24 9 32 13l-53.5 77
c-17 25.333 -33.833 52 -50.5 80c-14 0 -29.667 -1.33301 -47 -4c-10.667 -3.33301 -18 -8.66602 -22 -15.999c-14 -26 -28.833 -50 -44.5 -72l-51.5 -71c12 -4 24 -7.33301 36 -10s21 -4 27 -4h1z" />
    <glyph glyph-name="Cdot" unicode="&#x10a;" horiz-adv-x="595" 
d="M564 109c-12.667 -4 -31.334 -8.83105 -56.001 -14.498s-54 -8.5 -88 -8.5c-76 0 -134.167 22.167 -174.5 66.5s-60.5 98.5 -60.5 162.5c0 77.333 20 134.833 60 172.5s89 56.5 147 56.5c26 0 50 -2.66699 72 -8s40 -11 54 -17c18.667 -2.66699 33.5 4 44.5 20
s15.833 33 14.5 51c-8 8.66699 -29.167 19.167 -63.5 31.5s-74.833 18.5 -121.5 18.5c-50 0 -97 -7.83301 -141 -23.5s-82.167 -37.834 -114.5 -66.501s-57.666 -63.5 -75.999 -104.5s-27.5 -87.5 -27.5 -139.5c0 -96 30.333 -173.5 91 -232.5s149 -88.5 265 -88.5
c32 0 60.667 3.66699 86 11s44.333 15 57 23c19.333 19.333 31.333 48.666 36 87.999zM366 813.002c-22 0 -38.5 -6.5 -49.5 -19.5s-16.5 -28.5 -16.5 -46.5c0 -21.333 6.5 -37 19.5 -47s26.833 -15 41.5 -15c19.333 0 34.833 5.83301 46.5 17.5s17.5 28.167 17.5 49.5
c0 16 -5.66699 30.167 -17 42.5s-25 18.5 -41 18.5h-1z" />
    <glyph glyph-name="cdot" unicode="&#x10b;" horiz-adv-x="429" 
d="M412 108c-26 -10.667 -61.999 -16.665 -107.999 -17.998c-34.667 0 -65.667 11 -93 33s-41 57.333 -41 106c0 44 11.5 76.667 34.5 98s50.833 32 83.5 32c12 0 25 -1.33301 39 -4s26.333 -6 37 -10c19.333 0 32.833 8.16699 40.5 24.5s11.5 31.5 11.5 45.5
c-10 9.33301 -26.667 18.166 -50 26.499s-52 12.5 -86 12.5c-71.333 0 -131 -22.667 -179 -68s-72 -104.333 -72 -177c0 -66.667 20.833 -120.167 62.5 -160.5s98.5 -60.5 170.5 -60.5c20.667 0 41.167 2 61.5 6s38.166 11 53.499 21c10 9.33301 18.5 22.666 25.5 39.999
s10.833 34 11.5 50zM258.001 666.002c-24 0 -41.502 -6.66699 -52.502 -20s-16.5 -29.666 -16.5 -48.999c0 -22.667 6.83301 -39.334 20.5 -50.001s27.834 -16 42.501 -16c20.667 0 37.334 6 50.001 18s19 29 19 51c0 18 -6 33.5 -18 46.5s-26.667 19.5 -44 19.5h-1z" />
    <glyph glyph-name="Ccaron" unicode="&#x10c;" horiz-adv-x="595" 
d="M564 109c-12.667 -4 -31.334 -8.83105 -56.001 -14.498s-54 -8.5 -88 -8.5c-76 0 -134.167 22.167 -174.5 66.5s-60.5 98.5 -60.5 162.5c0 77.333 20 134.833 60 172.5s89 56.5 147 56.5c26 0 50 -2.66699 72 -8s40 -11 54 -17c18.667 -2.66699 33.5 4 44.5 20
s15.833 33 14.5 51c-8 8.66699 -29.167 19.167 -63.5 31.5s-74.833 18.5 -121.5 18.5c-50 0 -97 -7.83301 -141 -23.5s-82.167 -37.834 -114.5 -66.501s-57.666 -63.5 -75.999 -104.5s-27.5 -87.5 -27.5 -139.5c0 -96 30.333 -173.5 91 -232.5s149 -88.5 265 -88.5
c32 0 60.667 3.66699 86 11s44.333 15 57 23c19.333 19.333 31.333 48.666 36 87.999zM455 837.002c-4 0 -7.66406 -1.16797 -10.9971 -3.50098s-6 -3.83301 -8 -4.5c-25.333 -15.333 -48.333 -33 -69 -53c-28.667 26 -51 44 -67 54c-8 5.33301 -17 7.66602 -27 6.99902
c-10.667 0 -21.667 -4.66699 -33 -14s-19 -17 -23 -23c24 -19.333 45.667 -38.666 65 -57.999s37.666 -39.666 54.999 -60.999c16.667 0 31.667 1.33301 45 4c8.66699 2 15.667 6.33301 21 13c15.333 18 32.666 35.833 51.999 53.5s39.666 33.5 60.999 47.5
c-3.33301 7.33301 -11 15.5 -23 24.5s-24.333 13.5 -37 13.5h-1z" />
    <glyph glyph-name="ccaron" unicode="&#x10d;" horiz-adv-x="429" 
d="M412 108c-26 -10.667 -61.999 -16.665 -107.999 -17.998c-34.667 0 -65.667 11 -93 33s-41 57.333 -41 106c0 44 11.5 76.667 34.5 98s50.833 32 83.5 32c12 0 25 -1.33301 39 -4s26.333 -6 37 -10c19.333 0 32.833 8.16699 40.5 24.5s11.5 31.5 11.5 45.5
c-10 9.33301 -26.667 18.166 -50 26.499s-52 12.5 -86 12.5c-71.333 0 -131 -22.667 -179 -68s-72 -104.333 -72 -177c0 -66.667 20.833 -120.167 62.5 -160.5s98.5 -60.5 170.5 -60.5c20.667 0 41.167 2 61.5 6s38.166 11 53.499 21c10 9.33301 18.5 22.666 25.5 39.999
s10.833 34 11.5 50zM322.001 683.002c-6 -0.666992 -12.668 -5.99902 -20.001 -15.999c-16.667 -19.333 -31.667 -41 -45 -65c-15.333 24.667 -31.666 48.667 -48.999 72c-4.66699 6.66699 -11.334 9.66699 -20.001 9c-8 0 -18.167 -2.16699 -30.5 -6.5
s-22.5 -8.5 -30.5 -12.5l51 -79l48 -79c14 0 29 1.33301 45 4c10 2.66699 17 8 21 16c12.667 25.333 26.5 49.166 41.5 71.499l49.5 72.5c-12 3.33301 -23.667 6.33301 -35 9s-19.666 4 -24.999 4h-1z" />
    </font>
</defs>
</svg>
